<svg xmlns="http://www.w3.org/2000/svg" viewBox="0 0 96.828 74.411">
  <defs>
    <pattern id="a1" data-name="Orange white square 1" width="28.8" height="28.8" patternTransform="translate(17.668 -20.626)" patternUnits="userSpaceOnUse" viewBox="0 0 28.8 28.8">
      <path fill="none" d="M0 0h28.8v28.8H0z"/>
      <circle cx="7.2" cy="21.599" r="5.76" fill="#f49c60"/>
      <circle cx="21.6" cy="21.599" r="5.76" fill="#f49c60"/>
      <circle cx="7.2" cy="7.199" r="5.759" fill="#f49c60"/>
      <circle cx="21.6" cy="7.199" r="5.76" fill="#f49c60"/>
      <circle cx="28.8" cy="28.799" r="5.76" fill="#f49c60"/>
      <circle cx="14.4" cy="28.799" r="5.759" fill="#f49c60"/>
      <circle cx="28.8" cy="14.4" r="5.76" fill="#f49c60"/>
      <circle cx="14.4" cy="14.4" r="5.76" fill="#f49c60"/>
      <circle cy="28.799" r="5.76" fill="#f49c60"/>
      <circle cy="14.4" r="5.76" fill="#f49c60"/>
      <circle cx="28.8" cy="-.001" r="5.76" fill="#f49c60"/>
      <circle cx="14.4" cy="-.001" r="5.759" fill="#f49c60"/>
      <circle cy="-.001" r="5.76" fill="#f49c60"/>
    </pattern>
    <pattern id="b1" data-name="Stipple Irregular 1" width="72" height="72" patternTransform="translate(-9.716 -2.135)" patternUnits="userSpaceOnUse" viewBox="0 0 72 72">
      <path fill="none" d="M0 0h72v72H0z"/>
      <path d="M75.35 63.876c-1.889-.826-5.223.716-4.049 1.774s5.666 1.39 6.6-.114-1.633-1.26-2.551-1.66zM74.5 20c-2.062 0-4.5 2.75-3 3.25s5.75-1 6-2.75-2-.5-3-.5zM73.643 48.806c-1.65-1.233-5.25-.486-4.346.81S74.5 52.253 75.75 51s-1.305-1.6-2.107-2.194zM73.5 5.25c-1.889 3.306-4.75 1.25-4-.5s5-1.25 4 .5zM23.434 11.03c2.4-1.286 6.531-1.69 7.723-.7 1.115.926 1.7 2.9-2.795 3.2s-7.37-1.19-4.928-2.5zM29.619 17.322c-1.613-1.282-5.232-.646-4.369.678s5.123 2.794 6.408 1.581-1.258-1.637-2.039-2.259zM51.018 17.192c-1.582-1.321-5.217-.774-4.385.57S51.686 20.682 53 19.5s-1.215-1.666-1.982-2.308zM52.873 41.964c-1.746-1.1-5.273-.062-4.27 1.159s5.4 2.208 6.545.858-1.427-1.481-2.275-2.017zM3.35 63.876c-1.889-.826-5.223.716-4.05 1.774s5.666 1.39 6.6-.114-1.632-1.26-2.55-1.66zM45.793 65.956c1.887-.829 3.016-4.326 1.443-4.183S42.371 65 42.846 66.7s2.031-.344 2.947-.744zM60.5 61c-2.062 0-4.5 2.75-3 3.25s5.75-1 6-2.75-2-.5-3-.5zM52.25 7c-2.062 0-4.5 2.75-3 3.25s5.75-1 6-2.75-2-.5-3-.5zM56.545 33.33c-1.27-1.625-4.94-1.852-4.408-.362S56.467 36.882 58 36s-.84-1.883-1.455-2.67zM36 24.5c-2.062 0-4.5 2.75-3 3.25s5.75-1 6-2.75-2-.5-3-.5zM19 57.5c-2.25 1.29-6.178 1.785-7.338.877-1.088-.851-1.7-2.713 2.576-3.125s7.051.934 4.762 2.248zM34.5 43.25c1.889-3.307 4.75-1.25 4 .5s-5 1.25-4-.5zM20.5 48.5c1.889-3.307 4.75-1.25 4 .5s-5 1.25-4-.5zM22.75 29.75c1.889-3.307 2.75-.75 2 1s-3 .75-2-1zM14.5 7c1.889-3.307 4.75-1.25 4 .5s-5 1.25-4-.5zM55.162 52.319c1.537-2.244 5.022-4.5 6.533-4.176 1.416.3 2.844 1.788-1.01 4.128s-7.085 2.335-5.523.048zM21.105 62.743c-1.934-.713-5.172 1.025-3.937 2.014.383.407 5.742 1.049 6.582-.507s-1.705-1.16-2.645-1.507zM42.5 5.75c1.889-3.307 4.75-1.25 4 .5s-5 1.25-4-.5zM14 42.5c1.889-3.307 4.75-1.25 4 .5s-5 1.25-4-.5zM35 55.25c-2.062 0-4.5 2.75-3 3.25s5.75-1 6-2.75-2-.5-3-.5zM13.346 26.188C11.7 24.956 8.1 25.7 9 27s5.207 2.636 6.453 1.382-1.305-1.596-2.107-2.194zM5.75 13c1.889-3.307 4.75-1.25 4 .5s-5 1.25-4-.5zM67.041 15.192c-2.656.658-6.787.025-7.7-1.231-.858-1.18-.94-3.247 3.52-2.428s6.885 2.989 4.18 3.659zM16.5 21.25c1.889-3.307 4.75-1.25 4 .5s-5 1.25-4-.5zM2.5 20c-2.062 0-4.5 2.75-3 3.25s5.75-1 6-2.75-2-.5-3-.5zM65 26.5c1.889-3.307 4.75-1.25 4 .5s-5 1.25-4-.5zM55 23c-2.062 0-4.5 2.75-3 3.25s5.75-1 6-2.75-2-.5-3-.5zM70.395 34.806c-1.652-1.233-5.252-.486-4.348.81S71.254 38.253 72.5 37s-1.3-1.6-2.105-2.194zM58.75 6.75c1.889-3.307 2.75-.75 2 1s-3 .75-2-1zM65.5 56.25c1.889-3.307 4.75-1.25 4 .5s-5 1.25-4-.5zM8.5 71.5c-2.062 0-4.5 2.75-3 3.25s5.75-1 6-2.75-2-.5-3-.5zM9 36.25c-2.062 0-4.5 2.75-3 3.25s5.75-1 6-2.75-2-.5-3-.5zM29.846 1.438C28.2.206 24.6.952 25.5 2.25s5.207 2.636 6.453 1.382-1.305-1.596-2.107-2.194zM40.25 71.25c-2.062 0-4.5 2.75-3 3.25s5.75-1 6-2.75-2-.5-3-.5zM26.9 44.636c.949 1.832 4.512 2.731 4.266 1.17s-3.531-4.646-5.2-4.063.475 2.005.934 2.893zM43.75 36.5c-3.727.784-2.389-1.558-.582-2.16s2.553 1.745.582 2.16zM29.172 34.593C31 32.764 34.647 31.259 36 31.827c1.27.535 2.344 2.167-1.66 3.682s-7.027.946-5.168-.916zM34 62.75c-1.889-3.307-4.75-1.25-4 .5s5 1.25 4-.5zM44.961 52.906c.43 2.017 3.627 3.828 3.8 2.258s-2.176-5.416-3.937-5.3-.072 2.064.137 3.042zM39.5 13.25c-3.727.784-2.389-1.558-.582-2.16s2.553 1.745.582 2.16zM1.643 48.806c-1.65-1.233-5.25-.486-4.346.81S2.5 52.253 3.75 51s-1.305-1.6-2.107-2.194zM1.5 5.25c-1.889 3.306-4.75 1.25-4-.5s5-1.25 4 .5zM60.049 70.148c-.795-1.443-4.828-1.843-4.6-.6s2.918 3.645 4.24 3.145.747-1.842.36-2.545z" fill="none" stroke="#fff" stroke-width=".3"/>
      <path d="M9.59 8.89a.239.239 0 01-.25-.25.217.217 0 01.07-.17.25.25 0 01.35-.011.278.278 0 01.08.181.3.3 0 01-.07.181.282.282 0 01-.18.069zM13.09 9.14a.239.239 0 01-.25-.25.257.257 0 01.07-.17.25.25 0 01.35-.011.278.278 0 01.08.181.3.3 0 01-.07.181.245.245 0 01-.18.069zM17.09 14.89a.207.207 0 01-.17-.069.218.218 0 01-.08-.181.257.257 0 01.07-.17.26.26 0 01.35-.011.278.278 0 01.08.181.3.3 0 01-.07.181.264.264 0 01-.18.069zM5 22.5a.218.218 0 01-.17-.07.248.248 0 01-.08-.18.288.288 0 01.068-.18.261.261 0 01.352 0 .232.232 0 01.08.18.246.246 0 01-.07.18.261.261 0 01-.18.07zM11.84 17.39a.239.239 0 01-.25-.25.217.217 0 01.07-.17.24.24 0 01.35 0 .218.218 0 01.08.17.259.259 0 01-.08.181.21.21 0 01-.17.069zM22.59 20.64a.239.239 0 01-.25-.25.287.287 0 01.07-.181.26.26 0 01.35 0 .278.278 0 01.08.181.323.323 0 01-.07.181.264.264 0 01-.18.069zM17.84 27.89a.239.239 0 01-.25-.25.257.257 0 01.07-.17.25.25 0 01.35-.011.278.278 0 01.08.181.323.323 0 01-.07.181.264.264 0 01-.18.069zM11.59 31.14a.242.242 0 01-.18-.069.287.287 0 01-.07-.181.231.231 0 01.07-.17.25.25 0 01.35-.011.255.255 0 01.01.361.282.282 0 01-.18.07zM40.5 22.25a.218.218 0 01-.17-.07.248.248 0 01-.08-.18.22.22 0 01.068-.17.255.255 0 01.361-.01.289.289 0 01.07.18.237.237 0 01-.08.18.246.246 0 01-.169.07zM23.59 10.14a.258.258 0 01-.18-.069.267.267 0 01-.07-.181.231.231 0 01.07-.17.25.25 0 01.35-.011.255.255 0 01.01.361.282.282 0 01-.18.07zM38.34 6.89a.242.242 0 01-.18-.069.267.267 0 01-.07-.181.2.2 0 01.07-.17.25.25 0 01.35-.011.259.259 0 01.08.181.276.276 0 01-.07.181.282.282 0 01-.18.069zM44.09 14.89a.258.258 0 01-.18-.069.242.242 0 01-.07-.181.217.217 0 01.07-.17.25.25 0 01.35-.011.278.278 0 01.08.181.3.3 0 01-.07.181.282.282 0 01-.18.069zM49.59 12.14a.242.242 0 01-.18-.069.267.267 0 01-.07-.181.287.287 0 01.07-.181.272.272 0 01.35 0 .278.278 0 01.08.181.3.3 0 01-.07.181.264.264 0 01-.18.069zM54.84 16.89a.239.239 0 01-.25-.25.217.217 0 01.07-.17.25.25 0 01.35-.011.255.255 0 01.01.361.264.264 0 01-.18.07zM59 18.75a.256.256 0 01-.182-.08.246.246 0 01-.068-.17.288.288 0 01.068-.18.261.261 0 01.352 0 .232.232 0 01.08.18.241.241 0 01-.25.25zM56.09 4.14a.242.242 0 01-.18-.069.267.267 0 01-.07-.181.287.287 0 01.07-.181.272.272 0 01.35 0 .278.278 0 01.08.181.3.3 0 01-.07.181.282.282 0 01-.18.069zM49.59 4.39a.239.239 0 01-.25-.25.217.217 0 01.07-.17.25.25 0 01.35-.011.3.3 0 01.08.181.323.323 0 01-.07.181.282.282 0 01-.18.069zM51.59 6.14a.242.242 0 01-.18-.069.287.287 0 01-.07-.181.217.217 0 01.07-.17.25.25 0 01.35-.011.278.278 0 01.08.181.3.3 0 01-.07.181.264.264 0 01-.18.069zM65.09 17.39a.239.239 0 01-.25-.25.231.231 0 01.07-.17.25.25 0 01.35-.011.253.253 0 01.08.181.323.323 0 01-.07.181.264.264 0 01-.18.069zM65.34 8.14a.242.242 0 01-.18-.069.287.287 0 01-.07-.181.31.31 0 01.07-.181.285.285 0 01.359 0 .323.323 0 01.07.181.3.3 0 01-.07.181.264.264 0 01-.179.069zM22.59 2.64a.242.242 0 01-.18-.069.267.267 0 01-.07-.181.287.287 0 01.07-.181.26.26 0 01.35 0 .278.278 0 01.08.181.3.3 0 01-.07.181.282.282 0 01-.18.069zM8.84 5.14a.239.239 0 01-.25-.25.231.231 0 01.07-.17.25.25 0 01.35-.011.255.255 0 01.01.361.282.282 0 01-.18.07zM2.09 3.89a.242.242 0 01-.18-.07.287.287 0 01-.07-.18.257.257 0 01.07-.17.26.26 0 01.359 0 .267.267 0 01.07.17.3.3 0 01-.07.181.282.282 0 01-.179.069zM60.5 37.25a.238.238 0 01-.25-.25.288.288 0 01.068-.18.274.274 0 01.361 0 .259.259 0 01.07.18.264.264 0 01-.07.18.292.292 0 01-.179.07zM57.59 26.14a.242.242 0 01-.18-.069.287.287 0 01-.07-.181.217.217 0 01.07-.17.261.261 0 01.359 0 .266.266 0 01.07.17.3.3 0 01-.07.181.264.264 0 01-.179.069zM40.09 17.14a.242.242 0 01-.18-.069.267.267 0 01-.07-.181.251.251 0 01.08-.181.258.258 0 01.34 0 .278.278 0 01.08.181.3.3 0 01-.07.181.282.282 0 01-.18.069zM43.84 25.89a.242.242 0 01-.18-.069.267.267 0 01-.07-.181.251.251 0 01.08-.181.26.26 0 01.35.011.266.266 0 01.07.17.3.3 0 01-.07.181.264.264 0 01-.18.069zM31.59 30.64a.254.254 0 01-.17-.06.25.25 0 01-.08-.19.231.231 0 01.07-.17.241.241 0 01.35-.011.3.3 0 01.08.181.323.323 0 01-.07.181.282.282 0 01-.18.069zM48.34 31.64a.242.242 0 01-.18-.069.267.267 0 01-.07-.181.251.251 0 01.08-.181.26.26 0 01.35.011.29.29 0 01.07.17.3.3 0 01-.07.181.264.264 0 01-.18.069zM54.84 40.14a.242.242 0 01-.18-.069.267.267 0 01-.07-.181.287.287 0 01.07-.181.261.261 0 01.35 0 .278.278 0 01.08.181.3.3 0 01-.07.181.282.282 0 01-.18.069zM42.59 43.39a.258.258 0 01-.18-.069.242.242 0 01-.07-.181.231.231 0 01.07-.17.25.25 0 01.35-.011.255.255 0 01.01.361.282.282 0 01-.18.07zM26 55.25a.233.233 0 01-.17-.07.248.248 0 01-.08-.18.311.311 0 01.068-.18.274.274 0 01.361 0 .289.289 0 01.07.18.294.294 0 01-.07.18.279.279 0 01-.179.07zM27.09 36.89a.239.239 0 01-.25-.25.231.231 0 01.07-.17.25.25 0 01.35-.011.3.3 0 01.08.181.323.323 0 01-.07.181.264.264 0 01-.18.069zM21.5 35.25a.233.233 0 01-.17-.07.248.248 0 01-.08-.18.311.311 0 01.068-.18.274.274 0 01.361 0 .289.289 0 01.07.18.294.294 0 01-.07.18.261.261 0 01-.179.07zM26.09 25.39a.239.239 0 01-.25-.25.287.287 0 01.07-.181.26.26 0 01.35 0 .278.278 0 01.08.181.323.323 0 01-.07.181.264.264 0 01-.18.069zM11.34 24.64a.242.242 0 01-.18-.069.287.287 0 01-.07-.181.231.231 0 01.07-.17.25.25 0 01.35-.011.255.255 0 01.01.361.282.282 0 01-.18.07zM6.84 16.14a.258.258 0 01-.18-.069.242.242 0 01-.07-.181.231.231 0 01.07-.17.25.25 0 01.35-.011.255.255 0 01.01.361.282.282 0 01-.18.07zM59.5 44a.317.317 0 01-.182-.07.292.292 0 01-.068-.18.288.288 0 01.068-.18.274.274 0 01.361 0 .259.259 0 01.07.18.321.321 0 01-.07.18.316.316 0 01-.179.07zM64.59 30.39a.242.242 0 01-.18-.069.267.267 0 01-.07-.181.31.31 0 01.07-.181.273.273 0 01.359.011.266.266 0 01.07.17.3.3 0 01-.07.181.264.264 0 01-.179.069zM58.34 30.14a.242.242 0 01-.18-.069.287.287 0 01-.07-.181.257.257 0 01.07-.17.261.261 0 01.359 0 .266.266 0 01.07.17.3.3 0 01-.07.181.264.264 0 01-.179.069zM65.34 21.39a.239.239 0 01-.25-.25.238.238 0 01.07-.17.261.261 0 01.359 0 .266.266 0 01.07.17.323.323 0 01-.07.181.264.264 0 01-.179.069zM61.59 22.14a.239.239 0 01-.25-.25.217.217 0 01.07-.17.25.25 0 01.35-.011.255.255 0 01.01.361.264.264 0 01-.18.07zM67.59 2.64a.239.239 0 01-.25-.25.217.217 0 01.07-.17.259.259 0 01.35-.011.278.278 0 01.08.181.3.3 0 01-.07.181.264.264 0 01-.18.069zM33.09 3.64a.239.239 0 01-.25-.25.287.287 0 01.07-.181.26.26 0 01.35 0 .278.278 0 01.08.181.3.3 0 01-.07.181.264.264 0 01-.18.069zM46.84 23.39a.242.242 0 01-.18-.069.267.267 0 01-.07-.181.251.251 0 01.08-.181.258.258 0 01.34 0 .278.278 0 01.08.181.3.3 0 01-.07.181.282.282 0 01-.18.069zM4.59 44.39a.239.239 0 01-.25-.25.217.217 0 01.07-.17.25.25 0 01.35-.011.278.278 0 01.08.181.3.3 0 01-.07.181.282.282 0 01-.18.069zM64.09 46.39a.242.242 0 01-.18-.069.257.257 0 01-.07-.181.231.231 0 01.07-.17.25.25 0 01.35-.011.255.255 0 01.01.361.264.264 0 01-.18.07zM65.84 38.14a.239.239 0 01-.25-.25.231.231 0 01.07-.17.262.262 0 01.359-.011.353.353 0 01.07.181.323.323 0 01-.07.181.264.264 0 01-.179.069zM40.59 37.39a.242.242 0 01-.18-.069.267.267 0 01-.07-.181.251.251 0 01.08-.181.258.258 0 01.34 0 .278.278 0 01.08.181.3.3 0 01-.07.181.282.282 0 01-.18.069zM41.25 29.75a.238.238 0 01-.25-.25.229.229 0 01.08-.18.259.259 0 01.35 0 .289.289 0 01.07.18.241.241 0 01-.07.17.255.255 0 01-.18.08zM21 54.25a.218.218 0 01-.17-.07.248.248 0 01-.08-.18.288.288 0 01.068-.18.261.261 0 01.352 0 .246.246 0 01.08.18.264.264 0 01-.07.18.279.279 0 01-.18.07zM18.35 33.17a.218.218 0 01-.17-.07.246.246 0 01-.08-.18.276.276 0 01.07-.17.249.249 0 01.35-.01.24.24 0 01.08.18.291.291 0 01-.07.18.258.258 0 01-.18.07zM41.1 33.42a.218.218 0 01-.17-.07.23.23 0 01-.08-.18.261.261 0 01.08-.18.246.246 0 01.34 0 .27.27 0 01.08.18.291.291 0 01-.07.18.275.275 0 01-.18.07zM66.25 60.75a.317.317 0 01-.182-.07.292.292 0 01-.068-.18.25.25 0 11.5 0 .246.246 0 01-.07.18.279.279 0 01-.18.07zM48.5 25.5a.24.24 0 01-.182-.08.246.246 0 01-.068-.17.311.311 0 01.068-.18.274.274 0 01.361 0 .259.259 0 01.07.18.294.294 0 01-.07.18.271.271 0 01-.179.07zM41.5 50a.238.238 0 01-.25-.25.288.288 0 01.068-.18.263.263 0 01.361 0 .289.289 0 01.07.18.241.241 0 01-.249.25zM26.35 33.67a.239.239 0 01-.18-.07.28.28 0 01-.07-.18.244.244 0 01.08-.18.26.26 0 01.35.01.263.263 0 01.07.17.237.237 0 01-.07.18.242.242 0 01-.18.07zM9.75 50a.317.317 0 01-.182-.07.292.292 0 01-.068-.18.234.234 0 01.068-.17.264.264 0 01.361-.01.259.259 0 01.07.18.294.294 0 01-.07.18.261.261 0 01-.179.07zM21.85 42.42a.232.232 0 01-.17-.07.246.246 0 01-.08-.18.253.253 0 01.07-.17.249.249 0 01.35-.01.252.252 0 01.01.359.258.258 0 01-.18.071zM16.35 38.17a.232.232 0 01-.17-.07.246.246 0 01-.08-.18.3.3 0 01.07-.18.258.258 0 01.35 0 .27.27 0 01.08.18.237.237 0 01-.07.18.275.275 0 01-.18.07zM15.85 46.17a.218.218 0 01-.17-.07.214.214 0 01-.08-.18.253.253 0 01.07-.17.249.249 0 01.35-.01.27.27 0 01.08.18.237.237 0 01-.07.18.258.258 0 01-.18.07zM34.6 48.17a.239.239 0 01-.18-.07.265.265 0 010-.359.258.258 0 01.35 0 .27.27 0 01.08.18.291.291 0 01-.07.18.242.242 0 01-.18.069zM41.1 56.67a.254.254 0 01-.18-.07.261.261 0 01-.07-.18.244.244 0 01.08-.18.257.257 0 01.34 0 .252.252 0 01.01.359.258.258 0 01-.18.071zM28.85 59.92a.25.25 0 01-.17-.061.246.246 0 01-.08-.189.253.253 0 01.07-.17.26.26 0 01.35-.01.27.27 0 01.08.18.237.237 0 01-.07.18.242.242 0 01-.18.07zM7.5 55.75a.233.233 0 01-.17-.07.248.248 0 01-.08-.18.288.288 0 01.068-.18.263.263 0 01.361 0 .259.259 0 01.07.18.321.321 0 01-.07.18.316.316 0 01-.179.07zM17.1 60.42a.239.239 0 01-.18-.07.28.28 0 01-.07-.18.3.3 0 01.07-.18.258.258 0 01.35 0 .27.27 0 01.08.18.237.237 0 01-.07.18.242.242 0 01-.18.07zM15.75 53.5a.317.317 0 01-.182-.07.292.292 0 01-.068-.18.288.288 0 01.068-.18.274.274 0 01.361 0 .289.289 0 01.07.18.294.294 0 01-.07.18.279.279 0 01-.179.07zM24.75 39a.238.238 0 01-.25-.25.288.288 0 01.068-.18.263.263 0 01.361 0 .289.289 0 01.07.18.241.241 0 01-.249.25zM45.35 58.92a.239.239 0 01-.18-.07.261.261 0 01-.07-.18.253.253 0 01.07-.17.249.249 0 01.35-.01.24.24 0 01.08.18.291.291 0 01-.07.18.258.258 0 01-.18.07zM50.85 46.92a.239.239 0 01-.18-.07.28.28 0 01-.07-.18.253.253 0 01.07-.17.262.262 0 01.359 0 .231.231 0 01.07.17.237.237 0 01-.07.18.242.242 0 01-.179.07zM44.6 46.67a.218.218 0 01-.17-.07.23.23 0 01-.08-.18.261.261 0 01.08-.18.246.246 0 01.34 0 .27.27 0 01.08.18.291.291 0 01-.07.18.275.275 0 01-.18.07zM59.75 58.75a.218.218 0 01-.17-.07.248.248 0 01-.08-.18.288.288 0 01.068-.18.274.274 0 01.361 0 .243.243 0 01.07.18.246.246 0 01-.07.18.261.261 0 01-.179.07zM47.85 38.67a.239.239 0 01-.18-.07.237.237 0 01-.07-.18.253.253 0 01.07-.17.272.272 0 01.359-.01.313.313 0 01.07.18.237.237 0 01-.07.18.242.242 0 01-.179.07zM33.1 39.92a.239.239 0 01-.18-.07.261.261 0 01-.07-.18.244.244 0 01.08-.18.26.26 0 01.35.01.263.263 0 01.07.17.291.291 0 01-.07.18.258.258 0 01-.18.07zM50.35 62.92a.254.254 0 01-.18-.07.252.252 0 01.01-.359.257.257 0 01.34 0 .252.252 0 01.01.359.258.258 0 01-.18.07zM50.25 53.75a.262.262 0 01-.182-.07.292.292 0 01-.068-.18.245.245 0 01.08-.18.258.258 0 01.35 0 .243.243 0 01.07.18.294.294 0 01-.07.18.261.261 0 01-.18.07zM30.5 51.25a.233.233 0 01-.17-.07.248.248 0 01-.08-.18.288.288 0 01.068-.18.264.264 0 01.361.01.243.243 0 01.07.17.294.294 0 01-.07.18.261.261 0 01-.179.07zM5.75 39.75a.233.233 0 01-.17-.07.248.248 0 01-.08-.18.234.234 0 01.068-.17.243.243 0 01.352-.01.246.246 0 01.08.18.294.294 0 01-.07.18.261.261 0 01-.18.07zM1.75 34.5a.317.317 0 01-.182-.07.292.292 0 01-.068-.18.234.234 0 01.068-.17.251.251 0 01.352-.01.246.246 0 01.08.18.294.294 0 01-.07.18.316.316 0 01-.18.07zM68.75 51a.317.317 0 01-.182-.07.292.292 0 01-.068-.18.288.288 0 01.068-.18.274.274 0 01.361 0 .259.259 0 01.07.18.264.264 0 01-.07.18.316.316 0 01-.179.07zM12.25 64.25a.293.293 0 01-.182-.07A.319.319 0 0112 64a.288.288 0 01.068-.18.261.261 0 01.352 0 .252.252 0 01.08.18.246.246 0 01-.07.18.261.261 0 01-.18.07zM8.25 69a.317.317 0 01-.182-.07.262.262 0 01-.068-.18.288.288 0 01.068-.18.274.274 0 01.361 0 .289.289 0 01.07.18.264.264 0 01-.07.18.261.261 0 01-.179.07zM10.25 61a.317.317 0 01-.182-.07.292.292 0 01-.068-.18.234.234 0 01.068-.17.252.252 0 01.352-.01.232.232 0 01.08.18.294.294 0 01-.07.18.279.279 0 01-.18.07zM17.75 67.5a.317.317 0 01-.182-.07.292.292 0 01-.068-.18.288.288 0 01.068-.18.274.274 0 01.361 0 .289.289 0 01.07.18.294.294 0 01-.07.18.279.279 0 01-.179.07zM24.5 70a.258.258 0 01-.17-.07.248.248 0 01-.08-.18.288.288 0 01.068-.18.274.274 0 01.361 0 .313.313 0 01.07.18.264.264 0 01-.07.18.317.317 0 01-.179.07zM28.75 66a.238.238 0 01-.25-.25.245.245 0 01.08-.18.258.258 0 01.35 0 .277.277 0 01.07.18.241.241 0 01-.07.17.255.255 0 01-.18.08zM69.75 31.5a.262.262 0 01-.182-.07.292.292 0 01-.068-.18.245.245 0 01.08-.18.258.258 0 01.35 0 .289.289 0 01.07.18.294.294 0 01-.07.18.261.261 0 01-.18.07zM55.75 46.25a.238.238 0 01-.25-.25.242.242 0 01.068-.17.263.263 0 01.361-.01A.277.277 0 0156 46a.241.241 0 01-.07.17.255.255 0 01-.18.08zM37.75 69a.317.317 0 01-.182-.07.269.269 0 01-.068-.18.245.245 0 01.08-.18.257.257 0 01.34 0 .232.232 0 01.08.18.294.294 0 01-.07.18.261.261 0 01-.18.07zM47.75 70a.317.317 0 01-.182-.07.292.292 0 01-.068-.18.245.245 0 01.08-.18.27.27 0 01.35 0 .289.289 0 01.07.18.246.246 0 01-.07.18.317.317 0 01-.18.07zM62.75 67.5a.262.262 0 01-.182-.07.292.292 0 01-.068-.18.245.245 0 01.08-.18.258.258 0 01.35 0 .243.243 0 01.07.18.246.246 0 01-.07.18.261.261 0 01-.18.07zM53.25 71a.293.293 0 01-.182-.07.269.269 0 01-.068-.18.245.245 0 01.08-.18.27.27 0 01.35 0 .313.313 0 01.07.18.321.321 0 01-.07.18.279.279 0 01-.18.07zM32.75 68a.238.238 0 01-.25-.25.245.245 0 01.08-.18.258.258 0 01.35 0 .277.277 0 01.07.18.241.241 0 01-.07.17.234.234 0 01-.18.08zM24.5 62a.218.218 0 01-.17-.07.248.248 0 01-.08-.18.288.288 0 01.068-.18.274.274 0 01.361 0 .289.289 0 01.07.18.241.241 0 01-.07.17.234.234 0 01-.179.08zM36.5 53a.233.233 0 01-.17-.07.248.248 0 01-.08-.18.288.288 0 01.068-.18.261.261 0 01.352 0 .219.219 0 01.08.18.294.294 0 01-.07.18.279.279 0 01-.18.07zM54.6 59.17a.254.254 0 01-.18-.07.252.252 0 01.01-.359.246.246 0 01.34 0 .27.27 0 01.08.18.291.291 0 01-.07.18.258.258 0 01-.18.069zM67.75 69.5a.317.317 0 01-.182-.07.292.292 0 01-.068-.18.288.288 0 01.068-.18.274.274 0 01.361 0 .259.259 0 01.07.18.264.264 0 01-.07.18.317.317 0 01-.179.07zM3.75 12.75a.317.317 0 01-.182-.07.292.292 0 01-.068-.18.234.234 0 01.068-.17.251.251 0 01.352-.01.246.246 0 01.08.18.264.264 0 01-.07.18.279.279 0 01-.18.07zM69 42.25a.293.293 0 01-.182-.07.262.262 0 01-.068-.18.245.245 0 01.08-.18.25.25 0 01.35.01.243.243 0 01.07.17.264.264 0 01-.07.18.245.245 0 01-.18.07zM31.25 23.75a.293.293 0 01-.182-.07.269.269 0 01-.068-.18.288.288 0 01.068-.18.274.274 0 01.361 0 .277.277 0 01.07.18.241.241 0 01-.249.25zM36 20.5a.218.218 0 01-.17-.07.248.248 0 01-.08-.18.288.288 0 01.068-.18.274.274 0 01.361 0 .289.289 0 01.07.18.264.264 0 01-.07.18.245.245 0 01-.179.07zM29 27.75a.233.233 0 01-.17-.07.248.248 0 01-.08-.18.288.288 0 01.068-.18.251.251 0 01.352 0 .232.232 0 01.08.18.264.264 0 01-.07.18.279.279 0 01-.18.07zM13 21.25a.233.233 0 01-.17-.07.248.248 0 01-.08-.18.288.288 0 01.068-.18.263.263 0 01.361.01.243.243 0 01.07.17.294.294 0 01-.07.18.279.279 0 01-.179.07zM29.25 9a.258.258 0 01-.17-.07.229.229 0 01-.08-.18.22.22 0 01.068-.17.243.243 0 01.352-.01.246.246 0 01.08.18.241.241 0 01-.07.17.255.255 0 01-.18.08zM2 56.5a.317.317 0 01-.182-.07.292.292 0 01-.068-.18.254.254 0 01.43-.18.277.277 0 01.07.18.294.294 0 01-.07.18.261.261 0 01-.18.07zM10.5 44.75a.317.317 0 01-.182-.07.292.292 0 01-.068-.18.288.288 0 01.068-.18.274.274 0 01.361 0 .243.243 0 01.07.18.294.294 0 01-.07.18.261.261 0 01-.179.07zM62.5 40.25a.317.317 0 01-.182-.07.269.269 0 01-.068-.18.229.229 0 01.08-.18.27.27 0 01.35 0 .289.289 0 01.07.18.294.294 0 01-.07.18.261.261 0 01-.18.07zM3.84 30.64a.239.239 0 01-.25-.25.257.257 0 01.07-.17.25.25 0 01.35-.011.278.278 0 01.08.181.323.323 0 01-.07.181.282.282 0 01-.18.069z" fill="#231f20" stroke="#fff" stroke-miterlimit="10"/>
      <path d="M-1.605 34.806c-1.652-1.233-5.252-.486-4.348.81S-.746 38.253.5 37s-1.3-1.6-2.105-2.194zM8.5-.5c-2.062 0-4.5 2.75-3 3.25s5.75-1 6-2.75-2-.5-3-.5zM40.25-.75c-2.062 0-4.5 2.75-3 3.25s5.75-1 6-2.75-2-.5-3-.5zM60.049-1.852c-.795-1.443-4.828-1.843-4.6-.6s2.918 3.645 4.24 3.145.747-1.842.36-2.545z" fill="none" stroke="#fff" stroke-width=".3"/>
    </pattern>
    <pattern id="c1" data-name="Lines 1 " width="72" height="72" patternTransform="translate(-13.567 -42.638)" patternUnits="userSpaceOnUse" viewBox="0 0 72 72">
      <path fill="none" d="M0 0h72v72H0z"/>
      <path fill="none" stroke="#000" stroke-linecap="square" stroke-width=".3" d="M29.438 73.625v-3.5M71 9.625h22.687M78.187 13.875H71M71 25.375h23.937M71 34.625h30.687M71 50.375h31.937M71 59.125h2.687M71 53.375h36.687M81.187 41.875H71M71 66.375h10.187M71 63.375h24.187M-1 9.625h22.688M11.938 3.875h43.75M16.188 9.625v-5.75M34.438 5.625h31.5M20.438 7.375h39.5M48.938 16.875h20.25M62.188 16.875v-3.5M70.687 13.875h-6.249M6.188 13.875H-1M4.938 16.875h24.25M38.188 9.625h32.999M18.938 13.875h24.25M51.438 22.125H73M51.188 23.375H73M7.188 22.125h18.75M6.938 23.375h12.5M21.688 19.125h24.25M33.438 25.375h20.25M46.688 25.375v-3.5M-1 25.375h23.938M3.938 25.375v-3.5M57.938 25.375h12.499M29.688 22.125h3.75M-1 34.625h30.688M19.938 28.875h43.75M24.188 34.625v-5.75M42.438 30.625H73M28.438 32.375h39.5M56.938 41.875H73M70.188 41.875v-3.5M55.938 38.875h-2M14.188 38.875h-6.25M12.938 41.875h24.25M46.688 34.625H73M26.938 38.875h24.25M59.438 47.125H73M59.188 48.375H73M15.188 47.125h18.75M14.938 48.375h12.5M29.688 44.125h24.25M41.438 50.375h20.25M54.688 50.375v-3.5M-1 50.375h31.938M11.938 50.375v-3.5M65.938 50.375H73M37.688 47.125h3.75M-1 59.125h2.688M-1 53.375h36.688M14.438 55.125h31.5M1.75 56.875h38.188M28.938 66.375h20.25M42.188 66.375v-3.5M51.688 63.375h-6.25M9.188 41.875H-1M-1 66.375H9.188M18.688 59.125h33M-1 63.375h24.188M58.938 59.125H73M37.438 68.625h24M62.438 63.375H73M1.688 68.625h24.25M29.438 73.625v-3.5M62.438 54.875H73M65.188 68.625h3.75M16.188 1.625h20.25M29.438 1.625v-3.5M2.688 4.125h3.75M-20.563 22.125H1M-20.813 23.375H1M-29.563 30.625H1M-15.063 41.875H1M-25.313 34.625H1M-12.563 47.125H1M-12.813 48.375H1M-6.063 50.375H1M-13.063 59.125H1M-9.563 63.375H1M-9.563 54.875H1M29.438 1.625v-3.5"/>
    </pattern>
  </defs>
  <g data-name="Layer 1">
    <g data-name="&lt;Group&gt;">
      <g opacity=".41" style="mix-blend-mode:multiply">
        <path d="M89.116 54.061v13.75h-2.12a4.235 4.235 0 00-5.75-1.65 4.158 4.158 0 00-1.65 1.65h-4.24a4.23 4.23 0 00-7.4 0h-1.06v-13.75h22.22zM28.816 54.061v13.75h-1.87c-.75-2.11-2.12-2.11-3.68-2.11s-2.91 0-3.68 2.11h-4.23c-.75-2.11-2.12-2.11-3.68-2.11s-2.96 0-3.73 2.11h-1.34v-13.75h22.21z" fill="#000023"/>
        <path d="M94.456 46.081c.06.45-1.37 1.73-2.49 1.99a1.629 1.629 0 01-1.06-.38c-.34-.19-.52 0-.6-1.05h-.08a.963.963 0 01-.09.2v-.36a1.082 1.082 0 01.27-.47 1.442 1.442 0 01.88-.6 2.763 2.763 0 01.7-.06 3.717 3.717 0 012.47.73zM92.766 35.711c.13.41-.97 1.99-2 2.5a1.36 1.36 0 11-1.2-2.44v.01a4.615 4.615 0 011.87-.36 2.127 2.127 0 011.33.29zM85.486 27.671c.38.18.11 2.21-.55 3.17a1.353 1.353 0 01-2.29-1.44.359.359 0 01.07-.1v-.01c.66-.95 2.39-1.8 2.77-1.62zM81.246 21.371a3.022 3.022 0 011.48.29 3.693 3.693 0 01-1.78 1.6.926.926 0 01-1.14-1.29v-.01a.947.947 0 01.54-.48 3 3 0 01.9-.11zM79.496 12.791a3.559 3.559 0 011.83.46 3.657 3.657 0 01-1.89 1.34.905.905 0 01-1.08-.68.922.922 0 01.12-.69v-.04a.911.911 0 01.58-.39 1.62 1.62 0 01.44 0zM77.866 5.451a3.679 3.679 0 01-.79 2.18.912.912 0 01-1.28.04.9.9 0 01-.04-1.27 3.564 3.564 0 012.11-.95zM70.596 4.951a.883.883 0 01-.81.97h-.01a.892.892 0 01-.97-.82 3.609 3.609 0 01.68-2.2l.06-.01a3.621 3.621 0 011.05 2.06z"/>
        <path d="M72.926 9.031a4.236 4.236 0 012.67 5.36 4.139 4.139 0 01-.97 1.59 8.665 8.665 0 01-9.75 2.4v-.02a4.231 4.231 0 01-1.7-6.93 8.222 8.222 0 014.49-2.75 9.5 9.5 0 012.18-.27 7.572 7.572 0 013.08.62z" fill="#182d00"/>
        <path d="M40.656 10.651a2 2 0 010 2.83 1.738 1.738 0 01-.15.13l-5.34 4.3-.09.07a2.314 2.314 0 01-3.26-3.27l.07-.08 4.34-5.29a1.986 1.986 0 011.45-.74h.1a2 2 0 011.41.58zM44.606 5.341c.36.25.49 2.12 0 3.18a1.331 1.331 0 01-2.54-.57 1.413 1.413 0 01.09-.49 4.4 4.4 0 012.39-2.12h.06z" fill="#642000"/>
        <path d="M90.136 46.841a.963.963 0 00.09-.2h.08c.08 1.05.26.86.6 1.05a1.629 1.629 0 001.06.38c1.12-.26 2.55-1.54 2.49-1.99a3.717 3.717 0 00-2.47-.73 2.763 2.763 0 00-.7.06 1.442 1.442 0 00-.88.6 1.082 1.082 0 00-.27.47v.36zm-52.47 23.09h-1.73c-.58 0-.74-.76-.74-1.34v-2.89h-4.23v2.77a1.377 1.377 0 01-.99 1.42h-2.4a4.3 4.3 0 01-8.59-.07v.12h-3.05a4.233 4.233 0 01-4.3 4.1h-.06a4.225 4.225 0 01-4.23-4.23v.12h-1.74a1.489 1.489 0 01-1.12-1.42v-12.22c0 .26-.69.42-1.27.42-.04 0-.08-.01-.12-.01a3.023 3.023 0 01-2.84-3.2v-6.84a13.75 13.75 0 0127.5 0v5.29h2.18a1.152 1.152 0 011 1.22v10.41h4.23v-10.33c0-.59.16-1.3.74-1.3h1.37v-12.84a11.2 11.2 0 012.26-7.13l-2.73-12.78-.32.26a4.431 4.431 0 01-6.26-6.26l4.3-5.29a4.163 4.163 0 012.57-1.45l-.79-2.03a.81.81 0 010-.22 1.407 1.407 0 111.89-.71.761.761 0 01.12.19l1.16 3.18a3.448 3.448 0 01.54.28 4.188 4.188 0 01.22-.59 7 7 0 012.02-2.34 3.173 3.173 0 013.25-.73 3.186 3.186 0 011.53 2.97 7 7 0 01-.51 3.07 3.5 3.5 0 01-3.15 2h-.12a2.911 2.911 0 01-.05 1.28l2.99 15.1a11.185 11.185 0 012-.18h.01a11.345 11.345 0 0110.61 7.45 11.633 11.633 0 01.68 3.93v12.84h.74a1.581 1.581 0 011.37 1.3v10.33h3.18v-10.33a1.154 1.154 0 01.87-1.3h2.6a.677.677 0 00.12-.19l1.29-1.62c-1.46-3.19-2.41-7.2-3.04-12.96a21.618 21.618 0 01-.2-2.64l-2-.9-2.66 1.48a1.066 1.066 0 01-1.06-1.85l.98-.54-1.78-.56a1.056 1.056 0 01-.69-1.33 1.045 1.045 0 011.32-.69l4.13 1.3h.12l1.55.71c.01-1.12.1-2.24.21-3.29l-2.82-2-2.87.99c-.02.01-.05.02-.07.03a1.06 1.06 0 01-.58-2.04l1.05-.34-1.64-.9a1.066 1.066 0 011.06-1.85l3.8 2.12h.05l2.37 1.68a29.478 29.478 0 011.44-5.46h-.42a9.677 9.677 0 01-3.94-.8 6.256 6.256 0 01-1.99-1.21 6.335 6.335 0 01-.51-8.96 10.357 10.357 0 015.61-3.49 2.917 2.917 0 01-.47-1.37 5.905 5.905 0 01.49-2.56 2.79 2.79 0 012.17-1.95c1.98-.21 3.24 2.74 3.34 4.02a3 3 0 01-.43 1.8 8.944 8.944 0 011.22.36 2.962 2.962 0 01.79-1.98 5.8 5.8 0 012.22-1.36 2.8 2.8 0 012.82.27 2.8 2.8 0 01.49 2.88 5.9 5.9 0 01-1.19 2.32 2.977 2.977 0 01-1.48.84 6.347 6.347 0 01.53 1.19 2.977 2.977 0 01.95-.41 5.814 5.814 0 012.59.13 2.8 2.8 0 012.22 1.89c.43 1.95-2.28 3.59-3.53 3.87a2.934 2.934 0 01-1.85-.21l.85 3.51a3.114 3.114 0 01.82-.45 5.99 5.99 0 012.63-.16 2.823 2.823 0 012.44 1.64c.66 1.91-1.88 3.86-3.11 4.29a2.935 2.935 0 01-1.44.12l.7 2.88a.47.47 0 00.1-.18c.86-1.21 3.81-3.43 5.71-2.11s.86 4.86 0 6.1a3.56 3.56 0 01-1.19 1.06 13.86 13.86 0 011.88 1.95 3.511 3.511 0 011.28-1.11c1.35-.66 5.03-1.12 6.04.9s-1.64 4.62-2.98 5.29a3.533 3.533 0 01-1.53.35h-.24a13.874 13.874 0 01.37 3.08 3.575 3.575 0 01.55-.19c1.44-.33 5.16.03 5.67 2.26.55 2.26-2.66 4.23-4.12 4.53a3.74 3.74 0 01-.82.08 9.967 9.967 0 01-1.41-.26v2.31c1.06.14 1.06.52 1.06.99v15.34a1.492 1.492 0 01-1.19 1.19h-2.4a4.3 4.3 0 01-8.59.08h-3.06a4.3 4.3 0 01-8.6.07h-1.73a1.206 1.206 0 01-.87-1.34v-2.89h-3.18v2.89a1.655 1.655 0 01-1.37 1.19h-2.32a4.3 4.3 0 01-8.6.08h-3.06a4.3 4.3 0 01-8.59.07zm53.1-31.72c1.03-.51 2.13-2.09 2-2.5a2.127 2.127 0 00-1.33-.29 4.615 4.615 0 00-1.87.36v-.01a1.36 1.36 0 101.2 2.44zm-1.65 29.6v-13.75h-22.22v13.75h1.06a4.23 4.23 0 017.4 0h4.24a4.158 4.158 0 011.65-1.65 4.235 4.235 0 015.75 1.65h2.12zm-1.06-15.86v-8.31a11.74 11.74 0 00-7.66-11.03.9.9 0 01-.53-.58l-.53-1.24a.845.845 0 01-.05-.17l-3.17-13.07a10.334 10.334 0 01-5.29 3.17 27.018 27.018 0 00-2.05 7.14l2.24 1.58a1.057 1.057 0 11-1.23 1.72l-1.27-.9a35.946 35.946 0 00.14 6.64v.01a44.4 44.4 0 002.36 11.1l1.73-2.54a7.1 7.1 0 019.83-1.89.053.053 0 00.03.02 5.747 5.747 0 011.48 7.98l-.34.37h4.31zm-3.12-21.11c.66-.96.93-2.99.55-3.17s-2.11.67-2.77 1.62v.01a.359.359 0 00-.07.1 1.353 1.353 0 002.29 1.44zm.56 38.87a2.18 2.18 0 10-2.18 2.18 2.2 2.2 0 001.54-.64 2.144 2.144 0 00.64-1.54zm-3.11-19.44a3.565 3.565 0 00-1.01-4.95 4.942 4.942 0 00-6.88 1.23l-3.77 5.4h10.46l1.16-1.61c.01-.02.03-.05.04-.07zm.34-28.61a3.851 3.851 0 00-2.38-.18.947.947 0 00-.54.48v.01a.926.926 0 001.14 1.29 3.693 3.693 0 001.78-1.6zm-1.4-8.41a3.559 3.559 0 00-1.83-.46 1.62 1.62 0 00-.44 0 .911.911 0 00-.58.39v.04a.922.922 0 00-.12.69.905.905 0 001.08.68 3.657 3.657 0 001.89-1.34zm-4.25-5.62a3.679 3.679 0 00.79-2.18 3.564 3.564 0 00-2.11.95.9.9 0 00.04 1.27.912.912 0 001.28-.04zm-1.48 6.76a4.236 4.236 0 00-2.67-5.36 7.572 7.572 0 00-3.08-.62 9.5 9.5 0 00-2.18.27 8.222 8.222 0 00-4.49 2.75 4.231 4.231 0 001.7 6.93v.02a8.665 8.665 0 009.75-2.4 4.139 4.139 0 00.97-1.59zm-1.74 55.32a2.185 2.185 0 10-.64 1.54 2.144 2.144 0 00.64-1.54zm-4.07-63.79a.883.883 0 00.81-.97 3.621 3.621 0 00-1.05-2.06l-.06.01a3.609 3.609 0 00-.68 2.2.892.892 0 00.97.82h.01zm-10.29 61.89v-13.75h-22.22v13.75h.97a4.772 4.772 0 013.68-2.11 4.772 4.772 0 013.68 2.11h4.23a4.289 4.289 0 011.65-1.65 4.233 4.233 0 015.75 1.65h2.26zm-2.12-15.86v-12.88a9.2 9.2 0 00-9.21-9.19 8.952 8.952 0 00-2.42.34h-.1a1.058 1.058 0 01-1.27-.69v-.13l-2.77-14.01-2.89 2.36 2.9 14.33a1.044 1.044 0 01-.19.95 9.1 9.1 0 00-2.03 6.03v12.89h4.23v-3.79a4.76 4.76 0 019.52 0v3.79h4.23zm-1.64 17.76a2.185 2.185 0 10-.64 1.54 2.144 2.144 0 00.64-1.54zm-4.7-17.76v-3.79a2.645 2.645 0 00-5.29 0v3.79h5.29zm-6.43-43.43c.49-1.06.36-2.93 0-3.18h-.06a4.4 4.4 0 00-2.39 2.12 1.413 1.413 0 00-.09.49 1.331 1.331 0 002.54.57zm-.5 61.19a2.185 2.185 0 10-.64 1.54 2.179 2.179 0 00.64-1.54zm-3.45-56.23a2 2 0 000-2.83l-1.47-1.47a2 2 0 00-1.41-.58h-.1a1.986 1.986 0 00-1.45.74l-4.34 5.29-.07.08a2.314 2.314 0 003.26 3.27l.09-.07 5.34-4.3a1.738 1.738 0 00.15-.13zm-11.84 54.33v-13.75H6.606v13.75h1.34c.77-2.11 2.16-2.11 3.73-2.11s2.93 0 3.68 2.11h4.23c.77-2.11 2.11-2.11 3.68-2.11s2.93 0 3.68 2.11h1.87zm-3.17-15.86v-5.29a11.635 11.635 0 10-23.27 0v6.8a1.055 1.055 0 102.11 0v-4.15a3.175 3.175 0 016.35 0v2.64h14.81zm-.2 17.69a2.18 2.18 0 10-2.18 2.18 2.144 2.144 0 001.54-.64 2.185 2.185 0 00.64-1.54zm-11.64 0a2.18 2.18 0 10-2.18 2.18 2.185 2.185 0 002.18-2.18zm-5.09-17.69v-2.64a1.055 1.055 0 00-2.11 0v2.64h2.11z" fill="#435b55"/>
        <path d="M88.056 43.641v8.31h-4.31l.34-.37a5.747 5.747 0 00-1.48-7.98.053.053 0 01-.03-.02 7.1 7.1 0 00-9.83 1.89l-1.73 2.54a44.4 44.4 0 01-2.36-11.1v-.01a35.946 35.946 0 01-.14-6.64l1.27.9a1.057 1.057 0 101.23-1.72l-2.24-1.58a27.018 27.018 0 012.05-7.14 10.334 10.334 0 005.29-3.17l3.17 13.07a.845.845 0 00.05.17l.53 1.24a.9.9 0 00.53.58 11.74 11.74 0 017.66 11.03z" fill="#182d00"/>
        <path d="M83.316 67.531a2.179 2.179 0 012.18 2.18 2.144 2.144 0 01-.64 1.54 2.178 2.178 0 01-3.72-1.54 2.179 2.179 0 012.18-2.18z"/>
        <path d="M81.376 45.321a3.565 3.565 0 011.01 4.95c-.01.02-.03.05-.04.07l-1.16 1.61h-10.46l3.77-5.4a4.942 4.942 0 016.88-1.23z" fill="#182d00"/>
        <path d="M71.676 67.531a2.172 2.172 0 012.18 2.18 2.144 2.144 0 01-.64 1.54 2.179 2.179 0 11-1.54-3.72z"/>
        <path d="M59.496 54.061v13.75h-2.26a4.233 4.233 0 00-5.75-1.65 4.289 4.289 0 00-1.65 1.65h-4.23a4.772 4.772 0 00-3.68-2.11 4.772 4.772 0 00-3.68 2.11h-.97v-13.75h22.22z" fill="#444c00"/>
        <path d="M57.376 39.111v12.84h-4.23v-3.79a4.76 4.76 0 00-9.52 0v3.79h-4.23v-12.89a9.1 9.1 0 012.03-6.03 1.044 1.044 0 00.19-.95l-2.9-14.33 2.89-2.36 2.77 14.01v.13a1.058 1.058 0 001.27.69h.1a8.952 8.952 0 012.42-.34 9.2 9.2 0 019.21 9.19v.04z" fill="#642000"/>
        <path d="M53.556 67.531a2.172 2.172 0 012.18 2.18 2.144 2.144 0 01-.64 1.54 2.179 2.179 0 11-1.54-3.72zM41.926 67.531a2.18 2.18 0 11-2.18 2.18 2.179 2.179 0 012.18-2.18z"/>
        <path d="M25.646 46.661v5.29h-14.81v-2.64a3.175 3.175 0 00-6.35 0v4.15a1.055 1.055 0 11-2.11 0v-6.8a11.635 11.635 0 1123.27 0z" fill="#00351c"/>
        <path d="M23.266 67.461a2.178 2.178 0 011.54 3.72 2.144 2.144 0 01-1.54.64 2.18 2.18 0 010-4.36zM11.626 67.461a2.179 2.179 0 012.18 2.18 2.185 2.185 0 01-2.18 2.18 2.18 2.18 0 110-4.36z"/>
        <path d="M79.046 69.771v.09a4.3 4.3 0 008.59-.08h2.4a1.492 1.492 0 001.19-1.19v-15.34c0-.47 0-.85-1.06-.99v-2.31a9.967 9.967 0 001.41.26 3.74 3.74 0 00.82-.08c1.46-.3 4.67-2.27 4.12-4.53-.51-2.23-4.23-2.59-5.67-2.26a3.575 3.575 0 00-.55.19 13.874 13.874 0 00-.37-3.08h.24a3.533 3.533 0 001.53-.35c1.34-.67 3.98-3.27 2.98-5.29s-4.69-1.56-6.04-.9a3.511 3.511 0 00-1.28 1.11 13.86 13.86 0 00-1.88-1.95 3.56 3.56 0 001.19-1.06c.86-1.24 1.91-4.79 0-6.1s-4.85.9-5.71 2.11a.47.47 0 01-.1.18l-.7-2.88a2.935 2.935 0 001.44-.12c1.23-.43 3.77-2.38 3.11-4.29a2.823 2.823 0 00-2.44-1.64 5.99 5.99 0 00-2.63.16 3.114 3.114 0 00-.82.45l-.85-3.51a2.934 2.934 0 001.85.21c1.25-.28 3.96-1.92 3.53-3.87a2.8 2.8 0 00-2.22-1.89 5.814 5.814 0 00-2.59-.13 2.977 2.977 0 00-.95.41 6.347 6.347 0 00-.53-1.19 2.977 2.977 0 001.48-.84 5.9 5.9 0 001.19-2.32 2.8 2.8 0 00-.49-2.88 2.8 2.8 0 00-2.82-.27 5.8 5.8 0 00-2.22 1.36 2.962 2.962 0 00-.79 1.98 8.944 8.944 0 00-1.22-.36 3 3 0 00.43-1.8c-.1-1.28-1.36-4.23-3.34-4.02a2.79 2.79 0 00-2.17 1.95 5.905 5.905 0 00-.49 2.56 2.917 2.917 0 00.47 1.37 10.357 10.357 0 00-5.61 3.49 6.335 6.335 0 00.51 8.96 6.256 6.256 0 001.99 1.21 9.677 9.677 0 003.94.8h.42a29.478 29.478 0 00-1.44 5.46l-2.37-1.68h-.05l-3.8-2.12a1.066 1.066 0 00-1.06 1.85l1.64.9-1.05.34a1.06 1.06 0 00.58 2.04c.02-.01.05-.02.07-.03l2.87-.99 2.82 2c-.11 1.05-.2 2.17-.21 3.29l-1.55-.71h-.12l-4.13-1.3a1.045 1.045 0 00-1.32.69 1.056 1.056 0 00.69 1.33l1.78.56-.98.54a1.066 1.066 0 001.06 1.85l2.66-1.48 2 .9a21.618 21.618 0 00.2 2.64c.63 5.76 1.58 9.77 3.04 12.96l-1.29 1.62a.677.677 0 01-.12.19h-2.6a1.154 1.154 0 00-.87 1.3v10.33h-3.18v-10.33a1.581 1.581 0 00-1.37-1.3h-.74v-12.84a11.633 11.633 0 00-.68-3.93 11.345 11.345 0 00-10.61-7.45h-.01a11.185 11.185 0 00-2 .18l-2.99-15.1a2.911 2.911 0 00.05-1.28h.12a3.5 3.5 0 003.15-2 7 7 0 00.51-3.07 3.186 3.186 0 00-1.53-2.97 3.173 3.173 0 00-3.25.73 7 7 0 00-2.02 2.34 4.188 4.188 0 00-.22.59 3.448 3.448 0 00-.54-.28l-1.16-3.18a.761.761 0 00-.12-.19 1.4 1.4 0 10-1.89.71.81.81 0 000 .22l.79 2.03a4.163 4.163 0 00-2.57 1.45l-4.3 5.29a4.431 4.431 0 006.26 6.26l.32-.26 2.73 12.78a11.2 11.2 0 00-2.26 7.13v12.84h-1.37c-.58 0-.74.71-.74 1.3v10.33h-4.23v-10.41a1.152 1.152 0 00-1-1.22h-2.18v-5.29a13.75 13.75 0 00-27.5 0v6.84a3.023 3.023 0 002.84 3.2c.04 0 .08.01.12.01.58 0 1.27-.16 1.27-.42v12.22a1.489 1.489 0 001.12 1.42h1.74v-.12a4.225 4.225 0 004.23 4.23h.06a4.233 4.233 0 004.3-4.1v-.06" fill="none" stroke="#000" stroke-miterlimit="10" stroke-width=".5"/>
        <path d="M67.386 69.851v.08a4.3 4.3 0 008.6-.07h3.06" fill="none" stroke="#000" stroke-miterlimit="10" stroke-width=".5"/>
        <path d="M49.316 69.771v.09a4.3 4.3 0 008.6-.08h2.32a1.655 1.655 0 001.37-1.19v-2.89h3.18v2.89a1.206 1.206 0 00.87 1.34h1.73M37.666 69.851v.08a4.3 4.3 0 008.59-.07h3.06M27.576 69.891h2.4a1.377 1.377 0 00.99-1.42v-2.77h4.23v2.89c0 .58.16 1.34.74 1.34h1.73M15.936 69.941h3.05v-.12a4.3 4.3 0 008.59.07v-.07" fill="none" stroke="#000" stroke-miterlimit="10" stroke-width=".5"/>
        <path d="M89.566 35.781a4.615 4.615 0 011.87-.36 2.127 2.127 0 011.33.29c.13.41-.97 1.99-2 2.5a1.36 1.36 0 11-1.2-2.44v.01zM79.806 21.961a.947.947 0 01.54-.48 3.851 3.851 0 012.38.18 3.693 3.693 0 01-1.78 1.6.926.926 0 01-1.14-1.29v-.01zM4.486 53.461a1.055 1.055 0 11-2.11 0v-6.8a11.635 11.635 0 1123.27 0v5.29h-14.81v-2.64a3.175 3.175 0 00-6.35 0v4.15z" fill="none" stroke="#000" stroke-miterlimit="10" stroke-width=".25"/>
        <path d="M8.716 51.951h-2.11v-2.64a1.055 1.055 0 012.11 0v2.64zM11.626 71.821a2.18 2.18 0 112.18-2.18 2.185 2.185 0 01-2.18 2.18zM23.266 71.821a2.185 2.185 0 111.54-.64 2.144 2.144 0 01-1.54.64z" fill="none" stroke="#000" stroke-miterlimit="10" stroke-width=".25"/>
        <path d="M28.816 67.811h-1.87c-.75-2.11-2.12-2.11-3.68-2.11s-2.91 0-3.68 2.11h-4.23c-.75-2.11-2.12-2.11-3.68-2.11s-2.96 0-3.73 2.11h-1.34v-13.75h22.21v13.75zM42.156 7.461a4.4 4.4 0 012.39-2.12h.06c.36.25.49 2.12 0 3.18a1.331 1.331 0 01-2.54-.57 1.413 1.413 0 01.09-.49zM35.166 17.911l-.09.07a2.314 2.314 0 01-3.26-3.27l.07-.08 4.34-5.29a1.986 1.986 0 011.45-.74h.1a2 2 0 011.41.58l1.47 1.47a2 2 0 010 2.83 1.738 1.738 0 01-.15.13zM39.396 39.061a9.1 9.1 0 012.03-6.03 1.044 1.044 0 00.19-.95l-2.9-14.33 2.89-2.36 2.77 14.01v.13a1.058 1.058 0 001.27.69h.1a8.952 8.952 0 012.42-.34 9.2 9.2 0 019.21 9.19v12.88h-4.23v-3.79a4.76 4.76 0 00-9.52 0v3.79h-4.23v-12.89z" fill="none" stroke="#000" stroke-miterlimit="10" stroke-width=".25"/>
        <path d="M45.746 51.951v-3.79a2.645 2.645 0 015.29 0v3.79h-5.29zM41.926 71.891a2.185 2.185 0 111.54-.64 2.179 2.179 0 01-1.54.64zM53.556 71.891a2.18 2.18 0 112.18-2.18 2.144 2.144 0 01-.64 1.54 2.185 2.185 0 01-1.54.64z" fill="none" stroke="#000" stroke-miterlimit="10" stroke-width=".25"/>
        <path d="M59.496 67.811h-2.26a4.233 4.233 0 00-5.75-1.65 4.289 4.289 0 00-1.65 1.65h-4.23a4.772 4.772 0 00-3.68-2.11 4.772 4.772 0 00-3.68 2.11h-.97v-13.75h22.22v13.75zM82.716 29.291c.66-.95 2.39-1.8 2.77-1.62s.11 2.21-.55 3.17a1.353 1.353 0 01-2.29-1.44.359.359 0 01.07-.1v-.01zM78.476 13.181a.911.911 0 01.58-.39 1.62 1.62 0 01.44 0 3.559 3.559 0 011.83.46 3.657 3.657 0 01-1.89 1.34.905.905 0 01-1.08-.68.922.922 0 01.12-.69v-.04zM75.756 6.401a3.564 3.564 0 012.11-.95 3.679 3.679 0 01-.79 2.18.912.912 0 01-1.28.04.9.9 0 01-.04-1.27zM69.546 2.891a3.621 3.621 0 011.05 2.06.883.883 0 01-.81.97h-.01a.892.892 0 01-.97-.82 3.609 3.609 0 01.68-2.2zM64.876 18.361a4.231 4.231 0 01-1.7-6.93 8.222 8.222 0 014.49-2.75 9.5 9.5 0 012.18-.27 7.572 7.572 0 013.08.62 4.236 4.236 0 012.67 5.36 4.139 4.139 0 01-.97 1.59 8.665 8.665 0 01-9.75 2.4v-.02z" fill="none" stroke="#000" stroke-miterlimit="10" stroke-width=".25"/>
        <path d="M68.656 36.901a35.946 35.946 0 01-.14-6.64l1.27.9a1.057 1.057 0 101.23-1.72l-2.24-1.58a27.018 27.018 0 012.05-7.14 10.334 10.334 0 005.29-3.17l3.17 13.07a.845.845 0 00.05.17l.53 1.24a.9.9 0 00.53.58 11.74 11.74 0 017.66 11.03v8.31h-4.31l.34-.37a5.747 5.747 0 00-1.48-7.98.053.053 0 01-.03-.02 7.1 7.1 0 00-9.83 1.89l-1.73 2.54a44.4 44.4 0 01-2.36-11.1v-.01z" fill="none" stroke="#000" stroke-miterlimit="10" stroke-width=".25"/>
        <path d="M74.496 46.551a4.942 4.942 0 016.88-1.23 3.565 3.565 0 011.01 4.95c-.01.02-.03.05-.04.07l-1.16 1.61h-10.46zM71.676 71.891a2.18 2.18 0 112.18-2.18 2.144 2.144 0 01-.64 1.54 2.185 2.185 0 01-1.54.64zM83.316 71.891a2.18 2.18 0 112.18-2.18 2.144 2.144 0 01-.64 1.54 2.2 2.2 0 01-1.54.64z" fill="none" stroke="#000" stroke-miterlimit="10" stroke-width=".25"/>
        <path d="M89.116 67.811h-2.12a4.235 4.235 0 00-5.75-1.65 4.158 4.158 0 00-1.65 1.65h-4.24a4.23 4.23 0 00-7.4 0h-1.06v-13.75h22.22v13.75zM90.136 46.841c.01.01 0 .01 0 .01" fill="none" stroke="#000" stroke-miterlimit="10" stroke-width=".25"/>
        <path d="M90.136 46.841v-.36a1.082 1.082 0 01.27-.47 1.442 1.442 0 01.88-.6 2.763 2.763 0 01.7-.06 3.717 3.717 0 012.47.73c.06.45-1.37 1.73-2.49 1.99a1.629 1.629 0 01-1.06-.38c-.34-.19-.52 0-.6-1.05h-.08a.963.963 0 01-.09.2z" fill="none" stroke="#000" stroke-miterlimit="10" stroke-width=".25"/>
      </g>
      <path d="M89.116 53.561v13.75h-2.12a4.235 4.235 0 00-5.75-1.65 4.158 4.158 0 00-1.65 1.65h-4.24a4.23 4.23 0 00-7.4 0h-1.06v-13.75h22.22zM28.816 53.561v13.75h-1.87c-.75-2.11-2.12-2.11-3.68-2.11s-2.91 0-3.68 2.11h-4.23c-.75-2.11-2.12-2.11-3.68-2.11s-2.96 0-3.73 2.11h-1.34v-13.75h22.21z" fill="#6894bc"/>
      <path d="M94.456 45.581c.06.45-1.37 1.73-2.49 1.99a1.629 1.629 0 01-1.06-.38c-.34-.19-.52 0-.6-1.05h-.08a.963.963 0 01-.09.2v-.36a1.082 1.082 0 01.27-.47 1.442 1.442 0 01.88-.6 2.763 2.763 0 01.7-.06 3.717 3.717 0 012.47.73zM92.766 35.211c.13.41-.97 1.99-2 2.5a1.36 1.36 0 11-1.2-2.44v.01a4.615 4.615 0 011.87-.36 2.127 2.127 0 011.33.29zM85.486 27.171c.38.18.11 2.21-.55 3.17a1.353 1.353 0 01-2.29-1.44.359.359 0 01.07-.1v-.01c.66-.95 2.39-1.8 2.77-1.62zM81.246 20.871a3.022 3.022 0 011.48.29 3.693 3.693 0 01-1.78 1.6.926.926 0 01-1.14-1.29v-.01a.947.947 0 01.54-.48 3 3 0 01.9-.11zM79.496 12.291a3.559 3.559 0 011.83.46 3.657 3.657 0 01-1.89 1.34.905.905 0 01-1.08-.68.922.922 0 01.12-.69v-.04a.911.911 0 01.58-.39 1.62 1.62 0 01.44 0zM77.866 4.951a3.679 3.679 0 01-.79 2.18.912.912 0 01-1.28.04.9.9 0 01-.04-1.27 3.564 3.564 0 012.11-.95zM70.596 4.451a.883.883 0 01-.81.97h-.01a.892.892 0 01-.97-.82 3.609 3.609 0 01.68-2.2l.06-.01a3.621 3.621 0 011.05 2.06z" fill="#16324f"/>
      <path d="M72.926 8.531a4.236 4.236 0 012.67 5.36 4.139 4.139 0 01-.97 1.59 8.665 8.665 0 01-9.75 2.4v-.02a4.231 4.231 0 01-1.7-6.93 8.222 8.222 0 014.49-2.75 9.5 9.5 0 012.18-.27 7.572 7.572 0 013.08.62z" fill="#b1c683"/>
      <path d="M40.656 10.151a2 2 0 010 2.83 1.738 1.738 0 01-.15.13l-5.34 4.3-.09.07a2.314 2.314 0 01-3.26-3.27l.07-.08 4.34-5.29a1.986 1.986 0 011.45-.74h.1a2 2 0 011.41.58zM44.606 4.841c.36.25.49 2.12 0 3.18a1.331 1.331 0 01-2.54-.57 1.413 1.413 0 01.09-.49 4.4 4.4 0 012.39-2.12h.06z" fill="#fdb98b"/>
      <path d="M90.136 46.341a.963.963 0 00.09-.2h.08c.08 1.05.26.86.6 1.05a1.629 1.629 0 001.06.38c1.12-.26 2.55-1.54 2.49-1.99a3.717 3.717 0 00-2.47-.73 2.763 2.763 0 00-.7.06 1.442 1.442 0 00-.88.6 1.082 1.082 0 00-.27.47v.36zm-52.47 23.09h-1.73c-.58 0-.74-.76-.74-1.34v-2.89h-4.23v2.77a1.377 1.377 0 01-.99 1.42h-2.4a4.3 4.3 0 01-8.59-.07v.12h-3.05a4.233 4.233 0 01-4.3 4.1h-.06a4.225 4.225 0 01-4.23-4.23v.12h-1.74a1.489 1.489 0 01-1.12-1.42v-12.22c0 .26-.69.42-1.27.42-.04 0-.08-.01-.12-.01a3.023 3.023 0 01-2.84-3.2v-6.84a13.75 13.75 0 0127.5 0v5.29h2.18a1.152 1.152 0 011 1.22v10.41h4.23v-10.33c0-.59.16-1.3.74-1.3h1.37v-12.84a11.2 11.2 0 012.26-7.13l-2.73-12.78-.32.26a4.431 4.431 0 01-6.26-6.26l4.3-5.29a4.163 4.163 0 012.57-1.45l-.79-2.03a.81.81 0 010-.22 1.407 1.407 0 111.89-.71.761.761 0 01.12.19l1.16 3.18a3.448 3.448 0 01.54.28 4.188 4.188 0 01.22-.59 7 7 0 012.02-2.34 3.173 3.173 0 013.25-.73 3.186 3.186 0 011.53 2.97 7 7 0 01-.51 3.07 3.5 3.5 0 01-3.15 2h-.12a2.911 2.911 0 01-.05 1.28l2.99 15.1a11.185 11.185 0 012-.18h.01a11.345 11.345 0 0110.61 7.45 11.633 11.633 0 01.68 3.93v12.84h.74a1.581 1.581 0 011.37 1.3v10.33h3.18v-10.33a1.154 1.154 0 01.87-1.3h2.6a.677.677 0 00.12-.19l1.29-1.62c-1.46-3.19-2.41-7.2-3.04-12.96a21.618 21.618 0 01-.2-2.64l-2-.9-2.66 1.48a1.066 1.066 0 01-1.06-1.85l.98-.54-1.78-.56a1.056 1.056 0 01-.69-1.33 1.045 1.045 0 011.32-.69l4.13 1.3h.12l1.55.71c.01-1.12.1-2.24.21-3.29l-2.82-2-2.87.99c-.02.01-.05.02-.07.03a1.06 1.06 0 01-.58-2.04l1.05-.34-1.64-.9a1.066 1.066 0 011.06-1.85l3.8 2.12h.05l2.37 1.68a29.478 29.478 0 011.44-5.46h-.42a9.677 9.677 0 01-3.94-.8 6.256 6.256 0 01-1.99-1.21 6.335 6.335 0 01-.51-8.96 10.357 10.357 0 015.61-3.49 2.917 2.917 0 01-.47-1.37 5.905 5.905 0 01.49-2.56 2.79 2.79 0 012.17-1.95c1.98-.21 3.24 2.74 3.34 4.02a3 3 0 01-.43 1.8 8.944 8.944 0 011.22.36 2.962 2.962 0 01.79-1.98 5.8 5.8 0 012.22-1.36 2.8 2.8 0 012.82.27 2.8 2.8 0 01.49 2.88 5.9 5.9 0 01-1.19 2.32 2.977 2.977 0 01-1.48.84 6.347 6.347 0 01.53 1.19 2.977 2.977 0 01.95-.41 5.814 5.814 0 012.59.13 2.8 2.8 0 012.22 1.89c.43 1.95-2.28 3.59-3.53 3.87a2.934 2.934 0 01-1.85-.21l.85 3.51a3.114 3.114 0 01.82-.45 5.99 5.99 0 012.63-.16 2.823 2.823 0 012.44 1.64c.66 1.91-1.88 3.86-3.11 4.29a2.935 2.935 0 01-1.44.12l.7 2.88a.47.47 0 00.1-.18c.86-1.21 3.81-3.43 5.71-2.11s.86 4.86 0 6.1a3.56 3.56 0 01-1.19 1.06 13.86 13.86 0 011.88 1.95 3.511 3.511 0 011.28-1.11c1.35-.66 5.03-1.12 6.04.9s-1.64 4.62-2.98 5.29a3.533 3.533 0 01-1.53.35h-.24a13.874 13.874 0 01.37 3.08 3.575 3.575 0 01.55-.19c1.44-.33 5.16.03 5.67 2.26.55 2.26-2.66 4.23-4.12 4.53a3.74 3.74 0 01-.82.08 9.967 9.967 0 01-1.41-.26v2.31c1.06.14 1.06.52 1.06.99v15.34a1.492 1.492 0 01-1.19 1.19h-2.4a4.3 4.3 0 01-8.59.08h-3.06a4.3 4.3 0 01-8.6.07h-1.73a1.206 1.206 0 01-.87-1.34v-2.89h-3.18v2.89a1.655 1.655 0 01-1.37 1.19h-2.32a4.3 4.3 0 01-8.6.08h-3.06a4.3 4.3 0 01-8.59.07zm53.1-31.72c1.03-.51 2.13-2.09 2-2.5a2.127 2.127 0 00-1.33-.29 4.615 4.615 0 00-1.87.36v-.01a1.36 1.36 0 101.2 2.44zm-1.65 29.6v-13.75h-22.22v13.75h1.06a4.23 4.23 0 017.4 0h4.24a4.158 4.158 0 011.65-1.65 4.235 4.235 0 015.75 1.65h2.12zm-1.06-15.86v-8.31a11.74 11.74 0 00-7.66-11.03.9.9 0 01-.53-.58l-.53-1.24a.845.845 0 01-.05-.17l-3.17-13.07a10.334 10.334 0 01-5.29 3.17 27.018 27.018 0 00-2.05 7.14l2.24 1.58a1.057 1.057 0 11-1.23 1.72l-1.27-.9a35.946 35.946 0 00.14 6.64v.01a44.4 44.4 0 002.36 11.1l1.73-2.54a7.1 7.1 0 019.83-1.89.053.053 0 00.03.02 5.747 5.747 0 011.48 7.98l-.34.37h4.31zm-3.12-21.11c.66-.96.93-2.99.55-3.17s-2.11.67-2.77 1.62v.01a.359.359 0 00-.07.1 1.353 1.353 0 002.29 1.44zm.56 38.87a2.18 2.18 0 10-2.18 2.18 2.2 2.2 0 001.54-.64 2.144 2.144 0 00.64-1.54zm-3.11-19.44a3.565 3.565 0 00-1.01-4.95 4.942 4.942 0 00-6.88 1.23l-3.77 5.4h10.46l1.16-1.61c.01-.02.03-.05.04-.07zm.34-28.61a3.851 3.851 0 00-2.38-.18.947.947 0 00-.54.48v.01a.926.926 0 001.14 1.29 3.693 3.693 0 001.78-1.6zm-1.4-8.41a3.559 3.559 0 00-1.83-.46 1.62 1.62 0 00-.44 0 .911.911 0 00-.58.39v.04a.922.922 0 00-.12.69.905.905 0 001.08.68 3.657 3.657 0 001.89-1.34zm-4.25-5.62a3.679 3.679 0 00.79-2.18 3.564 3.564 0 00-2.11.95.9.9 0 00.04 1.27.912.912 0 001.28-.04zm-1.48 6.76a4.236 4.236 0 00-2.67-5.36 7.572 7.572 0 00-3.08-.62 9.5 9.5 0 00-2.18.27 8.222 8.222 0 00-4.49 2.75 4.231 4.231 0 001.7 6.93v.02a8.665 8.665 0 009.75-2.4 4.139 4.139 0 00.97-1.59zm-1.74 55.32a2.185 2.185 0 10-.64 1.54 2.144 2.144 0 00.64-1.54zm-4.07-63.79a.883.883 0 00.81-.97 3.621 3.621 0 00-1.05-2.06l-.06.01a3.609 3.609 0 00-.68 2.2.892.892 0 00.97.82h.01zm-10.29 61.89v-13.75h-22.22v13.75h.97a4.772 4.772 0 013.68-2.11 4.772 4.772 0 013.68 2.11h4.23a4.289 4.289 0 011.65-1.65 4.233 4.233 0 015.75 1.65h2.26zm-2.12-15.86v-12.88a9.2 9.2 0 00-9.21-9.19 8.952 8.952 0 00-2.42.34h-.1a1.058 1.058 0 01-1.27-.69v-.13l-2.77-14.01-2.89 2.36 2.9 14.33a1.044 1.044 0 01-.19.95 9.1 9.1 0 00-2.03 6.03v12.89h4.23v-3.79a4.76 4.76 0 019.52 0v3.79h4.23zm-1.64 17.76a2.185 2.185 0 10-.64 1.54 2.144 2.144 0 00.64-1.54zm-4.7-17.76v-3.79a2.645 2.645 0 00-5.29 0v3.79h5.29zm-6.43-43.43c.49-1.06.36-2.93 0-3.18h-.06a4.4 4.4 0 00-2.39 2.12 1.413 1.413 0 00-.09.49 1.331 1.331 0 002.54.57zm-.5 61.19a2.185 2.185 0 10-.64 1.54 2.179 2.179 0 00.64-1.54zm-3.45-56.23a2 2 0 000-2.83l-1.47-1.47a2 2 0 00-1.41-.58h-.1a1.986 1.986 0 00-1.45.74l-4.34 5.29-.07.08a2.314 2.314 0 003.26 3.27l.09-.07 5.34-4.3a1.738 1.738 0 00.15-.13zm-11.84 54.33v-13.75H6.606v13.75h1.34c.77-2.11 2.16-2.11 3.73-2.11s2.93 0 3.68 2.11h4.23c.77-2.11 2.11-2.11 3.68-2.11s2.93 0 3.68 2.11h1.87zm-3.17-15.86v-5.29a11.635 11.635 0 10-23.27 0v6.8a1.055 1.055 0 102.11 0v-4.15a3.175 3.175 0 016.35 0v2.64h14.81zm-.2 17.69a2.18 2.18 0 10-2.18 2.18 2.144 2.144 0 001.54-.64 2.185 2.185 0 00.64-1.54zm-11.64 0a2.18 2.18 0 10-2.18 2.18 2.185 2.185 0 002.18-2.18zm-5.09-17.69v-2.64a1.055 1.055 0 00-2.11 0v2.64h2.11z" fill="#dcf4ee"/>
      <path d="M88.056 43.141v8.31h-4.31l.34-.37a5.747 5.747 0 00-1.48-7.98.053.053 0 01-.03-.02 7.1 7.1 0 00-9.83 1.89l-1.73 2.54a44.4 44.4 0 01-2.36-11.1v-.01a35.946 35.946 0 01-.14-6.64l1.27.9a1.057 1.057 0 101.23-1.72l-2.24-1.58a27.018 27.018 0 012.05-7.14 10.334 10.334 0 005.29-3.17l3.17 13.07a.845.845 0 00.05.17l.53 1.24a.9.9 0 00.53.58 11.74 11.74 0 017.66 11.03z" fill="#b1c683"/>
      <path d="M83.316 67.031a2.179 2.179 0 012.18 2.18 2.144 2.144 0 01-.64 1.54 2.178 2.178 0 01-3.72-1.54 2.179 2.179 0 012.18-2.18z" fill="#16324f"/>
      <path d="M81.376 44.821a3.565 3.565 0 011.01 4.95c-.01.02-.03.05-.04.07l-1.16 1.61h-10.46l3.77-5.4a4.942 4.942 0 016.88-1.23z" fill="#b1c683"/>
      <path d="M71.676 67.031a2.172 2.172 0 012.18 2.18 2.144 2.144 0 01-.64 1.54 2.179 2.179 0 11-1.54-3.72z" fill="#16324f"/>
      <path d="M59.496 53.561v13.75h-2.26a4.233 4.233 0 00-5.75-1.65 4.289 4.289 0 00-1.65 1.65h-4.23a4.772 4.772 0 00-3.68-2.11 4.772 4.772 0 00-3.68 2.11h-.97v-13.75h22.22z" fill="#dde589"/>
      <path d="M57.376 38.611v12.84h-4.23v-3.79a4.76 4.76 0 00-9.52 0v3.79h-4.23v-12.89a9.1 9.1 0 012.03-6.03 1.044 1.044 0 00.19-.95l-2.9-14.33 2.89-2.36 2.77 14.01v.13a1.058 1.058 0 001.27.69h.1a8.952 8.952 0 012.42-.34 9.2 9.2 0 019.21 9.19v.04z" fill="#fdb98b"/>
      <path d="M53.556 67.031a2.172 2.172 0 012.18 2.18 2.144 2.144 0 01-.64 1.54 2.179 2.179 0 11-1.54-3.72zM41.926 67.031a2.18 2.18 0 11-2.18 2.18 2.179 2.179 0 012.18-2.18z" fill="#16324f"/>
      <path d="M25.646 46.161v5.29h-14.81v-2.64a3.175 3.175 0 00-6.35 0v4.15a1.055 1.055 0 11-2.11 0v-6.8a11.635 11.635 0 1123.27 0z" fill="#93ceb5"/>
      <path d="M23.266 66.961a2.178 2.178 0 011.54 3.72 2.144 2.144 0 01-1.54.64 2.18 2.18 0 010-4.36zM11.626 66.961a2.179 2.179 0 012.18 2.18 2.185 2.185 0 01-2.18 2.18 2.18 2.18 0 110-4.36z" fill="#16324f"/>
      <path d="M79.046 69.271v.09a4.3 4.3 0 008.59-.08h2.4a1.492 1.492 0 001.19-1.19v-15.34c0-.47 0-.85-1.06-.99v-2.31a9.967 9.967 0 001.41.26 3.74 3.74 0 00.82-.08c1.46-.3 4.67-2.27 4.12-4.53-.51-2.23-4.23-2.59-5.67-2.26a3.575 3.575 0 00-.55.19 13.874 13.874 0 00-.37-3.08h.24a3.533 3.533 0 001.53-.35c1.34-.67 3.98-3.27 2.98-5.29s-4.69-1.56-6.04-.9a3.511 3.511 0 00-1.28 1.11 13.86 13.86 0 00-1.88-1.95 3.56 3.56 0 001.19-1.06c.86-1.24 1.91-4.79 0-6.1s-4.85.9-5.71 2.11a.47.47 0 01-.1.18l-.7-2.88a2.935 2.935 0 001.44-.12c1.23-.43 3.77-2.38 3.11-4.29a2.823 2.823 0 00-2.44-1.64 5.99 5.99 0 00-2.63.16 3.114 3.114 0 00-.82.45l-.85-3.51a2.934 2.934 0 001.85.21c1.25-.28 3.96-1.92 3.53-3.87a2.8 2.8 0 00-2.22-1.89 5.814 5.814 0 00-2.59-.13 2.977 2.977 0 00-.95.41 6.347 6.347 0 00-.53-1.19 2.977 2.977 0 001.48-.84 5.9 5.9 0 001.19-2.32 2.8 2.8 0 00-.49-2.88 2.8 2.8 0 00-2.82-.27 5.8 5.8 0 00-2.22 1.36 2.962 2.962 0 00-.79 1.98 8.944 8.944 0 00-1.22-.36 3 3 0 00.43-1.8c-.1-1.28-1.36-4.23-3.34-4.02a2.79 2.79 0 00-2.17 1.95 5.905 5.905 0 00-.49 2.56 2.917 2.917 0 00.47 1.37 10.357 10.357 0 00-5.61 3.49 6.335 6.335 0 00.51 8.96 6.256 6.256 0 001.99 1.21 9.677 9.677 0 003.94.8h.42a29.478 29.478 0 00-1.44 5.46l-2.37-1.68h-.05l-3.8-2.12a1.066 1.066 0 00-1.06 1.85l1.64.9-1.05.34a1.06 1.06 0 00.58 2.04c.02-.01.05-.02.07-.03l2.87-.99 2.82 2c-.11 1.05-.2 2.17-.21 3.29l-1.55-.71h-.12l-4.13-1.3a1.045 1.045 0 00-1.32.69 1.056 1.056 0 00.69 1.33l1.78.56-.98.54a1.066 1.066 0 001.06 1.85l2.66-1.48 2 .9a21.618 21.618 0 00.2 2.64c.63 5.76 1.58 9.77 3.04 12.96l-1.29 1.62a.677.677 0 01-.12.19h-2.6a1.154 1.154 0 00-.87 1.3v10.33h-3.18v-10.33a1.581 1.581 0 00-1.37-1.3h-.74v-12.84a11.633 11.633 0 00-.68-3.93 11.345 11.345 0 00-10.61-7.45h-.01a11.185 11.185 0 00-2 .18l-2.99-15.1a2.911 2.911 0 00.05-1.28h.12a3.5 3.5 0 003.15-2 7 7 0 00.51-3.07 3.186 3.186 0 00-1.53-2.97 3.173 3.173 0 00-3.25.73 7 7 0 00-2.02 2.34 4.188 4.188 0 00-.22.59 3.448 3.448 0 00-.54-.28l-1.16-3.18a.761.761 0 00-.12-.19 1.4 1.4 0 10-1.89.71.81.81 0 000 .22l.79 2.03a4.163 4.163 0 00-2.57 1.45l-4.3 5.29a4.431 4.431 0 006.26 6.26l.32-.26 2.73 12.78a11.2 11.2 0 00-2.26 7.13v12.84h-1.37c-.58 0-.74.71-.74 1.3v10.33h-4.23v-10.41a1.152 1.152 0 00-1-1.22h-2.18v-5.29a13.75 13.75 0 00-27.5 0v6.84a3.023 3.023 0 002.84 3.2c.04 0 .08.01.12.01.58 0 1.27-.16 1.27-.42v12.22a1.489 1.489 0 001.12 1.42h1.74v-.12a4.225 4.225 0 004.23 4.23h.06a4.233 4.233 0 004.3-4.1v-.06" fill="none" stroke="#226d5b" stroke-miterlimit="10" stroke-width=".5"/>
      <path d="M67.386 69.351v.08a4.3 4.3 0 008.6-.07h3.06" fill="none" stroke="#226d5b" stroke-miterlimit="10" stroke-width=".5"/>
      <path d="M49.316 69.271v.09a4.3 4.3 0 008.6-.08h2.32a1.655 1.655 0 001.37-1.19v-2.89h3.18v2.89a1.206 1.206 0 00.87 1.34h1.73M37.666 69.351v.08a4.3 4.3 0 008.59-.07h3.06M27.576 69.391h2.4a1.377 1.377 0 00.99-1.42v-2.77h4.23v2.89c0 .58.16 1.34.74 1.34h1.73M15.936 69.441h3.05v-.12a4.3 4.3 0 008.59.07v-.07" fill="none" stroke="#226d5b" stroke-miterlimit="10" stroke-width=".5"/>
      <path d="M89.566 35.281a4.615 4.615 0 011.87-.36 2.127 2.127 0 011.33.29c.13.41-.97 1.99-2 2.5a1.36 1.36 0 11-1.2-2.44v.01zM79.806 21.461a.947.947 0 01.54-.48 3.851 3.851 0 012.38.18 3.693 3.693 0 01-1.78 1.6.926.926 0 01-1.14-1.29v-.01zM4.486 52.961a1.055 1.055 0 11-2.11 0v-6.8a11.635 11.635 0 1123.27 0v5.29h-14.81v-2.64a3.175 3.175 0 00-6.35 0v4.15z" fill="none" stroke="#226d5b" stroke-miterlimit="10" stroke-width=".25"/>
      <path d="M8.716 51.451h-2.11v-2.64a1.055 1.055 0 012.11 0v2.64zM11.626 71.321a2.18 2.18 0 112.18-2.18 2.185 2.185 0 01-2.18 2.18zM23.266 71.321a2.185 2.185 0 111.54-.64 2.144 2.144 0 01-1.54.64z" fill="none" stroke="#226d5b" stroke-miterlimit="10" stroke-width=".25"/>
      <path d="M28.816 67.311h-1.87c-.75-2.11-2.12-2.11-3.68-2.11s-2.91 0-3.68 2.11h-4.23c-.75-2.11-2.12-2.11-3.68-2.11s-2.96 0-3.73 2.11h-1.34v-13.75h22.21v13.75zM42.156 6.961a4.4 4.4 0 012.39-2.12h.06c.36.25.49 2.12 0 3.18a1.331 1.331 0 01-2.54-.57 1.413 1.413 0 01.09-.49zM35.166 17.411l-.09.07a2.314 2.314 0 01-3.26-3.27l.07-.08 4.34-5.29a1.986 1.986 0 011.45-.74h.1a2 2 0 011.41.58l1.47 1.47a2 2 0 010 2.83 1.738 1.738 0 01-.15.13zM39.396 38.561a9.1 9.1 0 012.03-6.03 1.044 1.044 0 00.19-.95l-2.9-14.33 2.89-2.36 2.77 14.01v.13a1.058 1.058 0 001.27.69h.1a8.952 8.952 0 012.42-.34 9.2 9.2 0 019.21 9.19v12.88h-4.23v-3.79a4.76 4.76 0 00-9.52 0v3.79h-4.23v-12.89z" fill="none" stroke="#226d5b" stroke-miterlimit="10" stroke-width=".25"/>
      <path d="M45.746 51.451v-3.79a2.645 2.645 0 015.29 0v3.79h-5.29zM41.926 71.391a2.185 2.185 0 111.54-.64 2.179 2.179 0 01-1.54.64zM53.556 71.391a2.18 2.18 0 112.18-2.18 2.144 2.144 0 01-.64 1.54 2.185 2.185 0 01-1.54.64z" fill="none" stroke="#226d5b" stroke-miterlimit="10" stroke-width=".25"/>
      <path d="M59.496 67.311h-2.26a4.233 4.233 0 00-5.75-1.65 4.289 4.289 0 00-1.65 1.65h-4.23a4.772 4.772 0 00-3.68-2.11 4.772 4.772 0 00-3.68 2.11h-.97v-13.75h22.22v13.75zM82.716 28.791c.66-.95 2.39-1.8 2.77-1.62s.11 2.21-.55 3.17a1.353 1.353 0 01-2.29-1.44.359.359 0 01.07-.1v-.01zM78.476 12.681a.911.911 0 01.58-.39 1.62 1.62 0 01.44 0 3.559 3.559 0 011.83.46 3.657 3.657 0 01-1.89 1.34.905.905 0 01-1.08-.68.922.922 0 01.12-.69v-.04zM75.756 5.901a3.564 3.564 0 012.11-.95 3.679 3.679 0 01-.79 2.18.912.912 0 01-1.28.04.9.9 0 01-.04-1.27zM69.546 2.391a3.621 3.621 0 011.05 2.06.883.883 0 01-.81.97h-.01a.892.892 0 01-.97-.82 3.609 3.609 0 01.68-2.2zM64.876 17.861a4.231 4.231 0 01-1.7-6.93 8.222 8.222 0 014.49-2.75 9.5 9.5 0 012.18-.27 7.572 7.572 0 013.08.62 4.236 4.236 0 012.67 5.36 4.139 4.139 0 01-.97 1.59 8.665 8.665 0 01-9.75 2.4v-.02z" fill="none" stroke="#226d5b" stroke-miterlimit="10" stroke-width=".25"/>
      <path d="M68.656 36.401a35.946 35.946 0 01-.14-6.64l1.27.9a1.057 1.057 0 101.23-1.72l-2.24-1.58a27.018 27.018 0 012.05-7.14 10.334 10.334 0 005.29-3.17l3.17 13.07a.845.845 0 00.05.17l.53 1.24a.9.9 0 00.53.58 11.74 11.74 0 017.66 11.03v8.31h-4.31l.34-.37a5.747 5.747 0 00-1.48-7.98.053.053 0 01-.03-.02 7.1 7.1 0 00-9.83 1.89l-1.73 2.54a44.4 44.4 0 01-2.36-11.1v-.01z" fill="none" stroke="#226d5b" stroke-miterlimit="10" stroke-width=".25"/>
      <path d="M74.496 46.051a4.942 4.942 0 016.88-1.23 3.565 3.565 0 011.01 4.95c-.01.02-.03.05-.04.07l-1.16 1.61h-10.46zM71.676 71.391a2.18 2.18 0 112.18-2.18 2.144 2.144 0 01-.64 1.54 2.185 2.185 0 01-1.54.64zM83.316 71.391a2.18 2.18 0 112.18-2.18 2.144 2.144 0 01-.64 1.54 2.2 2.2 0 01-1.54.64z" fill="none" stroke="#226d5b" stroke-miterlimit="10" stroke-width=".25"/>
      <path d="M89.116 67.311h-2.12a4.235 4.235 0 00-5.75-1.65 4.158 4.158 0 00-1.65 1.65h-4.24a4.23 4.23 0 00-7.4 0h-1.06v-13.75h22.22v13.75zM90.136 46.341c.01.01 0 .01 0 .01" fill="none" stroke="#226d5b" stroke-miterlimit="10" stroke-width=".25"/>
      <path d="M90.136 46.341v-.36a1.082 1.082 0 01.27-.47 1.442 1.442 0 01.88-.6 2.763 2.763 0 01.7-.06 3.717 3.717 0 012.47.73c.06.45-1.37 1.73-2.49 1.99a1.629 1.629 0 01-1.06-.38c-.34-.19-.52 0-.6-1.05h-.08a.963.963 0 01-.09.2z" fill="none" stroke="#226d5b" stroke-miterlimit="10" stroke-width=".25"/>
    </g>
    <circle cx="66.675" cy="10.576" r=".793" fill="#222"/>
    <circle cx="71.012" cy="11.369" r=".793" fill="#222"/>
    <path d="M70.695 15.685a.529.529 0 00-.746-.057h-.005a3.469 3.469 0 01-3.173.264 3.3 3.3 0 01-2.435-2.238.532.532 0 00-1.058.106 4.231 4.231 0 003.173 3.173 5.807 5.807 0 001.788.3 3.67 3.67 0 002.391-.762.529.529 0 00.065-.786z" fill="#222"/>
    <circle cx="7.56" cy="57.617" r="1.407" transform="translate(-21.12 -10.119) rotate(-20.34)" fill="#222"/>
    <path d="M13.523 46.805a5.511 5.511 0 002.634-.74c2.6-1.417 3.374-3.85 2.02-6.347-1.491-2.718-5.056-4.866-7.4-3.575s-2.486 5.469-.994 8.187a4.231 4.231 0 003.74 2.475zm-1.766-8.779a1.248 1.248 0 01.6-.138 5.564 5.564 0 013.956 2.867c.3.539 1.185 2.116-1.174 3.459s-3.247-.338-3.544-.878c-1.026-1.883-.941-4.718.159-5.321v.011z" fill="#16324f"/>
    <path d="M40.96 54.9a9.076 9.076 0 012.031-6.029 1.058 1.058 0 00.19-.952l-2.9-14.333 2.888-2.359 2.771 14a.861.861 0 001.269.825h.1a8.758 8.758 0 012.422-.338 9.2 9.2 0 019.213 9.192v12.881h-4.233V64a4.76 4.76 0 10-9.52 0v3.787H40.96V54.9z" transform="translate(-1.564 -16.339)" stroke="#226d5b" stroke-miterlimit="10" stroke-width=".25" fill="url(#a1)"/>
    <path d="M70.315 52.735a36.493 36.493 0 01-.138-6.632l1.27.897a1.058 1.058 0 101.227-1.724L70.442 43.7a26.7 26.7 0 012.041-7.14 10.356 10.356 0 005.289-3.173l3.173 13.074a.973.973 0 00.053.169l.529 1.238a.92.92 0 00.529.582 11.731 11.731 0 017.658 11.033v8.3h-4.305l.338-.37a5.733 5.733 0 00-1.477-7.972l-.036-.025a7.1 7.1 0 00-9.827 1.893l-1.735 2.539a44.606 44.606 0 01-2.359-11.107v-.006z" transform="translate(-1.564 -16.339)" stroke="#226d5b" stroke-miterlimit="10" stroke-width=".25" fill="url(#b1)"/>
    <circle cx="38.844" cy="27.708" r="1.407" transform="translate(-8.774 -1.11) rotate(-20.34)" fill="#222"/>
    <path d="M61.107 83.654h-2.254a4.231 4.231 0 00-7.4 0h-4.235a4.781 4.781 0 00-3.681-2.116 4.781 4.781 0 00-3.681 2.116h-.963V69.9h22.214v13.754z" transform="translate(-1.564 -16.339)" fill="url(#c1)"/>
  </g>
</svg>
