<svg data-name="Layer 1" xmlns="http://www.w3.org/2000/svg" viewBox="0 0 119.998 119.25">
  <path d="M31.652 16.37a.947.947 0 011.031.82.947.947 0 01-1.031.82h-4.65a1.881 1.881 0 00-2.062 1.64 1.881 1.881 0 002.062 1.64h2.578a.951.951 0 011.041.82.738.738 0 01-.309.58 1.126 1.126 0 01-.732.24h-8.259a1.9 1.9 0 00-2.072 1.64 1.892 1.892 0 002.072 1.64h1.031a.842.842 0 110 1.64H9.959a.844.844 0 110-1.64h.516a1.888 1.888 0 002.062-1.64 1.888 1.888 0 00-2.062-1.64c-1.588 0-4.031.01-5.619.02h-.01a1.012 1.012 0 01-1.093-.89.912.912 0 01.99-.81h.02l14.321.04h.011a2.172 2.172 0 002.227-1.6 1.636 1.636 0 00-1.67-1.67 2.048 2.048 0 00-.247-.01h-5.32a.947.947 0 01-1.031-.82.947.947 0 011.031-.82h17.567z" fill="#fff"/>
  <path d="M119.995 42.68v20.09c-.175-.01-2.413 0-2.8 0-25.785-.19-54.86.2-48.519-6.04s9.99-14.05-6-16.39-29.538 3.37-29.157-1.93c.113-1.61 1.423-3.44 2.5-5.19a190.926 190.926 0 0123.985-1.47c38.991 0 59.991 10.93 59.991 10.93z" fill="#009e92"/>
  <path d="M49.674 72.36c19.176 6.4 59.653 10.98 38.321 23.86s-58.313 3.47-69.654 14.39H-.005v-77.6s2.876-.21 9.444-.25v-2.62a4.579 4.579 0 01-3.614-4.75 13.168 13.168 0 01.124-1.63c-.392.01-.763.01-1.093.01h-.01a1.973 1.973 0 01-2.124-1.66 1.484 1.484 0 01.588-1.2 2.32 2.32 0 011.454-.48h1.855c.732-2.68 2.076-5.7 4.376-5.7a2.876 2.876 0 012.124 1.02 2.431 2.431 0 01.969-.2h4.433c.938-2.88 2.608-6.15 5.382-6.15s4.454 3.27 5.382 6.15h2.371a1.888 1.888 0 012.062 1.64 1.888 1.888 0 01-2.062 1.64h-1.54c.113.6.217 1.19.3 1.78a1.932 1.932 0 01.969.7 1.469 1.469 0 01-.773 2.22c-.113 3.62-2.031 6.05-5.155 6.64v2.78q3.588.09 7.743.24c-2.505 4.21-5.445 11.16 2.04 11.16 10.341 0 34.425-.03 22.765 6.61-5.8 3.3-12.558 7.09-16 10.68-3.466 3.62.08 8.18 7.669 10.72zM32.683 17.19a.947.947 0 00-1.031-.82H14.083a.947.947 0 00-1.031.82.947.947 0 001.031.82h5.32a2.048 2.048 0 01.247.01 1.636 1.636 0 011.67 1.67 2.172 2.172 0 01-2.227 1.6h-.01l-14.32-.04h-.02a.912.912 0 00-.99.81 1.012 1.012 0 001.093.89h.01c1.588-.01 4.031-.02 5.619-.02a1.888 1.888 0 012.062 1.64 1.888 1.888 0 01-2.062 1.64h-.516a.844.844 0 100 1.64h12.393a.842.842 0 100-1.64h-1.031a1.892 1.892 0 01-2.072-1.64 1.9 1.9 0 012.072-1.64h8.258a1.126 1.126 0 00.732-.24.738.738 0 00.309-.58.951.951 0 00-1.041-.82h-2.577a1.881 1.881 0 01-2.062-1.64 1.881 1.881 0 012.062-1.64h4.65a.947.947 0 001.031-.82zm-3.114 6.56h-8.248a.842.842 0 100 1.64h1.031a1.888 1.888 0 012.062 1.64 1.881 1.881 0 01-2.062 1.64h-1.629a5.8 5.8 0 003.175.82c3.382 0 5.475-2.13 5.671-5.74zm-.217-3.28c-.082-.54-.175-1.09-.278-1.64h-2.072a.947.947 0 00-1.031.82.947.947 0 001.031.82h2.351zm-9.763-4.92h8.629c-1.134-3.4-2.691-5.33-4.32-5.33s-3.175 1.93-4.309 5.33zm4.825 17.37v-2.63c-.165.01-.34.02-.516.02s-.34-.01-.516-.02v2.61c.341 0 .692.01 1.032.02zm-2.062-.05v-2.7a6.036 6.036 0 01-3.093-1.5h-4.227a4.586 4.586 0 01-2.5 1.47v2.61c2.768.01 6.026.04 9.82.12zm-2.057-13.26a.473.473 0 00.01-.12.822.822 0 00-.9-.66h-.67c-.113.55-.206 1.1-.278 1.64h.638a1.185 1.185 0 001.2-.86zm-2.6-.78h-2.849c.186.5.361 1.05.516 1.63h2.052c.072-.54.165-1.08.281-1.63zM7.681 20.44l6.614.01c-.165-.59-.351-1.14-.546-1.65a2.15 2.15 0 01-.794-.24 1.44 1.44 0 01-.608-2.25 1.879 1.879 0 00-1.352-.76c-1.211 0-2.458 1.86-3.314 4.89zm6.031 8.23H9.949a1.888 1.888 0 01-2.062-1.64 1.9 1.9 0 012.062-1.64h.526a.836.836 0 100-1.64c-.969 0-2.258.01-3.485.01a13.6 13.6 0 00-.134 1.63 3.821 3.821 0 004.139 4.1 4.234 4.234 0 002.717-.82zm-2.206 4.08v-2.46c-.165.01-.34.02-.516.02a4.355 4.355 0 01-.516-.02v2.46h1.031z" fill="#009e92"/>
  <path d="M21.321 23.75h8.248c-.2 3.61-2.289 5.74-5.671 5.74a5.8 5.8 0 01-3.175-.82h1.629a1.881 1.881 0 002.062-1.64 1.888 1.888 0 00-2.062-1.64h-1.031a.842.842 0 110-1.64zM29.074 18.83c.1.55.2 1.1.278 1.64h-2.35a.947.947 0 01-1.031-.82.947.947 0 011.031-.82h2.072zM28.218 15.55h-8.629c1.134-3.4 2.691-5.33 4.31-5.33s3.185 1.93 4.319 5.33zM20.3 19.49a.473.473 0 01-.01.12 1.185 1.185 0 01-1.2.86h-.635c.072-.54.165-1.09.278-1.64h.67a.822.822 0 01.897.66zM14.295 20.45l-6.619-.01c.856-3.03 2.1-4.89 3.31-4.89a1.879 1.879 0 011.361.76 1.44 1.44 0 00.608 2.25 2.15 2.15 0 00.794.24c.2.51.386 1.06.546 1.65zM9.949 28.67h3.763a4.234 4.234 0 01-2.717.82 3.821 3.821 0 01-4.134-4.1 13.6 13.6 0 01.134-1.63c1.227 0 2.516-.01 3.485-.01a.836.836 0 110 1.64h-.531a1.9 1.9 0 00-2.062 1.64 1.888 1.888 0 002.062 1.64z" fill="#89d1cc"/>
  <path d="M106.174 62.793l5.237.061-4.339-.051.006-.553h-.9z" fill="#91d4d7"/>
  <path d="M111.186 52.169a1.936 1.936 0 001.37-3.226 1.731 1.731 0 00-1.259-.563h-.002l-1.608-.015c-.6-3.046-1.729-6.493-3.728-6.516a2.339 2.339 0 00-1.863 1.137 1.727 1.727 0 00-.842-.238l-3.859-.046c-.774-3.276-2.185-7.006-4.6-7.035s-3.91 3.667-4.756 6.925l-2.057-.024a1.863 1.863 0 00-.041 3.723l1.333.016c-.109.676-.2 1.35-.279 2.017a1.81 1.81 0 00-.854.778 1.89 1.89 0 00.649 2.532c.05 4.112 1.689 6.886 4.4 7.587l-.036 3.029v.39l.9.011.036-3.281c.148.013.3.028.449.029s.3-.009.449-.018l-.036 3.28h-.3l1.2.014v-.422l.033-3a4.942 4.942 0 002.71-1.668l3.676.043a3.939 3.939 0 002.149 1.686l-.037 2.936h.9l.03-2.751c.147.015.3.029.449.031s.3-.006.449-.018l-.031 2.738h.9l.032-2.906c1.953-.589 3.172-2.553 3.2-5.344.005-.49-.027-1.136-.085-1.849l.943.018h.016zm-6.438-8.544a1.592 1.592 0 011.2-.846c1.046.012 2.11 2.135 2.819 5.578l-5.772-.048c.153-.67.319-1.294.5-1.866a1.747 1.747 0 00.7-.268 1.889 1.889 0 00.553-2.55zm-9.967-7.026c1.41.017 2.74 2.23 3.684 6.093l-7.5-.088c1.03-3.84 2.407-6.022 3.816-6.006zm-.239 21.87c-2.942-.035-4.729-2.481-4.852-6.572l7.169.084a.931.931 0 01-.02 1.861l-.9-.01a1.863 1.863 0 00-.041 3.722l1.414.017a4.214 4.214 0 01-2.769.897zm11.228.132a3.159 3.159 0 01-2.354-.958l3.266.038a1.863 1.863 0 00.041-3.722l-.452-.005a.932.932 0 01.017-1.86c.843.011 1.968.026 3.032.043.065.721.1 1.371.095 1.854-.02 2.247-.994 4.64-3.644 4.609zM89.916 48.176c.074-.616.161-1.236.263-1.858l1.8.021a.931.931 0 01-.02 1.861zm12.633-1.713a25.88 25.88 0 00-.469 1.84l-1.783-.015q-.088-.916-.218-1.854zm-3.154 1.82l-.554-.007a1.1 1.1 0 01-1.029-.985.81.81 0 01-.005-.13.764.764 0 01.785-.745l.583.01q.128.94.22 1.857z" fill="#91d4d7"/>
  <path d="M111.305 49.31a.907.907 0 01.85.93 1 1 0 01-.96 1h-.01c-1.38-.03-3.51-.06-4.88-.08h-.01a1.861 1.861 0 00-.03 3.72l.44.01a.9.9 0 01.89.94.915.915 0 01-.91.92l-10.77-.13a.9.9 0 01-.89-.94.915.915 0 01.91-.92l.89.01a1.861 1.861 0 00.04-3.72l-7.18-.08a.889.889 0 01-.63-.29.934.934 0 01.65-1.58l2.24.03a1.861 1.861 0 00.05-3.72l-4.05-.05a.931.931 0 01.02-1.86l15.27.18a.931.931 0 01-.02 1.86l-4.62-.05a1.472 1.472 0 00-.21 0 1.692 1.692 0 00-1.47 1.88 2.011 2.011 0 001.91 1.84h.01l12.45.1h.02z" fill="#fafdfd"/>
  <path d="M104.378 62.772l-6.123-.072 7.021.082.006-.532h-.9zM105.517 62.785l-.241-.003.241.003z" fill="#91d4d7"/>
  <path d="M42.748 105.708a.809.809 0 010 1.593H4.028a.809.809 0 010-1.593h8.005v-5.9c-2.891-1.042-4.671-4.419-4.671-9.174 0-.838.065-1.94.162-3.15-.5 0-.982 0-1.4.012h-.029a3.051 3.051 0 01-2.74-3.21 3.513 3.513 0 01.755-2.323 2.378 2.378 0 011.885-.938h2.4c.949-5.186 2.676-11.042 5.642-11.042 1 0 1.92.671 2.751 1.976a2.3 2.3 0 011.251-.383h5.729c1.208-5.581 3.366-11.916 6.959-11.916s5.75 6.335 6.959 11.916h3.053a3.22 3.22 0 010 6.347h-1.983q.227 1.743.388 3.449a2.864 2.864 0 011.251 1.342 3.51 3.51 0 01-1 4.311c-.14 7.006-2.622 11.713-6.657 12.85v5.832h10.01zm-4.7-18.252H27.395a1.61 1.61 0 000 3.174h1.327a3.22 3.22 0 010 6.347H26.63a5.762 5.762 0 004.1 1.593c4.365.001 7.065-4.143 7.314-11.113zm-3.312-6.359h3.039a111.908 111.908 0 00-.367-3.174h-2.676a1.61 1.61 0 000 3.174zm-9.58-9.521h11.151C34.84 65.001 32.823 61.25 30.73 61.25s-4.111 3.751-5.578 10.326zm6.239 34.132v-5.593c-.227.012-.442.036-.669.036a6.258 6.258 0 01-.669-.036v5.593h1.338zm-2.676 0v-5.832a7.242 7.242 0 01-3.992-2.9h-5.47a6.06 6.06 0 01-3.215 2.838v5.892h12.681zm-2.661-26.275a1.525 1.525 0 00.011-.228 1.222 1.222 0 00-1.154-1.281h-.863a88.204 88.204 0 00-.367 3.174h.83a1.742 1.742 0 001.543-1.665zm-3.363-1.509h-3.671c.248.97.464 2.036.669 3.15l2.654.012c.097-1.043.216-2.097.348-3.162zM9.757 81.037l8.566.024a56.344 56.344 0 00-.7-3.186 2.372 2.372 0 01-1.036-.479 3.537 3.537 0 01-.788-4.359 2.39 2.39 0 00-1.759-1.461c-1.554 0-3.172 3.593-4.283 9.461zm7.8 15.94h-4.855a3.22 3.22 0 010-6.347h.669a1.476 1.476 0 001.295-1.533v-.047a1.48 1.48 0 00-1.284-1.593c-1.262 0-2.934 0-4.51.012-.108 1.221-.177 2.335-.177 3.161 0 3.832 1.4 7.94 5.34 7.94a4.4 4.4 0 003.522-1.592zm-2.848 8.731v-5.593c-.216.012-.442.036-.669.036a6.11 6.11 0 01-.669-.036v5.593h1.338z" fill="#fff"/>
  <path d="M27.395 87.457h10.649c-.249 6.97-2.949 11.114-7.314 11.114a5.762 5.762 0 01-4.1-1.593h2.093a3.22 3.22 0 000-6.347h-1.328a1.61 1.61 0 010-3.174zM37.775 81.097h-3.043a1.61 1.61 0 010-3.174h2.676c.14 1.066.259 2.12.367 3.174zM36.307 71.576H25.152c1.467-6.575 3.485-10.326 5.578-10.326s4.11 3.751 5.577 10.326zM31.395 100.115v5.593h-1.334v-5.593a6.258 6.258 0 00.669.036c.226-.001.442-.024.665-.036zM26.069 79.205a1.525 1.525 0 01-.011.228 1.742 1.742 0 01-1.543 1.665h-.83c.1-1.042.227-2.1.367-3.174h.863a1.222 1.222 0 011.154 1.281zM18.323 81.061l-8.566-.024c1.111-5.868 2.729-9.461 4.283-9.461a2.39 2.39 0 011.755 1.461 3.537 3.537 0 00.788 4.359 2.372 2.372 0 001.036.479c.251.983.488 2.049.704 3.186zM12.702 96.978h4.855a4.4 4.4 0 01-3.517 1.593c-3.938 0-5.34-4.108-5.34-7.94 0-.826.065-1.94.173-3.162 1.575-.012 3.247-.012 4.51-.012a1.48 1.48 0 011.283 1.593v.048a1.476 1.476 0 01-1.295 1.533h-.669a3.22 3.22 0 000 6.347zM14.709 100.115v5.593h-1.338v-5.593a6.11 6.11 0 00.669.036c.226-.001.455-.024.669-.036z" fill="#40bca0"/>
  <path d="M119.995 99.604v19.646h-48.35V99.604c0-11.274 8.946-18.97 22.444-19.585V76.38a4.912 4.912 0 01-3.449-4.61 5.188 5.188 0 0110.36 0 4.924 4.924 0 01-3.462 4.61v3.639c13.498.615 22.457 8.311 22.457 19.585zm-3.462 16.376V99.604a14.843 14.843 0 00-2.645-8.827 8.486 8.486 0 00-8.609-7.549 8.888 8.888 0 00-3.293.627 31.1 31.1 0 00-6.172-.615c-9.556 0-20.72 4.278-20.72 16.364v16.376h41.439zm-19-44.21a1.727 1.727 0 10-1.724 1.635 1.681 1.681 0 001.729-1.636z" fill="#08847c"/>
  <path d="M116.533 99.604v16.376h-13.809v-1.635a1.767 1.767 0 001.219-.479 1.573 1.573 0 000-2.311c-.182-.172-4.4-4.094-8.895-1.955-1.673.8-4.253-.8-5.018-1.414a1.82 1.82 0 00-1.491-.357l-.207-.516a8.222 8.222 0 005.757-7.709h3.449a8.648 8.648 0 0017.271 0 7.84 7.84 0 00-1.673-4.819 7.6 7.6 0 00.778-3.369c0-.209-.013-.43-.026-.639a14.843 14.843 0 012.645 8.827z" fill="#02ad99"/>
  <path d="M113.888 90.776c.013.209.026.43.026.639a7.6 7.6 0 01-.778 3.369 8.855 8.855 0 00-14.833 1.451 7.882 7.882 0 01-1.66-4.819 8.2 8.2 0 015.342-7.566c4.733.964 9.193 3.14 11.903 6.926z" fill="#02ad99"/>
  <path d="M113.136 94.784a7.84 7.84 0 011.673 4.819 8.648 8.648 0 01-17.271 0 7.807 7.807 0 01.765-3.369 8.346 8.346 0 002.814 2.348 4.405 4.405 0 00-.117 1.02 4.7 4.7 0 00.519 2.115l2.347-2.238a7.64 7.64 0 001.413.123 8.95 8.95 0 004.823-1.4l-6.146 5.828a5.344 5.344 0 002.217.492 5.064 5.064 0 005.186-4.918 4.465 4.465 0 00-.467-1.979 7.773 7.773 0 002.244-2.841z" fill="#228571"/>
  <path d="M110.841 97.514l-.739.688a8.95 8.95 0 01-4.823 1.4 7.64 7.64 0 01-1.413-.123l4.529-4.289a5.3 5.3 0 00-2.217-.492 5.127 5.127 0 00-5.057 3.885 8.346 8.346 0 01-2.814-2.348 8.855 8.855 0 0114.833-1.451 7.773 7.773 0 01-2.243 2.84.426.426 0 00-.056-.11zM105.279 83.228a8.486 8.486 0 018.609 7.549c-2.71-3.787-7.17-5.963-11.9-6.922a8.888 8.888 0 013.291-.627z" fill="#228571"/>
  <path d="M110.895 97.624a4.465 4.465 0 01.467 1.979 5.064 5.064 0 01-5.186 4.918 5.344 5.344 0 01-2.217-.492l6.146-5.828a7.1 7.1 0 00.79-.577z" fill="#6ac7b9"/>
  <path d="M110.841 97.514a.426.426 0 01.052.111 7.1 7.1 0 01-.791.578zM108.395 95.19l-4.525 4.291a8.642 8.642 0 01-2.749-.9 5.127 5.127 0 015.057-3.885 5.3 5.3 0 012.217.494z" fill="#6ac7b9"/>
  <path d="M103.943 111.55a1.573 1.573 0 010 2.311 1.789 1.789 0 01-2.438 0c-.026-.025-2.632-2.422-4.914-1.328a5.924 5.924 0 01-2.567.566 11.2 11.2 0 01-6.237-2.434 1.575 1.575 0 01-.194-2.3 1.744 1.744 0 01.947-.541 1.82 1.82 0 011.491.357c.765.615 3.345 2.213 5.018 1.414 4.499-2.135 8.713 1.787 8.894 1.955z" fill="#228571"/>
  <path d="M103.865 99.481l-2.347 2.238a4.7 4.7 0 01-.519-2.115 4.405 4.405 0 01.117-1.02 8.642 8.642 0 002.749.897z" fill="#6ac7b9"/>
  <path d="M102.724 114.345v1.635h-8.7v-2.877a5.924 5.924 0 002.567-.566c2.282-1.094 4.888 1.3 4.914 1.328a1.767 1.767 0 001.219.48zM101.985 83.85a8.2 8.2 0 00-5.342 7.561 7.882 7.882 0 001.66 4.819 7.807 7.807 0 00-.765 3.369h-3.449a8.648 8.648 0 00-17.271 0h-1.723c0-12.085 11.164-16.364 20.72-16.364a31.1 31.1 0 016.17.615z" fill="#02ad99"/>
  <path d="M95.814 70.134a1.637 1.637 0 11-1.724 1.635 1.681 1.681 0 011.724-1.635z" fill="#6ac7b9"/>
  <path d="M94.024 113.103v2.877H75.095V99.604h1.724a8.426 8.426 0 008.635 8.188 8.547 8.547 0 002.878-.479l.207.516a1.744 1.744 0 00-.947.541 1.575 1.575 0 00.194 2.3 11.2 11.2 0 006.238 2.433z" fill="#02ad99"/>
  <path d="M85.454 91.416a8.434 8.434 0 018.635 8.188 8.222 8.222 0 01-5.757 7.709 8.547 8.547 0 01-2.878.479 8.2 8.2 0 110-16.376zm5.186 8.188a4.644 4.644 0 00-.519-2.1l-6.885 6.528a5.344 5.344 0 002.217.492 5.064 5.064 0 005.187-4.92zm-9.854 2.115l6.885-6.528a5.3 5.3 0 00-2.217-.492 5.051 5.051 0 00-5.173 4.905 4.859 4.859 0 00.505 2.114z" fill="#228571"/>
  <path d="M90.122 97.501a4.644 4.644 0 01.519 2.1 5.064 5.064 0 01-5.186 4.918 5.344 5.344 0 01-2.217-.492zM87.671 95.19l-6.885 6.528a4.859 4.859 0 01-.506-2.115 5.051 5.051 0 015.173-4.905 5.3 5.3 0 012.218.492z" fill="#6ac7b9"/>
  <path d="M115.065 8.674a.854.854 0 01-.655.32h-7.406a2.04 2.04 0 00-1.852 2.186 2.04 2.04 0 001.852 2.186h.926a1.02 1.02 0 01.926 1.093 1.02 1.02 0 01-.926 1.093H96.82a1.02 1.02 0 01-.925-1.092 1.02 1.02 0 01.926-1.093h.463a2.039 2.039 0 001.853-2.184 2.04 2.04 0 00-1.85-2.188h0c-1.418 0-3.611.008-5.038.024h-.011a1.1 1.1 0 01-.972-1.179 1 1 0 01.879-1.09h.025l12.833.051h.005a2.21 2.21 0 001.993-2.128 1.962 1.962 0 00-1.492-2.223 1.444 1.444 0 00-.223-.013h-4.763a1.02 1.02 0 01-.928-1.094 1.02 1.02 0 01.929-1.093h15.738a1.02 1.02 0 01.926 1.093 1.02 1.02 0 01-.926 1.093h-4.167a2.04 2.04 0 00-1.852 2.186 2.04 2.04 0 001.852 2.186h2.314a1.02 1.02 0 01.927 1.092 1.2 1.2 0 01-.271.774h0z" fill="#fdfdfe" stroke="#e1eeeb" stroke-linecap="round" stroke-linejoin="round" stroke-width=".5"/>
</svg>
