<svg xmlns="http://www.w3.org/2000/svg" viewBox="0 0 66 82.5">
  <path d="M25.9 34.1H5.6C3 34.1 1 36.2 1 38.7V59c0 2.6 2.1 4.6 4.6 4.6h20.3c2.6 0 4.6-2.1 4.6-4.6V38.8c.1-2.6-2-4.7-4.6-4.7zm3.1 25c0 1.7-1.4 3-3 3H5.6c-1.7 0-3-1.4-3-3V38.8c0-1.7 1.4-3 3-3h20.3c1.7 0 3 1.4 3 3l.1 20.3z"/>
  <path d="M19.2 47.6c1.4-.6 2.2-1.4 2.2-3.2 0-2.2-1.5-3.9-5.3-3.9h-5.8v14.9h6.5c3.9 0 5.4-1.9 5.4-4.1 0-2-1.2-3.3-3-3.7zm-6.4-4.9H16c1.6 0 2.7.4 2.7 2 0 1.2-.9 1.9-2.7 1.9h-3.2v-3.9zm4 10.3h-3.9v-4.1h3.6c2.1 0 3.2.7 3.2 2-.1 1.7-1.2 2.1-2.9 2.1zM43.1 31.9c2.6 0 4.6-2.1 4.6-4.6V6.9c0-2.6-2.1-4.6-4.6-4.6H22.8c-2.6 0-4.6 2.1-4.6 4.6v20.3c0 2.6 2.1 4.6 4.6 4.6l20.3.1zm-23.3-4.7V6.9c0-1.7 1.4-3 3-3h20.3c1.7 0 3 1.4 3 3v20.3c0 1.7-1.4 3-3 3H22.8c-1.7 0-3-1.3-3-3z"/>
  <path d="M29.2 20.1h7.4l1.5 3.4h2.7L34.3 8.6h-2.7L25 23.5h2.7l1.5-3.4zm3.8-8.5l2.7 6.1h-5.4l2.7-6.1zM60.4 34.1H40.1c-2.6 0-4.6 2.1-4.6 4.6V59c0 2.6 2.1 4.6 4.6 4.6h20.3c2.6 0 4.6-2.1 4.6-4.6V38.8c0-2.6-2.1-4.7-4.6-4.7zm3 25c0 1.7-1.4 3-3 3H40.1c-1.7 0-3-1.4-3-3V38.8c0-1.7 1.4-3 3-3h20.3c1.7 0 3 1.4 3 3v20.3z"/>
  <path d="M51.4 42.5c1.8 0 2.9.6 4.2 1.8l1.6-1.7c-1.5-1.7-3.5-2.6-5.8-2.6-4.7 0-8 3.3-8 7.7 0 4.5 3.4 7.7 7.8 7.7 2.2 0 4.2-.9 5.7-2.6l-1.6-1.7c-1.5 1.4-2.7 1.8-4.2 1.8-2.7 0-5.1-2.2-5.1-5.3.1-3 2.5-5.1 5.4-5.1z"/>
</svg>
