<svg height='100px' width='100px'  fill="#397dc6" xmlns="http://www.w3.org/2000/svg" xmlns:xlink="http://www.w3.org/1999/xlink" version="1.1" x="0px" y="0px" viewBox="0 0 48 48" style="enable-background:new 0 0 48 48;" xml:space="preserve"><path d="M32.7,26.6l-6.5-6.5c0,0,0,0,0,0l0,0l-1.6-1.6c-0.4-0.3-0.9-0.3-1.3,0l-8.1,8.1c-0.4,0.4-0.4,0.9,0,1.3l1.6,1.6  c0.2,0.2,0.4,0.3,0.6,0.3c0.2,0,0.5-0.1,0.6-0.3l5.8-5.8l5.8,5.8c0.2,0.2,0.4,0.3,0.6,0.3c0.2,0,0.5-0.1,0.6-0.3l1.6-1.6  C33.1,27.5,33.1,27,32.7,26.6z"></path></svg>