<svg height='100px' width='100px'  fill="#319b82" xmlns="http://www.w3.org/2000/svg" data-name="Layer 1" viewBox="-6 0 36 32" x="0px" y="0px"><title>noun project 1</title><path d="M10.55,26.18a1.09,1.09,0,0,1-.77-.32L6.41,22.49a1.09,1.09,0,0,1,0-1.54L11.33,16,6.4,11.11a1.09,1.09,0,0,1,0-1.54L9.78,6.19a1.09,1.09,0,0,1,1.54,0l4.92,4.92,4.92-4.92a1.12,1.12,0,0,1,1.54,0l3.37,3.37a1.09,1.09,0,0,1,0,1.54L21.15,16l4.92,4.92a1.09,1.09,0,0,1,0,1.54L22.7,25.86a1.09,1.09,0,0,1-1.54,0l-4.92-4.92-4.92,4.92a1.09,1.09,0,0,1-.77.32M8.72,21.72l1.83,1.83,4.92-4.92a1.09,1.09,0,0,1,1.54,0l4.92,4.92,1.83-1.83-4.92-4.92a1.09,1.09,0,0,1,0-1.54l4.92-4.92L21.92,8.5,17,13.42a1.12,1.12,0,0,1-1.54,0L10.55,8.5,8.72,10.34l4.92,4.92a1.09,1.09,0,0,1,0,1.54Z"></path></svg>