<svg fill="#ccefe7" xmlns="http://www.w3.org/2000/svg" viewBox="12 3 40 58" x="0px" y="0px"><title>classroom-lecturer-student-study</title><path d="M11,48a2,2,0,0,1,2,2,1.958,1.958,0,0,1-.278,1H9.278A1.958,1.958,0,0,1,9,50,2,2,0,0,1,11,48ZM8,53h6a1,1,0,0,1,1,1v2H7V54A1,1,0,0,1,8,53ZM7,60V58h8v2Z"></path><path d="M25,48a2,2,0,0,1,2,2,1.958,1.958,0,0,1-.278,1H23.278A1.958,1.958,0,0,1,23,50,2,2,0,0,1,25,48Zm-3,5h6a1,1,0,0,1,1,1v2H21V54A1,1,0,0,1,22,53Zm-1,7V58h8v2Z"></path><path d="M39,48a2,2,0,0,1,2,2,1.958,1.958,0,0,1-.278,1H37.278A1.958,1.958,0,0,1,37,50,2,2,0,0,1,39,48Zm-3,5h6a1,1,0,0,1,1,1v2H35V54A1,1,0,0,1,36,53Zm-1,7V58h8v2Z"></path><path d="M53,48a2,2,0,0,1,2,2,1.958,1.958,0,0,1-.278,1H51.278A1.958,1.958,0,0,1,51,50,2,2,0,0,1,53,48Zm-3,5h6a1,1,0,0,1,1,1v2H49V54A1,1,0,0,1,50,53Zm-1,7V58h8v2Z"></path><polygon points="36 32 28 32 16 32 16 34 48 34 48 32 40 32 36 32"></polygon><path d="M29,29v1h6V29a1,1,0,0,0-1-1H30A1,1,0,0,0,29,29Z"></path><rect x="35" y="4" width="8" height="2"></rect><circle cx="32" cy="24" r="2"></circle><rect x="41" y="28" width="6" height="2"></rect><path d="M23,42H41V36H23Zm11-4h2v2H34Zm-6,0h4v2H28Z"></path><rect x="17" y="4" width="2" height="2"></rect><polygon points="29 6 29 4 21 4 21 6 26 6 29 6"></polygon><rect x="31" y="4" width="2" height="2"></rect><path d="M11,18H25V8H11Zm2-8H23v2H13Zm0,4H23v2H13Z"></path><polygon points="15 6 15 4 5 4 5 6 6 6 10 6 15 6"></polygon><rect x="17" y="36" width="4" height="6"></rect><rect x="43" y="36" width="4" height="6"></rect><path d="M44,8H27V19a1,1,0,0,1-1,1H10a1,1,0,0,1-1-1V8H7V42h8V36a1,1,0,0,1-1-1V31a1,1,0,0,1,1-1h4V28a1.006,1.006,0,0,1,.168-.555l2-3A1,1,0,0,1,22,24h3v2H22.535L21,28.3V30h6V29a3,3,0,0,1,1.731-2.708,4,4,0,1,1,6.538,0A3,3,0,0,1,37,29v1h2V27a1,1,0,0,1,1-1h8a1,1,0,0,1,1,1v3a1,1,0,0,1,1,1v4a1,1,0,0,1-1,1v6h8V8H44Zm-9,9H29V15h6Zm0-4H29V11h6Zm4,4H37V15h2Zm0-4H37V11h2Zm8,10a1,1,0,0,1-1,1H42a1,1,0,0,1-1-1V19a1,1,0,0,1,1-1h4a1,1,0,0,1,1,1Zm0-8a1,1,0,0,1-1,1H42a1,1,0,0,1-1-1V11a1,1,0,0,1,1-1h4a1,1,0,0,1,1,1Zm2-4a1,1,0,0,1,1-1h4a1,1,0,0,1,1,1v4a1,1,0,0,1-1,1H50a1,1,0,0,1-1-1Zm0,8a1,1,0,0,1,1-1h4a1,1,0,0,1,1,1v4a1,1,0,0,1-1,1H50a1,1,0,0,1-1-1Z"></path><rect x="51" y="20" width="2" height="2"></rect><rect x="43" y="12" width="2" height="2"></rect><rect x="51" y="12" width="2" height="2"></rect><polygon points="49 4 49 6 58 6 59 6 59 4 49 4"></polygon><rect x="43" y="20" width="2" height="2"></rect><rect x="45" y="4" width="2" height="2"></rect></svg>