<svg xmlns="http://www.w3.org/2000/svg" xmlns:xlink="http://www.w3.org/1999/xlink" width="100" height="100" viewBox="0 0 100 100"><svg viewBox="0 0 95 95"><g transform="translate(-149.6453,-589.21878)"><path d="m 199.64552,591.21879 a 48.000099,48.000099 0 0 0 -48.00022,48.00022 48.000099,48.000099 0 0 0 48.00022,47.99977 48.000099,48.000099 0 0 0 47.99977,-47.99977 48.000099,48.000099 0 0 0 -47.99977,-48.00022 z m 0,5.42088 a 42.107528,42.578935 0 0 1 42.10718,42.57934 42.107528,42.578935 0 0 1 -42.10718,42.57887 42.107528,42.578935 0 0 1 -42.10763,-42.57887 42.107528,42.578935 0 0 1 42.10763,-42.57934 z" fill="#222222"></path></g></svg><g transform="translate(50 50) scale(0.69 0.69) rotate(0) translate(-50 -50)" style="fill:#222222"><svg fill="#222222" xmlns:x="http://ns.adobe.com/Extensibility/1.0/" xmlns:i="http://ns.adobe.com/AdobeIllustrator/10.0/" xmlns:graph="http://ns.adobe.com/Graphs/1.0/" xmlns="http://www.w3.org/2000/svg" xmlns:xlink="http://www.w3.org/1999/xlink" version="1.1" x="0px" y="0px" viewBox="0 0 670.6 767.2" style="enable-background:new 0 0 670.6 767.2;" xml:space="preserve"><g><g i:extraneous="self"><path d="M659,183.3L346.9,3.1c-7.2-4.1-16-4.1-23.2,0L11.6,183.3C4.4,187.4,0,195.1,0,203.4l0,360.4c0,8.3,4.4,15.9,11.6,20.1    l312.1,180.2c7.2,4.1,16,4.1,23.2,0L659,583.9c7.2-4.1,11.6-11.8,11.6-20.1l0-360.4C670.6,195.1,666.2,187.4,659,183.3z     M316.4,600.1c0,37.9,0,68.2-0.1,74.1c-0.2,19.3,3.6,51.3-29.2,33.8L67.9,581.5c-17.5-10.1-28.3-28.8-28.3-49    c0,0-0.1-104.9-0.1-182.2c0-1.8,0-3.7,0-5.5c0-37.9,0-68.2,0.1-74.1c0.2-19.3-3.6-51.3,29.2-33.8L288,363.5    c17.5,10.1,28.3,28.8,28.3,49c0,0,0.1,104.9,0.1,182.2V600.1z M335.2,340.3c-9.7,0-19.5-2.5-28.2-7.6L95.5,210.6    c-1.1-0.7-2-1.2-2.6-1.7c-14.9-10-30.1-21.1,5.5-41.9c1.5-0.9,3.3-1.9,5.2-3L307,46.5c8.7-5,18.4-7.6,28.2-7.6    c9.7,0,19.5,2.5,28.2,7.6L566.8,164c1.9,1.1,3.6,2.1,5.2,3c35.6,20.8,20.3,31.9,5.5,41.9c-0.7,0.4-1.6,1-2.6,1.7L363.4,332.7    C354.6,337.7,344.9,340.3,335.2,340.3z M630.3,350.3c0,77.3-0.1,182.2-0.1,182.2c0,20.2-10.8,38.9-28.3,49L382.8,708    c-32.8,17.5-29-14.5-29.2-33.8c-0.1-5.9-0.1-36.2-0.1-74.1v-5.5c0-77.3,0.1-182.2,0.1-182.2c0-20.2,10.8-38.9,28.3-49L601,236.9    c32.8-17.5,29,14.5,29.2,33.8c0.1,5.9,0.1,36.2,0.1,74.1C630.3,346.6,630.3,348.5,630.3,350.3z"></path></g></g></svg></g></svg>