<svg fill="#397DC6" xmlns="http://www.w3.org/2000/svg" data-name="Layer 1" viewBox="0 0 100 86" x="0px" y="0px"><title>117all</title><path d="M95.08,54.28a2,2,0,0,0-.18-.4l0-.06a2,2,0,0,0-.32-.38l-.09-.08a2,2,0,0,0-.37-.24l-.05,0L73.68,43.71V19.19a2,2,0,0,0-.07-.51l0-.12a2,2,0,0,0-.18-.4l0-.06a2,2,0,0,0-.32-.38l-.09-.08a2,2,0,0,0-.37-.24l-.05,0-21.68-10a2,2,0,0,0-1.67,0l-21.67,10-.05,0a2,2,0,0,0-.37.24l-.09.08a2,2,0,0,0-.32.38l0,.06a2,2,0,0,0-.18.4l0,.12a2,2,0,0,0-.07.51V43.71L6,53.09l-.05,0a2,2,0,0,0-.37.24l-.09.08a2,2,0,0,0-.32.38l0,.06a2,2,0,0,0-.18.4l0,.12a2,2,0,0,0-.07.51V80.81A2,2,0,0,0,6,82.63l21.67,10a2,2,0,0,0,1.67,0L50,83.09l20.68,9.53a2,2,0,0,0,1.67,0L94,82.63a2,2,0,0,0,1.16-1.82V54.91a2,2,0,0,0-.07-.51Zm-68.6,33.4L8.81,79.53V58l17.67,8.15Zm2-25-16.9-7.79,16.63-7.66L45.11,55ZM48,52,30.32,43.81V22.31L48,30.46Zm2-25L33.1,19.19,50,11.4l16.9,7.79ZM69.52,87.68,52,79.61V58.11l17.52,8.07Zm2-25L54.88,55l16.9-7.79,16.63,7.66Z"></path></svg>