<?xml version="1.0" encoding="utf-8"?>
<!-- Generator: Adobe Illustrator 19.2.1, SVG Export Plug-In . SVG Version: 6.00 Build 0)  -->
<svg version="1.1" id="delete_round" xmlns="http://www.w3.org/2000/svg" xmlns:xlink="http://www.w3.org/1999/xlink" x="0px" y="0px"
	 viewBox="0 0 100 125" style="enable-background:new 0 0;" xml:space="preserve">
<style type="text/css">
	.st0{fill:#FFFFFF;}
	.st1{fill:#DD5A03;}
	.st2{fill:none;stroke:#000000;stroke-miterlimit:10;}
</style>
<g id="XMLID_1_">
	<g>
		<path class="st0" d="M50,4.6C75,4.6,95.4,25,95.4,50S75,95.4,50,95.4S4.6,75,4.6,50S25,4.6,50,4.6z M91.5,50
			C91.5,27.1,72.9,8.5,50,8.5S8.5,27.1,8.5,50S27.1,91.5,50,91.5S91.5,72.9,91.5,50z"/>
		<path class="st1" d="M50,8.5c22.9,0,41.5,18.6,41.5,41.5S72.9,91.5,50,91.5S8.5,72.9,8.5,50S27.1,8.5,50,8.5z M72.8,40.2
			c3.6-3.6,3.6-9.4,0-13c-1.7-1.7-4-2.7-6.5-2.7c-2.5,0-4.8,1-6.5,2.7L50,37l-9.8-9.8c-1.7-1.7-4-2.7-6.5-2.7s-4.8,1-6.5,2.7
			c-3.6,3.6-3.6,9.4,0,13L37,50l-9.8,9.8c-3.6,3.6-3.6,9.4,0,13c1.7,1.7,4,2.7,6.5,2.7s4.8-1,6.5-2.7L50,63l9.8,9.8
			c1.7,1.7,4,2.7,6.5,2.7c2.5,0,4.8-0.9,6.5-2.7c3.6-3.6,3.6-9.4,0-13L63,50L72.8,40.2z"/>
		<path class="st0" d="M72.8,27.2c3.6,3.6,3.6,9.4,0,13L63,50l9.8,9.8c3.6,3.6,3.6,9.4,0,13c-1.7,1.8-4,2.7-6.5,2.7
			c-2.5,0-4.8-1-6.5-2.7L50,63l-9.8,9.8c-1.7,1.7-4,2.7-6.5,2.7s-4.8-1-6.5-2.7c-3.6-3.6-3.6-9.4,0-13L37,50l-9.8-9.8
			c-3.6-3.6-3.6-9.4,0-13c1.7-1.7,4-2.7,6.5-2.7s4.8,1,6.5,2.7L50,37l9.8-9.8c1.7-1.7,4-2.7,6.5-2.7C68.8,24.5,71.1,25.5,72.8,27.2z
			 M70,37.4c2.1-2.1,2.1-5.4,0-7.5c-1-1-2.3-1.5-3.7-1.5c-1.4,0-2.7,0.6-3.7,1.6L50,42.5L37.4,30c-1-1-2.3-1.5-3.7-1.5
			C32.3,28.4,31,29,30,30c-2.1,2.1-2.1,5.4,0,7.5L42.5,50L30,62.6c-2.1,2.1-2.1,5.4,0,7.5c1,1,2.3,1.5,3.7,1.5
			c1.4,0,2.7-0.5,3.7-1.5L50,57.5L62.6,70c1,1,2.3,1.5,3.7,1.5c1.4,0,2.7-0.5,3.7-1.5c2.1-2.1,2.1-5.4,0-7.5L57.5,50L70,37.4z"/>
		<path class="st1" d="M70,29.9c2.1,2.1,2.1,5.4,0,7.5L57.5,50L70,62.5c2.1,2.1,2.1,5.4,0,7.5c-1,1-2.3,1.5-3.7,1.5
			c-1.4,0-2.7-0.5-3.7-1.5L50,57.5L37.4,70.1c-1,1-2.3,1.5-3.7,1.5c-1.4,0-2.7-0.5-3.7-1.5c-2.1-2.1-2.1-5.4,0-7.5L42.5,50L30,37.5
			c-2.1-2.1-2.1-5.4,0-7.5c1-1,2.3-1.6,3.7-1.5c1.4,0,2.7,0.5,3.7,1.5L50,42.5L62.6,30c1-1,2.3-1.6,3.7-1.6
			C67.7,28.4,69,28.9,70,29.9z"/>
	</g>
	<g>
		<path class="st2" d="M50,95.4C25,95.4,4.6,75,4.6,50S25,4.6,50,4.6S95.4,25,95.4,50S75,95.4,50,95.4z"/>
		<path class="st2" d="M50,8.5C27.1,8.5,8.5,27.1,8.5,50S27.1,91.5,50,91.5S91.5,72.9,91.5,50S72.9,8.5,50,8.5z"/>
		<path class="st2" d="M66.3,75.5c-2.5,0-4.8-1-6.5-2.7L50,63l-9.8,9.8c-1.7,1.7-4,2.7-6.5,2.7s-4.8-1-6.5-2.7
			c-3.6-3.6-3.6-9.4,0-13L37,50l-9.8-9.8c-3.6-3.6-3.6-9.4,0-13c1.7-1.7,4-2.7,6.5-2.7s4.8,1,6.5,2.7L50,37l9.8-9.8
			c1.7-1.7,4-2.7,6.5-2.7c2.5,0,4.8,1,6.5,2.7c3.6,3.6,3.6,9.4,0,13L63,50l9.8,9.8c3.6,3.6,3.6,9.4,0,13
			C71.1,74.6,68.8,75.5,66.3,75.5z"/>
		<path class="st2" d="M50,57.5L62.6,70c1,1,2.3,1.5,3.7,1.5c1.4,0,2.7-0.5,3.7-1.5c2.1-2.1,2.1-5.4,0-7.5L57.5,50L70,37.4
			c2.1-2.1,2.1-5.4,0-7.5c-1-1-2.3-1.5-3.7-1.5c-1.4,0-2.7,0.6-3.7,1.6L50,42.5L37.4,30c-1-1-2.3-1.5-3.7-1.5C32.3,28.4,31,29,30,30
			c-2.1,2.1-2.1,5.4,0,7.5L42.5,50L30,62.6c-2.1,2.1-2.1,5.4,0,7.5c1,1,2.3,1.5,3.7,1.5c1.4,0,2.7-0.5,3.7-1.5L50,57.5z"/>
	</g>
</g>
</svg>
