<svg data-name="Layer 1" xmlns="http://www.w3.org/2000/svg" viewBox="0 0 90.01 90.84">
  <path d="M94.33,48.64C91,33.53,97.33,27.78,91,13.91,88,7.18,85.83,3.73,74.21,2.36c-7.12-.84-17.55.57-26.66,1.86-14.91,2.1-18.73,1.07-30,12C3,30.35,6.27,61.68,6.74,66c1.21,10.88,6.51,21.22,16.11,24.18,11.73,3.62,44.41,5.47,60.55-5.51C96.32,75.85,98.17,65.86,94.33,48.64Z" transform="translate(-6.09 -2.11)" fill="#45C4A6"/>
  <path d="M74.88,31h-35V55.42h35V31ZM73.36,53.9h-32V32.57h32V53.9Z" transform="translate(-6.09 -2.11)" fill="#daefeb"/>
  <path d="M45.93,52.38a3,3,0,0,0,2.26-5.08L52.57,40a2.84,2.84,0,0,0,2,0l4.78,5.46a3,3,0,1,0,5.15-.05l3.94-5.25A3,3,0,1,0,67,39.57l-3.6,4.8a2.93,2.93,0,0,0-2.92,0l-4.61-5.26a3,3,0,1,0-4.54,0l-4.38,7.29A3,3,0,1,0,45.93,52.38ZM68.79,35.62a1.52,1.52,0,1,1-1.52,1.52A1.53,1.53,0,0,1,68.79,35.62ZM63.46,47a1.52,1.52,0,1,1-1.52-1.52A1.53,1.53,0,0,1,63.46,47Zm-9.9-11.43A1.52,1.52,0,1,1,52,37.14,1.53,1.53,0,0,1,53.55,35.62ZM45.93,47.81a1.52,1.52,0,1,1-1.52,1.52A1.53,1.53,0,0,1,45.93,47.81Z" transform="translate(-6.09 -2.11)" fill="#daefeb"/>
  <path d="M73.68,11.24H50.51V28H36.79V58.47H84V21.59ZM74.12,28V22.67h5.33v16H77.93V28H74.12ZM66.5,28H65V21.14H66.5V28Zm-3-8.38V28H61.93V21.14H57.36V28H55.08V15.81H72.6V18.1h-3V28H68V19.62H63.46Zm-3,8.38H58.89V22.67h1.52V28Zm10.67-8.38H72.6V28H71.07V19.62Zm3,1.52v-7.3l7.3,7.3h-7.3ZM52,12.76H72.6v1.52h-19V28H52V12.76ZM76.41,56.95H38.32V29.52H76.41V56.95Zm6.09,0H77.93V40.19h3V22.67H82.5V56.95Z" transform="translate(-6.09 -2.11)" fill="#daefeb"/>
  <path fill="#c2e5e1" d="M32.22 22.85H33.74V24.37H32.22z"/>
  <path fill="#c2e5e1" d="M32.22 19.8H33.74V21.32H32.22z"/>
  <path fill="#c2e5e1" d="M32.22 16.75H33.74V18.27H32.22z"/>
  <path fill="#c2e5e1" d="M32.22 13.7H33.74V15.219999999999999H32.22z"/>
  <path fill="#c2e5e1" d="M35.27 13.7H36.790000000000006V15.219999999999999H35.27z"/>
  <path fill="#c2e5e1" d="M38.32 13.7H39.84V15.219999999999999H38.32z"/>
  <path fill="#c2e5e1" d="M41.37 13.7H42.89V15.219999999999999H41.37z"/>
  <path fill="#daefeb" d="M64.22 48.75H65.74V50.27H64.22z"/>
  <path fill="#daefeb" d="M61.17 48.75H62.690000000000005V50.27H61.17z"/>
  <path fill="#daefeb" d="M64.22 45.7H65.74V47.220000000000006H64.22z"/>
  <path d="M28.49,48.95a3.08,3.08,0,0,0-5.79.08l-1.38,0H20.89a7.09,7.09,0,1,0,.64,14.16l5.92-.09A3.05,3.05,0,0,0,33.5,63l8.6-.12a5.78,5.78,0,1,1,.17,11.56l-4,.06a3.07,3.07,0,0,0-5.78.08l-13.44.19a3,3,0,1,0,.17,1.3l13.14-.19a3.05,3.05,0,0,0,6.06-.09l3.84-.06h0a7.09,7.09,0,1,0-.21-14.17l-8.79.13a3.07,3.07,0,0,0-5.78.08l-6,.09a5.83,5.83,0,0,1-4.16-1.63,5.74,5.74,0,0,1-1.77-4.06,5.82,5.82,0,0,1,5.77-5.86l1.28,0a3.05,3.05,0,0,0,6.06-.09L43.84,50V48.73ZM16.26,77.56a1.71,1.71,0,1,1-.06-3.42h0A1.71,1.71,0,1,1,16.26,77.56Zm19.3-.37a1.73,1.73,0,0,1-1.87-1.58,1.21,1.21,0,0,1,0-.26,1.75,1.75,0,0,1,3.44,0,1.13,1.13,0,0,1,0,.26A1.73,1.73,0,0,1,35.56,77.19Zm-5.39-16.1a1.74,1.74,0,0,1,2,1.41,1.13,1.13,0,0,1,0,.25,1.72,1.72,0,1,1-3.44,0,1.22,1.22,0,0,1,0-.22A1.73,1.73,0,0,1,30.17,61.09Zm-4.6-9.31A1.73,1.73,0,0,1,23.91,50a1.18,1.18,0,0,1,0-.22,1.74,1.74,0,0,1,3.44,0,1.11,1.11,0,0,1,0,.22,1.69,1.69,0,0,1,0,.21A1.73,1.73,0,0,1,25.57,51.78Z" transform="translate(-6.09 -2.11)" fill="#A2E2D3"/>
  <path d="M52.32,38.89a0.66,0.66,0,0,0-.6-0.33l-5.47.16V38.58a0.66,0.66,0,0,0-1.32,0l0.25,8.68a2.09,2.09,0,0,0-1.32,1.42H43.67L43.73,50h0.19a2.12,2.12,0,0,0,2.74,1.18,2.08,2.08,0,0,0,1.2-2.7,2.1,2.1,0,0,0-1.36-1.24L46.4,44.14,51.88,44a0.66,0.66,0,0,0,.58-0.36A0.65,0.65,0,0,0,52.39,43l-1.25-1.68,1.15-1.73A0.65,0.65,0,0,0,52.32,38.89ZM46.64,49.32a0.79,0.79,0,1,1-.89-0.82h0.14A0.79,0.79,0,0,1,46.64,49.32Z" transform="translate(-6.09 -2.11)" fill="#fff"/>
  <path d="M50.67,43l-0.75-1a0.63,0.63,0,0,1,0-.74l0.71-1.05-4.21.06,0,2.83Z" transform="translate(-6.09 -2.11)" fill="#fdc281"/>
</svg>
