<svg version="1.1" id="Layer_1" xmlns="http://www.w3.org/2000/svg" x="0px" y="0px" viewBox="0 0 138.4 77.4" xml:space="preserve">
  <style>
    .st0{fill:none;stroke:#000;stroke-linecap:round;stroke-miterlimit:10}
  </style>
  <defs>
    <clipPath id="cutout" clipPathUnits="objectBoundingBox" transform="scale(3)">
      <path d="M42.3 56.9H13.7c-1.7 0-3.6-.5-3.6-1.9v-4.8h2v4.4c.3.1.8.2 1.6.2h28.6V56.9zM131.8 57.1H61.7v-2h70.1c.7 0 1.3-.1 1.6-.2v-3.7h2v4.2C135.4 56.9 132.7 57.1 131.8 57.1zM135.4 31h-2V10.2c0-1.6-.8-2.8-1.6-2.8H62.1v-2h69.7c2 0 3.6 2.1 3.6 4.8V31zM12.2 30.5h-2V10.1c0-2.6 1.6-4.7 3.6-4.7h28.6v2H13.7c-.7 0-1.6 1.2-1.6 2.7V30.5z"/> 
      <path d="M11.2 51.3c-.1 0-.2 0-.3 0-3.4-1-6.3-3.2-7.8-6.1-1.3-2.6-1.6-5.5-.6-8.2 1.3-3.7 4.3-6.4 8.4-7.5.5-.1 1.1.2 1.2.7.1.5-.2 1.1-.7 1.2-3.4.9-6 3.2-7 6.3-.8 2.2-.6 4.5.5 6.6 1.3 2.4 3.6 4.2 6.5 5.1.5.1.8.7.7 1.2C12 51 11.6 51.3 11.2 51.3zM134.4 51.4C134.4 51.4 134.4 51.4 134.4 51.4c-5.7-.3-10.8-5.4-10.8-10.9 0-5.3 5.1-10.6 10.7-11.1.5-.1 1 .4 1.1.9 0 .5-.4 1-.9 1.1-4.5.4-8.8 4.8-8.8 9.1 0 4.4 4.3 8.7 8.8 8.9.6 0 1 .5 1 1C135.4 51 134.9 51.4 134.4 51.4zM52.5 64.1c-5.4 0-10.1-3.3-11.3-8-.1-.6.2-1.1.7-1.3.6-.1 1.1.2 1.3.7 1.1 3.9 5 6.6 9.5 6.5 4.2-.3 7.6-2.9 8.6-6.4.2-.6.7-.9 1.3-.7.6.1.9.7.7 1.3-1.2 4.4-5.4 7.5-10.5 7.9C52.7 64.1 52.6 64.1 52.5 64.1zM52.4 15.9c-3.1 0-6.3-1.3-8.5-3.5-1.7-1.7-2.6-3.8-2.5-5.9l0-.2c0-.6.4-1 1-1s1 .4 1 1v.2c-.1 1.6.6 3.1 1.9 4.4 2 1.9 4.9 3 7.7 2.9 2.5-.1 5.1-1.3 6.7-3.1.7-.8 1.6-2.2 1.5-3.9l0-.5c0-.6.4-1 1-1s1 .4 1 1v.5c.1 1.8-.6 3.7-2 5.3-1.9 2.2-5 3.6-8.1 3.8C52.8 15.9 52.6 15.9 52.4 15.9z"/>
    </clipPath>
  </defs>
</svg>
