<svg data-name="Layer 1" xmlns="http://www.w3.org/2000/svg" viewBox="0 0 91.5 91.5">
  <path d="M72.35,27.65H27.65V72.35h44.7V27.65h0ZM55.1,67.59H53.32V52.73H55.1V67.59Zm4.17,0H57.48V52.73h1.78V67.59Zm4.16,0H61.65V52.73h1.78V67.59Zm4.16,0H65.81V52.73H67.6V67.59Z" transform="translate(-4.25 -4.25)" fill="#16324f"/>
  <path d="M95.25,32.53V29.11H77.71V22.29H70.89V4.75H67.47V22.29h-3V4.75H61.08V22.29h-3V4.75H54.68V22.29h-3V4.75H48.29V22.29h-3V4.75H41.9V22.29h-3V4.75H35.5V22.29h-3V4.75H29.11V22.29H22.3v6.81H4.75v3.42H22.3v3H4.75v3.42H22.3v3H4.75v3.42H22.3v3H4.75v3.42H22.3v3H4.75V58.1H22.3v3H4.75v3.42H22.3v3H4.75v3.42H22.3V77.7h6.81V95.25h3.42V77.71h3V95.25h3.42V77.71h3V95.25h3.42V77.71h3V95.25h3.42V77.71h3V95.25H58.1V77.71h3V95.25H64.5V77.71h3V95.25h3.42V77.71H77.7V70.89H95.25V67.47H77.71v-3H95.25V61.08H77.71v-3H95.25V54.68H77.71v-3H95.25V48.29H77.71v-3H95.25V41.9H77.71v-3H95.25V35.5H77.71v-3H95.25ZM75.33,75.33H24.67V24.67H75.33V75.33Z" transform="translate(-4.25 -4.25)" fill="#dde589" stroke="#13293d" stroke-miterlimit="10"/>
</svg>
