<svg version="1.1" id="Layer_1" xmlns="http://www.w3.org/2000/svg" x="0px" y="0px" viewBox="0 0 90 130" xml:space="preserve">
  <path fill="#fed1b3" d="M63.4 15.6c.5.5.5 1.2.2 1.8l-2.4 4.4c-.7 1.3.7 2.8 2 2.2l4.5-2.1c.6-.3 1.3-.1 1.8.4l3.4 3.6c1 1.1 2.9.2 2.7-1.3l-.6-5c-.1-.7.3-1.3.9-1.6l4.5-2.1c1.4-.7 1.1-2.7-.4-3l-4.9-1c-.7-.1-1.2-.7-1.3-1.3l-.6-4.9C73 4.2 71 3.8 70.3 5.1l-2.4 4.3c-.3.6-1 .9-1.7.8l-4.9-.9C60 9 59 10.8 60 11.9L63.4 15.6zM55.1 47c.5.3.7.8.6 1.3l-.8 3.8c-.3 1.2 1.1 2 2 1.2l2.9-2.5c.4-.3 1-.4 1.4-.1l3.3 2c1 .6 2.2-.5 1.7-1.5l-1.5-3.6c-.2-.5-.1-1 .3-1.4l2.9-2.6c.9-.8.3-2.2-.9-2.1l-3.9.3c-.5 0-1-.2-1.2-.7l-1.6-3.5c-.5-1.1-2.1-.9-2.3.2l-.9 3.8c-.1.5-.6.9-1.1.9l-3.8.4c-1.2.1-1.5 1.7-.5 2.3L55.1 47zM96.9 56.6l-3.4-2.4c-.5-.3-.7-.9-.5-1.5l1.1-4c.4-1.2-1.1-2.2-2.1-1.4l-3.3 2.5c-.5.3-1.1.4-1.5 0l-3.5-2.3c-1.1-.7-2.4.3-2 1.5l1.4 3.9c.2.5 0 1.1-.4 1.5L79.4 57c-1 .8-.4 2.4.8 2.4l4.2-.1c.6 0 1.1.3 1.3.9l1.4 3.9c.4 1.2 2.1 1.1 2.5-.1l1.2-4c.2-.5.7-.9 1.2-.9l4.2-.2C97.5 59 98 57.4 96.9 56.6z"/>
  <path fill="#fed1b3" d="M76.4,75.5c-4.7,0.4-9.6,0-14.5-1.5C42.1,67.8,31,46.8,37.1,27c1.5-4.8,3.9-9.1,6.9-12.8c1.7-2,0-4.9-2.6-4.7 c-16.7,1.7-31.6,13.1-37,30.3c-7.1,22.8,5.7,47,28.5,54c17.1,5.3,35-0.6,45.9-13.5C80.5,78.4,79,75.3,76.4,75.5z"/>
</svg>
