<svg xmlns="http://www.w3.org/2000/svg" x="0px" y="0px" viewBox="0 0 30 38">
  <path d="M28.1,15.2L27,15c-2.3-0.4-2.7-2.1-1-3.6l0.8-0.7c1.7-1.5,1.4-2.2-0.8-1.4L25,9.6c-2.2,0.7-3.4-0.4-2.6-2.6	l0.4-1.1c0.7-2.2,0.1-2.6-1.4-0.8L20.6,6c-1.5,1.7-3.1,1.3-3.6-1l-0.2-1.1c-0.4-2.3-1.2-2.3-1.6,0L15,5c-0.4,2.3-2.1,2.7-3.6,1	l-0.7-0.8C9.1,3.4,8.5,3.7,9.2,5.9L9.6,7c0.7,2.2-0.4,3.4-2.6,2.6L5.9,9.2c-2.2-0.7-2.6-0.1-0.8,1.4L6,11.4c1.7,1.5,1.3,3.1-1,3.6	l-1.1,0.2c-2.3,0.4-2.3,1.2,0,1.6L5,17c2.3,0.4,2.7,2.1,1,3.6l-0.8,0.7c-1.7,1.5-1.4,2.1,0.8,1.4L7,22.4c2.2-0.7,3.4,0.4,2.6,2.6	l-0.4,1.1c-0.7,2.2-0.1,2.6,1.4,0.8l0.7-0.8c1.5-1.7,3.1-1.3,3.6,1l0.2,1.1c0.4,2.3,1.2,2.3,1.6,0L17,27c0.4-2.3,2.1-2.7,3.6-1	l0.7,0.8c1.5,1.7,2.2,1.4,1.4-0.8L22.4,25c-0.7-2.2,0.4-3.4,2.6-2.6l1.1,0.4c2.2,0.7,2.6,0.1,0.8-1.4L26,20.6	c-1.7-1.5-1.3-3.1,1-3.6l1.1-0.2C30.4,16.4,30.4,15.6,28.1,15.2z M16,23.6c-4.2,0-7.6-3.4-7.6-7.6s3.4-7.6,7.6-7.6s7.6,3.4,7.6,7.6	S20.2,23.6,16,23.6z M16,9.8c-3.4,0-6.2,2.8-6.2,6.2s2.8,6.2,6.2,6.2s6.2-2.8,6.2-6.2S19.4,9.8,16,9.8z" fill="#fed1b3"/>
</svg>
