<svg id="Layer_1" data-name="Layer 1" xmlns="http://www.w3.org/2000/svg" viewBox="0 0 62 61.5"><title>moutain</title><g id="_Group_" data-name="&lt;Group&gt;"><path d="M50,48l0.6,1.5C50,50.6,49.5,51,49,51c-0.8,0-1.3-1-2.1-2.5S45.1,45,43,45s-3.1,2-3.9,3.5-1.3,2.5-2,2.5-1-.4-1.6-1.4L36,48A7.4,7.4,0,0,1,50,48Z" transform="translate(-1 -1.5)" fill="#fff"/><path d="M26.7,44l0.6,2c-0.6.9-1,1-1.3,1-0.8,0-1.3-1-2.1-2.5S22.1,41,20,41s-3.1,2-3.9,3.5S14.8,47,14,47c-0.4,0-.7-0.2-1.3-1l0.6-2A7,7,0,0,1,26.7,44Z" transform="translate(-1 -1.5)" fill="#fff"/><path d="M38.7,26.1l1,3.3C39,30.6,38.6,31,38,31c-0.8,0-1.3-1-2.1-2.5S34.1,25,32,25s-3.1,2-3.9,3.5S26.8,31,26,31c-0.6,0-1-.4-1.7-1.6l1-3.3A7,7,0,0,1,38.7,26.1Z" transform="translate(-1 -1.5)" fill="#fff"/><rect x="60" y="59.5" width="2" height="2" fill="#1e446b"/><path d="M59,61v2H4V61H6.2l5.1-17.5A9.21,9.21,0,0,1,20,37l0.6-2H7a6,6,0,0,1-6-6,5.94,5.94,0,0,1,5.1-5.9A4.1,4.1,0,0,1,6,22a9,9,0,0,1,9-9,9.21,9.21,0,0,1,8.2,5.2,7.06,7.06,0,0,1,6.1,1.2,11.63,11.63,0,0,1,1.8-.4V1.5L48.8,9.1,33,14.7v4.4a8.89,8.89,0,0,1,7.6,6.4l4.6,15.8a9.74,9.74,0,0,1,6.7,6.1L56.7,61H59Zm-4.4,0-3.2-9.1A3.39,3.39,0,0,1,49,53c-2.1,0-3.1-2-3.9-3.5S43.8,47,43,47H42.8c-0.7.1-1.2,1-1.9,2.5S39.1,53,37,53a3.21,3.21,0,0,1-2.4-1.1L31.4,61H54.6Zm-4-11.5L50,48a7.4,7.4,0,0,0-14,0l-0.5,1.6c0.6,1,1,1.4,1.6,1.4s1.2-.9,2-2.5S40.9,45,43,45s3.1,2,3.9,3.5S48.2,51,49,51C49.5,51,50,50.6,50.6,49.5ZM33,12.6L43.3,8.9,33,4.5v8.1ZM43.1,41l-2.7-9.1A3.21,3.21,0,0,1,38,33a1.48,1.48,0,0,1-.7-0.1c-0.2-.1-0.4-0.1-0.6-0.2a0.53,0.53,0,0,1-.3-0.2,2.18,2.18,0,0,1-.5-0.4l-0.2-.2a12,12,0,0,1-1.5-2.4c-0.7-1.6-1.3-2.5-2.1-2.5s-1.3,1-2.1,2.5S28.2,33,26.1,33a3.39,3.39,0,0,1-2.4-1.1l-1.1,3.8L22,37.2a9,9,0,0,1,6.6,6.2L31.7,54l2.4-6.7a9.41,9.41,0,0,1,9-6.3h0ZM39.7,29.4l-1-3.3a7,7,0,0,0-13.4,0l-1,3.3C25,30.6,25.4,31,26,31c0.8,0,1.4-.9,2.1-2.5S29.9,25,32,25s3.1,2,3.9,3.5S37.2,31,38,31C38.6,31,39,30.6,39.7,29.4ZM30.6,57.3l-2.6-9a3.22,3.22,0,0,1-2,.7,3.37,3.37,0,0,1-2.2-.9,11.67,11.67,0,0,1-1.7-2.6C21.3,43.9,20.8,43,20,43H19.9c-0.8,0-1.3,1-2.1,2.5s-1.7,3.4-3.7,3.5H13.7a2.64,2.64,0,0,1-1.6-.7v0.1a0.1,0.1,0,0,1-.1-0.1L8.3,61h21ZM27.3,46l-0.6-2a7,7,0,0,0-13.4,0l-0.6,2c0.6,0.8.9,1,1.3,1,0.8,0,1.4-.9,2.1-2.5S17.9,41,20,41s3.1,2,3.9,3.5S25.2,47,26,47C26.3,47,26.7,46.9,27.3,46ZM27.1,20.5a4.89,4.89,0,0,0-4.1,0l-1,.4-0.3-1A7.05,7.05,0,0,0,15,15a7,7,0,0,0-7,7,4.1,4.1,0,0,0,.1,1.1A6,6,0,0,1,13,29H11a4,4,0,1,0-4,4H21.2l2.2-7.5A8.56,8.56,0,0,1,27.1,20.5Z" transform="translate(-1 -1.5)" fill="#1e446b"/><path d="M51.4,51.9L54.6,61H31.4l3.2-9.1A3.21,3.21,0,0,0,37,53c2.1,0,3.1-2,3.9-3.5s1.2-2.4,1.9-2.5H43c0.8,0,1.3.9,2.1,2.5S46.9,53,49,53A3.39,3.39,0,0,0,51.4,51.9Z" transform="translate(-1 -1.5)" fill="#dde589"/><polygon points="42.3 7.4 32 11.1 32 3 42.3 7.4" fill="#fa8334"/><path d="M40.4,31.9L43,41a9.38,9.38,0,0,0-8.9,6.3L31.7,54,28.6,43.4A9,9,0,0,0,22,37.2l0.5-1.6,1.1-3.7A3.39,3.39,0,0,0,26,33c2.1,0,3.1-2,3.9-3.5S31.2,27,32,27s1.3,0.9,2.1,2.5a11.35,11.35,0,0,0,1.5,2.3,0.38,0.38,0,0,0,.2.2,1.76,1.76,0,0,0,.5.4c0.1,0.1.2,0.1,0.3,0.2a1.42,1.42,0,0,0,.6.2,1.2,1.2,0,0,0,.8.2A3.21,3.21,0,0,0,40.4,31.9Z" transform="translate(-1 -1.5)" fill="#dde589"/><path d="M36.6,32.7a1.42,1.42,0,0,0,.6.2C37,32.8,36.8,32.8,36.6,32.7Z" transform="translate(-1 -1.5)" fill="#1e446b"/><path d="M35.8,32a1.76,1.76,0,0,0,.5.4A0.89,0.89,0,0,1,35.8,32Z" transform="translate(-1 -1.5)" fill="#1e446b"/><path d="M34.1,29.4a12,12,0,0,0,1.5,2.4,11.36,11.36,0,0,1-1.5-2.3C33.3,27.9,32.8,27,32,27s-1.3.9-2.1,2.5S28.1,33,26,33a3.39,3.39,0,0,1-2.4-1.1l-1.1,3.7,1.1-3.8A3.39,3.39,0,0,0,26,32.9c2.1,0,3.1-2,3.9-3.5s1.3-2.5,2.1-2.5S33.4,27.8,34.1,29.4Z" transform="translate(-1 -1.5)" fill="#1e446b"/><path d="M28,48.3l2.6,9L29.3,61H8.3l3.8-12.6a2.83,2.83,0,0,0,1.6.6h0.4c2-.1,3-2,3.8-3.5S19.2,43,20,43s1.4,0.9,2,2.5a13.54,13.54,0,0,0,1.8,2.6A2.94,2.94,0,0,0,26,49,3.22,3.22,0,0,0,28,48.3Z" transform="translate(-1 -1.5)" fill="#dde589"/><path d="M23,20.5a4.89,4.89,0,0,1,4.1,0,8.56,8.56,0,0,0-3.7,5L21.2,33H7a4,4,0,1,1,4-4h2a6,6,0,0,0-4.9-5.9A4.1,4.1,0,0,1,8,22a7,7,0,0,1,7-7,7.05,7.05,0,0,1,6.7,4.9l0.3,1Z" transform="translate(-1 -1.5)" fill="#fff"/><path d="M19.9,43h0c-0.7,0-1.2.9-2,2.5s-1.8,3.4-3.8,3.5c2-.1,2.9-2,3.7-3.5S19.1,43,19.9,43Z" transform="translate(-1 -1.5)" fill="#1e446b"/><path d="M12.1,48.4L8.3,61l3.8-12.6C12,48.3,12.1,48.3,12.1,48.4Z" transform="translate(-1 -1.5)" fill="#1e446b"/><rect y="59.5" width="2" height="2" fill="#1e446b"/></g></svg>