<svg version="1.1" id="Layer_1" xmlns="http://www.w3.org/2000/svg" x="0px" y="0px" viewBox="0 0 62 61.5" xml:space="preserve">
  <path fill="#fff" d="M49 46.5l.6 1.5c-.6 1.1-1.1 1.5-1.6 1.5-.8 0-1.3-1-2.1-2.5s-1.8-3.5-3.9-3.5-3.1 2-3.9 3.5-1.3 2.5-2 2.5-1-.4-1.6-1.4l.5-1.6c1.3-3.9 5.5-5.9 9.4-4.6C46.6 42.6 48.3 44.3 49 46.5zM25.7 42.5l.6 2c-.6.9-1 1-1.3 1-.8 0-1.3-1-2.1-2.5s-1.8-3.5-3.9-3.5-3.1 2-3.9 3.5-1.3 2.5-2.1 2.5c-.4 0-.7-.2-1.3-1l.6-2c1.1-3.7 5-5.8 8.7-4.7C23.3 38.5 25 40.3 25.7 42.5zM37.7 24.6l1 3.3c-.7 1.2-1.1 1.6-1.7 1.6-.8 0-1.3-1-2.1-2.5s-1.8-3.5-3.9-3.5-3.1 2-3.9 3.5-1.3 2.5-2.1 2.5c-.6 0-1-.4-1.7-1.6l1-3.3c1.1-3.7 5-5.8 8.7-4.7C35.3 20.6 37 22.4 37.7 24.6z"/>
  <path fill="#1e446b" d="M58,59.5v2H3v-2h2.2L10.3,42c1.2-3.8,4.7-6.5,8.7-6.5l0.6-2H6c-3.3,0-6-2.7-6-6l0,0c0-3,2.2-5.5,5.1-5.9	C5,21.2,5,20.9,5,20.5c0-5,4-9,9-9c3.5,0,6.7,2,8.2,5.2c2.1-0.6,4.4-0.1,6.1,1.2c0.6-0.2,1.2-0.3,1.8-0.4V0l17.7,7.6L32,13.2v4.4	c3.6,0.4,6.6,2.9,7.6,6.4l4.6,15.8c3.1,0.8,5.6,3.1,6.7,6.1l4.8,13.6H58z M53.6,59.5l-3.2-9.1c-0.6,0.7-1.5,1.1-2.4,1.1	c-2.1,0-3.1-2-3.9-3.5s-1.3-2.5-2.1-2.5h-0.2c-0.7,0.1-1.2,1-1.9,2.5s-1.8,3.5-3.9,3.5c-0.9,0-1.8-0.4-2.4-1.1l-3.2,9.1H53.6z M49.6,48L49,46.5c-1.3-3.9-5.5-5.9-9.4-4.6c-2.2,0.7-3.9,2.4-4.6,4.6l-0.5,1.6c0.6,1,1,1.4,1.6,1.4s1.2-0.9,2-2.5s1.8-3.5,3.9-3.5	s3.1,2,3.9,3.5s1.3,2.5,2.1,2.5C48.5,49.5,49,49.1,49.6,48z M32,11.1l10.3-3.7L32,3V11.1z M42.1,39.5l-2.7-9.1	c-0.6,0.7-1.5,1.1-2.4,1.1c-0.2,0-0.5,0-0.7-0.1c-0.2-0.1-0.4-0.1-0.6-0.2c-0.1,0-0.2-0.1-0.3-0.2c-0.2-0.1-0.4-0.2-0.5-0.4	l-0.2-0.2c-0.6-0.7-1.1-1.5-1.5-2.4c-0.7-1.6-1.3-2.5-2.1-2.5s-1.3,1-2.1,2.5s-1.8,3.5-3.9,3.5c-0.9,0-1.8-0.4-2.4-1.1l-1.1,3.8	L21,35.7c3.2,0.7,5.7,3.1,6.6,6.2l3.1,10.6l2.4-6.7C34.4,42,38.1,39.4,42.1,39.5C42.1,39.5,42.1,39.5,42.1,39.5z M38.7,27.9l-1-3.3	c-1.1-3.7-5-5.8-8.7-4.7c-2.2,0.7-4,2.4-4.7,4.7l-1,3.3c0.7,1.2,1.1,1.6,1.7,1.6c0.8,0,1.4-0.9,2.1-2.5s1.8-3.5,3.9-3.5	s3.1,2,3.9,3.5s1.3,2.5,2.1,2.5C37.6,29.5,38,29.1,38.7,27.9z M29.6,55.8l-2.6-9c-0.6,0.5-1.3,0.7-2,0.7c-0.8,0-1.6-0.3-2.2-0.9	c-0.7-0.8-1.3-1.7-1.7-2.6c-0.8-1.6-1.3-2.5-2.1-2.5h-0.1c-0.8,0-1.3,1-2.1,2.5s-1.7,3.4-3.7,3.5h-0.4c-0.6,0-1.2-0.3-1.6-0.7v0.1	c-0.1,0-0.1,0-0.1-0.1L7.3,59.5h21L29.6,55.8z M26.3,44.5l-0.6-2c-1.1-3.7-5-5.8-8.7-4.7c-2.2,0.7-4,2.4-4.7,4.7l-0.6,2	c0.6,0.8,0.9,1,1.3,1c0.8,0,1.4-0.9,2.1-2.5c0.7-1.6,1.8-3.5,3.9-3.5s3.1,2,3.9,3.5s1.3,2.5,2.1,2.5C25.3,45.5,25.7,45.4,26.3,44.5z M26.1,19c-1.3-0.6-2.8-0.6-4.1,0l-1,0.4l-0.3-1c-0.9-2.9-3.6-4.9-6.7-4.9c-3.9,0-7,3.1-7,7c0,0.4,0,0.7,0.1,1.1	c2.8,0.5,4.9,3,4.9,5.9h-2c0-2.2-1.8-4-4-4s-4,1.8-4,4s1.8,4,4,4h14.2l2.2-7.5C23,21.9,24.3,20.1,26.1,19z"/>
  <path fill="#dde589" d="M50.4,50.4l3.2,9.1H30.4l3.2-9.1c0.6,0.7,1.5,1.1,2.4,1.1c2.1,0,3.1-2,3.9-3.5s1.2-2.4,1.9-2.5H42	c0.8,0,1.3,0.9,2.1,2.5s1.8,3.5,3.9,3.5C48.9,51.5,49.8,51.1,50.4,50.4z"/>
  <path fill="#1e446b" d="M42.3 7.4L32 11.1 32 3z"/>
  <path fill="#dde589" d="M39.4,30.4l2.6,9.1c-4,0-7.6,2.5-8.9,6.3l-2.4,6.7l-3.1-10.6c-0.9-3.1-3.4-5.5-6.6-6.2l0.5-1.6l1.1-3.7	c0.6,0.7,1.5,1.1,2.4,1.1c2.1,0,3.1-2,3.9-3.5s1.3-2.5,2.1-2.5s1.3,0.9,2.1,2.5c0.4,0.8,0.9,1.6,1.5,2.3c0,0.1,0.1,0.2,0.2,0.2	c0.1,0.2,0.3,0.3,0.5,0.4c0.1,0.1,0.2,0.1,0.3,0.2c0.2,0.1,0.4,0.2,0.6,0.2c0.2,0.2,0.5,0.2,0.8,0.2C37.9,31.5,38.8,31.1,39.4,30.4z"/>
  <path fill="#1e446b" d="M35.6 31.2c.2.1.4.2.6.2C36 31.3 35.8 31.3 35.6 31.2zM34.8 30.5c.1.2.3.3.5.4C35.1 30.8 34.9 30.7 34.8 30.5zM33.1 27.9c.4.9.9 1.7 1.5 2.4-.6-.7-1.1-1.5-1.5-2.3-.8-1.6-1.3-2.5-2.1-2.5s-1.3.9-2.1 2.5-1.8 3.5-3.9 3.5c-.9 0-1.8-.4-2.4-1.1l-1.1 3.7 1.1-3.8c.6.7 1.5 1.1 2.4 1.1 2.1 0 3.1-2 3.9-3.5s1.3-2.5 2.1-2.5C31.8 25.4 32.4 26.3 33.1 27.9z"/>
  <path fill="#dde589" d="M27,46.8l2.6,9l-1.3,3.7h-21l3.8-12.6c0.5,0.4,1,0.6,1.6,0.6h0.4c2-0.1,3-2,3.8-3.5s1.3-2.5,2.1-2.5	s1.4,0.9,2,2.5c0.5,0.9,1.1,1.8,1.8,2.6c0.6,0.6,1.4,0.9,2.2,0.9C25.7,47.5,26.4,47.3,27,46.8z"/>
  <path fill="#fff" d="M22,19c1.3-0.6,2.8-0.6,4.1,0c-1.8,1.1-3.1,2.9-3.7,5l-2.2,7.5H6c-2.2,0-4-1.8-4-4s1.8-4,4-4s4,1.8,4,4h2	c0-2.9-2.1-5.4-4.9-5.9C7,21.2,7,20.9,7,20.5c0-3.9,3.1-7,7-7c3.1,0,5.8,2,6.7,4.9l0.3,1L22,19z"/>
  <path fill="#1e446b" d="M18.9 41.5L18.9 41.5c-.7 0-1.2.9-2 2.5s-1.8 3.4-3.8 3.5c2-.1 2.9-2 3.7-3.5S18.1 41.5 18.9 41.5zM11.1 46.9L7.3 59.5 11.1 46.9C11 46.8 11.1 46.8 11.1 46.9z"/>
</svg>
