<?xml version="1.0" encoding="utf-8"?>
<!-- Generator: Adobe Illustrator 19.2.1, SVG Export Plug-In . SVG Version: 6.00 Build 0)  -->
<svg version="1.1" id="Layer_1" xmlns="http://www.w3.org/2000/svg" xmlns:xlink="http://www.w3.org/1999/xlink" x="0px" y="0px"
	 viewBox="0 0 96 120" style="enable-background:new 0 0 96 120;" xml:space="preserve">
<style type="text/css">
	.st0{fill:#16324F;}
	.st1{fill:#F4F4F4;}
</style>
<g>
	<g id="XMLID_1_">
		<g>
			<path class="st0" d="M48,12c19.9,0,36,16.1,36,36S67.9,84,48,84S12,67.9,12,48S28.1,12,48,12z"/>
			<path class="st1" d="M48,4c24.3,0,44,19.7,44,44S72.3,92,48,92S4,72.3,4,48S23.7,4,48,4z M84,48c0-19.9-16.1-36-36-36
				S12,28.1,12,48s16.1,36,36,36S84,67.9,84,48z"/>
		</g>
		<g>
		</g>
	</g>
</g>
<g>
	<path class="st1" d="M36,64c-1,0-2-0.4-2.8-1.2c-1.6-1.6-1.6-4.1,0-5.7l24-24c1.6-1.6,4.1-1.6,5.7,0c1.6,1.6,1.6,4.1,0,5.7l-24,24
		C38,63.6,37,64,36,64z"/>
</g>
<g>
	<path class="st1" d="M60,64c-1,0-2-0.4-2.8-1.2l-24-24c-1.6-1.6-1.6-4.1,0-5.7c1.6-1.6,4.1-1.6,5.7,0l24,24c1.6,1.6,1.6,4.1,0,5.7
		C62.1,63.6,61,64,60,64z"/>
</g>
</svg>
