<?xml version="1.0" encoding="utf-8"?>
<!-- Generator: Adobe Illustrator 19.2.1, SVG Export Plug-In . SVG Version: 6.00 Build 0)  -->
<svg version="1.1"
	 id="Layer_1" xmlns:cc="http://creativecommons.org/ns#" xmlns:dc="http://purl.org/dc/elements/1.1/" xmlns:inkscape="http://www.inkscape.org/namespaces/inkscape" xmlns:rdf="http://www.w3.org/1999/02/22-rdf-syntax-ns#" xmlns:sodipodi="http://sodipodi.sourceforge.net/DTD/sodipodi-0.dtd" xmlns:svg="http://www.w3.org/2000/svg"
	 xmlns="http://www.w3.org/2000/svg" xmlns:xlink="http://www.w3.org/1999/xlink" x="0px" y="0px" viewBox="0 0 100 125"
	 style="enable-background:new 0 0 100 125;" xml:space="preserve">
<g transform="translate(0,-952.36218)">
	<path d="M81.2,967.2c-0.8,0-1.5,0.3-2.1,0.9l-49.5,49.5c-0.4,0.5-0.7,1-0.8,1.7l-2.1,14.9c-0.2,1.6,0.9,3.2,2.6,3.4
		c0.3,0,0.6,0,0.8,0l14.8-2.1c0.6-0.1,1.2-0.4,1.7-0.8L96.1,985c1.2-1.2,1.2-3.1,0-4.2c0,0,0,0,0,0l-12.7-12.7
		c-0.4-0.4-1-0.7-1.6-0.8C81.6,967.2,81.4,967.2,81.2,967.2L81.2,967.2z M81.3,974.4l8.5,8.5l-1.4,1.4l-8.5-8.5L81.3,974.4z
		 M75.6,980.1l8.5,8.5l-38.9,38.9l-8.5-8.5L75.6,980.1L75.6,980.1z M34.1,1024.8l5.3,5.3l-6.2,0.9L34.1,1024.8L34.1,1024.8z
		 M5,1033.5c-1.1,0-2,0.9-2,2c0,1.1,0.9,2,2,2h18c1.1,0,2-0.9,2-2c0-1.1-0.9-2-2-2H5z"/>
</g>
</svg>
