<?xml version="1.0" encoding="utf-8"?>
<!-- Generator: Adobe Illustrator 19.2.1, SVG Export Plug-In . SVG Version: 6.00 Build 0)  -->
<svg version="1.1" id="Layer_1" xmlns="http://www.w3.org/2000/svg" xmlns:xlink="http://www.w3.org/1999/xlink" x="0px" y="0px"
	 viewBox="0 0 96 120" style="enable-background:new 0 0 96 120;" xml:space="preserve">
<g>
	<g>
		<path d="M48,92C23.7,92,4,72.3,4,48S23.7,4,48,4s44,19.7,44,44S72.3,92,48,92z M48,12c-19.9,0-36,16.1-36,36s16.1,36,36,36
			s36-16.1,36-36S67.9,12,48,12z"/>
	</g>
	<g>
		<path d="M60,64c-1,0-2-0.4-2.8-1.2l-24-24c-1.6-1.6-1.6-4.1,0-5.7c1.6-1.6,4.1-1.6,5.7,0l24,24c1.6,1.6,1.6,4.1,0,5.7
			C62.1,63.6,61,64,60,64z"/>
	</g>
	<g>
		<path d="M36,64c-1,0-2-0.4-2.8-1.2c-1.6-1.6-1.6-4.1,0-5.7l24-24c1.6-1.6,4.1-1.6,5.7,0c1.6,1.6,1.6,4.1,0,5.7l-24,24
			C38,63.6,37,64,36,64z"/>
	</g>
</g>
</svg>
