<?xml version="1.0" encoding="utf-8"?>
<!-- Generator: Adobe Illustrator 19.2.1, SVG Export Plug-In . SVG Version: 6.00 Build 0)  -->
<svg version="1.1" id="Layer_1" xmlns="http://www.w3.org/2000/svg" xmlns:xlink="http://www.w3.org/1999/xlink" x="0px" y="0px"
	 viewBox="0 0 100 93" style="enable-background:new 0 0 100 93;" xml:space="preserve">
<style type="text/css">
	.st0{fill:#F4F4F4;}
	.st1{fill:#16324F;}
</style>
<g>
	<g id="XMLID_1_">
		<g>
			<path class="st0" d="M84.6,34.5c0.1,0.3,0.1,0.6,0.1,0.9c0,1.9-0.2,3.8-0.5,5.7c-0.6,3.5-1.7,6.9-3.3,10
				c-1.5,3.1-3.5,5.9-5.9,8.4c-2.3,2.5-5.1,4.6-8.1,6.3c-3.1,1.7-6.4,3-9.8,3.7c-3.5,0.8-7.1,1-11.1,0.6c-1.9-0.3-3.8-0.6-5.7-1.1
				c-1.8-0.5-3.6-1.2-5.3-2c-3.1-1.5-6-3.4-8.6-5.7c-2.5-2.3-4.7-5-6.5-7.9c-1.8-2.9-3.2-6.2-4-9.6c-0.8-3.5-1.2-7.2-0.9-10.8
				c0.3-3.5,1-7,2.4-10.3c0.7-1.7,1.5-3.4,2.5-5c0.9-1.6,2-3.1,3.2-4.5c2.2-2.6,4.8-4.9,7.7-6.8S37,3,40.3,2.1
				c3.5-1,7.1-1.4,10.7-1.3s7.2,0.8,10.5,2c3.3,1.2,6.4,2.8,9.1,4.9c1.5,1.1,2.9,2.3,4.2,3.6c1.3,1.3,2.4,2.8,3.5,4.3
				c2,2.8,3.5,6,4.6,9.3C84,28,84.5,31.3,84.6,34.5c-0.2-0.6-0.5-1.2-0.9-1.6c-0.6-0.6-1.6-1.1-2.5-1c-0.9,0-1.9,0.3-2.5,1
				c-0.7,0.8-1.1,1.7-1.1,2.6c0-1.4-0.1-2.7-0.3-4.1c0,0.4,0.1,0.7,0.1,1c-0.3-2.6-1-5.3-2-7.7c0.1,0.2,0.2,0.5,0.3,0.7
				c-0.1-0.3-0.2-0.6-0.4-0.9c-1-2.2-2.2-4.2-3.7-6.1c0.2,0.2,0.4,0.5,0.6,0.7c-1.6-2.1-3.5-4-5.6-5.6c0.2,0.2,0.5,0.4,0.7,0.6
				c-2-1.5-4-2.7-6.2-3.7c0,0,0,0,0,0c-0.3-0.1-0.5-0.2-0.8-0.4c0.1,0.1,0.2,0.1,0.3,0.2c-2.3-0.9-4.8-1.5-7.3-1.9
				c0.4,0,0.7,0.1,1,0.1C51.6,8,48.8,8,46,8.4c0.4,0,0.7-0.1,1-0.1c-2.6,0.3-5.3,1-7.7,2c0.2-0.1,0.5-0.2,0.7-0.3
				c-0.3,0.1-0.6,0.2-0.9,0.4c-2.2,1-4.2,2.2-6.1,3.7c0.2-0.2,0.5-0.4,0.7-0.6c-2.1,1.6-4,3.5-5.6,5.6c0.2-0.2,0.4-0.5,0.6-0.7
				c-1.5,2-2.7,4-3.7,6.2c0,0,0,0,0,0c-0.1,0.3-0.2,0.5-0.4,0.8c0.1-0.1,0.1-0.2,0.2-0.3c-0.9,2.3-1.5,4.8-1.9,7.3
				c0-0.4,0.1-0.7,0.1-1c-0.4,2.7-0.4,5.5,0,8.3c0-0.4-0.1-0.7-0.1-1c0.3,2.6,1,5.3,2,7.7c-0.1-0.2-0.2-0.5-0.3-0.7
				c0.1,0.3,0.2,0.6,0.4,0.9c1,2.2,2.2,4.2,3.7,6.1c-0.2-0.2-0.4-0.5-0.6-0.7c1.6,2.1,3.5,4,5.6,5.6c-0.2-0.2-0.5-0.4-0.7-0.6
				c2,1.5,4,2.7,6.2,3.7c0,0,0,0,0,0c0.3,0.1,0.5,0.2,0.8,0.4c-0.1-0.1-0.2-0.1-0.3-0.2c2.3,0.9,4.8,1.5,7.3,1.9
				c-0.4,0-0.7-0.1-1-0.1c2.7,0.4,5.5,0.4,8.3,0c-0.4,0-0.7,0.1-1,0.1c2.6-0.3,5.3-1,7.7-2c-0.2,0.1-0.5,0.2-0.7,0.3
				c0.3-0.1,0.6-0.2,0.9-0.4c2.2-1,4.2-2.2,6.1-3.7c-0.2,0.2-0.5,0.4-0.7,0.6c2.1-1.6,4-3.5,5.6-5.6c-0.2,0.2-0.4,0.5-0.6,0.7
				c1.5-1.9,2.7-4,3.7-6.1c0,0,0,0,0-0.1c0,0,0,0,0,0c0.1-0.3,0.2-0.5,0.4-0.8c-0.1,0.1-0.1,0.2-0.2,0.3c0.9-2.3,1.5-4.8,1.9-7.3
				c0,0.4-0.1,0.7-0.1,1c0.2-1.4,0.3-2.8,0.3-4.2c0,0.9,0.4,1.9,1,2.5s1.6,1.1,2.5,1c0.9,0,1.9-0.3,2.5-1s1.1-1.6,1-2.5
				C84.6,35.2,84.6,34.9,84.6,34.5z"/>
			<path class="st0" d="M84.6,35.5c0.1,0.9-0.4,1.8-1,2.5s-1.6,1-2.5,1c-0.9,0.1-1.9-0.4-2.5-1s-1-1.6-1-2.5s0.4-1.8,1.1-2.6
				c0.6-0.7,1.6-1,2.5-1c0.9-0.1,1.9,0.4,2.5,1c0.4,0.4,0.7,1,0.9,1.6C84.6,34.9,84.6,35.2,84.6,35.5z"/>
			<path class="st1" d="M77.3,31.4c0.2,1.4,0.3,2.7,0.3,4.1s-0.1,2.8-0.3,4.2c0-0.3,0.1-0.6,0.1-1c-0.4,2.5-1,5-1.9,7.3
				c-0.1,0.1-0.1,0.2-0.1,0.3c0,0,0,0.1,0,0.1c0,0,0,0,0,0c0,0,0,0.1,0,0.1c-1,2.2-2.2,4.2-3.7,6.1c0.2-0.2,0.4-0.5,0.6-0.7
				c-1.6,2.1-3.5,4-5.6,5.6c0.2-0.2,0.5-0.4,0.7-0.6c-1.9,1.5-3.9,2.7-6.1,3.7c0,0-0.1,0-0.2,0.1c-2.5,1.1-5.1,1.8-7.7,2
				c0.3,0,0.6-0.1,1-0.1c-2.8,0.4-5.6,0.4-8.3,0c0.3,0,0.6,0.1,1,0.1c-2.5-0.4-5-1-7.3-1.9c-0.1,0-0.2-0.1-0.3-0.1c0,0-0.1,0-0.1,0
				c0,0,0,0,0,0C37,59.7,35,58.5,33,57c0.2,0.2,0.5,0.4,0.7,0.6c-2.1-1.6-4-3.5-5.6-5.6c0.2,0.2,0.4,0.5,0.6,0.7
				c-1.5-1.9-2.7-3.9-3.7-6.1c0,0,0-0.1-0.1-0.2c-1.1-2.4-1.8-5.1-2-7.7c0,0.3,0.1,0.6,0.1,1c-0.4-2.8-0.4-5.6,0-8.3
				c0,0.3-0.1,0.6-0.1,1c0.4-2.5,1-5,1.9-7.3c0-0.1,0.1-0.2,0.1-0.3c0,0,0-0.1,0-0.1c0,0,0,0,0,0c1-2.2,2.2-4.2,3.7-6.2
				c-0.2,0.2-0.4,0.5-0.6,0.7c1.6-2.1,3.5-4,5.6-5.6c-0.2,0.2-0.5,0.4-0.7,0.6c1.8-1.5,3.9-2.7,6.1-3.7c0.1,0,0.1,0,0.2-0.1
				c2.5-1.1,5.1-1.8,7.7-2c-0.3,0-0.6,0.1-1,0.1c2.8-0.4,5.6-0.4,8.3,0c-0.3,0-0.6-0.1-1-0.1c2.5,0.4,5,1,7.3,1.9
				c0.1,0.1,0.2,0.1,0.3,0.1c0,0,0.1,0,0.1,0.1c0,0,0,0,0,0c2.2,1,4.2,2.2,6.2,3.7c-0.2-0.2-0.5-0.4-0.7-0.6c2.1,1.6,4,3.5,5.6,5.6
				c-0.2-0.2-0.4-0.5-0.6-0.7c1.5,1.9,2.7,3.9,3.7,6.1c0,0,0,0.1,0.1,0.2c1.1,2.5,1.8,5.1,2,7.7C77.4,32.1,77.3,31.8,77.3,31.4z"/>
			<path class="st0" d="M75.7,25.4c-0.1-0.2-0.2-0.5-0.3-0.7c0-0.1,0-0.1-0.1-0.2C75.5,24.8,75.6,25.1,75.7,25.4z"/>
			<path class="st0" d="M75.5,46c0,0.1-0.1,0.2-0.1,0.3C75.4,46.3,75.5,46.2,75.5,46z"/>
			<path class="st0" d="M61,60.8c0,0,0.1,0,0.2-0.1c-0.3,0.2-0.6,0.3-0.9,0.4C60.5,61,60.8,60.9,61,60.8z"/>
			<path class="st0" d="M60.6,10.2c0.1,0,0.2,0.1,0.3,0.1C60.9,10.3,60.8,10.2,60.6,10.2z"/>
			<path class="st0" d="M40,10c-0.2,0.1-0.5,0.2-0.7,0.3c-0.1,0-0.1,0-0.2,0.1C39.4,10.2,39.7,10.1,40,10z"/>
			<path class="st0" d="M39.7,60.9c-0.1,0-0.2-0.1-0.3-0.1C39.4,60.8,39.5,60.9,39.7,60.9z"/>
			<path class="st0" d="M24.9,46.4c0,0.1,0,0.1,0.1,0.2c-0.2-0.3-0.3-0.6-0.4-0.9C24.7,46,24.8,46.2,24.9,46.4z"/>
			<path class="st0" d="M24.8,25.1c0-0.1,0.1-0.2,0.1-0.3C24.9,24.8,24.8,25,24.8,25.1z"/>
		</g>
		<g>
		</g>
	</g>
</g>
<g>
	<g>
		<path class="st0" d="M63.7,22.4c-0.7,0.7-1.4,1.4-2.1,2.1c-1.7,1.7-3.4,3.4-5.1,5.1c-2,2-4.1,4.1-6.1,6.1
			c-1.8,1.8-3.5,3.5-5.3,5.3c-0.8,0.8-1.7,1.7-2.5,2.5l-0.1,0.1c0.2-0.2,0.5-0.4,0.7-0.6c-0.1,0-0.1,0.1-0.2,0.1
			c0.3-0.1,0.6-0.2,0.9-0.4c-0.1,0-0.1,0-0.2,0.1c0.3,0,0.6-0.1,1-0.1c-0.1,0-0.1,0-0.2,0c0.3,0,0.6,0.1,1,0.1c-0.1,0-0.1,0-0.2-0.1
			c0.3,0.1,0.6,0.2,0.9,0.4c-0.1,0-0.1-0.1-0.2-0.1c0.2,0.2,0.5,0.4,0.7,0.6c-0.4-0.3-0.7-0.7-1.1-1.1c-0.8-0.8-1.6-1.6-2.5-2.5
			c-1.9-1.9-3.7-3.7-5.5-5.5c-0.4-0.4-0.9-0.9-1.3-1.3c-0.7-0.7-1.6-1-2.5-1s-1.9,0.4-2.5,1c-0.6,0.7-1.1,1.6-1,2.5
			c0,1,0.4,1.8,1,2.5c2.3,2.3,4.5,4.5,6.8,6.8c1.1,1.1,2.2,2.2,3.3,3.3c0.1,0.1,0.2,0.2,0.2,0.2c1.7,1.7,4.4,1.7,6.1,0
			c0.1-0.1,0.2-0.2,0.3-0.3c2.1-2.1,4.2-4.2,6.2-6.2c3-3,6.1-6.1,9.1-9.1c1.8-1.8,3.6-3.6,5.4-5.4l0.1-0.1c0.7-0.7,1-1.6,1-2.5
			s-0.4-1.9-1-2.5c-0.7-0.6-1.6-1.1-2.5-1C65.3,21.4,64.4,21.7,63.7,22.4L63.7,22.4z"/>
	</g>
</g>
</svg>
