<svg xmlns="http://www.w3.org/2000/svg" xmlns:xlink="http://www.w3.org/1999/xlink" version="1.1" x="0px" y="0px" viewBox="0 0 1024 1280" style="enable-background:new 0 0 1024 1024;" xml:space="preserve"><g><g><path d="M703.6,327.6c-9.8,9.8-19.6,19.6-29.5,29.5c-23.6,23.6-47.1,47.1-70.7,70.7    c-28.4,28.4-56.7,56.7-85.1,85.1c-24.6,24.6-49.2,49.2-73.7,73.7c-11.8,11.8-23.4,24-35.5,35.5c-0.5,0.5-1,0.9-1.5,1.4    c3.4-2.6,6.7-5.2,10.1-7.8c-0.8,0.6-1.6,1-2.4,1.4c4-1.7,8-3.4,11.9-5c-0.9,0.3-1.7,0.6-2.7,0.7c4.4-0.6,8.9-1.2,13.3-1.8    c-0.9,0.1-1.8,0.1-2.7,0c4.4,0.6,8.9,1.2,13.3,1.8c-0.9-0.1-1.8-0.3-2.7-0.7c4,1.7,8,3.4,11.9,5c-0.9-0.4-1.7-0.8-2.4-1.4    c3.4,2.6,6.7,5.2,10.1,7.8c-5.3-4.6-10.1-10-15.1-14.9c-11.5-11.5-22.9-22.9-34.4-34.4c-25.9-25.9-51.7-51.7-77.6-77.6    c-6-6-11.9-11.9-17.9-17.9c-9.1-9.1-22.5-14.6-35.4-14.6c-12.3,0-26.9,5.4-35.4,14.6c-8.7,9.5-15.2,22-14.6,35.4    c0.6,13.3,5.1,25.8,14.6,35.4c31.6,31.6,63.2,63.2,94.9,94.9c15.2,15.2,30.5,30.5,45.7,45.7c1.1,1.1,2.1,2.2,3.2,3.2    c24.1,23.2,61.8,23.3,85.9,0.1c1.6-1.5,3.2-3.2,4.7-4.7c29-29,58.1-58.1,87.1-87.1c42.4-42.4,84.7-84.7,127.1-127.1    c25-25,50.1-49.7,74.9-74.9c0.4-0.4,0.8-0.8,1.2-1.2c9.1-9.1,14.6-22.5,14.6-35.4c0-12.3-5.4-26.9-14.6-35.4    c-9.5-8.7-22-15.2-35.4-14.6C725.7,313.5,713.2,318,703.6,327.6L703.6,327.6z"/></g></g><g><g><path d="M898,512c0,19.5-1.3,39-3.9,58.4c0.6-4.4,1.2-8.9,1.8-13.3c-5.1,38-15.2,75.1-30,110.4c1.7-4,3.4-8,5-11.9    c-14.7,34.9-33.9,67.7-57,97.7c2.6-3.4,5.2-6.7,7.8-10.1c-22.8,29.4-49.2,55.8-78.6,78.6c3.4-2.6,6.7-5.2,10.1-7.8    c-30,23.1-62.8,42.3-97.7,57c4-1.7,8-3.4,11.9-5c-35.3,14.8-72.5,24.9-110.4,30c4.4-0.6,8.9-1.2,13.3-1.8    c-38.7,5.1-78,5.1-116.7,0c4.4,0.6,8.9,1.2,13.3,1.8c-38-5.1-75.1-15.2-110.4-30c4,1.7,8,3.4,11.9,5c-34.9-14.7-67.7-33.9-97.7-57    c3.4,2.6,6.7,5.2,10.1,7.8c-29.4-22.8-55.8-49.2-78.6-78.6c2.6,3.4,5.2,6.7,7.8,10.1c-23.1-30-42.3-62.8-57-97.7    c1.7,4,3.4,8,5,11.9c-14.8-35.3-24.9-72.5-30-110.4c0.6,4.4,1.2,8.9,1.8,13.3c-5.1-38.7-5.1-78,0-116.7c-0.6,4.4-1.2,8.9-1.8,13.3    c5.1-38,15.2-75.1,30-110.4c-1.7,4-3.4,8-5,11.9c14.7-34.9,33.9-67.7,57-97.7c-2.6,3.4-5.2,6.7-7.8,10.1    c22.8-29.4,49.2-55.8,78.6-78.6c-3.4,2.6-6.7,5.2-10.1,7.8c30-23.1,62.8-42.3,97.7-57c-4,1.7-8,3.4-11.9,5    c35.3-14.8,72.5-24.9,110.4-30c-4.4,0.6-8.9,1.2-13.3,1.8c38.7-5.1,78-5.1,116.7,0c-4.4-0.6-8.9-1.2-13.3-1.8    c38,5.1,75.1,15.2,110.4,30c-4-1.7-8-3.4-11.9-5c34.9,14.7,67.7,33.9,97.7,57c-3.4-2.6-6.7-5.2-10.1-7.8    c29.4,22.8,55.8,49.2,78.6,78.6c-2.6-3.4-5.2-6.7-7.8-10.1c23.1,30,42.3,62.8,57,97.7c-1.7-4-3.4-8-5-11.9    c14.8,35.3,24.9,72.5,30,110.4c-0.6-4.4-1.2-8.9-1.8-13.3C896.7,473,898,492.5,898,512c0,12.8,5.6,26.3,14.6,35.4    c8.7,8.7,22.9,15.2,35.4,14.6c12.9-0.6,26.3-4.8,35.4-14.6c9-9.8,14.7-21.8,14.6-35.4c-0.1-50-7.6-100.8-23.1-148.3    c-15-46-36.4-90.3-64.5-129.7c-15-21.1-31.3-41.4-49.3-60c-18.1-18.7-37.8-35.2-58.5-51C764.2,93.4,721,71.1,675.5,54.3    c-46.8-17.2-96.9-26.1-146.6-28c-49.9-1.9-101,4.3-149.1,17.9c-46.5,13.2-91.9,33.5-132.3,60.1c-40,26.3-76.9,58.1-107.4,95.1    c-16.5,20-32,40.9-45.3,63.2c-13.5,22.5-24.5,46.2-34.4,70.4c-18.9,46.1-29.2,95.1-33.1,144.7c-3.9,50.3,0.9,101.8,12.8,150.9    c11.4,47.1,30.6,93.2,55.8,134.6c24.8,40.8,55.8,78.8,91.6,110.5c36,31.9,76.3,59.4,120.2,79.2c24.1,10.9,48.7,20.5,74.1,27.6    c26,7.2,52.6,11.6,79.4,14.7c50.3,5.8,101.3,2.5,150.8-7.5c47.7-9.6,94.4-27.5,136.9-51.1c41.8-23.2,80.6-53.3,113.6-87.8    c33.1-34.6,61.8-74.4,83.2-117.3c21.9-44,38-90.9,45.5-139.5c4.1-26.5,6.8-53,6.8-79.8c0-12.8-5.6-26.3-14.6-35.4    c-8.7-8.7-22.9-15.2-35.4-14.6c-12.9,0.6-26.3,4.8-35.4,14.6C903.7,486.4,898,498.4,898,512z"/></g></g><text x="0" y="1039" fill="#000000" font-size="5px" font-weight="bold" font-family="'Helvetica Neue', Helvetica, Arial-Unicode, Arial, Sans-serif">Created by shashank singh</text><text x="0" y="1044" fill="#000000" font-size="5px" font-weight="bold" font-family="'Helvetica Neue', Helvetica, Arial-Unicode, Arial, Sans-serif">from the Noun Project</text></svg>