<svg version="1.1" id="Layer_1" xmlns="http://www.w3.org/2000/svg" x="0px" y="0px" viewBox="0 0 100 98.2" xml:space="preserve">
  <g id="XMLID_1_">
    <circle fill="#fa8334" cx="15.4" cy="15.2" r="3.3"/>
    <circle fill="#fa8334" cx="15.4" cy="50.1" r="3.3"/>
    <path fill="#fa8334" d="M15.4,81.5c1.8,0,3.3,1.5,3.3,3.3c0,1.8-1.5,3.3-3.3,3.3s-3.3-1.5-3.3-3.3C12.1,82.9,13.6,81.5,15.4,81.5z"/>
    <circle fill="#fa8334" cx="84.9" cy="84.8" r="3.3"/>
    <ellipse fill="#fa8334" cx="84.9" cy="50.1" rx="3.3" ry="3.3"/>
    <ellipse fill="#fa8334" cx="84.9" cy="15.2" rx="3.3" ry="3.3"/>
    <path fill="#16324f" d="M84.9,10c2.9,0,5.3,2.4,5.3,5.3c0,2.9-2.4,5.3-5.3,5.3c-2.6,0-4.7-1.9-5.2-4.3H68.8l-7.9,9.3 c9.1,4,15.5,13,15.9,23.5h2.9c0.5-2.4,2.6-4.2,5.2-4.2c2.9,0,5.3,2.4,5.3,5.3c0,2.9-2.4,5.3-5.3,5.3c-2.6,0-4.8-1.9-5.2-4.4h-2.9 c-0.4,10.5-6.9,19.5-16.1,23.4l7.9,9.4h11.1c0.5-2.4,2.6-4.3,5.2-4.3c2.9,0,5.3,2.4,5.3,5.3c0,2.9-2.4,5.3-5.3,5.3 c-2.6,0-4.7-1.8-5.2-4.3H68.1c-0.3,0-0.6-0.1-0.8-0.3l-8.7-10.2c-2.7,0.9-5.6,1.4-8.5,1.4s-5.8-0.5-8.5-1.4l-8.7,10.2 c-0.2,0.2-0.5,0.3-0.8,0.3H20.6C20.1,88.2,18,90,15.4,90c-2.9,0-5.3-2.4-5.3-5.3c0-2.9,2.4-5.3,5.3-5.3c2.6,0,4.7,1.8,5.2,4.3 h11.1l7.9-9.3c-9.2-4-15.7-12.9-16.1-23.4h-2.9c-0.4,2.5-2.6,4.4-5.2,4.4c-2.9,0-5.3-2.4-5.3-5.3c0-2.9,2.4-5.3,5.3-5.3 c2.5,0,4.6,1.8,5.2,4.2h2.9c0.4-10.5,6.8-19.4,15.9-23.4l-7.9-9.3H20.6c-0.5,2.4-2.6,4.3-5.2,4.3c-2.9,0-5.3-2.4-5.3-5.3 c0-2.9,2.4-5.3,5.3-5.3c2.6,0,4.7,1.8,5.2,4.3H32c0.3,0,0.6,0.1,0.8,0.4l8.6,10.1c2.8-1,5.7-1.5,8.8-1.5c3.1,0,6.1,0.5,8.8,1.5 l8.6-10.1c0.2-0.2,0.5-0.4,0.8-0.4h11.4C80.2,11.8,82.3,10,84.9,10z M88.1,15.2c0-1.8-1.5-3.3-3.3-3.3s-3.3,1.5-3.3,3.3 s1.5,3.3,3.3,3.3S88.1,17,88.1,15.2z M88.1,50.1c0-1.8-1.5-3.3-3.3-3.3s-3.3,1.5-3.3,3.3c0,1.8,1.5,3.3,3.3,3.3 S88.1,51.9,88.1,50.1z M88.1,84.8c0-1.8-1.5-3.3-3.3-3.3s-3.3,1.5-3.3,3.3s1.5,3.3,3.3,3.3S88.1,86.6,88.1,84.8z M74.8,49.9 c0-13.6-11.1-24.7-24.7-24.7c-13.6,0-24.6,11.1-24.6,24.7c0,13.6,11.1,24.7,24.6,24.7C63.7,74.6,74.8,63.5,74.8,49.9z M18.7,15.2 c0-1.8-1.5-3.3-3.3-3.3s-3.3,1.5-3.3,3.3s1.5,3.3,3.3,3.3S18.7,17,18.7,15.2z M18.7,50.1c0-1.8-1.5-3.3-3.3-3.3s-3.3,1.5-3.3,3.3 c0,1.8,1.5,3.3,3.3,3.3S18.7,51.9,18.7,50.1z M18.7,84.8c0-1.8-1.5-3.3-3.3-3.3s-3.3,1.5-3.3,3.3c0,1.8,1.5,3.3,3.3,3.3 S18.7,86.6,18.7,84.8z" />
    <path fill="#dde589" d="M50.1,25.2c13.6,0,24.7,11.1,24.7,24.7c0,13.6-11.1,24.7-24.7,24.7c-13.6,0-24.6-11.1-24.6-24.7 C25.5,36.3,36.5,25.2,50.1,25.2z" />
  </g>
  <path fill="#639e8f" d="M53.4,35.2h-6.8c-0.6,0-1,0.4-1,1s0.4,1,1,1h6.8c0.6,0,1-0.4,1-1S54,35.2,53.4,35.2z"/>
  <path fill="#639e8f" d="M60.7,67.4c0.2,0.2,0.5,0.4,0.8,0.4c0.2,0,0.4-0.1,0.6-0.2c0.4-0.3,0.5-1,0.2-1.4l-2.1-2.7h0.3c0,0,0.1,0,0.2,0	c0.5,0,1.9-0.1,2.9-1.1c0.5-0.5,1.1-1.3,1.1-2.7l0-21.5c0-0.2,0.1-2-1.6-3.9c-2.3-2.5-6.7-3.8-13-3.8c-6.3,0-10.7,1.3-13,3.8	c-1.7,1.8-1.6,3.7-1.6,3.8v22.2c0,1.7,1.4,3.1,3.1,3.1h1.3l-2.1,2.7c-0.3,0.4-0.3,1.1,0.2,1.4c0.2,0.1,0.4,0.2,0.6,0.2	c0.3,0,0.6-0.1,0.8-0.4l0.7-0.8h20L60.7,67.4z M41.6,64.6l0.8-1.1l15.2,0l0.8,1.1L41.6,64.6L41.6,64.6z"/>
  <g id="XMLID_4_">
    <path fill="#7cc9b6" d="M62.6,59.8L62.6,59.8c0,0.5-0.1,0.9-0.4,1.2c-0.5,0.5-1.4,0.5-1.7,0.5H38.5c-0.6,0-1.1-0.5-1.1-1.1v-8.2h25.2 V59.8z"/>
  </g>
  <g id="XMLID_3_">
    <path fill="#7cc9b6" d="M62.6,38.2v1.1H37.4v-1.2c0,0,0-1.1,1.1-2.3c1.3-1.4,4.4-3.1,11.5-3.1c7,0,10.1,1.7,11.5,3.1 C62.6,36.9,62.6,38.1,62.6,38.2z"/>
  </g>
  <g id="XMLID_2_">
    <path fill="#fff" d="M37.4 41.3H62.599999999999994V50.199999999999996H37.4z"/>
  </g>
  <path fill="#fff" d="M41.8 53.9c-1.7 0-3 1.4-3 3s1.4 3 3 3 3-1.4 3-3S43.4 53.9 41.8 53.9zM41.8 58c-.6 0-1-.5-1-1s.5-1 1-1 1 .5 1 1S42.3 58 41.8 58zM58.2 53.9c-1.7 0-3 1.4-3 3s1.4 3 3 3 3-1.4 3-3S59.9 53.9 58.2 53.9zM58.2 58c-.6 0-1-.5-1-1s.5-1 1-1 1 .5 1 1S58.8 58 58.2 58z"/>
</svg>
