<?xml version="1.0" encoding="utf-8"?>
<!-- Generator: Adobe Illustrator 19.2.1, SVG Export Plug-In . SVG Version: 6.00 Build 0)  -->
<svg version="1.1" id="Layer_1" xmlns="http://www.w3.org/2000/svg" xmlns:xlink="http://www.w3.org/1999/xlink" x="0px" y="0px"
	 viewBox="0 0 100 125" style="enable-background:new 0 0 100 125;" xml:space="preserve">
<style type="text/css">
	.st0{fill:#F4F4F4;}
	.st1{fill:#F98C43;}
</style>
<title>대지 33</title>
<path class="st0" d="M44.9,34.1c0-2.7-2.2-4.9-4.9-4.9c-2.7,0-4.9,2.2-4.9,4.9c0,2.7,2.2,4.9,4.9,4.9c0,0,0,0,0,0
	C42.7,39,44.9,36.8,44.9,34.1z M40,36.5c-1.3,0-2.4-1.1-2.4-2.4c0-1.3,1.1-2.4,2.4-2.4s2.4,1.1,2.4,2.4c0,0,0,0,0,0
	C42.4,35.4,41.3,36.5,40,36.5z"/>
<path class="st0" d="M60,29.2c-2.7,0-4.9,2.3-4.9,5s2.3,4.9,5,4.9c2.7,0,4.9-2.2,4.9-4.9C65,31.4,62.8,29.2,60,29.2
	C60,29.2,60,29.2,60,29.2z M60,36.5c-1.3,0-2.4-1.1-2.4-2.4s1.1-2.4,2.4-2.4s2.4,1.1,2.4,2.4C62.4,35.4,61.4,36.5,60,36.5
	C60,36.5,60,36.5,60,36.5z"/>
<path class="st0" d="M51.4,41.5h-3.8c-0.2,0-0.3,0.6-0.3,1.2s0.1,1.2,0.3,1.2h3.8c0.2,0,0.3-0.6,0.3-1.2S51.6,41.5,51.4,41.5z"/>
<path class="st0" d="M77.5,66c0.1-5.1-3-9.7-7.8-11.5v-0.1c0-1.9-1.5-3.4-3.3-3.4c0,0,0,0,0,0h-9.7v-0.9h9.7c1.9,0,3.4-1.5,3.4-3.4
	l0,0v-3.6h1.4c1.2,0,2.1-0.9,2.1-2.1v-8.3c0-1.2-0.9-2.1-2.1-2.1h-1.4v-4c0-1.9-1.5-3.4-3.4-3.4l0,0H54.1l-1-5.9
	c1.3-1.7,1-4.1-0.7-5.4c-1.7-1.3-4.1-1-5.4,0.7c-1.1,1.4-1.1,3.3,0,4.7l-1,5.9H33.7c-1.9,0-3.4,1.5-3.4,3.4v4h-1.4
	c-1.2,0-2.1,0.9-2.1,2.1V41c0,1.2,0.9,2.1,2.1,2.1h1.4v3.6c0,1.9,1.5,3.4,3.4,3.4h9.7V51h-9.7c-1.9,0-3.4,1.5-3.4,3.4c0,0,0,0,0,0
	v0.2c-4.8,1.8-7.9,6.4-7.8,11.4c-1.3,1.5-1.1,3.8,0.4,5.1c0.7,0.6,1.5,0.9,2.3,0.9c0.7,0,1.2-0.6,1.2-1.2s-0.6-1.2-1.2-1.2
	c-0.6,0-1.2-0.5-1.2-1.2c0-0.6,0.5-1.2,1.2-1.2c0.6,0,1.2,0.5,1.2,1.2c0,0.7,0.6,1.2,1.2,1.2S29,69,29,68.3c0-0.7-0.2-1.4-0.6-2
	c0.4-1.4,1-2.7,1.9-3.7v11.9c0,1.9,1.5,3.4,3.4,3.4l0,0h3.3v5.6c-1.1,1-1.8,2.5-1.8,4.1c0,0.7,0.6,1.2,1.2,1.2h8.5
	c0.7,0,1.2-0.6,1.2-1.2c0-1.5-0.7-3-1.8-4.1v-5.6h11.5v5.6c-1.1,1-1.8,2.5-1.8,4.1c0,0.7,0.6,1.2,1.2,1.2h8.5c0.7,0,1.2-0.6,1.2-1.2
	c0-1.5-0.7-3-1.8-4.1v-5.6h3c1.9,0,3.4-1.5,3.4-3.4c0,0,0,0,0,0V62.6c0.9,1.1,1.6,2.4,1.9,3.8c-0.4,0.6-0.6,1.3-0.6,2
	c0,0.7,0.6,1.2,1.2,1.2s1.2-0.6,1.2-1.2c0-0.7,0.5-1.2,1.2-1.2s1.2,0.5,1.2,1.2s-0.5,1.2-1.2,1.2c0,0,0,0,0,0
	c-0.7,0-1.2,0.6-1.2,1.2s0.6,1.2,1.2,1.2c2,0,3.6-1.6,3.6-3.7C78.4,67.5,78.1,66.7,77.5,66L77.5,66z M72,61.5l0.8-1.7
	c0.4,0.5,0.7,1.1,1,1.6l-1.3,0.9C72.4,62,72.2,61.7,72,61.5z M71,58l-0.8,1.6c-0.2-0.1-0.3-0.3-0.5-0.4v-2
	C70.2,57.5,70.6,57.7,71,58z M70.8,33.2v7.5h-1v-7.5L70.8,33.2z M50,13.7c0.7,0,1.3,0.6,1.3,1.3c0,0.7-0.6,1.3-1.3,1.3
	c-0.7,0-1.3-0.6-1.3-1.3c0,0,0,0,0,0C48.7,14.3,49.3,13.7,50,13.7z M49.3,18.8c0.5,0.1,1,0.1,1.5,0l0.8,4.5h-3.1L49.3,18.8z
	 M29.3,40.6v-7.5h1v7.5H29.3z M32.8,46.7V26.6c0-0.5,0.4-0.9,0.9-0.9h32.7c0.5,0,0.9,0.4,0.9,0.9c0,0,0,0,0,0v20.1
	c0,0.5-0.4,0.9-0.9,0.9l0,0H33.7C33.2,47.6,32.8,47.2,32.8,46.7z M45.9,50.1h8.2V51h-8.2L45.9,50.1z M30.3,59.2
	c-0.2,0.1-0.3,0.2-0.5,0.4L29.1,58c0.4-0.3,0.8-0.5,1.2-0.7V59.2z M27.1,59.8l0.9,1.7c-0.2,0.2-0.4,0.5-0.5,0.8l-1.3-0.9
	C26.4,60.8,26.8,60.3,27.1,59.8z M25.1,64.7c0-0.3,0.1-0.6,0.1-0.9l1.1,0.7c0,0.1-0.1,0.2-0.1,0.3c-0.3-0.1-0.6-0.1-0.9-0.1
	L25.1,64.7z M37.9,86.3c0.7-1.5,2.4-2.2,3.9-1.6c0.7,0.3,1.2,0.9,1.6,1.6H37.9z M40.7,82.1c-0.4,0-0.8,0-1.2,0.1v-1h2.5v1
	C41.5,82.1,41.1,82,40.7,82.1L40.7,82.1z M41.9,78.7h-2.5v-0.8h2.5L41.9,78.7z M56.9,86.3c0.7-1.5,2.4-2.2,3.9-1.6
	c0.7,0.3,1.2,0.9,1.6,1.6H56.9z M59.7,82.1c-0.4,0-0.8,0-1.2,0.1v-1h2.5v1C60.5,82.1,60.1,82,59.7,82.1L59.7,82.1z M60.9,78.7h-2.5
	v-0.8h2.5L60.9,78.7z M67.2,74.5c0,0.5-0.4,0.9-0.9,0.9H33.7c-0.5,0-0.9-0.4-0.9-0.9V54.4c0-0.5,0.4-0.9,0.9-0.9h32.7
	c0.5,0,0.9,0.4,0.9,0.9l0,0L67.2,74.5z M73.8,64.8c0-0.1-0.1-0.2-0.1-0.3l1.1-0.7c0.1,0.3,0.1,0.6,0.2,0.9h-0.2
	C74.4,64.7,74.1,64.7,73.8,64.8L73.8,64.8z"/>
<path class="st1" d="M53.4,58.7c-0.9-0.3-1.9-0.1-2.7,0.3c-0.3,0.2-0.5,0.3-0.7,0.5c-0.2-0.2-0.5-0.4-0.7-0.5
	c-0.8-0.5-1.8-0.6-2.7-0.3c-1.1,0.3-2,1.2-2.4,2.2c-0.4,1-0.4,2.1,0,3.2c1.2,3.7,5.2,5.1,5.4,5.1c0.3,0.1,0.5,0.1,0.8,0
	c0.2,0,4.2-1.4,5.4-5.1c0.4-1,0.4-2.1,0-3.2C55.4,59.9,54.5,59.1,53.4,58.7z M53.4,63.3c-0.6,1.5-1.9,2.8-3.4,3.4
	c-1.5-0.6-2.8-1.8-3.4-3.4c-0.2-0.5-0.2-1,0-1.4c0.2-0.4,0.5-0.7,0.9-0.8h0.1c0.2,0,0.3,0.1,0.5,0.2c0.4,0.2,0.7,0.6,0.8,1.1
	c0.1,0.7,0.8,1.1,1.5,1c0.5-0.1,0.9-0.5,1-1c0.1-0.5,0.4-0.8,0.7-1.1c0.2-0.1,0.4-0.2,0.6-0.1c0.4,0.1,0.7,0.4,0.9,0.8
	C53.6,62.3,53.6,62.8,53.4,63.3z"/>
</svg>
