<?xml version="1.0" encoding="utf-8"?>
<!-- Generator: Adobe Illustrator 19.2.1, SVG Export Plug-In . SVG Version: 6.00 Build 0)  -->
<svg version="1.1" id="Layer_1" xmlns="http://www.w3.org/2000/svg" xmlns:xlink="http://www.w3.org/1999/xlink" x="0px" y="0px"
	 viewBox="0 0 52 65" style="enable-background:new 0 0 52 65;" xml:space="preserve">
<g>
	<g id="XMLID_1_">
		<g>
			<path d="M17,27L17,27C17,27,17,27,17,27z"/>
			<path fill="#FFD6A9" d="M47.9,13.6c1.2-1.9,0.6-4.5-1.3-5.7c-2-1.2-4.5-0.6-5.8,1.3c-1.2,2-0.6,4.5,1.3,5.8
				C43.9,16.1,46.6,15.7,47.9,13.6z M37,42.1c-1.2,1.9-0.7,4.5,1.3,5.8c1.9,1.2,4.5,0.6,5.8-1.3c0.9-1.5,0.8-3.4-0.3-4.8l0,0
				C42,39.5,38.6,39.7,37,42.1z M21.7,42.2c2-0.1,2.6-2.2,6.2-3.3c0.8-0.3,1.9-0.5,2.1,0.5l2,8.8c1.1-0.3,2.1-0.6,3.1-1.1
				c0,0,0-0.1-0.1-0.1c-0.9-2-0.8-4.2,0.3-6l0,0c2-3.2,6.4-3.8,9.2-1.5c3.7-5.1,5.2-11.4,4.1-17.6l-7.8,1.7c1.3,3.6,3.9,4,3.2,7.6
				c-0.8,4.1-6.1,5.5-8.7,2.1c-2-2.6-0.4-4.4-0.4-7.4c0-0.3,0-0.6,0-0.9l-7.8,1.7l2,8.9c0.1,0.5-0.2,1.1-0.8,1.2
				c-3.8,0.8-5.9-0.7-7.4-0.4c-1.8,0.4-2.8,2.4-2,4.1c0.5,1,1.5,1.6,2.6,1.6H21.7z M31.4,17.5c-2,0.4-3.8-0.8-6.4-0.5l1.7,7.8l8.9-2
				c0.5-0.1,1.1,0.2,1.2,0.8c1,4.9-1.5,6.4,0.1,8.5c1.5,1.9,4.7,1.3,5.1-1.2c0.5-2.7-2.3-2.7-3.5-7.7c-0.1-0.5,0.2-1.1,0.8-1.2
				l8.8-2c-0.3-1.1-0.6-2.1-1.1-3.1c-1.8,0.9-4.2,0.9-6.1-0.3c-2.9-1.8-3.8-5.6-2-8.5c0.1-0.2,0.3-0.5,0.5-0.7
				c-5-3.7-11.4-5.2-17.6-4.1l1.7,7.8c3.1-1,3.6-3.2,6.5-3.3h0.2c1.8,0,3.6,1.1,4.4,2.7C36.2,13.4,34.5,16.8,31.4,17.5z M3.3,30
				c0.5-0.1,7.4-1.6,7.8-1.7c-1-3-3.2-3.7-3.3-6.4c0,0,0,0,0-0.1c-0.1-2.8,2.1-5.1,4.9-5.1c2.3,0,4.3,1.6,4.8,3.8
				c0.5,2.1-0.8,3.6-0.5,6.4c0,0,0,0,0,0v0c0.5-0.1,7.6-1.7,7.8-1.7l-2-8.9c-0.1-0.3,0-0.5,0.1-0.8c0.1-0.2,0.4-0.4,0.6-0.4
				c3.7-0.7,6,0.7,7.4,0.4c1.8-0.4,2.8-2.4,2-4.1c-0.5-1-1.5-1.6-2.6-1.6h-0.1c-2.1,0.1-2.7,2.5-7.1,3.6c-0.3,0.1-0.5,0-0.8-0.1
				c-0.2-0.1-0.4-0.4-0.5-0.6l-2-8.8c-1.1,0.3-2.1,0.7-3.1,1.1c0.9,1.9,0.9,4.2-0.3,6.1c-1.8,2.9-5.6,3.8-8.5,2
				c-0.2-0.2-0.4-0.3-0.7-0.5C3.7,17.5,2.2,23.8,3.3,30C3.3,30,3.3,30,3.3,30L3.3,30z M4.9,35.1c1-0.5,2.2-0.7,3.4-0.6
				c0,0,0,0,0.1,0c2.7,0.3,4.8,2.1,5.4,4.7c0.4,2-0.1,3.9-1.3,5.3c5,3.7,11.5,5.2,17.6,4.1l-1.7-7.8c-3.1,1.1-3.6,3.2-6.5,3.3h-0.2
				c-1.8,0-3.6-1.1-4.4-2.7c-1.4-2.9,0.3-6.3,3.3-7c2-0.4,3.8,0.8,6.4,0.5l-1.7-7.8l-8.9,2c-0.5,0.1-1.1-0.2-1.2-0.8
				c-0.8-3.9,0.7-5.8,0.4-7.4c-0.3-1.3-1.5-2.3-2.8-2.3c-1.7,0-3,1.4-2.9,3c0.1,2,2.6,2.9,3.6,7.1c0.1,0.5-0.2,1.1-0.8,1.2l-8.9,2
				C4.1,33,4.4,34.1,4.9,35.1z M6.2,4.4c1.9-2.9,5.7-3.7,8.5-2c0.4,0.2,0.7,0.5,1,0.8c8.7-4,18.5-2.4,25.5,2.9
				c1.9-1.2,4.5-1.2,6.5,0c2.9,1.8,3.8,5.6,2,8.5c-0.2,0.4-0.5,0.7-0.8,1c0.7,1.5,1.3,3.2,1.6,4.9v0c1.6,7.2,0,14.7-4.5,20.6
				c1.2,2,1.2,4.5,0,6.5c-1.8,2.9-5.6,3.8-8.5,2c-0.4-0.2-0.7-0.5-1-0.8C32.9,50.3,29.4,51,26,51c-5.4,0-10.8-1.8-15.1-5.2
				c-2.1,1.3-4.6,1.2-6.5,0c-2.9-1.8-3.8-5.6-1.9-8.5c0.2-0.4,0.5-0.7,0.8-1c-3.7-8.1-2.9-17.9,2.9-25.5C4.9,8.9,4.9,6.4,6.2,4.4z
				 M5.4,44.1c3.1,1.9,7.1-0.8,6.3-4.5C10.9,36,6,35.3,4.1,38.3C2.9,40.3,3.5,42.9,5.4,44.1z M7.9,5.4c-1.2,2-0.6,4.5,1.3,5.8
				c1.9,1.2,4.5,0.7,5.8-1.3c1.2-1.9,0.7-4.5-1.3-5.8C11.7,2.9,9.1,3.4,7.9,5.4z"/>
			<path d="M3.3,30L3.3,30C3.3,30,3.3,30,3.3,30z"/>
		</g>
		<g>
		</g>
	</g>
</g>
</svg>
