<?xml version="1.0" encoding="utf-8"?>
<!-- Generator: Adobe Illustrator 19.2.1, SVG Export Plug-In . SVG Version: 6.00 Build 0)  -->
<svg version="1.1"
	 id="Layer_1" xmlns:cc="http://creativecommons.org/ns#" xmlns:dc="http://purl.org/dc/elements/1.1/" xmlns:inkscape="http://www.inkscape.org/namespaces/inkscape" xmlns:rdf="http://www.w3.org/1999/02/22-rdf-syntax-ns#" xmlns:sodipodi="http://sodipodi.sourceforge.net/DTD/sodipodi-0.dtd" xmlns:svg="http://www.w3.org/2000/svg"
	 xmlns="http://www.w3.org/2000/svg" xmlns:xlink="http://www.w3.org/1999/xlink" x="0px" y="0px" viewBox="0 0 100 125"
	 style="enable-background:new 0 0 100 125;" xml:space="preserve">
<style type="text/css">
	.st0{fill:#CCCC99;}
	.st1{fill:#fff;}
	.st2{fill:#FDB98B;}
</style>
<g id="XMLID_1_">
	<g>
		<polygon class="st0" points="39.4,77.7 33.2,78.6 34.1,72.4 		"/>
		<path fill="#226D5B" d="M96.1,28.4c1.2,1.1,1.2,3,0,4.2L46.6,82.3c-0.5,0.4-1.1,0.7-1.7,0.8l-14.8,2.1c-0.2,0-0.5,0-0.8,0
			c-1.7-0.2-2.8-1.8-2.6-3.4l2.1-14.9c0.1-0.7,0.4-1.2,0.8-1.7l49.5-49.5c0.6-0.6,1.3-0.9,2.1-0.9c0.2,0,0.4,0,0.6,0.1
			c0.6,0.1,1.2,0.4,1.6,0.8L96.1,28.4z M88.4,31.9l1.4-1.4L81.3,22l-1.4,1.4L88.4,31.9z M45.2,75.1l38.9-38.9l-8.5-8.5L36.7,66.6
			L45.2,75.1z M33.2,78.6l6.2-0.9l-5.3-5.3L33.2,78.6z"/>
		<rect x="83.9" y="21" transform="matrix(0.7071 -0.7071 0.7071 0.7071 5.7672 67.9032)" class="st1" width="2" height="12"/>
		<rect x="32.9" y="45.4" transform="matrix(0.7071 -0.7071 0.7071 0.7071 -18.6828 57.7757)" class="st2" width="55" height="12"/>
		<path d="M23,81.1c1.1,0,2,0.9,2,2s-0.9,2-2,2H5c-1.1,0-2-0.9-2-2s0.9-2,2-2H23z"/>
	</g>
	<g>
	</g>
</g>
</svg>
