<?xml version="1.0" encoding="utf-8"?>
<!-- Generator: Adobe Illustrator 19.2.1, SVG Export Plug-In . SVG Version: 6.00 Build 0)  -->
<svg version="1.1" id="Layer_1" xmlns="http://www.w3.org/2000/svg" xmlns:xlink="http://www.w3.org/1999/xlink" x="0px" y="0px"
	 viewBox="0 0 100 125" style="enable-background:new 0 0 100 125;" xml:space="preserve">
<g fill="#FEB381">
	<path class="st0" d="M24.4,34.5h51.3c1.1,0,2,0.9,2,2v54.4c0,1.1-0.9,2-2,2H24.4c-1.1,0-2-0.9-2-2V36.6
		C22.4,35.4,23.3,34.5,24.4,34.5z M73.6,38.5H26.4v50.4h47.3L73.6,38.5L73.6,38.5z"/>
	<path class="st0" d="M36.1,45.2c2.8,0,5.1,2.2,5.1,5v27c0,6.5-10.2,6.6-10.2,0v-27C31,47.4,33.3,45.2,36.1,45.2z M36.1,49.2
		c-0.6,0-1.1,0.4-1.1,1v27c0,1.3,2.2,1.3,2.2,0v-27C37.2,49.6,36.7,49.2,36.1,49.2z"/>
	<path class="st0" d="M50,45.2c2.8,0,5.1,2.2,5.1,5v27c0,6.5-10.2,6.6-10.2,0v-27C44.9,47.4,47.2,45.2,50,45.2z M50,49.2
		c-0.6,0-1.1,0.4-1.1,1v27c0,1.3,2.2,1.3,2.2,0v-27C51.1,49.6,50.6,49.2,50,49.2z"/>
	<path class="st0" d="M63.9,45.2c2.8,0,5.1,2.2,5.1,5v27c0,6.5-10.2,6.6-10.2,0v-27C58.8,47.4,61.1,45.2,63.9,45.2z M63.9,49.2
		c-0.6,0-1.1,0.4-1.1,1v27c0,1.3,2.2,1.3,2.2,0v-27C65,49.6,64.5,49.2,63.9,49.2z"/>
	<path class="st0" d="M81.2,32.9H18.7c-1.1,0-2-0.9-2-2v-7.7c0-4.4,3.6-7.9,7.9-7.9h7.8c0-2.6-0.3-4.7,1.8-6.6c1-1,2.5-1.6,4.1-1.6
		h23.2c3.1,0,5.9,2.4,5.9,5.5v2.7h7.8c4.4,0,8,3.6,8,7.9v7.7C83.2,32,82.3,32.9,81.2,32.9z M36.5,15.3h26.9c0-1.9,0.5-4.2-1.9-4.2
		H38.4C36,11.1,36.5,13.4,36.5,15.3z M20.7,28.9h58.5c0-3.3,1-9.6-4-9.6H24.7c-2.2,0-4,1.8-4,3.9V28.9z"/>
</g>
</svg>
