<?xml version="1.0" encoding="utf-8"?>
<!-- Generator: Adobe Illustrator 19.2.1, SVG Export Plug-In . SVG Version: 6.00 Build 0)  -->
<svg version="1.1" id="Layer_1" xmlns="http://www.w3.org/2000/svg" xmlns:xlink="http://www.w3.org/1999/xlink" x="0px" y="0px"
	 viewBox="0 0 100 125" style="enable-background:new 0 0 100 125;" xml:space="preserve">
<g>
	<path d="M5273.1,2400.1v-2c0-2.8-5-4-9.7-4s-9.7,1.3-9.7,4v2c0,1.8,0.7,3.6,2,4.9l5,4.9c0.3,0.3,0.4,0.6,0.4,1v6.4
		c0,0.4,0.2,0.7,0.6,0.8l2.9,0.9c0.5,0.1,1-0.2,1-0.8v-7.2c0-0.4,0.2-0.7,0.4-1l5.1-5C5272.4,2403.7,5273.1,2401.9,5273.1,2400.1z
		 M5263.4,2400c-4.8,0-7.4-1.3-7.5-1.8l0,0c0.1-0.5,2.7-1.8,7.5-1.8s7.3,1.3,7.5,1.8C5270.7,2398.7,5268.2,2400,5263.4,2400z"/>
	<path d="M5268.4,2410.3c-0.6,0-1,0.4-1,1s0.4,1,1,1h4.3c0.6,0,1-0.4,1-1s-0.4-1-1-1H5268.4z"/>
	<path d="M5272.7,2413.7h-4.3c-0.6,0-1,0.4-1,1s0.4,1,1,1h4.3c0.6,0,1-0.4,1-1C5273.7,2414.1,5273.3,2413.7,5272.7,2413.7z"/>
	<path d="M5272.7,2417h-4.3c-0.6,0-1,0.4-1,1s0.4,1,1,1h4.3c0.6,0,1-0.4,1-1C5273.7,2417.5,5273.3,2417,5272.7,2417z"/>
</g>
<g>
	<path d="M38,31.5c4.4,0,8,3.6,8,8s-3.6,8-8,8h-5.8v6.2c0,1.4,1.1,2.5,2.5,2.5h58.9c1.4,0,2.5-1.1,2.5-2.5V15.5
		c0-1.4-1.1-2.5-2.5-2.5H34.7c-1.4,0-2.5,1.1-2.5,2.5V29l2.3,2.5H38z"/>
	<path d="M38,42.5c1.6,0,3-1.3,3-3c0-1.6-1.3-3-3-3h-5.8l-4.7-5.2c-1.4-1.5-3.3-2.4-5.4-2.4h-5.3c-2.4,0-4.6,1.2-6,3.2L3.1,43.4
		c-0.7,1-0.8,2.4-0.1,3.4c0.6,0.9,1.6,1.3,2.5,1.3s1.9-0.4,2.4-1.3l4-5.8v29.8c0,1.5,1,2.9,2.5,3.1c1.9,0.3,3.4-1.1,3.4-2.9V52.6
		h2.9v18.3c0,1.5,1,2.9,2.5,3.1c1.9,0.3,3.4-1.1,3.4-2.9V39.3l2.1,2.3c0.6,0.6,1.4,1,2.2,1L38,42.5L38,42.5z"/>
	<circle cx="19.2" cy="20.7" r="6.6"/>
	<path d="M43.9,74.6h-6.7c-3.7,0-6.6,3-6.6,6.6v4.4c0,0.8,0.7,1.5,1.5,1.5h17c0.8,0,1.5-0.7,1.5-1.5v-4.4
		C50.5,77.5,47.5,74.6,43.9,74.6z"/>
	<circle cx="40.5" cy="67" r="5.6"/>
	<path d="M67.4,74.6h-6.7c-3.7,0-6.6,3-6.6,6.6v4.4c0,0.8,0.7,1.5,1.5,1.5h17c0.8,0,1.5-0.7,1.5-1.5v-4.4C74,77.5,71,74.6,67.4,74.6
		z"/>
	<circle cx="64" cy="67" r="5.6"/>
	<path d="M90.9,74.6h-6.7c-3.7,0-6.6,3-6.6,6.6v4.4c0,0.8,0.7,1.5,1.5,1.5h17c0.8,0,1.5-0.7,1.5-1.5v-4.4
		C97.5,77.5,94.5,74.6,90.9,74.6z"/>
	<circle cx="87.5" cy="67" r="5.6"/>
</g>
</svg>
