<svg version="1.1" id="delete_student" xmlns="http://www.w3.org/2000/svg" x="0" y="0" viewBox="0 0 96 120" xml:space="preserve">
  <style>
    .st0{fill:#16324f}.st1{fill:#1d4060}.st3{fill:#86bdb1}.st4{fill:#4e6c82}.st5{fill:none;stroke:#16324f;stroke-width:3;stroke-miterlimit:10}
  </style>
  <g id="XMLID_1_">
    <path class="st0" d="M90.5 90.5v.8h-85v-.8c0-30.1 22-33.5 30.3-34.8 1.2-.2 2.1-.3 2.5-.5 2.6-.9 3.6-3.8 3.9-5.1-9.2-2.5-16.1-11-16.1-21V17.3c0-6.9 6.4-12.6 14.2-12.6h15c7.8 0 14.2 5.6 14.2 12.6v11.8c0 10-6.8 18.4-16 21 .2.9.8 2.5 1.9 3.7 3.7-3.1 8.4-5 13.7-5 11.7 0 21.2 9.5 21.2 21.2 0 2.8-.6 5.5-1.6 8 1.2 3.5 1.8 7.7 1.8 12.5zm-8.2-.7H89c0-3.6-.4-6.8-1.1-9.6-1.7 3.2-4.3 5.8-7.3 7.8l1.7 1.8zm5.9-14.2c.5-1.8.8-3.6.8-5.6 0-10.9-8.9-19.7-19.7-19.7-4.7 0-9.1 1.7-12.5 4.5-.4.3-.8.7-1.2 1-1.3 1.3-2.4 2.7-3.4 4.3-.7 1.2-1.3 2.5-1.8 3.9-.1.4-.2.8-.3 1.3l-.3 1.5c-.2 1.1-.3 2.2-.3 3.3 0 10.9 8.9 19.7 19.7 19.7 3.2 0 6.2-.8 8.9-2.2.5-.2.9-.5 1.3-.8 3.4-2.1 6.2-5.2 7.8-8.9.4-.7.7-1.5 1-2.3zm-8 14.2l-1-1c-.7.4-1.5.7-2.2 1h3.2zm-12-60.7V17.3c0-6.1-5.7-11.1-12.7-11.1h-15c-7 0-12.7 5-12.7 11.1v11.8c0 11.2 9.1 20.3 20.3 20.3s20.1-9.1 20.1-20.3zM15.8 89.8h45.7C53.6 86.6 48 79 48 70c0-1.3.1-2.6.4-3.8l-.4-.1L34.8 71l-5.3-12.5c-1.7.4-3.5 1-5.4 1.8l1.3 19-9.6 10.5zm38.7-35c-1.3-1.5-2-3.4-2.2-4.4-1.4.3-2.8.4-4.3.4s-2.9-.1-4.2-.4c-.4 1.4-1.3 4.2-3.8 5.7l8.2 8.2 1.2-1.2c.9-3.1 2.7-6 5.1-8.3zM46.6 65l-8.2-8.2c-.6.1-1.4.2-2.4.4-1.3.2-3.1.5-5 .9l4.6 11 11-4.1zM23.9 78.8L22.8 61C15 64.8 7.2 72.7 7 89.8h6.7l10.2-11z"/>
    <path class="st1" d="M89 89.8h-6.7L80.6 88c3-1.9 5.6-4.6 7.3-7.8.6 2.8 1 6 1.1 9.6z"/>
    <path d="M89 70c0 1.9-.3 3.8-.8 5.6-.2.8-.5 1.6-.9 2.3-1.6 3.7-4.4 6.8-7.8 8.9-.4.3-.9.5-1.3.8-2.7 1.4-5.7 2.2-8.9 2.2-10.9 0-19.7-8.8-19.7-19.7 0-1.1.1-2.2.3-3.3l.3-1.5c.1-.4.2-.8.3-1.3.4-1.4 1-2.7 1.8-3.9.9-1.6 2.1-3 3.4-4.3.4-.4.8-.7 1.2-1 3.4-2.8 7.7-4.5 12.5-4.5C80.1 50.3 89 59.2 89 70zm-11.3.8v-1.6H60.8v1.6h16.9z" fill="#dde589"/>
    <path class="st0" d="M77.7 70v.8H60.8v-1.5h16.9z"/>
    <path class="st3" d="M68.2 17.3v11.8c0 11.2-9.1 20.3-20.3 20.3s-20.3-9.1-20.3-20.3V17.3c0-6.1 5.7-11.1 12.7-11.1h15c7.2 0 12.9 5 12.9 11.1z"/>
    <path class="st1" d="M61.5 89.8H15.8l9.7-10.4-1.3-19c1.8-.8 3.7-1.4 5.4-1.8L34.8 71 48 66.1l.4.1c-.2 1.2-.4 2.5-.4 3.8 0 9 5.6 16.6 13.5 19.8z"/>
    <path class="st3" d="M52.3 50.4c.2 1 .9 2.9 2.2 4.4-2.4 2.3-4.2 5.1-5.3 8.3L48 64.3l-8.2-8.2c2.5-1.5 3.5-4.3 3.8-5.7 1.4.3 2.8.4 4.2.4 1.6.1 3.1-.1 4.5-.4z"/>
    <path class="st4" d="M38.4 56.8l8.2 8.2-10.9 4.1-4.6-11c1.9-.5 3.7-.7 5-.9.9-.2 1.7-.3 2.3-.4zM22.8 61L24 78.8l-10.3 11H7c.2-17.1 8-25 15.8-28.8z"/>
    <g>
      <path class="st5" d="M69.3 48.8c-5.2 0-10 1.9-13.7 5-1.1-1.2-1.7-2.8-1.9-3.7 9.2-2.5 16-11 16-21V17.3c0-6.9-6.4-12.6-14.2-12.6h-15c-7.8 0-14.2 5.6-14.2 12.6v11.8c0 10 6.8 18.5 16.1 21-.3 1.3-1.3 4.2-3.9 5.1-.4.2-1.4.3-2.5.5C27.5 57 5.5 60.4 5.5 90.5v.8h84.9v-.8c0-4.8-.6-9-1.6-12.5 1-2.5 1.6-5.1 1.6-8 .1-11.7-9.4-21.2-21.1-21.2z"/>
      <path class="st5" d="M87.3 77.9c-1.6 3.7-4.4 6.8-7.8 8.9-.4.3-.9.5-1.3.8-2.7 1.4-5.7 2.2-8.9 2.2-10.9 0-19.7-8.8-19.7-19.7 0-1.1.1-2.2.3-3.3l.3-1.5c.1-.4.2-.8.3-1.3.4-1.4 1-2.7 1.8-3.9.9-1.6 2.1-3 3.4-4.3.4-.4.8-.7 1.2-1 3.4-2.8 7.7-4.5 12.5-4.5C80.1 50.3 89 59.2 89 70c0 1.9-.3 3.8-.8 5.6-.3.8-.6 1.6-.9 2.3zM27.7 29.1V17.3c0-6.1 5.7-11.1 12.7-11.1h15c7 0 12.7 5 12.7 11.1v11.8c0 11.2-9.1 20.3-20.3 20.3s-20.1-9.1-20.1-20.3zM43.7 50.5c1.4.3 2.8.4 4.2.4 1.5 0 2.9-.1 4.3-.4.2 1 .9 2.9 2.2 4.4-2.4 2.3-4.2 5.1-5.3 8.3L48 64.3l-8.2-8.2c2.6-1.4 3.6-4.3 3.9-5.6zM36 57.2c1-.2 1.8-.3 2.4-.4l8.2 8.2-10.9 4.1-4.6-11c1.9-.4 3.6-.7 4.9-.9zM22.8 61L24 78.8l-10.3 11H7c.2-17.1 8-25 15.8-28.8z"/>
      <path class="st5" d="M15.8 89.8l9.7-10.4-1.3-19c1.8-.8 3.7-1.4 5.4-1.8L34.8 71 48 66.1l.4.1c-.2 1.2-.4 2.5-.4 3.8 0 9 5.6 16.6 13.4 19.7H15.8zM77 89.8c.8-.3 1.5-.6 2.2-1l1 1H77zM89 89.8h-6.7L80.6 88c3-1.9 5.6-4.6 7.3-7.8.6 2.8 1 6 1.1 9.6zM71.2 69.3H60.8v1.5h16.9v-1.5h-5z"/>
    </g>
  </g>
</svg>