<svg id="Layer_1" data-name="Layer 1" xmlns="http://www.w3.org/2000/svg" viewBox="0 0 64 64"><title>processor1</title><g id="_Group_" data-name="&lt;Group&gt;"><path d="M62.5,1.5a3,3,0,0,1,3,3,3,3,0,0,1-6,0A3,3,0,0,1,62.5,1.5Zm1,3a1.08,1.08,0,0,0-1-1,1,1,0,0,0,0,2A1.08,1.08,0,0,0,63.5,4.5Z" transform="translate(-1.5 -1.5)" fill="#16324f"/><path d="M62.5,59.5a3.08,3.08,0,0,1,3,3,3,3,0,0,1-6,0A3,3,0,0,1,62.5,59.5Zm1,3a1.08,1.08,0,0,0-1-1,1,1,0,0,0-1,1,0.94,0.94,0,0,0,1,1A1,1,0,0,0,63.5,62.5Z" transform="translate(-1.5 -1.5)" fill="#16324f"/><path d="M62.5,3.5a1.08,1.08,0,0,1,1,1,1.08,1.08,0,0,1-1,1,0.94,0.94,0,0,1-1-1A1,1,0,0,1,62.5,3.5Z" transform="translate(-1.5 -1.5)" fill="#fff"/><circle cx="61" cy="61" r="1" fill="#fff"/><path d="M62.2,45v2H58.9v3.1H55V55H50.2v3.9H47v3.3H45V58.9H42v3.3H40V58.9H37v3.3H35V58.9H32v3.3H30V58.9H27v3.3H25V58.9H22v3.3H20V58.9H16.9V55H12V50.1H8.2V47H4.8V45H8.1V42H4.8V40H8.1V37H4.8V35H8.1V32H4.8V30H8.1V27H4.8V25H8.1V22H4.8V20H8.1V16.9H12V12h4.9V8.2H20V4.8h2V8.1h3V4.8h2V8.1h3V4.8h2V8.1h3V4.8h2V8.1h3V4.8h2V8.1h3V4.8h2V8.1h3.1V12H55v4.9h3.9V20h3.3v2H58.9v3h3.3v2H58.9v3h3.3v2H58.9v3h3.3v2H58.9v3h3.3v2H58.9v3h3.3Zm-5.4,3.1V18.9H55V48.1h1.8ZM53,53V14H14V53H53Zm-4.9,3.8V55H18.9v1.9H48.1V56.8Zm0-44.8V10.1H18.9V12H48.1ZM12,48.1V18.9H10.1V48.1H12Z" transform="translate(-1.5 -1.5)" fill="#16324f"/><path d="M55,18.9h1.9V48.1H55V18.9Z" transform="translate(-1.5 -1.5)" fill="#fa8334"/><path d="M53,50.1V53H14V14H53V50.1ZM50,50V17H17V50H50Z" transform="translate(-1.5 -1.5)" fill="#dde589"/><path d="M50,17V50H17V17H50ZM48,48V19H19V48H48Z" transform="translate(-1.5 -1.5)" fill="#16324f"/><path d="M18.9,55H48.1v1.9H18.9V55Z" transform="translate(-1.5 -1.5)" fill="#fa8334"/><path d="M18.9,10.2H48.1v1.9H18.9V10.2Z" transform="translate(-1.5 -1.5)" fill="#fa8334"/><path d="M48,19V48H19V19H48ZM45,45V22H22V45H45Z" transform="translate(-1.5 -1.5)" fill="#fa8334"/><path d="M45,22V45H22V22H45ZM43,43V24H24V43H43Z" transform="translate(-1.5 -1.5)" fill="#16324f"/><path d="M43,24V43H24V24H43ZM40.5,40.9V38.6h-2v2.3h2Zm0-6.3V32.3h-2v2.3h2Zm0-6.3V26h-2v2.3h2Zm-4,12.6V38.6h-2v2.3h2Zm0-6.3V32.3h-2v2.3h2Zm0-6.3V26h-2v2.3h2Zm-4,12.6V38.6h-2v2.3h2Zm0-6.3V32.3h-2v2.3h2Zm0-6.3V26h-2v2.3h2Zm-4,12.6V38.6h-2v2.3h2Zm0-6.3V32.3h-2v2.3h2Zm0-6.3V26h-2v2.3h2Z" transform="translate(-1.5 -1.5)" fill="#dde589"/><path d="M38.5,38.6h2v2.3h-2V38.6Z" transform="translate(-1.5 -1.5)" fill="#16324f"/><path d="M38.5,32.3h2v2.3h-2V32.3Z" transform="translate(-1.5 -1.5)" fill="#16324f"/><path d="M38.5,26h2v2.3h-2V26Z" transform="translate(-1.5 -1.5)" fill="#16324f"/><path d="M34.5,38.6h2v2.3h-2V38.6Z" transform="translate(-1.5 -1.5)" fill="#16324f"/><path d="M34.5,32.3h2v2.3h-2V32.3Z" transform="translate(-1.5 -1.5)" fill="#16324f"/><path d="M34.5,26h2v2.3h-2V26Z" transform="translate(-1.5 -1.5)" fill="#16324f"/><path d="M30.5,38.6h2v2.3h-2V38.6Z" transform="translate(-1.5 -1.5)" fill="#16324f"/><path d="M30.5,32.3h2v2.3h-2V32.3Z" transform="translate(-1.5 -1.5)" fill="#16324f"/><path d="M30.5,26h2v2.3h-2V26Z" transform="translate(-1.5 -1.5)" fill="#16324f"/><path d="M26.5,38.6h2v2.3h-2V38.6Z" transform="translate(-1.5 -1.5)" fill="#16324f"/><path d="M26.5,32.3h2v2.3h-2V32.3Z" transform="translate(-1.5 -1.5)" fill="#16324f"/><path d="M26.5,26h2v2.3h-2V26Z" transform="translate(-1.5 -1.5)" fill="#16324f"/><path d="M10.2,18.9h1.9V48.1H10.2V18.9Z" transform="translate(-1.5 -1.5)" fill="#fa8334"/><path d="M4.5,1.5a3,3,0,1,1-3,3A3,3,0,0,1,4.5,1.5Zm1,3a1.08,1.08,0,0,0-1-1,1.08,1.08,0,0,0-1,1,1.08,1.08,0,0,0,1,1A1.08,1.08,0,0,0,5.5,4.5Z" transform="translate(-1.5 -1.5)" fill="#16324f"/><path d="M4.5,59.5a3.08,3.08,0,0,1,3,3,3,3,0,0,1-6,0A3.08,3.08,0,0,1,4.5,59.5Zm1,3a1.08,1.08,0,0,0-1-1,1.08,1.08,0,0,0-1,1A1,1,0,0,0,5.5,62.5Z" transform="translate(-1.5 -1.5)" fill="#16324f"/><path d="M4.5,3.5a1.08,1.08,0,0,1,1,1,1.08,1.08,0,0,1-1,1,1,1,0,0,1-1-1A1.08,1.08,0,0,1,4.5,3.5Z" transform="translate(-1.5 -1.5)" fill="#fff"/><circle cx="3" cy="61" r="1" fill="#fff"/></g></svg>