<svg data-name="Layer 1" xmlns="http://www.w3.org/2000/svg" viewBox="0 0 210.18 185.26">
  <path d="M181.33,117.83H177V20.94c0-4.36-4.36-7.86-8.73-7.86H108L107.13,9.6c-0.87-3.49-4.36-6.11-8.73-6.11s-7,1.75-8.73,6.11L88.8,13.09H28.58c-4.36,0-8.73,3.49-8.73,7.86v96.89H15.49a4.12,4.12,0,0,0-4.36,4.36v8.73a4.12,4.12,0,0,0,4.36,4.36H48.65l-10.47,32.3c-1.75,4.36,1.75,9.6,6.11,10.47s9.6-1.75,10.47-6.11L67,134.41H130.7l12.22,37.53c0.87,3.49,5.24,7.86,10.47,6.11a9.48,9.48,0,0,0,6.11-10.47L149,135.29H182.2a4.12,4.12,0,0,0,4.36-4.36V122.2C185.69,119.58,183.94,117.83,181.33,117.83Zm-21.82,0H124.59V100.37H159.5v17.46Z" transform="translate(-6.36 -3.49)" fill="#45C4A7"/>
  <rect x="25.89" y="22.21" width="132.42" height="89.14" rx="6.58" ry="6.58" fill="none" stroke="#fcfcfc" stroke-miterlimit="10" stroke-width="3"/>
  <g fill="#237567" stroke="#82dac6" stroke-miterlimit="10">
    <path d="M64.71,118q-3.37.72-6.73,1.32,1.56,2.88.48,5,3.61-.72,7.21-1.2a4,4,0,0,1-1.32-3.37Z" transform="translate(-6.36 -3.49)"/>
    <path d="M132,132.71q0.12-.48.24-0.84a71.15,71.15,0,0,1-5.17,5.77l1.56,1.56v0.6l0.12,0.12a1.34,1.34,0,0,1,.12.6,6.32,6.32,0,0,1,.6-1,9.57,9.57,0,0,1,2.88-2.76l-0.48-2.64Z" transform="translate(-6.36 -3.49)"/>
    <path d="M48,177.9a32.06,32.06,0,0,0,.48,4.21q3.49,2,10.34.84a29.3,29.3,0,0,0,6.25-1.68,17.88,17.88,0,0,0,.6-4.57A38,38,0,0,1,48,177.9Z" transform="translate(-6.36 -3.49)"/>
    <path d="M75.77,156.14q2.16-.36,3.49-0.48a12.36,12.36,0,0,1-1.32-4l-0.24-2.76-2.88.84a33.16,33.16,0,0,1,1,3.85A6.65,6.65,0,0,1,75.77,156.14Z" transform="translate(-6.36 -3.49)"/>
    <path d="M47,137a2.27,2.27,0,0,0-.72-0.12,5.7,5.7,0,0,1-2-.48,4.79,4.79,0,0,1-1.2-.72l-1.56,3.61a0.11,0.11,0,0,1-.12.12L43,139.68h1.56a7.2,7.2,0,0,1,2.76,1.08,1.07,1.07,0,0,0,.48.12l-0.48-2.16Z" transform="translate(-6.36 -3.49)"/>
    <path d="M83.58,140.52a2.19,2.19,0,0,1-.12-1.56v-0.12a7.2,7.2,0,0,1,1.2-3l0.6-.6a3.94,3.94,0,0,0-.6.48q-1.68,1-4.93-1.2,0.48,2,.84,4A11.23,11.23,0,0,1,83.58,140.52Z" transform="translate(-6.36 -3.49)"/>
    <path d="M57.5,157.59h0.24q-1.08-1.56,0-4.69l-1.56.24a5.65,5.65,0,0,0-1.68,0q0.48,3.61-.24,4.69A12.91,12.91,0,0,1,57.5,157.59Z" transform="translate(-6.36 -3.49)"/>
    <path d="M70,176.58a32,32,0,0,0,.48,4.21q6,2,10,1.08a63.7,63.7,0,0,0,6.61-1.92,17.88,17.88,0,0,0,.6-4.57A47.67,47.67,0,0,1,70,176.58Z" transform="translate(-6.36 -3.49)"/>
    <path d="M175.41,156.75l-3.49.6,1.2,4.81a25.13,25.13,0,0,1,.6,7.45,11.94,11.94,0,0,1,4.21-1.08q-1.08-1.8-1.92-7Z" transform="translate(-6.36 -3.49)"/>
    <path d="M168,97.49a1.24,1.24,0,0,0-1.32,1.32,1.15,1.15,0,0,0,.36.84,1.3,1.3,0,0,0,1,.36,1.23,1.23,0,0,0,1.2-1.2,1.3,1.3,0,0,0-.36-1A1.15,1.15,0,0,0,168,97.49Z" transform="translate(-6.36 -3.49)"/>
    <path d="M187.19,123.93l-0.24-.48a48.22,48.22,0,0,1-4.21,3.61q-0.36.24-.84,0.6l0.84,1.2,0.36,2a22.39,22.39,0,0,0,4.57-3.85l1.56-1.56A5.77,5.77,0,0,1,187.19,123.93Z" transform="translate(-6.36 -3.49)"/>
    <path d="M143.08,55.3a2.07,2.07,0,0,0-1.32.48,2.06,2.06,0,0,0,0,2.64,1.84,1.84,0,0,0,1.32.6,2,2,0,0,0,1.44-.6,2.06,2.06,0,0,0,0-2.64A2.24,2.24,0,0,0,143.08,55.3Z" transform="translate(-6.36 -3.49)"/>
    <path d="M158.46,116.24l0.48-1.92-7.45,1.32,0.24,1.68a10.41,10.41,0,0,1-.24,3.85l7.57-.6A7.28,7.28,0,0,1,158.46,116.24Z" transform="translate(-6.36 -3.49)"/>
    <path d="M133.1,101.94a1.2,1.2,0,0,0,0,2.4,1,1,0,0,0,.72-0.36,1.16,1.16,0,0,0,0-1.68A1,1,0,0,0,133.1,101.94Z" transform="translate(-6.36 -3.49)"/>
    <path d="M150.89,160.23q-2.52.12-3.37,0.12l0.36,4.69a23.45,23.45,0,0,1-.24,7.09,2.27,2.27,0,0,1,.72-0.12H152q-1-2-1.08-7.21v-4.57Z" transform="translate(-6.36 -3.49)"/>
  </g>
  <path d="M215.83,113.35a2.4,2.4,0,0,1-1,3,14.1,14.1,0,0,1-6.88,2.39,11.76,11.76,0,0,1-5.37-1h0l1.13,2.11a2.39,2.39,0,0,1-.63,3,12,12,0,0,1-1.32.94,8.63,8.63,0,0,1-1.87,1.07c-1.13.57-2.54,1.32-4.12,2.18a21.11,21.11,0,0,1-4.28,1.58,6.16,6.16,0,0,1-1.49,0l-0.42.42a35.53,35.53,0,0,1-3.7,3.34L186,133a2,2,0,0,1,0,.35,7.6,7.6,0,0,1-3.35,6.53q0.91,3.12,1.59,5.63a1.55,1.55,0,0,1,0,.21c0.95,4.28,1.22,7.32.84,9.39a4.46,4.46,0,0,1-1.77,3.1,3.38,3.38,0,0,1-2.13.57l-2.87.37,0.3,2.44a30.61,30.61,0,0,0,1.13,4.95,13,13,0,0,1,4.86,1.53,9.76,9.76,0,0,1,3.45,2.89,14.08,14.08,0,0,1,2,5.89,7.21,7.21,0,0,1-2.37,6.44c-1.57,1.12-4.48,2-16.34,2.15a5,5,0,0,1-5.09-3.77l-0.42-2.15a3.42,3.42,0,0,1,0-.45,12,12,0,0,1,4.29-9.24c0.63-.48,1.14-0.87,1.58-1.19A32.25,32.25,0,0,0,171,163l-0.64-2.57-4,.55c-4.88.73-9.19,1.33-12.83,1.79v2.44a22.52,22.52,0,0,0,.62,5.55,12.47,12.47,0,0,1,6.35,11.72,2.38,2.38,0,0,1-.25,1c-1,2-3,3.3-6.31,4a42.07,42.07,0,0,1-8.22.78c-4.79,0-6.56-2.18-7.2-4a8.38,8.38,0,0,1,.64-7.12c1.65-3.39,3.88-5.61,6.62-6.56a30.89,30.89,0,0,0,0-5l-0.19-2.39a25.34,25.34,0,0,1-5.51-.37,2.6,2.6,0,0,1-.47-0.16l-1.33-.6a2.42,2.42,0,0,1-1.19-1.19c-0.4-.88-0.81-2.56-0.58-11.34a0.38,0.38,0,0,1,0-.1l0.08-4.85a8.66,8.66,0,0,1-4.85-3.27l-0.08.1a1.74,1.74,0,0,0-.13.2,4.21,4.21,0,0,1-.62,1.67,12.93,12.93,0,0,1-2.14,2.84,27,27,0,0,1-2.39,2.38l-5.47,3.74a2.38,2.38,0,0,1-2.68,0l-0.56-.41-1,1c-0.55.59-1.09,1.15-1.71,1.77a2.41,2.41,0,0,1-2.74.47,11.09,11.09,0,0,0-4.14-1.21,1.4,1.4,0,0,0-.59.06,11,11,0,0,0,.7,2.79l1.23,1.81a2.4,2.4,0,0,1-.44,3.18l-3.54,3a2.42,2.42,0,0,1-3.26-.13,17.72,17.72,0,0,1-4.67-6.86,14.86,14.86,0,0,1-.41-6.45L96.71,151l-2.19,2.12a2.41,2.41,0,0,1-3.17.15c-0.42-.34-0.93-0.75-1.51-1.26a9.92,9.92,0,0,1-1.48-1.49c-1.14-1.2-2.45-2.67-3.84-4.31L84,145.5c0,0.33,0,.65.07,1a3.89,3.89,0,0,1-.6,3.1A3.49,3.49,0,0,1,81,151l-0.53.15,0.06,0.62c0.15,0.72.29,1.28,0.42,1.7a3.11,3.11,0,0,1,.9,0c1.61,0.23,2.64,1.39,5.23,7.44a40,40,0,0,1,3.2,14.84v0.11a20,20,0,0,1-.68,5.12,2.39,2.39,0,0,1-1.5,1.64,63,63,0,0,1-6.87,2c-3.12.76-6.82,0.39-11.31-1.14a2.41,2.41,0,0,1-1.59-1.83c-0.1-.52-0.18-1.06-0.26-1.62a19.84,19.84,0,0,1-.46,2.27,2.39,2.39,0,0,1-1.42,1.61,31.76,31.76,0,0,1-6.76,1.83c-5.18.91-9.09,0.54-12-1.14a2.4,2.4,0,0,1-1.15-1.63,36.51,36.51,0,0,1-.51-4.46,35.56,35.56,0,0,1-.13-5.22c0.09-7.15,1.59-12.73,4.46-16.5a2.39,2.39,0,0,1,.81-0.67,3.94,3.94,0,0,1-2.69-3.25c-0.91-3.2-1.73-6.56-2.41-9.89a7.28,7.28,0,0,0-1.42-.48H43.21a2.69,2.69,0,0,1-.4,0l-0.66-.1a7.32,7.32,0,0,1-2.91.5c-1.23-.09-2.21-0.12-3.12-0.12H35.4a2.42,2.42,0,0,1-.47,0,8.61,8.61,0,0,0-1.34-.2H33.11a2.56,2.56,0,0,1-.39,0l-5.88-1a2.4,2.4,0,0,1-2-2,13.54,13.54,0,0,1-.15-1.61l-0.25,0c-2.42,2.9-5.92,4.19-10.21,3.76L9,141a2.45,2.45,0,0,1-1.67-1c-0.84-1.13-.78-1.52,1.33-8.49a2.39,2.39,0,0,1,2.81-1.65c3.33,0.72,4.45.37,4.69,0.26,0-.05,0-0.28-0.14-0.7a15.51,15.51,0,0,0-3.91-2.24,2.45,2.45,0,0,1-1.27-1.41,2.4,2.4,0,0,1,.15-1.89l2.88-5.52a2.4,2.4,0,0,1,2.82-1.19c5.46,1.62,8.55,3.93,9.44,7a24.49,24.49,0,0,1,.78,3.62l0.25,0.08,1.19-2.69a2.43,2.43,0,0,1,2.68-1.38,14.56,14.56,0,0,1,1.6.44,2.52,2.52,0,0,1,.67.35c0.48,0.17,1,.4,1.71.7a2.54,2.54,0,0,1,.53.31c0.52,0.27,1.13.62,1.81,1,0.49,0.23,1.26.66,2.13,1.18a47.3,47.3,0,0,1,4,2.84,4.09,4.09,0,0,1,.42.35l-0.12-1.26a3.92,3.92,0,0,1,.48-3,3.57,3.57,0,0,1,2.44-1.53c3.25-1,6.66-1.81,10-2.56a2.33,2.33,0,0,0,0-.34c-6,.88-11.92,1.52-17.76,1.88a4.26,4.26,0,0,1-3.35-.67,5.13,5.13,0,0,1-2-3.63c-0.69-2.44-1.31-4.91-1.85-7.38A7.56,7.56,0,0,1,24.45,107H23.5a2.4,2.4,0,0,1-2.32-1.77c-0.34-1.25-1.24-4.55,1.24-5.79a2.34,2.34,0,0,1,1-.25c0.49-4.2,2.73-5.73,4.67-6.26Q27.33,87,26.88,81.13a5.21,5.21,0,0,1,.58-4,4.48,4.48,0,0,1,3-2A223.41,223.41,0,0,1,78,66.39a4.4,4.4,0,0,1,3.36.63,5.12,5.12,0,0,1,2.06,3.49c1.33,4.62,2.46,9.12,3.36,13.39,2,0.38,4.54,1.75,5.65,5.91h0.91a2.41,2.41,0,0,1,2.31,1.75c0.31,1.09,1.27,4.44-1.24,5.69a2.36,2.36,0,0,1-.74.23c-0.21,2.93-1.58,5-3.89,5.95l0.54,6.25c0.31,3.56-1.74,5.25-3.85,5.66A174.14,174.14,0,0,1,67,120.46v0a2,2,0,0,0,0,.5c2.76-.39,5.55-0.68,8.32-0.89a3.78,3.78,0,0,1,4.2,3.25c0.63,1.92,1.2,3.91,1.68,5.91a25.61,25.61,0,0,1,.63,2.66l0.28,1.46a3.78,3.78,0,0,0,1.53.58c0.14-.11.29-0.23,0.46-0.34l0.22-.13c2-1.22,3.85-1.26,7.51.09a24.81,24.81,0,0,1,3.49,1.3l6.59,3.66a2.39,2.39,0,0,1,1.16,2.68,9.56,9.56,0,0,1-.47,1.43l0.5,0.3a17.05,17.05,0,0,1,9.39.28l0.12,0,0.11,0L112.07,141a2.4,2.4,0,0,1,1.21-2.87q0.65-.31,1.17-0.63a12.49,12.49,0,0,1,1.92-.82,0.86,0.86,0,0,1,.23-0.06c1.37-.31,2.92-0.74,4.6-1.27,3-.72,4.54-0.91,5.89-0.56,2.12-2.31,2.92-3.23,3.21-3.6a7.3,7.3,0,0,1,5.64-5.39,9.47,9.47,0,0,1,2.43-.2c1.46-2.69,4.08-4.61,7.79-5.66a25.13,25.13,0,0,1,3.49-.68,4.17,4.17,0,0,0,0-.5c-6.64,1-13.59,1.73-20.7,2.16a4.49,4.49,0,0,1-3.42-.68,5.43,5.43,0,0,1-2.09-3.66,123.31,123.31,0,0,1-6-35.46,5.3,5.3,0,0,1,.79-4,4.54,4.54,0,0,1,3-1.79c3.91-1,7.85-2,11.73-2.75a11.76,11.76,0,0,1,5.5-9.18,12.73,12.73,0,0,1,2.8-1.42c-0.05-.24-0.09-0.49-0.14-0.76a4.61,4.61,0,0,1-.9-0.71,4.45,4.45,0,0,1,0-6l0.2-.18a4.7,4.7,0,0,1,5.77,0,1.62,1.62,0,0,1,.2.18,4.47,4.47,0,0,1,0,6.05l-0.44.38a1.77,1.77,0,0,1,0,.2,20.76,20.76,0,0,1,2.74,0c4.54,0.19,7.93,1.85,10,4.91a9,9,0,0,1,1.33,2.23l8.35-.76c2.73-.43,4.9,1.22,5.57,4.28A185.54,185.54,0,0,1,180,107.31c0.46,3.63-1.75,5.45-4,5.89-5.6,1.42-10.62,2.61-14.85,3.53l-0.12.47a4.49,4.49,0,0,0,0,1.16l5.63-.53c2.86-.25,5.52,1.27,8,4.4l1.6-.19a2.34,2.34,0,0,1,.46,0,9,9,0,0,1,5.88,2.69q1.15-.95,2-1.74a4.89,4.89,0,0,1,.13-1.57,9.85,9.85,0,0,1,1.68-3.61c0.89-1.25,1.53-2.1,2-2.61l4.56-4.7a2.4,2.4,0,0,1,2.62-.55,6.9,6.9,0,0,1,1.18.6l0.05,0a15.78,15.78,0,0,1,2.56-8.37l0.22-.3c2.34-2.75,4-4.49,6.09-3.67,1,0.31,1.85,1.17,4,5a2.37,2.37,0,0,1-.26,2.69,22.59,22.59,0,0,0-2.06,2.81,4.79,4.79,0,0,0,2.79-.8,2.41,2.41,0,0,1,3.71.88Zm-5.55-.46-0.1-.23a13,13,0,0,1-4.63.45A3.81,3.81,0,0,1,202,110.9c-0.78-1.8-.09-3.93,2.38-7.15l-0.27-.45c-0.28.3-.61,0.67-1,1.14a10.44,10.44,0,0,0-1.71,6.42,2.42,2.42,0,0,1-.61,1.82,2.39,2.39,0,0,1,1.34-.4,2.54,2.54,0,0,1,1,.23,8.58,8.58,0,0,0,4.23,1.1A7.77,7.77,0,0,0,210.28,112.89Zm-12,7-0.92-1.72c-0.16-.22-0.44-0.6-0.72-1-0.61-.76-1.22-1.49-1.83-2.17l-0.05-.06,0-.06s0,0,0,0l-3,3.08c-0.26.32-.82,1.07-1.57,2.12a5.63,5.63,0,0,0-.9,1.69c0,0.07-.05.27-0.07,0.34a0.61,0.61,0,0,0,.06.29l0.06,0.18a6.63,6.63,0,0,0,1.11.72,1.64,1.64,0,0,1,.26.16,18.65,18.65,0,0,0,2.78-1.08c1.47-.81,2.94-1.59,4.24-2.24C197.89,120.12,198.08,120,198.25,119.93ZM184.43,179.2A2.51,2.51,0,0,0,185,177a9.42,9.42,0,0,0-1.21-3.75,5.32,5.32,0,0,0-1.74-1.31,8.31,8.31,0,0,0-4.15-1,8.77,8.77,0,0,0-3,.8c-0.52.37-1.19,0.87-2,1.48a7.21,7.21,0,0,0-2.52,5.32l0.31,1.69s0,0,0,0a0.14,0.14,0,0,1,.06.07,1.93,1.93,0,0,0,.34,0C181.45,180.2,183.91,179.44,184.43,179.2ZM180.94,133l-0.47-3.24-0.53-.76-0.07-.09a5.35,5.35,0,0,0-2.32-2.15,50.66,50.66,0,0,1,3.2,7.4A5,5,0,0,0,180.94,133Zm-0.77,20.66a20.16,20.16,0,0,0-.6-6.21c-3.48-1.43-7.67-1.69-12.48-.76a18.33,18.33,0,0,0-7,3.61,18.61,18.61,0,0,1-15.67,3.59,1.82,1.82,0,0,1-.38-0.11L141,152.65c0,2.86.06,4.37,0.13,5.17a31.35,31.35,0,0,0,6.3.13h0.14c0.54,0,1.59,0,3.16-.12,4-.48,8.94-1.16,14.74-2l6.12-.84,3.43-.59h0.13ZM178.1,142c-0.22-.78-0.45-1.59-0.7-2.43a2.71,2.71,0,0,1-.27-0.89,42.82,42.82,0,0,0-5.83-12.86,0.21,0.21,0,0,1,0-.06c-1.13-1.67-2.86-3.59-4.45-3.52l-7.51.72h-0.05l-7.54.59H151.5a17.43,17.43,0,0,0-4.33.65c-2.83.8-4.58,2.25-5.28,4.41,0,0.06-.05.12-0.07,0.19a8,8,0,0,0-.42,2.69l-0.33,16,4.49,1.73a13.73,13.73,0,0,0,11.56-2.72,23.33,23.33,0,0,1,9-4.52A28.88,28.88,0,0,1,178.1,142ZM175,108.06a6.4,6.4,0,0,0,0-.66,181.84,181.84,0,0,0-5.82-34.88,2.22,2.22,0,0,0-.26-0.76l-10.62,1.08c-7.35.87-14.95,2.11-22.61,3.69h0c-4.43.87-9,1.91-13.43,3.09l-0.21,0a2.58,2.58,0,0,0,0,.48,2,2,0,0,1,0,.35,118,118,0,0,0,5.77,34.39,2.22,2.22,0,0,1,.09.37,3.62,3.62,0,0,0,.12.53l0.24,0c7.88-.48,15.56-1.32,22.82-2.5l7.4-1.31c4.45-.94,9.91-2.22,16.21-3.82Zm-20.77,10.48,1.79-.14a8.24,8.24,0,0,1,0-1.11l-1.79.31C154.2,117.92,154.21,118.23,154.22,118.54Zm-1.52,63.85a6,6,0,0,0,2.77-1.17,7.61,7.61,0,0,0-4.12-6.81H148.4a2.6,2.6,0,0,1-.4.1c-1.91.28-3.48,1.73-4.8,4.44a3.71,3.71,0,0,0-.4,3.26c0.28,0.8,2.13.86,2.69,0.86A36.7,36.7,0,0,0,152.7,182.39Zm2-113.95c-1.29-1.89-3.34-2.79-6.38-2.92a20.16,20.16,0,0,0-3.37.09,2.65,2.65,0,0,1-.62.14A7.36,7.36,0,0,0,140.93,67a6.79,6.79,0,0,0-3.11,4.15C143.5,70.08,149.14,69.16,154.65,68.44Zm-18.06,63c0-.44,0-0.87.06-1.3a2.67,2.67,0,0,0-2.05,2.29h0c0,0.13-.06.24-0.11,0.36s-0.06.21-.09,0.3l-0.07.92,0.42,2.32s0,0.05,0,.08,0,0.08,0,.12l0.07,0.71a4,4,0,0,0,1.57,1.83Zm-10.17,9.14a2.65,2.65,0,0,1-.12-0.37l-0.87-.91,0,0-0.17-.18a19.64,19.64,0,0,0-3,.52c-1.6.52-3.24,1-4.71,1.3-0.17.07-.35,0.13-0.52,0.21l0.53,1.69a8.39,8.39,0,0,1,.61,1.43l1.48,2.32,0.08,0.13,3.51-2.39c0.09-.09.65-0.61,1.75-1.8a8.43,8.43,0,0,0,1.36-1.72A0.66,0.66,0,0,1,126.42,140.59ZM113,149.14l0.42-.46c-0.36-.2-0.81-0.44-1.38-0.73a2.3,2.3,0,0,1-1-.4l-0.18-.11a11.77,11.77,0,0,0-7.39,0,2.41,2.41,0,0,1-2.06-.21l-1.37-.83-0.36.5L101,148a2.41,2.41,0,0,1,.85,2.27,12.42,12.42,0,0,0,0,5.57,10.61,10.61,0,0,0,2,3.32l0.15-.12-0.18-.26a2.64,2.64,0,0,1-.25-0.47c-0.85-2.18-1.79-5.35-.17-7.65,0.67-.95,2-2,4.64-2a14.82,14.82,0,0,1,4.41,1l0.37-.39Zm-15.46-7.79-4.63-2.58a24.89,24.89,0,0,0-2.81-1,9.22,9.22,0,0,0-2.76-.73,1.28,1.28,0,0,0-.57.13l-0.35.35a9,9,0,0,0-.55,1.73c0,0.08,0,.16,0,0.24a2.91,2.91,0,0,0,.08.32s0,0,0,0a19.87,19.87,0,0,0,2.09,2.9c1.3,1.53,2.55,2.94,3.73,4.2a9.48,9.48,0,0,0,.77.82L94.32,146c0.31-.38.59-0.77,0.85-1.15a27,27,0,0,0,2-2.87l0-.06a0.56,0.56,0,0,1,0-.08C97.33,141.66,97.42,141.5,97.51,141.35ZM85.26,110.26c0,0.14.06-.06,0-0.54l-0.72-8.25c-0.63-5.13-1.43-10.23-2.37-15.18-0.94-4.71-2.18-9.74-3.68-14.94l-0.06-.25c0-.13,0-0.23-0.06-0.31H78.23a219.77,219.77,0,0,0-46.84,8.68l-0.08,0a1.84,1.84,0,0,0,.06.4c0,0.11,0,.22,0,0.34a197.46,197.46,0,0,0,4.27,28.49,1.29,1.29,0,0,1,0,.19,2,2,0,0,1,.07.23,0.5,0.5,0,0,1,0,.12c0.63,3.06,1.39,6.15,2.25,9.19,0,0.12.05,0.24,0.07,0.36a1.86,1.86,0,0,0,.05.3h0.06c6.35-.39,12.86-1.11,19.34-2.13,2.21-.4,4.41-0.83,6.62-1.31h0.06a173.42,173.42,0,0,0,20.62-5.33A2.22,2.22,0,0,1,85.26,110.26ZM85.2,173.48a37.31,37.31,0,0,0-2.76-11.15,42.68,42.68,0,0,0-2.09-4.39l-0.73.1H79.47c-0.83.07-1.93,0.23-3.3,0.46H76.1l-0.83.15c-1.91,2.94-2.91,7.31-3,13,0,1,0,1.86,0,2.71A45.38,45.38,0,0,0,85.2,173.48Zm-5.3,6.05c1-.24,1.93-0.48,2.8-0.73a50.09,50.09,0,0,1-8.68.5A13,13,0,0,0,79.9,179.53ZM77.12,146.6l1.87-.51c-0.15-2.23-.39-4.53-0.73-6.86a2.85,2.85,0,0,1-.12-0.72c-0.2-1.07-.45-2.24-0.74-3.45a0,0,0,0,0,0,0h0s0,0,0-.08l-0.48-2.5a23.34,23.34,0,0,0-.54-2.29c-0.48-2-1-3.8-1.58-5.57-2.94.24-5.87,0.58-8.74,1h0c-2.36.32-4.73,0.72-7,1.18-3.42.73-7,1.6-10.54,2.61,0.23,2.47.57,4.89,1,7.21v0h0s0,0.06,0,.09l0.68,3.64a0.26,0.26,0,0,1,0,.05h0c0.68,3.48,1.52,7,2.5,10.5l1.6-.17h0a9.81,9.81,0,0,1,1.92,0l1.15-.18,0.2,0a135.54,135.54,0,0,0,16.68-3.05h0l2.77-.8Zm-3.7,7.54a0.5,0.5,0,0,0,0-.12c-0.06-.39-0.16-0.84-0.28-1.36-4.09,1-8.59,1.76-13.46,2.41a0.09,0.09,0,0,0,0,.05,2.7,2.7,0,0,1,2,.71,2.33,2.33,0,0,1,.58.87c0.07,0.17.47,1,2.54,4.94a1.47,1.47,0,0,1,.1.22,45.72,45.72,0,0,1,2.6,8.74c0.2-6.78,1.65-11.9,4.44-15.55a2.39,2.39,0,0,1,1.39-.89ZM62,121.32c0-.08,0-0.17,0-0.26l-0.81.16c0,0.08,0,.16,0,0.24Zm1.17,53.6a36.65,36.65,0,0,0-2.72-11.15c-1-1.86-1.59-3-2-3.82l-0.6,0H57.84a2.5,2.5,0,0,1-1.06.24H53.12c-1.81,2.94-2.76,7.22-2.83,12.77,0,1-.05,1.9,0,2.77A35.57,35.57,0,0,0,63.21,174.92Zm-5.46,5.77a42.87,42.87,0,0,1-6.31,0A17,17,0,0,0,57.75,180.69ZM39.64,137.61l1-2.38a1.48,1.48,0,0,0-.32-1.06,43.89,43.89,0,0,0-3.62-2.57c-0.67-.4-1.34-0.77-1.93-1.07-0.77-.47-1.26-0.75-1.68-1a5.47,5.47,0,0,1-.54-0.31c-0.35-.16-0.67-0.28-1-0.39l-1,2.29c-0.16.44-.34,1-0.49,1.48a18.81,18.81,0,0,0-.77,3.17,8.4,8.4,0,0,0-.08.85l4.07,0.61a10.89,10.89,0,0,1,2,.25h0.49c1,0,2.11,0,3.3.12A3,3,0,0,0,39.64,137.61Zm-14.55-4.87c0.05-.22.12-0.44,0.18-0.66-0.42-.13-0.92-0.26-1.52-0.41A2.41,2.41,0,0,1,22,128.94c0-.15.12-1-0.66-3.75-0.15-.54-0.89-1.83-4.32-3.13l-0.8,1.53c2.76,1.5,4,2.76,4.27,4.24a5.19,5.19,0,0,1-1,5.24c-1.69,1.79-4.5,1.88-7,1.54-0.18.61-.32,1.12-0.44,1.55l2.52,0.29c3.05,0.3,5.15-.6,6.58-2.86a2.42,2.42,0,0,1,2.4-1.1Z" transform="translate(-6.36 -3.49)" fill="#237567"/>
  <path d="M197.33,118.21l0.92,1.72c-0.17.09-.36,0.19-0.6,0.29-1.3.65-2.77,1.43-4.24,2.24a18.65,18.65,0,0,1-2.78,1.08,1.64,1.64,0,0,0-.26-0.16,6.63,6.63,0,0,1-1.11-.72l-0.06-.18a0.61,0.61,0,0,1-.06-0.29c0-.07.06-0.27,0.07-0.34a5.63,5.63,0,0,1,.9-1.69c0.75-1,1.31-1.8,1.57-2.12l3-3.08s0,0,0,0l0,0.06,0.05,0.06c0.61,0.68,1.22,1.41,1.83,2.17C196.89,117.61,197.17,118,197.33,118.21Z" transform="translate(-6.36 -3.49)" fill="#93cec3"/>
  <path d="M185,177a2.51,2.51,0,0,1-.61,2.17c-0.52.24-3,1-13.34,1.1a1.93,1.93,0,0,1-.34,0,0.14,0.14,0,0,0-.06-0.07s0,0,0,0l-0.31-1.69a7.21,7.21,0,0,1,2.52-5.32c0.82-.61,1.49-1.11,2-1.48a8.77,8.77,0,0,1,3-.8,8.31,8.31,0,0,1,4.15,1,5.32,5.32,0,0,1,1.74,1.31A9.42,9.42,0,0,1,185,177Z" transform="translate(-6.36 -3.49)" fill="#93cec3"/>
  <path d="M179.57,147.49a20.16,20.16,0,0,1,.6,6.21l-5,.66H175l-3.43.59-6.12.84c-5.8.86-10.76,1.54-14.74,2-1.57.08-2.62,0.12-3.16,0.12H147.4a31.35,31.35,0,0,1-6.3-.13c-0.07-.8-0.15-2.31-0.13-5.17l3.05,1.17a1.82,1.82,0,0,0,.38.11,18.61,18.61,0,0,0,15.67-3.59,18.33,18.33,0,0,1,7-3.61C171.9,145.8,176.09,146.06,179.57,147.49Z" transform="translate(-6.36 -3.49)" fill="#fff"/>
  <path d="M177.4,139.57c0.25,0.84.48,1.65,0.7,2.43a28.88,28.88,0,0,0-12,0,23.33,23.33,0,0,0-9,4.52,13.73,13.73,0,0,1-11.56,2.72l-4.49-1.73,0.33-16a8,8,0,0,1,.42-2.69c0-.07.05-0.13,0.07-0.19,0.7-2.16,2.45-3.61,5.28-4.41a17.43,17.43,0,0,1,4.33-.65h0.21l7.54-.59h0.05l7.51-.72c1.59-.07,3.32,1.85,4.45,3.52a0.21,0.21,0,0,0,0,.06,42.82,42.82,0,0,1,5.83,12.86A2.71,2.71,0,0,0,177.4,139.57Z" transform="translate(-6.36 -3.49)" fill="#93cec3"/>
  <path d="M174.95,107.4a6.4,6.4,0,0,1,0,.66l-0.29.08c-6.3,1.6-11.76,2.88-16.21,3.82l-7.4,1.31c-7.26,1.18-14.94,2-22.82,2.5l-0.24,0a3.62,3.62,0,0,1-.12-0.53,2.22,2.22,0,0,0-.09-0.37A118,118,0,0,1,122,80.5a2,2,0,0,0,0-.35,2.58,2.58,0,0,1,0-.48l0.21,0c4.48-1.18,9-2.22,13.43-3.09h0c7.66-1.58,15.26-2.82,22.61-3.69l10.62-1.08a2.22,2.22,0,0,1,.26.76A181.84,181.84,0,0,1,174.95,107.4Z" transform="translate(-6.36 -3.49)" fill="#d6ede8"/>
  <path d="M155.47,181.22a6,6,0,0,1-2.77,1.17,36.7,36.7,0,0,1-7.21.68c-0.56,0-2.41-.06-2.69-0.86a3.71,3.71,0,0,1,.4-3.26c1.32-2.71,2.89-4.16,4.8-4.44a2.6,2.6,0,0,0,.4-0.1h2.95A7.61,7.61,0,0,1,155.47,181.22Z" transform="translate(-6.36 -3.49)" fill="#93cec3"/>
  <path d="M148.27,65.52c3,0.13,5.09,1,6.38,2.92-5.51.72-11.15,1.64-16.83,2.75A6.79,6.79,0,0,1,140.93,67a7.36,7.36,0,0,1,3.35-1.29,2.65,2.65,0,0,0,.62-0.14A20.16,20.16,0,0,1,148.27,65.52Z" transform="translate(-6.36 -3.49)" fill="#237567"/>
  <path d="M126.3,140.22a2.65,2.65,0,0,0,.12.37,0.66,0.66,0,0,0-.09.19A8.43,8.43,0,0,1,125,142.5c-1.1,1.19-1.66,1.71-1.75,1.8l-3.51,2.39-0.08-.13-1.48-2.32a8.39,8.39,0,0,0-.61-1.43L117,141.12c0.17-.08.35-0.14,0.52-0.21,1.47-.33,3.11-0.78,4.71-1.3a19.64,19.64,0,0,1,3-.52l0.17,0.18,0,0Z" transform="translate(-6.36 -3.49)" fill="#93cec3"/>
  <path d="M113.39,148.68l-0.42.46-0.14.15-0.37.39a14.82,14.82,0,0,0-4.41-1c-2.65,0-4,1.05-4.64,2-1.62,2.3-.68,5.47.17,7.65a2.64,2.64,0,0,0,.25.47l0.18,0.26-0.15.12a10.61,10.61,0,0,1-2-3.32,12.42,12.42,0,0,1,0-5.57A2.41,2.41,0,0,0,101,148l-1.37-1.1,0.36-.5,1.37,0.83a2.41,2.41,0,0,0,2.06.21,11.77,11.77,0,0,1,7.39,0l0.18,0.11a2.3,2.3,0,0,0,1,.4C112.58,148.24,113,148.48,113.39,148.68Z" transform="translate(-6.36 -3.49)" fill="#d6ede8"/>
  <path d="M92.88,138.77l4.63,2.58c-0.09.15-.18,0.31-0.29,0.47a0.56,0.56,0,0,0,0,.08l0,0.06a27,27,0,0,1-2,2.87c-0.26.38-.54,0.77-0.85,1.15l-1.84,1.77a9.48,9.48,0,0,1-.77-0.82c-1.18-1.26-2.43-2.67-3.73-4.2a19.87,19.87,0,0,1-2.09-2.9s0,0,0,0a2.91,2.91,0,0,1-.08-0.32c0-.08,0-0.16,0-0.24a9,9,0,0,1,.55-1.73l0.35-.35a1.28,1.28,0,0,1,.57-0.13,9.22,9.22,0,0,1,2.76.73A24.89,24.89,0,0,1,92.88,138.77Z" transform="translate(-6.36 -3.49)" fill="#fff"/>
  <path d="M85.28,109.72c0,0.48,0,.68,0,0.54a2.22,2.22,0,0,0-.37.09,173.42,173.42,0,0,1-20.62,5.33H64.21c-2.21.48-4.41,0.91-6.62,1.31-6.48,1-13,1.74-19.34,2.13H38.19a1.86,1.86,0,0,1-.05-0.3c0-.12,0-0.24-0.07-0.36-0.86-3-1.62-6.13-2.25-9.19a0.5,0.5,0,0,0,0-.12,2,2,0,0,0-.07-0.23,1.29,1.29,0,0,0,0-.19,197.46,197.46,0,0,1-4.27-28.49c0-.12,0-0.23,0-0.34a1.84,1.84,0,0,1-.06-0.4l0.08,0A219.77,219.77,0,0,1,78.23,70.8h0.16c0,0.08,0,.18.06,0.31l0.06,0.25c1.5,5.2,2.74,10.23,3.68,14.94,0.94,4.95,1.74,10,2.37,15.18Z" transform="translate(-6.36 -3.49)" fill="#93cec3"/>
  <path d="M82.44,162.33a37.31,37.31,0,0,1,2.76,11.15,45.38,45.38,0,0,1-12.93.91c0-.85,0-1.75,0-2.71,0.07-5.7,1.07-10.07,3-13l0.83-.15h0.07c1.37-.23,2.47-0.39,3.3-0.46h0.15l0.73-.1A42.68,42.68,0,0,1,82.44,162.33Z" transform="translate(-6.36 -3.49)" fill="#d6ede8"/>
  <path d="M79,146.09l-1.87.51-0.14,0-2.77.8h0a135.54,135.54,0,0,1-16.68,3.05l-0.2,0-1.15.18a9.81,9.81,0,0,0-1.92,0h0l-1.6.17c-1-3.49-1.82-7-2.5-10.5h0a0.26,0.26,0,0,0,0-.05l-0.68-3.64s0-.06,0-0.09h0v0c-0.43-2.32-.77-4.74-1-7.21,3.58-1,7.12-1.88,10.54-2.61,2.32-.46,4.69-0.86,7-1.18h0c2.87-.43,5.8-0.77,8.74-1,0.58,1.77,1.1,3.61,1.58,5.57a23.34,23.34,0,0,1,.54,2.29l0.48,2.5s0,0.05,0,.08h0a0,0,0,0,1,0,0c0.29,1.21.54,2.38,0.74,3.45a2.85,2.85,0,0,0,.12.72C78.6,141.56,78.84,143.86,79,146.09Z" transform="translate(-6.36 -3.49)" fill="#93cec3"/>
  <path d="M60.49,163.77a36.65,36.65,0,0,1,2.72,11.15,35.57,35.57,0,0,1-12.94.85c0-.87,0-1.79,0-2.77,0.07-5.55,1-9.83,2.83-12.77h3.66a2.5,2.5,0,0,0,1.06-.24h0.07l0.6,0C58.9,160.72,59.51,161.91,60.49,163.77Z" transform="translate(-6.36 -3.49)" fill="#d6ede8"/>
  <path d="M40.67,135.23l-1,2.38a3,3,0,0,1-.47,0c-1.19-.08-2.28-0.12-3.3-0.12H35.38a10.89,10.89,0,0,0-2-.25l-4.07-.61a8.4,8.4,0,0,1,.08-0.85,18.81,18.81,0,0,1,.77-3.17c0.15-.5.33-1,0.49-1.48l1-2.29c0.28,0.11.6,0.23,1,.39a5.47,5.47,0,0,0,.54.31c0.42,0.21.91,0.49,1.68,1,0.59,0.3,1.26.67,1.93,1.07a43.89,43.89,0,0,1,3.62,2.57A1.48,1.48,0,0,1,40.67,135.23Z" transform="translate(-6.36 -3.49)" fill="#fff"/>
  <path d="M25.27,132.08c-0.06.22-.13,0.44-0.18,0.66l-1.59-.25a2.42,2.42,0,0,0-2.4,1.1c-1.43,2.26-3.53,3.16-6.58,2.86L12,136.16c0.12-.43.26-0.94,0.44-1.55,2.54,0.34,5.35.25,7-1.54a5.19,5.19,0,0,0,1-5.24c-0.27-1.48-1.51-2.74-4.27-4.24l0.8-1.53c3.43,1.3,4.17,2.59,4.32,3.13,0.78,2.71.69,3.6,0.66,3.75a2.41,2.41,0,0,0,1.79,2.73C24.35,131.82,24.85,132,25.27,132.08Z" transform="translate(-6.36 -3.49)" fill="#d6ede8"/>
  <path d="M215.83,113.35l-2-4.57a2.41,2.41,0,0,0-3.71-.88,4.79,4.79,0,0,1-2.79.8,22.59,22.59,0,0,1,2.06-2.81,2.37,2.37,0,0,0,.26-2.69c-2.12-3.87-3-4.73-4-5-2.05-.82-3.75.92-6.09,3.67l-0.22.3a15.78,15.78,0,0,0-2.56,8.37l-0.05,0a6.9,6.9,0,0,0-1.18-.6,2.4,2.4,0,0,0-2.62.55l-4.56,4.7c-0.43.51-1.07,1.36-2,2.61a9.85,9.85,0,0,0-1.68,3.61,4.89,4.89,0,0,0-.13,1.57q-0.88.8-2,1.74a9,9,0,0,0-5.88-2.69,2.34,2.34,0,0,0-.46,0l-1.6.19c-2.43-3.13-5.09-4.65-8-4.4l-5.63.53a4.49,4.49,0,0,1,0-1.16l0.12-.47c4.23-.92,9.25-2.11,14.85-3.53,2.22-.44,4.43-2.26,4-5.89A185.54,185.54,0,0,0,174,71.75c-0.67-3.06-2.84-4.71-5.57-4.28l-8.35.76A9,9,0,0,0,158.79,66c-2-3.06-5.44-4.72-10-4.91a20.76,20.76,0,0,0-2.74,0,1.77,1.77,0,0,0,0-.2l0.44-.38a4.47,4.47,0,0,0,0-6.05,1.62,1.62,0,0,0-.2-0.18,4.7,4.7,0,0,0-5.77,0l-0.2.18a4.45,4.45,0,0,0,0,6,4.61,4.61,0,0,0,.9.71c0.05,0.27.09,0.52,0.14,0.76a12.73,12.73,0,0,0-2.8,1.42,11.76,11.76,0,0,0-5.5,9.18c-3.88.8-7.82,1.72-11.73,2.75a4.54,4.54,0,0,0-3,1.79,5.3,5.3,0,0,0-.79,4,123.31,123.31,0,0,0,6,35.46,5.43,5.43,0,0,0,2.09,3.66,4.49,4.49,0,0,0,3.42.68c7.11-.43,14.06-1.16,20.7-2.16a4.17,4.17,0,0,1,0,.5,25.13,25.13,0,0,0-3.49.68c-3.71,1.05-6.33,3-7.79,5.66a9.47,9.47,0,0,0-2.43.2,7.3,7.3,0,0,0-5.64,5.39c-0.29.37-1.09,1.29-3.21,3.6-1.35-.35-2.93-0.16-5.89.56-1.68.53-3.23,1-4.6,1.27a0.86,0.86,0,0,0-.23.06,12.49,12.49,0,0,0-1.92.82q-0.52.32-1.17,0.63a2.4,2.4,0,0,0-1.21,2.87l0.69,2.21-0.11,0-0.12,0a17.05,17.05,0,0,0-9.39-.28l-0.5-.3a9.56,9.56,0,0,0,.47-1.43,2.39,2.39,0,0,0-1.16-2.68l-6.59-3.66a24.81,24.81,0,0,0-3.49-1.3c-3.66-1.35-5.46-1.31-7.51-.09l-0.22.13c-0.17.11-.32,0.23-0.46,0.34a3.78,3.78,0,0,1-1.53-.58l-0.28-1.46a25.61,25.61,0,0,0-.63-2.66c-0.48-2-1.05-4-1.68-5.91a3.78,3.78,0,0,0-4.2-3.25c-2.77.21-5.56,0.5-8.32,0.89a2,2,0,0,1,0-.5v0a174.14,174.14,0,0,0,19.46-5.12c2.11-.41,4.16-2.1,3.85-5.66l-0.54-6.25c2.31-1,3.68-3,3.89-5.95a2.36,2.36,0,0,0,.74-0.23c2.51-1.25,1.55-4.6,1.24-5.69a2.41,2.41,0,0,0-2.31-1.75H92.42c-1.11-4.16-3.6-5.53-5.65-5.91-0.9-4.27-2-8.77-3.36-13.39A5.12,5.12,0,0,0,81.35,67,4.4,4.4,0,0,0,78,66.39,223.41,223.41,0,0,0,30.45,75.2a4.48,4.48,0,0,0-3,2,5.21,5.21,0,0,0-.58,4q0.45,5.88,1.25,11.8c-1.94.53-4.18,2.06-4.67,6.26a2.34,2.34,0,0,0-1,.25c-2.48,1.24-1.58,4.54-1.24,5.79A2.4,2.4,0,0,0,23.5,107h0.95a7.56,7.56,0,0,0,7.34,5.61c0.54,2.47,1.16,4.94,1.85,7.38a5.13,5.13,0,0,0,2,3.63,4.26,4.26,0,0,0,3.35.67c5.84-.36,11.81-1,17.76-1.88a2.33,2.33,0,0,1,0,.34c-3.34.75-6.75,1.61-10,2.56a3.57,3.57,0,0,0-2.44,1.53,3.92,3.92,0,0,0-.48,3l0.12,1.26a4.09,4.09,0,0,0-.42-0.35,47.3,47.3,0,0,0-4-2.84c-0.87-.52-1.64-1-2.13-1.18-0.68-.43-1.29-0.78-1.81-1a2.54,2.54,0,0,0-.53-0.31c-0.66-.3-1.23-0.53-1.71-0.7a2.52,2.52,0,0,0-.67-0.35,14.56,14.56,0,0,0-1.6-.44,2.43,2.43,0,0,0-2.68,1.38l-1.19,2.69-0.25-.08a24.49,24.49,0,0,0-.78-3.62c-0.89-3.11-4-5.42-9.44-7a2.4,2.4,0,0,0-2.82,1.19L11,123.91a2.4,2.4,0,0,0-.15,1.89,2.45,2.45,0,0,0,1.27,1.41,15.51,15.51,0,0,1,3.91,2.24c0.11,0.42.11,0.65,0.14,0.7-0.24.11-1.36,0.46-4.69-.26a2.39,2.39,0,0,0-2.81,1.65c-2.11,7-2.17,7.36-1.33,8.49A2.45,2.45,0,0,0,9,141l5.2,0.6c4.29,0.43,7.79-.86,10.21-3.76l0.25,0a13.54,13.54,0,0,0,.15,1.61,2.4,2.4,0,0,0,2,2l5.88,1a2.56,2.56,0,0,0,.39,0h0.48a8.61,8.61,0,0,1,1.34.2,2.42,2.42,0,0,0,.47,0h0.72c0.91,0,1.89,0,3.12.12a7.32,7.32,0,0,0,2.91-.5l0.66,0.1a2.69,2.69,0,0,0,.4,0h1.27a7.28,7.28,0,0,1,1.42.48c0.68,3.33,1.5,6.69,2.41,9.89A3.94,3.94,0,0,0,51,156.07a2.39,2.39,0,0,0-.81.67c-2.87,3.77-4.37,9.35-4.46,16.5a35.56,35.56,0,0,0,.13,5.22,36.51,36.51,0,0,0,.51,4.46,2.4,2.4,0,0,0,1.15,1.63c2.86,1.68,6.77,2.05,12,1.14a31.76,31.76,0,0,0,6.76-1.83,2.39,2.39,0,0,0,1.42-1.61,19.84,19.84,0,0,0,.46-2.27c0.08,0.56.16,1.1,0.26,1.62A2.41,2.41,0,0,0,70,183.43c4.49,1.53,8.19,1.9,11.31,1.14a63,63,0,0,0,6.87-2,2.39,2.39,0,0,0,1.5-1.64,20,20,0,0,0,.68-5.12V175.7a40,40,0,0,0-3.2-14.84c-2.59-6-3.62-7.21-5.23-7.44a3.11,3.11,0,0,0-.9,0c-0.13-.42-0.27-1-0.42-1.7l-0.06-.62L81,151a3.49,3.49,0,0,0,2.42-1.37,3.89,3.89,0,0,0,.6-3.1c0-.33,0-0.65-0.07-1l0.53,0.67c1.39,1.64,2.7,3.11,3.84,4.31A9.92,9.92,0,0,0,89.84,152c0.58,0.51,1.09.92,1.51,1.26a2.41,2.41,0,0,0,3.17-.15L96.71,151l0.41,0.32a14.86,14.86,0,0,0,.41,6.45,17.72,17.72,0,0,0,4.67,6.86,2.42,2.42,0,0,0,3.26.13l3.54-3a2.4,2.4,0,0,0,.44-3.18l-1.23-1.81a11,11,0,0,1-.7-2.79,1.4,1.4,0,0,1,.59-0.06,11.09,11.09,0,0,1,4.14,1.21,2.41,2.41,0,0,0,2.74-.47c0.62-.62,1.16-1.18,1.71-1.77l1-1,0.56,0.41a2.38,2.38,0,0,0,2.68,0l5.47-3.74a27,27,0,0,0,2.39-2.38,12.93,12.93,0,0,0,2.14-2.84,4.21,4.21,0,0,0,.62-1.67,1.74,1.74,0,0,1,.13-0.2l0.08-.1a8.66,8.66,0,0,0,4.85,3.27l-0.08,4.85a0.38,0.38,0,0,0,0,.1c-0.23,8.78.18,10.46,0.58,11.34a2.42,2.42,0,0,0,1.19,1.19l1.33,0.6a2.6,2.6,0,0,0,.47.16,25.34,25.34,0,0,0,5.51.37l0.19,2.39a30.89,30.89,0,0,1,0,5c-2.74.95-5,3.17-6.62,6.56a8.38,8.38,0,0,0-.64,7.12c0.64,1.83,2.41,4,7.2,4a42.07,42.07,0,0,0,8.22-.78c3.26-.74,5.32-2.06,6.31-4a2.38,2.38,0,0,0,.25-1,12.47,12.47,0,0,0-6.35-11.72,22.52,22.52,0,0,1-.62-5.55v-2.44c3.64-.46,8-1.06,12.83-1.79l4-.55L171,163a32.25,32.25,0,0,1,.66,5.72c-0.44.32-.95,0.71-1.58,1.19a12,12,0,0,0-4.29,9.24,3.42,3.42,0,0,0,0,.45l0.42,2.15a5,5,0,0,0,5.09,3.77c11.86-.11,14.77-1,16.34-2.15a7.21,7.21,0,0,0,2.37-6.44,14.08,14.08,0,0,0-2-5.89,9.76,9.76,0,0,0-3.45-2.89,13,13,0,0,0-4.86-1.53,30.61,30.61,0,0,1-1.13-4.95l-0.3-2.44,2.87-.37a3.38,3.38,0,0,0,2.13-.57,4.46,4.46,0,0,0,1.77-3.1c0.38-2.07.11-5.11-.84-9.39a1.55,1.55,0,0,0,0-.21q-0.67-2.5-1.59-5.63a7.6,7.6,0,0,0,3.35-6.53,2,2,0,0,0,0-.35l-0.07-.57a35.53,35.53,0,0,0,3.7-3.34l0.42-.42a6.16,6.16,0,0,0,1.49,0,21.11,21.11,0,0,0,4.28-1.58c1.58-.86,3-1.61,4.12-2.18a8.63,8.63,0,0,0,1.87-1.07,12,12,0,0,0,1.32-.94,2.39,2.39,0,0,0,.63-3l-1.13-2.11h0a11.76,11.76,0,0,0,5.37,1,14.1,14.1,0,0,0,6.88-2.39A2.4,2.4,0,0,0,215.83,113.35Z" transform="translate(-6.36 -3.49)" fill="none" stroke="#82dac6" stroke-miterlimit="10"/>
  <path d="M15.77,128.91a0.19,0.19,0,0,0,0,.07" transform="translate(-6.36 -3.49)" fill="none" stroke="#82dac6" stroke-miterlimit="10"/>
  <path d="M25.09,132.74l-1.59-.25a2.42,2.42,0,0,0-2.4,1.1c-1.43,2.26-3.53,3.16-6.58,2.86L12,136.16c0.12-.43.26-0.94,0.44-1.55,2.54,0.34,5.35.25,7-1.54a5.19,5.19,0,0,0,1-5.24c-0.27-1.48-1.51-2.74-4.27-4.24l0.8-1.53c3.43,1.3,4.17,2.59,4.32,3.13,0.78,2.71.69,3.6,0.66,3.75a2.41,2.41,0,0,0,1.79,2.73c0.6,0.15,1.1.28,1.52,0.41C25.21,132.3,25.14,132.52,25.09,132.74Z" transform="translate(-6.36 -3.49)" fill="none" stroke="#82dac6" stroke-miterlimit="10"/>
  <path d="M33.35,124.51h0" transform="translate(-6.36 -3.49)" fill="none" stroke="#82dac6" stroke-miterlimit="10"/>
  <path d="M39.64,137.61a3,3,0,0,1-.47,0c-1.19-.08-2.28-0.12-3.3-0.12H35.38a10.89,10.89,0,0,0-2-.25l-4.07-.61a8.4,8.4,0,0,1,.08-0.85,18.81,18.81,0,0,1,.77-3.17c0.15-.5.33-1,0.49-1.48l1-2.29c0.28,0.11.6,0.23,1,.39a5.47,5.47,0,0,0,.54.31c0.42,0.21.91,0.49,1.68,1,0.59,0.3,1.26.67,1.93,1.07a43.89,43.89,0,0,1,3.62,2.57,1.48,1.48,0,0,1,.32,1.06Z" transform="translate(-6.36 -3.49)" fill="none" stroke="#82dac6" stroke-miterlimit="10"/>
  <path d="M47.64,129.59l0,0" transform="translate(-6.36 -3.49)" fill="none" stroke="#82dac6" stroke-miterlimit="10"/>
  <path d="M38.25,119.13H38.19a1.86,1.86,0,0,1-.05-0.3c0-.12,0-0.24-0.07-0.36-0.86-3-1.62-6.13-2.25-9.19a0.5,0.5,0,0,0,0-.12,2,2,0,0,0-.07-0.23,1.29,1.29,0,0,0,0-.19,197.46,197.46,0,0,1-4.27-28.49c0-.12,0-0.23,0-0.34a1.84,1.84,0,0,1-.06-0.4l0.08,0A219.77,219.77,0,0,1,78.23,70.8h0.16c0,0.08,0,.18.06,0.31l0.06,0.25c1.5,5.2,2.74,10.23,3.68,14.94,0.94,4.95,1.74,10,2.37,15.18l0.72,8.25c0,0.48,0,.68,0,0.54a2.22,2.22,0,0,0-.37.09,173.42,173.42,0,0,1-20.62,5.33H64.21c-2.21.48-4.41,0.91-6.62,1.31C51.11,118,44.6,118.74,38.25,119.13Z" transform="translate(-6.36 -3.49)" fill="none" stroke="#82dac6" stroke-miterlimit="10"/>
  <path d="M62,121.32l-0.81.14c0-.08,0-0.16,0-0.24l0.81-.16C62,121.15,62,121.24,62,121.32Z" transform="translate(-6.36 -3.49)" fill="none" stroke="#82dac6" stroke-miterlimit="10"/>
  <path d="M50.13,140.42h0a0.26,0.26,0,0,0,0-.05l-0.68-3.64s0-.06,0-0.09h0v0c-0.43-2.32-.77-4.74-1-7.21,3.58-1,7.12-1.88,10.54-2.61,2.32-.46,4.69-0.86,7-1.18h0c2.87-.43,5.8-0.77,8.74-1,0.58,1.77,1.1,3.61,1.58,5.57a23.34,23.34,0,0,1,.54,2.29l0.48,2.5s0,0.05,0,.08h0a0,0,0,0,1,0,0c0.29,1.21.54,2.38,0.74,3.45a2.85,2.85,0,0,0,.12.72c0.34,2.33.58,4.63,0.73,6.86l-1.87.51-0.14,0-2.77.8h0a135.54,135.54,0,0,1-16.68,3.05l-0.2,0-1.15.18a9.81,9.81,0,0,0-1.92,0h0l-1.6.17C51.65,147.43,50.81,143.9,50.13,140.42Z" transform="translate(-6.36 -3.49)" fill="none" stroke="#82dac6" stroke-miterlimit="10"/>
  <path d="M51.67,151h0.11" transform="translate(-6.36 -3.49)" fill="none" stroke="#82dac6" stroke-miterlimit="10"/>
  <path d="M51.44,180.69a42.87,42.87,0,0,0,6.31,0A17,17,0,0,1,51.44,180.69Z" transform="translate(-6.36 -3.49)" fill="none" stroke="#82dac6" stroke-miterlimit="10"/>
  <path d="M50.27,175.77c0-.87,0-1.79,0-2.77,0.07-5.55,1-9.83,2.83-12.77h3.66a2.5,2.5,0,0,0,1.06-.24h0.07l0.6,0c0.39,0.77,1,2,2,3.82a36.65,36.65,0,0,1,2.72,11.15A35.57,35.57,0,0,1,50.27,175.77Z" transform="translate(-6.36 -3.49)" fill="none" stroke="#82dac6" stroke-miterlimit="10"/>
  <path d="M67.5,170.6a45.72,45.72,0,0,0-2.6-8.74,1.47,1.47,0,0,0-.1-0.22c-2.07-3.95-2.47-4.77-2.54-4.94a2.33,2.33,0,0,0-.58-0.87,2.7,2.7,0,0,0-2-.71,0.09,0.09,0,0,1,0-.05c4.87-.65,9.37-1.45,13.46-2.41,0.12,0.52.22,1,.28,1.36a0.5,0.5,0,0,1,0,.12l-0.09,0a2.39,2.39,0,0,0-1.39.89C69.15,158.7,67.7,163.82,67.5,170.6Z" transform="translate(-6.36 -3.49)" fill="none" stroke="#82dac6" stroke-miterlimit="10"/>
  <path d="M79.9,179.53A13,13,0,0,1,74,179.3a50.09,50.09,0,0,0,8.68-.5C81.83,179.05,80.89,179.29,79.9,179.53Z" transform="translate(-6.36 -3.49)" fill="none" stroke="#82dac6" stroke-miterlimit="10"/>
  <path d="M80.35,157.94a42.68,42.68,0,0,1,2.09,4.39,37.31,37.31,0,0,1,2.76,11.15,45.38,45.38,0,0,1-12.93.91c0-.85,0-1.75,0-2.71,0.07-5.7,1.07-10.07,3-13l0.83-.15h0.07c1.37-.23,2.47-0.39,3.3-0.46h0.15Z" transform="translate(-6.36 -3.49)" fill="none" stroke="#82dac6" stroke-miterlimit="10"/>
  <path d="M97.22,141.82a0.56,0.56,0,0,0,0,.08l0,0.06a27,27,0,0,1-2,2.87c-0.26.38-.54,0.77-0.85,1.15l-1.84,1.77a9.48,9.48,0,0,1-.77-0.82c-1.18-1.26-2.43-2.67-3.73-4.2a19.87,19.87,0,0,1-2.09-2.9s0,0,0,0a2.91,2.91,0,0,1-.08-0.32c0-.08,0-0.16,0-0.24a9,9,0,0,1,.55-1.73l0.35-.35a1.28,1.28,0,0,1,.57-0.13,9.22,9.22,0,0,1,2.76.73,24.89,24.89,0,0,1,2.81,1l4.63,2.58C97.42,141.5,97.33,141.66,97.22,141.82Z" transform="translate(-6.36 -3.49)" fill="none" stroke="#82dac6" stroke-miterlimit="10"/>
  <path d="M113,149.14l-0.14.15-0.37.39a14.82,14.82,0,0,0-4.41-1c-2.65,0-4,1.05-4.64,2-1.62,2.3-.68,5.47.17,7.65a2.64,2.64,0,0,0,.25.47l0.18,0.26-0.15.12a10.61,10.61,0,0,1-2-3.32,12.42,12.42,0,0,1,0-5.57A2.41,2.41,0,0,0,101,148l-1.37-1.1,0.36-.5,1.37,0.83a2.41,2.41,0,0,0,2.06.21,11.77,11.77,0,0,1,7.39,0l0.18,0.11a2.3,2.3,0,0,0,1,.4c0.57,0.29,1,.53,1.38.73Z" transform="translate(-6.36 -3.49)" fill="none" stroke="#82dac6" stroke-miterlimit="10"/>
  <path d="M126.33,140.78A8.43,8.43,0,0,1,125,142.5c-1.1,1.19-1.66,1.71-1.75,1.8l-3.51,2.39-0.08-.13-1.48-2.32a8.39,8.39,0,0,0-.61-1.43L117,141.12c0.17-.08.35-0.14,0.52-0.21,1.47-.33,3.11-0.78,4.71-1.3a19.64,19.64,0,0,1,3-.52l0.17,0.18,0,0,0.87,0.91a2.65,2.65,0,0,0,.12.37A0.66,0.66,0,0,0,126.33,140.78Z" transform="translate(-6.36 -3.49)" fill="none" stroke="#82dac6" stroke-miterlimit="10"/>
  <path d="M136.59,131.45l-0.17,7.64a4,4,0,0,1-1.57-1.83l-0.07-.71s0-.08,0-0.12,0-.05,0-0.08L134.33,134l0.07-.92c0-.09,0-0.19.09-0.3s0.07-.23.11-0.36h0a2.67,2.67,0,0,1,2.05-2.29C136.61,130.58,136.59,131,136.59,131.45Z" transform="translate(-6.36 -3.49)" fill="none" stroke="#82dac6" stroke-miterlimit="10"/>
  <path d="M140.93,67a7.36,7.36,0,0,1,3.35-1.29,2.65,2.65,0,0,0,.62-0.14,20.16,20.16,0,0,1,3.37-.09c3,0.13,5.09,1,6.38,2.92-5.51.72-11.15,1.64-16.83,2.75A6.79,6.79,0,0,1,140.93,67Z" transform="translate(-6.36 -3.49)" fill="none" stroke="#82dac6" stroke-miterlimit="10"/>
  <path d="M128.27,115.77l-0.24,0a3.62,3.62,0,0,1-.12-0.53,2.22,2.22,0,0,0-.09-0.37A118,118,0,0,1,122,80.5a2,2,0,0,0,0-.35,2.58,2.58,0,0,1,0-.48l0.21,0c4.48-1.18,9-2.22,13.43-3.09h0c7.66-1.58,15.26-2.82,22.61-3.69l10.62-1.08a2.22,2.22,0,0,1,.26.76,181.84,181.84,0,0,1,5.82,34.88,6.4,6.4,0,0,1,0,.66l-0.29.08c-6.3,1.6-11.76,2.88-16.21,3.82l-7.4,1.31C143.83,114.45,136.15,115.29,128.27,115.77Z" transform="translate(-6.36 -3.49)" fill="none" stroke="#82dac6" stroke-miterlimit="10"/>
  <path d="M156,118.4l-1.79.14c0-.31,0-0.62,0-0.94l1.79-.31A8.24,8.24,0,0,0,156,118.4Z" transform="translate(-6.36 -3.49)" fill="none" stroke="#82dac6" stroke-miterlimit="10"/>
  <path d="M141.4,131.51a8,8,0,0,1,.42-2.69c0-.07.05-0.13,0.07-0.19,0.7-2.16,2.45-3.61,5.28-4.41a17.43,17.43,0,0,1,4.33-.65h0.21l7.54-.59h0.05l7.51-.72c1.59-.07,3.32,1.85,4.45,3.52a0.21,0.21,0,0,0,0,.06,42.82,42.82,0,0,1,5.83,12.86,2.71,2.71,0,0,0,.27.89c0.25,0.84.48,1.65,0.7,2.43a28.88,28.88,0,0,0-12,0,23.33,23.33,0,0,0-9,4.52,13.73,13.73,0,0,1-11.56,2.72l-4.49-1.73Z" transform="translate(-6.36 -3.49)" fill="none" stroke="#82dac6" stroke-miterlimit="10"/>
  <path d="M155.47,181.22a6,6,0,0,1-2.77,1.17,36.7,36.7,0,0,1-7.21.68c-0.56,0-2.41-.06-2.69-0.86a3.71,3.71,0,0,1,.4-3.26c1.32-2.71,2.89-4.16,4.8-4.44a2.6,2.6,0,0,0,.4-0.1h2.95A7.61,7.61,0,0,1,155.47,181.22Z" transform="translate(-6.36 -3.49)" fill="none" stroke="#82dac6" stroke-miterlimit="10"/>
  <path d="M182.09,172a5.32,5.32,0,0,1,1.74,1.31A9.42,9.42,0,0,1,185,177a2.51,2.51,0,0,1-.61,2.17c-0.52.24-3,1-13.34,1.1a1.93,1.93,0,0,1-.34,0,0.14,0.14,0,0,0-.06-0.07s0,0,0,0l-0.31-1.69a7.21,7.21,0,0,1,2.52-5.32c0.82-.61,1.49-1.11,2-1.48a8.77,8.77,0,0,1,3-.8A8.31,8.31,0,0,1,182.09,172Z" transform="translate(-6.36 -3.49)" fill="none" stroke="#82dac6" stroke-miterlimit="10"/>
  <path d="M180.17,153.7l-5,.66H175l-3.43.59-6.12.84c-5.8.86-10.76,1.54-14.74,2-1.57.08-2.62,0.12-3.16,0.12H147.4a31.35,31.35,0,0,1-6.3-.13c-0.07-.8-0.15-2.31-0.13-5.17l3.05,1.17a1.82,1.82,0,0,0,.38.11,18.61,18.61,0,0,0,15.67-3.59,18.33,18.33,0,0,1,7-3.61c4.81-.93,9-0.67,12.48.76A20.16,20.16,0,0,1,180.17,153.7Z" transform="translate(-6.36 -3.49)" fill="none" stroke="#82dac6" stroke-miterlimit="10"/>
  <path d="M180.75,134.2a50.66,50.66,0,0,0-3.2-7.4,5.35,5.35,0,0,1,2.32,2.15l0.07,0.09,0.53,0.76,0.47,3.24A5,5,0,0,1,180.75,134.2Z" transform="translate(-6.36 -3.49)" fill="none" stroke="#82dac6" stroke-miterlimit="10"/>
  <path d="M197.65,120.22c-1.3.65-2.77,1.43-4.24,2.24a18.65,18.65,0,0,1-2.78,1.08,1.64,1.64,0,0,0-.26-0.16,6.63,6.63,0,0,1-1.11-.72l-0.06-.18a0.61,0.61,0,0,1-.06-0.29c0-.07.06-0.27,0.07-0.34a5.63,5.63,0,0,1,.9-1.69c0.75-1,1.31-1.8,1.57-2.12l3-3.08s0,0,0,0l0,0.06,0.05,0.06c0.61,0.68,1.22,1.41,1.83,2.17,0.28,0.35.56,0.73,0.72,1l0.92,1.72C198.08,120,197.89,120.12,197.65,120.22Z" transform="translate(-6.36 -3.49)" fill="none" stroke="#82dac6" stroke-miterlimit="10"/>
  <path d="M207.37,113.61a8.58,8.58,0,0,1-4.23-1.1,2.54,2.54,0,0,0-1-.23,2.39,2.39,0,0,0-1.34.4,2.42,2.42,0,0,0,.61-1.82,10.44,10.44,0,0,1,1.71-6.42c0.41-.47.74-0.84,1-1.14l0.27,0.45c-2.47,3.22-3.16,5.35-2.38,7.15a3.81,3.81,0,0,0,3.56,2.21,13,13,0,0,0,4.63-.45l0.1,0.23A7.77,7.77,0,0,1,207.37,113.61Z" transform="translate(-6.36 -3.49)" fill="none" stroke="#82dac6" stroke-miterlimit="10"/>
  <path d="M160.13,104.56a2.4,2.4,0,0,0-3.37-.44c-2.29,1.76-6.16,2.37-11.5,1.8a2.4,2.4,0,0,0-.51,4.78,39.17,39.17,0,0,0,4.17.24c4.62,0,8.17-1,10.77-3A2.41,2.41,0,0,0,160.13,104.56Z" transform="translate(-6.36 -3.49)" fill="#237567" stroke="#82dac6" stroke-miterlimit="10"/>
  <path d="M133.1,99.53a3.61,3.61,0,0,0,0,7.21,3.36,3.36,0,0,0,2.42-1.06,3.56,3.56,0,0,0,0-5.09A3.37,3.37,0,0,0,133.1,99.53Z" transform="translate(-6.36 -3.49)" fill="#237567" stroke="#82dac6" stroke-miterlimit="10"/>
  <path d="M168,102.42a3.64,3.64,0,0,0,3.61-3.61,3.66,3.66,0,0,0-1.06-2.66,3.77,3.77,0,0,0-5.21,0,3.67,3.67,0,0,0-1.06,2.66,3.59,3.59,0,0,0,1.07,2.55A3.69,3.69,0,0,0,168,102.42Z" transform="translate(-6.36 -3.49)" fill="#237567" stroke="#82dac6" stroke-miterlimit="10"/>
  <path d="M38.61,104.45a3.61,3.61,0,1,0,5.08,0A3.65,3.65,0,0,0,38.61,104.45Z" transform="translate(-6.36 -3.49)" fill="#237567" stroke="#82dac6" stroke-miterlimit="10"/>
  <path d="M75.05,104.59a4.18,4.18,0,0,0,2.52.84,3.64,3.64,0,0,0,3.73-3.73,4.17,4.17,0,0,0-.84-2.52,2.47,2.47,0,0,0-.22-0.25A4.06,4.06,0,0,0,75,98.69a2.44,2.44,0,0,0-.48.48,4.17,4.17,0,0,0-.84,2.52,3.67,3.67,0,0,0,1.07,2.66A2.39,2.39,0,0,0,75.05,104.59Z" transform="translate(-6.36 -3.49)" fill="#237567" stroke="#82dac6" stroke-miterlimit="10"/>
  <path d="M74.46,106.16a2.41,2.41,0,0,0-3.36-.51c-5.21,3.84-12.37,5.1-21.29,3.77a2.4,2.4,0,0,0-.71,4.75,49,49,0,0,0,7.26.57c7,0,12.89-1.74,17.6-5.22A2.4,2.4,0,0,0,74.46,106.16Z" transform="translate(-6.36 -3.49)" fill="#237567" stroke="#82dac6" stroke-miterlimit="10"/>
</svg>
