<svg xmlns:dc="http://purl.org/dc/elements/1.1/" xmlns:cc="http://creativecommons.org/ns#" xmlns:rdf="http://www.w3.org/1999/02/22-rdf-syntax-ns#" xmlns:svg="http://www.w3.org/2000/svg" xmlns="http://www.w3.org/2000/svg" xmlns:sodipodi="http://sodipodi.sourceforge.net/DTD/sodipodi-0.dtd" xmlns:inkscape="http://www.inkscape.org/namespaces/inkscape" version="1.1" x="0px" y="0px" viewBox="0 0 100 90"><g transform="translate(0,-952.36218)"><path style="text-indent:0;text-transform:none;direction:ltr;block-progression:tb;baseline-shift:baseline;color:#000000;enable-background:accumulate;" d="m 49.156248,957.55059 c -11.64216,5.3884 -23.380126,10.6079 -34.999996,16.0256 -0.685934,0.3191 -1.155896,1.0555 -1.15625,1.8118 l 0,5.9979 c 1.05e-4,1.0468 0.952831,1.9992 2,1.9993 l 2,0 0,47.98271 c -1,0 -1.975421,1.0987 -2,1.9993 l 0,3.9986 c -1,0 -1.975421,1.0987 -2,1.9993 l 0,5.9978 c 1.05e-4,1.0468 0.952831,1.9992 2,1.9993 l 69.999996,0 c 1.04717,-10e-5 1.9999,-0.9525 2,-1.9993 l 0,-5.9978 c -1e-4,-1.0469 -0.95283,-1.9992 -2,-1.9993 l 0,-3.9986 c -1e-4,-1.0468 -0.95283,-1.9992 -2,-1.9993 l 0,-47.98271 2,0 c 1.04717,-10e-5 1.9999,-0.9525 2,-1.9993 l 0,-5.9979 c -3.5e-4,-0.7563 -0.47032,-1.4927 -1.15625,-1.8118 -11.61035,-5.3677 -23.33697,-10.6955 -35,-16.0253 -0.65899,-0.2765 -1.13667,-0.2254 -1.6875,-3e-4 z m 0.84375,4.0299 25.8125,11.8083 -51.624996,0 z m -32.999996,15.8068 65.999996,0 0,1.9993 -65.999996,0 z m 4,5.9979 57.999996,0 0,47.98271 -17,0 0,-11.9957 c -10e-5,-1.0468 -0.95283,-1.9991 -2,-1.9992 -6.72369,0 -13.47748,0 -20.1875,0 -0.98316,0.093 -1.81675,1.0121 -1.8125,1.9992 l 0,11.9957 -16.999996,0 z m 3.8125,3.9985 c -0.983168,0.093 -1.816758,1.0122 -1.8125,1.9993 l 0,7.99711 c 1.05e-4,1.0469 0.952831,1.9992 2,1.9993 l 8,0 c 1.047169,-1e-4 1.999895,-0.9524 2,-1.9993 l 0,-7.99711 c -1.05e-4,-1.0468 -0.952831,-1.9992 -2,-1.9993 -2.721312,0 -5.480814,0 -8.1875,0 z m 13.999996,0 c -0.98316,0.093 -1.81675,1.0122 -1.8125,1.9993 l 0,7.99711 c 1.1e-4,1.0469 0.95284,1.9992 2,1.9993 l 8,0 c 1.04717,-1e-4 1.9999,-0.9524 2,-1.9993 l 0,-7.99711 c -10e-5,-1.0468 -0.95283,-1.9992 -2,-1.9993 -2.72131,0 -5.48081,0 -8.1875,0 z m 14,0 c -0.98316,0.093 -1.81675,1.0122 -1.8125,1.9993 l 0,7.99711 c 1.1e-4,1.0469 0.95284,1.9992 2,1.9993 l 8,0 c 1.04717,-1e-4 1.9999,-0.9524 2,-1.9993 l 0,-7.99711 c -10e-5,-1.0468 -0.95283,-1.9992 -2,-1.9993 -2.72131,0 -5.48081,0 -8.1875,0 z m 14,0 c -0.98317,0.093 -1.81676,1.0122 -1.8125,1.9993 l 0,7.99711 c 10e-5,1.0469 0.95283,1.9992 2,1.9993 l 8,0 c 1.04717,-1e-4 1.9999,-0.9524 2,-1.9993 l 0,-7.99711 c -1e-4,-1.0468 -0.95283,-1.9992 -2,-1.9993 -2.72132,0 -5.48079,0 -8.1875,0 z m -39.812496,3.9986 4,0 0,3.9986 -4,0 z m 13.999996,0 4,0 0,3.9986 -4,0 z m 14,0 4,0 0,3.9986 -4,0 z m 14,0 4,0 0,3.9986 -4,0 z m -44.187496,9.99641 c -0.983168,0.093 -1.816758,1.0121 -1.8125,1.9993 l 0,7.9971 c 1.05e-4,1.0468 0.952831,1.9992 2,1.9993 l 8,0 c 1.047169,-1e-4 1.999895,-0.9525 2,-1.9993 l 0,-7.9971 c -1.05e-4,-1.0468 -0.952831,-1.9992 -2,-1.9993 -2.721312,0 -5.480814,0 -8.1875,0 z m 13.999996,0 c -0.98316,0.093 -1.81675,1.0121 -1.8125,1.9993 l 0,7.9971 c 1.1e-4,1.0468 0.95284,1.9992 2,1.9993 l 8,0 c 1.04717,-1e-4 1.9999,-0.9525 2,-1.9993 l 0,-7.9971 c -10e-5,-1.0468 -0.95283,-1.9992 -2,-1.9993 -2.72131,0 -5.48081,0 -8.1875,0 z m 14,0 c -0.98316,0.093 -1.81675,1.0121 -1.8125,1.9993 l 0,7.9971 c 1.1e-4,1.0468 0.95284,1.9992 2,1.9993 l 8,0 c 1.04717,-1e-4 1.9999,-0.9525 2,-1.9993 l 0,-7.9971 c -10e-5,-1.0468 -0.95283,-1.9992 -2,-1.9993 -2.72131,0 -5.48081,0 -8.1875,0 z m 14,0 c -0.98317,0.093 -1.81676,1.0121 -1.8125,1.9993 l 0,7.9971 c 10e-5,1.0468 0.95283,1.9992 2,1.9993 l 8,0 c 1.04717,-1e-4 1.9999,-0.9525 2,-1.9993 l 0,-7.9971 c -1e-4,-1.0468 -0.95283,-1.9992 -2,-1.9993 -2.72132,0 -5.48079,0 -8.1875,0 z m -39.812496,3.9986 4,0 0,3.9985 -4,0 z m 13.999996,0 4,0 0,3.9985 -4,0 z m 14,0 4,0 0,3.9985 -4,0 z m 14,0 4,0 0,3.9985 -4,0 z m -27,15.9942 6,0 0,9.9964 -6,0 z m 10,0 6,0 0,9.9964 -6,0 z m -32.999996,13.995 61.999996,0 0,1.9993 -61.999996,0 z m -2,5.9979 65.999996,0 0,1.9992 -65.999996,0 z" fill="#397DC6" fill-opacity="1" stroke="none" marker="none" visibility="visible" display="inline" overflow="visible"></path></g></svg>