<svg version="1.1" id="Layer_1" xmlns="http://www.w3.org/2000/svg" x="0px" y="0px" viewBox="3 0 60 75" xml:space="preserve">
  <g id="brainiac">
    <circle fill="#92ffff" cx="50" cy="50" r="1"/>
    <circle fill="#92ffff" cx="51" cy="25" r="1"/>
    <circle fill="#92ffff" cx="13" cy="49" r="1"/>
    <circle fill="#92ffff" cx="8" cy="23" r="1"/>
    <path fill="#1E446B" d="M58.9,15.3c0.8,0.9,1.2,2.1,1.1,3.2l-3.4,37.7c-0.1,2.1-1.9,3.7-4,3.8H7.4c-2.1,0-3.8-1.7-4-3.8L0,18.5 c-0.1-1.2,0.3-2.4,1.1-3.2C1.8,14.5,2.9,14,4,14v-3c0-1.7,1.3-3,3-3c0.6,0,1-0.4,1-1V4c0-2.2,1.8-4,4-4h18c2.2,0,4,1.8,4,4v3 c0,0.6,0.5,1,1,1h18c1.7,0,3,1.3,3,3v3C57.1,14,58.2,14.5,58.9,15.3z M58,18.4c0.1-0.6-0.1-1.2-0.6-1.7C57.1,16.2,56.5,16,56,16 H4c-0.5,0-1.1,0.2-1.4,0.6C2.2,17.1,2,17.7,2,18.4l0.5,5.1l3,32.6c0.1,1.1,0.9,1.9,2,1.9h45.1c1.1,0,1.9-0.9,2-1.9l0.5-5.6 L58,18.4z M54,14v-3c0-0.6-0.5-1-1-1H35c-1.1,0-2.1-0.6-2.6-1.6C32.1,8,32,7.5,32,7V4c0-1.1-0.9-2-2-2H12c-1.1,0-2,0.9-2,2v3 c0,0.5-0.1,1-0.4,1.4C9.1,9.4,8.1,10,7,10c-0.6,0-1,0.4-1,1v3H54z"/>
    <path fill="#dde589" d="M57.4,16.6c0.4,0.5,0.6,1.1,0.6,1.7l-2.9,32.1L53,50.3c0-0.1,0-0.2,0-0.3c0-1.5-1-2.7-2.5-3 c-1.4-0.2-2.9,0.6-3.3,2h-2.8c-0.4,0-0.8-0.2-0.9-0.6L43,47.2c1.3-1.1,2-2.8,2-4.5c0-0.2,0-0.5,0-0.7c1.6-0.7,2.8-2.3,3-4.1H52 c0.5,0,1-0.5,1-1s-0.5-1-1-1h-4.2c-0.4-1.4-1.4-2.6-2.7-3.2v-0.1c0-1.5-0.5-3-1.4-4.3l0.7-1.8c0.2-0.4,0.5-0.6,0.9-0.6h2.8 c0.5,1.4,2,2.3,3.5,1.9c1.5-0.3,2.5-1.8,2.3-3.3c-0.2-1.5-1.5-2.6-3-2.6c-1.3,0-2.4,0.8-2.8,2h-2.8c-1.2,0-2.3,0.8-2.8,1.9 l-0.4,1c-1.1-0.8-2.4-1.4-3.8-1.5h0c0,0-0.1-0.1-0.1-0.1c0,0-0.1,0-0.1,0c-1.9-1.5-4.5-2-6.8-1.3c-2-1.2-4.4-1.2-6.3,0.1 c-0.6-0.3-1.3-0.4-2-0.4c-1.7,0-3.3,0.9-4.3,2.3c-0.5,0-0.9,0.1-1.3,0.2l-0.9-2.3C16,22.8,14.9,22,13.6,22h-2.8 c-0.5-1.4-1.9-2.2-3.3-2C6,20.3,5,21.5,5,23c0,0.1,0,0.2,0,0.3l-2.5,0.2L2,18.4c-0.1-0.6,0.1-1.2,0.6-1.7C2.9,16.2,3.5,16,4,16 h52C56.5,16,57.1,16.2,57.4,16.6z"/>
    <path fill="#dde589" d="M55.1 50.5l-.5 5.6c-.1 1.1-.9 1.9-2 1.9H7.4c-1.1 0-1.9-.9-2-1.9l-3-32.6L5 23.3c.1 1.3 1.1 2.5 2.5 2.7 1.4.2 2.8-.6 3.3-2h2.8c.4 0 .8.2.9.6l1 2.5c-1.1.9-1.7 2.2-1.8 3.5-.7.6-1.3 1.4-1.6 2.4H8c-.6 0-1 .5-1 1s.4 1 1 1h4c.1.7.2 1.3.6 1.9 0 3.4 2.8 6.2 6.2 6.2 0 0 0 0 0 .1 0 .1.1.2.1.2 0 0 .1.1.1.1.3.7.8 1.3 1.3 1.8l-.8 2C19.4 47.8 19 48 18.6 48h-2.8c-.5-1.4-1.9-2.2-3.3-2C11 46.3 10 47.5 10 49s1.1 2.7 2.5 3c1.4.2 2.9-.6 3.3-2h2.8c1.2 0 2.3-.8 2.8-1.9l.6-1.5c1.3.6 2.9.8 4.3.4.6 1.2 1.8 2 3.2 2h.4c.3 0 .6.2.8.4l2.8 4.2c.7 1.1 2.1 1.6 3.3 1.2 1.2-.4 2.1-1.5 2.1-2.8V49c.8-.1 1.5-.3 2.3-.6l.3.7c.5 1.1 1.6 1.9 2.8 1.9h2.8c.5 1.4 1.9 2.2 3.3 2 1.3-.2 2.4-1.3 2.5-2.7L55.1 50.5zM54 11v3H6v-3c0-.6.4-1 1-1 1.1 0 2.1-.6 2.6-1.6l2.4.2C12 8.7 12 8.9 12 9c0 .6.4 1 1 1h16c.5 0 1-.4 1-1 0-.2-.1-.4-.2-.6l2.5 0C32.9 9.4 33.9 10 35 10h18C53.5 10 54 10.4 54 11z"/>
    <path fill="#1E446B" d="M54,24.6c0.2,1.5-0.8,2.9-2.3,3.3c-1.5,0.4-3-0.5-3.5-1.9h-2.8c-0.4,0-0.8,0.2-0.9,0.6l-0.7,1.8 c0.9,1.2,1.4,2.7,1.4,4.3v0.1c1.3,0.6,2.3,1.8,2.7,3.2H52c0.5,0,1,0.5,1,1s-0.5,1-1,1h-4.1c-0.2,1.8-1.3,3.3-3,4.1 c0,0.2,0,0.5,0,0.7c0,1.7-0.8,3.3-2,4.5l0.5,1.1c0.2,0.4,0.5,0.6,0.9,0.6h2.8c0.5-1.4,1.9-2.2,3.3-2c1.4,0.2,2.5,1.5,2.5,3 c0,0.1,0,0.2,0,0.3c-0.1,1.3-1.1,2.5-2.5,2.7c-1.4,0.2-2.9-0.6-3.3-2h-2.8c-1.2,0-2.3-0.8-2.8-1.9l-0.3-0.7 c-0.7,0.3-1.5,0.5-2.3,0.6V52c0,1.3-0.8,2.5-2.1,2.8c-1.2,0.4-2.6-0.1-3.3-1.2l-2.8-4.2c-0.2-0.3-0.5-0.4-0.8-0.4h-0.4 c-1.4,0-2.6-0.8-3.2-2c-1.4,0.4-2.9,0.2-4.3-0.4l-0.6,1.5C21,49.2,19.9,50,18.6,50h-2.8c-0.5,1.4-1.9,2.2-3.3,2 C11,51.7,10,50.5,10,49s1.1-2.7,2.5-3c1.4-0.2,2.9,0.6,3.3,2h2.8c0.4,0,0.8-0.2,0.9-0.6l0.8-2c-0.5-0.5-1-1.1-1.3-1.8 c0,0-0.1-0.1-0.1-0.1c0-0.1,0-0.2-0.1-0.2c0,0,0,0,0-0.1c-3.4,0-6.2-2.8-6.2-6.2c-0.3-0.6-0.5-1.2-0.6-1.9H8c-0.6,0-1-0.5-1-1 s0.4-1,1-1h4.2c0.3-0.9,0.8-1.7,1.6-2.4c0.1-1.4,0.7-2.6,1.8-3.5l-1-2.5c-0.1-0.4-0.5-0.6-0.9-0.6h-2.8c-0.5,1.4-1.9,2.2-3.3,2 c-1.3-0.2-2.4-1.3-2.5-2.7c0-0.1,0-0.2,0-0.3c0-1.5,1.1-2.7,2.5-3c1.4-0.2,2.8,0.6,3.3,2h2.8c1.2,0,2.3,0.8,2.8,1.9l0.9,2.3 c0.4-0.1,0.9-0.2,1.3-0.2c0.9-1.5,2.6-2.3,4.3-2.3c0.7,0,1.4,0.1,2,0.4c1.9-1.3,4.4-1.3,6.3-0.1c2.4-0.7,4.9-0.2,6.8,1.3 c0,0,0,0,0.1,0c0,0,0.1,0.1,0.1,0.1h0c1.4,0.1,2.7,0.7,3.8,1.5l0.4-1c0.5-1.1,1.6-1.9,2.8-1.9h2.8c0.4-1.2,1.5-2,2.8-2 C52.5,22,53.8,23.1,54,24.6z M52,25c0-0.5-0.5-1-1-1s-1,0.5-1,1s0.5,1,1,1S52,25.5,52,25z M51,50c0-0.5-0.5-1-1-1s-1,0.5-1,1 s0.5,1,1,1S51,50.5,51,50z M43.3,40.4c1.5-0.2,2.6-1.5,2.7-3c0-1-0.5-1.9-1.3-2.5c0,0.2-0.1,0.3-0.2,0.5 c-0.2,0.5-0.8,0.8-1.3,0.6c-0.5-0.2-0.8-0.8-0.6-1.3c1-2.5,0-5.3-2.4-6.6c0.1,0.3,0,0.6-0.2,0.9c-0.2,0.2-0.5,0.4-0.8,0.4 c-0.4,0-0.8-0.2-0.9-0.6c-1.2-2.6-4.3-3.8-6.9-2.8c-0.3,0.1-0.7,0.1-1-0.1c-1.1-0.8-2.5-1-3.8-0.5c0.1,0.1,0.2,0.3,0.4,0.4 c0.2,0.3,0.3,0.7,0.1,1c-0.2,0.3-0.5,0.5-0.8,0.6c-0.4,0-0.7-0.1-0.9-0.5c-0.5-0.7-1.3-1.2-2.2-1.3c-0.9-0.1-1.8,0.2-2.4,0.7 c0,0,0.1,0,0.1,0c0.5,0.2,0.7,0.8,0.5,1.3s-0.8,0.7-1.3,0.5c-1.5-0.7-3.2-0.1-4,1.3c0.1,0,0.1,0,0.2,0c0.4-0.1,0.7,0.1,0.9,0.4 c0.2,0.3,0.3,0.7,0.1,1c-0.1,0.3-0.4,0.6-0.8,0.6c-0.5,0.1-0.9,0.2-1.3,0.5c-1.3,0.9-1.7,2.7-0.9,4.1c0,0,0,0,0,0 c0.3,0.5,0.8,0.9,1.3,1.2c0.4,0.2,0.6,0.7,0.5,1.1s-0.5,0.8-1,0.8c0,0,0,0,0,0c0.7,1.1,1.9,1.8,3.1,1.9c0-0.2,0-0.3,0-0.5 c0.2-3,3.1-5.5,6.5-5.5h4l0-1c0-0.5,0.2-1.1,0.5-1.5c0.4-0.4,0.9-0.6,1.5-0.5h2c0.5,0,1,0.5,1,1s-0.5,1-1,1h-2l0,1 c0,0.5-0.2,1.1-0.5,1.5C30.1,36.8,29.5,37,29,37h-4c-2.4,0-4.5,1.7-4.5,3.6c0,0.7,0.1,1.3,0.3,1.9c0.6,1.4,1.8,2.3,3.2,2.6 c1.4,0.2,2.9-0.3,3.9-1.3c-0.1-0.1-0.3-0.2-0.5-0.3c-0.4-0.3-0.5-1-0.1-1.4c0.3-0.4,1-0.5,1.4-0.1c1.5,1.2,3.5,1.7,5.3,1.4 c1.9-0.3,3.6-1.5,4.6-3.1c-0.3-0.4-0.5-0.8-0.6-1.3c-0.1-0.3,0-0.7,0.2-1c0.2-0.3,0.6-0.4,1-0.3c0.3,0.1,0.6,0.4,0.7,0.7 C40.4,39.8,41.8,40.7,43.3,40.4z M43,42.8c0-0.1,0-0.2,0-0.3c0,0,0,0-0.1,0c-1,0-2-0.3-2.8-0.9c-1.3,1.9-3.2,3.1-5.4,3.6 c0.7,0.8,1.6,1.4,2.6,1.6c0.2,0.1,0.5,0.1,0.8,0.1c0,0,0.1,0,0.1,0c0.1,0,0.2,0,0.2,0C40.8,47.1,42.9,45.2,43,42.8z M37,52v-3.2 c-0.1,0-0.1,0-0.2,0c-1.9-0.4-3.6-1.7-4.5-3.4c-0.9-0.1-1.8-0.3-2.7-0.6c-0.4,0.5-0.9,1-1.5,1.4c0.2,0.5,0.8,0.8,1.4,0.8h0.4 c1,0,1.9,0.5,2.5,1.3l2.8,4.2c0.2,0.3,0.5,0.4,0.8,0.4c0.2,0,0.5-0.1,0.7-0.3C36.9,52.5,37,52.3,37,52z M14,49c0-0.5-0.4-1-1-1 s-1,0.5-1,1s0.4,1,1,1S14,49.5,14,49z M9,23c0-0.5-0.4-1-1-1s-1,0.5-1,1s0.4,1,1,1S9,23.5,9,23z" />
    <path fill="#F7B582" d="M46 37.4c0 1.5-1.2 2.8-2.7 3-1.5.2-3-.7-3.4-2.1-.1-.3-.4-.6-.7-.7-.4-.1-.7 0-1 .3-.2.3-.3.6-.2 1 .1.5.3.9.6 1.3-1 1.7-2.7 2.8-4.6 3.1-1.9.3-3.8-.2-5.3-1.4-.4-.4-1.1-.3-1.4.1-.4.4-.3 1.1.1 1.4.1.1.3.2.5.3-1 1.1-2.4 1.6-3.9 1.3-1.4-.2-2.6-1.2-3.2-2.6-.2-.6-.4-1.3-.3-1.9.1-2 2.2-3.6 4.5-3.6h4c.5 0 1.1-.2 1.5-.5.4-.4.6-.9.5-1.5l0-1h2c.5 0 1-.5 1-1s-.5-1-1-1h-2c-.5 0-1.1.2-1.5.5C29.2 32.9 29 33.5 29 34l0 1h-4c-3.5 0-6.4 2.5-6.5 5.5 0 .2 0 .3 0 .5-1.3-.1-2.4-.8-3.1-1.9 0 0 0 0 0 0 .5 0 .9-.3 1-.8s-.1-.9-.5-1.1c-.5-.3-1-.7-1.3-1.2 0 0 0 0 0 0-.8-1.4-.5-3.2.9-4.1.4-.3.9-.4 1.3-.5.4 0 .7-.3.8-.6.1-.3.1-.7-.1-1-.2-.3-.6-.4-.9-.4-.1 0-.1 0-.2 0 .8-1.4 2.5-2 4-1.3.5.2 1.1 0 1.3-.5s0-1.1-.5-1.3c0 0-.1 0-.1 0 .7-.6 1.5-.8 2.4-.7.9.1 1.7.6 2.2 1.3.2.3.5.5.9.5.4 0 .7-.2.8-.6.1-.3.1-.7-.1-1-.1-.1-.2-.3-.4-.4 1.2-.5 2.7-.3 3.8.5.3.2.7.3 1 .1 2.7-1 5.7.2 6.9 2.8.2.4.5.6.9.6.3 0 .6-.1.8-.4.2-.2.2-.6.2-.9 2.3 1.3 3.3 4.1 2.4 6.6-.2.5 0 1.1.6 1.3.5.2 1.1 0 1.3-.6.1-.2.1-.3.2-.5C45.5 35.5 46 36.4 46 37.4zM43 42.5c0 .1 0 .2 0 .3-.1 2.4-2.2 4.3-4.6 4.2-.1 0-.2 0-.2 0 0 0-.1 0-.1 0-.3 0-.5 0-.8-.1-1-.2-2-.8-2.6-1.6 2.2-.5 4.1-1.7 5.4-3.6C40.9 42.2 41.9 42.5 43 42.5 42.9 42.5 43 42.5 43 42.5zM37 48.8V52c0 .2-.1.5-.3.7C36.5 52.9 36.3 53 36 53c-.3 0-.6-.2-.8-.4l-2.8-4.2c-.5-.8-1.5-1.3-2.5-1.3h-.4c-.6 0-1.1-.3-1.4-.8.6-.4 1.1-.8 1.5-1.4.9.3 1.8.6 2.7.6.9 1.8 2.5 3 4.5 3.4C36.9 48.8 36.9 48.8 37 48.8z"/>
    <path fill="#dde589" d="M32.4,8.4l-2.5,0C29.6,8.2,29.3,8,29,8H13c-0.4,0-0.8,0.2-0.9,0.6L9.6,8.4C9.9,8,10,7.5,10,7V4 c0-1.1,0.9-2,2-2h18c1.1,0,2,0.9,2,2v3C32,7.5,32.1,8,32.4,8.4z"/>
    <path fill="#1E446B" d="M29.8,8.4C29.9,8.6,30,8.8,30,9c0,0.6-0.5,1-1,1H13c-0.6,0-1-0.4-1-1c0-0.1,0-0.3,0.1-0.4 C12.2,8.2,12.6,8,13,8h16C29.3,8,29.6,8.2,29.8,8.4z"/>
  </g>
</svg>
