<?xml version="1.0" encoding="utf-8"?>
<!-- Generator: Adobe Illustrator 19.2.1, SVG Export Plug-In . SVG Version: 6.00 Build 0)  -->
<svg version="1.1" id="Layer_1" xmlns="http://www.w3.org/2000/svg" xmlns:xlink="http://www.w3.org/1999/xlink" x="0px" y="0px" viewBox="0 0 64 70" style="enable-background:new 0 0 64 80;" xml:space="preserve">
    <style type="text/css">
	.st0{fill:#FFFFFF;}
</style>
    <path class="st0" d="M24.2,42.1v4c0,0.6,0.4,1,1,1h1v9c0,0.6,0.4,1,1,1h1v6.2c-1.2,0.4-2,1.5-2,2.8v2c0,0.6,0.4,1,1,1h4
	c0.6,0,1-0.4,1-1v-2c0-1.3-0.8-2.4-2-2.8v-6.2h6v6.2c-1.2,0.4-2,1.5-2,2.8v2c0,0.6,0.4,1,1,1h4c0.6,0,1-0.4,1-1v-2
	c0-1.3-0.8-2.4-2-2.8v-6.2h1c0.6,0,1-0.4,1-1v-9h1c0.6,0,1-0.4,1-1v-4c2.8,0,5-2.5,5-5.5s-2.2-5.5-5-5.5l0,0c0-2.2-1.8-4-4-4h-2
	v-2.6c2.9-1.2,5-4.1,5-7.4c0-4.4-3.6-8-8-8s-8,3.6-8,8c0,3.4,2.1,6.2,5,7.4v2.6h-2c-2.2,0-4,1.8-4,4l0,0c-2.8,0-5,2.5-5,5.5
	S21.5,42.1,24.2,42.1z M30.2,67.1h-2v-1c0-0.6,0.4-1,1-1s1,0.4,1,1V67.1z M38.2,67.1h-2v-1c0-0.6,0.4-1,1-1s1,0.4,1,1V67.1z
	 M38.2,55.1h-4v-4h-2v4h-4v-8h10V55.1z M45.2,36.6c0,1.9-1.3,3.5-3,3.5v-7C43.9,33.1,45.2,34.7,45.2,36.6z M27.2,17.1
	c0-3.3,2.7-6,6-6s6,2.7,6,6c0,2.7-1.8,5-4.3,5.7c-0.3,0.1-0.5,0.1-0.8,0.2H34c-0.5,0.1-1.1,0.1-1.6,0h-0.1c-0.3,0-0.5-0.1-0.8-0.2
	C29,22.2,27.2,19.9,27.2,17.1z M32.2,25.1C32.3,25.1,32.3,25.1,32.2,25.1c0.4,0,0.7,0.1,1,0.1s0.6,0,0.9-0.1c0,0,0,0,0.1,0v2.1h-2
	V25.1z M26.2,31.2c0-1.1,0.9-2,2-2h3h4h3c1.1,0,2,0.9,2,2v1.1V41v4.2h-14V41v-8.7V31.2z M24.2,33.1v7c-1.7,0-3-1.6-3-3.5
	S22.6,33.1,24.2,33.1z"></path>
    <path class="st0" d="M29,41.9h8c0.6,0,1-0.4,1-1v-4c0-0.6-0.4-1-1-1h-8c-0.6,0-1,0.4-1,1v4C28,41.5,28.5,41.9,29,41.9z M30,37.9h6v2
	h-6V37.9z"></path>
    <rect x="31.4" y="32.2" class="st0" width="4" height="2"></rect>
</svg>    
