<svg xmlns="http://www.w3.org/2000/svg" viewBox="0 0 78 78" x="0px" y="0px"><path d="M305,434 C300.029437,434 296,429.970563 296,425 C296,420.029437 300.029437,416 305,416 C309.970563,416 314,420.029437 314,425 C314,429.970563 309.970563,434 305,434 Z M305,430 C307.761424,430 310,427.761424 310,425 C310,422.238576 307.761424,420 305,420 C302.238576,420 300,422.238576 300,425 C300,427.761424 302.238576,430 305,430 Z M318,452 L318,472 C318,473.104569 317.104569,474 316,474 C314.895431,474 314,473.104569 314,472 L314,450 C314,448.895431 314.895431,448 316,448 L335,448 C336.656854,448 338,446.656854 338,445 C338,443.343146 336.656854,442 335,442 L304,442 C301.790861,442 300,443.790861 300,446 L300,472 C300,473.104569 299.104569,474 298,474 C296.895431,474 296,473.104569 296,472 L296,446 C296,441.581722 299.581722,438 304,438 L335,438 C338.865993,438 342,441.134007 342,445 C342,448.865993 338.865993,452 335,452 L318,452 Z M320,422 C318.895431,422 318,421.104569 318,420 C318,418.895431 318.895431,418 320,418 L358,418 C361.313708,418 364,420.686292 364,424 L364,454 C364,457.313708 361.313708,460 358,460 L338,460 C336.895431,460 336,459.104569 336,458 C336,456.895431 336.895431,456 338,456 L358,456 C359.104569,456 360,455.104569 360,454 L360,424 C360,422.895431 359.104569,422 358,422 L320,422 Z" transform="translate(-296 -416)"></path></svg>