<svg id="Layer_1" data-name="Layer 1" xmlns="http://www.w3.org/2000/svg" viewBox="0 0 50.89 47.5"><title>trains_1</title><circle cx="23.55" cy="12.43" r="0.8" transform="translate(-8.38 8.71) rotate(-20.34)"/><path d="M56.41,31.68a1.79,1.79,0,0,0-1.46-1.2,4,4,0,0,0-1.75-.08,1.94,1.94,0,0,0-.42.16,7.84,7.84,0,0,0-.21-1.79h0.25a2,2,0,0,0,.86-0.2c0.76-.38,2.26-1.85,1.69-3s-2.65-.89-3.42-0.51a1.94,1.94,0,0,0-.8.72,7.83,7.83,0,0,0-1.08-1.15,1.94,1.94,0,0,0,.74-0.6,4,4,0,0,0,.6-1.65,1.79,1.79,0,0,0-.56-1.79c-1.06-.74-2.75.51-3.24,1.2,0,0-.05.1-0.08,0.15l-0.42-1.69,0.31,0a1.73,1.73,0,0,0,.56-0.1c0.69-.24,2.13-1.35,1.76-2.42s-2.18-1.08-2.88-.84a1.7,1.7,0,0,0-.51.29l-0.51-2.05A1.67,1.67,0,0,0,47,15.3c0.69-.19,2.23-1.14,2-2.21A1.58,1.58,0,0,0,47.7,12a3.27,3.27,0,0,0-1.5-.08,1.7,1.7,0,0,0-.54.23,3.35,3.35,0,0,0-.3-0.66,1.69,1.69,0,0,0,.86-0.5c0.6-.6,1.2-2.21.39-2.93s-2.39.08-2.9,0.6a1.69,1.69,0,0,0-.45,1.12,5.22,5.22,0,0,0-.64-0.2,1.69,1.69,0,0,0,.25-1C42.82,7.84,42.12,6.17,41,6.29a1.58,1.58,0,0,0-1.23,1.1,3.28,3.28,0,0,0-.28,1.45,1.69,1.69,0,0,0,.27.78c-2.74.68-4.53,3-4,5.22,0.44,1.79,2.3,3,4.47,3h0.22a16.48,16.48,0,0,0-.84,3.07l-1.34-1h0l-2.15-1.2a0.6,0.6,0,1,0-.6,1l0.93,0.51-0.6.19a0.6,0.6,0,1,0,.33,1.15h0l1.62-.53,1.6,1.13c-0.07.6-.11,1.23-0.12,1.86l-0.88-.41H38.36L36,22.89A0.6,0.6,0,1,0,35.68,24h0l1,0.32-0.55.31a0.6,0.6,0,1,0,.6,1l1.5-.84,1.13,0.51a12.68,12.68,0,0,0,.11,1.5,23.37,23.37,0,0,0,1.79,7.51L40.44,35.7H39.62a0.6,0.6,0,0,0-.6.6v6H37.23v-6a0.6,0.6,0,0,0-.6-0.6H36V28a6.62,6.62,0,0,0-6.27-6.67H29.52a5.23,5.23,0,0,0-.83.16L26.89,13a0.6,0.6,0,0,0-.08-0.18h0a2.32,2.32,0,0,0,0-.42h0.06a2,2,0,0,0,1.79-1.13c0.36-.77.6-2.85-0.57-3.4s-2.62,1-3,1.73A2,2,0,0,0,25,10l-0.31-.17L24,8,24,7.88a0.8,0.8,0,1,0-1.07.4,0.6,0.6,0,0,0,0,.13l0.43,1.17a2.32,2.32,0,0,0-1.45.82l-2.43,3A2.51,2.51,0,0,0,23,16.93l0.2-.17,1.33,7.18A6.47,6.47,0,0,0,22.88,28V35.7a0.6,0.6,0,0,0-.6.6v6H20.48v-6a0.6,0.6,0,0,0-.6-0.6H13.48c0.85-1.9,1.3-4.72,1.53-9.57a6.19,6.19,0,0,0,0-5.74,0.6,0.6,0,0,0,0-.14,30.86,30.86,0,0,0-.6-4.79h0a1.4,1.4,0,0,0,.92-1.29A1.7,1.7,0,0,0,14.69,13a6.52,6.52,0,0,0,3.85-6.23C18.54,3.2,16.07.25,13,.25s-5.5,2.93-5.5,6.54c0,3.09,1.79,5.69,4.25,6.36a1.57,1.57,0,0,0-.51,1c0,0.86.8,1.47,1.94,1.49v0a27.52,27.52,0,0,1,.47,3.13,4,4,0,0,0-2.54-.92c-2.5,0-4.53,2.39-4.53,5.38a5.34,5.34,0,0,0,3.28,5.17,1.85,1.85,0,0,0-.79,1.26,1,1,0,0,0,.88.92,3.75,3.75,0,0,0,.67.11,9.13,9.13,0,0,0-.05.92,6.46,6.46,0,0,0,1,4H6.13a0.6,0.6,0,0,0-.6.6v8.37a0.6,0.6,0,0,0,.6.6H6.83v0a2.43,2.43,0,1,0,4.86,0v0h1.73v0a2.43,2.43,0,1,0,4.86,0v0h1.6a0.6,0.6,0,0,0,.6-0.6v-1.2h1.79v1.2a0.6,0.6,0,0,0,.6.6h0.71v0a2.43,2.43,0,1,0,4.86,0v0h1.73v0a2.43,2.43,0,1,0,4.86,0v0h1.6a0.6,0.6,0,0,0,.6-0.6v-1.2H39v1.2a0.6,0.6,0,0,0,.6.6h0.78v0a2.43,2.43,0,1,0,4.86,0v0H47v0a2.43,2.43,0,1,0,4.86,0v0h1.52a0.6,0.6,0,0,0,.6-0.6V36.3a0.6,0.6,0,0,0-.6-0.6h-0.6V34.07a1.91,1.91,0,0,0,1.3.16,4,4,0,0,0,1.54-.83A1.79,1.79,0,0,0,56.41,31.68Zm-4.32-5.11a0.76,0.76,0,0,1,.39-0.44,2.56,2.56,0,0,1,1.06-.2,1.2,1.2,0,0,1,.75.16,2.3,2.3,0,0,1-1.14,1.41,0.77,0.77,0,0,1-1-.35h0a0.76,0.76,0,0,1,0-.58h0ZM47.24,18A1.67,1.67,0,0,1,47.75,18a1.72,1.72,0,0,1,.84.17,2.08,2.08,0,0,1-1,.9,0.53,0.53,0,0,1-.67-0.33h0A0.53,0.53,0,0,1,47.23,18h0ZM11.9,30.71c0.83-.12,1.28-0.46,1.28-1a1.85,1.85,0,0,0-.76-1.26,4.24,4.24,0,0,0,1.3-.72,25.25,25.25,0,0,1-1.2,7.14,5.35,5.35,0,0,1-.69-3.21A7.93,7.93,0,0,1,11.9,30.71ZM8.75,6.79c0-2.94,1.93-5.34,4.3-5.34s4.3,2.39,4.3,5.34-1.93,5.34-4.3,5.34S8.75,9.73,8.75,6.79Zm3.73,7.42a2.69,2.69,0,0,1,.83-0.75,2.93,2.93,0,0,1,.83.71,1,1,0,0,1-.82.28,1.1,1.1,0,0,1-.83-0.23h0ZM7.82,23.29c0-2.31,1.5-4.19,3.34-4.19S14.5,21,14.5,23.29s-1.5,4.19-3.34,4.19S7.82,25.6,7.82,23.29ZM11.16,29a4.64,4.64,0,0,1,.65.52,4.47,4.47,0,0,1-1.29,0A4.7,4.7,0,0,1,11.16,29h0ZM9.26,46.56a1.23,1.23,0,1,1,1.23-1.23h0A1.23,1.23,0,0,1,9.26,46.56Zm6.58,0a1.23,1.23,0,1,1,1.23-1.23h0A1.23,1.23,0,0,1,15.84,46.56Zm3.45-2.48h-1.2l-0.16,0a2.39,2.39,0,0,0-4.19,0H11.51l-0.16,0a2.39,2.39,0,0,0-4.19,0H6.73V36.9H19.29v7.18Zm6.85-34a2.48,2.48,0,0,1,1.35-1.2h0a2.26,2.26,0,0,1,0,1.79,0.77,0.77,0,1,1-1.39-.65h0v0.05Zm-4,5.91,0,0a1.34,1.34,0,0,1-1.85,0,1.31,1.31,0,0,1,0-1.85l0-.06,2.45-3a1.12,1.12,0,0,1,.82-0.42h0.06a1.12,1.12,0,0,1,.8.33l0.84,0.82a1.13,1.13,0,0,1,0,1.6l-0.08.08Zm1.91,12a5.26,5.26,0,0,1,1.3-3.29,0.6,0.6,0,0,0,.34-0.65L24.2,15.92l1.73-1.41h0l1.73,8a0.6,0.6,0,0,0,1.05.25,3,3,0,0,1,1-.25A5.39,5.39,0,0,1,34.84,28V35.7H32.45V33.14a2.86,2.86,0,0,0-2.63-2.82H29.55a2.73,2.73,0,0,0-2.49,2.82V35.7h-3V28Zm4.19,7.7V33.14a1.54,1.54,0,0,1,1.42-1.63,1.66,1.66,0,0,1,1.57,1.63V35.7h-3ZM26,46.56a1.23,1.23,0,1,1,1.23-1.23h0A1.23,1.23,0,0,1,26,46.56Zm6.58,0a1.23,1.23,0,1,1,1.23-1.23h0A1.23,1.23,0,0,1,32.58,46.56ZM36,44.08h-1.2l-0.16,0a2.39,2.39,0,0,0-4.19,0H28.26l-0.16,0a2.39,2.39,0,0,0-4.19,0H23.47V36.9H36v7.18ZM48.6,22.44a2.6,2.6,0,0,1,1.49-.93h0.08a2.3,2.3,0,0,1-.31,1.79A0.77,0.77,0,0,1,48.6,22.44ZM46.2,13.33a0.5,0.5,0,0,1,.32-0.22h0.25a2,2,0,0,1,1,.26,2.05,2.05,0,0,1-1.07.75,0.51,0.51,0,0,1-.6-0.39h0a0.51,0.51,0,0,1,0-.41h0ZM44.66,9.5A2.15,2.15,0,0,1,45.82,9h0a2.05,2.05,0,0,1-.45,1.23,0.51,0.51,0,1,1-.75-0.69h0Zm-3.51-2a2.05,2.05,0,0,1,.6,1.17,0.51,0.51,0,0,1-.46.55h0a0.52,0.52,0,0,1-.37-0.12,0.51,0.51,0,0,1-.18-0.35,2.05,2.05,0,0,1,.38-1.25h0ZM37,14.56c-0.38-1.56,1-3.26,3.12-3.78a5.17,5.17,0,0,1,1.24-.15c1.62,0,3,.8,3.28,2A2.57,2.57,0,0,1,44,14.9a4.64,4.64,0,0,1-2.54,1.56c-2.1.53-4.13-.32-4.52-1.89h0Zm7,17.71a2.8,2.8,0,0,1,3.88-.76h0a2.08,2.08,0,0,1,.55,2.89h0l-0.76,1.11a0.6,0.6,0,0,0-.07.16H41.84ZM42.84,46.56a1.23,1.23,0,1,1,1.23-1.23h0A1.23,1.23,0,0,1,42.84,46.56Zm6.58,0a1.23,1.23,0,1,1,1.23-1.23h0A1.23,1.23,0,0,1,49.42,46.56Zm3.37-2.48H51.5a2.39,2.39,0,0,0-4.19,0H44.92a2.39,2.39,0,0,0-4.19,0H40.22V36.9H52.78v7.18ZM49,35.7l0.41-.6a3.28,3.28,0,0,0-.86-4.56,4,4,0,0,0-5.55,1l0,0L42,33.14a24.9,24.9,0,0,1-1.39-6.41A20.64,20.64,0,0,1,40.55,23l0.72,0.51A0.6,0.6,0,0,0,42,22.54l-1.26-.91a15.09,15.09,0,0,1,1.15-4,5.88,5.88,0,0,0,2.92-1.75l1.83,7.37v0.07L46.86,24a0.6,0.6,0,0,0,.35.35,6.58,6.58,0,0,1,4.37,6.24V35.7H49Zm4.86-2.64a0.77,0.77,0,1,1-.34-1.5,2.42,2.42,0,0,1,1.79.38C55.37,32.16,54.45,32.91,53.81,33.06Z" transform="translate(-5.53 -0.25)"/><circle cx="33.98" cy="11.89" r="0.45"/><circle cx="36.44" cy="12.34" r="0.45"/><path d="M41.79,15a0.3,0.3,0,0,0-.42,0h0a2,2,0,0,1-1.79.15,1.89,1.89,0,0,1-1.38-1.27,0.3,0.3,0,1,0-.6.06,2.39,2.39,0,0,0,1.79,1.79,3.29,3.29,0,0,0,1,.16,2.08,2.08,0,0,0,1.35-.43A0.3,0.3,0,0,0,41.8,15v0Z" transform="translate(-5.53 -0.25)"/></svg>