<svg id="Layer_1" data-name="Layer 1" xmlns="http://www.w3.org/2000/svg" viewBox="0 0 59.17 12"><title>trains_6</title><path d="M59.78,35.89H58.6V18.14H53.87V16.36H49.13v1.78H40.85V16.36H36.12v1.78H31.38V35.89H29V18.14H24.28V16.36H19.55v1.78H11.27V16.36H6.53v1.78H1.8V35.89H0.62v5.33H3.15a4.25,4.25,0,0,0,1.69,6.51h0a4.84,4.84,0,0,0,1.5.29,5.08,5.08,0,0,0,1.16-.1,3.66,3.66,0,0,0,1.07-.35,3.42,3.42,0,0,0,.69-0.49,4.56,4.56,0,0,0,1-1.28,5.27,5.27,0,0,0,.39-1,5.49,5.49,0,0,0,.19-1h0a4.24,4.24,0,0,0-.89-2.59h2.37a4.4,4.4,0,0,0-.87,3.12,4.53,4.53,0,0,0,.79,1.93,4.4,4.4,0,0,0,.84.91,4.17,4.17,0,0,0,1.47.75,4.57,4.57,0,0,0,2.17,0,3.92,3.92,0,0,0,1.12-.35,3.72,3.72,0,0,0,.94-0.67,3.5,3.5,0,0,0,1-2.32l20.85,0.14A4.28,4.28,0,0,0,43,47.69a5.13,5.13,0,0,0,3.72-.13,4.23,4.23,0,0,0,1.4-6.35h2.37a4.25,4.25,0,0,0,.77,6l0.2,0.13a4.67,4.67,0,0,0,2.68.69,4.57,4.57,0,0,0,1.81-.5,4.23,4.23,0,0,0,1.31-6.29h2.53V35.89Zm-5.92-16h3v1.78h-3V19.91Zm0,3.55h3v1.78h-3V23.46Zm0,3.55h3v1.77h-3V27Zm0,3.55h3v1.78h-3V30.56Zm0,3.55h3v1.78h-3V34.11Zm-3-16h1.18v17.7H50.91V18.14ZM40.85,19.91h8.28v1.78H40.85V19.91Zm0,3.55h8.28v1.78H40.85V23.46Zm0,3.55h8.28v1.77H40.85V27Zm0,3.55h8.28v1.78H40.85V30.56Zm0,3.55h8.28v1.78H40.85V34.11Zm-3-16h1.18v17.7H37.89V18.14Zm-4.73,1.77h3v1.78h-3V19.91Zm0,3.55h3v1.78h-3V23.46Zm0,3.55h3v1.77h-3V27Zm0,3.55h3v1.78h-3V30.56Zm0,3.55h3v1.78h-3V34.11Zm-8.88-14.2h3v1.78h-3V19.91Zm0,3.55h3v1.78h-3V23.46Zm0,3.55h3v1.77h-3V27Zm0,3.55h3v1.78h-3V30.56Zm0,3.55h3v1.78h-3V34.11Zm-3-16h1.18v17.7H21.32V18.14ZM11.27,19.91h8.28v1.78H11.27V19.91Zm0,3.55h8.28v1.78H11.27V23.46Zm0,3.55h8.28v1.77H11.27V27Zm0,3.55h8.28v1.78H11.27V30.56Zm0,3.55h8.28v1.78H11.27V34.11Zm-3-16H9.49v17.7H8.31V18.14ZM3.57,19.91h3v1.78h-3V19.91Zm0,3.55h3v1.78h-3V23.46Zm0,3.55h3v1.77h-3V27Zm0,3.55h3v1.78h-3V30.56Zm0,3.55h3v1.78h-3V34.11Zm3,12.18A2.5,2.5,0,0,1,4,43.8H4A2.49,2.49,0,1,1,6.53,46.29Zm11.6-2.5a2.51,2.51,0,1,1-1.78-2.37l1.78,2.15V43.8Zm27.09,2.45a2.49,2.49,0,0,1-2.91-2q0-.08,0-0.16l2-2.76A2.49,2.49,0,1,1,45.22,46.25Zm8.65,0a2.49,2.49,0,1,1,2.49-2.49A2.49,2.49,0,0,1,53.87,46.29ZM58,39.44l-14.49,0L40.93,43h-21L17,39.41l-14.6,0V37.66H58v1.78Z" transform="translate(-0.62 -16.36)"/><circle cx="5.72" cy="27.26" r="0.89"/><circle cx="14.8" cy="27.26" r="0.89"/><circle cx="43.94" cy="27.26" r="0.89"/><circle cx="53.06" cy="27.26" r="0.89"/></svg>