<svg id="Layer_1" data-name="Layer 1" xmlns="http://www.w3.org/2000/svg" viewBox="0 0 50.02 47.19"><title>trains_7</title><path d="M22.5,38.48a3.15,3.15,0,1,0,3.33,3.15A3.24,3.24,0,0,0,22.5,38.48Zm0,4.72a1.58,1.58,0,1,1,1.67-1.57A1.62,1.62,0,0,1,22.5,43.2Z" transform="translate(-4.99 -0.73)"/><path d="M37.5,38.48a3.15,3.15,0,1,0,3.33,3.15A3.24,3.24,0,0,0,37.5,38.48Zm0,4.72a1.58,1.58,0,1,1,1.67-1.57A1.62,1.62,0,0,1,37.5,43.2Z" transform="translate(-4.99 -0.73)"/><path d="M19.16,33.76H20a0.79,0.79,0,1,0,0-1.57H19.16A0.79,0.79,0,1,0,19.16,33.76Z" transform="translate(-4.99 -0.73)"/><path d="M23.33,33.76h0.83a0.79,0.79,0,1,0,0-1.57H23.33A0.79,0.79,0,1,0,23.33,33.76Z" transform="translate(-4.99 -0.73)"/><path d="M27.5,33.76h0.83a0.79,0.79,0,1,0,0-1.57H27.5A0.79,0.79,0,1,0,27.5,33.76Z" transform="translate(-4.99 -0.73)"/><path d="M31.67,33.76H32.5a0.79,0.79,0,1,0,0-1.57H31.67A0.79,0.79,0,1,0,31.67,33.76Z" transform="translate(-4.99 -0.73)"/><path d="M35.84,33.76h0.83a0.79,0.79,0,1,0,0-1.57H35.84A0.79,0.79,0,1,0,35.84,33.76Z" transform="translate(-4.99 -0.73)"/><path d="M40,33.76h0.83a0.79,0.79,0,1,0,0-1.57H40A0.79,0.79,0,1,0,40,33.76Z" transform="translate(-4.99 -0.73)"/><path d="M16.66,23.54a0.81,0.81,0,0,0-.83.79v0.79a0.84,0.84,0,0,0,1.67,0V24.32A0.81,0.81,0,0,0,16.66,23.54Z" transform="translate(-4.99 -0.73)"/><path d="M39.17,23.54a0.81,0.81,0,0,0-.83.79v0.79a0.84,0.84,0,0,0,1.67,0V24.32A0.81,0.81,0,0,0,39.17,23.54Z" transform="translate(-4.99 -0.73)"/><path d="M16.66,8.59H15.83a0.79,0.79,0,1,0,0,1.57h0.83A0.79,0.79,0,1,0,16.66,8.59Z" transform="translate(-4.99 -0.73)"/><path d="M23.33,7.81H22.5a0.79,0.79,0,1,0,0,1.57h0.83A0.79,0.79,0,1,0,23.33,7.81Z" transform="translate(-4.99 -0.73)"/><path d="M30.83,5.45H30A0.79,0.79,0,1,0,30,7h0.83A0.79,0.79,0,1,0,30.83,5.45Z" transform="translate(-4.99 -0.73)"/><path d="M29.17,8.59H28.33a0.79,0.79,0,1,0,0,1.57h0.83A0.79,0.79,0,1,0,29.17,8.59Z" transform="translate(-4.99 -0.73)"/><path d="M35.84,7H35a0.79,0.79,0,1,0,0,1.57h0.83A0.79,0.79,0,1,0,35.84,7Z" transform="translate(-4.99 -0.73)"/><path d="M41.67,8.59H40.84a0.79,0.79,0,1,0,0,1.57h0.83A0.79,0.79,0,1,0,41.67,8.59Z" transform="translate(-4.99 -0.73)"/><path d="M54.17,40.84h-2.5a2.43,2.43,0,0,0-2.5-2.36H46.73L48.28,18h3.39a0.81,0.81,0,0,0,.83-0.79V12.53a0.81,0.81,0,0,0-.83-0.79h-3a3,3,0,0,0,.46-1.57A3.26,3.26,0,0,0,45.8,7H45.5a4.2,4.2,0,0,0-3.83-2.38,4.29,4.29,0,0,0-2.14.57,4.21,4.21,0,0,0-3.69-2.14,4.26,4.26,0,0,0-1.13.16A4.24,4.24,0,0,0,29.33,1a4,4,0,0,0-2.6,3,5.2,5.2,0,0,0-3.36.54A5.17,5.17,0,0,0,16.49,3a4.76,4.76,0,0,0-2.06,2.46,4,4,0,0,0-3.61,3.9,3.75,3.75,0,0,0,.86,2.36H8.33a0.81,0.81,0,0,0-.83.79v4.72a0.81,0.81,0,0,0,.83.79h3.39l1.55,20.45H10.83a2.43,2.43,0,0,0-2.5,2.36H5.83a0.79,0.79,0,1,0,0,1.57h2.5a2.43,2.43,0,0,0,2.5,2.36h5.9a6.87,6.87,0,0,0,9.09,2.31,6.48,6.48,0,0,0,2.45-2.31h3.47a6.87,6.87,0,0,0,9.09,2.31,6.48,6.48,0,0,0,2.45-2.31h5.9a2.43,2.43,0,0,0,2.5-2.36h2.5A0.79,0.79,0,1,0,54.17,40.84ZM45.78,29H14.22L13.39,18h2.44v3.15a0.84,0.84,0,0,0,1.67,0V18h1.67v7.08a0.84,0.84,0,0,0,1.67,0V18H25v4.72a0.84,0.84,0,0,0,1.67,0V18h1.67V25.9a0.84,0.84,0,0,0,1.67,0V18h5v6.29a0.84,0.84,0,0,0,1.67,0V18h1.67v3.15a0.84,0.84,0,0,0,1.67,0V18h2.5v4.72a0.84,0.84,0,0,0,1.67,0V18h2.44ZM12.49,9.38A2.43,2.43,0,0,1,14.91,7h0.14a0.82,0.82,0,0,0,.84-0.63A3.32,3.32,0,0,1,19.8,3.94a3.27,3.27,0,0,1,2.48,2,0.86,0.86,0,0,0,1.34.31,3.46,3.46,0,0,1,3.57-.53,0.85,0.85,0,0,0,1.1-.4,0.75,0.75,0,0,0,.07-0.41l0-.12a1,1,0,0,1,0-.14,2.5,2.5,0,0,1,5-.25,0.82,0.82,0,0,0,.92.7A0.87,0.87,0,0,0,34.56,5a2.57,2.57,0,0,1,1.27-.34,2.46,2.46,0,0,1,2.46,2,0.83,0.83,0,0,0,.94.67,0.85,0.85,0,0,0,.52-0.27,2.59,2.59,0,0,1,3.5-.32,2.32,2.32,0,0,1,.86,1.36,0.83,0.83,0,0,0,1,.62l0.14,0a1.7,1.7,0,0,1,2.16.89,1.55,1.55,0,0,1-.95,2,1.76,1.76,0,0,1-.61.11H15A2.43,2.43,0,0,1,12.49,9.38ZM9.16,13.31H50.84v3.15H9.16V13.31Zm5.18,17.3H45.66l-0.6,7.87H43.27a6.87,6.87,0,0,0-9.09-2.31,6.48,6.48,0,0,0-2.45,2.31H28.26a6.87,6.87,0,0,0-9.09-2.31,6.48,6.48,0,0,0-2.45,2.31H14.94ZM10.83,43.2A0.81,0.81,0,0,1,10,42.41V40.84a0.81,0.81,0,0,1,.83-0.79H16a5.75,5.75,0,0,0,0,3.15H10.83ZM22.5,46.35a4.73,4.73,0,1,1,0-9.44A4.73,4.73,0,1,1,22.5,46.35Zm6.45-3.15a5.75,5.75,0,0,0,0-3.15h2.11a5.75,5.75,0,0,0,0,3.15H28.95Zm8.56,3.15a4.73,4.73,0,1,1,5-4.72A4.87,4.87,0,0,1,37.5,46.35ZM50,42.41a0.81,0.81,0,0,1-.83.79H44a5.75,5.75,0,0,0,0-3.15h5.22a0.81,0.81,0,0,1,.83.79v1.57Z" transform="translate(-4.99 -0.73)"/></svg>