<svg xmlns="http://www.w3.org/2000/svg" viewBox="0 0 47.15 55"><title>trains_9</title><g style="isolation:isolate"><g id="Layer_1" data-name="Layer 1"><g id="_Group_" data-name="&lt;Group&gt;"><g opacity="0.6" style="mix-blend-mode:multiply"><rect x="21.5" y="36.044" width="5" height="3.3" fill="#16324f"/><path d="M53.3,37.168v8.8a5.093,5.093,0,0,0-5-1,4.891,4.891,0,0,0-3.3,3.9H43.3a5.023,5.023,0,0,0-8.3-2.9v-8.1a2.475,2.475,0,0,0,1.5-1.5H52.4A0.876,0.876,0,0,1,53.3,37.168Z" transform="translate(-6.8 -5.224)" fill="#16324f"/><path d="M51.7,6.868a3.52,3.52,0,0,1,1.4,3.8,3.33,3.33,0,0,1-3.2,2.4,1.7,1.7,0,0,1-.7-0.1,7.231,7.231,0,0,0-2.2-1.7A3.343,3.343,0,0,1,51.7,6.868Z" transform="translate(-6.8 -5.224)" fill="#16324f"/><circle cx="43.1" cy="44.344" r="3.3" fill="#16324f"/><path d="M48.2,28.468v6.2H39.1v-6.2a4.588,4.588,0,0,1,4.6-4.6A4.5,4.5,0,0,1,48.2,28.468Z" transform="translate(-6.8 -5.224)" fill="#16324f"/><path d="M44.1,12.268a5,5,0,1,1-5,5A5.015,5.015,0,0,1,44.1,12.268Z" transform="translate(-6.8 -5.224)" fill="#16324f"/><path d="M40.6,7.268a3.21,3.21,0,0,1,.7,3.9,8.362,8.362,0,0,0-2.3,1.8,1.7,1.7,0,0,1-.7.1,3.3,3.3,0,0,1-3.1-2.5,3.232,3.232,0,0,1,1.4-3.7A3.468,3.468,0,0,1,40.6,7.268Z" transform="translate(-6.8 -5.224)" fill="#16324f"/><circle cx="31.5" cy="44.344" r="3.3" fill="#16324f"/><circle cx="27.3" cy="30.244" r="0.8" fill="#16324f"/><path d="M26.8,37.168v8.8a5.093,5.093,0,0,0-5-1,4.891,4.891,0,0,0-3.3,3.9H16.7a5.023,5.023,0,0,0-8.3-2.9v-8.1a2.475,2.475,0,0,0,1.5-1.5H25.8A0.974,0.974,0,0,1,26.8,37.168Z" transform="translate(-6.8 -5.224)" fill="#16324f"/><circle cx="16.5" cy="44.344" r="3.3" fill="#16324f"/><ellipse cx="17.1" cy="12.044" rx="1" ry="1.1" fill="#16324f"/><path d="M22.4,28.468v6.2H13.3v-6.2a4.588,4.588,0,0,1,4.6-4.6A4.385,4.385,0,0,1,22.4,28.468Z" transform="translate(-6.8 -5.224)" fill="#16324f"/><path d="M22.3,15.768a2.551,2.551,0,0,0,0,3.1,4.863,4.863,0,0,1-4.7,3.4,4.813,4.813,0,0,1-4.1-2.1,5.061,5.061,0,0,1-.6-4.6h0.5a4.309,4.309,0,0,0,3.8-3.3,0.756,0.756,0,0,1,.4.1A5.053,5.053,0,0,1,22.3,15.768Z" transform="translate(-6.8 -5.224)" fill="#16324f"/><ellipse cx="6.6" cy="4.944" rx="2.5" ry="3.7" fill="#16324f"/><circle cx="4.9" cy="44.344" r="3.3" fill="#16324f"/><circle cx="0.8" cy="30.244" r="0.8" fill="#16324f"/><path d="M17.9,23.868a4.588,4.588,0,0,0-4.6,4.6v6.2h9.1v-6.2A4.385,4.385,0,0,0,17.9,23.868Z" transform="translate(-6.8 -5.224)" fill="none" stroke="#16324f" stroke-miterlimit="10" stroke-width="1.3"/><path d="M49.2,12.968a1.7,1.7,0,0,0,.7.1,3.33,3.33,0,0,0,3.2-2.4,3.52,3.52,0,0,0-1.4-3.8,3.343,3.343,0,0,0-4.7,4.4A7.231,7.231,0,0,1,49.2,12.968Z" transform="translate(-6.8 -5.224)" fill="none" stroke="#16324f" stroke-miterlimit="10" stroke-width="1.3"/><path d="M17.5,10.568a7.772,7.772,0,0,1,1.6.2v-0.6c0-2-1.1-3.7-2.5-3.7H16.3a5.572,5.572,0,0,1,1.1,3.7A0.6,0.6,0,0,1,17.5,10.568Z" transform="translate(-6.8 -5.224)" fill="none" stroke="#16324f" stroke-miterlimit="10" stroke-width="1.3"/><path d="M17.2,12.268a4.309,4.309,0,0,1-3.8,3.3H12.9a5.061,5.061,0,0,0,.6,4.6,4.813,4.813,0,0,0,4.1,2.1,4.863,4.863,0,0,0,4.7-3.4,2.551,2.551,0,0,1,0-3.1,5.053,5.053,0,0,0-4.7-3.4A0.756,0.756,0,0,0,17.2,12.268Z" transform="translate(-6.8 -5.224)" fill="none" stroke="#16324f" stroke-miterlimit="10" stroke-width="1.3"/><path d="M38.3,13.068a1.7,1.7,0,0,0,.7-0.1,8.362,8.362,0,0,1,2.3-1.8,3.21,3.21,0,0,0-.7-3.9,3.468,3.468,0,0,0-4-.4,3.232,3.232,0,0,0-1.4,3.7A3.3,3.3,0,0,0,38.3,13.068Z" transform="translate(-6.8 -5.224)" fill="none" stroke="#16324f" stroke-miterlimit="10" stroke-width="1.3"/><ellipse cx="6.6" cy="4.944" rx="2.5" ry="3.7" fill="none" stroke="#16324f" stroke-miterlimit="10" stroke-width="1.3"/><path d="M43.7,23.868a4.588,4.588,0,0,0-4.6,4.6v6.2h9.1v-6.2A4.5,4.5,0,0,0,43.7,23.868Z" transform="translate(-6.8 -5.224)" fill="none" stroke="#16324f" stroke-miterlimit="10" stroke-width="1.3"/><path d="M39.1,17.268a5,5,0,1,0,5-5A5.015,5.015,0,0,0,39.1,17.268Z" transform="translate(-6.8 -5.224)" fill="none" stroke="#16324f" stroke-miterlimit="10" stroke-width="1.3"/><rect x="21.5" y="36.044" width="5" height="3.3" fill="none" stroke="#16324f" stroke-miterlimit="10" stroke-width="1.3"/><circle cx="31.5" cy="44.344" r="3.3" fill="none" stroke="#16324f" stroke-miterlimit="10" stroke-width="1.3"/><circle cx="43.1" cy="44.344" r="3.3" fill="none" stroke="#16324f" stroke-miterlimit="10" stroke-width="1.3"/><path d="M52.4,36.368H36.5a2.475,2.475,0,0,1-1.5,1.5v8.1a5.023,5.023,0,0,1,8.3,2.9H45a4.891,4.891,0,0,1,3.3-3.9,5.093,5.093,0,0,1,5,1v-8.8A0.876,0.876,0,0,0,52.4,36.368Z" transform="translate(-6.8 -5.224)" fill="none" stroke="#16324f" stroke-miterlimit="10" stroke-width="1.3"/><circle cx="16.5" cy="44.344" r="3.3" fill="none" stroke="#16324f" stroke-miterlimit="10" stroke-width="1.3"/><path d="M25.8,36.368H9.9a2.475,2.475,0,0,1-1.5,1.5v8.1a5.023,5.023,0,0,1,8.3,2.9h1.8a4.891,4.891,0,0,1,3.3-3.9,5.093,5.093,0,0,1,5,1v-8.8A0.974,0.974,0,0,0,25.8,36.368Z" transform="translate(-6.8 -5.224)" fill="none" stroke="#16324f" stroke-miterlimit="10" stroke-width="1.3"/><circle cx="4.9" cy="44.344" r="3.3" fill="none" stroke="#16324f" stroke-miterlimit="10" stroke-width="1.3"/></g><rect x="21.5" y="35.544" width="5" height="3.3" fill="#c3d8ee"/><path d="M53.3,36.668v8.8a5.093,5.093,0,0,0-5-1,4.891,4.891,0,0,0-3.3,3.9H43.3a5.023,5.023,0,0,0-8.3-2.9v-8.1a2.475,2.475,0,0,0,1.5-1.5H52.4A0.876,0.876,0,0,1,53.3,36.668Z" transform="translate(-6.8 -5.224)" fill="#45c4a7"/><path d="M51.7,6.368a3.52,3.52,0,0,1,1.4,3.8,3.33,3.33,0,0,1-3.2,2.4,1.7,1.7,0,0,1-.7-0.1,7.231,7.231,0,0,0-2.2-1.7A3.343,3.343,0,0,1,51.7,6.368Z" transform="translate(-6.8 -5.224)" fill="#f3f6d5"/><circle cx="43.1" cy="43.844" r="3.3" fill="#16324f"/><path d="M48.2,27.968v6.2H39.1v-6.2a4.588,4.588,0,0,1,4.6-4.6A4.5,4.5,0,0,1,48.2,27.968Z" transform="translate(-6.8 -5.224)" fill="#e7edab"/><path d="M44.1,11.768a5,5,0,1,1-5,5A5.015,5.015,0,0,1,44.1,11.768Z" transform="translate(-6.8 -5.224)" fill="#e7edab"/><path d="M40.6,6.768a3.21,3.21,0,0,1,.7,3.9,8.362,8.362,0,0,0-2.3,1.8,1.7,1.7,0,0,1-.7.1,3.3,3.3,0,0,1-3.1-2.5,3.232,3.232,0,0,1,1.4-3.7A3.468,3.468,0,0,1,40.6,6.768Z" transform="translate(-6.8 -5.224)" fill="#f3f6d5"/><circle cx="31.5" cy="43.844" r="3.3" fill="#16324f"/><circle cx="27.3" cy="29.744" r="0.8"/><path d="M26.8,36.668v8.8a5.093,5.093,0,0,0-5-1,4.891,4.891,0,0,0-3.3,3.9H16.7a5.023,5.023,0,0,0-8.3-2.9v-8.1a2.475,2.475,0,0,0,1.5-1.5H25.8A0.974,0.974,0,0,1,26.8,36.668Z" transform="translate(-6.8 -5.224)" fill="#45c4a7"/><circle cx="16.5" cy="43.844" r="3.3" fill="#16324f"/><ellipse cx="17.1" cy="11.544" rx="1" ry="1.1"/><path d="M22.4,27.968v6.2H13.3v-6.2a4.588,4.588,0,0,1,4.6-4.6A4.385,4.385,0,0,1,22.4,27.968Z" transform="translate(-6.8 -5.224)" fill="#e7edab"/><path d="M22.3,15.268a2.551,2.551,0,0,0,0,3.1,4.863,4.863,0,0,1-4.7,3.4,4.813,4.813,0,0,1-4.1-2.1,5.061,5.061,0,0,1-.6-4.6h0.5a4.309,4.309,0,0,0,3.8-3.3,0.756,0.756,0,0,1,.4.1A5.053,5.053,0,0,1,22.3,15.268Z" transform="translate(-6.8 -5.224)" fill="#e7edab"/><ellipse cx="6.6" cy="4.444" rx="2.5" ry="3.7" fill="#f3f6d5"/><circle cx="4.9" cy="43.844" r="3.3" fill="#16324f"/><circle cx="0.8" cy="29.744" r="0.8"/><path d="M17.9,23.368a4.588,4.588,0,0,0-4.6,4.6v6.2h9.1v-6.2A4.385,4.385,0,0,0,17.9,23.368Z" transform="translate(-6.8 -5.224)" fill="none" stroke="#dcf4ee" stroke-miterlimit="10" stroke-width="1.3"/><path d="M49.2,12.468a1.7,1.7,0,0,0,.7.1,3.33,3.33,0,0,0,3.2-2.4,3.52,3.52,0,0,0-1.4-3.8,3.343,3.343,0,0,0-4.7,4.4A7.231,7.231,0,0,1,49.2,12.468Z" transform="translate(-6.8 -5.224)" fill="none" stroke="#dcf4ee" stroke-miterlimit="10" stroke-width="1.3"/><path d="M17.5,10.068a7.772,7.772,0,0,1,1.6.2v-0.6c0-2-1.1-3.7-2.5-3.7H16.3a5.572,5.572,0,0,1,1.1,3.7A0.6,0.6,0,0,1,17.5,10.068Z" transform="translate(-6.8 -5.224)" fill="none" stroke="#dcf4ee" stroke-miterlimit="10" stroke-width="1.3"/><path d="M17.2,11.768a4.309,4.309,0,0,1-3.8,3.3H12.9a5.061,5.061,0,0,0,.6,4.6,4.813,4.813,0,0,0,4.1,2.1,4.863,4.863,0,0,0,4.7-3.4,2.551,2.551,0,0,1,0-3.1,5.053,5.053,0,0,0-4.7-3.4A0.756,0.756,0,0,0,17.2,11.768Z" transform="translate(-6.8 -5.224)" fill="none" stroke="#dcf4ee" stroke-miterlimit="10" stroke-width="1.3"/><path d="M38.3,12.568a1.7,1.7,0,0,0,.7-0.1,8.362,8.362,0,0,1,2.3-1.8,3.21,3.21,0,0,0-.7-3.9,3.468,3.468,0,0,0-4-.4,3.232,3.232,0,0,0-1.4,3.7A3.3,3.3,0,0,0,38.3,12.568Z" transform="translate(-6.8 -5.224)" fill="none" stroke="#dcf4ee" stroke-miterlimit="10" stroke-width="1.3"/><ellipse cx="6.6" cy="4.444" rx="2.5" ry="3.7" fill="none" stroke="#dcf4ee" stroke-miterlimit="10" stroke-width="1.3"/><path d="M43.7,23.368a4.588,4.588,0,0,0-4.6,4.6v6.2h9.1v-6.2A4.5,4.5,0,0,0,43.7,23.368Z" transform="translate(-6.8 -5.224)" fill="none" stroke="#dcf4ee" stroke-miterlimit="10" stroke-width="1.3"/><path d="M39.1,16.768a5,5,0,1,0,5-5A5.015,5.015,0,0,0,39.1,16.768Z" transform="translate(-6.8 -5.224)" fill="none" stroke="#dcf4ee" stroke-miterlimit="10" stroke-width="1.3"/><rect x="21.5" y="35.544" width="5" height="3.3" fill="none" stroke="#dcf4ee" stroke-miterlimit="10" stroke-width="1.3"/><circle cx="31.5" cy="43.844" r="3.3" fill="none" stroke="#dcf4ee" stroke-miterlimit="10" stroke-width="1.3"/><circle cx="43.1" cy="43.844" r="3.3" fill="none" stroke="#dcf4ee" stroke-miterlimit="10" stroke-width="1.3"/><path d="M52.4,35.868H36.5a2.475,2.475,0,0,1-1.5,1.5v8.1a5.023,5.023,0,0,1,8.3,2.9H45a4.891,4.891,0,0,1,3.3-3.9,5.093,5.093,0,0,1,5,1v-8.8A0.876,0.876,0,0,0,52.4,35.868Z" transform="translate(-6.8 -5.224)" fill="none" stroke="#dcf4ee" stroke-miterlimit="10" stroke-width="1.3"/><circle cx="16.5" cy="43.844" r="3.3" fill="none" stroke="#dcf4ee" stroke-miterlimit="10" stroke-width="1.3"/><path d="M25.8,35.868H9.9a2.475,2.475,0,0,1-1.5,1.5v8.1a5.023,5.023,0,0,1,8.3,2.9h1.8a4.891,4.891,0,0,1,3.3-3.9,5.093,5.093,0,0,1,5,1v-8.8A0.974,0.974,0,0,0,25.8,35.868Z" transform="translate(-6.8 -5.224)" fill="none" stroke="#dcf4ee" stroke-miterlimit="10" stroke-width="1.3"/><circle cx="4.9" cy="43.844" r="3.3" fill="none" stroke="#dcf4ee" stroke-miterlimit="10" stroke-width="1.3"/></g><circle cx="35.727" cy="9.646" r="0.849" fill="#16324f"/><circle cx="45.366" cy="14.945" r="0.803" transform="translate(14.767 51.134) rotate(-78.349)" fill="#16324f"/><circle cx="11.901" cy="10.444" r="0.849" fill="#16324f"/><path d="M45.773,18.774c0,0.5-1.623.906-1.623,0.906s-1.623-.406-1.623-0.906,0.727,0,1.623,0S45.773,18.273,45.773,18.774Z" transform="translate(-6.8 -5.224)" fill="#16324f"/></g></g></svg>