<svg id="Layer_1" data-name="Layer 1" xmlns="http://www.w3.org/2000/svg" viewBox="0 0 57.8 32"><title>trains_8</title><path d="M54,35.29H6a0.88,0.88,0,0,1-.77-0.46c-5.1-8.6-5.1-17,0-25.58A0.94,0.94,0,0,1,6,8.81H54a0.88,0.88,0,0,1,.77.46c5.1,8.6,5.1,16.93,0,25.53A0.84,0.84,0,0,1,54,35.29ZM6.52,33.47H53.44c4.37-7.65,4.37-15.15,0-22.8H6.52C2.15,18.32,2.15,25.78,6.52,33.47Z" transform="translate(-1.1 -4.26)"/><path d="M58,42.53H54.3a0.93,0.93,0,0,1-.86-0.59,3.08,3.08,0,0,0-5.73,0,0.89,0.89,0,0,1-.86.59H44.93a0.93,0.93,0,0,1-.86-0.59,3.08,3.08,0,0,0-5.73,0,0.89,0.89,0,0,1-.86.59h-15a0.93,0.93,0,0,1-.86-0.59,3.08,3.08,0,0,0-5.73,0,0.89,0.89,0,0,1-.86.59H13.07a0.93,0.93,0,0,1-.86-0.59,3.08,3.08,0,0,0-5.73,0,0.89,0.89,0,0,1-.86.59H2a0.91,0.91,0,0,1-.91-0.91V34.34A0.91,0.91,0,0,1,2,33.43H58a0.91,0.91,0,0,1,.91.91v7.28A0.91,0.91,0,0,1,58,42.53Zm-3.09-1.82h2.18V35.25H2.92v5.46H5.11a4.94,4.94,0,0,1,4.28-2.55,4.89,4.89,0,0,1,4.28,2.55h0.77a4.94,4.94,0,0,1,4.28-2.55A4.89,4.89,0,0,1,23,40.71H36.92a4.94,4.94,0,0,1,4.28-2.55,4.89,4.89,0,0,1,4.28,2.55h0.77A4.94,4.94,0,0,1,54.89,40.71Z" transform="translate(-1.1 -4.26)"/><path d="M50.62,47.94a4.88,4.88,0,0,1-4.87-4.87,4.49,4.49,0,0,1,.32-1.73,4.87,4.87,0,0,1,9.1,0,4.49,4.49,0,0,1,.32,1.73A4.88,4.88,0,0,1,50.62,47.94Zm0-8a3.06,3.06,0,0,0-2.87,2A3.13,3.13,0,0,0,47.52,43a3,3,0,0,0,6.1,0,3.13,3.13,0,0,0-.23-1.09A2.86,2.86,0,0,0,50.62,40Z" transform="translate(-1.1 -4.26)"/><path d="M50.62,44.76a1.68,1.68,0,0,1-1.68-1.68,1.4,1.4,0,0,1,.14-0.59,1.71,1.71,0,0,1,3.19,0,1.4,1.4,0,0,1,.14.59A1.86,1.86,0,0,1,50.62,44.76Zm0-2.5a0.74,0.74,0,0,0-.73.5,0.58,0.58,0,0,0,0,.27,0.77,0.77,0,0,0,1.55,0,0.58,0.58,0,0,0,0-.27A0.78,0.78,0,0,0,50.62,42.26Z" transform="translate(-1.1 -4.26)"/><path d="M41.24,47.94a4.88,4.88,0,0,1-4.87-4.87,4.49,4.49,0,0,1,.32-1.73,4.87,4.87,0,0,1,9.1,0,4.49,4.49,0,0,1,.32,1.73A4.85,4.85,0,0,1,41.24,47.94Zm0-8a3.06,3.06,0,0,0-2.87,2A3.13,3.13,0,0,0,38.15,43a3,3,0,1,0,6.1,0,4.57,4.57,0,0,0-.18-1.09A3,3,0,0,0,41.24,40Z" transform="translate(-1.1 -4.26)"/><path d="M41.24,44.76a1.68,1.68,0,0,1-1.68-1.68,1.4,1.4,0,0,1,.14-0.59,1.71,1.71,0,0,1,3.19,0,1.4,1.4,0,0,1,.14.59A1.79,1.79,0,0,1,41.24,44.76Zm0-2.5a0.74,0.74,0,0,0-.73.5,0.58,0.58,0,0,0,0,.27,0.77,0.77,0,0,0,.77.77A0.8,0.8,0,0,0,42,43a0.58,0.58,0,0,0,0-.27A0.74,0.74,0,0,0,41.24,42.26Z" transform="translate(-1.1 -4.26)"/><path d="M18.76,47.94a4.88,4.88,0,0,1-4.87-4.87,4.49,4.49,0,0,1,.32-1.73,4.87,4.87,0,0,1,9.1,0,4.49,4.49,0,0,1,.32,1.73A4.88,4.88,0,0,1,18.76,47.94Zm0-8a3,3,0,1,0,3,3,4.57,4.57,0,0,0-.18-1.09A3.06,3.06,0,0,0,18.76,40Z" transform="translate(-1.1 -4.26)"/><path d="M18.76,44.76a1.68,1.68,0,0,1-1.68-1.68,1.4,1.4,0,0,1,.14-0.59,1.71,1.71,0,0,1,3.19,0,1.4,1.4,0,0,1,.14.59A1.86,1.86,0,0,1,18.76,44.76Zm0-2.5a0.74,0.74,0,0,0-.73.5A0.58,0.58,0,0,0,18,43a0.77,0.77,0,0,0,.77.77A0.8,0.8,0,0,0,19.53,43a0.58,0.58,0,0,0,0-.27A0.78,0.78,0,0,0,18.76,42.26Z" transform="translate(-1.1 -4.26)"/><path d="M9.38,47.94A4.88,4.88,0,0,1,4.51,43a4.49,4.49,0,0,1,.32-1.73,4.87,4.87,0,0,1,9.1,0A4.49,4.49,0,0,1,14.25,43,4.86,4.86,0,0,1,9.38,47.94Zm0-8a3,3,0,1,0,3,3,4.57,4.57,0,0,0-.18-1.09A3.06,3.06,0,0,0,9.38,40Z" transform="translate(-1.1 -4.26)"/><path d="M9.38,44.76A1.68,1.68,0,0,1,7.7,43.08a1.4,1.4,0,0,1,.14-0.59,1.71,1.71,0,0,1,3.19,0,1.4,1.4,0,0,1,.14.59A1.79,1.79,0,0,1,9.38,44.76Zm0-2.5a0.74,0.74,0,0,0-.73.5,0.58,0.58,0,0,0,0,.27,0.77,0.77,0,0,0,1.55,0,0.58,0.58,0,0,0,0-.27A0.74,0.74,0,0,0,9.38,42.26Z" transform="translate(-1.1 -4.26)"/><path d="M25.27,10.67h-10a0.91,0.91,0,0,1-.91-0.91V5.17a0.91,0.91,0,0,1,.91-0.91h10a0.91,0.91,0,0,1,.91.91V9.72A0.92,0.92,0,0,1,25.27,10.67ZM16.21,8.85h8.15V6.12H16.21V8.85Z" transform="translate(-1.1 -4.26)"/><path d="M33.37,26.05a0.91,0.91,0,0,1-.91-0.91V7.67a0.91,0.91,0,1,1,1.82,0V25.14A0.91,0.91,0,0,1,33.37,26.05Z" transform="translate(-1.1 -4.26)"/><path d="M42.79,26.05a0.91,0.91,0,0,1-.91-0.91V7.67a0.91,0.91,0,1,1,1.82,0V25.14A0.91,0.91,0,0,1,42.79,26.05Z" transform="translate(-1.1 -4.26)"/><path d="M42.79,22H33.37a0.91,0.91,0,0,1,0-1.82h9.42A0.91,0.91,0,1,1,42.79,22Z" transform="translate(-1.1 -4.26)"/><path d="M42.79,16.22H33.37a0.91,0.91,0,0,1,0-1.82h9.42A0.91,0.91,0,1,1,42.79,16.22Z" transform="translate(-1.1 -4.26)"/></svg>