<svg xmlns="http://www.w3.org/2000/svg" viewBox="0 0 48.978 55">
  <g data-name="Layer 1">
    <g data-name="&lt;Group&gt;">
      <g opacity=".41" style="mix-blend-mode:multiply">
        <path d="M29.505 17.477l-2-.67 1.27-3.86 2.6.78a.459.459 0 00-.07.16 7.052 7.052 0 00.09 3.3l-1.59.5a.5.5 0 00-.22-.21h-.08z" fill="#000200"/>
        <path d="M32.155 28.347c.03-.23.03-.47.07-.7a6.95 6.95 0 00-1.21-3.92 7.61 7.61 0 00-.95-.33 7 7 0 00-8.57 4.95h10.66zm11.8-2.87l.23.19a2 2 0 002.74-.4l-.03-.05a2 2 0 00-.4-2.74l-.2-.15zm-9.333-17.1a10.809 10.809 0 0111.22 5.64 1.972 1.972 0 010 1.71l-.15.29a5.644 5.644 0 01-1.38 1.73c.89.18 2.13.05 2.37-.41v-.05a8.3 8.3 0 00-1.58-9.81 2.73 2.73 0 01-1.36.46 2.629 2.629 0 01-1.8-.72l-2.11-2-2.77.83a2.591 2.591 0 01-.78.12 2.631 2.631 0 01-.92-.17 8.18 8.18 0 00-3.57 3.58l-.05.1a1.128 1.128 0 00.33 1 4.45 4.45 0 00.59.56 5.454 5.454 0 01.56-1.71l.08-.15a2 2 0 011.32-1zm1.38 39a3.918 3.918 0 003.87-3.9v-.07a3.92 3.92 0 10-3.867 3.97zm.24-45.42a1.408 1.408 0 00-.45.07 1.514 1.514 0 00-1 1.12 1.582 1.582 0 00.01.65 1.531 1.531 0 001.83 1.15l2.54-.77-1.93-1.81a1.5 1.5 0 00-.997-.41zm7.94 4.73a1.531 1.531 0 10-.89-2.93l-2.53.77 1.93 1.81a1.539 1.539 0 001.493.35zm-40.36 19.51l1.37-.34a2.237 2.237 0 012.7 1.62l.14.85h9a3.975 3.975 0 010-.69 8.167 8.167 0 017.24-8.11 2.025 2.025 0 00-2.43-1.86l-5.35 1.34h-.14a7.1 7.1 0 01-3.63 2.18 7.251 7.251 0 01-1.79.22 7.077 7.077 0 01-2.41-.43l-5.7 1.42a2 2 0 001 3.8zm12.88-12.15a4.544 4.544 0 00-2.38-2.931 6.017 6.017 0 00-4.19-.45 6.177 6.177 0 00-2.52 1.29 4.824 4.824 0 00-1.68 4.78v.01c.65 2.6 3.56 4.11 6.56 3.37s4.863-3.459 4.213-6.069zm17.48-3.97c-1.31 2.53 0 5.8 2.89 7.28s6.32.65 7.63-1.88l.14-.26a.871.871 0 000-.74 9.191 9.191 0 00-4.11-4 9.644 9.644 0 00-4.39-1.16 7.071 7.071 0 00-1.52.16.859.859 0 00-.56.44zm-4.75 11.98a7 7 0 00-11.2 5.6v.69h2a8.157 8.157 0 018-6.37h.01a7.844 7.844 0 011.193.08zm-24.43-8.13a6.232 6.232 0 011.49-2.38 1.433 1.433 0 00-1.37-.41 1.454 1.454 0 00-1.09 1.74l-.03.05a1.477 1.477 0 001.003 1zm27.41.09a6 6 0 0010.08 5.46l-.7-.44a6.8 6.8 0 01-1.74.22 7.619 7.619 0 01-3.5-.87 7.414 7.414 0 01-3.65-4.31l-.49-.15v.089zm-3.64-1.07l-1.27 3.86 2 .67h.08a.5.5 0 01.22.21.583.583 0 01.02.53l-1.08 2.09a8.224 8.224 0 013 2.52l.07.1a8.1 8.1 0 011.52 4.73v.74h4.49l2.45-4.75a.57.57 0 01.62-.29c.05.02.09.03.13.05l.07.06h.03l1.93 1.42 2.33-3.14-2-1.49a7.074 7.074 0 01-2.94 1.84 6.976 6.976 0 01-3.66.2 7.1 7.1 0 01-5.48-8.41.459.459 0 01.07-.16zm-1.28-.47a1.951 1.951 0 00-1.55.14 2.1 2.1 0 00-1 1.17 2 2 0 001.23 2.5l.26.09 1.3-3.83zm-13.64-2.79a7.347 7.347 0 011 .43 6.154 6.154 0 011.38 1 1.442 1.442 0 10-2.377-1.43zm4.74 26.19c.51-.83 1.12-1.83 2.44-1.83a2.92 2.92 0 012.44 1.83c.48.8.85 1.3 1.48 1.3s.97-.47 1.48-1.3 1.12-1.83 2.44-1.83a2.9 2.9 0 012.44 1.83c.48.81.85 1.3 1.48 1.3s.97-.47 1.48-1.3 1.11-1.83 2.43-1.83a2.933 2.933 0 012.44 1.83c.49.8.85 1.3 1.49 1.3s.99-.49 1.49-1.3a3.494 3.494 0 011.82-1.73v-4.67H5.915v4.65a3.466 3.466 0 011.88 1.75c.48.8.85 1.3 1.48 1.3s.97-.47 1.48-1.3a2.949 2.949 0 012.44-1.83 2.992 2.992 0 012.44 1.83c.48.8.85 1.3 1.48 1.3s.97-.47 1.48-1.3zm-1.67 7.58a3.911 3.911 0 100 .02v-.02zm5.53-6.98c-.48-.8-.84-1.3-1.48-1.3s-.98.48-1.48 1.3-1.11 1.83-2.43 1.83a2.92 2.92 0 01-2.44-1.83c-.48-.8-.83-1.3-1.48-1.3s-.96.47-1.47 1.3-1.12 1.83-2.44 1.83-1.93-1.01-2.44-1.83a3.509 3.509 0 00-.92-1.14v7.56h2.13c0-2.76 2.24-4.46 5-4.46s5 1.7 5 4.46h13a4.2 4.2 0 012.86-4.08 5.88 5.88 0 012.09-.36c2.76 0 5.05 1.68 5.05 4.44h2.95v-7.54a3.714 3.714 0 00-.93 1.12c-.51.83-1.12 1.83-2.44 1.83a2.933 2.933 0 01-2.44-1.83c-.49-.8-.85-1.3-1.49-1.3s-.97.47-1.48 1.3a3.721 3.721 0 01-1.58 1.66 2.06 2.06 0 01-.86.17 2.9 2.9 0 01-2.44-1.83c-.48-.81-.84-1.3-1.48-1.3s-.97.47-1.48 1.3-1.12 1.83-2.44 1.83a2.92 2.92 0 01-2.437-1.83zm6.04-18.21l-2.67-.87a3.191 3.191 0 01-.46-.2 3.1 3.1 0 01-1.49-3.72 3.127 3.127 0 011.54-1.79 3.013 3.013 0 012.37-.21l4.79 1.33a1.045 1.045 0 010-.25c-1.07-.68-2.5-2.21-1.83-3.51l.05-.1a9.328 9.328 0 013.53-3.76 2.65 2.65 0 013.78-3.71l2.07 2 2.73-.76a2.648 2.648 0 013 4 9.416 9.416 0 011.76 11.07v.06a2.71 2.71 0 01-2.51 1.12 4.516 4.516 0 01-1.95-.4h-.16l4.14 3.06.17.14c.02.02.04.03.06.05a3.075 3.075 0 01-2.73 5.35 2.857 2.857 0 01-1.19-.6l-2.52-1.89-1.9 3.67h5.43a.559.559 0 01.56.56v14.58a.559.559 0 01-.57.55h-3.54a4.7 4.7 0 01-5 4.63 4.7 4.7 0 01-5-4.63H17.995a4.827 4.827 0 01-5.01 4.78 4.8 4.8 0 01-4.99-4.78h-2.68a.559.559 0 01-.56-.56v-14.58a.559.559 0 01.56-.56h1.67l-.14-.56a1.116 1.116 0 00-1.35-.81l-1.41.37a3.091 3.091 0 01-1.49-6l4.48-1.1a5.584 5.584 0 01-2.24-3.2 5.389 5.389 0 01-.08-2.19 2.32 2.32 0 01-.76-.32 2.443 2.443 0 01-.75-3.37 2.583 2.583 0 014.09-.34 7.274 7.274 0 015.4-1.34 2.6 2.6 0 01.7-1.21 2.56 2.56 0 113.56 3.68 5.389 5.389 0 01.84 1.82 5.53 5.53 0 01-.47 3.87l4.28-1.07a3.283 3.283 0 01.7-.1 3.075 3.075 0 013.15 3.01 7.906 7.906 0 012.21.4z" fill="#435b55"/>
        <path d="M41.005 42.897c0-2.76-2.29-4.44-5.05-4.44a5.88 5.88 0 00-2.09.36l-.27-.68a3.721 3.721 0 001.58-1.66c.51-.83.84-1.3 1.48-1.3s1 .5 1.49 1.3a2.933 2.933 0 002.44 1.83c1.32 0 1.93-1 2.44-1.83a3.714 3.714 0 01.93-1.12v7.54h-2.95z" fill="#4e5412"/>
        <path d="M40.445 22.097a7.074 7.074 0 002.94-1.84l2 1.49-2.33 3.14-1.93-1.42h-.03l-.07-.06c-.04-.02-.08-.03-.13-.05z" fill="#000200"/>
        <path d="M20.975 35.177c.64 0 1 .5 1.48 1.3a2.92 2.92 0 002.44 1.83c1.32 0 1.93-1 2.44-1.83s.84-1.3 1.48-1.3 1 .49 1.48 1.3a2.9 2.9 0 002.44 1.83 2.06 2.06 0 00.86-.17l.27.68a4.2 4.2 0 00-2.86 4.08h-13c0-2.76-2.24-4.46-5-4.46s-5 1.7-5 4.46h-2.13v-7.56a3.509 3.509 0 01.92 1.14c.51.82 1.12 1.83 2.44 1.83s1.93-1 2.44-1.83.82-1.3 1.47-1.3 1 .5 1.48 1.3a2.92 2.92 0 002.44 1.83c1.32 0 1.93-1.01 2.43-1.83s.84-1.3 1.48-1.3z" fill="#4e5412"/>
        <path d="M46.495 22.477a2 2 0 01.4 2.74l.03.05a2 2 0 01-2.74.4l-.23-.19 2.34-3.15z" fill="#5a5d3c"/>
        <path d="M45.105 7.477a8.3 8.3 0 011.58 9.81v.05c-.24.46-1.48.59-2.37.41a5.644 5.644 0 001.38-1.73l.15-.29a1.972 1.972 0 000-1.71 10.809 10.809 0 00-11.223-5.64 2 2 0 00-1.32 1l-.08.15a5.454 5.454 0 00-.56 1.71 4.45 4.45 0 01-.59-.56 1.128 1.128 0 01-.33-1l.05-.1a8.18 8.18 0 013.57-3.58 2.631 2.631 0 00.92.17 2.591 2.591 0 00.78-.12l2.77-.83 2.11 2a2.629 2.629 0 001.8.72 2.73 2.73 0 001.363-.46z"/>
        <path d="M44.845 14.477a.871.871 0 010 .74l-.14.26c-1.31 2.53-4.74 3.36-7.63 1.88s-4.2-4.75-2.89-7.28l.08-.16a.859.859 0 01.56-.44 7.071 7.071 0 011.52-.16 9.644 9.644 0 014.39 1.16 9.191 9.191 0 014.11 4z" fill="#5a5d3c"/>
        <path d="M43.945 29.477v4.67a3.494 3.494 0 00-1.82 1.73c-.5.81-.85 1.3-1.49 1.3s-1-.5-1.49-1.3a2.933 2.933 0 00-2.44-1.83c-1.32 0-1.92 1-2.43 1.83s-.85 1.3-1.48 1.3-1-.49-1.48-1.3a2.9 2.9 0 00-2.44-1.83c-1.32 0-1.93 1-2.44 1.83s-.85 1.3-1.48 1.3-1-.5-1.48-1.3a2.92 2.92 0 00-2.44-1.83c-1.32 0-1.93 1-2.44 1.83s-.85 1.3-1.48 1.3-1-.5-1.48-1.3a2.992 2.992 0 00-2.44-1.83 2.949 2.949 0 00-2.44 1.83c-.51.83-.85 1.3-1.48 1.3s-1-.5-1.48-1.3a3.466 3.466 0 00-1.88-1.75v-4.65h38.03z" fill="#002b0e"/>
        <path d="M41.795 19.037l.7.44a6 6 0 01-10.08-5.46v-.09l.49.15a7.414 7.414 0 003.65 4.31 7.619 7.619 0 003.5.87 6.8 6.8 0 001.74-.22z" fill="#5a5d3c"/>
        <path d="M40.445 22.097l.45 1.26a.57.57 0 00-.62.29l-2.45 4.75h-4.49v-.74a8.1 8.1 0 00-1.52-4.73l-.07-.1a8.224 8.224 0 00-3-2.52l1.077-2.091a.583.583 0 00-.02-.53l1.59-.5a7.1 7.1 0 005.39 5.11 6.976 6.976 0 003.663-.199z" fill="#000200"/>
        <path d="M39.875 43.407v.07a3.906 3.906 0 110-.07z"/>
        <path d="M32.222 27.647c-.04.23-.04.47-.07.7H21.495a7 7 0 018.57-4.95 7.61 7.61 0 01.95.33 6.95 6.95 0 011.207 3.92z" fill="#642000"/>
        <path d="M29.435 22.057a7.844 7.844 0 00-1.19-.08h-.01a8.157 8.157 0 00-8 6.37h-2v-.69a7 7 0 0111.2-5.6z" fill="#666"/>
        <path d="M27.735 12.547l-1.3 3.83-.26-.09a2 2 0 01-1.23-2.5 2.1 2.1 0 011-1.17 1.951 1.951 0 011.55-.14z" fill="#5a5d3c"/>
        <path d="M24.222 19.187a1.993 1.993 0 01.05.34 8.167 8.167 0 00-7.24 8.11 3.975 3.975 0 000 .69h-9l-.14-.85a2.237 2.237 0 00-2.7-1.62l-1.37.34a2 2 0 01-1-3.8l5.7-1.42a7.077 7.077 0 002.41.43 7.251 7.251 0 001.79-.22 7.1 7.1 0 003.63-2.18h.14l5.35-1.34a1.988 1.988 0 012.38 1.52z" fill="#65381a"/>
        <path d="M16.922 43.457v.02a3.93 3.93 0 110-.02z"/>
        <path d="M16.705 14.047c.65 2.61-1.21 5.33-4.21 6.07s-5.91-.77-6.56-3.37v-.01a4.824 4.824 0 011.68-4.78 6.177 6.177 0 012.52-1.29 6.017 6.017 0 014.187.449 4.544 4.544 0 012.383 2.931zM16.622 9.727a1.459 1.459 0 01-.39 1.39 6.154 6.154 0 00-1.38-1 7.347 7.347 0 00-1-.43 1.467 1.467 0 011.01-1.01 1.451 1.451 0 011.76 1.05zM5.122 11.137a1.433 1.433 0 011.37.41 6.232 6.232 0 00-1.49 2.38 1.477 1.477 0 01-1-1l.03-.05a1.454 1.454 0 011.09-1.74z" fill="#65381a"/>
        <path d="M44.685 27.167a3.075 3.075 0 002.73-5.35c-.02-.02-.04-.03-.06-.05l-.17-.14-4.14-3.06h.16a4.516 4.516 0 001.95.4 2.71 2.71 0 002.51-1.12v-.06a9.416 9.416 0 00-1.76-11.071 2.648 2.648 0 00-3-4l-2.73.76-2.07-2a2.65 2.65 0 00-3.78 3.71 9.328 9.328 0 00-3.53 3.76l-.05.1c-.67 1.3.76 2.83 1.83 3.51a1.045 1.045 0 000 .25l-4.79-1.33a3.013 3.013 0 00-2.37.21 3.127 3.127 0 00-1.54 1.79 3.1 3.1 0 001.49 3.72 3.191 3.191 0 00.46.2l2.67.87-.79 1.61a7.906 7.906 0 00-2.21-.4 3.075 3.075 0 00-3.15-3.01 3.283 3.283 0 00-.7.1l-4.28 1.07a5.53 5.53 0 00.47-3.87 5.389 5.389 0 00-.84-1.82 2.56 2.56 0 10-3.56-3.68 2.6 2.6 0 00-.7 1.21 7.274 7.274 0 00-5.4 1.34 2.583 2.583 0 00-4.09.34 2.443 2.443 0 00.75 3.37 2.32 2.32 0 00.76.32 5.389 5.389 0 00.08 2.19 5.584 5.584 0 002.24 3.2l-4.48 1.1a3.091 3.091 0 001.49 6l1.41-.37a1.116 1.116 0 011.35.81l.14.56h-1.67a.559.559 0 00-.56.56v14.58a.559.559 0 00.56.56h2.68a4.8 4.8 0 004.99 4.78 4.827 4.827 0 005.01-4.78h12.96a4.7 4.7 0 005 4.63 4.7 4.7 0 005-4.63h3.54a.559.559 0 00.57-.55V28.907a.559.559 0 00-.56-.56h-5.43l1.9-3.67 2.52 1.89a2.857 2.857 0 001.19.6z" fill="none" stroke="#000" stroke-miterlimit="10" stroke-width=".5"/>
        <path d="M34.185 10.077l.08-.16a.859.859 0 01.56-.44 7.071 7.071 0 011.52-.16 9.644 9.644 0 014.39 1.16 9.191 9.191 0 014.11 4 .871.871 0 010 .74l-.14.26c-1.31 2.53-4.74 3.36-7.63 1.88s-4.2-4.75-2.89-7.28zM43.295 3.757a1.531 1.531 0 11-.6 2.58l-1.93-1.81zM34.795 3.147a1.514 1.514 0 011-1.12 1.408 1.408 0 01.45-.07 1.5 1.5 0 011 .41l1.93 1.81-2.54.77a1.531 1.531 0 01-1.83-1.15 1.582 1.582 0 01-.01-.65z" fill="none" stroke="#000" stroke-miterlimit="10" stroke-width=".25"/>
        <path d="M32.075 10.677a1.128 1.128 0 01-.33-1l.05-.1a8.18 8.18 0 013.57-3.58 2.631 2.631 0 00.92.17 2.591 2.591 0 00.78-.12l2.77-.83 2.11 2a2.629 2.629 0 001.8.72 2.73 2.73 0 001.36-.46 8.3 8.3 0 011.58 9.81v.05c-.24.46-1.48.59-2.37.41a5.644 5.644 0 001.38-1.73l.15-.29a1.972 1.972 0 000-1.71 10.809 10.809 0 00-11.223-5.64 2 2 0 00-1.32 1l-.08.15a5.454 5.454 0 00-.56 1.71 4.45 4.45 0 01-.587-.56zM36.555 18.387a7.619 7.619 0 003.5.87 6.8 6.8 0 001.74-.22l.7.44a6 6 0 01-10.08-5.46v-.09l.49.15a7.414 7.414 0 003.65 4.31zM24.945 13.787a2.1 2.1 0 011-1.17 1.951 1.951 0 011.55-.14l.24.07-1.3 3.83-.26-.09a2 2 0 01-1.23-2.5zM32.155 28.347h-10.66a7 7 0 018.57-4.95 7.61 7.61 0 01.95.33 6.95 6.95 0 011.207 3.92c-.037.23-.037.469-.067.7zM32.155 28.347h.01" fill="none" stroke="#000" stroke-miterlimit="10" stroke-width=".25"/>
        <path d="M28.235 21.977a8.157 8.157 0 00-8 6.37h-2v-.69a7 7 0 0111.2-5.6 7.844 7.844 0 00-1.19-.08h-.01zM14.865 8.677a1.45 1.45 0 011.37 2.439 6.154 6.154 0 00-1.38-1 7.347 7.347 0 00-1-.43 1.467 1.467 0 011.01-1.009zM4.035 12.877a1.454 1.454 0 011.09-1.74 1.433 1.433 0 011.37.41 6.232 6.232 0 00-1.49 2.38 1.477 1.477 0 01-1-1zM5.935 16.737a4.824 4.824 0 011.68-4.78 6.177 6.177 0 012.52-1.29 6.017 6.017 0 014.187.449 4.544 4.544 0 012.38 2.93c.65 2.61-1.21 5.33-4.21 6.07s-5.91-.77-6.56-3.37v-.01z" fill="none" stroke="#000" stroke-miterlimit="10" stroke-width=".25"/>
        <path d="M7.895 27.477a2.237 2.237 0 00-2.7-1.62l-1.37.34a2 2 0 01-1-3.8l5.7-1.42a7.077 7.077 0 002.41.43 7.251 7.251 0 001.79-.22 7.1 7.1 0 003.63-2.18h.14l5.35-1.34a2.025 2.025 0 012.43 1.86 8.167 8.167 0 00-7.24 8.11 3.975 3.975 0 000 .69h-9zM13.005 47.377a3.92 3.92 0 113.92-3.92v.02a3.909 3.909 0 01-3.92 3.9zM36.005 47.377a3.92 3.92 0 113.87-3.97v.07a3.918 3.918 0 01-3.87 3.9z" fill="none" stroke="#000" stroke-miterlimit="10" stroke-width=".25"/>
        <path d="M40.955 42.897h.05c0-2.76-2.29-4.44-5.05-4.44a5.88 5.88 0 00-2.09.36 4.2 4.2 0 00-2.86 4.08h-13c0-2.76-2.24-4.46-5-4.46s-5 1.7-5 4.46h-2.13v-7.56a3.509 3.509 0 01.92 1.14c.51.82 1.12 1.83 2.44 1.83s1.93-1 2.44-1.83.82-1.3 1.47-1.3 1 .5 1.48 1.3a2.92 2.92 0 002.44 1.83c1.32 0 1.93-1.01 2.43-1.83s.84-1.3 1.48-1.3 1 .5 1.48 1.3a2.92 2.92 0 002.44 1.83c1.32 0 1.93-1 2.44-1.83s.84-1.3 1.48-1.3 1 .49 1.48 1.3a2.9 2.9 0 002.44 1.83 2.06 2.06 0 00.86-.17 3.721 3.721 0 001.58-1.66c.51-.83.84-1.3 1.48-1.3s1 .5 1.49 1.3a2.933 2.933 0 002.44 1.83c1.32 0 1.93-1 2.44-1.83a3.714 3.714 0 01.93-1.12v7.54h-2.95" fill="none" stroke="#000" stroke-miterlimit="10" stroke-width=".25"/>
        <path d="M43.945 34.147a3.494 3.494 0 00-1.82 1.73c-.5.81-.85 1.3-1.49 1.3s-1-.5-1.49-1.3a2.933 2.933 0 00-2.44-1.83c-1.32 0-1.92 1-2.43 1.83s-.85 1.3-1.48 1.3-1-.49-1.48-1.3a2.9 2.9 0 00-2.44-1.83c-1.32 0-1.93 1-2.44 1.83s-.85 1.3-1.48 1.3-1-.5-1.48-1.3a2.92 2.92 0 00-2.44-1.83c-1.32 0-1.93 1-2.44 1.83s-.85 1.3-1.48 1.3-1-.5-1.48-1.3a2.992 2.992 0 00-2.44-1.83 2.949 2.949 0 00-2.44 1.83c-.51.83-.85 1.3-1.48 1.3s-1-.5-1.48-1.3a3.466 3.466 0 00-1.88-1.75v-4.65h38.03v4.67zM43.945 34.147a.142.142 0 00.06-.02M40.895 23.357a.57.57 0 00-.62.29l-2.45 4.75h-4.49v-.74a8.1 8.1 0 00-1.52-4.73l-.07-.1a8.224 8.224 0 00-3-2.52l1.077-2.091a.583.583 0 00-.02-.53.5.5 0 00-.22-.21h-.08l-2-.67 1.27-3.86 2.6.78a.459.459 0 00-.07.16 7.1 7.1 0 005.48 8.41 6.976 6.976 0 003.66-.2 7.074 7.074 0 002.94-1.84l2 1.49-2.33 3.14-1.93-1.42h-.03l-.07-.06c-.037-.019-.077-.029-.127-.049zM46.922 25.267a2 2 0 01-2.74.4l-.23-.19 2.34-3.15.2.15a2 2 0 01.4 2.74z" fill="none" stroke="#000" stroke-miterlimit="10" stroke-width=".25"/>
      </g>
      <path d="M29.505 16.977l-2-.67 1.27-3.86 2.6.78a.459.459 0 00-.07.16 7.052 7.052 0 00.09 3.3l-1.59.5a.5.5 0 00-.22-.21h-.08z" fill="#2d9b7e"/>
      <path d="M32.155 27.847c.03-.23.03-.47.07-.7a6.95 6.95 0 00-1.21-3.92 7.61 7.61 0 00-.95-.33 7 7 0 00-8.57 4.95h10.66zm11.8-2.87l.23.19a2 2 0 002.74-.4l-.03-.05a2 2 0 00-.4-2.74l-.2-.15zm-9.333-17.1a10.809 10.809 0 0111.22 5.64 1.972 1.972 0 010 1.71l-.15.29a5.644 5.644 0 01-1.38 1.73c.89.18 2.13.05 2.37-.41v-.05a8.3 8.3 0 00-1.58-9.81 2.73 2.73 0 01-1.36.46 2.629 2.629 0 01-1.8-.72l-2.11-2-2.77.83a2.591 2.591 0 01-.78.12 2.631 2.631 0 01-.92-.17 8.18 8.18 0 00-3.57 3.58l-.05.1a1.128 1.128 0 00.33 1 4.45 4.45 0 00.59.56 5.454 5.454 0 01.56-1.71l.08-.15a2 2 0 011.32-1zm1.38 39a3.918 3.918 0 003.87-3.9v-.07a3.92 3.92 0 10-3.867 3.97zm.24-45.42a1.408 1.408 0 00-.45.07 1.514 1.514 0 00-1 1.12 1.582 1.582 0 00.01.65 1.531 1.531 0 001.83 1.15l2.54-.77-1.93-1.81a1.5 1.5 0 00-.997-.41zm7.94 4.73a1.531 1.531 0 10-.89-2.93l-2.53.77 1.93 1.81a1.539 1.539 0 001.493.35zm-40.36 19.51l1.37-.34a2.237 2.237 0 012.7 1.62l.14.85h9a3.975 3.975 0 010-.69 8.167 8.167 0 017.24-8.11 2.025 2.025 0 00-2.43-1.86l-5.35 1.34h-.14a7.1 7.1 0 01-3.63 2.18 7.251 7.251 0 01-1.79.22 7.077 7.077 0 01-2.41-.43l-5.7 1.42a2 2 0 001 3.8zm12.88-12.15a4.544 4.544 0 00-2.38-2.931 6.017 6.017 0 00-4.19-.45 6.177 6.177 0 00-2.52 1.29 4.824 4.824 0 00-1.68 4.78v.01c.65 2.6 3.56 4.11 6.56 3.37s4.863-3.459 4.213-6.069zm17.48-3.97c-1.31 2.53 0 5.8 2.89 7.28s6.32.65 7.63-1.88l.14-.26a.871.871 0 000-.74 9.191 9.191 0 00-4.11-4 9.644 9.644 0 00-4.39-1.16 7.071 7.071 0 00-1.52.16.859.859 0 00-.56.44zm-4.75 11.98a7 7 0 00-11.2 5.6v.69h2a8.157 8.157 0 018-6.37h.01a7.844 7.844 0 011.193.08zm-24.43-8.13a6.232 6.232 0 011.49-2.38 1.433 1.433 0 00-1.37-.41 1.454 1.454 0 00-1.09 1.74l-.03.05a1.477 1.477 0 001.003 1zm27.41.09a6 6 0 0010.08 5.46l-.7-.44a6.8 6.8 0 01-1.74.22 7.619 7.619 0 01-3.5-.87 7.414 7.414 0 01-3.65-4.31l-.49-.15v.089zm-3.64-1.07l-1.27 3.86 2 .67h.08a.5.5 0 01.22.21.583.583 0 01.02.53l-1.08 2.09a8.224 8.224 0 013 2.52l.07.1a8.1 8.1 0 011.52 4.73v.74h4.49l2.45-4.75a.57.57 0 01.62-.29c.05.02.09.03.13.05l.07.06h.03l1.93 1.42 2.33-3.14-2-1.49a7.074 7.074 0 01-2.94 1.84 6.976 6.976 0 01-3.66.2 7.1 7.1 0 01-5.48-8.41.459.459 0 01.07-.16zm-1.28-.47a1.951 1.951 0 00-1.55.14 2.1 2.1 0 00-1 1.17 2 2 0 001.23 2.5l.26.09 1.3-3.83zm-13.64-2.79a7.347 7.347 0 011 .43 6.154 6.154 0 011.38 1 1.442 1.442 0 10-2.377-1.43zm4.74 26.19c.51-.83 1.12-1.83 2.44-1.83a2.92 2.92 0 012.44 1.83c.48.8.85 1.3 1.48 1.3s.97-.47 1.48-1.3 1.12-1.83 2.44-1.83a2.9 2.9 0 012.44 1.83c.48.81.85 1.3 1.48 1.3s.97-.47 1.48-1.3 1.11-1.83 2.43-1.83a2.933 2.933 0 012.44 1.83c.49.8.85 1.3 1.49 1.3s.99-.49 1.49-1.3a3.494 3.494 0 011.82-1.73v-4.67H5.915v4.65a3.466 3.466 0 011.88 1.75c.48.8.85 1.3 1.48 1.3s.97-.47 1.48-1.3a2.949 2.949 0 012.44-1.83 2.992 2.992 0 012.44 1.83c.48.8.85 1.3 1.48 1.3s.97-.47 1.48-1.3zm-1.67 7.58a3.911 3.911 0 100 .02v-.02zm5.53-6.98c-.48-.8-.84-1.3-1.48-1.3s-.98.48-1.48 1.3-1.11 1.83-2.43 1.83a2.92 2.92 0 01-2.44-1.83c-.48-.8-.83-1.3-1.48-1.3s-.96.47-1.47 1.3-1.12 1.83-2.44 1.83-1.93-1.01-2.44-1.83a3.509 3.509 0 00-.92-1.14v7.56h2.13c0-2.76 2.24-4.46 5-4.46s5 1.7 5 4.46h13a4.2 4.2 0 012.86-4.08 5.88 5.88 0 012.09-.36c2.76 0 5.05 1.68 5.05 4.44h2.95v-7.54a3.714 3.714 0 00-.93 1.12c-.51.83-1.12 1.83-2.44 1.83a2.933 2.933 0 01-2.44-1.83c-.49-.8-.85-1.3-1.49-1.3s-.97.47-1.48 1.3a3.721 3.721 0 01-1.58 1.66 2.06 2.06 0 01-.86.17 2.9 2.9 0 01-2.44-1.83c-.48-.81-.84-1.3-1.48-1.3s-.97.47-1.48 1.3-1.12 1.83-2.44 1.83a2.92 2.92 0 01-2.437-1.83zm6.04-18.21l-2.67-.87a3.191 3.191 0 01-.46-.2 3.1 3.1 0 01-1.49-3.72 3.127 3.127 0 011.54-1.79 3.013 3.013 0 012.37-.21l4.79 1.33a1.045 1.045 0 010-.25c-1.07-.68-2.5-2.21-1.83-3.51l.05-.1a9.328 9.328 0 013.53-3.76 2.65 2.65 0 013.78-3.71l2.07 2 2.73-.76a2.648 2.648 0 013 4 9.416 9.416 0 011.76 11.07v.06a2.71 2.71 0 01-2.51 1.12 4.516 4.516 0 01-1.95-.4h-.16l4.14 3.06.17.14c.02.02.04.03.06.05a3.075 3.075 0 01-2.73 5.35 2.857 2.857 0 01-1.19-.6l-2.52-1.89-1.9 3.67h5.43a.559.559 0 01.56.56v14.58a.559.559 0 01-.57.55h-3.54a4.7 4.7 0 01-5 4.63 4.7 4.7 0 01-5-4.63H17.995a4.827 4.827 0 01-5.01 4.78 4.8 4.8 0 01-4.99-4.78h-2.68a.559.559 0 01-.56-.56v-14.58a.559.559 0 01.56-.56h1.67l-.14-.56a1.116 1.116 0 00-1.35-.81l-1.41.37a3.091 3.091 0 01-1.49-6l4.48-1.1a5.584 5.584 0 01-2.24-3.2 5.389 5.389 0 01-.08-2.19 2.32 2.32 0 01-.76-.32 2.443 2.443 0 01-.75-3.37 2.583 2.583 0 014.09-.34 7.274 7.274 0 015.4-1.34 2.6 2.6 0 01.7-1.21 2.56 2.56 0 113.56 3.68 5.389 5.389 0 01.84 1.82 5.53 5.53 0 01-.47 3.87l4.28-1.07a3.283 3.283 0 01.7-.1 3.075 3.075 0 013.15 3.01 7.906 7.906 0 012.21.4z" fill="#dcf4ee"/>
      <path d="M41.005 42.397c0-2.76-2.29-4.44-5.05-4.44a5.88 5.88 0 00-2.09.36l-.27-.68a3.721 3.721 0 001.58-1.66c.51-.83.84-1.3 1.48-1.3s1 .5 1.49 1.3a2.933 2.933 0 002.44 1.83c1.32 0 1.93-1 2.44-1.83a3.714 3.714 0 01.93-1.12v7.54h-2.95z" fill="#e7edab"/>
      <path d="M40.445 21.597a7.074 7.074 0 002.94-1.84l2 1.49-2.33 3.14-1.93-1.42h-.03l-.07-.06c-.04-.02-.08-.03-.13-.05z" fill="#2d9b7e"/>
      <path d="M20.975 34.677c.64 0 1 .5 1.48 1.3a2.92 2.92 0 002.44 1.83c1.32 0 1.93-1 2.44-1.83s.84-1.3 1.48-1.3 1 .49 1.48 1.3a2.9 2.9 0 002.44 1.83 2.06 2.06 0 00.86-.17l.27.68a4.2 4.2 0 00-2.86 4.08h-13c0-2.76-2.24-4.46-5-4.46s-5 1.7-5 4.46h-2.13v-7.56a3.509 3.509 0 01.92 1.14c.51.82 1.12 1.83 2.44 1.83s1.93-1 2.44-1.83.82-1.3 1.47-1.3 1 .5 1.48 1.3a2.92 2.92 0 002.44 1.83c1.32 0 1.93-1.01 2.43-1.83s.84-1.3 1.48-1.3z" fill="#e7edab"/>
      <path d="M46.495 21.977a2 2 0 01.4 2.74l.03.05a2 2 0 01-2.74.4l-.23-.19 2.34-3.15z" fill="#f3f6d5"/>
      <path d="M45.105 6.977a8.3 8.3 0 011.58 9.81v.05c-.24.46-1.48.59-2.37.41a5.644 5.644 0 001.38-1.73l.15-.29a1.972 1.972 0 000-1.71 10.809 10.809 0 00-11.223-5.64 2 2 0 00-1.32 1l-.08.15a5.454 5.454 0 00-.56 1.71 4.45 4.45 0 01-.59-.56 1.128 1.128 0 01-.33-1l.05-.1a8.18 8.18 0 013.57-3.58 2.631 2.631 0 00.92.17 2.591 2.591 0 00.78-.12l2.77-.83 2.11 2a2.629 2.629 0 001.8.72 2.73 2.73 0 001.363-.46z" fill="#132b44"/>
      <path d="M44.845 13.977a.871.871 0 010 .74l-.14.26c-1.31 2.53-4.74 3.36-7.63 1.88s-4.2-4.75-2.89-7.28l.08-.16a.859.859 0 01.56-.44 7.071 7.071 0 011.52-.16 9.644 9.644 0 014.39 1.16 9.191 9.191 0 014.11 4z" fill="#f3f6d5"/>
      <path d="M43.945 28.977v4.67a3.494 3.494 0 00-1.82 1.73c-.5.81-.85 1.3-1.49 1.3s-1-.5-1.49-1.3a2.933 2.933 0 00-2.44-1.83c-1.32 0-1.92 1-2.43 1.83s-.85 1.3-1.48 1.3-1-.49-1.48-1.3a2.9 2.9 0 00-2.44-1.83c-1.32 0-1.93 1-2.44 1.83s-.85 1.3-1.48 1.3-1-.5-1.48-1.3a2.92 2.92 0 00-2.44-1.83c-1.32 0-1.93 1-2.44 1.83s-.85 1.3-1.48 1.3-1-.5-1.48-1.3a2.992 2.992 0 00-2.44-1.83 2.949 2.949 0 00-2.44 1.83c-.51.83-.85 1.3-1.48 1.3s-1-.5-1.48-1.3a3.466 3.466 0 00-1.88-1.75v-4.65h38.03z" fill="#45c4a7"/>
      <path d="M41.795 18.537l.7.44a6 6 0 01-10.08-5.46v-.09l.49.15a7.414 7.414 0 003.65 4.31 7.619 7.619 0 003.5.87 6.8 6.8 0 001.74-.22z" fill="#f3f6d5"/>
      <path d="M40.445 21.597l.45 1.26a.57.57 0 00-.62.29l-2.45 4.75h-4.49v-.74a8.1 8.1 0 00-1.52-4.73l-.07-.1a8.224 8.224 0 00-3-2.52l1.077-2.091a.583.583 0 00-.02-.53l1.59-.5a7.1 7.1 0 005.39 5.11 6.976 6.976 0 003.663-.199z" fill="#2d9b7e"/>
      <path d="M39.875 42.907v.07a3.906 3.906 0 110-.07z" fill="#16324f"/>
      <path d="M32.222 27.147c-.04.23-.04.47-.07.7H21.495a7 7 0 018.57-4.95 7.61 7.61 0 01.95.33 6.95 6.95 0 011.207 3.92z" fill="#fdb98b"/>
      <path d="M29.435 21.557a7.844 7.844 0 00-1.19-.08h-.01a8.157 8.157 0 00-8 6.37h-2v-.69a7 7 0 0111.2-5.6z" fill="#fff"/>
      <path d="M27.735 12.047l-1.3 3.83-.26-.09a2 2 0 01-1.23-2.5 2.1 2.1 0 011-1.17 1.951 1.951 0 011.55-.14z" fill="#f3f6d5"/>
      <path d="M24.222 18.687a1.993 1.993 0 01.05.34 8.167 8.167 0 00-7.24 8.11 3.975 3.975 0 000 .69h-9l-.14-.85a2.237 2.237 0 00-2.7-1.62l-1.37.34a2 2 0 01-1-3.8l5.7-1.42a7.077 7.077 0 002.41.43 7.251 7.251 0 001.79-.22 7.1 7.1 0 003.63-2.18h.14l5.35-1.34a1.988 1.988 0 012.38 1.52z" fill="#fed1b3"/>
      <path d="M16.922 42.957v.02a3.93 3.93 0 110-.02z" fill="#16324f"/>
      <path d="M16.705 13.547c.65 2.61-1.21 5.33-4.21 6.07s-5.91-.77-6.56-3.37v-.01a4.824 4.824 0 011.68-4.78 6.177 6.177 0 012.52-1.29 6.017 6.017 0 014.19.45 4.544 4.544 0 012.38 2.93zM16.622 9.227a1.459 1.459 0 01-.39 1.39 6.154 6.154 0 00-1.38-1 7.347 7.347 0 00-1-.43 1.467 1.467 0 011.01-1.01 1.451 1.451 0 011.76 1.05zM5.122 10.637a1.433 1.433 0 011.37.41 6.232 6.232 0 00-1.49 2.38 1.477 1.477 0 01-1-1l.03-.05a1.454 1.454 0 011.09-1.74z" fill="#fed1b3"/>
      <path d="M44.685 26.667a3.075 3.075 0 002.73-5.35c-.02-.02-.04-.03-.06-.05l-.17-.14-4.14-3.06h.16a4.516 4.516 0 001.95.4 2.71 2.71 0 002.51-1.12v-.06a9.416 9.416 0 00-1.76-11.071 2.648 2.648 0 00-3-4l-2.73.76-2.07-2a2.65 2.65 0 00-3.78 3.71 9.328 9.328 0 00-3.53 3.76l-.05.1c-.67 1.3.76 2.83 1.83 3.51a1.045 1.045 0 000 .25l-4.79-1.33a3.013 3.013 0 00-2.37.21 3.127 3.127 0 00-1.54 1.79 3.1 3.1 0 001.49 3.72 3.191 3.191 0 00.46.2l2.67.87-.79 1.61a7.906 7.906 0 00-2.21-.4 3.075 3.075 0 00-3.15-3.01 3.283 3.283 0 00-.7.1l-4.28 1.07a5.53 5.53 0 00.47-3.87 5.389 5.389 0 00-.84-1.82 2.56 2.56 0 10-3.56-3.68 2.6 2.6 0 00-.7 1.21 7.274 7.274 0 00-5.4 1.34 2.583 2.583 0 00-4.09.34 2.443 2.443 0 00.75 3.37 2.32 2.32 0 00.76.32 5.389 5.389 0 00.08 2.19 5.584 5.584 0 002.24 3.2l-4.48 1.1a3.091 3.091 0 001.49 6l1.41-.37a1.116 1.116 0 011.35.81l.14.56h-1.67a.559.559 0 00-.56.56v14.58a.559.559 0 00.56.56h2.68a4.8 4.8 0 004.99 4.78 4.827 4.827 0 005.01-4.78h12.96a4.7 4.7 0 005 4.63 4.7 4.7 0 005-4.63h3.54a.559.559 0 00.57-.55V28.407a.559.559 0 00-.56-.56h-5.43l1.9-3.67 2.52 1.89a2.857 2.857 0 001.19.6z" fill="none" stroke="#226d5b" stroke-miterlimit="10" stroke-width=".5"/>
      <path d="M34.185 9.577l.08-.16a.859.859 0 01.56-.44 7.071 7.071 0 011.52-.16 9.644 9.644 0 014.39 1.16 9.191 9.191 0 014.11 4 .871.871 0 010 .74l-.14.26c-1.31 2.53-4.74 3.36-7.63 1.88s-4.2-4.75-2.89-7.28zM43.295 3.257a1.531 1.531 0 11-.6 2.58l-1.93-1.81zM34.795 2.647a1.514 1.514 0 011-1.12 1.408 1.408 0 01.45-.07 1.5 1.5 0 011 .41l1.93 1.81-2.54.77a1.531 1.531 0 01-1.83-1.15 1.582 1.582 0 01-.01-.65z" fill="none" stroke="#226d5b" stroke-miterlimit="10" stroke-width=".25"/>
      <path d="M32.075 10.177a1.128 1.128 0 01-.33-1l.05-.1a8.18 8.18 0 013.57-3.58 2.631 2.631 0 00.92.17 2.591 2.591 0 00.78-.12l2.77-.83 2.11 2a2.629 2.629 0 001.8.72 2.73 2.73 0 001.36-.46 8.3 8.3 0 011.58 9.81v.05c-.24.46-1.48.59-2.37.41a5.644 5.644 0 001.38-1.73l.15-.29a1.972 1.972 0 000-1.71 10.809 10.809 0 00-11.223-5.64 2 2 0 00-1.32 1l-.08.15a5.454 5.454 0 00-.56 1.71 4.45 4.45 0 01-.587-.56zM36.555 17.887a7.619 7.619 0 003.5.87 6.8 6.8 0 001.74-.22l.7.44a6 6 0 01-10.08-5.46v-.09l.49.15a7.414 7.414 0 003.65 4.31zM24.945 13.287a2.1 2.1 0 011-1.17 1.951 1.951 0 011.55-.14l.24.07-1.3 3.83-.26-.09a2 2 0 01-1.23-2.5zM32.155 27.847h-10.66a7 7 0 018.57-4.95 7.61 7.61 0 01.95.33 6.95 6.95 0 011.207 3.92c-.037.23-.037.469-.067.7zM32.155 27.847h.01" fill="none" stroke="#226d5b" stroke-miterlimit="10" stroke-width=".25"/>
      <path d="M28.235 21.477a8.157 8.157 0 00-8 6.37h-2v-.69a7 7 0 0111.2-5.6 7.844 7.844 0 00-1.19-.08h-.01zM14.865 8.177a1.45 1.45 0 011.37 2.44 6.154 6.154 0 00-1.38-1 7.347 7.347 0 00-1-.43 1.467 1.467 0 011.01-1.01zM4.035 12.377a1.454 1.454 0 011.09-1.74 1.433 1.433 0 011.37.41 6.232 6.232 0 00-1.49 2.38 1.477 1.477 0 01-1-1zM5.935 16.237a4.824 4.824 0 011.68-4.78 6.177 6.177 0 012.52-1.29 6.017 6.017 0 014.19.45 4.544 4.544 0 012.38 2.93c.65 2.61-1.21 5.33-4.21 6.07s-5.91-.77-6.56-3.37v-.01z" fill="none" stroke="#226d5b" stroke-miterlimit="10" stroke-width=".25"/>
      <path d="M7.895 26.977a2.237 2.237 0 00-2.7-1.62l-1.37.34a2 2 0 01-1-3.8l5.7-1.42a7.077 7.077 0 002.41.43 7.251 7.251 0 001.79-.22 7.1 7.1 0 003.63-2.18h.14l5.35-1.34a2.025 2.025 0 012.43 1.86 8.167 8.167 0 00-7.24 8.11 3.975 3.975 0 000 .69h-9zM13.005 46.877a3.92 3.92 0 113.92-3.92v.02a3.909 3.909 0 01-3.92 3.9zM36.005 46.877a3.92 3.92 0 113.87-3.97v.07a3.918 3.918 0 01-3.87 3.9z" fill="none" stroke="#226d5b" stroke-miterlimit="10" stroke-width=".25"/>
      <path d="M40.955 42.397h.05c0-2.76-2.29-4.44-5.05-4.44a5.88 5.88 0 00-2.09.36 4.2 4.2 0 00-2.86 4.08h-13c0-2.76-2.24-4.46-5-4.46s-5 1.7-5 4.46h-2.13v-7.56a3.509 3.509 0 01.92 1.14c.51.82 1.12 1.83 2.44 1.83s1.93-1 2.44-1.83.82-1.3 1.47-1.3 1 .5 1.48 1.3a2.92 2.92 0 002.44 1.83c1.32 0 1.93-1.01 2.43-1.83s.84-1.3 1.48-1.3 1 .5 1.48 1.3a2.92 2.92 0 002.44 1.83c1.32 0 1.93-1 2.44-1.83s.84-1.3 1.48-1.3 1 .49 1.48 1.3a2.9 2.9 0 002.44 1.83 2.06 2.06 0 00.86-.17 3.721 3.721 0 001.58-1.66c.51-.83.84-1.3 1.48-1.3s1 .5 1.49 1.3a2.933 2.933 0 002.44 1.83c1.32 0 1.93-1 2.44-1.83a3.714 3.714 0 01.93-1.12v7.54h-2.95" fill="none" stroke="#226d5b" stroke-miterlimit="10" stroke-width=".25"/>
      <path d="M43.945 33.647a3.494 3.494 0 00-1.82 1.73c-.5.81-.85 1.3-1.49 1.3s-1-.5-1.49-1.3a2.933 2.933 0 00-2.44-1.83c-1.32 0-1.92 1-2.43 1.83s-.85 1.3-1.48 1.3-1-.49-1.48-1.3a2.9 2.9 0 00-2.44-1.83c-1.32 0-1.93 1-2.44 1.83s-.85 1.3-1.48 1.3-1-.5-1.48-1.3a2.92 2.92 0 00-2.44-1.83c-1.32 0-1.93 1-2.44 1.83s-.85 1.3-1.48 1.3-1-.5-1.48-1.3a2.992 2.992 0 00-2.44-1.83 2.949 2.949 0 00-2.44 1.83c-.51.83-.85 1.3-1.48 1.3s-1-.5-1.48-1.3a3.466 3.466 0 00-1.88-1.75v-4.65h38.03v4.67zM43.945 33.647a.142.142 0 00.06-.02M40.895 22.857a.57.57 0 00-.62.29l-2.45 4.75h-4.49v-.74a8.1 8.1 0 00-1.52-4.73l-.07-.1a8.224 8.224 0 00-3-2.52l1.077-2.091a.583.583 0 00-.02-.53.5.5 0 00-.22-.21h-.08l-2-.67 1.27-3.86 2.6.78a.459.459 0 00-.07.16 7.1 7.1 0 005.48 8.41 6.976 6.976 0 003.66-.2 7.074 7.074 0 002.94-1.84l2 1.49-2.33 3.14-1.93-1.42h-.03l-.07-.06c-.037-.019-.077-.029-.127-.049zM46.922 24.767a2 2 0 01-2.74.4l-.23-.19 2.34-3.15.2.15a2 2 0 01.4 2.74z" fill="none" stroke="#226d5b" stroke-miterlimit="10" stroke-width=".25"/>
    </g>
    <path d="M13.005 40.907a2.05 2.05 0 102.05 2.07 2.05 2.05 0 00-2.03-2.07h-.02zm0 3a.93.93 0 11.93-.93.93.93 0 01-.93.93zM35.865 40.907a2.05 2.05 0 102.05 2.07 2.05 2.05 0 00-2.03-2.07h-.02zm0 3a.93.93 0 11.93-.93.93.93 0 01-.93.93z" fill="#45c4a7"/>
    <circle cx="12.505" cy="17.063" r=".96" transform="translate(-2.826 0.825) rotate(-7.23)" fill="#132b44"/>
    <circle cx="9.416" cy="15.436" r=".66" transform="translate(-4.955 2.629) rotate(-17.36)" fill="#132b44"/>
    <circle cx="14.105" cy="13.977" r=".663" transform="translate(-6.377 15.56) rotate(-51.875)" fill="#132b44"/>
    <path d="M37.385 16.267a4.24 4.24 0 001.95.48 4.17 4.17 0 001.85-.43.56.56 0 00-.49-1 3.11 3.11 0 01-4.43-2.34.57.57 0 00-1.12.16 4.22 4.22 0 002.24 3.13z" fill="#dde589"/>
    <circle cx="38.45" cy="11.977" r=".84" transform="translate(9.359 39.732) rotate(-62.63)" fill="#132b44"/>
    <circle cx="42.625" cy="14.137" r=".84" transform="translate(9.696 44.607) rotate(-62.63)" fill="#132b44"/>
  </g>
</svg>
