<svg xmlns="http://www.w3.org/2000/svg" viewBox="0 0 65 40">
  <g data-name="Layer 1">
    <g opacity=".41" style="mix-blend-mode:multiply">
      <path d="M58.55 29.982v7.3a.9.9 0 01-.9.9h-2.53a4.131 4.131 0 00-.27-1.2 5.5 5.5 0 00-.28-.6h2.18v-5.5H2.55v5.5h2.17a5.461 5.461 0 00-.27.6 4.131 4.131 0 00-.27 1.2H1.65a.9.9 0 01-.9-.9v-7.3a.9.9 0 01.9-.9h56a.9.9 0 01.9.9z" fill="#435b55"/>
      <path d="M56.75 30.882v5.5h-2.18a2.675 2.675 0 00-.18-.28 4.26 4.26 0 00-.5-.64 1.968 1.968 0 00-.25-.25 2.094 2.094 0 00-.28-.24 3.358 3.358 0 00-.6-.41 4.334 4.334 0 00-1.01-.45 3.854 3.854 0 00-.73-.17 2.268 2.268 0 00-.35-.05c-.11 0-.21-.01-.32-.01v-3h6.4z" fill="#002b0e"/>
      <path d="M54.45 4.982c5.1 8.6 5.56 14.31 1.23 23.23-.2.3-2.33.2-2.33.2h-48l-1.63-.01c-4.27-8.66-3.97-14.92 1.13-23.52a1.234 1.234 0 01.8-.4h26.16v1.9H6.15c-3.97 7.97-4.45 13.14-.95 20.75h48.93c3.65-7.69 2.81-12.7-1.08-20.75h-9.7v-1.9h10.3a1.02 1.02 0 01.8.5z" fill="#435b55"/>
      <path d="M55.12 38.182a4.193 4.193 0 01.03.5 4.845 4.845 0 01-4.9 4.9 4.914 4.914 0 01-4.68-3.44v-.01a4.312 4.312 0 00.18-1.45 4.193 4.193 0 00-.03-.5h.63a.875.875 0 00.9-.6 3.1 3.1 0 015.8 0 .961.961 0 00.9.6h1.17zm-1.97.6a4.253 4.253 0 00-.2-1.1 2.7 2.7 0 00-2.7-2 3.139 3.139 0 00-2.9 2 4.253 4.253 0 00-.2 1.1 3.009 3.009 0 003 3 3.076 3.076 0 003-3z"/>
      <path d="M55.12 38.182h-1.17a.961.961 0 01-.9-.6 3.1 3.1 0 00-5.8 0 .875.875 0 01-.9.6h-.63a3.774 3.774 0 00-.17-.9c.03-.1.06-.2.1-.3a5.461 5.461 0 01.27-.6h.13a5.058 5.058 0 013.96-2.49 1.927 1.927 0 01.24-.01h.1c.11 0 .21.01.32.01.12.02.24.03.35.05a5.553 5.553 0 01.73.17 4.379 4.379 0 011.01.45 3.727 3.727 0 01.6.41c.1.08.19.16.28.24s.17.16.25.25a4.26 4.26 0 01.5.64c.06.09.11.19.16.28h.02a5.5 5.5 0 01.28.6 4.131 4.131 0 01.27 1.2z" fill="#435b55"/>
      <path d="M54.57 36.382h-.02c-.05-.09-.1-.19-.16-.28a2.675 2.675 0 01.18.28z"/>
      <path d="M53.05 6.382c3.89 8.05 4.73 13.06 1.08 20.75H5.2c-3.5-7.605-3.02-12.78.95-20.75h25.66v14.5a.9.9 0 00.9.9.967.967 0 00.9-.9v-3.2h7.94v3.2a.9.9 0 00.9.9.967.967 0 00.9-.9v-14.5h9.7z" fill="#000200"/>
      <path d="M53.89 35.462c-.08-.09-.17-.17-.25-.25a1.968 1.968 0 01.25.25zM53.64 35.212c-.09-.08-.18-.16-.28-.24a2.094 2.094 0 01.28.24zM53.36 34.972a3.727 3.727 0 00-.6-.41 3.358 3.358 0 01.6.41z"/>
      <path d="M52.95 37.682a4.253 4.253 0 01.2 1.1 3.076 3.076 0 01-3 3 3.009 3.009 0 01-3-3 4.253 4.253 0 01.2-1.1 3.139 3.139 0 012.9-2 2.7 2.7 0 012.7 2zm-1 1.1a1.268 1.268 0 00-.1-.6 1.714 1.714 0 00-3.2 0 1.268 1.268 0 00-.1.6 1.685 1.685 0 001.7 1.7 1.752 1.752 0 001.7-1.7z" fill="#2a3f55"/>
      <path d="M52.76 34.562a4.379 4.379 0 00-1.01-.45 4.334 4.334 0 011.01.45zM51.85 38.182a1.268 1.268 0 01.1.6 1.752 1.752 0 01-1.7 1.7 1.685 1.685 0 01-1.7-1.7 1.268 1.268 0 01.1-.6 1.714 1.714 0 013.2 0zm-.7.6v-.3a1.058 1.058 0 00-.9-.5.752.752 0 00-.7.5v.3a.8.8 0 001.6 0zM51.75 34.112a5.553 5.553 0 00-.73-.17 3.854 3.854 0 01.73.17zM51.02 33.942c-.11-.02-.23-.03-.35-.05a2.268 2.268 0 01.35.05z"/>
      <path d="M50.35 30.882v3h-.1a1.927 1.927 0 00-.24.01 4.779 4.779 0 00-4.09 2.49h-.67a4.909 4.909 0 00-4.01-2.49c-.1 0-.19-.01-.29-.01v-3h9.4z" fill="#002b0e"/>
      <path d="M50.01 33.892a5.058 5.058 0 00-3.96 2.49h-.13a4.779 4.779 0 014.09-2.49z"/>
      <path d="M45.25 36.382h.67a5.461 5.461 0 00-.27.6c-.04.1-.07.2-.1.3-.03-.1-.06-.2-.1-.3a4.934 4.934 0 00-4.21-3.09 4.909 4.909 0 014.01 2.49z" fill="#435b55"/>
      <path d="M45.75 38.682a4.312 4.312 0 01-.18 1.45 4.991 4.991 0 01-.22-1.45 4.193 4.193 0 01.03-.5h.34a4.193 4.193 0 01.03.5z"/>
      <path d="M45.72 38.182h-.34a3.774 3.774 0 01.17-.9 3.774 3.774 0 01.17.9z" fill="#435b55"/>
      <path d="M45.57 40.132v.01a4.856 4.856 0 01-4.72 3.44 4.908 4.908 0 01-4.9-4.9 4.193 4.193 0 01.03-.5h.87a.875.875 0 00.9-.6 3.139 3.139 0 012.9-2 3 3 0 011.43.36 3.015 3.015 0 00-1.23-.26 3.139 3.139 0 00-2.9 2 4.253 4.253 0 00-.2 1.1 3.009 3.009 0 003 3 3.076 3.076 0 003-3 4.253 4.253 0 00-.2-1.1 1.286 1.286 0 00-.04-.19c.01.03.03.06.04.09a.961.961 0 00.9.6h.93a4.193 4.193 0 00-.03.5 4.991 4.991 0 00.22 1.45z"/>
      <path d="M45.45 36.982c.04.1.07.2.1.3a3.774 3.774 0 00-.17.9h-.93a.961.961 0 01-.9-.6c-.01-.03-.03-.06-.04-.09a2.371 2.371 0 00-1.43-1.55 3 3 0 00-1.43-.36 3.139 3.139 0 00-2.9 2 .875.875 0 01-.9.6h-.87a4.131 4.131 0 01.27-1.2 5.461 5.461 0 01.27-.6h.13a5.058 5.058 0 013.96-2.49 1.927 1.927 0 01.24-.01h.1c.1 0 .19.01.29.01a4.934 4.934 0 014.21 3.09z" fill="#435b55"/>
      <path d="M43.55 37.682a4.253 4.253 0 01.2 1.1 3.076 3.076 0 01-3 3 3.009 3.009 0 01-3-3 4.253 4.253 0 01.2-1.1 3.139 3.139 0 012.9-2 3.015 3.015 0 011.23.26 3.228 3.228 0 011.43 1.55 1.286 1.286 0 01.04.19zm-2.7 2.8a1.626 1.626 0 001.7-1.7 1.268 1.268 0 00-.1-.6 1.714 1.714 0 00-3.2 0 1.268 1.268 0 00-.1.6 1.685 1.685 0 001.7 1.7z" fill="#2a3f55"/>
      <path d="M43.35 16.782v4.1a.967.967 0 01-.9.9.9.9 0 01-.9-.9v-3.2h.9a.9.9 0 00.9-.9zM43.35 10.982v5.8a.9.9 0 00-.9-.9h-.9v-4h.9a.9.9 0 00.9-.9zM43.35 6.382v4.6a.9.9 0 00-.9-.9h-.9v-3.7h1.8z" fill="#002b0e"/>
      <path fill="#002b0e" d="M41.55 4.482h1.8v1.9h-1.8zM43.35 3.382v1.1h-1.8v-1.1a.9.9 0 011.8 0z"/>
      <path d="M42.08 35.942a2.371 2.371 0 011.43 1.55 3.228 3.228 0 00-1.43-1.55z"/>
      <path d="M42.45 10.082a.9.9 0 010 1.8h-.9v-1.8h.9zM42.45 15.882a.9.9 0 110 1.8h-.9v-1.8h.9z" fill="#002b0e"/>
      <path d="M42.55 38.782a1.626 1.626 0 01-1.7 1.7 1.685 1.685 0 01-1.7-1.7 1.268 1.268 0 01.1-.6 1.714 1.714 0 013.2 0 1.268 1.268 0 01.1.6zm-.9-.1v-.3a.731.731 0 00-.8-.4.752.752 0 00-.7.5v.3a.789.789 0 00.8.8.876.876 0 00.7-.9z"/>
      <path fill="#002b0e" d="M33.61 15.882h7.94v1.8h-7.94z"/>
      <path fill="#000200" d="M33.61 11.882h7.94v4h-7.94z"/>
      <path fill="#002b0e" d="M33.61 10.082h7.94v1.8h-7.94z"/>
      <path fill="#000200" d="M33.61 6.382h7.94v3.7h-7.94z"/>
      <path fill="#435b55" d="M33.61 4.482h7.94v1.9h-7.94z"/>
      <path d="M40.95 30.882v3h-.1a1.927 1.927 0 00-.24.01 4.779 4.779 0 00-4.09 2.49H22.77a2.675 2.675 0 00-.18-.28 4.852 4.852 0 00-.75-.89c-.09-.08-.18-.16-.28-.24a4.628 4.628 0 00-1.48-.81 2.811 2.811 0 00-.31-.1 3.4 3.4 0 00-.65-.13c-.11-.02-.22-.03-.33-.04s-.23-.01-.34-.01v-3h22.5z" fill="#002b0e"/>
      <path d="M40.61 33.892a5.058 5.058 0 00-3.96 2.49h-.13a4.779 4.779 0 014.09-2.49z"/>
      <path d="M22.77 36.382h13.75a5.461 5.461 0 00-.27.6 4.131 4.131 0 00-.27 1.2H23.32a4.131 4.131 0 00-.27-1.2 5.5 5.5 0 00-.28-.6z" fill="#435b55"/>
      <path d="M33.61 17.682v3.2a.967.967 0 01-.9.9.9.9 0 01-.9-.9v-4.1h.34a.9.9 0 00.9.9h.56z" fill="#002b0e"/>
      <path d="M33.61 15.882v1.8h-.56a.9.9 0 010-1.8h.56z" fill="#002b0e"/>
      <path d="M33.61 11.882v4h-.56a.9.9 0 00-.9.9h-.34v-5.8h.34a.9.9 0 00.9.9h.56z" fill="#002b0e"/>
      <path d="M33.61 10.082v1.8h-.56a.9.9 0 010-1.8h.56z" fill="#002b0e"/>
      <path d="M33.61 6.382v3.7h-.56a.9.9 0 00-.9.9h-.34v-4.6h1.8zM31.81 4.482h1.8v1.9h-1.8zM33.61 3.382v1.1h-1.8v-1.1a.9.9 0 111.8 0z" fill="#002b0e"/>
      <path fill="#435b55" d="M23.95.782l.05 3.44h-8.1l-.05-2.44 8.1-1z"/>
      <path d="M23.32 38.182a4.193 4.193 0 01.03.5 4.972 4.972 0 01-4.9 4.9 4.917 4.917 0 01-4.7-3.5 4.935 4.935 0 00.2-1.4 4.193 4.193 0 00-.03-.5h.33a.875.875 0 00.9-.6 3.139 3.139 0 012.9-2 2.936 2.936 0 011.03.18 2.27 2.27 0 00-.63-.08 3.139 3.139 0 00-2.9 2 4.253 4.253 0 00-.2 1.1 3 3 0 105.86-.86.845.845 0 00.64.26h1.47z"/>
      <path d="M23.32 38.182h-1.47a.845.845 0 01-.64-.26l-.06-.24a2.717 2.717 0 00-2.07-1.92 2.936 2.936 0 00-1.03-.18 3.139 3.139 0 00-2.9 2 .875.875 0 01-.9.6h-.33a3.774 3.774 0 00-.17-.9c.03-.1.06-.2.1-.3a5.461 5.461 0 01.27-.6h.03a5.1 5.1 0 013.31-2.4c.11-.02.22-.04.33-.05a.075.075 0 01.05-.01l.27-.03c.11-.01.23-.01.34-.01s.23 0 .34.01.22.02.33.04a3.4 3.4 0 01.65.13 2.811 2.811 0 01.31.1 4.628 4.628 0 011.48.81c.1.08.19.16.28.24a4.852 4.852 0 01.75.89c.06.09.11.19.16.28h.02a5.5 5.5 0 01.28.6 4.131 4.131 0 01.27 1.2z" fill="#435b55"/>
      <path d="M22.77 36.382h-.02c-.05-.09-.1-.19-.16-.28a2.675 2.675 0 01.18.28zM21.84 35.212c-.09-.08-.18-.16-.28-.24.1.08.19.16.28.24z"/>
      <path d="M21.21 37.927a2.994 2.994 0 11-5.86.86 4.253 4.253 0 01.2-1.1 3.139 3.139 0 012.9-2 2.27 2.27 0 01.63.08 3.193 3.193 0 011.87 1.82.852.852 0 00.26.34zm-1.06.86a1.268 1.268 0 00-.1-.6 1.714 1.714 0 00-3.2 0 1.268 1.268 0 00-.1.6 1.685 1.685 0 001.7 1.7 1.828 1.828 0 001.7-1.705z" fill="#2a3f55"/>
      <path d="M21.15 37.682l.06.24a.852.852 0 01-.26-.34 3.193 3.193 0 00-1.87-1.82 2.717 2.717 0 012.07 1.92zM20.05 38.182a1.268 1.268 0 01.1.6 1.828 1.828 0 01-1.7 1.7 1.685 1.685 0 01-1.7-1.7 1.268 1.268 0 01.1-.6 1.714 1.714 0 013.2 0zm-.7.6v-.3a1.058 1.058 0 00-.9-.5.752.752 0 00-.7.5v.3a.789.789 0 00.8.8.86.86 0 00.8-.8zM20.08 34.162a2.811 2.811 0 00-.31-.1 2.811 2.811 0 01.31.1zM19.12 33.932c-.11-.02-.22-.03-.33-.04.11.01.22.02.33.04z"/>
      <path d="M18.45 30.882v3c-.11 0-.23 0-.34.01a2.477 2.477 0 00-.27.03.075.075 0 00-.05.01 1.257 1.257 0 00-.33.05 4.706 4.706 0 00-3.34 2.4h-.75a2.675 2.675 0 00-.18-.28 4.852 4.852 0 00-.75-.89c-.09-.08-.18-.16-.28-.24a4.628 4.628 0 00-1.48-.81 2.811 2.811 0 00-.31-.1 3.4 3.4 0 00-.65-.13c-.11-.02-.22-.03-.33-.04s-.23-.01-.34-.01v-3h9.4z" fill="#002b0e"/>
      <path d="M18.11 33.892l-.27.03a2.477 2.477 0 01.27-.03zM17.79 33.932c-.11.01-.22.03-.33.05a1.257 1.257 0 01.33-.05zM17.46 33.982a5.1 5.1 0 00-3.31 2.4h-.03a4.706 4.706 0 013.34-2.4z"/>
      <path d="M13.37 36.382h.75a5.461 5.461 0 00-.27.6c-.04.1-.07.2-.1.3-.03-.1-.06-.2-.1-.3a5.5 5.5 0 00-.28-.6z" fill="#435b55"/>
      <path d="M13.92 38.182a4.193 4.193 0 01.03.5 4.935 4.935 0 01-.2 1.4 5.04 5.04 0 01-.2-1.4 4.193 4.193 0 01.03-.5h.34z"/>
      <path d="M13.92 38.182h-.34a3.774 3.774 0 01.17-.9 3.774 3.774 0 01.17.9z" fill="#435b55"/>
      <path d="M13.65 36.982c.04.1.07.2.1.3a3.774 3.774 0 00-.17.9h-1.23a.9.9 0 01-.51-.15c-.03-.11-.06-.22-.09-.35a2.628 2.628 0 00-2.27-1.96.037.037 0 00-.03-.01 3.317 3.317 0 00-.9-.13 3.139 3.139 0 00-2.9 2 .875.875 0 01-.9.6h-.57a4.131 4.131 0 01.27-1.2 5.461 5.461 0 01.27-.6h.03a5.1 5.1 0 013.31-2.4c.11-.02.22-.04.33-.05a3.106 3.106 0 01.32-.04c.11-.01.23-.01.34-.01s.23 0 .34.01.22.02.33.04a3.4 3.4 0 01.65.13 2.811 2.811 0 01.31.1 4.628 4.628 0 011.48.81c.1.08.19.16.28.24a4.852 4.852 0 01.75.89c.06.09.11.19.16.28h.02a5.5 5.5 0 01.28.6z" fill="#435b55"/>
      <path d="M13.55 38.682a5.04 5.04 0 00.2 1.4 4.831 4.831 0 01-4.7 3.5 4.908 4.908 0 01-4.9-4.9 4.193 4.193 0 01.03-.5h.57a.875.875 0 00.9-.6 3.139 3.139 0 012.9-2 3.317 3.317 0 01.9.13 2.6 2.6 0 00-.4-.03 3.139 3.139 0 00-2.9 2 4.253 4.253 0 00-.2 1.1 3.009 3.009 0 003 3 2.951 2.951 0 002.89-3.75.9.9 0 00.51.15h1.23a4.193 4.193 0 00-.03.5zM13.37 36.382h-.02c-.05-.09-.1-.19-.16-.28a2.675 2.675 0 01.18.28zM12.44 35.212c-.09-.08-.18-.16-.28-.24.1.08.19.16.28.24z"/>
      <path d="M11.84 38.032a2.951 2.951 0 01-2.89 3.75 3.009 3.009 0 01-3-3 4.253 4.253 0 01.2-1.1 3.139 3.139 0 012.9-2 2.6 2.6 0 01.4.03.037.037 0 01.03.01 3.229 3.229 0 011.97 1.86.973.973 0 00.39.45zm-1.09.75a1.268 1.268 0 00-.1-.6 1.714 1.714 0 00-3.2 0 1.268 1.268 0 00-.1.6 1.685 1.685 0 001.7 1.7 1.752 1.752 0 001.7-1.7z" fill="#2a3f55"/>
      <path d="M11.75 37.682c.03.13.06.24.09.35a.973.973 0 01-.39-.45 3.229 3.229 0 00-1.97-1.86 2.628 2.628 0 012.27 1.96zM10.65 38.182a1.268 1.268 0 01.1.6 1.752 1.752 0 01-1.7 1.7 1.685 1.685 0 01-1.7-1.7 1.268 1.268 0 01.1-.6 1.714 1.714 0 013.2 0zm-.7.6v-.3a1.058 1.058 0 00-.9-.5.752.752 0 00-.7.5v.3a.8.8 0 101.6 0zM10.68 34.162a2.811 2.811 0 00-.31-.1 2.811 2.811 0 01.31.1zM9.72 33.932c-.11-.02-.22-.03-.33-.04.11.01.22.02.33.04z"/>
      <path d="M9.05 30.882v3c-.11 0-.23 0-.34.01a3.106 3.106 0 00-.32.04 1.257 1.257 0 00-.33.05 4.706 4.706 0 00-3.34 2.4H2.55v-5.5h6.5z" fill="#002b0e"/>
      <path d="M8.71 33.892a3.106 3.106 0 00-.32.04 3.106 3.106 0 01.32-.04zM8.39 33.932c-.11.01-.22.03-.33.05a1.257 1.257 0 01.33-.05zM8.06 33.982a5.1 5.1 0 00-3.31 2.4h-.03a4.706 4.706 0 013.34-2.4z"/>
      <path fill="none" stroke="#000" stroke-miterlimit="10" stroke-width=".5" d="M33.61 4.482h7.94M43.35 4.482h10.3a1.02 1.02 0 01.8.5c5.1 8.6 5.56 14.31 1.23 23.23-.2.3-2.33.2-2.33.2h-48l-1.63-.01c-4.27-8.66-3.97-14.92 1.13-23.52a1.234 1.234 0 01.8-.4h26.16M9.45 35.712a3.317 3.317 0 00-.9-.13 3.139 3.139 0 00-2.9 2 .875.875 0 01-.9.6h-3.1a.9.9 0 01-.9-.9v-7.3a.9.9 0 01.9-.9h56a.9.9 0 01.9.9v7.3a.9.9 0 01-.9.9h-3.7a.961.961 0 01-.9-.6 3.1 3.1 0 00-5.8 0 .875.875 0 01-.9.6h-1.9a.961.961 0 01-.9-.6c-.01-.03-.03-.06-.04-.09a3.228 3.228 0 00-1.43-1.55 3 3 0 00-1.43-.36 3.139 3.139 0 00-2.9 2 .875.875 0 01-.9.6h-15a1.066 1.066 0 01-.9-.6 3.193 3.193 0 00-1.87-1.82 2.936 2.936 0 00-1.03-.18 3.139 3.139 0 00-2.9 2 .875.875 0 01-.9.6h-1.9a.9.9 0 01-.51-.15.973.973 0 01-.39-.45 3.229 3.229 0 00-1.97-1.86"/>
      <path d="M50.67 33.892a2.268 2.268 0 01.35.05 3.854 3.854 0 01.73.17 4.334 4.334 0 011.01.45 3.358 3.358 0 01.6.41 2.094 2.094 0 01.28.24 1.968 1.968 0 01.25.25M41.24 33.892a4.909 4.909 0 014.01 2.49h.8a5.058 5.058 0 013.96-2.49M22.59 36.102c.06.09.11.19.16.28h13.9a5.058 5.058 0 013.96-2.49M21.56 34.972c.1.08.19.16.28.24M19.77 34.062a2.811 2.811 0 01.31.1M18.79 33.892c.11.01.22.02.33.04M17.84 33.927l.27-.03M13.19 36.102c.06.09.11.19.16.28h.8a5.1 5.1 0 013.31-2.4c.11-.02.22-.04.33-.05M12.16 34.972c.1.08.19.16.28.24M10.37 34.062a2.811 2.811 0 01.31.1M9.39 33.892c.11.01.22.02.33.04" fill="none" stroke="#000" stroke-miterlimit="10" stroke-width=".25"/>
      <path d="M54.39 36.102c.06.09.11.19.16.28h2.2v-5.5H2.55v5.5h2.2a5.1 5.1 0 013.31-2.4c.11-.02.22-.04.33-.05a3.106 3.106 0 01.32-.04M53.89 35.462a4.26 4.26 0 01.5.64" fill="none" stroke="#000" stroke-miterlimit="10" stroke-width=".25"/>
      <path d="M50.01 33.892a1.927 1.927 0 01.24-.01h.1c.11 0 .21.01.32.01M40.61 33.892a1.927 1.927 0 01.24-.01h.1c.1 0 .19.01.29.01M21.84 35.212a4.852 4.852 0 01.75.89M20.08 34.162a4.628 4.628 0 011.48.81M19.12 33.932a3.4 3.4 0 01.65.13M18.11 33.892c.11-.01.23-.01.34-.01s.23 0 .34.01M17.79 33.932a.075.075 0 01.05-.01M12.44 35.212a4.852 4.852 0 01.75.89M10.68 34.162a4.628 4.628 0 011.48.81M9.72 33.932a3.4 3.4 0 01.65.13M8.71 33.892c.11-.01.23-.01.34-.01s.23 0 .34.01" fill="none" stroke="#000" stroke-miterlimit="10" stroke-width=".25"/>
      <path d="M9.48 35.727a.037.037 0 00-.03-.01" fill="none" stroke="#000" stroke-miterlimit="10" stroke-width=".5"/>
      <path fill="none" stroke="#000" stroke-linecap="round" stroke-miterlimit="10" stroke-width=".5" d="M15.9 4.222H24l-.05-3.44-8.1 1 .05 2.44z"/>
      <path fill="none" stroke="#000" stroke-miterlimit="10" stroke-width=".25" d="M41.55 6.382h-7.94M31.81 6.382H6.15c-3.97 7.97-4.45 13.14-.95 20.75h48.93c3.65-7.69 2.81-12.7-1.08-20.75h-9.7"/>
    </g>
    <path d="M58.05 29.482v7.3a.9.9 0 01-.9.9h-2.53a4.131 4.131 0 00-.27-1.2 5.5 5.5 0 00-.28-.6h2.18v-5.5H2.05v5.5h2.17a5.461 5.461 0 00-.27.6 4.131 4.131 0 00-.27 1.2H1.15a.9.9 0 01-.9-.9v-7.3a.9.9 0 01.9-.9h56a.9.9 0 01.9.9z" fill="#dcf4ee"/>
    <path d="M56.25 30.382v5.5h-2.18a2.675 2.675 0 00-.18-.28 4.26 4.26 0 00-.5-.64 1.968 1.968 0 00-.25-.25 2.094 2.094 0 00-.28-.24 3.358 3.358 0 00-.6-.41 4.334 4.334 0 00-1.01-.45 3.854 3.854 0 00-.73-.17 2.268 2.268 0 00-.35-.05c-.11 0-.21-.01-.32-.01v-3h6.4z" fill="#45c4a7"/>
    <path d="M53.95 4.482c5.1 8.6 5.56 14.31 1.23 23.23-.2.3-2.33.2-2.33.2h-48l-1.63-.01c-4.27-8.66-3.97-14.92 1.13-23.52a1.234 1.234 0 01.8-.4h26.16v1.9H5.65c-3.97 7.97-4.45 13.14-.95 20.75h48.93c3.65-7.69 2.81-12.7-1.08-20.75h-9.7v-1.9h10.3a1.02 1.02 0 01.8.5z" fill="#dcf4ee"/>
    <path d="M54.62 37.682a4.193 4.193 0 01.03.5 4.845 4.845 0 01-4.9 4.9 4.914 4.914 0 01-4.68-3.44v-.01a4.312 4.312 0 00.18-1.45 4.193 4.193 0 00-.03-.5h.63a.875.875 0 00.9-.6 3.1 3.1 0 015.8 0 .961.961 0 00.9.6h1.17zm-1.97.6a4.253 4.253 0 00-.2-1.1 2.7 2.7 0 00-2.7-2 3.139 3.139 0 00-2.9 2 4.253 4.253 0 00-.2 1.1 3.009 3.009 0 003 3 3.076 3.076 0 003-3z" fill="#16324f"/>
    <path d="M54.62 37.682h-1.17a.961.961 0 01-.9-.6 3.1 3.1 0 00-5.8 0 .875.875 0 01-.9.6h-.63a3.774 3.774 0 00-.17-.9c.03-.1.06-.2.1-.3a5.461 5.461 0 01.27-.6h.13a5.058 5.058 0 013.96-2.49 1.927 1.927 0 01.24-.01h.1c.11 0 .21.01.32.01.12.02.24.03.35.05a5.553 5.553 0 01.73.17 4.379 4.379 0 011.01.45 3.727 3.727 0 01.6.41c.1.08.19.16.28.24s.17.16.25.25a4.26 4.26 0 01.5.64c.06.09.11.19.16.28h.02a5.5 5.5 0 01.28.6 4.131 4.131 0 01.27 1.2z" fill="#dcf4ee"/>
    <path d="M54.07 35.882h-.02c-.05-.09-.1-.19-.16-.28a2.675 2.675 0 01.18.28z"/>
    <path d="M52.55 5.882c3.89 8.05 4.73 13.06 1.08 20.75H4.7c-3.5-7.61-3.02-12.78.95-20.75h25.66v14.5a.9.9 0 00.9.9.967.967 0 00.9-.9v-3.2h7.94v3.2a.9.9 0 00.9.9.967.967 0 00.9-.9v-14.5h9.7z" fill="#3b9b81"/>
    <path d="M53.39 34.962c-.08-.09-.17-.17-.25-.25a1.968 1.968 0 01.25.25zM53.14 34.712c-.09-.08-.18-.16-.28-.24a2.094 2.094 0 01.28.24zM52.86 34.472a3.727 3.727 0 00-.6-.41 3.358 3.358 0 01.6.41z"/>
    <path d="M52.45 37.182a4.253 4.253 0 01.2 1.1 3.076 3.076 0 01-3 3 3.009 3.009 0 01-3-3 4.253 4.253 0 01.2-1.1 3.139 3.139 0 012.9-2 2.7 2.7 0 012.7 2zm-1 1.1a1.268 1.268 0 00-.1-.6 1.714 1.714 0 00-3.2 0 1.268 1.268 0 00-.1.6 1.685 1.685 0 001.7 1.7 1.752 1.752 0 001.7-1.7z" fill="#c3d8ee"/>
    <path d="M52.26 34.062a4.379 4.379 0 00-1.01-.45 4.334 4.334 0 011.01.45zM51.35 37.682a1.268 1.268 0 01.1.6 1.752 1.752 0 01-1.7 1.7 1.685 1.685 0 01-1.7-1.7 1.268 1.268 0 01.1-.6 1.714 1.714 0 013.2 0zm-.7.6v-.3a1.058 1.058 0 00-.9-.5.752.752 0 00-.7.5v.3a.8.8 0 001.6 0zM51.25 33.612a5.553 5.553 0 00-.73-.17 3.854 3.854 0 01.73.17zM50.52 33.442c-.11-.02-.23-.03-.35-.05a2.268 2.268 0 01.35.05z"/>
    <path d="M49.85 30.382v3h-.1a1.927 1.927 0 00-.24.01 4.779 4.779 0 00-4.09 2.49h-.67a4.909 4.909 0 00-4.01-2.49c-.1 0-.19-.01-.29-.01v-3h9.4z" fill="#45c4a7"/>
    <path d="M49.51 33.392a5.058 5.058 0 00-3.96 2.49h-.13a4.779 4.779 0 014.09-2.49z"/>
    <path d="M44.75 35.882h.67a5.461 5.461 0 00-.27.6c-.04.1-.07.2-.1.3-.03-.1-.06-.2-.1-.3a4.934 4.934 0 00-4.21-3.09 4.909 4.909 0 014.01 2.49z" fill="#dcf4ee"/>
    <path d="M45.25 38.182a4.312 4.312 0 01-.18 1.45 4.991 4.991 0 01-.22-1.45 4.193 4.193 0 01.03-.5h.34a4.193 4.193 0 01.03.5z" fill="#16324f"/>
    <path d="M45.22 37.682h-.34a3.774 3.774 0 01.17-.9 3.774 3.774 0 01.17.9z" fill="#dcf4ee"/>
    <path d="M45.07 39.632v.01a4.856 4.856 0 01-4.72 3.44 4.908 4.908 0 01-4.9-4.9 4.193 4.193 0 01.03-.5h.87a.875.875 0 00.9-.6 3.139 3.139 0 012.9-2 3 3 0 011.43.36 3.015 3.015 0 00-1.23-.26 3.139 3.139 0 00-2.9 2 4.253 4.253 0 00-.2 1.1 3.009 3.009 0 003 3 3.076 3.076 0 003-3 4.253 4.253 0 00-.2-1.1 1.286 1.286 0 00-.04-.19c.01.03.03.06.04.09a.961.961 0 00.9.6h.93a4.193 4.193 0 00-.03.5 4.991 4.991 0 00.22 1.45z" fill="#16324f"/>
    <path d="M44.95 36.482c.04.1.07.2.1.3a3.774 3.774 0 00-.17.9h-.93a.961.961 0 01-.9-.6c-.01-.03-.03-.06-.04-.09a2.371 2.371 0 00-1.43-1.55 3 3 0 00-1.43-.36 3.139 3.139 0 00-2.9 2 .875.875 0 01-.9.6h-.87a4.131 4.131 0 01.27-1.2 5.461 5.461 0 01.27-.6h.13a5.058 5.058 0 013.96-2.49 1.927 1.927 0 01.24-.01h.1c.1 0 .19.01.29.01a4.934 4.934 0 014.21 3.09z" fill="#dcf4ee"/>
    <path d="M43.05 37.182a4.253 4.253 0 01.2 1.1 3.076 3.076 0 01-3 3 3.009 3.009 0 01-3-3 4.253 4.253 0 01.2-1.1 3.139 3.139 0 012.9-2 3.015 3.015 0 011.23.26 3.228 3.228 0 011.43 1.55 1.286 1.286 0 01.04.19zm-2.7 2.8a1.626 1.626 0 001.7-1.7 1.268 1.268 0 00-.1-.6 1.714 1.714 0 00-3.2 0 1.268 1.268 0 00-.1.6 1.685 1.685 0 001.7 1.7z" fill="#c3d8ee"/>
    <path d="M42.85 16.282v4.1a.967.967 0 01-.9.9.9.9 0 01-.9-.9v-3.2h.9a.9.9 0 00.9-.9zM42.85 10.482v5.8a.9.9 0 00-.9-.9h-.9v-4h.9a.9.9 0 00.9-.9zM42.85 5.882v4.6a.9.9 0 00-.9-.9h-.9v-3.7h1.8z" fill="#45c4a7"/>
    <path fill="#45c4a7" d="M41.05 3.982h1.8v1.9h-1.8zM42.85 2.882v1.1h-1.8v-1.1a.9.9 0 011.8 0z"/>
    <path d="M41.58 35.442a2.371 2.371 0 011.43 1.55 3.228 3.228 0 00-1.43-1.55z"/>
    <path d="M41.95 9.582a.9.9 0 010 1.8h-.9v-1.8h.9zM41.95 15.382a.9.9 0 110 1.8h-.9v-1.8h.9z" fill="#45c4a7"/>
    <path d="M42.05 38.282a1.626 1.626 0 01-1.7 1.7 1.685 1.685 0 01-1.7-1.7 1.268 1.268 0 01.1-.6 1.714 1.714 0 013.2 0 1.268 1.268 0 01.1.6zm-.9-.1v-.3a.731.731 0 00-.8-.4.752.752 0 00-.7.5v.3a.789.789 0 00.8.8.876.876 0 00.7-.9z"/>
    <path fill="#45c4a7" d="M33.11 15.382h7.94v1.8h-7.94z"/>
    <path fill="#3b9b81" d="M33.11 11.382h7.94v4h-7.94z"/>
    <path fill="#45c4a7" d="M33.11 9.582h7.94v1.8h-7.94z"/>
    <path fill="#3b9b81" d="M33.11 5.882h7.94v3.7h-7.94z"/>
    <path fill="#dcf4ee" d="M33.11 3.982h7.94v1.9h-7.94z"/>
    <path d="M40.45 30.382v3h-.1a1.927 1.927 0 00-.24.01 4.779 4.779 0 00-4.09 2.49H22.27a2.675 2.675 0 00-.18-.28 4.852 4.852 0 00-.75-.89c-.09-.08-.18-.16-.28-.24a4.628 4.628 0 00-1.48-.81 2.811 2.811 0 00-.31-.1 3.4 3.4 0 00-.65-.13c-.11-.02-.22-.03-.33-.04s-.23-.01-.34-.01v-3h22.5z" fill="#45c4a7"/>
    <path d="M40.11 33.392a5.058 5.058 0 00-3.96 2.49h-.13a4.779 4.779 0 014.09-2.49z"/>
    <path d="M22.27 35.882h13.75a5.461 5.461 0 00-.27.6 4.131 4.131 0 00-.27 1.2H22.82a4.131 4.131 0 00-.27-1.2 5.5 5.5 0 00-.28-.6z" fill="#dcf4ee"/>
    <path d="M33.11 17.182v3.2a.967.967 0 01-.9.9.9.9 0 01-.9-.9v-4.1h.34a.9.9 0 00.9.9h.56z" fill="#45c4a7"/>
    <path d="M33.11 15.382v1.8h-.56a.9.9 0 010-1.8h.56z" fill="#45c4a7"/>
    <path d="M33.11 11.382v4h-.56a.9.9 0 00-.9.9h-.34v-5.8h.34a.9.9 0 00.9.9h.56z" fill="#45c4a7"/>
    <path d="M33.11 9.582v1.8h-.56a.9.9 0 010-1.8h.56z" fill="#45c4a7"/>
    <path d="M33.11 5.882v3.7h-.56a.9.9 0 00-.9.9h-.34v-4.6h1.8zM31.31 3.982h1.8v1.9h-1.8zM33.11 2.882v1.1h-1.8v-1.1a.9.9 0 111.8 0z" fill="#45c4a7"/>
    <path fill="#dcf4ee" d="M23.45.282l.05 3.44h-8.1l-.05-2.44 8.1-1z"/>
    <path d="M22.82 37.682a4.193 4.193 0 01.03.5 4.972 4.972 0 01-4.9 4.9 4.917 4.917 0 01-4.7-3.5 4.935 4.935 0 00.2-1.4 4.193 4.193 0 00-.03-.5h.33a.875.875 0 00.9-.6 3.139 3.139 0 012.9-2 2.936 2.936 0 011.03.18 2.27 2.27 0 00-.63-.08 3.139 3.139 0 00-2.9 2 4.253 4.253 0 00-.2 1.1 3 3 0 105.86-.86.845.845 0 00.64.26h1.47z" fill="#16324f"/>
    <path d="M22.82 37.682h-1.47a.845.845 0 01-.64-.26l-.06-.24a2.717 2.717 0 00-2.07-1.92 2.936 2.936 0 00-1.03-.18 3.139 3.139 0 00-2.9 2 .875.875 0 01-.9.6h-.33a3.774 3.774 0 00-.17-.9c.03-.1.06-.2.1-.3a5.461 5.461 0 01.27-.6h.03a5.1 5.1 0 013.31-2.4c.11-.02.22-.04.33-.05a.075.075 0 01.05-.01l.27-.03c.11-.01.23-.01.34-.01s.23 0 .34.01.22.02.33.04a3.4 3.4 0 01.65.13 2.811 2.811 0 01.31.1 4.628 4.628 0 011.48.81c.1.08.19.16.28.24a4.852 4.852 0 01.75.89c.06.09.11.19.16.28h.02a5.5 5.5 0 01.28.6 4.131 4.131 0 01.27 1.2z" fill="#dcf4ee"/>
    <path d="M22.27 35.882h-.02c-.05-.09-.1-.19-.16-.28a2.675 2.675 0 01.18.28zM21.34 34.712c-.09-.08-.18-.16-.28-.24.1.08.19.16.28.24z"/>
    <path d="M20.71 37.427a2.994 2.994 0 11-5.86.86 4.253 4.253 0 01.2-1.1 3.139 3.139 0 012.9-2 2.27 2.27 0 01.63.08 3.193 3.193 0 011.87 1.82.852.852 0 00.26.34zm-1.06.86a1.268 1.268 0 00-.1-.6 1.714 1.714 0 00-3.2 0 1.268 1.268 0 00-.1.6 1.685 1.685 0 001.7 1.7 1.828 1.828 0 001.7-1.705z" fill="#c3d8ee"/>
    <path d="M20.65 37.182l.06.24a.852.852 0 01-.26-.34 3.193 3.193 0 00-1.87-1.82 2.717 2.717 0 012.07 1.92zM19.55 37.682a1.268 1.268 0 01.1.6 1.828 1.828 0 01-1.7 1.7 1.685 1.685 0 01-1.7-1.7 1.268 1.268 0 01.1-.6 1.714 1.714 0 013.2 0zm-.7.6v-.3a1.058 1.058 0 00-.9-.5.752.752 0 00-.7.5v.3a.789.789 0 00.8.8.86.86 0 00.8-.8zM19.58 33.662a2.811 2.811 0 00-.31-.1 2.811 2.811 0 01.31.1zM18.62 33.432c-.11-.02-.22-.03-.33-.04.11.01.22.02.33.04z"/>
    <path d="M17.95 30.382v3c-.11 0-.23 0-.34.01a2.477 2.477 0 00-.27.03.075.075 0 00-.05.01 1.257 1.257 0 00-.33.05 4.706 4.706 0 00-3.34 2.4h-.75a2.675 2.675 0 00-.18-.28 4.852 4.852 0 00-.75-.89c-.09-.08-.18-.16-.28-.24a4.628 4.628 0 00-1.48-.81 2.811 2.811 0 00-.31-.1 3.4 3.4 0 00-.65-.13c-.11-.02-.22-.03-.33-.04s-.23-.01-.34-.01v-3h9.4z" fill="#45c4a7"/>
    <path d="M17.61 33.392l-.27.03a2.477 2.477 0 01.27-.03zM17.29 33.432c-.11.01-.22.03-.33.05a1.257 1.257 0 01.33-.05zM16.96 33.482a5.1 5.1 0 00-3.31 2.4h-.03a4.706 4.706 0 013.34-2.4z"/>
    <path d="M12.87 35.882h.75a5.461 5.461 0 00-.27.6c-.04.1-.07.2-.1.3-.03-.1-.06-.2-.1-.3a5.5 5.5 0 00-.28-.6z" fill="#dcf4ee"/>
    <path d="M13.42 37.682a4.193 4.193 0 01.03.5 4.935 4.935 0 01-.2 1.4 5.04 5.04 0 01-.2-1.4 4.193 4.193 0 01.03-.5h.34z" fill="#16324f"/>
    <path d="M13.42 37.682h-.34a3.774 3.774 0 01.17-.9 3.774 3.774 0 01.17.9z" fill="#dcf4ee"/>
    <path d="M13.15 36.482c.04.1.07.2.1.3a3.774 3.774 0 00-.17.9h-1.23a.9.9 0 01-.51-.15c-.03-.11-.06-.22-.09-.35a2.628 2.628 0 00-2.27-1.955.037.037 0 00-.03-.01 3.317 3.317 0 00-.9-.13 3.139 3.139 0 00-2.9 2 .875.875 0 01-.9.6h-.57a4.131 4.131 0 01.27-1.2 5.461 5.461 0 01.27-.6h.03a5.1 5.1 0 013.31-2.4c.11-.02.22-.04.33-.05a3.106 3.106 0 01.32-.04c.11-.01.23-.01.34-.01s.23 0 .34.01.22.02.33.04a3.4 3.4 0 01.65.13 2.811 2.811 0 01.31.1 4.628 4.628 0 011.48.81c.1.08.19.16.28.24a4.852 4.852 0 01.75.89c.06.09.11.19.16.28h.02a5.5 5.5 0 01.28.595z" fill="#dcf4ee"/>
    <path d="M13.05 38.182a5.04 5.04 0 00.2 1.4 4.831 4.831 0 01-4.7 3.5 4.908 4.908 0 01-4.9-4.9 4.193 4.193 0 01.03-.5h.57a.875.875 0 00.9-.6 3.139 3.139 0 012.9-2 3.317 3.317 0 01.9.13 2.6 2.6 0 00-.4-.03 3.139 3.139 0 00-2.9 2 4.253 4.253 0 00-.2 1.1 3.009 3.009 0 003 3 2.951 2.951 0 002.89-3.75.9.9 0 00.51.15h1.23a4.193 4.193 0 00-.03.5z" fill="#16324f"/>
    <path d="M12.87 35.882h-.02c-.05-.09-.1-.19-.16-.28a2.675 2.675 0 01.18.28zM11.94 34.712c-.09-.08-.18-.16-.28-.24.1.08.19.16.28.24z"/>
    <path d="M11.34 37.532a2.951 2.951 0 01-2.89 3.75 3.009 3.009 0 01-3-3 4.253 4.253 0 01.2-1.1 3.139 3.139 0 012.9-2 2.6 2.6 0 01.4.03.037.037 0 01.03.01 3.229 3.229 0 011.97 1.86.973.973 0 00.39.45zm-1.09.75a1.268 1.268 0 00-.1-.6 1.714 1.714 0 00-3.2 0 1.268 1.268 0 00-.1.6 1.685 1.685 0 001.7 1.7 1.752 1.752 0 001.7-1.7z" fill="#c3d8ee"/>
    <path d="M11.25 37.182c.03.13.06.24.09.35a.973.973 0 01-.39-.45 3.229 3.229 0 00-1.97-1.855 2.628 2.628 0 012.27 1.955zM10.15 37.682a1.268 1.268 0 01.1.6 1.752 1.752 0 01-1.7 1.7 1.685 1.685 0 01-1.7-1.7 1.268 1.268 0 01.1-.6 1.714 1.714 0 013.2 0zm-.7.6v-.3a1.058 1.058 0 00-.9-.5.752.752 0 00-.7.5v.3a.8.8 0 101.6 0zM10.18 33.662a2.811 2.811 0 00-.31-.1 2.811 2.811 0 01.31.1zM9.22 33.432c-.11-.02-.22-.03-.33-.04.11.01.22.02.33.04z"/>
    <path d="M8.55 30.382v3c-.11 0-.23 0-.34.01a3.106 3.106 0 00-.32.04 1.257 1.257 0 00-.33.05 4.706 4.706 0 00-3.34 2.4H2.05v-5.5h6.5z" fill="#45c4a7"/>
    <path d="M8.21 33.392a3.106 3.106 0 00-.32.04 3.106 3.106 0 01.32-.04zM7.89 33.432c-.11.01-.22.03-.33.05a1.257 1.257 0 01.33-.05zM7.56 33.482a5.1 5.1 0 00-3.31 2.4h-.03a4.706 4.706 0 013.34-2.4z"/>
    <path fill="none" stroke="#226d5b" stroke-miterlimit="10" stroke-width=".5" d="M33.11 3.982h7.94M42.85 3.982h10.3a1.02 1.02 0 01.8.5c5.1 8.6 5.56 14.31 1.23 23.23-.2.3-2.33.2-2.33.2h-48l-1.63-.01c-4.27-8.66-3.97-14.92 1.13-23.52a1.234 1.234 0 01.8-.4h26.16M8.95 35.212a3.317 3.317 0 00-.9-.13 3.139 3.139 0 00-2.9 2 .875.875 0 01-.9.6h-3.1a.9.9 0 01-.9-.9v-7.3a.9.9 0 01.9-.9h56a.9.9 0 01.9.9v7.3a.9.9 0 01-.9.9h-3.7a.961.961 0 01-.9-.6 3.1 3.1 0 00-5.8 0 .875.875 0 01-.9.6h-1.9a.961.961 0 01-.9-.6c-.01-.03-.03-.06-.04-.09a3.228 3.228 0 00-1.43-1.55 3 3 0 00-1.43-.36 3.139 3.139 0 00-2.9 2 .875.875 0 01-.9.6h-15a1.066 1.066 0 01-.9-.6 3.193 3.193 0 00-1.87-1.82 2.936 2.936 0 00-1.03-.18 3.139 3.139 0 00-2.9 2 .875.875 0 01-.9.6h-1.9a.9.9 0 01-.51-.15.973.973 0 01-.39-.45 3.229 3.229 0 00-1.97-1.855"/>
    <path d="M50.17 33.392a2.268 2.268 0 01.35.05 3.854 3.854 0 01.73.17 4.334 4.334 0 011.01.45 3.358 3.358 0 01.6.41 2.094 2.094 0 01.28.24 1.968 1.968 0 01.25.25M40.74 33.392a4.909 4.909 0 014.01 2.49h.8a5.058 5.058 0 013.96-2.49M22.09 35.602c.06.09.11.19.16.28h13.9a5.058 5.058 0 013.96-2.49M21.06 34.472c.1.08.19.16.28.24M19.27 33.562a2.811 2.811 0 01.31.1M18.29 33.392c.11.01.22.02.33.04M17.34 33.427l.27-.03M12.69 35.602c.06.09.11.19.16.28h.8a5.1 5.1 0 013.31-2.4c.11-.02.22-.04.33-.05M11.66 34.472c.1.08.19.16.28.24M9.87 33.562a2.811 2.811 0 01.31.1M8.89 33.392c.11.01.22.02.33.04" fill="none" stroke="#226d5b" stroke-miterlimit="10" stroke-width=".25"/>
    <path d="M53.89 35.602c.06.09.11.19.16.28h2.2v-5.5H2.05v5.5h2.2a5.1 5.1 0 013.31-2.4c.11-.02.22-.04.33-.05a3.106 3.106 0 01.32-.04M53.39 34.962a4.26 4.26 0 01.5.64" fill="none" stroke="#226d5b" stroke-miterlimit="10" stroke-width=".25"/>
    <path d="M49.51 33.392a1.927 1.927 0 01.24-.01h.1c.11 0 .21.01.32.01M40.11 33.392a1.927 1.927 0 01.24-.01h.1c.1 0 .19.01.29.01M21.34 34.712a4.852 4.852 0 01.75.89M19.58 33.662a4.628 4.628 0 011.48.81M18.62 33.432a3.4 3.4 0 01.65.13M17.61 33.392c.11-.01.23-.01.34-.01s.23 0 .34.01M17.29 33.432a.075.075 0 01.05-.01M11.94 34.712a4.852 4.852 0 01.75.89M10.18 33.662a4.628 4.628 0 011.48.81M9.22 33.432a3.4 3.4 0 01.65.13M8.21 33.392c.11-.01.23-.01.34-.01s.23 0 .34.01" fill="none" stroke="#226d5b" stroke-miterlimit="10" stroke-width=".25"/>
    <path d="M8.98 35.227a.037.037 0 00-.03-.01" fill="none" stroke="#226d5b" stroke-miterlimit="10" stroke-width=".5"/>
    <path fill="none" stroke="#226d5b" stroke-linecap="round" stroke-miterlimit="10" stroke-width=".5" d="M15.4 3.722h8.1l-.05-3.44-8.1 1 .05 2.44z"/>
    <path fill="none" stroke="#226d5b" stroke-miterlimit="10" stroke-width=".25" d="M41.05 5.882h-7.94M31.31 5.882H5.65c-3.97 7.97-4.45 13.14-.95 20.75h48.93c3.65-7.69 2.81-12.7-1.08-20.75h-9.7"/>
    <path d="M23.144 24.576a1.207 1.207 0 01-.053.13 1.292 1.292 0 11-2.078-1.479 1.305 1.305 0 01.905-.379h.016a1.323 1.323 0 011.156.732 1.172 1.172 0 01.053.13h6.535l.1.011a.848.848 0 01.091.032.443.443 0 01.081.725.435.435 0 01-.173.083c-.031.007-.064.007-.1.011h-6.533zm-6.894-.862h2.049l2.458-2.46.065-.053a.431.431 0 01.155-.064.78.78 0 01.084-.008h8.614l.1.011a.763.763 0 01.091.032.431.431 0 01-.091.808c-.031.007-.064.007-.1.011h-8.432l-2.458 2.459-.065.053c-.025.013-.049.029-.075.04a.435.435 0 01-.165.033h-2.23a1.306 1.306 0 01-.054.13 1.292 1.292 0 11-2.067-1.486 1.306 1.306 0 01.895-.368h.016a1.323 1.323 0 011.153.725 1.227 1.227 0 01.057.137zm-5.879 0a1.284 1.284 0 011.207-.862h.017a1.293 1.293 0 11-1.224 1.724H5.559a.441.441 0 01-.059 0 .447.447 0 01-.336-.6.429.429 0 01.395-.259h4.814zm4.658 0a.428.428 0 10.011 0h-.008zm-3.446 0a.428.428 0 10.011 0h-.007zm10.337 0a.428.428 0 10.011 0h-.007zM8.65 18.542a1.286 1.286 0 011.207-.862h.017a1.293 1.293 0 11-1.224 1.724H5.559a.446.446 0 01-.4-.6.44.44 0 01.35-.263.453.453 0 01.048 0H8.65zm5.879.862a1.272 1.272 0 01-.054.13 1.292 1.292 0 11-1.173-1.854h.017a1.323 1.323 0 011.149.718 1.162 1.162 0 01.06.143h15.151l.1.011a.953.953 0 01.091.032.443.443 0 01.081.725.424.424 0 01-.173.083.782.782 0 01-.1.011H14.53zm-1.221-.862a.443.443 0 10.011 0h-.01zm-3.446 0a.443.443 0 10.011 0h-.009zm8.262-1.724h-3.089a.516.516 0 01-.239-.072c-.023-.016-.044-.036-.065-.054l-2.458-2.459H5.559l-.095-.006a.913.913 0 01-.091-.032.445.445 0 01-.081-.725.435.435 0 01.173-.083.782.782 0 01.1-.011h6.885l.084.008a.427.427 0 01.155.065.845.845 0 01.065.053l2.458 2.459h2.913a1.283 1.283 0 011.207-.862h.018a1.293 1.293 0 11-1.224 1.72zm5.88 0a1.172 1.172 0 01-.053.13 1.292 1.292 0 11-2.061-1.491 1.3 1.3 0 01.889-.362h.017a1.323 1.323 0 011.154.732 1.208 1.208 0 01.053.13h5.674l.1.011a.953.953 0 01.091.032.443.443 0 01.081.725.424.424 0 01-.173.083.782.782 0 01-.1.011h-5.67zm-4.667-.862a.429.429 0 10.012 0h-.01zm3.446 0a.429.429 0 10.011 0h-.009zm-4.809-1.724a1.175 1.175 0 01-.054.13 1.292 1.292 0 11-1.17-1.852h.016a1.326 1.326 0 011.156.732 1.175 1.175 0 01.054.13h11.7l.1.011a.953.953 0 01.091.032.443.443 0 01.081.725.424.424 0 01-.173.083.782.782 0 01-.1.011h-11.7zm-1.224-.861a.428.428 0 10.012 0h-.012zm-5.519-2.585a1.29 1.29 0 01.324-.5 1.306 1.306 0 01.883-.357h.017a1.293 1.293 0 11-1.224 1.724H5.559a.877.877 0 01-.1-.011.444.444 0 01-.288-.615.436.436 0 01.292-.233.782.782 0 01.1-.011h5.676zm12.965-.994a1.286 1.286 0 01-.8.109 1.293 1.293 0 01-.67-2.183 1.305 1.305 0 01.905-.379h.017a1.293 1.293 0 011.158 1.85l1.6 1.6h3.3a.378.378 0 01.058.008.447.447 0 01.264.67.438.438 0 01-.293.178.446.446 0 01-.059 0h-3.442a.468.468 0 01-.3-.126l-1.723-1.724zm-11.746.994a.428.428 0 10.011 0h-.011zm6.54-2.585a1.285 1.285 0 01.3-.483 1.305 1.305 0 01.905-.379h.016a1.293 1.293 0 11-1.224 1.724H5.559c-.032 0-.065 0-.1-.011a.431.431 0 010-.84.782.782 0 01.1-.011h13.429zm1.213 0a.428.428 0 10.011 0h-.013zm3.446 0a.428.428 0 10.011 0h-.01z" fill="#e7edab"/>
    <path fill="none" d="M19.65 50.277h23.155v23.155H19.65z"/>
  </g>
</svg>
