<svg xmlns="http://www.w3.org/2000/svg" viewBox="0 0 50.916 55">
  <g data-name="Layer 1">
    <g data-name="&lt;Group&gt;">
      <g opacity=".41" style="mix-blend-mode:multiply">
        <path fill="#09493a" d="M4.95 13.226h41.7v3.1H4.95z"/>
        <path d="M43.25 9.626a1.553 1.553 0 01-.9 2 1.268 1.268 0 01-.6.1h-31a2.523 2.523 0 01-2.5-2.4 2.5 2.5 0 012.4-2.4h.1a.779.779 0 00.8-.6 3.388 3.388 0 016.4-.5.948.948 0 001.1.5.53.53 0 00.3-.2 3.6 3.6 0 013.6-.5.841.841 0 001.1-.4.6.6 0 00.1-.4v-.2a2.456 2.456 0 012.5-2.4 2.417 2.417 0 012.5 2.1.876.876 0 00.9.7.367.367 0 00.3-.1 2.768 2.768 0 011.3-.3 2.58 2.58 0 012.5 2 .961.961 0 00.9.7.55.55 0 00.5-.3 2.611 2.611 0 013.5-.3 2.3 2.3 0 01.9 1.4.832.832 0 001 .6h.1a1.786 1.786 0 012.2.9zm-5.8.5a.8.8 0 100-1.6h-.8a.789.789 0 00-.8.8.86.86 0 00.8.8h.8zm-5.1-2.4a.789.789 0 00-.8-.8h-.8a.789.789 0 00-.8.8.86.86 0 00.8.8h.8a.789.789 0 00.8-.8zm-5-1.6a.733.733 0 00-.8-.8h-.8a.789.789 0 00-.8.8.736.736 0 00.8.8h.8a.789.789 0 00.8-.8zm-2.4 4a.8.8 0 000-1.6h-.8a.789.789 0 00-.8.8.86.86 0 00.8.8h.8zm-5.1-1.6a.733.733 0 00-.8-.8h-.8a.789.789 0 00-.8.8.86.86 0 00.8.8h.8a.789.789 0 00.8-.8zm-7.4 1.6a.8.8 0 100-1.6h-.8a.789.789 0 00-.8.8.86.86 0 00.8.8h.8z" fill="#444c00"/>
        <path d="M18.25 36.826a4.709 4.709 0 110 9.4 4.709 4.709 0 110-9.4zm3.3 4.7a3.306 3.306 0 10-3.3 3.1 3.227 3.227 0 003.3-3.1zM33.25 36.826a4.709 4.709 0 11-5 4.7 4.83 4.83 0 015-4.7zm3.3 4.7a3.306 3.306 0 10-3.3 3.1 3.227 3.227 0 003.3-3.1z"/>
        <path d="M49.95 40.726a.748.748 0 01.7.9.789.789 0 01-.8.8h-2.5a2.456 2.456 0 01-2.5 2.4h-5.9a5.92 5.92 0 01-2.4 2.3 6.911 6.911 0 01-9.1-2.3h-3.5a5.92 5.92 0 01-2.4 2.3 6.911 6.911 0 01-9.1-2.3h-5.9a2.456 2.456 0 01-2.5-2.4h-2.5a.86.86 0 01-.8-.8.789.789 0 01.8-.8h2.5a2.456 2.456 0 012.5-2.4h2.4l-1.5-20.4h-3.4a.86.86 0 01-.8-.8v-4.7a.789.789 0 01.8-.8h3.3a3.583 3.583 0 01-.9-2.4 3.987 3.987 0 013.6-3.9 4.7 4.7 0 012.1-2.5 5.176 5.176 0 016.9 1.5 5.7 5.7 0 013.4-.5 3.8 3.8 0 012.7-2.9 4.214 4.214 0 015.4 2.2 3.6 3.6 0 011.1-.2 4.124 4.124 0 013.7 2.1 3.7 3.7 0 012.1-.6 4.358 4.358 0 013.8 2.4h.3a3.191 3.191 0 013.4 3.1 3.022 3.022 0 01-.5 1.6h3a.86.86 0 01.8.8v4.7a.789.789 0 01-.8.8h-3.4l-1.5 20.4h2.4a2.456 2.456 0 012.5 2.4h2.5zm-3.3-24.4v-3.1H4.95v3.1h41.7zm-.9 26v-1.5a.789.789 0 00-.8-.8h-5.2a5.451 5.451 0 010 3.1h5.2a.86.86 0 00.8-.8zm-3.4-30.7a1.553 1.553 0 00.9-2 1.786 1.786 0 00-2.2-.9h-.1a.832.832 0 01-1-.6 2.3 2.3 0 00-.9-1.4 2.611 2.611 0 00-3.5.3.55.55 0 01-.5.3.961.961 0 01-.9-.7 2.58 2.58 0 00-2.5-2 2.768 2.768 0 00-1.3.3.367.367 0 01-.3.1.876.876 0 01-.9-.7 2.417 2.417 0 00-2.5-2.1 2.456 2.456 0 00-2.5 2.4v.2a.6.6 0 01-.1.4.841.841 0 01-1.1.4 3.6 3.6 0 00-3.6.5.53.53 0 01-.3.2.948.948 0 01-1.1-.5 3.388 3.388 0 00-6.4.5.779.779 0 01-.8.6h-.1a2.5 2.5 0 00-2.4 2.4 2.523 2.523 0 002.5 2.4h31a1.268 1.268 0 00.6-.1zm-.8 17.3l.5-11h-2.4v4.7a.789.789 0 01-.8.8.86.86 0 01-.8-.8v-4.7h-2.5v3.1a.8.8 0 01-1.6 0v-3.1h-1.7v6.3a.789.789 0 01-.8.8.86.86 0 01-.8-.8v-6.3h-5v7.9a.789.789 0 01-.8.8.86.86 0 01-.8-.8v-7.9h-1.7v4.7a.8.8 0 01-1.6 0v-4.7h-4.3v7.1a.789.789 0 01-.8.8.86.86 0 01-.8-.8v-7.1h-1.7v3.1a.789.789 0 01-.8.8.86.86 0 01-.8-.8v-3.1h-2.4l.8 11h31.6zm-.8 9.5l.6-7.9h-31.3l.6 7.9h1.8a5.92 5.92 0 012.4-2.3 6.911 6.911 0 019.1 2.3h3.5a5.92 5.92 0 012.4-2.3 6.911 6.911 0 019.1 2.3h1.8zm-2.5 3.1a5.01 5.01 0 10-5 4.7 4.83 4.83 0 005-4.7zm-11.5-1.5h-2.1a5.451 5.451 0 010 3.1h2.1a5.451 5.451 0 010-3.1zm-3.5 1.5a4.83 4.83 0 00-5-4.7 4.709 4.709 0 100 9.4 4.83 4.83 0 005-4.7zm-11.5-1.6h-5.2a.86.86 0 00-.8.8v1.6a.789.789 0 00.8.8v-.1h5.2a5.451 5.451 0 010-3.1z" fill="#435b55"/>
        <path d="M45.75 40.826v1.5a.86.86 0 01-.8.8h-5.2a5.451 5.451 0 000-3.1h5.2a.789.789 0 01.8.8z"/>
        <path d="M42.05 17.926l-.5 11H9.95l-.8-11h2.4v3.1a.86.86 0 00.8.8.789.789 0 00.8-.8v-3.1h1.7v7.1a.86.86 0 00.8.8.789.789 0 00.8-.8v-7.1h4.3v4.7a.8.8 0 001.6 0v-4.7h1.7v7.9a.86.86 0 00.8.8.789.789 0 00.8-.8v-7.9h5v6.3a.86.86 0 00.8.8.789.789 0 00.8-.8v-6.3h1.7v3.1a.8.8 0 001.6 0v-3.1h2.5v4.7a.86.86 0 00.8.8.789.789 0 00.8-.8v-4.7h2.4zm-6.3 7.1v-.8a.86.86 0 00-.8-.8.789.789 0 00-.8.8v.8a.8.8 0 001.6 0zm-22.5 0v-.8a.86.86 0 00-.8-.8.789.789 0 00-.8.8v.8a.86.86 0 00.8.8.789.789 0 00.8-.8zM41.35 30.526l-.6 7.9h-1.8a6.911 6.911 0 00-9.1-2.3 5.92 5.92 0 00-2.4 2.3h-3.5a6.911 6.911 0 00-9.1-2.3 5.92 5.92 0 00-2.4 2.3h-1.8l-.6-7.9h31.3zm-4.8 3.2a.789.789 0 00.8-.8.86.86 0 00-.8-.8h-.8a.8.8 0 000 1.6h.8zm-4.2 0a.789.789 0 00.8-.8.86.86 0 00-.8-.8h-.8a.789.789 0 00-.8.8.86.86 0 00.8.8h.8zm-4.1 0a.789.789 0 00.8-.8.86.86 0 00-.8-.8h-.8a.789.789 0 00-.8.8.733.733 0 00.8.8h.8zm-4.2 0a.789.789 0 00.8-.8.86.86 0 00-.8-.8h-.8a.8.8 0 100 1.6h.8zm-4.2 0a.789.789 0 00.8-.8.86.86 0 00-.8-.8h-.8a.789.789 0 00-.8.8.86.86 0 00.8.8h.8zm-4.1 0a.789.789 0 00.8-.8.86.86 0 00-.8-.8h-.8a.789.789 0 00-.8.8.733.733 0 00.8.8h.8z" fill="#002b0e"/>
        <path d="M38.25 9.326a.789.789 0 01-.8.8h-.8a.86.86 0 01-.8-.8.789.789 0 01.8-.8h.8a.789.789 0 01.8.8z" fill="#5c5e3e"/>
        <path d="M37.35 32.926a.789.789 0 01-.8.8h-.8a.8.8 0 010-1.6h.8a.86.86 0 01.8.8z" fill="#602b00"/>
        <path d="M33.25 38.426a3.106 3.106 0 11-3.3 3.1 3.227 3.227 0 013.3-3.1zm1.7 3.1a1.666 1.666 0 00-1.7-1.6 1.605 1.605 0 00-1.7 1.6 1.7 1.7 0 003.4 0z" fill="#2a3f55"/>
        <path d="M35.75 24.226v.8a.8.8 0 01-1.6 0v-.8a.789.789 0 01.8-.8.86.86 0 01.8.8z" fill="#444c00"/>
        <path d="M33.15 32.926a.789.789 0 01-.8.8h-.8a.86.86 0 01-.8-.8.789.789 0 01.8-.8h.8a.86.86 0 01.8.8z" fill="#602b00"/>
        <path d="M31.55 6.926a.8.8 0 010 1.6h-.8a.86.86 0 01-.8-.8.789.789 0 01.8-.8h.8z" fill="#5c5e3e"/>
        <path d="M29.05 32.926a.789.789 0 01-.8.8h-.8a.733.733 0 01-.8-.8.789.789 0 01.8-.8h.8a.86.86 0 01.8.8z" fill="#602b00"/>
        <path d="M26.55 5.326a.733.733 0 01.8.8.789.789 0 01-.8.8h-.8a.736.736 0 01-.8-.8.789.789 0 01.8-.8h.8z" fill="#5c5e3e"/>
        <path d="M24.65 40.026h2.1a5.451 5.451 0 000 3.1h-2.1a5.451 5.451 0 000-3.1z"/>
        <path d="M25.75 9.326a.789.789 0 01-.8.8h-.8a.86.86 0 01-.8-.8.789.789 0 01.8-.8h.8a.789.789 0 01.8.8z" fill="#5c5e3e"/>
        <path d="M24.85 32.926a.789.789 0 01-.8.8h-.8a.8.8 0 110-1.6h.8a.86.86 0 01.8.8z" fill="#602b00"/>
        <path d="M18.25 38.426a3.106 3.106 0 11-3.3 3.1 3.227 3.227 0 013.3-3.1zm1.7 3.1a1.666 1.666 0 00-1.7-1.6 1.605 1.605 0 00-1.7 1.6 1.7 1.7 0 003.4 0z" fill="#2a3f55"/>
        <path d="M20.65 32.926a.789.789 0 01-.8.8h-.8a.86.86 0 01-.8-.8.789.789 0 01.8-.8h.8a.86.86 0 01.8.8z" fill="#602b00"/>
        <path d="M19.05 7.726a.733.733 0 01.8.8.789.789 0 01-.8.8h-.8a.86.86 0 01-.8-.8.789.789 0 01.8-.8h.8z" fill="#5c5e3e"/>
        <path d="M16.55 32.926a.789.789 0 01-.8.8h-.8a.733.733 0 01-.8-.8.789.789 0 01.8-.8h.8a.86.86 0 01.8.8z" fill="#602b00"/>
        <path d="M13.25 24.226v.8a.789.789 0 01-.8.8.86.86 0 01-.8-.8v-.8a.789.789 0 01.8-.8.86.86 0 01.8.8z" fill="#444c00"/>
        <path d="M13.25 9.326a.789.789 0 01-.8.8h-.8a.86.86 0 01-.8-.8.789.789 0 01.8-.8h.8a.789.789 0 01.8.8z" fill="#5c5e3e"/>
        <path d="M6.55 39.926h5.2a5.451 5.451 0 000 3.1h-5.2v.1a.789.789 0 01-.8-.8v-1.6a.86.86 0 01.8-.8z"/>
        <path d="M18.25 38.426a3.106 3.106 0 103.3 3.1 3.227 3.227 0 00-3.3-3.1z" fill="none" stroke="#000" stroke-miterlimit="10" stroke-width=".25"/>
        <path d="M18.25 43.126a1.666 1.666 0 01-1.7-1.6 1.605 1.605 0 011.7-1.6 1.6 1.6 0 110 3.2zM33.25 38.426a3.106 3.106 0 103.3 3.1 3.227 3.227 0 00-3.3-3.1z" fill="none" stroke="#000" stroke-miterlimit="10" stroke-width=".25"/>
        <path d="M33.25 43.126a1.666 1.666 0 01-1.7-1.6 1.605 1.605 0 011.7-1.6 1.6 1.6 0 110 3.2zM14.95 33.726h.8a.789.789 0 00.8-.8.86.86 0 00-.8-.8h-.8a.789.789 0 00-.8.8.733.733 0 00.8.8zM19.05 33.726h.8a.789.789 0 00.8-.8.86.86 0 00-.8-.8h-.8a.789.789 0 00-.8.8.86.86 0 00.8.8zM23.25 33.726h.8a.789.789 0 00.8-.8.86.86 0 00-.8-.8h-.8a.8.8 0 100 1.6zM27.45 33.726h.8a.789.789 0 00.8-.8.86.86 0 00-.8-.8h-.8a.789.789 0 00-.8.8.733.733 0 00.8.8zM31.55 33.726h.8a.789.789 0 00.8-.8.86.86 0 00-.8-.8h-.8a.789.789 0 00-.8.8.86.86 0 00.8.8zM35.75 33.726h.8a.789.789 0 00.8-.8.86.86 0 00-.8-.8h-.8a.8.8 0 000 1.6z" fill="none" stroke="#000" stroke-miterlimit="10" stroke-width=".25"/>
        <path d="M49.95 40.726h-2.5a2.456 2.456 0 00-2.5-2.4h-2.4l1.5-20.4h3.4a.789.789 0 00.8-.8v-4.7a.86.86 0 00-.8-.8h-3a3.022 3.022 0 00.5-1.6 3.191 3.191 0 00-3.4-3.1h-.3a4.358 4.358 0 00-3.8-2.4 3.7 3.7 0 00-2.1.6 4.124 4.124 0 00-3.7-2.1 3.6 3.6 0 00-1.1.2 4.214 4.214 0 00-5.4-2.2 3.8 3.8 0 00-2.7 2.9 5.7 5.7 0 00-3.4.5 5.176 5.176 0 00-6.9-1.5 4.7 4.7 0 00-2.1 2.5 3.987 3.987 0 00-3.6 3.9 3.583 3.583 0 00.9 2.4h-3.3a.789.789 0 00-.8.8v4.7a.86.86 0 00.8.8h3.4l1.5 20.4h-2.4a2.456 2.456 0 00-2.5 2.4h-2.5a.789.789 0 00-.8.8.86.86 0 00.8.8h2.5a2.456 2.456 0 002.5 2.4h5.9a6.911 6.911 0 009.1 2.3 5.92 5.92 0 002.4-2.3h3.5a6.911 6.911 0 009.1 2.3 5.92 5.92 0 002.4-2.3h5.9a2.456 2.456 0 002.5-2.4h2.5a.789.789 0 00.8-.8.748.748 0 00-.7-.9z" fill="none" stroke="#000" stroke-miterlimit="10" stroke-width=".5"/>
        <path d="M41.55 28.926H9.95l-.8-11h2.4v3.1a.86.86 0 00.8.8.789.789 0 00.8-.8v-3.1h1.7v7.1a.86.86 0 00.8.8.789.789 0 00.8-.8v-7.1h4.3v4.7a.8.8 0 001.6 0v-4.7h1.7v7.9a.86.86 0 00.8.8.789.789 0 00.8-.8v-7.9h5v6.3a.86.86 0 00.8.8.789.789 0 00.8-.8v-6.3h1.7v3.1a.8.8 0 001.6 0v-3.1h2.5v4.7a.86.86 0 00.8.8.789.789 0 00.8-.8v-4.7h2.4zM8.25 9.326a2.5 2.5 0 012.4-2.4h.1a.779.779 0 00.8-.6 3.388 3.388 0 016.4-.5.948.948 0 001.1.5.53.53 0 00.3-.2 3.6 3.6 0 013.6-.5.841.841 0 001.1-.4.6.6 0 00.1-.4v-.2a2.456 2.456 0 012.5-2.4 2.417 2.417 0 012.5 2.1.876.876 0 00.9.7.367.367 0 00.3-.1 2.768 2.768 0 011.3-.3 2.58 2.58 0 012.5 2 .961.961 0 00.9.7.55.55 0 00.5-.3 2.611 2.611 0 013.5-.3 2.3 2.3 0 01.9 1.4.832.832 0 001 .6h.1a1.786 1.786 0 012.2.9 1.553 1.553 0 01-.9 2 1.268 1.268 0 01-.6.1h-31a2.523 2.523 0 01-2.5-2.4zM4.95 13.226h41.7v3.1H4.95zM10.05 30.526h31.3l-.6 7.9h-1.8a6.911 6.911 0 00-9.1-2.3 5.92 5.92 0 00-2.4 2.3h-3.5a6.911 6.911 0 00-9.1-2.3 5.92 5.92 0 00-2.4 2.3h-1.8zM6.55 43.126a.789.789 0 01-.8-.8v-1.6a.86.86 0 01.8-.8h5.2a5.451 5.451 0 000 3.1h-5.2v.1z" fill="none" stroke="#000" stroke-miterlimit="10" stroke-width=".25"/>
        <path d="M18.25 46.226a4.709 4.709 0 110-9.4 4.709 4.709 0 110 9.4zM24.65 43.126a5.451 5.451 0 000-3.1h2.1a5.451 5.451 0 000 3.1h-2.1zM33.25 46.226a4.709 4.709 0 115-4.7 4.83 4.83 0 01-5 4.7zM45.75 42.326a.86.86 0 01-.8.8h-5.2a5.451 5.451 0 000-3.1h5.2a.789.789 0 01.8.8v1.5z" fill="none" stroke="#000" stroke-miterlimit="10" stroke-width=".25"/>
      </g>
      <path fill="#a2e2d3" d="M4.45 12.726h41.7v3.1H4.45z"/>
      <path d="M42.75 9.126a1.553 1.553 0 01-.9 2 1.268 1.268 0 01-.6.1h-31a2.523 2.523 0 01-2.5-2.4 2.5 2.5 0 012.4-2.4h.1a.779.779 0 00.8-.6 3.388 3.388 0 016.4-.5.948.948 0 001.1.5.53.53 0 00.3-.2 3.6 3.6 0 013.6-.5.841.841 0 001.1-.4.6.6 0 00.1-.4v-.2a2.456 2.456 0 012.5-2.4 2.417 2.417 0 012.5 2.1.876.876 0 00.9.7.367.367 0 00.3-.1 2.768 2.768 0 011.3-.3 2.58 2.58 0 012.5 2 .961.961 0 00.9.7.55.55 0 00.5-.3 2.611 2.611 0 013.5-.3 2.3 2.3 0 01.9 1.4.832.832 0 001 .6h.1a1.786 1.786 0 012.2.9zm-5.8.5a.8.8 0 100-1.6h-.8a.789.789 0 00-.8.8.86.86 0 00.8.8h.8zm-5.1-2.4a.789.789 0 00-.8-.8h-.8a.789.789 0 00-.8.8.86.86 0 00.8.8h.8a.789.789 0 00.8-.8zm-5-1.6a.733.733 0 00-.8-.8h-.8a.789.789 0 00-.8.8.736.736 0 00.8.8h.8a.789.789 0 00.8-.8zm-2.4 4a.8.8 0 000-1.6h-.8a.789.789 0 00-.8.8.86.86 0 00.8.8h.8zm-5.1-1.6a.733.733 0 00-.8-.8h-.8a.789.789 0 00-.8.8.86.86 0 00.8.8h.8a.789.789 0 00.8-.8zm-7.4 1.6a.8.8 0 100-1.6h-.8a.789.789 0 00-.8.8.86.86 0 00.8.8h.8z" fill="#dde589"/>
      <path d="M17.75 36.326a4.709 4.709 0 110 9.4 4.709 4.709 0 110-9.4zm3.3 4.7a3.306 3.306 0 10-3.3 3.1 3.227 3.227 0 003.3-3.1zM32.75 36.326a4.709 4.709 0 11-5 4.7 4.83 4.83 0 015-4.7zm3.3 4.7a3.306 3.306 0 10-3.3 3.1 3.227 3.227 0 003.3-3.1z" fill="#16324f"/>
      <path d="M49.45 40.226a.748.748 0 01.7.9.789.789 0 01-.8.8h-2.5a2.456 2.456 0 01-2.5 2.4h-5.9a5.92 5.92 0 01-2.4 2.3 6.911 6.911 0 01-9.1-2.3h-3.5a5.92 5.92 0 01-2.4 2.3 6.911 6.911 0 01-9.1-2.3h-5.9a2.456 2.456 0 01-2.5-2.4h-2.5a.86.86 0 01-.8-.8.789.789 0 01.8-.8h2.5a2.456 2.456 0 012.5-2.4h2.4l-1.5-20.4h-3.4a.86.86 0 01-.8-.8v-4.7a.789.789 0 01.8-.8h3.3a3.583 3.583 0 01-.9-2.4 3.987 3.987 0 013.6-3.9 4.7 4.7 0 012.1-2.5 5.176 5.176 0 016.9 1.5 5.7 5.7 0 013.4-.5 3.8 3.8 0 012.7-2.9 4.214 4.214 0 015.4 2.2 3.6 3.6 0 011.1-.2 4.124 4.124 0 013.7 2.1 3.7 3.7 0 012.1-.6 4.358 4.358 0 013.8 2.4h.3a3.191 3.191 0 013.4 3.1 3.022 3.022 0 01-.5 1.6h3a.86.86 0 01.8.8v4.7a.789.789 0 01-.8.8h-3.4l-1.5 20.4h2.4a2.456 2.456 0 012.5 2.4h2.5zm-3.3-24.4v-3.1H4.45v3.1h41.7zm-.9 26v-1.5a.789.789 0 00-.8-.8h-5.2a5.451 5.451 0 010 3.1h5.2a.86.86 0 00.8-.8zm-3.4-30.7a1.553 1.553 0 00.9-2 1.786 1.786 0 00-2.2-.9h-.1a.832.832 0 01-1-.6 2.3 2.3 0 00-.9-1.4 2.611 2.611 0 00-3.5.3.55.55 0 01-.5.3.961.961 0 01-.9-.7 2.58 2.58 0 00-2.5-2 2.768 2.768 0 00-1.3.3.367.367 0 01-.3.1.876.876 0 01-.9-.7 2.417 2.417 0 00-2.5-2.1 2.456 2.456 0 00-2.5 2.4v.2a.6.6 0 01-.1.4.841.841 0 01-1.1.4 3.6 3.6 0 00-3.6.5.53.53 0 01-.3.2.948.948 0 01-1.1-.5 3.388 3.388 0 00-6.4.5.779.779 0 01-.8.6h-.1a2.5 2.5 0 00-2.4 2.4 2.523 2.523 0 002.5 2.4h31a1.268 1.268 0 00.6-.1zm-.8 17.3l.5-11h-2.4v4.7a.789.789 0 01-.8.8.86.86 0 01-.8-.8v-4.7h-2.5v3.1a.8.8 0 01-1.6 0v-3.1h-1.7v6.3a.789.789 0 01-.8.8.86.86 0 01-.8-.8v-6.3h-5v7.9a.789.789 0 01-.8.8.86.86 0 01-.8-.8v-7.9h-1.7v4.7a.8.8 0 01-1.6 0v-4.7h-4.3v7.1a.789.789 0 01-.8.8.86.86 0 01-.8-.8v-7.1h-1.7v3.1a.789.789 0 01-.8.8.86.86 0 01-.8-.8v-3.1h-2.4l.8 11h31.6zm-.8 9.5l.6-7.9H9.55l.6 7.9h1.8a5.92 5.92 0 012.4-2.3 6.911 6.911 0 019.1 2.3h3.5a5.92 5.92 0 012.4-2.3 6.911 6.911 0 019.1 2.3h1.8zm-2.5 3.1a5.01 5.01 0 10-5 4.7 4.83 4.83 0 005-4.7zm-11.5-1.5h-2.1a5.451 5.451 0 010 3.1h2.1a5.451 5.451 0 010-3.1zm-3.5 1.5a4.83 4.83 0 00-5-4.7 4.709 4.709 0 100 9.4 4.83 4.83 0 005-4.7zm-11.5-1.6h-5.2a.86.86 0 00-.8.8v1.6a.789.789 0 00.8.8v-.1h5.2a5.451 5.451 0 010-3.1z" fill="#dcf4ee"/>
      <path d="M45.25 40.326v1.5a.86.86 0 01-.8.8h-5.2a5.451 5.451 0 000-3.1h5.2a.789.789 0 01.8.8z" fill="#318972"/>
      <path d="M41.55 17.426l-.5 11H9.45l-.8-11h2.4v3.1a.86.86 0 00.8.8.789.789 0 00.8-.8v-3.1h1.7v7.1a.86.86 0 00.8.8.789.789 0 00.8-.8v-7.1h4.3v4.7a.8.8 0 001.6 0v-4.7h1.7v7.9a.86.86 0 00.8.8.789.789 0 00.8-.8v-7.9h5v6.3a.86.86 0 00.8.8.789.789 0 00.8-.8v-6.3h1.7v3.1a.8.8 0 001.6 0v-3.1h2.5v4.7a.86.86 0 00.8.8.789.789 0 00.8-.8v-4.7h2.4zm-6.3 7.1v-.8a.86.86 0 00-.8-.8.789.789 0 00-.8.8v.8a.8.8 0 101.6 0zm-22.5 0v-.8a.86.86 0 00-.8-.8.789.789 0 00-.8.8v.8a.86.86 0 00.8.8.789.789 0 00.8-.8zM40.85 30.026l-.6 7.9h-1.8a6.911 6.911 0 00-9.1-2.3 5.92 5.92 0 00-2.4 2.3h-3.5a6.911 6.911 0 00-9.1-2.3 5.92 5.92 0 00-2.4 2.3h-1.8l-.6-7.9h31.3zm-4.8 3.2a.789.789 0 00.8-.8.86.86 0 00-.8-.8h-.8a.8.8 0 000 1.6h.8zm-4.2 0a.789.789 0 00.8-.8.86.86 0 00-.8-.8h-.8a.789.789 0 00-.8.8.86.86 0 00.8.8h.8zm-4.1 0a.789.789 0 00.8-.8.86.86 0 00-.8-.8h-.8a.789.789 0 00-.8.8.733.733 0 00.8.8h.8zm-4.2 0a.789.789 0 00.8-.8.86.86 0 00-.8-.8h-.8a.8.8 0 100 1.6h.8zm-4.2 0a.789.789 0 00.8-.8.86.86 0 00-.8-.8h-.8a.789.789 0 00-.8.8.86.86 0 00.8.8h.8zm-4.1 0a.789.789 0 00.8-.8.86.86 0 00-.8-.8h-.8a.789.789 0 00-.8.8.733.733 0 00.8.8h.8z" fill="#45c4a7"/>
      <path d="M37.75 8.826a.789.789 0 01-.8.8h-.8a.86.86 0 01-.8-.8.789.789 0 01.8-.8h.8a.789.789 0 01.8.8z" fill="#f5f7d7"/>
      <path d="M36.85 32.426a.789.789 0 01-.8.8h-.8a.8.8 0 010-1.6h.8a.86.86 0 01.8.8z" fill="#f9c48a"/>
      <path d="M32.75 37.926a3.106 3.106 0 11-3.3 3.1 3.227 3.227 0 013.3-3.1zm1.7 3.1a1.666 1.666 0 00-1.7-1.6 1.605 1.605 0 00-1.7 1.6 1.7 1.7 0 003.4 0z" fill="#c3d8ee"/>
      <path d="M35.25 23.726v.8a.8.8 0 11-1.6 0v-.8a.789.789 0 01.8-.8.86.86 0 01.8.8z" fill="#dde589"/>
      <path d="M32.65 32.426a.789.789 0 01-.8.8h-.8a.86.86 0 01-.8-.8.789.789 0 01.8-.8h.8a.86.86 0 01.8.8z" fill="#f9c48a"/>
      <path d="M31.05 6.426a.8.8 0 010 1.6h-.8a.86.86 0 01-.8-.8.789.789 0 01.8-.8h.8z" fill="#f5f7d7"/>
      <path d="M28.55 32.426a.789.789 0 01-.8.8h-.8a.733.733 0 01-.8-.8.789.789 0 01.8-.8h.8a.86.86 0 01.8.8z" fill="#f9c48a"/>
      <path d="M26.05 4.826a.733.733 0 01.8.8.789.789 0 01-.8.8h-.8a.736.736 0 01-.8-.8.789.789 0 01.8-.8h.8z" fill="#f5f7d7"/>
      <path d="M24.15 39.526h2.1a5.451 5.451 0 000 3.1h-2.1a5.451 5.451 0 000-3.1z" fill="#318972"/>
      <path d="M25.25 8.826a.789.789 0 01-.8.8h-.8a.86.86 0 01-.8-.8.789.789 0 01.8-.8h.8a.789.789 0 01.8.8z" fill="#f5f7d7"/>
      <path d="M24.35 32.426a.789.789 0 01-.8.8h-.8a.8.8 0 110-1.6h.8a.86.86 0 01.8.8z" fill="#f9c48a"/>
      <path d="M17.75 37.926a3.106 3.106 0 11-3.3 3.1 3.227 3.227 0 013.3-3.1zm1.7 3.1a1.666 1.666 0 00-1.7-1.6 1.605 1.605 0 00-1.7 1.6 1.7 1.7 0 003.4 0z" fill="#c3d8ee"/>
      <path d="M20.15 32.426a.789.789 0 01-.8.8h-.8a.86.86 0 01-.8-.8.789.789 0 01.8-.8h.8a.86.86 0 01.8.8z" fill="#f9c48a"/>
      <path d="M18.55 7.226a.733.733 0 01.8.8.789.789 0 01-.8.8h-.8a.86.86 0 01-.8-.8.789.789 0 01.8-.8h.8z" fill="#f5f7d7"/>
      <path d="M16.05 32.426a.789.789 0 01-.8.8h-.8a.733.733 0 01-.8-.8.789.789 0 01.8-.8h.8a.86.86 0 01.8.8z" fill="#f9c48a"/>
      <path d="M12.75 23.726v.8a.789.789 0 01-.8.8.86.86 0 01-.8-.8v-.8a.789.789 0 01.8-.8.86.86 0 01.8.8z" fill="#dde589"/>
      <path d="M12.75 8.826a.789.789 0 01-.8.8h-.8a.86.86 0 01-.8-.8.789.789 0 01.8-.8h.8a.789.789 0 01.8.8z" fill="#f5f7d7"/>
      <path d="M6.05 39.426h5.2a5.451 5.451 0 000 3.1h-5.2v.1a.789.789 0 01-.8-.8v-1.6a.86.86 0 01.8-.8z" fill="#318972"/>
      <path d="M17.75 37.926a3.106 3.106 0 103.3 3.1 3.227 3.227 0 00-3.3-3.1z" fill="none" stroke="#226d5b" stroke-miterlimit="10" stroke-width=".25"/>
      <path d="M17.75 42.626a1.666 1.666 0 01-1.7-1.6 1.605 1.605 0 011.7-1.6 1.6 1.6 0 110 3.2zM32.75 37.926a3.106 3.106 0 103.3 3.1 3.227 3.227 0 00-3.3-3.1z" fill="none" stroke="#226d5b" stroke-miterlimit="10" stroke-width=".25"/>
      <path d="M32.75 42.626a1.666 1.666 0 01-1.7-1.6 1.605 1.605 0 011.7-1.6 1.6 1.6 0 110 3.2zM14.45 33.226h.8a.789.789 0 00.8-.8.86.86 0 00-.8-.8h-.8a.789.789 0 00-.8.8.733.733 0 00.8.8zM18.55 33.226h.8a.789.789 0 00.8-.8.86.86 0 00-.8-.8h-.8a.789.789 0 00-.8.8.86.86 0 00.8.8zM22.75 33.226h.8a.789.789 0 00.8-.8.86.86 0 00-.8-.8h-.8a.8.8 0 100 1.6zM26.95 33.226h.8a.789.789 0 00.8-.8.86.86 0 00-.8-.8h-.8a.789.789 0 00-.8.8.733.733 0 00.8.8zM31.05 33.226h.8a.789.789 0 00.8-.8.86.86 0 00-.8-.8h-.8a.789.789 0 00-.8.8.86.86 0 00.8.8zM35.25 33.226h.8a.789.789 0 00.8-.8.86.86 0 00-.8-.8h-.8a.8.8 0 000 1.6z" fill="none" stroke="#226d5b" stroke-miterlimit="10" stroke-width=".25"/>
      <path d="M49.45 40.226h-2.5a2.456 2.456 0 00-2.5-2.4h-2.4l1.5-20.4h3.4a.789.789 0 00.8-.8v-4.7a.86.86 0 00-.8-.8h-3a3.022 3.022 0 00.5-1.6 3.191 3.191 0 00-3.4-3.1h-.3a4.358 4.358 0 00-3.8-2.4 3.7 3.7 0 00-2.1.6 4.124 4.124 0 00-3.7-2.1 3.6 3.6 0 00-1.1.2 4.214 4.214 0 00-5.4-2.2 3.8 3.8 0 00-2.7 2.9 5.7 5.7 0 00-3.4.5 5.176 5.176 0 00-6.9-1.5 4.7 4.7 0 00-2.1 2.5 3.987 3.987 0 00-3.6 3.9 3.583 3.583 0 00.9 2.4h-3.3a.789.789 0 00-.8.8v4.7a.86.86 0 00.8.8h3.4l1.5 20.4h-2.4a2.456 2.456 0 00-2.5 2.4h-2.5a.789.789 0 00-.8.8.86.86 0 00.8.8h2.5a2.456 2.456 0 002.5 2.4h5.9a6.911 6.911 0 009.1 2.3 5.92 5.92 0 002.4-2.3h3.5a6.911 6.911 0 009.1 2.3 5.92 5.92 0 002.4-2.3h5.9a2.456 2.456 0 002.5-2.4h2.5a.789.789 0 00.8-.8.748.748 0 00-.7-.9z" fill="none" stroke="#226d5b" stroke-miterlimit="10" stroke-width=".5"/>
      <path d="M41.05 28.426H9.45l-.8-11h2.4v3.1a.86.86 0 00.8.8.789.789 0 00.8-.8v-3.1h1.7v7.1a.86.86 0 00.8.8.789.789 0 00.8-.8v-7.1h4.3v4.7a.8.8 0 001.6 0v-4.7h1.7v7.9a.86.86 0 00.8.8.789.789 0 00.8-.8v-7.9h5v6.3a.86.86 0 00.8.8.789.789 0 00.8-.8v-6.3h1.7v3.1a.8.8 0 001.6 0v-3.1h2.5v4.7a.86.86 0 00.8.8.789.789 0 00.8-.8v-4.7h2.4zM7.75 8.826a2.5 2.5 0 012.4-2.4h.1a.779.779 0 00.8-.6 3.388 3.388 0 016.4-.5.948.948 0 001.1.5.53.53 0 00.3-.2 3.6 3.6 0 013.6-.5.841.841 0 001.1-.4.6.6 0 00.1-.4v-.2a2.456 2.456 0 012.5-2.4 2.417 2.417 0 012.5 2.1.876.876 0 00.9.7.367.367 0 00.3-.1 2.768 2.768 0 011.3-.3 2.58 2.58 0 012.5 2 .961.961 0 00.9.7.55.55 0 00.5-.3 2.611 2.611 0 013.5-.3 2.3 2.3 0 01.9 1.4.832.832 0 001 .6h.1a1.786 1.786 0 012.2.9 1.553 1.553 0 01-.9 2 1.268 1.268 0 01-.6.1h-31a2.523 2.523 0 01-2.5-2.4zM4.45 12.726h41.7v3.1H4.45zM9.55 30.026h31.3l-.6 7.9h-1.8a6.911 6.911 0 00-9.1-2.3 5.92 5.92 0 00-2.4 2.3h-3.5a6.911 6.911 0 00-9.1-2.3 5.92 5.92 0 00-2.4 2.3h-1.8zM6.05 42.626a.789.789 0 01-.8-.8v-1.6a.86.86 0 01.8-.8h5.2a5.451 5.451 0 000 3.1h-5.2v.1z" fill="none" stroke="#226d5b" stroke-miterlimit="10" stroke-width=".25"/>
      <path d="M17.75 45.726a4.709 4.709 0 110-9.4 4.709 4.709 0 110 9.4zM24.15 42.626a5.451 5.451 0 000-3.1h2.1a5.451 5.451 0 000 3.1h-2.1zM32.75 45.726a4.709 4.709 0 115-4.7 4.83 4.83 0 01-5 4.7zM45.25 41.826a.86.86 0 01-.8.8h-5.2a5.451 5.451 0 000-3.1h5.2a.789.789 0 01.8.8v1.5z" fill="none" stroke="#226d5b" stroke-miterlimit="10" stroke-width=".25"/>
    </g>
  </g>
</svg>
