<svg id="Layer_1" data-name="Layer 1" xmlns="http://www.w3.org/2000/svg" viewBox="0 0 57.61 30"><title>trains_4</title><path d="M26.38,35.76a2.47,2.47,0,1,0,2.47,2.47A2.48,2.48,0,0,0,26.38,35.76Zm0,3.3a0.82,0.82,0,1,1,.82-0.82A0.82,0.82,0,0,1,26.38,39.05Z" transform="translate(-0.83 -0.95)"/><path d="M16.49,35.76A2.47,2.47,0,1,0,19,38.23,2.48,2.48,0,0,0,16.49,35.76Zm0,3.3a0.82,0.82,0,1,1,.82-0.82A0.82,0.82,0,0,1,16.49,39.05Z" transform="translate(-0.83 -0.95)"/><path d="M51.93,33.76V8.1l-0.16-.22A9.11,9.11,0,0,0,45.34,4.3V3.42A2.47,2.47,0,0,0,42.87,1H33A2.47,2.47,0,0,0,30.5,3.42V4.25H22.26V3.42A2.47,2.47,0,0,0,19.79,1H14.84a2.47,2.47,0,0,0-2.47,2.47V4.3A9.11,9.11,0,0,0,5.94,7.87L5.78,8.1V29H0.83v4.95H7.42v6.59h3.86a6,6,0,0,0,.37.9,4.41,4.41,0,0,0,.4.68,3.81,3.81,0,0,0,.71.73,6.17,6.17,0,0,0,1,.58,5.43,5.43,0,0,0,1.34.45,8,8,0,0,0,1.61.07,4.83,4.83,0,0,0,2.12-.54c0.66-.1,2.48-2.22,2.61-2.39a4.75,4.75,0,0,0,.28.41,6.42,6.42,0,0,0,2,2,3,3,0,0,0,.87.51,5.17,5.17,0,0,0,4.22-.48,6.65,6.65,0,0,0,1.24-.81l0.39-.4a10.49,10.49,0,0,0,.62-0.85c0.2-.31.37-0.6,0.52-0.88H43.47c0-.09,1.34-0.08,1.36-0.17,0.12-.44,0-1.8-0.57-1.48,0-.07,0,0.07,0,0H38.75V37.22H43.9a8,8,0,0,0,.93-0.2c0-.29.51-0.33,0.51-0.62s1.23-.71,0-0.77l-6.59-.06V33.92l8.24,0c0.28-.24.47,0.29,0.84,0.28,0.89,0-.31-0.77.52-0.38a1.14,1.14,0,0,1,.29.2V33.92h1.65l0.24,0a3.93,3.93,0,0,1,.48,0,5.4,5.4,0,0,0,.89,0A0.16,0.16,0,0,0,51.93,33.76ZM5.78,32.27H2.48V30.62h3.3v1.65ZM32.15,3.42A0.82,0.82,0,0,1,33,2.6h9.89a0.82,0.82,0,0,1,.82.82V4.25H32.15V3.42ZM14,3.42a0.82,0.82,0,0,1,.82-0.82h4.95a0.82,0.82,0,0,1,.82.82V4.25H14V3.42ZM13.19,5.9H44.52a7.45,7.45,0,0,1,4.65,1.65H8.54A7.45,7.45,0,0,1,13.19,5.9ZM10.72,38a5.8,5.8,0,0,0,.07.82H9.07V33.92h3.39A5.75,5.75,0,0,0,10.72,38Zm0-17.31V12.49H19V32.27H10.72V22.38H14V20.73h-3.3ZM17.61,42a4.14,4.14,0,0,1-5.09-5.09,4.07,4.07,0,0,1,2.85-2.85,4.14,4.14,0,0,1,5.09,5.09A4.07,4.07,0,0,1,17.61,42Zm3.83-6.93a5.81,5.81,0,0,0-.92-1.16h1.83A5.84,5.84,0,0,0,21.44,35.09ZM27.5,42a4.14,4.14,0,0,1-5.09-5.09,4.07,4.07,0,0,1,2.85-2.85,4.14,4.14,0,0,1,5.09,5.09A4.07,4.07,0,0,1,27.5,42Zm-3.59-9.74V25.68H33.8v6.59H23.91ZM37.1,38.87h-5a5.66,5.66,0,0,0-1.67-4.95H37.1v4.95Zm0-6.59H35.45V24H22.26v8.24H20.61V22.38H37.1v9.89ZM47,20.73h-3.3v1.65H47v9.89H38.75V12.49H47v8.24Zm3.3,11.54H48.64V10.84H37.1v9.89H20.61V10.84H9.07V32.27H7.42V9.19H50.28V32.27Z" transform="translate(-0.83 -0.95)"/><path d="M22.26,17.62H35.45V11H22.26v6.59Zm1.65-4.95H33.8V16H23.91v-3.3Z" transform="translate(-0.83 -0.95)"/><path d="M45.34,14.33H40.39v4.95h4.95V14.33Zm-1.65,3.3H42V16h1.65v1.65Z" transform="translate(-0.83 -0.95)"/><path d="M17.32,14.33H12.37v4.95h4.95V14.33Zm-1.65,3.3H14V16h1.65v1.65Z" transform="translate(-0.83 -0.95)"/><line x1="51.05" y1="32.99" x2="51.05" y2="32.99"/><circle cx="48.69" cy="37.52" r="4.69" fill="none" stroke="#000" stroke-miterlimit="10" stroke-width="1.5"/><circle cx="49.46" cy="38.54" r="1.65" transform="translate(-12.67 24.4) rotate(-25.79)" fill="none" stroke="#000" stroke-miterlimit="10" stroke-width="1.5"/><rect x="51.05" y="29.67" width="5.8" height="2.76" fill="none" stroke="#000" stroke-miterlimit="10" stroke-width="1.5"/></svg>