<svg xmlns="http://www.w3.org/2000/svg" viewBox="0 0 59.7 26">
  <g data-name="Layer 1">
    <g data-name="&lt;Group&gt;">
      <g opacity=".6" style="mix-blend-mode:multiply">
        <path d="M59.45 23.65v3.6a.9.9 0 01-.9.9h-1.3l-1.9 3.2a1.234 1.234 0 01-.8.4h-.7a4.711 4.711 0 01-4.5 3.6 4.523 4.523 0 01-4.5-3.6h-.2a4.711 4.711 0 01-4.5 3.6 4.523 4.523 0 01-4.5-3.6h-.7a.909.909 0 01-.8-.4l-1.9-3.2h-4.4l-1.9 3.2a1.234 1.234 0 01-.8.4h-.7a4.711 4.711 0 01-4.5 3.6 4.319 4.319 0 01-4.3-3.7h-.2a4.711 4.711 0 01-4.5 3.6 4.523 4.523 0 01-4.5-3.6h-.7a.909.909 0 01-.8-.4l-1.9-3.3h-1.4a.9.9 0 01-.9-.9v-3.6a.9.9 0 01.9-.9h.9V1.65a.9.9 0 01.9-.9h53.3a.9.9 0 01.9.9v21.1h.9a.9.9 0 01.9.9zm-2.2 2.6v-1.8H2.55v1.8h54.7zm-1.8-3.7v-20H4.35v20h51.1zm-1.7 7.3l1.1-1.8h-2.1a6.079 6.079 0 01.9 1.8h.1zm-1.9.9a2.689 2.689 0 00-2.7-2.7 2.571 2.571 0 00-2.7 2.7 2.7 2.7 0 105.4 0zm-6.3-2.7h-1.9a6.079 6.079 0 01.9 1.8h.2a3.7 3.7 0 01.8-1.8zm-2.8 2.7a2.689 2.689 0 00-2.7-2.7 2.571 2.571 0 00-2.7 2.7 2.7 2.7 0 105.4 0zm-6.3-2.7h-2.1l1.2 1.8h.1a3.7 3.7 0 01.8-1.8zm-11.9 1.8l1.1-1.8h-2.1a6.079 6.079 0 01.9 1.8h.1zm-1.9.9a2.7 2.7 0 10-2.7 2.7 2.689 2.689 0 002.7-2.7zm-6.3-2.7h-1.9a6.079 6.079 0 01.9 1.8h.2a3.7 3.7 0 01.8-1.8zm-2.8 2.7a2.7 2.7 0 10-5.4 0 2.628 2.628 0 002.7 2.7 2.689 2.689 0 002.7-2.7zm-6.3-2.7h-2.1l1.1 1.8h.2a3.7 3.7 0 01.8-1.8z" fill="#16324f"/>
        <path d="M57.25 24.45v1.8H2.55v-1.8h54.7zM49.05 6.05a.9.9 0 00-.9.9v11.1a.9.9 0 001.8 0v-11a.865.865 0 00-.9-1zm6.4-3.5v20H4.35v-20h51.1zm-10.9 15.5v-11a.987.987 0 00-.9-1 .9.9 0 00-.9.9v11.1a.9.9 0 101.8 0zm-5.5 0v-11a.987.987 0 00-.9-1 .9.9 0 00-.9.9v11.1a.9.9 0 101.8 0zm-5.4 0v-11a.987.987 0 00-.9-1 .9.9 0 00-.9.9v11.1a.9.9 0 001.8 0zm-5.5 0v-11a.987.987 0 00-.9-1 .9.9 0 00-.9.9v11.1a.9.9 0 001.8 0zm-5.5-11a.919.919 0 00-.9-1 .9.9 0 00-.9.9v11.1a.9.9 0 001.8 0v-11zm-5.4 11v-11a.987.987 0 00-.9-1 .9.9 0 00-.9.9v11.1a.9.9 0 001.8 0zm-5.5 0v-11a.987.987 0 00-.9-1 .9.9 0 00-.9.9v11.1a.9.9 0 001.8 0zM49.15 28.05a2.7 2.7 0 11-2.7 2.7 2.571 2.571 0 012.7-2.7zm.9 2.7a.9.9 0 10-.9.9.9.9 0 00.9-.9z" fill="#16324f"/>
        <path d="M49.05 6.05a.865.865 0 01.9 1v11a.9.9 0 01-1.8 0V6.95a.9.9 0 01.9-.9zM44.55 7.05v11a.9.9 0 11-1.8 0V6.95a.9.9 0 01.9-.9.987.987 0 01.9 1zM40.05 28.05a2.7 2.7 0 11-2.7 2.7 2.571 2.571 0 012.7-2.7zm.9 2.7a.9.9 0 10-.9.9.9.9 0 00.9-.9zM39.05 7.05v11a.9.9 0 11-1.8 0V6.95a.9.9 0 01.9-.9.987.987 0 01.9 1zM33.65 7.05v11a.9.9 0 01-1.8 0V6.95a.9.9 0 01.9-.9.987.987 0 01.9 1zM28.15 7.05v11a.9.9 0 01-1.8 0V6.95a.9.9 0 01.9-.9.987.987 0 01.9 1zM21.75 6.05a.919.919 0 01.9 1v11a.9.9 0 01-1.8 0V6.95a.9.9 0 01.9-.9zM19.95 28.05a2.7 2.7 0 11-2.7 2.7 2.689 2.689 0 012.7-2.7zm.9 2.7a.9.9 0 10-.9.9.9.9 0 00.9-.9zM17.25 7.05v11a.9.9 0 01-1.8 0V6.95a.9.9 0 01.9-.9.987.987 0 01.9 1zM10.85 28.05a2.7 2.7 0 110 5.4 2.628 2.628 0 01-2.7-2.7 2.689 2.689 0 012.7-2.7zm.9 2.7a.9.9 0 10-.9.9.9.9 0 00.9-.9zM11.75 7.05v11a.9.9 0 01-1.8 0V6.95a.9.9 0 01.9-.9.987.987 0 01.9 1z" fill="#16324f"/>
        <path d="M3.45.75a.9.9 0 00-.9.9v20.9h-.9a.9.9 0 00-.9.9v3.6a.9.9 0 00.9.9h1.4l1.9 3.3a.909.909 0 00.8.4h.7a4.523 4.523 0 004.5 3.6 4.711 4.711 0 004.5-3.6h.2a4.319 4.319 0 004.3 3.7 4.711 4.711 0 004.5-3.6h.7a1.234 1.234 0 00.8-.4l1.9-3.2h4.4l1.9 3.2a.909.909 0 00.8.4h.7a4.523 4.523 0 004.5 3.6 4.711 4.711 0 004.5-3.6h.2a4.523 4.523 0 004.5 3.6 4.711 4.711 0 004.5-3.6h.7a1.234 1.234 0 00.8-.4l1.9-3.2h1.3a.9.9 0 00.9-.9v-3.6a.9.9 0 00-.9-.9h-.9V1.65a.9.9 0 00-.9-.9H3.45z" fill="none" stroke="#16324f" stroke-miterlimit="10" stroke-width=".5"/>
        <path fill="none" stroke="#16324f" stroke-miterlimit="10" stroke-width=".25" d="M4.35 2.55h51.1v20H4.35z"/>
        <path d="M10.85 6.05a.9.9 0 00-.9.9v11.1a.9.9 0 001.8 0v-11a.987.987 0 00-.9-1zM16.35 6.05a.9.9 0 00-.9.9v11.1a.9.9 0 001.8 0v-11a.987.987 0 00-.9-1zM21.75 6.05a.9.9 0 00-.9.9v11.1a.9.9 0 001.8 0v-11a.919.919 0 00-.9-1zM27.25 6.05a.9.9 0 00-.9.9v11.1a.9.9 0 001.8 0v-11a.987.987 0 00-.9-1zM32.75 6.05a.9.9 0 00-.9.9v11.1a.9.9 0 001.8 0v-11a.987.987 0 00-.9-1zM38.15 6.05a.9.9 0 00-.9.9v11.1a.9.9 0 101.8 0v-11a.987.987 0 00-.9-1zM43.65 6.05a.9.9 0 00-.9.9v11.1a.9.9 0 101.8 0v-11a.987.987 0 00-.9-1zM49.13 6.05h-.08M49.05 6.05a.9.9 0 00-.9.9v11.1a.9.9 0 001.8 0v-11a.865.865 0 00-.9-1zM2.55 24.45h54.7v1.8H2.55v-1.8zM5.15 28.05h2.1a3.7 3.7 0 00-.8 1.8h-.2zM10.85 28.05a2.7 2.7 0 110 5.4 2.628 2.628 0 01-2.7-2.7 2.689 2.689 0 012.7-2.7zM14.45 28.05h1.9a3.7 3.7 0 00-.8 1.8h-.2a6.079 6.079 0 00-.9-1.8zM19.95 28.05a2.7 2.7 0 11-2.7 2.7 2.689 2.689 0 012.7-2.7zM23.55 28.05h2.1l-1.1 1.8h-.1a6.079 6.079 0 00-.9-1.8zM34.35 28.05h2.1a3.7 3.7 0 00-.8 1.8h-.1zM40.05 28.05a2.7 2.7 0 11-2.7 2.7 2.571 2.571 0 012.7-2.7zM43.65 28.05h1.9a3.7 3.7 0 00-.8 1.8h-.2a6.079 6.079 0 00-.9-1.8zM49.15 28.05a2.7 2.7 0 11-2.7 2.7 2.571 2.571 0 012.7-2.7zM52.75 28.05h2.1l-1.1 1.8h-.1a6.079 6.079 0 00-.9-1.8z" fill="none" stroke="#16324f" stroke-miterlimit="10" stroke-width=".25"/>
        <circle cx="10.85" cy="30.75" r=".9" fill="none" stroke="#16324f" stroke-miterlimit="10" stroke-width=".25"/>
        <circle cx="19.95" cy="30.75" r=".9" fill="none" stroke="#16324f" stroke-miterlimit="10" stroke-width=".25"/>
        <circle cx="40.05" cy="30.75" r=".9" fill="none" stroke="#16324f" stroke-miterlimit="10" stroke-width=".25"/>
        <circle cx="49.15" cy="30.75" r=".9" fill="none" stroke="#16324f" stroke-miterlimit="10" stroke-width=".25"/>
      </g>
      <path d="M58.95 23.15v3.6a.9.9 0 01-.9.9h-1.3l-1.9 3.2a1.234 1.234 0 01-.8.4h-.7a4.711 4.711 0 01-4.5 3.6 4.523 4.523 0 01-4.5-3.6h-.2a4.711 4.711 0 01-4.5 3.6 4.523 4.523 0 01-4.5-3.6h-.7a.909.909 0 01-.8-.4l-1.9-3.2h-4.4l-1.9 3.2a1.234 1.234 0 01-.8.4h-.7a4.711 4.711 0 01-4.5 3.6 4.319 4.319 0 01-4.3-3.7h-.2a4.711 4.711 0 01-4.5 3.6 4.523 4.523 0 01-4.5-3.6h-.7a.909.909 0 01-.8-.4l-1.9-3.3h-1.4a.9.9 0 01-.9-.9v-3.6a.9.9 0 01.9-.9h.9V1.15a.9.9 0 01.9-.9h53.3a.9.9 0 01.9.9v21.1h.9a.9.9 0 01.9.9zm-2.2 2.6v-1.8H2.05v1.8h54.7zm-1.8-3.7v-20H3.85v20h51.1zm-1.7 7.3l1.1-1.8h-2.1a6.079 6.079 0 01.9 1.8h.1zm-1.9.9a2.689 2.689 0 00-2.7-2.7 2.571 2.571 0 00-2.7 2.7 2.7 2.7 0 105.4 0zm-6.3-2.7h-1.9a6.079 6.079 0 01.9 1.8h.2a3.7 3.7 0 01.8-1.8zm-2.8 2.7a2.689 2.689 0 00-2.7-2.7 2.571 2.571 0 00-2.7 2.7 2.7 2.7 0 105.4 0zm-6.3-2.7h-2.1l1.2 1.8h.1a3.7 3.7 0 01.8-1.8zm-11.9 1.8l1.1-1.8h-2.1a6.079 6.079 0 01.9 1.8h.1zm-1.9.9a2.7 2.7 0 10-2.7 2.7 2.689 2.689 0 002.7-2.7zm-6.3-2.7h-1.9a6.079 6.079 0 01.9 1.8h.2a3.7 3.7 0 01.8-1.8zm-2.8 2.7a2.7 2.7 0 10-5.4 0 2.628 2.628 0 002.7 2.7 2.689 2.689 0 002.7-2.7zm-6.3-2.7h-2.1l1.1 1.8h.2a3.7 3.7 0 01.8-1.8z" fill="#dcf4ee"/>
      <path d="M56.75 23.95v1.8H2.05v-1.8h54.7z" fill="#FDB98B"/>
      <path d="M48.55 5.55a.9.9 0 00-.9.9v11.1a.9.9 0 001.8 0v-11a.865.865 0 00-.9-1zm6.4-3.5v20H3.85v-20h51.1zm-10.9 15.5v-11a.987.987 0 00-.9-1 .9.9 0 00-.9.9v11.1a.9.9 0 101.8 0zm-5.5 0v-11a.987.987 0 00-.9-1 .9.9 0 00-.9.9v11.1a.9.9 0 101.8 0zm-5.4 0v-11a.987.987 0 00-.9-1 .9.9 0 00-.9.9v11.1a.9.9 0 001.8 0zm-5.5 0v-11a.987.987 0 00-.9-1 .9.9 0 00-.9.9v11.1a.9.9 0 001.8 0zm-5.5-11a.919.919 0 00-.9-1 .9.9 0 00-.9.9v11.1a.9.9 0 001.8 0v-11zm-5.4 11v-11a.987.987 0 00-.9-1 .9.9 0 00-.9.9v11.1a.9.9 0 001.8 0zm-5.5 0v-11a.987.987 0 00-.9-1 .9.9 0 00-.9.9v11.1a.9.9 0 001.8 0z" fill="#45c4a7"/>
      <path d="M48.65 27.55a2.7 2.7 0 11-2.7 2.7 2.571 2.571 0 012.7-2.7zm.9 2.7a.9.9 0 10-.9.9.9.9 0 00.9-.9z" fill="#16324f"/>
      <path d="M48.55 5.55a.865.865 0 01.9 1v11a.9.9 0 01-1.8 0V6.45a.9.9 0 01.9-.9zM44.05 6.55v11a.9.9 0 11-1.8 0V6.45a.9.9 0 01.9-.9.987.987 0 01.9 1z" fill="#a2e2d3"/>
      <path d="M39.55 27.55a2.7 2.7 0 11-2.7 2.7 2.571 2.571 0 012.7-2.7zm.9 2.7a.9.9 0 10-.9.9.9.9 0 00.9-.9z" fill="#16324f"/>
      <path d="M38.55 6.55v11a.9.9 0 11-1.8 0V6.45a.9.9 0 01.9-.9.987.987 0 01.9 1zM33.15 6.55v11a.9.9 0 01-1.8 0V6.45a.9.9 0 01.9-.9.987.987 0 01.9 1zM27.65 6.55v11a.9.9 0 01-1.8 0V6.45a.9.9 0 01.9-.9.987.987 0 01.9 1zM21.25 5.55a.919.919 0 01.9 1v11a.9.9 0 01-1.8 0V6.45a.9.9 0 01.9-.9z" fill="#a2e2d3"/>
      <path d="M19.45 27.55a2.7 2.7 0 11-2.7 2.7 2.689 2.689 0 012.7-2.7zm.9 2.7a.9.9 0 10-.9.9.9.9 0 00.9-.9z" fill="#16324f"/>
      <path d="M16.75 6.55v11a.9.9 0 01-1.8 0V6.45a.9.9 0 01.9-.9.987.987 0 01.9 1z" fill="#a2e2d3"/>
      <path d="M10.35 27.55a2.7 2.7 0 110 5.4 2.628 2.628 0 01-2.7-2.7 2.689 2.689 0 012.7-2.7zm.9 2.7a.9.9 0 10-.9.9.9.9 0 00.9-.9z" fill="#16324f"/>
      <path d="M11.25 6.55v11a.9.9 0 01-1.8 0V6.45a.9.9 0 01.9-.9.987.987 0 01.9 1z" fill="#a2e2d3"/>
      <path d="M2.95.25a.9.9 0 00-.9.9v20.9h-.9a.9.9 0 00-.9.9v3.6a.9.9 0 00.9.9h1.4l1.9 3.3a.909.909 0 00.8.4h.7a4.523 4.523 0 004.5 3.6 4.711 4.711 0 004.5-3.6h.2a4.319 4.319 0 004.3 3.7 4.711 4.711 0 004.5-3.6h.7a1.234 1.234 0 00.8-.4l1.9-3.2h4.4l1.9 3.2a.909.909 0 00.8.4h.7a4.523 4.523 0 004.5 3.6 4.711 4.711 0 004.5-3.6h.2a4.523 4.523 0 004.5 3.6 4.711 4.711 0 004.5-3.6h.7a1.234 1.234 0 00.8-.4l1.9-3.2h1.3a.9.9 0 00.9-.9v-3.6a.9.9 0 00-.9-.9h-.9V1.15a.9.9 0 00-.9-.9H2.95z" fill="none" stroke="#226d5b" stroke-miterlimit="10" stroke-width=".5"/>
      <path fill="none" stroke="#226d5b" stroke-miterlimit="10" stroke-width=".25" d="M3.85 2.05h51.1v20H3.85z"/>
      <path d="M10.35 5.55a.9.9 0 00-.9.9v11.1a.9.9 0 001.8 0v-11a.987.987 0 00-.9-1zM15.85 5.55a.9.9 0 00-.9.9v11.1a.9.9 0 001.8 0v-11a.987.987 0 00-.9-1zM21.25 5.55a.9.9 0 00-.9.9v11.1a.9.9 0 001.8 0v-11a.919.919 0 00-.9-1zM26.75 5.55a.9.9 0 00-.9.9v11.1a.9.9 0 001.8 0v-11a.987.987 0 00-.9-1zM32.25 5.55a.9.9 0 00-.9.9v11.1a.9.9 0 001.8 0v-11a.987.987 0 00-.9-1zM37.65 5.55a.9.9 0 00-.9.9v11.1a.9.9 0 101.8 0v-11a.987.987 0 00-.9-1zM43.15 5.55a.9.9 0 00-.9.9v11.1a.9.9 0 101.8 0v-11a.987.987 0 00-.9-1zM48.63 5.55h-.08M48.55 5.55a.9.9 0 00-.9.9v11.1a.9.9 0 001.8 0v-11a.865.865 0 00-.9-1zM2.05 23.95h54.7v1.8H2.05v-1.8zM4.65 27.55h2.1a3.7 3.7 0 00-.8 1.8h-.2zM10.35 27.55a2.7 2.7 0 110 5.4 2.628 2.628 0 01-2.7-2.7 2.689 2.689 0 012.7-2.7zM13.95 27.55h1.9a3.7 3.7 0 00-.8 1.8h-.2a6.079 6.079 0 00-.9-1.8zM19.45 27.55a2.7 2.7 0 11-2.7 2.7 2.689 2.689 0 012.7-2.7zM23.05 27.55h2.1l-1.1 1.8h-.1a6.079 6.079 0 00-.9-1.8zM33.85 27.55h2.1a3.7 3.7 0 00-.8 1.8h-.1zM39.55 27.55a2.7 2.7 0 11-2.7 2.7 2.571 2.571 0 012.7-2.7zM43.15 27.55h1.9a3.7 3.7 0 00-.8 1.8h-.2a6.079 6.079 0 00-.9-1.8zM48.65 27.55a2.7 2.7 0 11-2.7 2.7 2.571 2.571 0 012.7-2.7zM52.25 27.55h2.1l-1.1 1.8h-.1a6.079 6.079 0 00-.9-1.8z" fill="none" stroke="#226d5b" stroke-miterlimit="10" stroke-width=".25"/>
      <circle cx="10.35" cy="30.25" r=".9" fill="none" stroke="#226d5b" stroke-miterlimit="10" stroke-width=".25"/>
      <circle cx="19.45" cy="30.25" r=".9" fill="none" stroke="#226d5b" stroke-miterlimit="10" stroke-width=".25"/>
      <circle cx="39.55" cy="30.25" r=".9" fill="none" stroke="#226d5b" stroke-miterlimit="10" stroke-width=".25"/>
      <circle cx="48.65" cy="30.25" r=".9" fill="none" stroke="#226d5b" stroke-miterlimit="10" stroke-width=".25"/>
    </g>
  </g>
</svg>
