<svg xmlns="http://www.w3.org/2000/svg" viewBox="0 0 60.4 44">
  <g data-name="Layer 1">
    <g data-name="&lt;Group&gt;">
      <g opacity=".41" style="mix-blend-mode:multiply">
        <path fill="#636363" d="M40.15 12.75h10v8h-10z"/>
        <path d="M41.75 32.55a1.012 1.012 0 01-.8 1.2l-15.5 3.9a1.086 1.086 0 01-1.2-.7 1.028 1.028 0 01.7-1.2l15.5-3.9a1.146 1.146 0 011.3.7z" fill="#642000"/>
        <path d="M11.15 35.75a3 3 0 11-3 3 2.946 2.946 0 013-3zM25.85 39.65l2.2-.6a3.116 3.116 0 01-3 2.7 2.925 2.925 0 01-2.9-3 3.553 3.553 0 01.2-1 2.865 2.865 0 003.5 1.9zM46.05 27.75a7 7 0 010 14 7.127 7.127 0 01-6.8-5.5l2.1-.5a2.937 2.937 0 001.8-1.3v.3a2.992 2.992 0 10.5-1.7 3.4 3.4 0 00-.1-1 2.869 2.869 0 00-2.5-2.2 6.722 6.722 0 015-2.1z"/>
        <path d="M32.15 16.75v12h-22v-12h22zm-2 6v-2h-2v2h2zm-4 0v-2h-2v2h2zm-4 0v-2h-2v2h2zm-4 0v-2h-2v2h2z" fill="#004426"/>
        <path d="M60.15 30.75v6a1.9 1.9 0 01-2.1 1.9h-3.9a8.924 8.924 0 01-12 4.1 9.059 9.059 0 01-4.8-6l-7.2 1.8v.2a5 5 0 01-10 0h-4a5 5 0 01-10 0h-3.4a2.006 2.006 0 01-2-2 2.92 2.92 0 01.2-.9l3.3-6.5a.961.961 0 01.9-.6h.7a9.978 9.978 0 01-1.7-6c0-4.5 2.2-8 5-8v-6h-1a.945.945 0 01-1-1v-4a.945.945 0 011-1h10a.945.945 0 011 1v4a.945.945 0 01-1 1h-1v6h15v-6h-1a.945.945 0 01-1-1 6.957 6.957 0 017-7h16a6.957 6.957 0 017 7 .945.945 0 01-1 1h-1v20a2.006 2.006 0 012 2zm-2 6v-6h-3.9a8.937 8.937 0 01.7 6h3.2zm-25.9-30h25.8a5.115 5.115 0 00-4.9-4h-16a5.03 5.03 0 00-4.9 4zm23.9 22v-20h-22v20h5.3a9.006 9.006 0 0112.7-.7 4.62 4.62 0 01.7.7h3.3zm-3.1 6a6.957 6.957 0 00-7-7 6.722 6.722 0 00-5 2.1 2.869 2.869 0 012.5 2.2 3.4 3.4 0 01.1 1 3.085 3.085 0 11-.5 1.7v-.3a2.937 2.937 0 01-1.8 1.3l-2.1.5a7.127 7.127 0 006.8 5.5 6.957 6.957 0 007-7zm-5.9 0a1 1 0 10-1 1 .945.945 0 001-1zm-6.2-1a1.012 1.012 0 00.8-1.2 1.146 1.146 0 00-1.3-.7l-15.5 3.9a1.028 1.028 0 00-.7 1.2 1.086 1.086 0 001.2.7zm-16.4 0l12.2-3h-31l-3 6h3.7a5.067 5.067 0 016.6-2.6 4.738 4.738 0 012.6 2.6h4.9a4.829 4.829 0 014-3zm7.6-5v-12h-22v12h22zm-4.1 10.3l-2.2.6a2.865 2.865 0 01-3.5-1.9 3.553 3.553 0 00-.2 1 2.925 2.925 0 002.9 3 3.116 3.116 0 003-2.7zm-10.9-32.3v-2h-8v2h8zm-2 8v-6h-4v6h4zm-1 24a3 3 0 10-3 3 2.946 2.946 0 003-3zm-6-10.4v-11.2c-1.1.8-2 2.9-2 5.6s.9 4.8 2 5.6z" fill="#435b55"/>
        <path d="M58.15 30.75v6h-3.2a8.937 8.937 0 00-.7-6h3.9z" fill="#002b0e"/>
        <path d="M58.05 6.75h-25.8a5.03 5.03 0 014.9-4h16a5.115 5.115 0 014.9 4z" fill="#000200"/>
        <path d="M56.15 8.75v20h-3.3a4.62 4.62 0 00-.7-.7 9.006 9.006 0 00-12.7.7h-5.3v-20h22zm-4 13v-10a.945.945 0 00-1-1h-12a.945.945 0 00-1 1v10a.945.945 0 001 1h12a1 1 0 001-1z" fill="#002b0e"/>
        <path d="M52.15 11.75v10a1 1 0 01-1 1h-12a.945.945 0 01-1-1v-10a.945.945 0 011-1h12a.945.945 0 011 1zm-2 9v-8h-10v8h10z" fill="#435b55"/>
        <path d="M36.75 30.75l-12.2 3a4.829 4.829 0 00-4 3h-4.9a4.738 4.738 0 00-2.6-2.6 5.067 5.067 0 00-6.6 2.6h-3.7l3-6h31zM28.15 20.75h2v2h-2z" fill="#002b0e"/>
        <path fill="#636363" d="M24.15 20.75h2v2h-2z"/>
        <path fill="#002b0e" d="M20.15 20.75h2v2h-2z"/>
        <path fill="#636363" d="M16.15 20.75h2v2h-2z"/>
        <path fill="#3c5b00" d="M9.15 4.75h8v2h-8zM11.15 8.75h4v6h-4z"/>
        <path d="M8.15 17.15v11.2c-1.1-.8-2-2.9-2-5.6s.9-4.8 2-5.6z" fill="#642000"/>
        <path d="M52.15 21.75v-10a.945.945 0 00-1-1h-12a.945.945 0 00-1 1v10a.945.945 0 001 1h12a1 1 0 001-1z" fill="none" stroke="#000" stroke-miterlimit="10" stroke-width=".25"/>
        <path fill="none" stroke="#000" stroke-miterlimit="10" stroke-width=".25" d="M40.15 12.75h10v8h-10z"/>
        <path d="M60.15 36.75v-6a2.006 2.006 0 00-2-2v-20h1a.945.945 0 001-1 6.957 6.957 0 00-7-7h-16a6.957 6.957 0 00-7 7 .945.945 0 001 1h1v6h-15v-6h1a.945.945 0 001-1v-4a.945.945 0 00-1-1h-10a.945.945 0 00-1 1v4a.945.945 0 001 1h1v6c-2.8 0-5 3.5-5 8a9.978 9.978 0 001.7 6h-.7a.961.961 0 00-.9.6l-3.3 6.5a2.92 2.92 0 00-.2.9 2.006 2.006 0 002 2h3.4a5 5 0 0010 0h4a5 5 0 0010 0v-.2l7.2-1.8a9.059 9.059 0 004.8 6 8.924 8.924 0 0012-4.1h3.9a1.9 1.9 0 002.1-1.9z" fill="none" stroke="#000" stroke-miterlimit="10" stroke-width=".5"/>
        <path d="M39.25 36.25l2.1-.5a2.937 2.937 0 001.8-1.3v.3a2.992 2.992 0 10.5-1.7 3.4 3.4 0 00-.1-1 2.869 2.869 0 00-2.5-2.2 6.722 6.722 0 015-2.1 7 7 0 010 14 7.127 7.127 0 01-6.8-5.5z" fill="none" stroke="#000" stroke-miterlimit="10" stroke-width=".25"/>
        <path d="M40.45 31.85a1.146 1.146 0 011.3.7 1.012 1.012 0 01-.8 1.2l-15.5 3.9a1.086 1.086 0 01-1.2-.7 1.028 1.028 0 01.7-1.2zM46.15 33.75a1 1 0 11-1 1 .945.945 0 011-1zM22.15 38.75a3.553 3.553 0 01.2-1 2.865 2.865 0 003.5 1.9l2.2-.6a3.116 3.116 0 01-3 2.7 2.925 2.925 0 01-2.9-3zM8.15 38.75a3 3 0 113 3 2.946 2.946 0 01-3-3z" fill="none" stroke="#000" stroke-miterlimit="10" stroke-width=".25"/>
        <path d="M5.75 30.75h31l-12.2 3a4.829 4.829 0 00-4 3h-4.9a4.738 4.738 0 00-2.6-2.6 5.067 5.067 0 00-6.6 2.6h-3.7zM8.15 28.35c-1.1-.8-2-2.9-2-5.6s.9-4.8 2-5.6v11.2zM9.15 4.75h8v2h-8zM11.15 8.75h4v6h-4zM10.15 16.75h22v12h-22zM58.05 6.75h-25.8a5.03 5.03 0 014.9-4h16a5.115 5.115 0 014.9 4zM56.15 8.75v20h-3.3a4.62 4.62 0 00-.7-.7 9.006 9.006 0 00-12.7.7h-5.3v-20h22zM58.15 36.75h-3.2a8.937 8.937 0 00-.7-6h3.9v6z" fill="none" stroke="#000" stroke-miterlimit="10" stroke-width=".25"/>
      </g>
      <path fill="#E7EDAB" d="M39.65 12.25h10v8h-10z"/>
      <path d="M41.25 32.05a1.012 1.012 0 01-.8 1.2l-15.5 3.9a1.086 1.086 0 01-1.2-.7 1.028 1.028 0 01.7-1.2l15.5-3.9a1.146 1.146 0 011.3.7z" fill="#16324F"/>
      <path d="M10.65 35.25a3 3 0 11-3 3 2.946 2.946 0 013-3zM25.35 39.15l2.2-.6a3.116 3.116 0 01-3 2.7 2.925 2.925 0 01-2.9-3 3.553 3.553 0 01.2-1 2.865 2.865 0 003.5 1.9zM45.55 27.25a7 7 0 010 14 7.127 7.127 0 01-6.8-5.5l2.1-.5a2.937 2.937 0 001.8-1.3v.3a2.992 2.992 0 10.5-1.7 3.4 3.4 0 00-.1-1 2.869 2.869 0 00-2.5-2.2 6.722 6.722 0 015-2.1z" fill="#16324f"/>
      <path d="M31.65 16.25v12h-22v-12h22zm-2 6v-2h-2v2h2zm-4 0v-2h-2v2h2zm-4 0v-2h-2v2h2zm-4 0v-2h-2v2h2z" fill="#6bddbf"/>
      <path d="M59.65 30.25v6a1.9 1.9 0 01-2.1 1.9h-3.9a8.924 8.924 0 01-12 4.1 9.059 9.059 0 01-4.8-6l-7.2 1.8v.2a5 5 0 01-10 0h-4a5 5 0 01-10 0h-3.4a2.006 2.006 0 01-2-2 2.92 2.92 0 01.2-.9l3.3-6.5a.961.961 0 01.9-.6h.7a9.978 9.978 0 01-1.7-6c0-4.5 2.2-8 5-8v-6h-1a.945.945 0 01-1-1v-4a.945.945 0 011-1h10a.945.945 0 011 1v4a.945.945 0 01-1 1h-1v6h15v-6h-1a.945.945 0 01-1-1 6.957 6.957 0 017-7h16a6.957 6.957 0 017 7 .945.945 0 01-1 1h-1v20a2.006 2.006 0 012 2zm-2 6v-6h-3.9a8.937 8.937 0 01.7 6h3.2zm-25.9-30h25.8a5.115 5.115 0 00-4.9-4h-16a5.03 5.03 0 00-4.9 4zm23.9 22v-20h-22v20h5.3a9.006 9.006 0 0112.7-.7 4.62 4.62 0 01.7.7h3.3zm-3.1 6a6.957 6.957 0 00-7-7 6.722 6.722 0 00-5 2.1 2.869 2.869 0 012.5 2.2 3.4 3.4 0 01.1 1 3.085 3.085 0 11-.5 1.7v-.3a2.937 2.937 0 01-1.8 1.3l-2.1.5a7.127 7.127 0 006.8 5.5 6.957 6.957 0 007-7zm-5.9 0a1 1 0 10-1 1 .945.945 0 001-1zm-6.2-1a1.012 1.012 0 00.8-1.2 1.146 1.146 0 00-1.3-.7l-15.5 3.9a1.028 1.028 0 00-.7 1.2 1.086 1.086 0 001.2.7zm-16.4 0l12.2-3h-31l-3 6h3.7a5.067 5.067 0 016.6-2.6 4.738 4.738 0 012.6 2.6h4.9a4.829 4.829 0 014-3zm7.6-5v-12h-22v12h22zm-4.1 10.3l-2.2.6a2.865 2.865 0 01-3.5-1.9 3.553 3.553 0 00-.2 1 2.925 2.925 0 002.9 3 3.116 3.116 0 003-2.7zm-10.9-32.3v-2h-8v2h8zm-2 8v-6h-4v6h4zm-1 24a3 3 0 10-3 3 2.946 2.946 0 003-3zm-6-10.4v-11.2c-1.1.8-2 2.9-2 5.6s.9 4.8 2 5.6z" fill="#dcf4ee"/>
      <path d="M57.65 30.25v6h-3.2a8.937 8.937 0 00-.7-6h3.9z" fill="#45c4a7"/>
      <path d="M57.55 6.25h-25.8a5.03 5.03 0 014.9-4h16a5.115 5.115 0 014.9 4z" fill="#3b9b81"/>
      <path d="M55.65 8.25v20h-3.3a4.62 4.62 0 00-.7-.7 9.006 9.006 0 00-12.7.7h-5.3v-20h22zm-4 13v-10a.945.945 0 00-1-1h-12a.945.945 0 00-1 1v10a.945.945 0 001 1h12a1 1 0 001-1z" fill="#45c4a7"/>
      <path d="M51.65 11.25v10a1 1 0 01-1 1h-12a.945.945 0 01-1-1v-10a.945.945 0 011-1h12a.945.945 0 011 1zm-2 9v-8h-10v8h10z" fill="#dcf4ee"/>
      <path d="M36.25 30.25l-12.2 3a4.829 4.829 0 00-4 3h-4.9a4.738 4.738 0 00-2.6-2.6 5.067 5.067 0 00-6.6 2.6h-3.7l3-6h31zM27.65 20.25h2v2h-2z" fill="#45c4a7"/>
      <path fill="#fcfcfc" d="M23.65 20.25h2v2h-2z"/>
      <path fill="#45c4a7" d="M19.65 20.25h2v2h-2z"/>
      <path fill="#fcfcfc" d="M15.65 20.25h2v2h-2z"/>
      <path fill="#226d5b" d="M8.65 4.25h8v2h-8zM10.65 8.25h4v6h-4z"/>
      <path d="M7.65 16.65v11.2c-1.1-.8-2-2.9-2-5.6s.9-4.8 2-5.6z" fill="#45c4a7"/>
      <path d="M51.65 21.25v-10a.945.945 0 00-1-1h-12a.945.945 0 00-1 1v10a.945.945 0 001 1h12a1 1 0 001-1z" fill="none" stroke="#226d5b" stroke-miterlimit="10" stroke-width=".25"/>
      <path fill="none" stroke="#226d5b" stroke-miterlimit="10" stroke-width=".25" d="M39.65 12.25h10v8h-10z"/>
      <path d="M59.65 36.25v-6a2.006 2.006 0 00-2-2v-20h1a.945.945 0 001-1 6.957 6.957 0 00-7-7h-16a6.957 6.957 0 00-7 7 .945.945 0 001 1h1v6h-15v-6h1a.945.945 0 001-1v-4a.945.945 0 00-1-1h-10a.945.945 0 00-1 1v4a.945.945 0 001 1h1v6c-2.8 0-5 3.5-5 8a9.978 9.978 0 001.7 6h-.7a.961.961 0 00-.9.6l-3.3 6.5a2.92 2.92 0 00-.2.9 2.006 2.006 0 002 2h3.4a5 5 0 0010 0h4a5 5 0 0010 0v-.2l7.2-1.8a9.059 9.059 0 004.8 6 8.924 8.924 0 0012-4.1h3.9a1.9 1.9 0 002.1-1.9z" fill="none" stroke="#226d5b" stroke-miterlimit="10" stroke-width=".5"/>
      <path d="M38.75 35.75l2.1-.5a2.937 2.937 0 001.8-1.3v.3a2.992 2.992 0 10.5-1.7 3.4 3.4 0 00-.1-1 2.869 2.869 0 00-2.5-2.2 6.722 6.722 0 015-2.1 7 7 0 010 14 7.127 7.127 0 01-6.8-5.5z" fill="none" stroke="#226d5b" stroke-miterlimit="10" stroke-width=".25"/>
      <path d="M39.95 31.35a1.146 1.146 0 011.3.7 1.012 1.012 0 01-.8 1.2l-15.5 3.9a1.086 1.086 0 01-1.2-.7 1.028 1.028 0 01.7-1.2zM45.65 33.25a1 1 0 11-1 1 .945.945 0 011-1zM21.65 38.25a3.553 3.553 0 01.2-1 2.865 2.865 0 003.5 1.9l2.2-.6a3.116 3.116 0 01-3 2.7 2.925 2.925 0 01-2.9-3zM7.65 38.25a3 3 0 113 3 2.946 2.946 0 01-3-3z" fill="none" stroke="#226d5b" stroke-miterlimit="10" stroke-width=".25"/>
      <path d="M5.25 30.25h31l-12.2 3a4.829 4.829 0 00-4 3h-4.9a4.738 4.738 0 00-2.6-2.6 5.067 5.067 0 00-6.6 2.6h-3.7zM7.65 27.85c-1.1-.8-2-2.9-2-5.6s.9-4.8 2-5.6v11.2zM8.65 4.25h8v2h-8zM10.65 8.25h4v6h-4zM9.65 16.25h22v12h-22zM57.55 6.25h-25.8a5.03 5.03 0 014.9-4h16a5.115 5.115 0 014.9 4zM55.65 8.25v20h-3.3a4.62 4.62 0 00-.7-.7 9.006 9.006 0 00-12.7.7h-5.3v-20h22zM57.65 36.25h-3.2a8.937 8.937 0 00-.7-6h3.9v6z" fill="none" stroke="#226d5b" stroke-miterlimit="10" stroke-width=".25"/>
    </g>
  </g>
</svg>
