<svg xmlns="http://www.w3.org/2000/svg" viewBox="0 0 57.35 44.19">
  <defs>
    <pattern id="a" data-name="USGS 19 Land Inundation" x="-.751" y="-1.462" width="72" height="72" patternUnits="userSpaceOnUse" viewBox="0 0 72 72">
      <path fill="none" d="M0 0h72v72H0z"/>
      <path fill="none" stroke="#231f20" stroke-width=".3" stroke-dasharray="2 2" d="M71 71h73.439M71 67h73.439M71 63h73.439M71 59h73.439M71 55h73.439M71 51h73.439M71 47h73.439M71 43h73.439M71 39h73.439M71 35h73.439M71 31h73.439M71 27h73.439M71 23h73.439M71 19h73.439M71 15h73.439M71 11h73.439M71 7h73.439M71 3h73.439M-1 71h73.439M-1 67h73.439M-1 63h73.439M-1 59h73.439M-1 55h73.439M-1 51h73.439M-1 47h73.439M-1 43h73.439M-1 39h73.439M-1 35h73.439M-1 31h73.439M-1 27h73.439M-1 23h73.439M-1 19h73.439M-1 15h73.439M-1 11h73.439M-1 7h73.439M-1 3h73.439M1.039 69H74.48M1.039 65H74.48M1.039 61H74.48M1.039 57H74.48M1.039 53H74.48M1.039 49H74.48M1.039 45H74.48M1.039 41H74.48M1.039 37H74.48M1.039 33H74.48M1.039 29H74.48M1.039 25H74.48M1.039 21H74.48M1.039 17H74.48M1.039 13H74.48M1.039 9H74.48M1.039 5H74.48M1.039 1H74.48M-73 71H.44M-73 67H.44M-73 63H.44M-73 59H.44M-73 55H.44M-73 51H.44M-73 47H.44M-73 43H.44M-73 39H.44M-73 35H.44M-73 31H.44M-73 27H.44M-73 23H.44M-73 19H.44M-73 15H.44M-73 11H.44M-73 7H.44M-73 3H.44M-70.961 69H2.48M-70.961 65H2.48M-70.961 61H2.48M-70.961 57H2.48M-70.961 53H2.48M-70.961 49H2.48M-70.961 45H2.48M-70.961 41H2.48M-70.961 37H2.48M-70.961 33H2.48M-70.961 29H2.48M-70.961 25H2.48M-70.961 21H2.48M-70.961 17H2.48M-70.961 13H2.48M-70.961 9H2.48M-70.961 5H2.48M-70.961 1H2.48"/>
    </pattern>
    <pattern id="b" data-name="New Pattern Swatch 426" width="300" height="300" patternTransform="translate(8.257 7.781) scale(0.011)" patternUnits="userSpaceOnUse" viewBox="0 0 300 300">
      <path fill="none" d="M0 0h300v300H0z"/>
      <path fill="#e2fcd2" d="M0 0h300v300H0z"/>
      <path d="M300 150A150 150 0 01150 0 150 150 0 010 150a150 150 0 01150 150 150 150 0 01150-150z" fill="none"/>
      <path d="M0 150a150 150 0 00150 150A150 150 0 000 150zM300 150a150 150 0 00-150 150 150 150 0 00150-150zM150 0A150 150 0 000 150 150 150 0 00150 0zM300 150A150 150 0 00150 0a150 150 0 00150 150z" fill="#159500"/>
    </pattern>
  </defs>
  <g data-name="Layer 1">
    <path fill="#001106" d="M46.38 20.693h-3.3v1.65h3.3v9.89h-8.25v-19.78h8.25v8.24z" opacity=".41"/>
    <path fill="#18aa9f" d="M46.38 20.193h-3.3v1.65h3.3v9.89h-8.25v-19.78h8.25v8.24z"/>
    <path fill="#000c0c" d="M10.14 20.368v-8.2h8.28v19.78h-8.28v-9.89h3.28v-1.65h-3.3l.02-.04z" opacity=".41"/>
    <path fill="#0fa5a5" d="M10.14 19.868v-8.2h8.28v19.78h-8.28v-9.89h3.28v-1.65h-3.3l.02-.04z"/>
    <g data-name="&lt;Group&gt;">
      <g opacity=".41" style="mix-blend-mode:multiply">
        <path d="M49.7 32.021V8.938H6.84v23.08h1.65V10.591h11.54v9.89h16.49v-9.89h11.54v21.43h1.64zm1.65 1.49a.157.157 0 01-.03.16 6.608 6.608 0 01-.89 0 3.844 3.844 0 00-.48 0H38.17v1.65l6.94-.04c.27-.09-.17.42-.41.74a1.2 1.2 0 00-.26.75 10.5 10.5 0 01-1.12.2h-5.15v1.65l5.98-.1a11.15 11.15 0 01.31 1.52 11.273 11.273 0 01-1.57.23H31c-.15.28-.32.57-.52.88a10.249 10.249 0 01-.62.85l-.39.4a6.3 6.3 0 01-1.24.81 5.165 5.165 0 01-4.22.48 2.929 2.929 0 01-.87-.51 6.365 6.365 0 01-2-2c-.1-.13-.19-.27-.28-.41-.13.17-1.95 2.29-2.61 2.39a4.9 4.9 0 01-2.12.54 7.867 7.867 0 01-1.61-.07 5.424 5.424 0 01-1.34-.45 6.2 6.2 0 01-1-.58 3.774 3.774 0 01-.71-.73 4.185 4.185 0 01-.4-.68 5.872 5.872 0 01-.37-.9H6.84v-6.59H.249v-4.95h4.95v-20.9l.16-.23a9.107 9.107 0 016.43-3.57v-.83a2.475 2.475 0 012.47-2.47h4.95a2.478 2.478 0 012.47 2.42v.83h8.24v-.83a2.465 2.465 0 012.5-2.42h9.87a2.478 2.478 0 012.47 2.42v.88a9.134 9.134 0 016.43 3.58l.16.22v25.66zM7.96 7.301h40.63a7.5 7.5 0 00-4.65-1.65H12.61a7.5 7.5 0 00-4.65 1.65zm38.46 24.72v-9.89h-3.3v-1.65h3.3v-8.243h-8.25v19.78h8.25zm-3.29-28.02v-.83a.824.824 0 00-.82-.82h-9.92a.824.824 0 00-.82.82v.83h11.56zm-6.61 34.62v-4.95h-6.671a5.676 5.676 0 011.67 4.95h5zm0-6.59v-9.9H20.03v9.86h1.65v-8.24h13.19v8.28h1.65zm-3.3-.01v-6.59h-9.89v6.59h9.89zm-3.45 6.88a4.139 4.139 0 00-5.09-5.09 4.059 4.059 0 00-2.85 2.85 4.139 4.139 0 005.09 5.09 4.059 4.059 0 002.85-2.85zm-8-5.24h-1.83a6.43 6.43 0 01.92 1.16v.017a5.8 5.8 0 01.91-1.177zm-1.76-29.66v-.83a.824.824 0 00-.82-.82h-4.95a.824.824 0 00-.82.82v.83h6.59zm-.13 34.9a4.139 4.139 0 00-5.09-5.09 4.059 4.059 0 00-2.85 2.85 4.139 4.139 0 005.09 5.09 4.059 4.059 0 002.85-2.85zm-1.46-6.88V12.238h-8.28v8.2l-.02.04h3.3v1.65h-3.28v9.89h8.28zm-6.54 1.65H8.49v4.9h1.72a5.672 5.672 0 01-.07-.82 5.747 5.747 0 011.74-4.08zm-6.68-1.65v-1.65H1.9v1.65h3.3z" fill="#435b55"/>
        <path fill="#003312" d="M49.7 8.94v23.08h-1.64V10.59H36.52v9.89H20.03v-9.89H8.49v21.43H6.84V8.94H49.7z"/>
        <path d="M48.59 7.301H7.96a7.5 7.5 0 014.65-1.65h31.33a7.5 7.5 0 014.65 1.65z" fill="#355b00"/>
        <path fill="#666" d="M46.42 22.13v9.89h-8.25V12.24h8.25v8.24h-3.3v1.65h3.3z"/>
        <path d="M43.13 3.171v.83H31.57v-.83a.824.824 0 01.82-.82h9.92a.824.824 0 01.82.82z" fill="#5e0000"/>
        <path d="M36.52 33.671v4.95h-5a5.676 5.676 0 00-1.67-4.95h6.67z" fill="#00002d"/>
        <path fill="#003312" d="M36.52 32.02v.01h-1.65v-8.28H21.68v8.24h-1.65v-9.86h16.49v9.89z"/>
        <path fill="#666" d="M33.22 25.43v6.59h-9.89v-6.59h9.89z"/>
        <path d="M29.77 36.701a4.108 4.108 0 010 2.2 4.059 4.059 0 01-2.85 2.85 4.139 4.139 0 01-5.09-5.09 4.059 4.059 0 012.85-2.85 4.142 4.142 0 015.09 2.89z"/>
        <path d="M19.94 33.661h1.83a5.8 5.8 0 00-.91 1.18v-.02a6.43 6.43 0 00-.92-1.16z" fill="#00002d"/>
        <path d="M20.01 3.171v.83h-6.59v-.83a.824.824 0 01.82-.82h4.95a.824.824 0 01.82.82z" fill="#5e0000"/>
        <path d="M19.88 36.701a4.108 4.108 0 010 2.2 4.059 4.059 0 01-2.85 2.85 4.139 4.139 0 01-5.09-5.09 4.059 4.059 0 012.85-2.85 4.142 4.142 0 015.09 2.89z"/>
        <path fill="#666" d="M18.42 12.24v19.78h-8.28v-9.89h3.28v-1.65h-3.3l.02-.04v-8.2h8.28z"/>
        <path d="M8.49 33.671h3.39a5.747 5.747 0 00-1.74 4.08 5.672 5.672 0 00.07.82H8.49v-4.9z" fill="#00002d"/>
        <path d="M51.349 33.511V7.851l-.16-.22a9.134 9.134 0 00-6.43-3.58v-.88a2.478 2.478 0 00-2.47-2.42h-9.87a2.465 2.465 0 00-2.5 2.42v.83h-8.24v-.83a2.478 2.478 0 00-2.47-2.42h-4.95a2.475 2.475 0 00-2.47 2.47v.83a9.107 9.107 0 00-6.43 3.57l-.16.23v20.9H.249v4.95h6.59v6.59h3.86a5.872 5.872 0 00.37.9 4.185 4.185 0 00.4.68 3.774 3.774 0 00.71.73 6.2 6.2 0 001 .58 5.424 5.424 0 001.34.45 7.867 7.867 0 001.61.07 4.9 4.9 0 002.12-.54c.66-.1 2.48-2.22 2.61-2.39.09.14.18.28.28.41a6.365 6.365 0 002 2 2.929 2.929 0 00.87.51 5.165 5.165 0 004.22-.48 6.3 6.3 0 001.24-.81l.39-.4a10.249 10.249 0 00.62-.85c.2-.31.37-.6.52-.88h11.89a11.273 11.273 0 001.57-.23 11.15 11.15 0 00-.31-1.52l-5.98.1v-1.65h5.15a10.5 10.5 0 001.12-.2 1.2 1.2 0 01.26-.75c.24-.32.68-.83.41-.74l-6.94.04v-1.65h11.78a3.844 3.844 0 01.48 0 6.608 6.608 0 00.89 0 .157.157 0 00.03-.16z" fill="none" stroke="#000" stroke-miterlimit="10" stroke-width=".5"/>
        <path fill="none" stroke="#000" stroke-miterlimit="10" stroke-width=".25" d="M1.9 30.37h3.3v1.65H1.9zM31.57 3.171a.824.824 0 01.82-.82h9.92a.824.824 0 01.82.82v.83H31.57v-.83zM13.42 3.171a.824.824 0 01.82-.82h4.95a.824.824 0 01.82.82v.83h-6.59v-.83zM12.61 5.651h31.33a7.5 7.5 0 014.65 1.65H7.96a7.5 7.5 0 014.65-1.65zM10.14 37.751a5.672 5.672 0 00.07.82H8.49v-4.9h3.39a5.747 5.747 0 00-1.74 4.08zM10.14 20.44v-8.2h8.28v19.78h-8.28v-9.89h3.28v-1.65h-3.3l.02-.04zM17.03 41.751a4.139 4.139 0 01-5.09-5.09 4.059 4.059 0 012.85-2.85 4.139 4.139 0 015.09 5.09 4.059 4.059 0 01-2.85 2.85zM20.86 34.821a6.43 6.43 0 00-.92-1.16h1.83a5.8 5.8 0 00-.91 1.18v-.02zM26.92 41.751a4.139 4.139 0 01-5.09-5.09 4.059 4.059 0 012.85-2.85 4.139 4.139 0 015.09 5.09 4.059 4.059 0 01-2.85 2.85zM23.33 32.01v-6.58h9.89v6.59h-9.89v-.01zM36.52 38.621h-5a5.676 5.676 0 00-1.67-4.95h6.67v4.95z"/>
        <path fill="none" stroke="#000" stroke-miterlimit="10" stroke-width=".25" d="M36.52 32.03h-1.65v-8.28H21.68v8.24h-1.65v-9.86h16.49v9.9zM46.42 20.48h-3.3v1.65h3.3v9.89h-8.25V12.24h8.25v8.24z"/>
        <path fill="none" stroke="#000" stroke-miterlimit="10" stroke-width=".25" d="M49.7 32.02h-1.64V10.59H36.52v9.89H20.03v-9.89H8.49v21.43H6.84V8.94H49.7v23.08zM49.7 32.02h.02"/>
      </g>
      <path d="M49.7 31.521V8.438H6.84v23.08h1.65V10.091h11.54v9.89h16.49v-9.89h11.54v21.43h1.64zm1.65 1.49a.157.157 0 01-.03.16 6.608 6.608 0 01-.89 0 3.844 3.844 0 00-.48 0H38.17v1.65l6.94-.04c.27-.09-.17.42-.41.74a1.2 1.2 0 00-.26.75 10.5 10.5 0 01-1.12.2h-5.15v1.65l5.98-.1a11.15 11.15 0 01.31 1.52 11.273 11.273 0 01-1.57.23H31c-.15.28-.32.57-.52.88a10.249 10.249 0 01-.62.85l-.39.4a6.3 6.3 0 01-1.24.81 5.165 5.165 0 01-4.22.48 2.929 2.929 0 01-.87-.51 6.365 6.365 0 01-2-2c-.1-.13-.19-.27-.28-.41-.13.17-1.95 2.29-2.61 2.39a4.9 4.9 0 01-2.12.54 7.867 7.867 0 01-1.61-.07 5.424 5.424 0 01-1.34-.45 6.2 6.2 0 01-1-.58 3.774 3.774 0 01-.71-.73 4.185 4.185 0 01-.4-.68 5.872 5.872 0 01-.37-.9H6.84v-6.59H.249v-4.95h4.95v-20.9l.16-.23a9.107 9.107 0 016.43-3.57v-.83a2.475 2.475 0 012.47-2.47h4.95a2.478 2.478 0 012.47 2.42v.83h8.24v-.83a2.465 2.465 0 012.5-2.42h9.87a2.478 2.478 0 012.47 2.42v.88a9.134 9.134 0 016.43 3.58l.16.22v25.66zM7.96 6.801h40.63a7.5 7.5 0 00-4.65-1.65H12.61a7.5 7.5 0 00-4.65 1.65zm38.46 24.72v-9.89h-3.3v-1.65h3.3v-8.243h-8.25v19.78h8.25zm-3.29-28.02v-.83a.824.824 0 00-.82-.82h-9.92a.824.824 0 00-.82.82v.83h11.56zm-6.61 34.62v-4.95h-6.671a5.676 5.676 0 011.67 4.95h5zm0-6.59v-9.9H20.03v9.86h1.65v-8.24h13.19v8.28h1.65zm-3.3-.01v-6.59h-9.89v6.59h9.89zm-3.45 6.88a4.139 4.139 0 00-5.09-5.09 4.059 4.059 0 00-2.85 2.85 4.139 4.139 0 005.09 5.09 4.059 4.059 0 002.85-2.85zm-8-5.24h-1.83a6.43 6.43 0 01.92 1.16v.017a5.8 5.8 0 01.91-1.177zm-1.76-29.66v-.83a.824.824 0 00-.82-.82h-4.95a.824.824 0 00-.82.82v.83h6.59zm-.13 34.9a4.139 4.139 0 00-5.09-5.09 4.059 4.059 0 00-2.85 2.85 4.139 4.139 0 005.09 5.09 4.059 4.059 0 002.85-2.85zm-1.46-6.88V11.738h-8.28v8.2l-.02.04h3.3v1.65h-3.28v9.89h8.28zm-6.54 1.65H8.49v4.9h1.72a5.672 5.672 0 01-.07-.82 5.747 5.747 0 011.74-4.08zm-6.68-1.65v-1.65H1.9v1.65h3.3z" fill="#dcf4ee"/>
      <path fill="#62ccab" d="M49.7 8.44v23.08h-1.64V10.09H36.52v9.89H20.03v-9.89H8.49v21.43H6.84V8.44H49.7z"/>
      <path d="M48.59 6.801H7.96a7.5 7.5 0 014.65-1.65h31.33a7.5 7.5 0 014.65 1.65z" fill="#cef490"/>
      <path fill="url(#a)" d="M46.42 21.63v9.89h-8.25V11.74h8.25v8.24h-3.3v1.65h3.3z"/>
      <path d="M43.13 2.671v.83H31.57v-.83a.824.824 0 01.82-.82h9.92a.824.824 0 01.82.82z" fill="#f79737"/>
      <path d="M36.52 33.171v4.95h-5a5.676 5.676 0 00-1.67-4.95h6.67z" fill="#397dc6"/>
      <path fill="#62ccab" d="M36.52 31.52v.01h-1.65v-8.28H21.68v8.24h-1.65v-9.86h16.49v9.89z"/>
      <path fill="url(#b)" d="M33.22 24.93v6.59h-9.89v-6.59h9.89z"/>
      <path d="M29.77 36.201a4.108 4.108 0 010 2.2 4.059 4.059 0 01-2.85 2.85 4.139 4.139 0 01-5.09-5.09 4.059 4.059 0 012.85-2.85 4.142 4.142 0 015.09 2.89z" fill="#305a7f"/>
      <path d="M19.94 33.161h1.83a5.8 5.8 0 00-.91 1.18v-.02a6.43 6.43 0 00-.92-1.16z" fill="#397dc6"/>
      <path d="M20.01 2.671v.83h-6.59v-.83a.824.824 0 01.82-.82h4.95a.824.824 0 01.82.82z" fill="#f79737"/>
      <path d="M19.88 36.201a4.108 4.108 0 010 2.2 4.059 4.059 0 01-2.85 2.85 4.139 4.139 0 01-5.09-5.09 4.059 4.059 0 012.85-2.85 4.142 4.142 0 015.09 2.89z" fill="#305a7f"/>
      <path fill="url(#a)" d="M18.42 11.74v19.78h-8.28v-9.89h3.28v-1.65h-3.3l.02-.04v-8.2h8.28z"/>
      <path d="M8.49 33.171h3.39a5.747 5.747 0 00-1.74 4.08 5.672 5.672 0 00.07.82H8.49v-4.9z" fill="#397dc6"/>
      <path d="M51.349 33.011V7.351l-.16-.22a9.134 9.134 0 00-6.43-3.58v-.88a2.478 2.478 0 00-2.47-2.42h-9.87a2.465 2.465 0 00-2.5 2.42v.83h-8.24v-.83a2.478 2.478 0 00-2.47-2.42h-4.95a2.475 2.475 0 00-2.47 2.47v.83a9.107 9.107 0 00-6.43 3.57l-.16.23v20.9H.249v4.95h6.59v6.59h3.86a5.872 5.872 0 00.37.9 4.185 4.185 0 00.4.68 3.774 3.774 0 00.71.73 6.2 6.2 0 001 .58 5.424 5.424 0 001.34.45 7.867 7.867 0 001.61.07 4.9 4.9 0 002.12-.54c.66-.1 2.48-2.22 2.61-2.39.09.14.18.28.28.41a6.365 6.365 0 002 2 2.929 2.929 0 00.87.51 5.165 5.165 0 004.22-.48 6.3 6.3 0 001.24-.81l.39-.4a10.249 10.249 0 00.62-.85c.2-.31.37-.6.52-.88h11.89a11.273 11.273 0 001.57-.23 11.15 11.15 0 00-.31-1.52l-5.98.1v-1.65h5.15a10.5 10.5 0 001.12-.2 1.2 1.2 0 01.26-.75c.24-.32.68-.83.41-.74l-6.94.04v-1.65h11.78a3.844 3.844 0 01.48 0 6.608 6.608 0 00.89 0 .157.157 0 00.03-.16z" fill="none" stroke="#52776d" stroke-miterlimit="10" stroke-width=".5"/>
      <path fill="none" stroke="#52776d" stroke-miterlimit="10" stroke-width=".25" d="M1.9 29.87h3.3v1.65H1.9zM31.57 2.671a.824.824 0 01.82-.82h9.92a.824.824 0 01.82.82v.83H31.57v-.83zM13.42 2.671a.824.824 0 01.82-.82h4.95a.824.824 0 01.82.82v.83h-6.59v-.83zM12.61 5.151h31.33a7.5 7.5 0 014.65 1.65H7.96a7.5 7.5 0 014.65-1.65zM10.14 37.251a5.672 5.672 0 00.07.82H8.49v-4.9h3.39a5.747 5.747 0 00-1.74 4.08zM10.14 19.94v-8.2h8.28v19.78h-8.28v-9.89h3.28v-1.65h-3.3l.02-.04zM17.03 41.251a4.139 4.139 0 01-5.09-5.09 4.059 4.059 0 012.85-2.85 4.139 4.139 0 015.09 5.09 4.059 4.059 0 01-2.85 2.85zM20.86 34.321a6.43 6.43 0 00-.92-1.16h1.83a5.8 5.8 0 00-.91 1.18v-.02zM26.92 41.251a4.139 4.139 0 01-5.09-5.09 4.059 4.059 0 012.85-2.85 4.139 4.139 0 015.09 5.09 4.059 4.059 0 01-2.85 2.85zM23.33 31.51v-6.58h9.89v6.59h-9.89v-.01zM36.52 38.121h-5a5.676 5.676 0 00-1.67-4.95h6.67v4.95z"/>
      <path fill="none" stroke="#52776d" stroke-miterlimit="10" stroke-width=".25" d="M36.52 31.53h-1.65v-8.28H21.68v8.24h-1.65v-9.86h16.49v9.9zM46.42 19.98h-3.3v1.65h3.3v9.89h-8.25V11.74h8.25v8.24z"/>
      <path fill="none" stroke="#52776d" stroke-miterlimit="10" stroke-width=".25" d="M49.7 31.52h-1.64V10.09H36.52v9.89H20.03v-9.89H8.49v21.43H6.84V8.44H49.7v23.08zM49.7 31.52h.02"/>
    </g>
    <path d="M21.68 17.371h13.19v-6.62H21.68v6.62zm1.65-4.95h9.89v3.33h-9.89v-3.33z" fill="#666" opacity=".41"/>
    <path d="M21.68 16.871h13.19v-6.62H21.68v6.62zm1.65-4.95h9.89v3.33h-9.89v-3.33z" fill="#fff"/>
    <path d="M44.76 14.081h-4.95v4.95h4.95v-4.95zm-1.65 3.3h-1.69v-1.63h1.65v1.65z" fill="#666" opacity=".41"/>
    <path d="M44.76 13.581h-4.95v4.95h4.95v-4.95zm-1.65 3.3h-1.69v-1.63h1.65v1.65z" fill="#fff"/>
    <path d="M16.74 14.081h-4.95v4.95h4.95v-4.95zm-1.65 3.3h-1.67v-1.63h1.65v1.65z" fill="#666" opacity=".41"/>
    <path d="M16.74 13.581h-4.95v4.95h4.95v-4.95zm-1.65 3.3h-1.67v-1.63h1.65v1.65z" fill="#fff"/>
    <g data-name="&lt;Group&gt;">
      <g opacity=".41" style="mix-blend-mode:multiply">
        <path fill="#164f3d" d="M51.3 30.37h5.8v2.76h-5.8z"/>
        <path fill="none" stroke="#000" stroke-miterlimit="10" stroke-width=".5" d="M51.3 30.37h5.8v2.76h-5.8z"/>
      </g>
      <path fill="#afe8d6" d="M51.3 29.87h5.8v2.76h-5.8z"/>
      <path fill="none" stroke="#52776d" stroke-miterlimit="10" stroke-width=".5" d="M51.3 29.87h5.8v2.76h-5.8z"/>
    </g>
    <g data-name="&lt;Group&gt;">
      <g opacity=".41" style="mix-blend-mode:multiply">
        <path d="M49.449 38.001a.815.815 0 110 1.63v.007a.82.82 0 010-1.637z"/>
        <path d="M53.1 37.831a3.846 3.846 0 010 2.02 3.744 3.744 0 01-2.62 2.62 3.807 3.807 0 01-4.67-2.66 3.651 3.651 0 010-2.02 3.748 3.748 0 012.61-2.62 3.818 3.818 0 014.68 2.66zm-1.18.98a2.47 2.47 0 10-2.47 2.47 2.475 2.475 0 002.47-2.47z"/>
        <path d="M49.449 33.531a5.205 5.205 0 11-5.2 5.2 5.2 5.2 0 015.2-5.2zm3.65 6.32a3.806 3.806 0 00-4.68-4.68 3.748 3.748 0 00-2.61 2.62 3.651 3.651 0 000 2.02 3.807 3.807 0 004.67 2.66 3.744 3.744 0 002.621-2.62z" fill="#435b55"/>
        <path d="M49.449 36.338a2.47 2.47 0 11-2.47 2.47 2.475 2.475 0 012.47-2.47zm.82 2.48a.82.82 0 10-.82.82v-.01a.815.815 0 00.821-.807z"/>
        <path d="M49.449 33.531a5.205 5.205 0 105.21 5.2 5.2 5.2 0 00-5.21-5.2z" fill="none" stroke="#000" stroke-miterlimit="10" stroke-width=".5"/>
        <path d="M50.48 42.471a3.807 3.807 0 01-4.67-2.66 3.651 3.651 0 010-2.02 3.748 3.748 0 012.61-2.62 3.806 3.806 0 014.68 4.68 3.744 3.744 0 01-2.62 2.62z" fill="none" stroke="#000" stroke-miterlimit="10" stroke-width=".25"/>
      </g>
      <path d="M49.449 37.501a.815.815 0 110 1.63v.007a.82.82 0 010-1.637z" fill="#305a7f"/>
      <path d="M53.1 37.331a3.846 3.846 0 010 2.02 3.744 3.744 0 01-2.62 2.62 3.807 3.807 0 01-4.67-2.66 3.651 3.651 0 010-2.02 3.748 3.748 0 012.61-2.62 3.818 3.818 0 014.68 2.66zm-1.18.98a2.47 2.47 0 10-2.47 2.47 2.475 2.475 0 002.47-2.47z" fill="#305a7f"/>
      <path d="M49.449 33.031a5.205 5.205 0 11-5.2 5.2 5.2 5.2 0 015.2-5.2zm3.65 6.32a3.806 3.806 0 00-4.68-4.68 3.748 3.748 0 00-2.61 2.62 3.651 3.651 0 000 2.02 3.807 3.807 0 004.67 2.66 3.744 3.744 0 002.621-2.62z" fill="#dcf4ee"/>
      <path d="M49.449 35.838a2.47 2.47 0 11-2.47 2.47 2.475 2.475 0 012.47-2.47zm.82 2.48a.82.82 0 10-.82.82v-.01a.815.815 0 00.821-.807z"/>
      <path d="M49.449 33.031a5.205 5.205 0 105.21 5.2 5.2 5.2 0 00-5.21-5.2z" fill="none" stroke="#52776d" stroke-miterlimit="10" stroke-width=".5"/>
      <path d="M50.48 41.971a3.807 3.807 0 01-4.67-2.66 3.651 3.651 0 010-2.02 3.748 3.748 0 012.61-2.62 3.806 3.806 0 014.68 4.68 3.744 3.744 0 01-2.62 2.62z" fill="none" stroke="#52776d" stroke-miterlimit="10" stroke-width=".25"/>
    </g>
    <path d="M15.91 35.511a2.48 2.48 0 10.02 0h-.02zm0 3.3a.82.82 0 11.82-.82.82.82 0 01-.82.81v.01z" opacity=".41"/>
    <path d="M15.91 35.011a2.48 2.48 0 10.02 0h-.02zm0 3.3a.82.82 0 11.82-.82.82.82 0 01-.82.81v.01z"/>
    <path d="M25.8 35.511a2.47 2.47 0 102.47 2.47 2.47 2.47 0 00-2.47-2.47zm0 3.3a.82.82 0 11.82-.82.82.82 0 01-.82.81v.01z" opacity=".41"/>
    <path d="M25.8 35.011a2.47 2.47 0 102.47 2.47 2.47 2.47 0 00-2.47-2.47zm0 3.3a.82.82 0 11.82-.82.82.82 0 01-.82.81v.01z"/>
  </g>
</svg>
