<svg data-name="Layer 1" xmlns="http://www.w3.org/2000/svg" viewBox="0 0 98.74 75.641">
  <g data-name="Layer 1">
    <path fill="#164f3d" d="M88.56 56.211h9.93v.5h-9.93z"/>
    <path fill="#afe8d6" d="M88.56 51.941h9.93v4.27h-9.93zM88.56 51.441h9.93v.5h-9.93z"/>
    <path d="M94.28 65.88a2.09 2.09 0 01-.01.25v-.25a10.4 10.4 0 00-.1-1.37 8.935 8.935 0 01.11 1.37z" fill="#dcf4ee"/>
    <path d="M94.27 66.13a2.09 2.09 0 01.01.25 9.226 9.226 0 01-.11 1.4 9.191 9.191 0 00.1-1.39v-.26z" fill="#435b55"/>
    <path d="M94.27 65.89v.24a.035.035 0 01-.01.02c0-.25-.02-.49-.04-.73.02.15.04.31.05.46v.01z" fill="#dcf4ee"/>
    <path d="M94.27 66.13v.21a1.21 1.21 0 00-.01-.19.035.035 0 00.01-.02z" fill="#dcf4ee"/>
    <path d="M94.27 66.39a9.191 9.191 0 01-.1 1.39 9.436 9.436 0 01-.3 1.3 8.286 8.286 0 01-.31.83 8.958 8.958 0 01-1.91 2.83c-.1.1-.21.2-.31.3a.038.038 0 01-.02.02 9.274 9.274 0 01-1 .78 8.977 8.977 0 01-2.37 1.15 9.371 9.371 0 01-1.69.34 7.934 7.934 0 01-.98.06 8.94 8.94 0 01-6.35-2.63 9.131 9.131 0 01-2.36-4.1.22.22 0 00.08-.01v-.01l-.06-.43a9.006 9.006 0 008.69 6.68 7.934 7.934 0 00.98-.06 8.581 8.581 0 001.69-.34 9.04 9.04 0 002.379-1.15 9.436 9.436 0 00.99-.78.038.038 0 00.02-.02c.11-.1.21-.2.31-.3a8.668 8.668 0 001.35-1.73 7.584 7.584 0 00.56-1.1c.11-.25.2-.5.29-.76a10.123 10.123 0 00.32-1.37 8.65 8.65 0 00.101-.89z" fill="#435b55"/>
    <path d="M94.27 66.34v.05a8.65 8.65 0 01-.1.89 8.468 8.468 0 00.09-1.13 1.21 1.21 0 01.01.19zM94.27 65.88a7.18 7.18 0 00-.05-.46 10.35 10.35 0 00-.23-1.28 6.01 6.01 0 00-.27-.85 8.622 8.622 0 00-.75-1.56 7.811 7.811 0 00-.75-1.06 9.909 9.909 0 00-.83-.88.374.374 0 00-.07-.06c-.11-.1-.21-.19-.32-.28a8.435 8.435 0 00-.91-.66c-.09-.06-.19-.11-.28-.17a9.152 9.152 0 00-2.4-.97 9.91 9.91 0 001.09-.01.338.338 0 00.06-.12c.08.03.15.06.23.09a9.7 9.7 0 011.02.51c.09.06.19.11.28.17a8.435 8.435 0 01.91.66c.23.19.44.38.64.58s.39.42.58.64a10.09 10.09 0 01.75 1.06 8.622 8.622 0 01.75 1.56c.1.28.19.56.27.85s.13.58.18.87a10.4 10.4 0 01.1 1.37z" fill="#dcf4ee"/>
    <path d="M94.22 65.42c.02.24.04.48.04.73a8.468 8.468 0 01-.09 1.13 10.123 10.123 0 01-.32 1.37c-.09.26-.18.51-.29.76a8.958 8.958 0 01-1.91 2.83c-.1.1-.21.2-.31.3a.038.038 0 01-.02.02 9.436 9.436 0 01-.99.78 9.04 9.04 0 01-2.38 1.15 9.371 9.371 0 01-1.69.34 7.934 7.934 0 01-.98.06 9.006 9.006 0 01-8.69-6.68.037.037 0 01-.01-.03v-.02c.02 0 .05-.01.07-.01v-.01c-.09-.63-.2-1.27-.35-1.89a.4.4 0 010-.11v-.26a2.186 2.186 0 01.03-.36c.03-.32.08-.64.14-.95.04-.17.08-.34.12-.5v-.01c.04-.12.07-.23.11-.35a8.81 8.81 0 012.22-3.67 8.988 8.988 0 014.1-2.36c.06-.01.12-.03.18-.04h2.94a5.748 5.748 0 01.83 0 3.088 3.088 0 00.43.01h.01a9.152 9.152 0 012.4.97c.09.06.19.11.28.17a8.435 8.435 0 01.91.66c.11.09.21.18.32.28.02.02.05.04.07.06a9.909 9.909 0 01.83.88 10.09 10.09 0 01.75 1.06 8.622 8.622 0 01.75 1.56c.1.28.19.56.27.85a10.35 10.35 0 01.23 1.28zm-2.41.8a5.661 5.661 0 00-.01-.58 1.709 1.709 0 00-.03-.31 1.5 1.5 0 01-.02-.2.4.4 0 00-.03-.15 4.694 4.694 0 00-.14-.65c-.01-.03-.01-.05-.02-.08-.03-.1-.06-.21-.1-.31s-.07-.2-.11-.3a1.76 1.76 0 00-.09-.2.938.938 0 00-.06-.15 3.15 3.15 0 00-.13-.26.053.053 0 00-.02-.03 1.093 1.093 0 00-.08-.15c-.05-.09-.1-.18-.16-.27a.219.219 0 00-.03-.05 2.714 2.714 0 00-.24-.35l-.09-.12a2.433 2.433 0 00-.2-.25c-.06-.07-.13-.15-.2-.22a.231.231 0 00-.07-.07.382.382 0 00-.09-.09.616.616 0 00-.14-.14 3.175 3.175 0 00-.34-.3c-.01-.02-.02-.03-.03-.02a2.944 2.944 0 00-.41-.31 3.215 3.215 0 00-.46-.29 2.73 2.73 0 00-.48-.25 2.765 2.765 0 00-.47-.2.9.9 0 00-.21-.08 2.116 2.116 0 00-.31-.09.134.134 0 00-.08-.02 2.042 2.042 0 00-.41-.1 4.337 4.337 0 00-.87-.12 6.564 6.564 0 00-2.19.22 6.5 6.5 0 00-4.51 4.53 8.412 8.412 0 000 3.99 6.745 6.745 0 00.37 1.01 6.456 6.456 0 001.23 1.8 5.819 5.819 0 00.79.7 6.879 6.879 0 001.37.79 5.751 5.751 0 00.99.33 6.449 6.449 0 003.32-.03 7.579 7.579 0 00.8-.28 6.1 6.1 0 001.44-.84 3.876 3.876 0 00.31-.26.02.02 0 00.02-.01 3.833 3.833 0 00.29-.28 6.409 6.409 0 001.219-1.679 5.99 5.99 0 00.45-1.18 6.507 6.507 0 00.22-1.38 3.368 3.368 0 00.01-.55.333.333 0 000-.1v-.07zM93.99 63.64c-.08-.29-.17-.57-.27-.85a6.01 6.01 0 01.27.85z" fill="#dcf4ee"/>
    <path d="M93.99 64.14c-.08-.29-.17-.57-.27-.85a6.01 6.01 0 01.27.85zM93.56 69.41z" fill="#dcf4ee"/>
    <path d="M93.56 69.91a8.286 8.286 0 00.31-.83 8.286 8.286 0 01-.31.83z" fill="#435b55"/>
    <path d="M93.56 69.41a7.584 7.584 0 01-.56 1.1 8.742 8.742 0 00.56-1.1z" fill="#dcf4ee"/>
    <path d="M93.56 69.91a7.584 7.584 0 01-.56 1.1 8.742 8.742 0 00.56-1.1z" fill="#435b55"/>
    <path d="M92.97 61.23a8.622 8.622 0 01.75 1.56 8.622 8.622 0 00-.75-1.56zM92.97 61.73a8.622 8.622 0 01.75 1.56 8.622 8.622 0 00-.75-1.56zM92.22 60.17a7.811 7.811 0 01.75 1.06 10.09 10.09 0 00-.75-1.06zM92.22 60.67a7.811 7.811 0 01.75 1.06 10.09 10.09 0 00-.75-1.06z" fill="#dcf4ee"/>
    <path d="M91.8 65.64a5.661 5.661 0 01.01.58 5.564 5.564 0 00-.01-.58z" fill="#435b55"/>
    <path d="M91.81 66.39a3.368 3.368 0 01-.01.55 5.093 5.093 0 00.01-.55z" fill="#dcf4ee"/>
    <path d="M91.8 65.64a5.564 5.564 0 01.01.58.22.22 0 00-.01-.08 1.733 1.733 0 00-.03-.32c-.01-.1-.03-.2-.04-.29a1.027 1.027 0 00-.05-.24 3.783 3.783 0 00-.1-.46c-.01-.02-.01-.04-.02-.06-.04-.15-.08-.29-.13-.43-.03-.07-.05-.13-.08-.2a1.76 1.76 0 00-.09-.2.938.938 0 00-.06-.15 3.15 3.15 0 00-.13-.26.053.053 0 00-.02-.03 2.863 2.863 0 00-.24-.42.179.179 0 00-.05-.07 3.153 3.153 0 00-.22-.33l-.09-.12a2.433 2.433 0 00-.2-.25c-.06-.07-.13-.15-.2-.22a.231.231 0 00-.07-.07.382.382 0 00-.09-.09.616.616 0 00-.14-.14 3.175 3.175 0 00-.34-.3c-.01-.02-.02-.03-.03-.02a2.944 2.944 0 00-.41-.31 3.215 3.215 0 00-.46-.29 2.73 2.73 0 00-.48-.25 2.765 2.765 0 00-.47-.2 1.187 1.187 0 00-.22-.08 1.71 1.71 0 00-.3-.09.134.134 0 00-.08-.02 2.042 2.042 0 00-.41-.1 4.337 4.337 0 00-.87-.12 6.7 6.7 0 00-1.78.12c-.14.03-.27.06-.41.1a6.5 6.5 0 00-4.51 4.53 6.346 6.346 0 00-.24 1.49 6.106 6.106 0 01.24-1.99 6.44 6.44 0 016.29-4.76c.16 0 .33.01.49.02.18.02.36.04.53.07a7.035 7.035 0 011.03.25c.17.06.34.12.5.19s.3.14.45.22c.01 0 .02 0 .02.01.15.08.3.16.44.25.01.01.03.01.04.02.14.09.28.19.41.29s.28.22.41.33c.11.09.2.19.3.28a.382.382 0 01.09.09l.07.07c.09.1.19.21.28.33.11.13.22.28.32.42a3.865 3.865 0 01.27.43c.02.03.03.05.05.08a1.093 1.093 0 01.08.15c.05.09.09.18.13.27a.038.038 0 00.02.02l.06.15c.03.07.06.13.09.2.04.1.08.2.11.3s.07.21.1.31c.01.03.01.05.02.08a4.694 4.694 0 01.14.65l.03.15a1.5 1.5 0 00.02.2l.03.31z" fill="#305a7f"/>
    <path d="M91.81 66.39a5.093 5.093 0 01-.01.55 6.507 6.507 0 01-.22 1.38 5.99 5.99 0 01-.45 1.18 6.578 6.578 0 01-1.22 1.68 3.833 3.833 0 01-.29.28c-.01 0-.01.01-.02.01a3.876 3.876 0 01-.31.26 6.871 6.871 0 01-1.44.84 7.579 7.579 0 01-.8.28 6.449 6.449 0 01-3.32.03 5.751 5.751 0 01-.99-.33 6.879 6.879 0 01-1.37-.79 8.777 8.777 0 01-.79-.7 6.676 6.676 0 01-1.23-1.8 6.745 6.745 0 01-.37-1.01 6.134 6.134 0 01-.24-2 6.346 6.346 0 00.24 1.5 6.745 6.745 0 00.37 1.01 4.922 4.922 0 00.29.56 6.328 6.328 0 00.94 1.24 5.819 5.819 0 00.79.7 6.879 6.879 0 001.37.79 5.751 5.751 0 00.99.33 6.449 6.449 0 003.32-.03 7.579 7.579 0 00.8-.28 5.654 5.654 0 001.11-.6q.18-.12.33-.24a5.414 5.414 0 00.62-.55 6.574 6.574 0 001.15-1.55 6.5 6.5 0 00.52-1.31c.04-.15.07-.29.1-.44.03-.12.05-.24.07-.36.02-.17.04-.35.05-.52a.448.448 0 00.01-.11z" fill="#dcf4ee"/>
    <path d="M91.81 66.22v.07a.076.076 0 01-.01.04v-.19a.22.22 0 01.01.08z" fill="#305a7f"/>
    <path d="M91.8 66.33a.127.127 0 01.01.06.448.448 0 01-.01.11v-.17z"/>
    <path d="M91.8 66.501c-.01.17-.03.35-.05.52-.02.12-.04.24-.07.36-.03.15-.06.29-.1.44a6.5 6.5 0 01-.52 1.31 6.574 6.574 0 01-1.15 1.55 5.414 5.414 0 01-.62.55q-.15.12-.33.24a6.946 6.946 0 01-1.11.6 7.579 7.579 0 01-.8.28 6.449 6.449 0 01-3.32.03 5.751 5.751 0 01-.99-.33 6.879 6.879 0 01-1.37-.79 8.777 8.777 0 01-.79-.7 7.221 7.221 0 01-.94-1.24c-.1-.18-.2-.37-.29-.56a6.745 6.745 0 01-.37-1.01 4.776 4.776 0 010-2.99 6.5 6.5 0 014.51-4.53c.14-.04.27-.07.41-.1a6.346 6.346 0 011.429-.13c.14 0 .29.01.43.02.18.02.36.04.53.07a7.035 7.035 0 011.03.25c.17.06.34.12.5.19s.32.15.47.23.3.16.44.25c.01.01.03.01.04.02.14.09.28.19.41.29s.28.22.41.33c.11.09.2.19.3.28a.382.382 0 01.09.09l.07.07c.09.1.19.21.28.33s.19.24.28.37a1.7 1.7 0 01.15.22 2.261 2.261 0 01.16.26 1.71 1.71 0 01.13.23c.05.09.09.18.13.27a.038.038 0 00.02.02.938.938 0 01.06.15c.03.07.06.13.09.2s.05.13.08.2c.05.14.09.28.13.43.01.02.01.04.02.06a3.783 3.783 0 01.1.46 2.048 2.048 0 01.05.24c.01.09.03.19.04.29l.03.32v.36zm-2.27-.23a2.09 2.09 0 00.01-.25 4.2 4.2 0 00-1.25-3.01.172.172 0 00-.06-.06 1.507 1.507 0 00-.23-.21 4.237 4.237 0 00-1.87-.9 3.837 3.837 0 00-.83-.09h-.03a4.116 4.116 0 00-.86.09 4.168 4.168 0 00-2.36 1.39 4.684 4.684 0 00-1.05 2.79 2.09 2.09 0 00.01.25l-.01.25a4.27 4.27 0 108.54 0 2.09 2.09 0 00-.011-.251z" fill="#305a7f"/>
    <path d="M91.77 65.33a1.709 1.709 0 01.03.31l-.03-.31z" fill="#435b55"/>
    <path d="M91.77 65.82a1.733 1.733 0 01.03.32l-.03-.32z" fill="#305a7f"/>
    <path d="M91.75 65.13l-.03-.15a.4.4 0 01.03.15z" fill="#435b55"/>
    <path d="M91.75 67.02c-.02.12-.04.24-.07.36.03-.12.049-.24.07-.36zM91.68 65.29a1.027 1.027 0 01.05.24 2.048 2.048 0 00-.05-.24z" fill="#305a7f"/>
    <path d="M91.34 72.54c.1-.1.21-.2.31-.3-.1.1-.2.2-.31.3z" fill="#435b55"/>
    <path d="M91.56 64.77z" fill="#305a7f"/>
    <path d="M91.56 64.25c-.03-.1-.06-.21-.1-.31.04.1.069.21.1.31zM91.26 63.44a1.76 1.76 0 01.09.2c-.03-.07-.06-.13-.09-.2z" fill="#435b55"/>
    <path d="M91.26 63.94a1.76 1.76 0 01.09.2c-.03-.07-.06-.13-.09-.2z" fill="#305a7f"/>
    <path d="M91.32 59.73a.374.374 0 01.07.06c-.02-.02-.05-.04-.07-.06zM91.2 63.29a.938.938 0 01.06.15zM91.07 63.03c.05.09.09.17.13.26a.038.038 0 01-.02-.02 2.557 2.557 0 00-.11-.24z" fill="#dcf4ee"/>
    <path d="M91.07 63.53c.05.09.09.17.13.26a.038.038 0 01-.02-.02 2.557 2.557 0 00-.11-.24z" fill="#305a7f"/>
    <path d="M91.18 63.27c-.04-.09-.08-.18-.13-.27a.053.053 0 01.02.03 2.557 2.557 0 01.11.24z" fill="#435b55"/>
    <path d="M91.18 63.77c-.04-.09-.08-.18-.13-.27a.053.053 0 01.02.03 2.557 2.557 0 01.11.24zM91.05 63.501a1.71 1.71 0 00-.13-.23 1.178 1.178 0 00-.11-.19 2.863 2.863 0 01.24.42z" fill="#305a7f"/>
    <path d="M90.97 62.85c-.02-.03-.03-.05-.05-.08a1.178 1.178 0 00-.11-.19c.06.09.11.18.16.27z" fill="#dcf4ee"/>
    <path d="M90.81 62.58a1.178 1.178 0 01.11.19 3.865 3.865 0 00-.27-.43 1.274 1.274 0 01.13.19.219.219 0 01.03.05z" fill="#435b55"/>
    <path d="M90.81 63.08a1.178 1.178 0 01.11.19 2.261 2.261 0 00-.16-.26.179.179 0 01.05.07z" fill="#305a7f"/>
    <path d="M90.78 62.53a1.274 1.274 0 00-.13-.19.906.906 0 00-.11-.16 2.714 2.714 0 01.24.35z" fill="#dcf4ee"/>
    <path d="M90.76 63.01a1.7 1.7 0 00-.15-.22.673.673 0 00-.07-.11 3.153 3.153 0 01.22.33z" fill="#305a7f"/>
    <path d="M90.329 73.34a9.436 9.436 0 00.99-.78 9.436 9.436 0 01-.99.78zM90.54 62.18a.906.906 0 01.11.16c-.1-.14-.21-.29-.32-.42a.747.747 0 01.12.14z" fill="#435b55"/>
    <path d="M90.54 62.68a.673.673 0 01.07.11c-.09-.13-.18-.25-.28-.37a.747.747 0 01.12.14z" fill="#305a7f"/>
    <path d="M90.45 62.06a.747.747 0 00-.12-.14.763.763 0 00-.08-.11 2.433 2.433 0 01.2.25z" fill="#dcf4ee"/>
    <path d="M90.45 62.56a.747.747 0 00-.12-.14.763.763 0 00-.08-.11 2.433 2.433 0 01.2.25z" fill="#305a7f"/>
    <path d="M90.25 61.81a.763.763 0 01.08.11c-.09-.12-.19-.23-.28-.33a2.089 2.089 0 01.2.22z" fill="#435b55"/>
    <path d="M90.25 62.31a.763.763 0 01.08.11c-.09-.12-.19-.23-.28-.33a2.089 2.089 0 01.2.22z" fill="#305a7f"/>
    <path d="M90.09 58.79a8.435 8.435 0 01.91.66 8.435 8.435 0 00-.91-.66z" fill="#dcf4ee"/>
    <path d="M90.25 61.81a2.089 2.089 0 00-.2-.22c.07.07.14.15.2.22z" fill="#435b55"/>
    <path d="M90.25 62.31a2.089 2.089 0 00-.2-.22c.07.07.14.15.2.22z" fill="#305a7f"/>
    <path d="M91.06 69.13a6.574 6.574 0 01-1.15 1.55 6.574 6.574 0 001.15-1.55z"/>
    <path d="M91.129 69.501a6.409 6.409 0 01-1.22 1.68 6.578 6.578 0 001.22-1.68z" fill="#dcf4ee"/>
    <path d="M89.98 61.52a.231.231 0 01.07.07z" fill="#435b55"/>
    <path d="M89.98 62.02a.231.231 0 01.07.07z" fill="#305a7f"/>
    <path d="M89.75 61.29a.616.616 0 01.14.14c-.1-.09-.19-.19-.3-.28a1.07 1.07 0 01.16.14z" fill="#435b55"/>
    <path d="M89.75 61.79a.616.616 0 01.14.14c-.1-.09-.19-.19-.3-.28a1.07 1.07 0 01.16.14z" fill="#305a7f"/>
    <path d="M89.75 61.29a1.07 1.07 0 00-.16-.14c-.06-.06-.12-.11-.18-.16a3.175 3.175 0 01.34.3z" fill="#dcf4ee"/>
    <path d="M89.75 61.79a1.07 1.07 0 00-.16-.14c-.06-.06-.12-.11-.18-.16a3.175 3.175 0 01.34.3z" fill="#305a7f"/>
    <path d="M89.29 71.23a5.414 5.414 0 00.62-.55 5.414 5.414 0 01-.62.55z"/>
    <path d="M89.6 71.47c.01 0 .01-.01.02-.01a.02.02 0 01-.02.01z" fill="#dcf4ee"/>
    <path d="M89.41 60.99c.06.05.12.1.18.16-.13-.11-.27-.22-.41-.33a.951.951 0 01.2.15c.01-.01.02 0 .03.02z" fill="#435b55"/>
    <path d="M89.41 61.49c.06.05.12.1.18.16-.13-.11-.27-.22-.41-.33a.951.951 0 01.2.15c.01-.01.02 0 .03.02z" fill="#305a7f"/>
    <path d="M89.54 66.02a2.09 2.09 0 01-.01.25 4.281 4.281 0 00-3.4-3.93 3.266 3.266 0 00-.7-.08.86.86 0 00-.16-.01 4.116 4.116 0 00-.86.09 4.287 4.287 0 00-3.4 3.93 2.09 2.09 0 01-.01-.25 4.684 4.684 0 011.05-2.79c.07-.08.14-.15.21-.22a4.33 4.33 0 012.15-1.17 4.116 4.116 0 01.86-.09h.03a4.584 4.584 0 01.83.09 4.464 4.464 0 011.87.9 1.507 1.507 0 01.23.21l.06.06a4.2 4.2 0 011.25 3.01z" fill="#c3d8ee"/>
    <path d="M89.529 66.27a2.09 2.09 0 01.01.25 4.27 4.27 0 11-8.54 0l.01-.25a4.267 4.267 0 008.52 0z" fill="#305a7f"/>
    <path d="M89.38 60.97a.951.951 0 00-.2-.15c-.07-.06-.14-.11-.21-.16a2.944 2.944 0 01.41.31z" fill="#dcf4ee"/>
    <path d="M89.38 61.47a.951.951 0 00-.2-.15c-.07-.06-.14-.11-.21-.16a2.944 2.944 0 01.41.31z" fill="#305a7f"/>
    <path d="M83.89 66.29a1.407 1.407 0 001.38 1.17v-.02a1.44 1.44 0 001-.41 1.334 1.334 0 00.39-.74 1.007 1.007 0 00.03-.25 1.309 1.309 0 00-.12-.56 1.394 1.394 0 00-1.3-.86 1.417 1.417 0 00-1.41 1.42 1.007 1.007 0 00.03.25zm4.4-2.78a4.211 4.211 0 011.24 2.76 4.267 4.267 0 01-8.52 0 4.222 4.222 0 01.97-2.46c.09-.1.18-.2.28-.3a4.33 4.33 0 012.15-1.17 4.116 4.116 0 01.86-.09.86.86 0 01.16.01 4.055 4.055 0 01.7.08 4.318 4.318 0 012.16 1.17z" fill="#c3d8ee"/>
    <path d="M88.97 60.66c.07.05.14.1.21.16-.13-.1-.27-.2-.41-.29a1.373 1.373 0 01.2.13z" fill="#435b55"/>
    <path d="M88.97 61.16c.07.05.14.1.21.16-.13-.1-.27-.2-.41-.29a1.373 1.373 0 01.2.13z" fill="#305a7f"/>
    <path d="M88.79 58.11a9.7 9.7 0 011.02.51 9.7 9.7 0 00-1.02-.51zM88.97 60.66a1.373 1.373 0 00-.2-.13c-.01-.01-.03-.01-.04-.02a1.023 1.023 0 00-.22-.14 3.215 3.215 0 01.46.29z" fill="#dcf4ee"/>
    <path d="M88.97 61.16a1.373 1.373 0 00-.2-.13c-.01-.01-.03-.01-.04-.02a1.023 1.023 0 00-.22-.14 3.215 3.215 0 01.46.29z" fill="#305a7f"/>
    <path d="M88.729 60.51c-.14-.09-.29-.17-.44-.25a1.505 1.505 0 01.22.11 1.023 1.023 0 01.22.14z" fill="#435b55"/>
    <path d="M88.729 61.01c-.14-.09-.29-.17-.44-.25a1.505 1.505 0 01.22.11 1.023 1.023 0 01.22.14z" fill="#305a7f"/>
    <path d="M88.56 56.86a.223.223 0 010 .14v-.14z" fill="#dcf4ee"/>
    <path d="M88.56 57.36a.2.2 0 010 .15c-.06-.02-.11-.04-.17-.06a8.511 8.511 0 00-.98-.3 9.91 9.91 0 001.09-.01.2.2 0 00.06-.14v.36z" fill="#435b55"/>
    <path d="M85.71 54.79V14.401H11.64v40.39h2.85V17.76h19.939v17.09h28.5V17.76h19.94v37.03h2.84zm-48.27 2.34h-3.16c.16.16.32.33.47.5h-.47c.3.3.58.62.85.95.16.21.32.43.48.65.09.13.17.26.26.4v.03a9.861 9.861 0 01.72-1.06c.13-.18.27-.35.41-.51s.29-.31.44-.46h-.46a.053.053 0 01.02-.03v-.01c.15-.16.29-.31.44-.46zm51.12-.27v.141a.2.2 0 01-.06.14 9.91 9.91 0 01-1.09.01h-.01a9.249 9.249 0 00-2.12-.25h-.01a8.881 8.881 0 00-2.07.24H65.78v3.35l11.87-.07a.209.209 0 01-.04.06c-.17.24-.39.5-.55.72a2.114 2.114 0 00-.45 1.3c-.31.08-.63.14-.96.2s-.65.1-.97.14h-8.9v3.35l10.33-.17c.06.22.12.45.18.68a8.94 8.94 0 00.16 1.48c-.16.04-.31.07-.47.1-.45.08-.9.15-1.36.2l-.68.06H53.39v.01c-.26.49-.56.98-.9 1.52-.33.5-.69.99-1.07 1.46l-.68.7a10.521 10.521 0 01-2.14 1.4 8.653 8.653 0 01-2.34.97 8.785 8.785 0 01-4.95-.15 5.682 5.682 0 01-.79-.37 5.105 5.105 0 01-.71-.51 10.176 10.176 0 01-1.01-.71 10.879 10.879 0 01-2.45-2.74c-.17-.23-.33-.47-.48-.71-.23.29-3.37 3.96-4.51 4.13-.28.14-.58.27-.87.39a10.862 10.862 0 01-1.38.39c-.31.06-.62.1-.94.13-.16.01-.32.02-.48.02-.25.02-.51.03-.76.03a13.733 13.733 0 01-2.02-.15 12.042 12.042 0 01-1.18-.31 11.371 11.371 0 01-1.14-.47c-.3-.13-.59-.29-.88-.45s-.57-.36-.84-.55h-.01c-.11-.1-.22-.19-.33-.28s-.22-.2-.32-.31a7.21 7.21 0 01-.57-.67 6.623 6.623 0 01-.69-1.18 9.185 9.185 0 01-.64-1.55h-6.67V57.19H.25v-8.05H8.8V13.02l.28-.4a15.724 15.724 0 0111.11-6.17V5.02A4.287 4.287 0 0124.46.75h8.55a4.289 4.289 0 014.27 4.18v1.44h14.24V4.93a4.211 4.211 0 011.28-2.96A4.236 4.236 0 0155.84.75H72.9a4.289 4.289 0 014.27 4.18v1.52a15.8 15.8 0 0111.11 6.19l.28.38v38.42h-.09v5.27h.09v.15zm-5.45-45.29h.68a12.972 12.972 0 00-8.04-2.85H21.61a12.994 12.994 0 00-8.04 2.85h.68a7.9 7.9 0 00-.68.5h70.22a7.9 7.9 0 00-.68-.5zm-3.09 43.1v-17.6h-5.7v-1.85h5.65v-.5h.05V19.99H65.76v.49h-.05v34.68h14.26v-.49h.05zm-5.67-48.3V4.43a1.425 1.425 0 00-1.42-1.42H55.8a1.425 1.425 0 00-1.42 1.42v1.94h19.97zM62.929 66.19v-9.05H51.4c.17.16.33.33.48.5h-.48a9.753 9.753 0 012.99 6.78 8.938 8.938 0 01-.1 1.27h.06a4.261 4.261 0 01-.06.5h8.639zm0-11.38V37.201h-28.5v17.54h2.85v-14.24h22.8v14.31h2.85zm-5.7-.02V42.901h-17.1v11.89h17.1zm-5.72 9.69a3.976 3.976 0 00-.01-.69 2.458 2.458 0 00-.02-.28c-.01-.07-.01-.13-.02-.19a1.7 1.7 0 00-.04-.22 3.583 3.583 0 00-.09-.45.06.06 0 00-.01-.04 1.163 1.163 0 00-.04-.18c-.01-.02-.01-.05-.02-.07s-.01-.04-.02-.06c-.05-.17-.1-.33-.16-.49a.037.037 0 00-.01-.03.612.612 0 00-.05-.12 2.749 2.749 0 00-.15-.36 1.244 1.244 0 00-.1-.2c-.04-.09-.09-.19-.13-.27s-.1-.18-.15-.26c-.01-.01-.02-.03-.03-.04a1.3 1.3 0 00-.1-.15 3.713 3.713 0 00-.28-.41 4.943 4.943 0 00-.36-.44 2.089 2.089 0 00-.2-.22l-.04-.04c-.02-.02-.03-.04-.05-.06a3.653 3.653 0 00-.3-.27.043.043 0 00-.03-.03 3.542 3.542 0 00-.42-.35.219.219 0 01-.05-.03 3.087 3.087 0 00-.37-.26.673.673 0 00-.11-.07 3.3 3.3 0 00-.45-.26h-.01a2.768 2.768 0 00-.46-.22l-.06-.03a2.9 2.9 0 00-.41-.16.487.487 0 00-.11-.04.037.037 0 00-.03-.01c-.06-.02-.13-.04-.2-.06s-.16-.05-.23-.07l-.1-.03c-.05-.01-.09-.02-.13-.03-.12-.03-.25-.05-.38-.07a.127.127 0 00-.06-.01 2.13 2.13 0 00-.25-.03c-.04-.01-.09-.01-.14-.02a7 7 0 00-1.71.02c-.2.03-.41.07-.61.11-.12.02-.23.05-.35.08-.15.04-.3.09-.44.14s-.29.1-.43.16a7.837 7.837 0 00-.82.41c-.13.08-.25.16-.38.24l-.01.01c-.12.08-.23.17-.34.25h-.01l-.01.01a7.02 7.02 0 00-2.48 3.71v.01a6.48 6.48 0 00-.25 2.05.17.17 0 000 .1 4.606 4.606 0 00.02.83.03.03 0 000 .04 6.1 6.1 0 00.19 1.12 1.046 1.046 0 00.04.17.851.851 0 00.06.17.83.83 0 00.06.21.488.488 0 00.03.07.284.284 0 00.04.12v.011a.865.865 0 00.07.17.943.943 0 00.1.23 1.658 1.658 0 00.15.33.8.8 0 00.08.16 1.618 1.618 0 00.1.18 1 1 0 00.12.19.6.6 0 00.09.15 2.75 2.75 0 00.19.28.053.053 0 00.02.03c.04.06.08.11.12.16l.12.15v.01c.06.07.13.15.2.22a1.624 1.624 0 00.18.2.121.121 0 00.05.05.339.339 0 00.06.06c.1.1.2.2.31.29a4.943 4.943 0 00.44.36 3.455 3.455 0 00.46.32.053.053 0 00.03.02 3.907 3.907 0 00.44.26.142.142 0 01.04.02.488.488 0 00.07.03 2.088 2.088 0 00.4.19.536.536 0 00.11.05 2.74 2.74 0 00.4.15 1.066 1.066 0 00.19.07 1.975 1.975 0 00.26.08.127.127 0 00.06.01l.12.03a3.57 3.57 0 00.55.11h.01a2.865 2.865 0 00.5.07.375.375 0 00.11.01 5.8 5.8 0 001.5-.04c.17-.02.33-.05.5-.08.15-.03.31-.07.47-.11s.29-.09.43-.14c.01-.01.01 0 .01 0a6.652 6.652 0 001.24-.57c0-.01.01 0 .01 0a6.51 6.51 0 001.08-.79c.12-.1.23-.21.34-.32a6.943 6.943 0 00.85-1.03l.01-.01c.08-.13.16-.25.24-.38a7 7 0 00.7-1.69 6.906 6.906 0 00.25-2.16.03.03 0 00.001-.041zm-17.08.05a7.242 7.242 0 00-.02-.81.375.375 0 00-.01-.11 2.978 2.978 0 00-.07-.509 3.57 3.57 0 00-.11-.55v-.01a1.046 1.046 0 00-.04-.17 1.975 1.975 0 00-.08-.26 1.066 1.066 0 00-.07-.19 2 2 0 00-.18-.46v-.01a3.218 3.218 0 00-.23-.5.038.038 0 00-.02-.02 3.429 3.429 0 00-.28-.49 4.27 4.27 0 00-.3-.44.1.1 0 00-.05-.06 3.213 3.213 0 00-.34-.41 2.422 2.422 0 00-.31-.33 2.391 2.391 0 00-.23-.22.187.187 0 00-.07-.06.339.339 0 00-.06-.06 3.253 3.253 0 00-.29-.23c-.03-.03-.06-.05-.08-.07-.05-.04-.1-.07-.14-.1-.11-.08-.22-.16-.33-.23a.435.435 0 01-.07-.04 3.623 3.623 0 00-.43-.24 3.543 3.543 0 00-.52-.25h-.01a2.226 2.226 0 00-.45-.18c-.04-.01-.08-.03-.11-.04s-.05-.02-.08-.03a1.975 1.975 0 00-.26-.08 1.046 1.046 0 00-.17-.04h-.01a3.693 3.693 0 00-.56-.11 2.629 2.629 0 00-.39-.06h-.03a.448.448 0 00-.11-.01.915.915 0 00-.16-.01 6.543 6.543 0 00-.99 0c-.14.01-.29.02-.43.04-.17.03-.34.06-.5.08s-.31.07-.47.11-.29.09-.43.14c-.01.01-.01 0-.01 0a6.652 6.652 0 00-1.24.57c0 .01-.01 0-.01 0a6.591 6.591 0 00-1.09.79c-.12.1-.22.21-.33.31a7.873 7.873 0 00-.6.68 5.17 5.17 0 00-.49.73 7.2 7.2 0 00-.72 1.71 6.81 6.81 0 00-.25 2.15v.01a6.906 6.906 0 00.25 2.16 7.173 7.173 0 00.69 1.66 7.035 7.035 0 001.04 1.38 5.334 5.334 0 00.42.4 6.691 6.691 0 00.92.69 6.856 6.856 0 001 .53 7.135 7.135 0 004.73.32 6.473 6.473 0 001.29-.49 6.25 6.25 0 00.79-.46 5.944 5.944 0 00.7-.54c.12-.1.23-.21.34-.32a7.091 7.091 0 00.86-1.04 7.222 7.222 0 00.95-2.07c.04-.16.08-.31.11-.47a4.706 4.706 0 00.08-.5 6.581 6.581 0 00.06-1.08v-.1zm-.03-58.16V4.43a1.439 1.439 0 00-1.42-1.42h-8.55a1.425 1.425 0 00-1.42 1.42v1.94h11.39zm-2.75 48.3V19.98H17.34v14.18l-.03.06h.03v.44l-.03.06h5.7v2.35h-5.67v17.6h14.31zm-11.3 2.47h-5.86v8.97h2.97c-.02-.17-.05-.33-.06-.5h.06a9.715 9.715 0 01-.11-1.21 9.9 9.9 0 013-6.76h-.48c.151-.17.311-.339.481-.5zm-11.55-2.35v-3.35h-5.7v3.35h5.7z" fill="#dcf4ee"/>
    <path fill="#164f3d" d="M88.47 56.211h.09v.5h-.09z"/>
    <path fill="#afe8d6" d="M88.47 51.941h.09v4.27h-.09zM88.47 51.441h.09v.5h-.09z"/>
    <path d="M88.56 12.52v.5l-.28-.38a15.8 15.8 0 00-11.11-6.19v-.5a15.8 15.8 0 0111.11 6.19z" fill="#dcf4ee"/>
    <path d="M88.56 57.51v.01c-.06-.03-.12-.05-.17-.07.06.02.11.04.17.06z" fill="#435b55"/>
    <path d="M88.39 57.45c.05.02.11.04.17.07a.338.338 0 01-.06.12 9.91 9.91 0 01-1.09.01h-.01a9.249 9.249 0 00-2.12-.25h-.01a8.881 8.881 0 00-2.07.24h-1.5a8.975 8.975 0 011.32-.46c.06-.01.12-.03.18-.04h2.94a5.748 5.748 0 01.83 0 3.088 3.088 0 00.43.01h.01a8.511 8.511 0 01.98.3zM88.51 60.37a1.505 1.505 0 00-.22-.11c0-.01-.01-.01-.02-.01a.945.945 0 00-.24-.13 2.73 2.73 0 01.48.25z" fill="#dcf4ee"/>
    <path d="M88.51 60.87a1.505 1.505 0 00-.22-.11 1.653 1.653 0 00-.26-.14 2.73 2.73 0 01.48.25z" fill="#305a7f"/>
    <path d="M88.229 62.95a.172.172 0 01.06.06zM86.129 62.34a4.2 4.2 0 012.16 1.17 4.318 4.318 0 00-2.16-1.17z"/>
    <path d="M88.029 60.62a1.653 1.653 0 01.26.14c-.15-.08-.31-.16-.47-.23a.949.949 0 01.21.09z" fill="#305a7f"/>
    <path d="M88.029 60.12a.945.945 0 01.24.13c-.15-.08-.3-.15-.45-.22a.949.949 0 01.21.09z" fill="#435b55"/>
    <path d="M87.85 72.07a6.946 6.946 0 001.11-.6 5.654 5.654 0 01-1.11.6z"/>
    <path d="M87.85 72.57a6.871 6.871 0 001.44-.84 6.1 6.1 0 01-1.44.84zM88.029 60.12a.949.949 0 00-.21-.09c-.09-.04-.17-.08-.26-.11a2.765 2.765 0 01.47.2z" fill="#dcf4ee"/>
    <path d="M88.029 60.62a.949.949 0 00-.21-.09c-.09-.04-.17-.08-.26-.11a2.765 2.765 0 01.47.2z" fill="#305a7f"/>
    <path d="M87.82 60.03c-.16-.07-.33-.13-.5-.19h.03a.9.9 0 01.21.08c.09.03.169.07.26.11z" fill="#435b55"/>
    <path d="M87.82 60.53c-.16-.07-.33-.13-.5-.19h.02a1.187 1.187 0 01.22.08c.09.03.169.07.26.11z" fill="#305a7f"/>
    <path d="M85.28 56.901a9.249 9.249 0 012.12.25 3.088 3.088 0 01-.43-.01 5.748 5.748 0 00-.83 0H83.2a8.881 8.881 0 012.07-.24h.01zM85.28 57.401a9.249 9.249 0 012.12.25 3.088 3.088 0 01-.43-.01 5.748 5.748 0 00-.83 0H83.2a8.881 8.881 0 012.07-.24h.01zM87.35 59.84h-.03a1.309 1.309 0 00-.28-.09 2.116 2.116 0 01.31.09z" fill="#dcf4ee"/>
    <path d="M87.34 60.34h-.02a1.309 1.309 0 00-.28-.09 1.71 1.71 0 01.3.09z" fill="#305a7f"/>
    <path d="M87.04 59.75a1.309 1.309 0 01.28.09 7.035 7.035 0 00-1.03-.25 2.336 2.336 0 01.26.04c.14.03.27.06.41.1a.134.134 0 01.08.02z" fill="#435b55"/>
    <path d="M87.04 60.25a1.309 1.309 0 01.28.09 7.035 7.035 0 00-1.03-.25 2.336 2.336 0 01.26.04c.14.03.27.06.41.1a.134.134 0 01.08.02z" fill="#305a7f"/>
    <path d="M86.96 59.73c-.14-.04-.27-.07-.41-.1a2.042 2.042 0 01.41.1z" fill="#dcf4ee"/>
    <path d="M86.96 60.23c-.14-.04-.27-.07-.41-.1a2.042 2.042 0 01.41.1z" fill="#305a7f"/>
    <path d="M86.69 66.04a1.007 1.007 0 01-.03.25.032.032 0 000-.03v-.01a1.635 1.635 0 00.02-.22 1.459 1.459 0 00-.11-.55 1.309 1.309 0 01.12.56z"/>
    <path d="M86.68 66.03a1.635 1.635 0 01-.02.22 1.409 1.409 0 00-2.77.04 1.007 1.007 0 01-.03-.25 1.417 1.417 0 011.41-1.42 1.394 1.394 0 011.3.86 1.459 1.459 0 01.11.55z" fill="#305a7f"/>
    <path d="M86.66 66.26a.032.032 0 010 .03 1.334 1.334 0 01-.39.74 1.456 1.456 0 00.39-.77z"/>
    <path d="M86.66 66.25v.01a1.456 1.456 0 01-.39.77 1.44 1.44 0 01-1 .41v.02a1.188 1.188 0 111.39-1.21z" fill="#305a7f"/>
    <path d="M86.26 74.83a9.371 9.371 0 001.69-.34 8.581 8.581 0 01-1.69.34z" fill="#435b55"/>
    <path d="M86.55 59.63a2.336 2.336 0 00-.26-.04c-.18-.03-.35-.05-.53-.07a.2.2 0 01-.08-.01 4.337 4.337 0 01.87.12z" fill="#dcf4ee"/>
    <path d="M86.55 60.13a2.336 2.336 0 00-.26-.04c-.18-.03-.35-.05-.53-.07a.2.2 0 01-.08-.01 4.337 4.337 0 01.87.12z" fill="#305a7f"/>
    <path d="M86.129 61.84a4.237 4.237 0 011.87.9 4.464 4.464 0 00-1.87-.9z"/>
    <path d="M86.29 59.59c-.17-.03-.35-.05-.53-.07.18.02.35.04.53.07z" fill="#435b55"/>
    <path d="M86.29 60.09c-.17-.03-.35-.05-.53-.07.18.02.35.04.53.07z" fill="#305a7f"/>
    <path d="M85.76 59.52c-.16-.01-.33-.02-.49-.02.13 0 .27.01.41.01a.2.2 0 00.08.01z" fill="#435b55"/>
    <path d="M85.76 60.02c-.14-.01-.29-.02-.43-.02.11 0 .23.01.35.01a.2.2 0 00.08.01z" fill="#305a7f"/>
    <path fill="#dcf4ee" d="M85.7 54.291h.01v.5h-.01z"/>
    <path fill="#62ccab" d="M85.7 14.901h.01v39.39h-.01zM85.7 14.401h.01v.5h-.01z"/>
    <path d="M85.3 61.75a3.837 3.837 0 01.83.09 4.584 4.584 0 00-.83-.09zM85.429 62.26a3.266 3.266 0 01.7.08 4.055 4.055 0 00-.7-.08z"/>
    <path fill="#dcf4ee" d="M82.87 54.291h2.83v.5h-2.83z"/>
    <path d="M85.7 14.901v39.39h-2.83V17.25H62.929v17.1h-28.5v-17.1H14.49v37.04h-2.85V14.901H85.7zm-25.63 17.53V20.49H37.28v11.94h22.79zM11.64 14.401H85.7v.5H11.64z" fill="#62ccab"/>
    <path d="M85.68 59.51c-.14 0-.28-.01-.41-.01a6.5 6.5 0 00-1.78.23 6.564 6.564 0 012.19-.22z" fill="#dcf4ee"/>
    <path d="M85.68 60.01c-.12 0-.24-.01-.35-.01a6.346 6.346 0 00-1.43.13 6.7 6.7 0 011.78-.12z" fill="#305a7f"/>
    <path d="M85.27 61.75a4.116 4.116 0 00-.86.09 4.116 4.116 0 01.86-.09zM85.27 62.25a4.116 4.116 0 00-.86.09 4.116 4.116 0 01.86-.09z"/>
    <path d="M83.79 11.57h-.68a12.882 12.882 0 00-7.36-2.35H21.61a12.905 12.905 0 00-7.36 2.35h-.68a12.994 12.994 0 018.04-2.85h54.14a12.972 12.972 0 018.04 2.85z" fill="#cef490"/>
    <path d="M83.79 12.07H13.57a7.9 7.9 0 01.68-.5h68.86a7.9 7.9 0 01.68.5z" fill="#dcf4ee"/>
    <path d="M82.74 72.05a5.751 5.751 0 00.99.33 5.751 5.751 0 01-.99-.33z"/>
    <path d="M82.74 72.55a5.751 5.751 0 00.99.33 5.751 5.751 0 01-.99-.33z" fill="#dcf4ee"/>
    <path d="M83.2 57.14c-.06.01-.12.03-.18.04a8.824 8.824 0 00-1.34.46h-15.9v-.5H83.2z" fill="#435b55"/>
    <path d="M83.2 57.64c-.06.01-.12.03-.18.04a8.937 8.937 0 00-4.1 2.36 8.81 8.81 0 00-2.22 3.67 2.79 2.79 0 00-.11.35v.01a4.535 4.535 0 00-.12.5 6.045 6.045 0 00-.14.95 2.186 2.186 0 00-.03.36h-.01a9.034 9.034 0 01.18-1.81 8.375 8.375 0 01.23-.86 8.807 8.807 0 012.22-3.67 8.87 8.87 0 012.78-1.9h1.5z" fill="#dcf4ee"/>
    <path d="M83.11 11.57H14.25a12.905 12.905 0 017.36-2.35h54.14a12.882 12.882 0 017.36 2.35z" fill="#95d8bf"/>
    <path fill="#dcf4ee" d="M62.93 17.751h19.94v.01H62.93zM62.93 17.261h19.94v.49H62.93z"/>
    <path fill="#003312" d="M62.93 17.251h19.94v.01H62.93z"/>
    <path d="M84.41 61.84a4.33 4.33 0 00-2.15 1.17c-.07.07-.14.14-.21.22a4.168 4.168 0 012.36-1.39zM84.41 62.34a4.33 4.33 0 00-2.15 1.17c-.1.1-.19.2-.28.3a4.236 4.236 0 012.43-1.47z"/>
    <path d="M81.68 57.64a8.824 8.824 0 011.34-.46 8.975 8.975 0 00-1.32.46h-.02zM81.68 57.64h.02a8.87 8.87 0 00-2.78 1.9 9.005 9.005 0 012.76-1.9z" fill="#dcf4ee"/>
    <path d="M65.78 57.64h15.9a9.005 9.005 0 00-2.76 1.9 8.492 8.492 0 00-1.22 1.51l-.09-.06a.942.942 0 00.29-.57.039.039 0 00-.04-.02.507.507 0 00-.09.02h-.11a.777.777 0 00.24-.5.039.039 0 00-.04-.02.507.507 0 00-.09.02l-11.99.07v-2.35z" fill="#226d5b"/>
    <path d="M80.58 70.56a8.777 8.777 0 00.79.7 5.819 5.819 0 01-.79-.7z"/>
    <path d="M80.58 71.06a8.777 8.777 0 00.79.7 5.819 5.819 0 01-.79-.7z" fill="#dcf4ee"/>
    <path d="M80.58 70.56a6.328 6.328 0 01-.94-1.24 7.221 7.221 0 00.94 1.24z" fill="#305a7f"/>
    <path d="M80.58 71.06a6.456 6.456 0 01-1.23-1.8 6.676 6.676 0 001.23 1.8zM80.02 54.171v.5h-.05v-.5h.05z" fill="#dcf4ee"/>
    <path fill="#95d8bf" d="M80.02 37.581v16.59h-.05v-16.59h.05zM79.97 37.571h.05v.01h-.05z"/>
    <path fill="#95d8bf" d="M80.02 37.081v.49h-5.7v-.49h5.7z"/>
    <path fill="#435b55" d="M74.32 37.071h5.7v.01h-5.7z"/>
    <path fill="#dcf4ee" d="M79.97 34.221h.05v.5h-.05z"/>
    <path fill="#95d8bf" d="M80.02 20.491v13.73h-.05v-13.73h.05zM80.02 19.991v.5h-.05v-.01H65.76v-.49h14.26z"/>
    <path fill="#dcf4ee" d="M79.97 54.671v.49H65.71v-.5h.05v.01h14.21z"/>
    <path fill="#dcf4ee" d="M65.76 54.661h14.21v.01H65.76zM65.76 54.171h14.21v.49H65.76z"/>
    <path d="M79.97 38.07v16.1H65.76V20.98h14.21v13.24h-5.65v.5h-.06v3.35h5.71zm-2.8-5.73v-9.05h-8.56v9.05h8.56z" fill="#95d8bf"/>
    <path fill="#95d8bf" d="M79.97 37.581v.49h-5.71v-.5h.06v.01h5.65z"/>
    <path fill="#95d8bf" d="M74.32 37.571h5.65v.01h-5.65z"/>
    <path fill="#dcf4ee" d="M74.32 34.721h5.65v.5h-5.65zM74.32 34.221h5.65v.5h-5.65z"/>
    <path fill="#95d8bf" d="M65.76 20.491h14.21v.49H65.76z"/>
    <path fill="#95d8bf" d="M65.76 20.481h14.21v.01H65.76z"/>
    <path d="M79.64 69.32a4.922 4.922 0 01-.29-.56c.09.19.19.38.29.56z" fill="#305a7f"/>
    <path d="M78.92 60.04a8.937 8.937 0 014.1-2.36 8.988 8.988 0 00-4.1 2.36z" fill="#dcf4ee"/>
    <path d="M78.929 72.26a8.877 8.877 0 01-2.34-4.05 8.981 8.981 0 002.34 4.05zM77.9 60.42a.942.942 0 01-.29.57c-.18.23-.39.5-.55.71a2.114 2.114 0 00-.45 1.3c-.31.08-.63.14-.96.2s-.65.1-.97.14h-8.9v-.49h8.9c.32-.04.65-.09.97-.15s.65-.12.96-.2a2.114 2.114 0 01.45-1.3c.16-.22.38-.48.55-.72a.133.133 0 00.05-.06h.11a.507.507 0 01.09-.02c.02.001.04.001.04.02z" fill="#435b55"/>
    <path d="M77.9 59.92a.777.777 0 01-.24.5h-.01l-11.87.07v-.5l11.99-.07a.507.507 0 01.09-.02c.02.001.04.001.04.02z" fill="#dcf4ee"/>
    <path d="M77.61 60.99l.09.06a8.491 8.491 0 00-1 2.16 6.416 6.416 0 00-.23.86 8.48 8.48 0 00-.19 1.83 2.09 2.09 0 00.01.25.014.014 0 000 .02h-.01c-.05-.22-.11-.43-.17-.65l-10.33.17v-2.34h8.9c.32-.04.65-.09.97-.15s.65-.12.96-.2a2.114 2.114 0 01.45-1.3c.16-.21.369-.48.55-.71z" fill="#226d5b"/>
    <path d="M77.66 60.42a.133.133 0 01-.05.06.209.209 0 00.04-.06h.01z" fill="#dcf4ee"/>
    <path fill="#666" d="M68.61 31.841h8.56v.5h-8.56z"/>
    <path d="M77.17 23.79v8.05h-8.56v-8.05h8.56zm-2.92 5.23l.07-.03h-.07v-2.82H71.4v3.32h2.85v.03l.07-.03h-.07v-.47z" fill="#fff"/>
    <path fill="#fff" d="M68.61 23.291h8.56v.5h-8.56z"/>
    <path d="M77.17 4.43v.5A4.289 4.289 0 0072.9.75H55.84a4.236 4.236 0 00-3.04 1.22 4.211 4.211 0 00-1.28 2.96v-.5a4.211 4.211 0 011.28-2.96A4.236 4.236 0 0155.84.25H72.9a4.289 4.289 0 014.27 4.18zM76.7 63.71c-.04.12-.07.23-.11.35a2.79 2.79 0 01.11-.35zM76.65 68.14v.01c-.02 0-.05.01-.07.01.02-.01.049-.01.07-.02z" fill="#dcf4ee"/>
    <path d="M76.65 68.64v.01a.22.22 0 01-.08.01c.03-.01.05-.01.08-.02z" fill="#435b55"/>
    <path d="M76.59 68.21l.06.43c-.03.01-.05.01-.08.02v-.01c-.03-.15-.07-.31-.1-.46l.1-.03a.031.031 0 00.01.02.037.037 0 00.01.03z" fill="#435b55"/>
    <path d="M76.65 68.14c-.02.01-.05.01-.07.02l-.01-.01c-.05-.35-.12-.71-.2-1.06a7.927 7.927 0 01-.07-.84c.15.62.26 1.26.35 1.89zM76.58 68.16v.02a.031.031 0 01-.01-.02h.01z" fill="#dcf4ee"/>
    <path d="M76.57 68.15l.01.01h-.01v-.01z" fill="#dcf4ee"/>
    <path d="M76.57 68.16l-.1.03-.01-.01c.04-.01.069-.01.11-.02zM76.57 68.65v.01l-.59.12c-.45.08-.9.15-1.36.2l-.68.06H53.39v.01c-.26.49-.56.98-.9 1.52-.33.5-.69.99-1.07 1.46l-.68.7a10.521 10.521 0 01-2.14 1.4 8.653 8.653 0 01-2.34.97 8.785 8.785 0 01-4.95-.15 5.682 5.682 0 01-.79-.37 5.105 5.105 0 01-.71-.51 10.176 10.176 0 01-1.01-.71 10.879 10.879 0 01-2.45-2.74c-.14-.19-.28-.39-.4-.59-.03-.04-.05-.08-.08-.12-.23.29-3.37 3.96-4.51 4.13-.28.14-.58.27-.87.39a10.862 10.862 0 01-1.38.39c-.31.06-.62.1-.94.13-.16.01-.32.02-.48.02-.25.02-.49.03-.74.03a14 14 0 01-2.04-.15 12.042 12.042 0 01-1.18-.31 11.371 11.371 0 01-1.14-.47 9.848 9.848 0 01-1.11-.59c-.21-.13-.41-.27-.61-.41-.08-.06-.16-.13-.24-.2-.14-.12-.28-.25-.41-.38l-.01-.01a7.21 7.21 0 01-.57-.67 6.623 6.623 0 01-.69-1.18 9.185 9.185 0 01-.64-1.55h-6.67v-.5h6.67a9.185 9.185 0 00.64 1.55 6.623 6.623 0 00.69 1.18 7.21 7.21 0 00.57.67c.1.11.21.21.32.31s.22.18.33.28l.01.01q.405.285.84.54c.29.16.58.32.88.45a11.371 11.371 0 001.14.47 8.2 8.2 0 001.18.31 13.733 13.733 0 002.02.15c.25 0 .51-.01.76-.02a3.866 3.866 0 00.48-.03 7.33 7.33 0 00.94-.13 8.332 8.332 0 001.38-.39c.29-.12.59-.25.87-.39 1.14-.17 4.28-3.84 4.51-4.13.15.24.31.49.48.71a10.879 10.879 0 002.45 2.74 10.269 10.269 0 001.01.72 4.333 4.333 0 00.71.5 4.778 4.778 0 00.79.38 8.878 8.878 0 004.95.14 8.653 8.653 0 002.34-.97 10.521 10.521 0 002.14-1.4l.68-.7c.38-.47.74-.96 1.07-1.46.34-.54.64-1.03.9-1.52h20.55c.23-.02.46-.04.68-.07.46-.05.91-.12 1.36-.2l.48-.09c.03.15.069.311.11.46z" fill="#435b55"/>
    <path d="M76.57 68.15v.01c-.04.01-.07.01-.11.02a9.48 9.48 0 01-.16-1.43 2.048 2.048 0 01.05.24 7.049 7.049 0 00.13.78 2.615 2.615 0 00.09.38z" fill="#435b55"/>
    <path d="M76.59 64.07c-.04.16-.08.33-.12.5a4.535 4.535 0 01.12-.5zM76.57 68.15a2.615 2.615 0 01-.09-.38c-.04-.22-.08-.45-.11-.68.08.35.15.711.2 1.06z" fill="#dcf4ee"/>
    <path d="M76.47 68.19c.03.15.07.31.1.46-.04-.15-.08-.31-.11-.46h.01z" fill="#435b55"/>
    <path fill="#dcf4ee" d="M76.46 68.181l.01.01h-.01v-.01zM76.46 68.18v.01l-.48.09c.16-.03.31-.06.47-.1h.01zM76.46 68.18h-.01a8.94 8.94 0 01-.16-1.48.09.09 0 00.01.05 9.48 9.48 0 00.16 1.43z"/>
    <path d="M76.37 67.09c.03.23.07.46.11.68a7.049 7.049 0 01-.13-.78.355.355 0 01.02.1z" fill="#435b55"/>
    <path d="M76.37 67.09a.355.355 0 00-.02-.1c-.03-.19-.04-.39-.06-.59v-.17c0 .01.01.01.01.02a7.927 7.927 0 00.07.84z" fill="#435b55"/>
    <path d="M76.35 66.99a2.048 2.048 0 00-.05-.24c-.01-.11-.01-.23-.01-.35.02.201.03.401.06.59z" fill="#435b55"/>
    <path d="M76.47 64.57c-.06.31-.11.63-.14.95a6.045 6.045 0 01.14-.95zM76.3 65.88v.26a.487.487 0 01-.01-.12v-.14h.01z" fill="#dcf4ee"/>
    <path d="M76.3 66.25c0-.01-.01-.01-.01-.02v-.029a.019.019 0 010-.03.014.014 0 010-.02.01.01 0 01.01-.01.4.4 0 000 .109z" fill="#435b55"/>
    <path d="M76.3 66.75a.09.09 0 01-.01-.05c-.01-.1-.01-.2-.01-.3v-.21l.01.01v.2c0 .12 0 .24.01.35z" fill="#dcf4ee"/>
    <path d="M76.28 66.401c0 .1 0 .2.01.3-.06-.23-.12-.46-.18-.68l-10.33.17v-.5l10.33-.17c.06.22.12.43.17.65v.23zM75.65 62.701c-.32.06-.65.11-.97.15h-8.9v-.01h8.9c.32-.04.649-.091.97-.14z" fill="#dcf4ee"/>
    <path d="M75.65 63.201c-.32.06-.65.11-.97.15h-8.9v-.01h8.9c.32-.04.649-.091.97-.14z" fill="#435b55"/>
    <path d="M74.62 68.48z" fill="#dcf4ee"/>
    <path d="M74.62 68.98z" fill="#435b55"/>
    <path d="M74.62 68.48c-.22.03-.45.05-.68.07H53.39v-.01h20.55z" fill="#dcf4ee"/>
    <path d="M74.62 68.98c-.22.03-.45.05-.68.07H53.39v-.01h20.55z" fill="#435b55"/>
    <path fill="#dcf4ee" d="M54.38 5.871h19.97v.5H54.38z"/>
    <path d="M74.35 4.93v.94H54.38v-.94a1.425 1.425 0 011.42-1.42h17.129a1.425 1.425 0 011.421 1.42z" fill="#b1e5cf"/>
    <path d="M74.35 4.43v.5a1.425 1.425 0 00-1.42-1.42H55.8a1.425 1.425 0 00-1.42 1.42v-.5a1.425 1.425 0 011.42-1.42h17.129a1.425 1.425 0 011.421 1.42z" fill="#226d5b"/>
    <path fill="#95d8bf" d="M74.32 37.081v.49h-.06v-2.35h.06v1.86zM74.26 34.721h.06v.5h-.06z"/>
    <path fill="#fff" d="M74.32 28.991l-.07.03v-.03h.07zM74.32 29.491l-.07.03v-.03h.07zM74.25 29.021v.47H71.4v-.5h2.85v.03z"/>
    <path fill="#95d8bf" d="M71.4 26.671h2.85v2.32H71.4z"/>
    <path fill="#666" d="M71.4 26.171h2.85v.5H71.4z"/>
    <path fill="#dcf4ee" d="M65.76 54.171v.49h-.05v-33.68h.05v33.19zM65.76 20.491v.49h-.05v-.5h.05v.01zM62.929 65.69v.5h-8.64a4.261 4.261 0 00.06-.5h8.58z"/>
    <path d="M62.929 57.64v8.05h-8.58a7.705 7.705 0 00.04-1.27 9.716 9.716 0 00-2.51-6.78h11.05zM62.929 57.14v.5H51.88c-.15-.17-.31-.34-.48-.5h11.529z" fill="#226d5b"/>
    <path fill="#dcf4ee" d="M62.93 54.791v.02h-2.85v-.5h2.85v.48z"/>
    <path fill="#62ccab" d="M62.93 54.291v.02h-2.85v-14.31h-22.8v14.24h-2.85v-16.54h28.5v16.59zM34.43 37.201h28.5v.5h-28.5z"/>
    <path fill="#dcf4ee" d="M34.43 34.351h28.5v.5h-28.5zM37.28 40.001h22.8v.5h-22.8z"/>
    <path fill="#666" d="M37.28 31.931h22.79v.5H37.28z"/>
    <path d="M60.07 20.99v10.94H37.28V20.99h22.79zm-2.85 8.64v-6.26H40.129v6.26h17.09z" fill="#fff"/>
    <path fill="#fff" d="M37.28 20.491h22.79v.5H37.28z"/>
    <path fill="#dcf4ee" d="M40.14 54.291h17.09v.5H40.14z"/>
    <path fill="#c1ebe2" d="M40.14 43.401h17.09v10.89H40.14z"/>
    <path fill="#538772" d="M40.14 42.901h17.09v.5H40.14z"/>
    <path fill="#fff" d="M40.13 29.131h17.09v.5H40.13z"/>
    <path fill="#e7edab" d="M40.13 23.871h17.09v5.26H40.13z"/>
    <path fill="#666" d="M40.13 23.371h17.09v.5H40.13z"/>
    <path d="M51.88 57.64a9.716 9.716 0 012.51 6.78 9.753 9.753 0 00-2.99-6.78h.48z" fill="#dcf4ee"/>
    <path d="M54.39 64.42a7.705 7.705 0 01-.04 1.27h-.06a8.938 8.938 0 00.1-1.27z" fill="#397dc6"/>
    <path d="M52.8 1.47a4.317 4.317 0 00-.74.96 4.317 4.317 0 01.74-.96zM52.8 1.97a4.317 4.317 0 00-.74.96 4.317 4.317 0 01.74-.96zM37.28 5.871h14.24v.5H37.28z" fill="#dcf4ee"/>
    <path d="M51.5 63.79a3.976 3.976 0 01.01.69 1.62 1.62 0 00-.01-.22 1.948 1.948 0 00-.02-.25c-.01-.07-.01-.13-.02-.19a1.7 1.7 0 00-.04-.22c-.01-.09-.03-.19-.04-.28-.02-.06-.03-.11-.05-.17a.06.06 0 00-.01-.04 1.163 1.163 0 00-.04-.18c-.01-.02-.01-.05-.02-.07s-.01-.04-.02-.06a2.4 2.4 0 00-.12-.38.487.487 0 00-.04-.11.037.037 0 00-.01-.03.142.142 0 00-.02-.06c-.06-.14-.11-.28-.18-.42a.8.8 0 00-.08-.16 2.962 2.962 0 00-.15-.31c-.05-.09-.1-.18-.15-.26-.01-.01-.02-.03-.03-.04a1.3 1.3 0 00-.1-.15 3.713 3.713 0 00-.28-.41 4.943 4.943 0 00-.36-.44 2.089 2.089 0 00-.2-.22l-.04-.04c-.02-.02-.03-.04-.05-.06a3.653 3.653 0 00-.3-.27.043.043 0 00-.03-.03 3.542 3.542 0 00-.42-.35.219.219 0 01-.05-.03 3.087 3.087 0 00-.37-.26.673.673 0 00-.11-.07 3.3 3.3 0 00-.45-.26h-.01a2.768 2.768 0 00-.46-.22l-.06-.03a2.9 2.9 0 00-.41-.16.487.487 0 00-.11-.04.037.037 0 00-.03-.01c-.06-.02-.13-.04-.2-.06s-.16-.05-.23-.07l-.1-.03c-.05-.01-.09-.02-.13-.03-.12-.03-.25-.05-.38-.07a.127.127 0 00-.06-.01 2.13 2.13 0 00-.25-.03c-.04-.01-.09-.01-.14-.02a7 7 0 00-1.71.02c-.16.02-.33.05-.49.08s-.31.07-.47.11-.3.09-.44.14-.29.1-.43.16a7.837 7.837 0 00-.82.41c-.13.08-.25.16-.38.24l-.01.01c-.12.08-.24.17-.35.25l-.01.01a7.02 7.02 0 00-2.48 3.711v.01a6.866 6.866 0 00-.25 1.55 7.21 7.21 0 01.26-2.05h-.01v-.01a7.02 7.02 0 012.48-3.71h.009a.01.01 0 01.01-.01c.11-.08.22-.17.34-.25h.01c.13-.09.25-.17.38-.25s.29-.15.43-.22a5.944 5.944 0 01.82-.35c.14-.05.29-.09.44-.13l.35-.09c.2-.04.41-.08.61-.11a6.862 6.862 0 011.43-.04 2.635 2.635 0 01.28.02c.05.01.1.01.14.02a2.512 2.512 0 01.27.04c.19.03.38.07.56.11a.292.292 0 00.09.02c.08.03.16.05.23.07s.14.04.2.06a.037.037 0 00.03.01c.04.01.08.03.11.04.14.05.27.1.41.16l.06.03c.16.07.31.14.46.22h.01c.15.08.3.17.45.26a.673.673 0 01.11.07c.12.08.25.17.37.26a.219.219 0 00.05.03c.14.11.28.23.42.35a.043.043 0 01.03.03 3.606 3.606 0 01.35.33l.04.04c.07.07.13.14.2.22a4.031 4.031 0 01.26.32 1.992 1.992 0 01.24.33.9.9 0 01.14.2 1.3 1.3 0 01.1.15c.01.01.02.03.03.04.05.08.1.17.15.26a1.664 1.664 0 01.13.27 1.244 1.244 0 01.1.2 2.277 2.277 0 01.15.36c.02.04.03.08.05.12a.037.037 0 01.01.03 4.009 4.009 0 01.16.49c.01.02.01.04.02.06s.01.05.02.07c.01.06.03.12.04.18a.06.06 0 01.01.04 3.583 3.583 0 01.09.45 2.572 2.572 0 01.05.4l.01.01a2.635 2.635 0 01.021.279z" fill="#305a7f"/>
    <path d="M51.51 64.52a6.906 6.906 0 01-.25 2.16 7 7 0 01-.7 1.69c-.09.13-.16.25-.25.38 0 0 .01 0 0 .01a6.943 6.943 0 01-.85 1.03c-.11.11-.22.22-.34.32a6.237 6.237 0 01-.72.55 5.95 5.95 0 01-.77.45 7.859 7.859 0 01-.84.36s0-.01-.01 0c-.14.05-.29.09-.44.13l-.46.12c-.17.03-.33.06-.5.08a6.878 6.878 0 01-1.5.04.375.375 0 01-.11-.01c-.17-.02-.33-.04-.5-.07h-.01a4.865 4.865 0 01-.55-.11l-.12-.03c-.11-.03-.22-.06-.32-.09a1.066 1.066 0 01-.19-.07c-.14-.05-.27-.1-.4-.15a.536.536 0 01-.11-.05c-.14-.06-.27-.12-.4-.19a.161.161 0 01-.07-.04q-.24-.12-.48-.27a.053.053 0 01-.03-.02c-.15-.1-.31-.2-.46-.32a4.943 4.943 0 01-.44-.36c-.11-.09-.21-.19-.31-.29a.339.339 0 01-.06-.06l-.05-.05c-.06-.06-.12-.13-.18-.2a.21.21 0 01-.06-.08 1.92 1.92 0 01-.14-.15l-.12-.15c-.04-.05-.08-.1-.12-.16a.053.053 0 01-.02-.03l-.19-.28a.6.6 0 01-.09-.15c-.04-.06-.08-.12-.12-.19s-.07-.12-.1-.18a.8.8 0 01-.08-.16l-.15-.33a.943.943 0 01-.1-.23.492.492 0 01-.06-.17c-.01 0-.01 0-.01-.01a.284.284 0 01-.04-.12.062.062 0 01-.02-.07.864.864 0 01-.07-.21 3.374 3.374 0 01-.1-.34 8.181 8.181 0 01-.19-1.12.03.03 0 010-.04 4.092 4.092 0 01-.01-.7.656.656 0 00.01.2.03.03 0 000 .04 6.327 6.327 0 00.17 1.06.142.142 0 00.02.06 1.046 1.046 0 00.04.17c0 .01.01.03.01.04a.694.694 0 00.05.13 1.309 1.309 0 00.09.28.284.284 0 00.04.12v.011a.865.865 0 00.07.17.943.943 0 00.1.23 1.658 1.658 0 00.15.33.8.8 0 00.08.16 1.618 1.618 0 00.1.18 1 1 0 00.12.19.6.6 0 00.09.15 2.75 2.75 0 00.19.28.053.053 0 00.02.03c.04.06.08.11.12.16l.12.15v.01c.06.07.13.15.2.22a1.624 1.624 0 00.18.2.121.121 0 00.05.05.339.339 0 00.06.06c.1.1.2.2.31.29a4.943 4.943 0 00.44.36 3.455 3.455 0 00.46.32.053.053 0 00.03.02 3.907 3.907 0 00.44.26.142.142 0 01.04.02.488.488 0 00.07.03 2.088 2.088 0 00.4.19.536.536 0 00.11.05 2.74 2.74 0 00.4.15 1.066 1.066 0 00.19.07 1.975 1.975 0 00.26.08 1.046 1.046 0 00.17.04h.01a3.57 3.57 0 00.55.11h.01a2.865 2.865 0 00.5.07.487.487 0 00.12.01 5.711 5.711 0 001.49-.04c.17-.02.33-.05.5-.08.15-.03.31-.07.47-.11s.29-.09.43-.14c.01-.01.01 0 .01 0a6.652 6.652 0 001.24-.57.02.02 0 01.02-.01 6.456 6.456 0 001.08-.78c.11-.11.23-.21.33-.32a6.943 6.943 0 00.85-1.03l.01-.01v-.01a7 7 0 00.94-2.06 4.37 4.37 0 00.12-.49c.03-.15.06-.31.08-.46a5.519 5.519 0 00.05-.711z" fill="#dcf4ee"/>
    <path d="M51.51 64.48a.03.03 0 010 .04 5.519 5.519 0 01-.05.71c-.03.15-.05.31-.08.46a4.37 4.37 0 01-.12.49 7 7 0 01-.94 2.06l-.01.01s.01 0 0 .01a6.943 6.943 0 01-.85 1.03 7.873 7.873 0 01-.68.6c-.12.09-.24.18-.36.26a7.747 7.747 0 01-.79.46 7.859 7.859 0 01-.84.36s0-.01-.01 0c-.14.05-.29.09-.44.13l-.46.12c-.17.03-.33.06-.5.08a6.772 6.772 0 01-1.49.04.487.487 0 01-.12-.01c-.17-.02-.33-.04-.5-.07h-.01a4.865 4.865 0 01-.55-.11h-.01c-.15-.04-.29-.08-.43-.12a1.066 1.066 0 01-.19-.07c-.14-.05-.27-.1-.4-.15a.536.536 0 01-.11-.05c-.14-.06-.27-.12-.4-.19a.161.161 0 01-.07-.04q-.24-.12-.48-.27a.053.053 0 01-.03-.02c-.15-.1-.31-.2-.46-.32a4.943 4.943 0 01-.44-.36c-.11-.09-.21-.19-.31-.29a.339.339 0 01-.06-.06l-.05-.05c-.06-.06-.12-.13-.18-.2a.21.21 0 01-.06-.08 1.92 1.92 0 01-.14-.15l-.12-.15c-.04-.05-.08-.1-.12-.16a.053.053 0 01-.02-.03l-.19-.28a.6.6 0 01-.09-.15c-.04-.06-.08-.12-.12-.19s-.07-.12-.1-.18a.8.8 0 01-.08-.16l-.15-.33a.943.943 0 01-.1-.23.492.492 0 01-.06-.17c-.01 0-.01 0-.01-.01a.284.284 0 01-.04-.12 1.309 1.309 0 01-.09-.28.5.5 0 01-.04-.13l-.06-.21a.127.127 0 01-.01-.06 7.329 7.329 0 01-.18-1.06.03.03 0 010-.04c0-.06-.01-.13-.01-.2v-.089a6.584 6.584 0 01.25-1.69h-.01v-.01a7.02 7.02 0 012.48-3.71h.009c.11-.09.23-.18.35-.26h.01c.13-.09.25-.17.38-.25s.27-.14.4-.21a6.372 6.372 0 01.85-.36c.14-.05.29-.09.44-.13l.47-.12c.16-.03.33-.06.49-.08a6.862 6.862 0 011.43-.04 2.635 2.635 0 01.28.02c.05.01.1.01.14.02a2.512 2.512 0 01.27.04c.19.03.38.07.56.11a.292.292 0 00.09.02c.08.03.16.05.23.07s.14.04.2.06a.037.037 0 00.03.01c.04.01.08.03.11.04.14.05.27.1.41.16l.06.03c.16.07.31.14.46.22h.01c.15.08.3.17.45.26a.673.673 0 01.11.07c.12.08.25.17.37.26a.219.219 0 00.05.03c.14.11.28.23.42.35a.043.043 0 01.03.03 3.606 3.606 0 01.35.33l.04.04c.07.07.13.14.2.22a4.031 4.031 0 01.26.32 1.992 1.992 0 01.24.33.9.9 0 01.14.2 1.3 1.3 0 01.1.15c.01.01.02.03.03.04.05.08.1.17.15.26a1.772 1.772 0 01.15.31.8.8 0 01.08.16c.07.15.14.31.2.48a.037.037 0 01.01.03c.06.16.11.32.16.49.01.02.01.04.02.06s.01.05.02.07c.01.06.03.12.04.18a.06.06 0 01.01.04 1.364 1.364 0 01.04.17 2.741 2.741 0 01.05.28 2.572 2.572 0 01.05.4l.01.01a1.948 1.948 0 01.02.25 1.62 1.62 0 01.011.219zm-2.85.36a2.09 2.09 0 00.01-.25 4.265 4.265 0 10-8.53 0 3.13 3.13 0 010 .5 4.265 4.265 0 108.53 0 2.09 2.09 0 00-.01-.25z" fill="#305a7f"/>
    <path d="M51.48 63.51a2.458 2.458 0 01.02.28 2.635 2.635 0 00-.02-.28z" fill="#435b55"/>
    <path d="M51.48 64.01a1.948 1.948 0 01.02.25 1.948 1.948 0 00-.02-.25z" fill="#305a7f"/>
    <path d="M51.46 63.32c.01.06.01.12.02.19l-.01-.01a1.087 1.087 0 00-.01-.18z" fill="#dcf4ee"/>
    <path d="M51.46 63.82c.01.06.01.12.02.19l-.01-.01a1.087 1.087 0 00-.01-.18zM51.47 63.501a2.572 2.572 0 00-.05-.4 1.7 1.7 0 01.04.22 1.087 1.087 0 01.01.18z" fill="#305a7f"/>
    <path d="M51.47 64.001a2.572 2.572 0 00-.05-.4 1.7 1.7 0 01.04.22 1.087 1.087 0 01.01.18zM51.46 65.23c-.02.15-.05.31-.08.46.03-.15.049-.31.08-.46zM51.329 62.65a3.583 3.583 0 01.09.45 3.583 3.583 0 00-.09-.45zM51.38 63.32c.01.09.03.19.04.28a2.741 2.741 0 00-.05-.28h.01zM51.329 63.15c.02.06.03.11.05.17h-.01a1.364 1.364 0 00-.04-.17z" fill="#305a7f"/>
    <path d="M51.28 62.43a1.163 1.163 0 01.04.18c-.01-.06-.03-.12-.04-.18z" fill="#435b55"/>
    <path d="M51.28 62.93a1.163 1.163 0 01.04.18c-.01-.06-.03-.12-.04-.18z" fill="#305a7f"/>
    <path d="M51.24 62.301a4.009 4.009 0 00-.16-.49c.06.159.11.319.16.49z" fill="#435b55"/>
    <path d="M51.24 62.801a2.4 2.4 0 00-.12-.38 2.4 2.4 0 01.12.38z" fill="#305a7f"/>
    <path d="M51.12 62.42a2.4 2.4 0 01.12.38c-.05-.17-.1-.33-.16-.49a.487.487 0 01.04.11z" fill="#305a7f"/>
    <path d="M51.02 61.66a.612.612 0 01.05.12c-.02-.04-.03-.079-.05-.12z" fill="#435b55"/>
    <path d="M51.05 62.22a.142.142 0 01.02.06c-.06-.17-.13-.33-.2-.48a3.122 3.122 0 01.18.42z" fill="#305a7f"/>
    <path d="M51.05 62.22a3.122 3.122 0 00-.18-.42c.07.14.12.28.18.42z" fill="#305a7f"/>
    <path d="M51.02 61.66a2.277 2.277 0 00-.15-.36 2.749 2.749 0 01.15.36z" fill="#435b55"/>
    <path d="M50.79 61.64a1.772 1.772 0 00-.15-.31 2.962 2.962 0 01.15.31z" fill="#305a7f"/>
    <path d="M50.77 61.101a1.664 1.664 0 00-.13-.27c.04.079.089.179.13.27z" fill="#435b55"/>
    <path d="M50.64 60.83c-.05-.09-.1-.18-.15-.26.05.08.1.17.15.26zM50.64 61.33c-.05-.09-.1-.18-.15-.26.05.08.1.17.15.26z" fill="#305a7f"/>
    <path d="M50.56 68.37c-.08.13-.16.25-.24.38h-.01c.09-.13.16-.249.25-.38z" fill="#dcf4ee"/>
    <path d="M50.36 60.38a1.3 1.3 0 01.1.15 1.3 1.3 0 00-.1-.15z" fill="#435b55"/>
    <path d="M50.36 60.88a1.3 1.3 0 01.1.15 1.3 1.3 0 00-.1-.15z" fill="#305a7f"/>
    <path d="M50.36 60.38a.9.9 0 00-.14-.2.853.853 0 00-.14-.21 3.713 3.713 0 01.28.41z" fill="#dcf4ee"/>
    <path d="M50.36 60.88a.9.9 0 00-.14-.2.853.853 0 00-.14-.21 3.713 3.713 0 01.28.41z" fill="#305a7f"/>
    <path d="M50.32 68.24v.01h-.01zM50.32 68.25l-.01.01c.01-.01 0-.01 0-.01h.01z"/>
    <path d="M50.32 68.75l-.01.01c.01-.01 0-.01 0-.01h.01z" fill="#dcf4ee"/>
    <path d="M50.22 60.18a1.992 1.992 0 00-.24-.33 1.059 1.059 0 01.1.12.853.853 0 01.14.21z" fill="#435b55"/>
    <path d="M50.22 60.68a1.992 1.992 0 00-.24-.33 1.059 1.059 0 01.1.12.853.853 0 01.14.21z" fill="#305a7f"/>
    <path d="M50.08 59.97a1.059 1.059 0 00-.1-.12 4.031 4.031 0 00-.26-.32 4.943 4.943 0 01.36.44z" fill="#dcf4ee"/>
    <path d="M50.08 60.47a1.059 1.059 0 00-.1-.12 4.031 4.031 0 00-.26-.32 4.943 4.943 0 01.36.44z" fill="#305a7f"/>
    <path d="M49.72 59.53c-.07-.08-.13-.15-.2-.22a2.089 2.089 0 01.2.22z" fill="#dcf4ee"/>
    <path d="M49.72 60.03c-.07-.08-.13-.15-.2-.22a2.089 2.089 0 01.2.22z" fill="#305a7f"/>
    <path d="M49.48 59.27a3.606 3.606 0 00-.35-.33l.3.27c.02.02.03.04.05.06z" fill="#435b55"/>
    <path d="M49.48 59.77a3.606 3.606 0 00-.35-.33l.3.27c.02.02.03.04.05.06z" fill="#305a7f"/>
    <path d="M49.46 69.29c-.1.11-.22.21-.33.32-.11.09-.23.19-.35.28a7.873 7.873 0 00.68-.6z"/>
    <path d="M49.46 69.79c-.11.11-.22.22-.34.32.12-.1.23-.209.34-.32z" fill="#dcf4ee"/>
    <path d="M49.429 59.21l-.3-.27a3.653 3.653 0 01.3.27z" fill="#435b55"/>
    <path d="M49.429 59.71l-.3-.27a3.653 3.653 0 01.3.27z" fill="#305a7f"/>
    <path d="M48.78 69.89c.12-.09.24-.19.35-.28a6.456 6.456 0 01-1.08.78c.13-.08.25-.16.37-.24s.24-.17.36-.26z"/>
    <path d="M49.1 58.91c-.14-.12-.28-.24-.42-.35a3.542 3.542 0 01.42.35z" fill="#435b55"/>
    <path d="M49.1 59.41c-.14-.12-.28-.24-.42-.35a3.542 3.542 0 01.42.35z" fill="#305a7f"/>
    <path d="M48.67 64.59a2.09 2.09 0 01-.01.25 4.262 4.262 0 00-8.51 0 2.09 2.09 0 01-.01-.25 4.265 4.265 0 118.53 0z" fill="#c3d8ee"/>
    <path d="M48.66 64.84a2.09 2.09 0 01.01.25 4.265 4.265 0 11-8.53 0 2.09 2.09 0 01.01-.25 4.262 4.262 0 008.51 0z"/>
    <path d="M48.629 58.53c-.12-.09-.25-.18-.37-.26a3.087 3.087 0 01.37.26z" fill="#435b55"/>
    <path d="M48.629 59.03c-.12-.09-.25-.18-.37-.26a3.087 3.087 0 01.37.26z" fill="#305a7f"/>
    <path d="M48.42 70.15c-.12.08-.24.16-.37.24a.02.02 0 00-.02.01c-.13.07-.26.14-.4.21a7.747 7.747 0 00.79-.46z"/>
    <path d="M48.4 70.66a6.237 6.237 0 00.72-.55 6.51 6.51 0 01-1.08.79z" fill="#dcf4ee"/>
    <path d="M48.4 70.66l-.36.24s-.01-.01-.01 0c-.13.07-.26.14-.4.21a5.95 5.95 0 00.77-.45z" fill="#dcf4ee"/>
    <path d="M48.15 58.201c-.15-.09-.3-.18-.45-.26a3.3 3.3 0 01.45.26z" fill="#435b55"/>
    <path d="M48.15 58.701c-.15-.09-.3-.18-.45-.26a3.3 3.3 0 01.45.26z" fill="#305a7f"/>
    <path d="M47.629 70.61c.14-.07.27-.14.4-.21a6.652 6.652 0 01-1.24.57 7.859 7.859 0 00.84-.36z"/>
    <path d="M47.629 71.11c.14-.07.27-.14.4-.21a6.652 6.652 0 01-1.24.57 7.859 7.859 0 00.84-.36z" fill="#dcf4ee"/>
    <path d="M47.69 57.94a6.5 6.5 0 00-.46-.22 2.768 2.768 0 01.46.22z" fill="#435b55"/>
    <path d="M47.69 58.44a6.5 6.5 0 00-.46-.22 2.768 2.768 0 01.46.22z" fill="#305a7f"/>
    <path d="M47.42 62.07a4.262 4.262 0 11-3.02-1.25 4.236 4.236 0 013.02 1.25zm-1.6 2.53a1.415 1.415 0 10-1.42 1.42v-.019a1.415 1.415 0 001.42-1.4z" fill="#c3d8ee"/>
    <path d="M47.17 57.69c-.14-.06-.27-.11-.41-.16a2.9 2.9 0 01.41.16z" fill="#435b55"/>
    <path d="M47.17 58.19c-.14-.06-.27-.11-.41-.16a2.9 2.9 0 01.41.16z" fill="#305a7f"/>
    <path d="M46.78 70.97a5.41 5.41 0 01-.9.25l.46-.12c.15-.04.3-.08.44-.13z"/>
    <path d="M46.78 71.47a5.41 5.41 0 01-.9.25l.46-.12c.15-.04.3-.08.44-.13z" fill="#dcf4ee"/>
    <path d="M46.76 57.53c-.03-.01-.07-.03-.11-.04a.487.487 0 01.11.04zM46.76 58.03c-.03-.01-.07-.03-.11-.04a.487.487 0 01.11.04zM46.65 57.49a.037.037 0 01-.03-.01.037.037 0 01.03.01zM46.65 57.99a.037.037 0 01-.03-.01.037.037 0 01.03.01zM46.19 57.35c.07.02.15.05.23.07-.07-.019-.15-.04-.23-.07zM46.19 57.85c.07.02.15.05.23.07-.07-.019-.15-.04-.23-.07zM46.19 57.35a.292.292 0 01-.09-.02l-.01-.01.1.03zM46.19 57.85a.292.292 0 01-.09-.02l-.01-.01.1.03z" fill="#305a7f"/>
    <path d="M46.1 57.33c-.18-.04-.37-.08-.56-.11a.053.053 0 01.04 0 5.062 5.062 0 01.51.1zM46.1 57.83c-.18-.04-.37-.08-.56-.11a.053.053 0 01.04 0 5.062 5.062 0 01.51.1z" fill="#305a7f"/>
    <path d="M45.96 57.29c-.13-.03-.25-.05-.38-.07.13.02.26.04.38.07z" fill="#435b55"/>
    <path d="M45.96 57.79c-.13-.03-.25-.05-.38-.07.13.02.26.04.38.07zM45.58 57.22a.053.053 0 00-.04 0 .035.035 0 00-.02-.01.127.127 0 01.06.01zM45.58 57.72a.053.053 0 00-.04 0 .035.035 0 00-.02-.01.127.127 0 01.06.01z" fill="#305a7f"/>
    <path d="M45.52 57.21a.035.035 0 01.02.01 2.512 2.512 0 00-.27-.04 2.13 2.13 0 01.25.03zM45.52 57.71a.035.035 0 01.02.01 2.512 2.512 0 00-.27-.04 2.13 2.13 0 01.25.03zM45.129 57.16a2.635 2.635 0 00-.28-.02 2.458 2.458 0 01.28.02zM45.129 57.66a2.635 2.635 0 00-.28-.02 2.458 2.458 0 01.28.02z" fill="#305a7f"/>
    <path d="M45.129 57.16a2.458 2.458 0 00-.28-.02 6.862 6.862 0 00-1.43.04 7 7 0 011.71-.02zM45.129 57.66a2.458 2.458 0 00-.28-.02 6.862 6.862 0 00-1.43.04 7 7 0 011.71-.02z" fill="#305a7f"/>
    <path d="M45.38 71.301a5.711 5.711 0 01-1.49.04 6.772 6.772 0 001.49-.04z"/>
    <path d="M45.38 71.801a5.8 5.8 0 01-1.5.04 6.878 6.878 0 001.5-.04z" fill="#dcf4ee"/>
    <path d="M44.4 63.19a1.405 1.405 0 110 2.81v.02a1.415 1.415 0 010-2.83z" fill="#305a7f"/>
    <path d="M41.31 74.45a8.785 8.785 0 004.95.15 8.878 8.878 0 01-4.95-.14 4.778 4.778 0 01-.79-.38 5.682 5.682 0 00.79.37z" fill="#dcf4ee"/>
    <path d="M41.31 74.95a8.785 8.785 0 004.95.15 8.878 8.878 0 01-4.95-.14 4.778 4.778 0 01-.79-.38 5.682 5.682 0 00.79.37z" fill="#435b55"/>
    <path d="M43.27 71.26c.17.03.33.05.5.07a2.865 2.865 0 01-.5-.07z"/>
    <path d="M43.27 71.76c.17.03.33.05.5.07a2.865 2.865 0 01-.5-.07z" fill="#dcf4ee"/>
    <path d="M42.71 71.15a4.865 4.865 0 00.55.11 3.57 3.57 0 01-.55-.11z"/>
    <path d="M42.71 71.65a4.865 4.865 0 00.55.11 3.57 3.57 0 01-.55-.11z" fill="#dcf4ee"/>
    <path d="M42.929 57.76l-.47.12c-.15.04-.3.08-.44.13.14-.05.29-.1.44-.14s.321-.08.47-.11zM42.81 57.29l-.35.09c-.15.04-.3.08-.44.13.14-.05.29-.1.44-.14.12-.03.23-.06.35-.08z" fill="#305a7f"/>
    <path d="M42.7 71.15a1.046 1.046 0 01-.17-.04 1.975 1.975 0 01-.26-.08c.14.04.28.08.43.12z"/>
    <path d="M42.59 71.62a.127.127 0 01-.06-.01 1.975 1.975 0 01-.26-.08c.1.03.21.06.32.09z" fill="#dcf4ee"/>
    <path d="M41.68 70.81c.13.05.26.1.4.15a2.74 2.74 0 01-.4-.15z"/>
    <path d="M41.68 71.31c.13.05.26.1.4.15a2.74 2.74 0 01-.4-.15z" fill="#dcf4ee"/>
    <path d="M41.59 57.67c.14-.06.28-.11.43-.16a5.944 5.944 0 00-.82.35c.129-.07.25-.13.39-.19zM41.59 58.17c.14-.06.28-.11.43-.16a6.372 6.372 0 00-.85.36c.14-.069.27-.14.42-.2z" fill="#305a7f"/>
    <path d="M41.59 57.67c-.14.06-.26.12-.39.19s-.29.14-.43.22a7.837 7.837 0 01.82-.41zM41.59 58.17c-.15.06-.28.13-.42.2s-.27.14-.4.21a7.837 7.837 0 01.82-.41z" fill="#305a7f"/>
    <path d="M41.17 70.57c.13.07.26.13.4.19a2.088 2.088 0 01-.4-.19z"/>
    <path d="M41.17 71.07c.13.07.26.13.4.19a2.088 2.088 0 01-.4-.19z" fill="#dcf4ee"/>
    <path d="M41.1 70.53a.161.161 0 00.07.04.488.488 0 01-.07-.03v-.01z"/>
    <path d="M41.1 71.03a.161.161 0 00.07.04.488.488 0 01-.07-.03v-.01zM41.1 70.53v.01a.142.142 0 00-.04-.02.03.03 0 00.04.01zM41.1 71.03v.01a.142.142 0 00-.04-.02.03.03 0 00.04.01z" fill="#dcf4ee"/>
    <path d="M41.1 70.53a.03.03 0 01-.04-.01c-.15-.09-.3-.17-.44-.26q.24.15.48.27z"/>
    <path d="M41.1 71.03a.03.03 0 01-.04-.01c-.15-.09-.3-.17-.44-.26q.24.15.48.27z" fill="#dcf4ee"/>
    <path d="M40.62 70.26c.14.09.29.17.44.26a3.907 3.907 0 01-.44-.26z"/>
    <path d="M40.62 70.76c.14.09.29.17.44.26a3.907 3.907 0 01-.44-.26z" fill="#dcf4ee"/>
    <path d="M40.77 58.08c-.13.08-.25.16-.38.25v-.01c.13-.08.25-.16.38-.24zM40.77 58.58c-.13.08-.25.16-.38.25v-.01c.13-.08.25-.16.38-.24z" fill="#305a7f"/>
    <path d="M40.129 69.92c.15.12.31.22.46.32a3.455 3.455 0 01-.46-.32z"/>
    <path d="M40.129 70.42c.15.12.31.22.46.32a3.455 3.455 0 01-.46-.32z" fill="#dcf4ee"/>
    <path fill="#305a7f" d="M40.39 58.321v.01h-.01l.01-.01zM40.39 58.821v.01h-.01l.01-.01zM40.38 58.83c-.12.08-.24.17-.35.26v-.01c.11-.079.23-.17.35-.25z"/>
    <path d="M39.81 73.57a5.105 5.105 0 00.71.51 4.333 4.333 0 01-.71-.5 10.269 10.269 0 01-1.01-.72 10.176 10.176 0 001.01.71z" fill="#dcf4ee"/>
    <path d="M39.81 74.07a5.105 5.105 0 00.71.51 4.333 4.333 0 01-.71-.5 10.269 10.269 0 01-1.01-.72 10.176 10.176 0 001.01.71z" fill="#435b55"/>
    <path fill="#dcf4ee" d="M40.14 54.291v.5h-.01v-.5h.01z"/>
    <path fill="#dcf4ee" d="M40.14 43.401v10.89h-.01V43.401h.01zM40.13 42.901h.01v.5h-.01z"/>
    <path d="M39.69 69.56a4.943 4.943 0 00.44.36 4.943 4.943 0 01-.44-.36z"/>
    <path d="M39.69 70.06a4.943 4.943 0 00.44.36 4.943 4.943 0 01-.44-.36z" fill="#dcf4ee"/>
    <path d="M40.04 58.58a.01.01 0 00-.01.01v-.01h.01zM40.029 58.58v.01h-.01zM40.029 59.08v.01h-.01z" fill="#305a7f"/>
    <path d="M39.38 69.27z"/>
    <path d="M39.38 69.77zM39.27 69.16l.05.05a.121.121 0 01-.05-.05zM39.27 69.66l.05.05a.121.121 0 01-.05-.05zM39.09 68.96c.06.07.12.14.18.2a1.624 1.624 0 01-.18-.2zM39.09 69.46c.06.07.12.14.18.2a1.624 1.624 0 01-.18-.2zM39.029 68.88a.21.21 0 00.06.08c-.07-.07-.14-.15-.2-.22zM39.029 69.38a.21.21 0 00.06.08c-.07-.07-.14-.15-.2-.22z" fill="#dcf4ee"/>
    <path d="M39.029 68.88l-.14-.14v-.01a1.92 1.92 0 00.14.15z" fill="#305a7f"/>
    <path d="M39.029 69.38l-.14-.14v-.01a1.92 1.92 0 00.14.15z" fill="#dcf4ee"/>
    <path d="M38.65 68.42c.04.06.08.11.12.16a1.96 1.96 0 01-.12-.16z"/>
    <path d="M38.65 68.92c.04.06.08.11.12.16a1.96 1.96 0 01-.12-.16z" fill="#dcf4ee"/>
    <path d="M38.44 68.11l.19.28a2.75 2.75 0 01-.19-.28z" fill="#305a7f"/>
    <path d="M38.44 68.61l.19.28a2.75 2.75 0 01-.19-.28z" fill="#dcf4ee"/>
    <path d="M38.35 67.96a1 1 0 01-.12-.19c.04.07.08.131.12.19z" fill="#305a7f"/>
    <path d="M38.35 68.46a1 1 0 01-.12-.19c.04.07.08.131.12.19zM38.129 67.59c.03.06.07.12.1.18a1.618 1.618 0 01-.1-.18zM38.129 68.09c.03.06.07.12.1.18a1.618 1.618 0 01-.1-.18z" fill="#dcf4ee"/>
    <path d="M37.9 67.101l.15.33a1.658 1.658 0 01-.15-.33z" fill="#305a7f"/>
    <path d="M37.9 67.601l.15.33a1.658 1.658 0 01-.15-.33zM37.74 66.701a.492.492 0 00.06.17.865.865 0 01-.07-.17h.01zM37.74 67.201a.492.492 0 00.06.17.865.865 0 01-.07-.17h.01z" fill="#dcf4ee"/>
    <path d="M37.729 66.69c0 .01 0 .01.01.01h-.01v-.01z" fill="#305a7f"/>
    <path d="M37.729 67.19c0 .01 0 .01.01.01h-.01v-.01z" fill="#dcf4ee"/>
    <path d="M37.6 66.29a1.309 1.309 0 00.09.28 1.309 1.309 0 01-.09-.28z"/>
    <path d="M37.67 67.001a.062.062 0 00.02.07.488.488 0 01-.03-.07h.01zM37.6 66.79a.864.864 0 00.07.21h-.01a.83.83 0 01-.06-.21zM37.56 66.16a.5.5 0 00.04.13.694.694 0 01-.05-.13h.01zM37.5 66.45a3.374 3.374 0 00.1.34.851.851 0 01-.06-.17 1.046 1.046 0 01-.04-.17z" fill="#dcf4ee"/>
    <path d="M37.5 65.95l.06.21h-.01c0-.01-.01-.03-.01-.04a1.046 1.046 0 01-.04-.17zM37.54 62.31h.01a7.21 7.21 0 00-.26 2.05 6.48 6.48 0 01.25-2.05z" fill="#305a7f"/>
    <path d="M37.54 62.81h.01a6.584 6.584 0 00-.25 1.69.615.615 0 01-.01-.14 6.866 6.866 0 01.25-1.55z" fill="#305a7f"/>
    <path d="M37.49 65.89a.127.127 0 00.01.06.142.142 0 01-.02-.06h.01zM37.5 66.45a6.1 6.1 0 01-.19-1.12 8.181 8.181 0 00.19 1.12z" fill="#dcf4ee"/>
    <path d="M37.49 65.89h-.01a6.327 6.327 0 01-.17-1.06 7.329 7.329 0 00.18 1.06z" fill="#305a7f"/>
    <path d="M37.44 57.13c-.15.15-.29.3-.44.46.14-.16.28-.31.43-.46h.01z" fill="#435b55"/>
    <path d="M37.44 57.63c-.15.15-.29.3-.44.46.14-.16.28-.31.43-.46h.01z" fill="#dcf4ee"/>
    <path d="M37.429 57.13c-.15.15-.29.3-.43.46v.011a.043.043 0 00-.03.03h-2.22c-.15-.17-.31-.34-.47-.5h3.15z" fill="#226d5b"/>
    <path d="M35.87 59.16a.053.053 0 00.02-.03c.04-.06.07-.11.11-.16a3.03 3.03 0 01.24-.38 5.476 5.476 0 01.35-.49c.12-.16.25-.32.38-.47h.459c-.15.15-.29.3-.43.46s-.28.33-.41.51a9.861 9.861 0 00-.72 1.06v-.03c-.09-.14-.17-.27-.26-.4-.15-.22-.31-.44-.48-.65-.27-.33-.55-.65-.85-.95h.47c.13.15.26.3.38.45.26.34.51.68.74 1.05v.03z" fill="#dcf4ee"/>
    <path d="M37.3 64.59c0 .07.01.14.01.2a.656.656 0 01-.01-.2z" fill="#305a7f"/>
    <path d="M37.3 64.59a4.092 4.092 0 00.01.7 4.606 4.606 0 01-.02-.83.57.57 0 00.01.13z" fill="#dcf4ee"/>
    <path d="M37.29 64.36a.615.615 0 00.01.14v.09a.57.57 0 01-.01-.13.17.17 0 010-.1z" fill="#305a7f"/>
    <path fill="#dcf4ee" d="M34.43 54.241h2.85v.5h-2.85zM37.28 4.43v.5A4.289 4.289 0 0033.01.75h-8.55a4.287 4.287 0 00-4.27 4.27v-.5A4.287 4.287 0 0124.46.25h8.55a4.289 4.289 0 014.27 4.18z"/>
    <path d="M37 57.601a.053.053 0 00-.02.03h-.01a.043.043 0 01.03-.03z" fill="#435b55"/>
    <path d="M36.97 57.63c-.13.15-.26.31-.38.47-.14.17-.26.34-.38.51v.01c-.12.17-.22.34-.32.51a.053.053 0 01-.02.03v-.03a11.015 11.015 0 00-.74-1.05c-.12-.15-.25-.3-.38-.45h2.22z" fill="#226d5b"/>
    <path d="M36.59 58.101a5.476 5.476 0 00-.35.49c-.01.01-.02.01-.03.02.119-.171.24-.341.38-.51z" fill="#00002d"/>
    <path d="M35.87 59.66a9.861 9.861 0 01.72-1.06 9.861 9.861 0 00-.72 1.06zM35.87 69.41a8.647 8.647 0 010 0z" fill="#dcf4ee"/>
    <path d="M35.95 70.03c.12.2.26.4.4.59a6.1 6.1 0 01-.4-.59z" fill="#435b55"/>
    <path d="M36.21 58.61c.01-.01.02-.01.03-.02a3.03 3.03 0 00-.24.38 2.5 2.5 0 01.21-.35v-.01z" fill="#00002d"/>
    <path d="M36.21 58.62a2.5 2.5 0 00-.21.35c-.04.05-.07.1-.11.16.1-.17.2-.34.32-.51z" fill="#00002d"/>
    <path d="M35.129 58.08a11.015 11.015 0 01.74 1.05 12.67 12.67 0 00-.74-1.05z" fill="#397dc6"/>
    <path d="M35.129 58.58c.17.21.33.43.48.65-.159-.22-.319-.44-.48-.65zM34.41 63.72a7.242 7.242 0 01.02.81.487.487 0 00-.01-.12v-.009a3.009 3.009 0 00-.01-.6v-.08zM34.429 64.63a6.581 6.581 0 01-.06 1.08c.01-.12.03-.25.03-.38a4.021 4.021 0 00.03-.6v-.1z" fill="#dcf4ee"/>
    <path d="M34.429 64.53v.1a.375.375 0 00-.01-.11.03.03 0 000-.04.085.085 0 000-.07.487.487 0 01.01.12zM14.49 17.751h19.94v.01H14.49zM14.49 17.261h19.94v.49H14.49z" fill="#dcf4ee"/>
    <path fill="#003312" d="M14.49 17.251h19.94v.01H14.49z"/>
    <path d="M34.41 63.801a3.009 3.009 0 01.01.6.546.546 0 00-.01-.18.375.375 0 00-.01-.11 2.978 2.978 0 00-.071-.51 3.57 3.57 0 00-.11-.55v-.01a1.046 1.046 0 00-.04-.17 1.975 1.975 0 00-.08-.26 1.066 1.066 0 00-.07-.19 3.8 3.8 0 00-.18-.47 3.218 3.218 0 00-.23-.5.038.038 0 00-.02-.02 3.429 3.429 0 00-.28-.49 4.27 4.27 0 00-.3-.44.1.1 0 00-.05-.06 3.213 3.213 0 00-.34-.41 2.422 2.422 0 00-.31-.33 2.391 2.391 0 00-.23-.22.187.187 0 00-.07-.06.339.339 0 00-.06-.06 3.253 3.253 0 00-.29-.23c-.03-.03-.06-.05-.08-.07-.05-.04-.1-.07-.14-.1-.11-.08-.22-.16-.33-.23a.435.435 0 01-.07-.04 3.623 3.623 0 00-.43-.24 3.543 3.543 0 00-.52-.25h-.01a2.226 2.226 0 00-.45-.18c-.04-.01-.08-.03-.11-.04s-.05-.02-.08-.03a1.975 1.975 0 00-.26-.08 1.046 1.046 0 00-.17-.04h-.01a3.693 3.693 0 00-.56-.11 2.629 2.629 0 00-.39-.06h-.06a1.942 1.942 0 00-.24-.02 6.543 6.543 0 00-.99 0 7.9 7.9 0 00-.96.13c-.14.03-.29.06-.44.1s-.29.09-.43.14c-.01.01-.01 0-.01 0a6.652 6.652 0 00-1.24.57c0 .01-.01 0-.01 0a6.591 6.591 0 00-1.09.79c-.12.1-.22.21-.33.31a7.873 7.873 0 00-.6.68 6.111 6.111 0 00-.5.75 7.453 7.453 0 00-.71 1.69 6.591 6.591 0 00-.25 1.65 6.81 6.81 0 01.25-2.15 7.2 7.2 0 01.72-1.71 7.737 7.737 0 01.49-.73 7.873 7.873 0 01.6-.68c.11-.1.21-.21.33-.31a7.993 7.993 0 011.09-.79s.01.01.01 0a8.247 8.247 0 011.24-.57s0 .01.01 0c.14-.05.29-.09.44-.13a7.365 7.365 0 011.38-.23.01.01 0 01.01-.01 6.543 6.543 0 01.99 0 .86.86 0 01.16.01.448.448 0 01.11.01 2.9 2.9 0 01.41.06c.01-.01.01 0 .01 0a5.536 5.536 0 01.56.11h.01c.04.01.09.03.14.04.12.04.25.07.37.11.03.01.07.03.11.04a3.518 3.518 0 01.45.18h.01a4.967 4.967 0 01.52.25c.16.09.32.18.48.28a4.975 4.975 0 01.47.33q.225.165.45.36a.187.187 0 01.07.06c.12.11.23.22.34.34a5.3 5.3 0 01.38.43 5.073 5.073 0 01.35.46c.1.14.19.29.28.44a2.543 2.543 0 01.16.28 1.627 1.627 0 01.11.23.488.488 0 01.06.13 1.3 1.3 0 01.08.17c.05.11.09.22.13.33a3.956 3.956 0 01.15.45c.01.04.03.09.04.13v.01a3.338 3.338 0 01.1.43.185.185 0 01.02.07c.03.15.05.29.07.44a3.906 3.906 0 01.051.48z" fill="#305a7f"/>
    <path d="M34.429 64.73a4.021 4.021 0 01-.03.6 6.423 6.423 0 01-.12.88c-.03.16-.07.31-.11.46a7.257 7.257 0 01-.94 2.08 7.091 7.091 0 01-.86 1.04c-.11.11-.22.22-.34.32a5.944 5.944 0 01-.7.54 7.747 7.747 0 01-.79.46 6.473 6.473 0 01-1.29.49 7.135 7.135 0 01-4.73-.32 7.344 7.344 0 01-1-.53 6.691 6.691 0 01-.92-.69 3.847 3.847 0 01-.41-.4 6.9 6.9 0 01-1.74-3.04 6.906 6.906 0 01-.25-2.16 6.669 6.669 0 00.25 1.66 7.173 7.173 0 00.69 1.66 7.035 7.035 0 001.04 1.38 5.334 5.334 0 00.42.4 6.691 6.691 0 00.92.69 6.856 6.856 0 001 .53 7.135 7.135 0 004.73.32 6.473 6.473 0 001.29-.49 6.25 6.25 0 00.79-.46c.12-.08.24-.17.36-.26a7.873 7.873 0 00.68-.6 6.646 6.646 0 00.87-1.05 7 7 0 00.94-2.06c.04-.16.08-.31.11-.47a4.706 4.706 0 00.08-.5 3.532 3.532 0 00.05-.56.22.22 0 01.01.08z" fill="#dcf4ee"/>
    <path d="M34.429 64.63v.1a.22.22 0 00-.01-.08.02.02 0 00.01-.02z" fill="#dcf4ee"/>
    <path d="M34.42 64.52a.375.375 0 01.01.11.02.02 0 01-.01.02.285.285 0 000-.13z" fill="#dcf4ee"/>
    <path d="M34.42 64.48a.03.03 0 010 .04 1.564 1.564 0 01-.02.31 6.833 6.833 0 01-.23 1.34 7.175 7.175 0 01-.93 2.07 6.646 6.646 0 01-.87 1.05 7.873 7.873 0 01-.68.6c-.12.09-.24.18-.36.26a7.747 7.747 0 01-.79.46 6.473 6.473 0 01-1.29.49 7.135 7.135 0 01-4.73-.32 7.344 7.344 0 01-1-.53 6.691 6.691 0 01-.92-.69 3.847 3.847 0 01-.41-.4 6.9 6.9 0 01-1.74-3.04 6.669 6.669 0 01-.25-1.66v-.01a6.591 6.591 0 01.25-1.65 7.2 7.2 0 011.21-2.44 7.873 7.873 0 01.6-.68c.11-.1.21-.21.33-.31a7.993 7.993 0 011.09-.79s.01.01.01 0a8.247 8.247 0 011.24-.57s0 .01.01 0c.14-.05.29-.09.44-.13a7.354 7.354 0 011.39-.24 6.543 6.543 0 01.99 0 1.942 1.942 0 01.24.02h.029a2.9 2.9 0 01.41.06c.01-.01.01 0 .01 0a5.536 5.536 0 01.56.11h.01l.51.15c.03.01.07.03.11.04a3.518 3.518 0 01.45.18h.01a4.967 4.967 0 01.52.25c.16.09.32.18.48.28a4.975 4.975 0 01.47.33q.225.165.45.36a.187.187 0 01.07.06c.12.11.23.22.34.34a5.3 5.3 0 01.38.43 5.073 5.073 0 01.35.46c.1.14.19.29.28.44a2.543 2.543 0 01.16.28 1.627 1.627 0 01.11.23.488.488 0 01.06.13 4.4 4.4 0 01.21.5 5.618 5.618 0 01.19.58 3.927 3.927 0 01.1.44.185.185 0 01.02.07c.02.1.04.2.05.3a.675.675 0 01.02.14c.02.15.04.29.05.44v.041a1.087 1.087 0 01.011.179zm-7.07 4.91a4.285 4.285 0 004.26-4.3 1.21 1.21 0 00-.01-.19c.01-.1.01-.21.01-.31a4.279 4.279 0 00-4.26-4.27h-.04a4.293 4.293 0 00-4.27 4.3 1.927 1.927 0 00.01.24 2.26 2.26 0 00-.01.26 4.289 4.289 0 004.31 4.27z" fill="#305a7f"/>
    <path d="M34.42 64.52a.285.285 0 010 .13 3.532 3.532 0 01-.05.56c.01-.12.03-.25.03-.38a1.564 1.564 0 00.02-.31z" fill="#dcf4ee"/>
    <path d="M34.42 64.41a.085.085 0 010 .07 1.087 1.087 0 00-.01-.18.308.308 0 01.01.1v.01z" fill="#305a7f"/>
    <path d="M34.41 64.22a.546.546 0 01.01.18.308.308 0 00-.01-.1v-.08z" fill="#305a7f"/>
    <path d="M34.41 63.72v.081a3.906 3.906 0 00-.05-.48 2.535 2.535 0 01.04.29.375.375 0 01.01.109z" fill="#435b55"/>
    <path d="M34.41 64.22v.04c-.01-.15-.03-.29-.05-.44a2.535 2.535 0 01.04.29.375.375 0 01.01.11z" fill="#305a7f"/>
    <path d="M34.4 64.83c0 .13-.02.26-.03.38a4.706 4.706 0 01-.08.5l-.12.46a6.833 6.833 0 00.23-1.34z"/>
    <path d="M34.4 65.33c0 .13-.02.26-.03.38a4.706 4.706 0 01-.08.5h-.01a6.423 6.423 0 00.12-.88zM23.01 5.871H34.4v.5H23.01z" fill="#dcf4ee"/>
    <path d="M34.4 4.93v.94H23.01v-.94a1.425 1.425 0 011.42-1.42h8.55a1.439 1.439 0 011.42 1.42z" fill="#b1e5cf"/>
    <path d="M34.4 4.43v.5a1.439 1.439 0 00-1.42-1.42h-8.551a1.425 1.425 0 00-1.42 1.42v-.5a1.425 1.425 0 011.42-1.42h8.55A1.439 1.439 0 0134.4 4.43z" fill="#226d5b"/>
    <path d="M34.4 63.61a2.535 2.535 0 00-.04-.29.833.833 0 00-.031-.219 2.978 2.978 0 01.071.509z" fill="#dcf4ee"/>
    <path d="M34.4 64.11a2.535 2.535 0 00-.04-.29.675.675 0 00-.02-.14.22.22 0 00-.011-.079 2.978 2.978 0 01.071.509z" fill="#305a7f"/>
    <path d="M34.329 63.101a.833.833 0 01.03.22c-.02-.15-.04-.29-.07-.44a1.7 1.7 0 01.04.22z" fill="#435b55"/>
    <path d="M34.329 63.601a.22.22 0 01.01.08c-.01-.1-.03-.2-.05-.3a1.7 1.7 0 01.04.22z" fill="#305a7f"/>
    <path d="M34.329 63.101a1.7 1.7 0 00-.04-.22.185.185 0 00-.02-.07 2 2 0 00-.05-.26 3.57 3.57 0 01.11.55z" fill="#dcf4ee"/>
    <path d="M34.329 63.601a1.7 1.7 0 00-.04-.22.185.185 0 00-.02-.07 2 2 0 00-.05-.26 3.57 3.57 0 01.11.55z" fill="#305a7f"/>
    <path d="M34.29 65.71c-.03.16-.07.31-.11.47a7 7 0 01-.94 2.06 7.175 7.175 0 00.93-2.07l.12-.46zM34.29 66.21c-.03.16-.07.31-.11.47a7.222 7.222 0 01-.95 2.07 7.257 7.257 0 00.94-2.08c.04-.15.08-.3.11-.46h.01z" fill="#dcf4ee"/>
    <path d="M34.27 62.81a3.338 3.338 0 00-.1-.43c.02.05.03.1.05.16v.01a2 2 0 01.05.26z" fill="#435b55"/>
    <path d="M34.27 63.31a3.927 3.927 0 00-.1-.44c.02.05.03.11.05.17v.01a2 2 0 01.05.26z" fill="#305a7f"/>
    <path d="M34.22 62.54c-.02-.06-.03-.11-.05-.16v-.01c-.01-.04-.03-.09-.04-.13l-.03-.13a1.975 1.975 0 01.08.26 1.046 1.046 0 01.04.17z" fill="#dcf4ee"/>
    <path d="M34.22 63.04c-.02-.06-.03-.12-.05-.17-.02-.09-.05-.18-.07-.26a1.975 1.975 0 01.08.26 1.046 1.046 0 01.04.17z" fill="#305a7f"/>
    <path d="M34.1 62.61c.02.08.05.17.07.26a5.618 5.618 0 00-.19-.58.5.5 0 01.05.13 1.066 1.066 0 01.07.19z" fill="#305a7f"/>
    <path d="M34.1 62.11c.01.04.02.08.03.13a3.956 3.956 0 00-.15-.45.5.5 0 01.05.13 1.066 1.066 0 01.07.19z" fill="#435b55"/>
    <path d="M34.029 61.92a.5.5 0 00-.05-.13c-.04-.11-.08-.22-.13-.33a2 2 0 01.18.46z" fill="#dcf4ee"/>
    <path d="M34.029 62.42a.5.5 0 00-.05-.13 3.423 3.423 0 00-.13-.34 3.8 3.8 0 01.18.47z" fill="#305a7f"/>
    <path d="M33.85 61.95a3.423 3.423 0 01.13.34 4.4 4.4 0 00-.21-.5 1.194 1.194 0 01.08.16z" fill="#305a7f"/>
    <path d="M33.85 61.45v.01a1.3 1.3 0 00-.08-.17 1.194 1.194 0 01.08.16z" fill="#435b55"/>
    <path d="M33.85 61.45a1.194 1.194 0 00-.08-.16.488.488 0 00-.06-.13l-.09-.21a3.218 3.218 0 01.23.5z" fill="#dcf4ee"/>
    <path d="M33.85 61.95a1.194 1.194 0 00-.08-.16.488.488 0 00-.06-.13l-.09-.21a3.218 3.218 0 01.23.5z" fill="#305a7f"/>
    <path d="M33.71 61.16a1.627 1.627 0 00-.11-.23.038.038 0 01.02.02z" fill="#435b55"/>
    <path d="M33.71 61.66a1.627 1.627 0 00-.11-.23.038.038 0 01.02.02z" fill="#305a7f"/>
    <path d="M33.6 60.93a2.543 2.543 0 00-.16-.28l-.12-.21a3.429 3.429 0 01.28.49z" fill="#dcf4ee"/>
    <path d="M33.6 61.43a2.543 2.543 0 00-.16-.28l-.12-.21a3.429 3.429 0 01.28.49z" fill="#305a7f"/>
    <path d="M33.32 60.44l.12.21c-.09-.15-.18-.3-.28-.44.06.08.11.15.16.23z" fill="#435b55"/>
    <path d="M33.32 60.94l.12.21c-.09-.15-.18-.3-.28-.44.06.08.11.15.16.23z" fill="#305a7f"/>
    <path d="M33.32 60.44c-.05-.08-.1-.15-.16-.23-.04-.07-.09-.14-.14-.21a4.27 4.27 0 01.3.44z" fill="#dcf4ee"/>
    <path d="M33.32 60.94c-.05-.08-.1-.15-.16-.23-.04-.07-.09-.14-.14-.21a4.27 4.27 0 01.3.44z" fill="#305a7f"/>
    <path d="M33.02 60.001c.05.07.1.14.14.21a5.073 5.073 0 00-.35-.46 1.462 1.462 0 01.16.19.1.1 0 01.05.06z" fill="#435b55"/>
    <path d="M33.02 60.501c.05.07.1.14.14.21a5.073 5.073 0 00-.35-.46 1.462 1.462 0 01.16.19.1.1 0 01.05.06z" fill="#305a7f"/>
    <path d="M32.97 59.94a1.462 1.462 0 00-.16-.19 1.239 1.239 0 00-.18-.22 3.213 3.213 0 01.34.41z" fill="#dcf4ee"/>
    <path d="M32.97 60.44a1.462 1.462 0 00-.16-.19 1.239 1.239 0 00-.18-.22 3.213 3.213 0 01.34.41z" fill="#305a7f"/>
    <path d="M32.629 59.53a1.239 1.239 0 01.18.22 5.3 5.3 0 00-.38-.43 1.315 1.315 0 01.2.21z" fill="#435b55"/>
    <path d="M32.629 60.03a1.239 1.239 0 01.18.22 5.3 5.3 0 00-.38-.43 1.315 1.315 0 01.2.21z" fill="#305a7f"/>
    <path d="M32.629 59.53a1.315 1.315 0 00-.2-.21 1.2 1.2 0 00-.11-.12 2.422 2.422 0 01.31.33z" fill="#dcf4ee"/>
    <path d="M32.629 60.03a1.315 1.315 0 00-.2-.21 1.2 1.2 0 00-.11-.12 2.422 2.422 0 01.31.33z" fill="#305a7f"/>
    <path d="M32.32 59.201a1.2 1.2 0 01.11.12c-.11-.12-.22-.23-.34-.34a1.584 1.584 0 01.23.22z" fill="#435b55"/>
    <path d="M32.32 59.701a1.2 1.2 0 01.11.12c-.11-.12-.22-.23-.34-.34a1.584 1.584 0 01.23.22z" fill="#305a7f"/>
    <path d="M32.37 69.29a7.873 7.873 0 01-.68.6 7.873 7.873 0 00.68-.6zM32.37 69.79c-.11.11-.22.22-.34.32.12-.1.23-.209.34-.32z" fill="#dcf4ee"/>
    <path d="M32.32 59.201a1.584 1.584 0 00-.23-.22 2.391 2.391 0 01.23.22z" fill="#435b55"/>
    <path d="M32.32 59.701a1.584 1.584 0 00-.23-.22 2.391 2.391 0 01.23.22z" fill="#305a7f"/>
    <path d="M31.96 58.86a.339.339 0 01.06.06q-.225-.2-.45-.36c.01-.01.02-.01.02 0 .02.02.05.04.08.07a3.253 3.253 0 01.29.23z" fill="#435b55"/>
    <path d="M31.96 59.36a.339.339 0 01.06.06q-.225-.2-.45-.36c.01-.01.02-.01.02 0 .02.02.05.04.08.07a3.253 3.253 0 01.29.23z" fill="#305a7f"/>
    <path d="M31.96 58.86a3.253 3.253 0 00-.29-.23 3.253 3.253 0 01.29.23z" fill="#435b55"/>
    <path d="M31.96 59.36a3.253 3.253 0 00-.29-.23 3.253 3.253 0 01.29.23z" fill="#305a7f"/>
    <path fill="#dcf4ee" d="M17.34 54.661h14.31v.01H17.34zM17.34 54.171h14.31v.49H17.34z"/>
    <path fill="#95d8bf" d="M17.34 54.161h14.31v.01H17.34zM31.65 20.49v33.67H17.34V37.58h5.67v-3.36h-5.67V20.49h14.31zm-2.9 11.85v-9.05h-8.56v9.05h8.56z"/>
    <path fill="#95d8bf" d="M17.34 20.481h14.31v.01H17.34zM17.34 19.991h14.31v.49H17.34z"/>
    <path fill="#dcf4ee" d="M17.34 19.981h14.31v.01H17.34z"/>
    <path d="M31.61 65.09a4.285 4.285 0 11-8.57.03 2.26 2.26 0 01.01-.26 4.284 4.284 0 008.55.04 1.21 1.21 0 01.01.19z"/>
    <path d="M31.61 64.59c0 .1 0 .21-.01.31a4.266 4.266 0 00-4.25-4.08h-.04a4.29 4.29 0 00-4.26 4.04 1.927 1.927 0 01-.01-.24 4.293 4.293 0 014.27-4.3h.04a4.279 4.279 0 014.26 4.27z" fill="#c3d8ee"/>
    <path d="M31.59 58.56c0-.01-.01-.01-.02 0a.53.53 0 00-.12-.1c.04.03.09.06.14.1z" fill="#dcf4ee"/>
    <path d="M31.59 59.06c0-.01-.01-.01-.02 0a.53.53 0 00-.12-.1c.04.03.09.06.14.1z" fill="#305a7f"/>
    <path d="M31.45 58.46a.53.53 0 01.12.1 4.975 4.975 0 00-.47-.33.014.014 0 01.02 0c.109.071.22.15.33.23z" fill="#435b55"/>
    <path d="M31.45 58.96a.53.53 0 01.12.1 4.975 4.975 0 00-.47-.33.014.014 0 01.02 0c.109.071.22.15.33.23z" fill="#305a7f"/>
    <path d="M31.12 58.23a.014.014 0 00-.02 0 .1.1 0 00-.05-.04.435.435 0 00.07.04z" fill="#dcf4ee"/>
    <path d="M31.12 58.73a.014.014 0 00-.02 0 .1.1 0 00-.05-.04.435.435 0 00.07.04z" fill="#305a7f"/>
    <path d="M31.05 58.19a.1.1 0 01.05.04c-.16-.1-.32-.19-.48-.28a3.623 3.623 0 01.43.24z" fill="#435b55"/>
    <path d="M31.05 58.69a.1.1 0 01.05.04c-.16-.1-.32-.19-.48-.28a3.623 3.623 0 01.43.24z" fill="#305a7f"/>
    <path d="M31.05 58.19a3.623 3.623 0 00-.43-.24 3.623 3.623 0 01.43.24z" fill="#435b55"/>
    <path d="M31.05 58.69a3.623 3.623 0 00-.43-.24 3.623 3.623 0 01.43.24z" fill="#305a7f"/>
    <path d="M30.54 70.61a7.747 7.747 0 00.79-.46 6.25 6.25 0 01-.79.46zM30.54 71.11a7.747 7.747 0 00.79-.46 6.25 6.25 0 01-.79.46z" fill="#dcf4ee"/>
    <path d="M27.35 60.82a4.287 4.287 0 11-.04 0h.04zm1.379 4.281a1.415 1.415 0 10-1.42 1.42v-.02a1.415 1.415 0 001.42-1.4z" fill="#c3d8ee"/>
    <path d="M30.62 57.95a4.967 4.967 0 00-.52-.25 3.543 3.543 0 01.52.25z" fill="#435b55"/>
    <path d="M30.62 58.45a4.967 4.967 0 00-.52-.25 3.543 3.543 0 01.52.25z" fill="#305a7f"/>
    <path d="M30.09 57.701a3.518 3.518 0 00-.45-.18 2.226 2.226 0 01.45.18z" fill="#435b55"/>
    <path d="M30.09 58.201a3.518 3.518 0 00-.45-.18 2.226 2.226 0 01.45.18z" fill="#305a7f"/>
    <path d="M29.11 74.32a10.862 10.862 0 001.38-.39 8.332 8.332 0 01-1.38.39z" fill="#dcf4ee"/>
    <path d="M29.11 74.82a10.862 10.862 0 001.38-.39 8.332 8.332 0 01-1.38.39zM29.529 57.48c-.12-.04-.25-.07-.37-.11.1.03.19.05.29.08.031.01.051.02.08.03z" fill="#435b55"/>
    <path d="M29.529 57.98l-.51-.15.43.12c.031.01.051.02.08.03z" fill="#305a7f"/>
    <path d="M29.45 57.45c-.1-.03-.19-.05-.29-.08-.05-.01-.1-.03-.14-.04a1.046 1.046 0 01.17.04 1.975 1.975 0 01.26.08z" fill="#435b55"/>
    <path d="M29.45 57.95l-.43-.12a1.046 1.046 0 01.17.04 1.975 1.975 0 01.26.08z" fill="#305a7f"/>
    <path d="M29.01 57.33a5.536 5.536 0 00-.56-.11 3.693 3.693 0 01.56.11z" fill="#435b55"/>
    <path d="M29.01 57.83a5.536 5.536 0 00-.56-.11 3.693 3.693 0 01.56.11z" fill="#305a7f"/>
    <path fill="#666" d="M20.19 31.841h8.56v.5h-8.56z"/>
    <path d="M28.75 23.79v8.05h-8.56v-8.05h8.56zm-2.89 5.23l.04-.03h-.04v-2.82h-2.85v3.32h2.85v.03l.04-.03h-.04v-.47z" fill="#fff"/>
    <path fill="#fff" d="M20.19 23.291h8.56v.5h-8.56z"/>
    <path d="M28.17 74.45c.32-.03.63-.07.94-.13a7.33 7.33 0 01-.94.13z" fill="#dcf4ee"/>
    <path d="M28.17 74.95c.32-.03.63-.07.94-.13a7.33 7.33 0 01-.94.13zM28.45 57.22s0-.01-.01 0c-.13-.03-.25-.04-.38-.06a2.629 2.629 0 01.39.06z" fill="#435b55"/>
    <path d="M28.45 57.72s0-.01-.01 0c-.13-.03-.25-.04-.38-.06a2.629 2.629 0 01.39.06z" fill="#305a7f"/>
    <path d="M28.44 57.22a2.9 2.9 0 00-.41-.06h.03c.13.02.25.03.38.06z" fill="#435b55"/>
    <path d="M28.44 57.72a2.9 2.9 0 00-.41-.06h.03c.13.02.25.03.38.06z" fill="#305a7f"/>
    <path d="M28.17 74.45a3.866 3.866 0 01-.48.03c-.25.01-.51.02-.76.02.25 0 .51-.01.76-.03.16 0 .32-.01.48-.02z" fill="#dcf4ee"/>
    <path d="M28.17 74.95a3.866 3.866 0 01-.48.03c-.24.01-.5.02-.74.02.25 0 .49-.01.74-.03.16 0 .32-.01.48-.02z" fill="#435b55"/>
    <path d="M28 57.66a1.942 1.942 0 00-.24-.02 1.942 1.942 0 01.24.02zM27.92 57.15a.86.86 0 00-.16-.01.915.915 0 01.16.01zM27.31 63.69a1.405 1.405 0 110 2.81v.02a1.415 1.415 0 010-2.83z" fill="#305a7f"/>
    <path d="M26.77 57.14a.01.01 0 00-.01.01 2.966 2.966 0 00-.42.03c.14-.02.289-.03.43-.04z" fill="#435b55"/>
    <path d="M25.81 57.77a7.9 7.9 0 01.96-.13 7.354 7.354 0 00-1.39.24c.14-.04.29-.079.43-.11z" fill="#305a7f"/>
    <path d="M26.34 57.18a2.966 2.966 0 01.42-.03 7.365 7.365 0 00-1.38.23l.46-.12c.16-.02.33-.05.5-.08z" fill="#435b55"/>
    <path fill="#fff" d="M25.9 28.991l-.04.03v-.03h.04zM25.9 29.491l-.04.03v-.03h.04zM25.86 29.021v.47h-2.85v-.5h2.85v.03z"/>
    <path fill="#95d8bf" d="M23.01 26.671h2.85v2.32h-2.85z"/>
    <path fill="#666" d="M23.01 26.171h2.85v.5h-2.85z"/>
    <path d="M25.84 57.26l-.46.12c-.15.04-.3.08-.44.13a5.41 5.41 0 01.9-.25z" fill="#435b55"/>
    <path d="M25.81 57.77c-.14.03-.29.07-.43.11s-.3.08-.44.13c.14-.05.28-.1.43-.14s.3-.069.44-.1z" fill="#305a7f"/>
    <path d="M23.52 70.25a7.344 7.344 0 001 .53 6.856 6.856 0 01-1-.53zM23.52 70.75a7.344 7.344 0 001 .53 6.856 6.856 0 01-1-.53zM23.729 74.04a12.042 12.042 0 001.18.31 8.2 8.2 0 01-1.18-.31z" fill="#dcf4ee"/>
    <path d="M23.729 74.54a12.042 12.042 0 001.18.31 8.2 8.2 0 01-1.18-.31zM24.929 57.51a8.247 8.247 0 00-1.24.57 6.652 6.652 0 011.24-.57z" fill="#435b55"/>
    <path d="M24.929 58.01a8.247 8.247 0 00-1.24.57 6.652 6.652 0 011.24-.57z" fill="#305a7f"/>
    <path fill="#95d8bf" d="M17.34 37.571h5.67v.01h-5.67z"/>
    <path fill="#95d8bf" d="M17.34 37.081h5.67v.49h-5.67z"/>
    <path fill="#435b55" d="M17.34 37.071h5.67v.01h-5.67z"/>
    <path fill="#dcf4ee" d="M23.01 34.221v.5h-5.7l.03-.06v-.44h5.67z"/>
    <path d="M23.68 58.08a7.993 7.993 0 00-1.09.79 6.591 6.591 0 011.09-.79z" fill="#435b55"/>
    <path d="M23.68 58.58a7.993 7.993 0 00-1.09.79 6.591 6.591 0 011.09-.79z" fill="#305a7f"/>
    <path d="M22.19 69.16a3.847 3.847 0 00.41.4 5.334 5.334 0 01-.42-.4c.01.01.01 0 .01 0zM22.19 69.66a3.847 3.847 0 00.41.4 5.334 5.334 0 01-.42-.4c.01.01.01 0 .01 0z" fill="#dcf4ee"/>
    <path d="M21.66 59.86a7.873 7.873 0 01.6-.68 7.873 7.873 0 00-.6.68z" fill="#435b55"/>
    <path d="M21.66 60.36a7.873 7.873 0 01.6-.68 7.873 7.873 0 00-.6.68zM22.19 69.16s0 .01-.01 0a7.035 7.035 0 01-1.04-1.38 7.178 7.178 0 001.05 1.38z" fill="#305a7f"/>
    <path d="M22.19 69.66s0 .01-.01 0a7.035 7.035 0 01-1.04-1.38 7.178 7.178 0 001.05 1.38z" fill="#dcf4ee"/>
    <path d="M21.66 59.86a7.737 7.737 0 00-.49.73 5.17 5.17 0 01.49-.73z" fill="#435b55"/>
    <path d="M21.66 60.36a7.518 7.518 0 00-.5.75 6.111 6.111 0 01.5-.75z" fill="#305a7f"/>
    <path d="M20.87 72.57c.27.19.55.38.84.55q-.435-.255-.84-.54l-.01-.01h.01z" fill="#dcf4ee"/>
    <path d="M20.87 73.07c.2.14.4.28.61.41-.21-.13-.41-.26-.61-.4-.08-.07-.16-.13-.24-.21.08.07.16.14.24.2z" fill="#435b55"/>
    <path d="M20.21 71.98c.1.11.21.21.32.31-.11-.1-.22-.2-.32-.31z" fill="#dcf4ee"/>
    <path d="M14.49 57.14h5.86c-.17.16-.33.33-.48.5h-5.38v-.5z" fill="#226d5b"/>
    <path d="M19.87 57.64h.48a9.9 9.9 0 00-3 6.76 1.477 1.477 0 01-.01-.21 9.93 9.93 0 012.53-6.55z" fill="#dcf4ee"/>
    <path d="M20.21 72.48l.01.01a.01.01 0 01-.01-.01z" fill="#435b55"/>
    <path d="M20.19 5.95v.5a15.724 15.724 0 00-11.11 6.17l-.28.4v-.5l.28-.4a15.724 15.724 0 0111.11-6.17z" fill="#dcf4ee"/>
    <path d="M14.49 57.64h5.38a9.93 9.93 0 00-2.53 6.55 1.477 1.477 0 00.01.21 2.81 2.81 0 00-.01.29c.01.31.03.62.06.92h-2.91v-7.97z" fill="#226d5b"/>
    <path d="M17.4 65.61c.01.17.04.33.06.5h-2.97v-.5h2.91z" fill="#dcf4ee"/>
    <path d="M17.46 65.61h-.06c-.03-.3-.05-.61-.06-.92a2.81 2.81 0 01.01-.29 9.715 9.715 0 00.11 1.21z" fill="#397dc6"/>
    <path fill="#95d8bf" d="M17.34 34.161v.06h-.03l.03-.06z"/>
    <path fill="#dcf4ee" d="M11.64 54.291h2.85v.5h-2.85z"/>
    <path fill="#435b55" d="M.25 57.191h11.39v.5H.25z"/>
    <path fill="#dcf4ee" d="M3.1 54.291h5.7v.5H3.1z"/>
    <path fill="#435b55" d="M3.1 51.441h5.7v.5H3.1z"/>
    <path fill="#dcf4ee" d="M.25 48.641H8.8v.5H.25z"/>
    <path d="M20.22 72.49a.01.01 0 01-.01-.01M65.78 57.641h15.9M65.78 63.34h8.9c.32-.04.65-.09.97-.14s.65-.12.96-.2a2.114 2.114 0 01.45-1.3c.16-.21.37-.48.55-.71a.942.942 0 00.29-.57.039.039 0 00-.04-.02.507.507 0 00-.09.02h-.11" fill="none" stroke="#000" stroke-miterlimit="10" stroke-width=".5"/>
    <path d="M11.64 68.58v.5h6.67a9.185 9.185 0 00.64 1.55 6.623 6.623 0 00.69 1.18 7.21 7.21 0 00.57.67l.01.01c.13.13.27.26.41.38.08.07.16.14.24.2.2.14.4.28.61.41a9.848 9.848 0 001.11.59 11.371 11.371 0 001.14.47 12.042 12.042 0 001.18.31 14 14 0 002.04.15c.25 0 .49-.01.74-.03.16 0 .32-.01.48-.02.32-.03.63-.07.94-.13a10.862 10.862 0 001.38-.39c.29-.12.59-.25.87-.39 1.14-.17 4.28-3.84 4.51-4.13.03.04.05.08.08.12.12.2.26.4.4.59a10.879 10.879 0 002.45 2.74 10.176 10.176 0 001.01.71 5.105 5.105 0 00.71.51 5.682 5.682 0 00.79.37 8.785 8.785 0 004.95.15 8.653 8.653 0 002.34-.97 10.521 10.521 0 002.14-1.4l.68-.7c.38-.47.74-.96 1.07-1.46.34-.54.64-1.03.9-1.52v-.01h20.55l.68-.06c.46-.05.91-.12 1.36-.2l.59-.12M.25 57.191v.5h11.39M88.56 57.51a.2.2 0 000-.15v-.359" fill="none" stroke="#000" stroke-miterlimit="10" stroke-width=".5"/>
    <path fill="none" stroke="#000" stroke-miterlimit="10" stroke-width=".25" d="M3.1 51.941h5.7"/>
    <path d="M87.41 57.15a9.91 9.91 0 001.09-.01.2.2 0 00.06-.14.223.223 0 000-.14v-.15M76.28 66.17c-.05-.22-.11-.43-.17-.65l-10.33.17v-2.85h8.9c.32-.04.65-.09.97-.14s.65-.12.96-.2a2.114 2.114 0 01.45-1.3c.16-.22.38-.48.55-.72a.209.209 0 00.04-.06h.01a.777.777 0 00.24-.5.039.039 0 00-.04-.02.507.507 0 00-.09.02l-11.99.07v-2.85H83.2M76.29 66.201l-.01-.01" fill="none" stroke="#52776d" stroke-miterlimit="10" stroke-width=".5"/>
    <path d="M88.56 51.44V12.52l-.28-.38a15.8 15.8 0 00-11.11-6.19V4.43A4.289 4.289 0 0072.9.25H55.84a4.236 4.236 0 00-3.04 1.22 4.211 4.211 0 00-1.28 2.96v1.44H37.28V4.43A4.289 4.289 0 0033.01.25h-8.55a4.287 4.287 0 00-4.27 4.27v1.43a15.724 15.724 0 00-11.11 6.17l-.28.4v36.12H.25v8.55h11.39v11.39h6.67a9.185 9.185 0 00.64 1.55 6.623 6.623 0 00.69 1.18 7.21 7.21 0 00.57.67c.1.11.21.21.32.31s.22.18.33.28h.01c.27.19.55.38.84.55s.58.32.88.45a11.371 11.371 0 001.14.47 12.042 12.042 0 001.18.31 13.733 13.733 0 002.02.15c.25 0 .51-.01.76-.03.16 0 .32-.01.48-.02.32-.03.63-.07.94-.13a10.862 10.862 0 001.38-.39c.29-.12.59-.25.87-.39 1.14-.17 4.28-3.84 4.51-4.13.15.24.31.48.48.71a10.879 10.879 0 002.45 2.74 10.176 10.176 0 001.01.71 5.105 5.105 0 00.71.51 5.682 5.682 0 00.79.37 8.785 8.785 0 004.95.15 8.653 8.653 0 002.34-.97 10.521 10.521 0 002.14-1.4l.68-.7c.38-.47.74-.96 1.07-1.46.34-.54.64-1.03.9-1.52v-.01h20.55l.68-.06c.46-.05.91-.12 1.36-.2.16-.03.31-.06.47-.1" fill="none" stroke="#52776d" stroke-miterlimit="10" stroke-width=".5"/>
    <path fill="none" stroke="#52776d" stroke-miterlimit="10" stroke-width=".25" d="M3.1 51.941v-.5h5.7v2.85H3.1v-2.35zM54.38 4.93v-.5a1.425 1.425 0 011.42-1.42h17.129a1.425 1.425 0 011.42 1.42v1.44H54.38v-.94zM23.01 4.93v-.5a1.425 1.425 0 011.42-1.42h8.55a1.439 1.439 0 011.42 1.42v1.44H23.01v-.94zM14.25 11.57h-.68a12.994 12.994 0 018.04-2.85h54.14a12.972 12.972 0 018.04 2.85H14.25zM19.87 57.64a9.93 9.93 0 00-2.53 6.55 1.477 1.477 0 00.01.21 9.715 9.715 0 00.11 1.21h-2.97v-8.47h5.86c-.17.161-.33.33-.48.5zM17.34 34.161v-14.17h14.31v34.18H17.34v-17.09h5.67v-2.86h-5.7l.03-.06zM30.54 70.61a6.473 6.473 0 01-1.29.49 7.135 7.135 0 01-4.73-.32 6.856 6.856 0 01-1-.53 6.691 6.691 0 01-.92-.69 5.334 5.334 0 01-.42-.4 7.035 7.035 0 01-1.04-1.38 7.173 7.173 0 01-.69-1.66 6.669 6.669 0 01-.25-1.66v-.01a6.81 6.81 0 01.25-2.15 7.2 7.2 0 01.72-1.71 7.737 7.737 0 01.49-.73 7.873 7.873 0 01.6-.68c.11-.1.21-.21.33-.31a7.993 7.993 0 011.09-.79s.01.01.01 0a8.247 8.247 0 011.24-.57s0 .01.01 0c.14-.05.29-.09.44-.13l.46-.12c.16-.02.33-.05.5-.08a2.966 2.966 0 01.42-.03.01.01 0 01.01-.01 6.543 6.543 0 01.99 0 .915.915 0 01.16.01.448.448 0 01.11.01h.03c.13.02.25.03.38.06.01-.01.01 0 .01 0a5.536 5.536 0 01.56.11h.01c.04.01.09.03.14.04.1.03.19.05.29.08.03.01.05.02.08.03s.07.03.11.04a3.518 3.518 0 01.45.18h.01a4.967 4.967 0 01.52.25 3.623 3.623 0 01.43.24.435.435 0 00.07.04c.11.07.22.15.33.23.04.03.09.06.14.1.02.02.05.04.08.07a3.253 3.253 0 01.29.23.339.339 0 01.06.06.187.187 0 01.07.06 1.584 1.584 0 01.23.22 2.422 2.422 0 01.31.33 3.213 3.213 0 01.34.41.1.1 0 01.05.06 4.27 4.27 0 01.3.44 3.429 3.429 0 01.28.49.038.038 0 01.02.02 3.218 3.218 0 01.23.5v.01a2 2 0 01.18.46 1.066 1.066 0 01.07.19 1.975 1.975 0 01.08.26 1.046 1.046 0 01.04.17v.01a3.57 3.57 0 01.11.55 2.978 2.978 0 01.07.51.375.375 0 01.01.11 7.242 7.242 0 01.02.81v.1a.02.02 0 01-.01.02 3.532 3.532 0 01-.05.56 4.706 4.706 0 01-.08.5c-.03.16-.07.31-.11.47a7 7 0 01-.94 2.06 6.646 6.646 0 01-.87 1.05 7.873 7.873 0 01-.68.6c-.12.09-.24.18-.36.26a6.25 6.25 0 01-.79.46zM35.87 59.17v-.04c-.23-.37-.48-.71-.74-1.05-.12-.15-.25-.3-.38-.45-.15-.17-.31-.34-.47-.5h3.16c-.15.15-.29.3-.44.46v.011a.053.053 0 00-.02.03h-.01c-.13.15-.26.31-.38.47a5.476 5.476 0 00-.35.49c-.01.01-.02.01-.03.02v.01a2.5 2.5 0 00-.21.35c-.04.05-.07.1-.11.16a.053.053 0 01-.02.03M46.78 70.97c-.14.05-.29.09-.44.13l-.46.12c-.17.03-.33.06-.5.08a6.772 6.772 0 01-1.49.04.487.487 0 01-.12-.01c-.17-.02-.33-.04-.5-.07h-.01a4.865 4.865 0 01-.55-.11h-.01c-.15-.04-.29-.08-.43-.12a1.066 1.066 0 01-.19-.07c-.14-.05-.27-.1-.4-.15a.536.536 0 01-.11-.05c-.14-.06-.27-.12-.4-.19a.488.488 0 01-.07-.03.142.142 0 00-.04-.02c-.15-.09-.3-.17-.44-.26a.053.053 0 01-.03-.02c-.15-.1-.31-.2-.46-.32a4.943 4.943 0 01-.44-.36c-.11-.09-.21-.19-.31-.29a.339.339 0 01-.06-.06.121.121 0 01-.05-.05 1.624 1.624 0 01-.18-.2c-.07-.07-.14-.15-.2-.22v-.01l-.12-.15c-.04-.05-.08-.1-.12-.16a.053.053 0 01-.02-.03 2.75 2.75 0 01-.19-.28.6.6 0 01-.09-.15 1 1 0 01-.12-.19 1.618 1.618 0 01-.1-.18.8.8 0 01-.08-.16 1.658 1.658 0 01-.15-.33.943.943 0 01-.1-.23.865.865 0 01-.07-.17v-.01a.284.284 0 01-.04-.12 1.309 1.309 0 01-.09-.28.694.694 0 01-.05-.13c0-.01-.01-.03-.01-.04a1.046 1.046 0 01-.04-.17.142.142 0 01-.02-.06 6.327 6.327 0 01-.17-1.06.03.03 0 010-.04.656.656 0 01-.01-.2.57.57 0 01-.01-.13.17.17 0 010-.1 6.48 6.48 0 01.25-2.05v-.009a7.02 7.02 0 012.48-3.71h.009a.01.01 0 01.01-.01c.11-.08.22-.17.34-.25h.01c.13-.09.25-.17.38-.25s.29-.15.43-.22a5.944 5.944 0 01.82-.35c.14-.05.29-.09.44-.13l.35-.09c.2-.04.41-.08.61-.11a6.862 6.862 0 011.43-.04 2.458 2.458 0 01.28.02c.05.01.1.01.14.02a2.512 2.512 0 01.27.04c.19.03.38.07.56.11a.292.292 0 00.09.02c.08.03.16.05.23.07s.14.04.2.06a.037.037 0 00.03.01c.04.01.08.03.11.04.14.05.27.1.41.16l.06.03c.16.07.31.14.46.22h.01c.15.08.3.17.45.26a.673.673 0 01.11.07c.12.08.25.17.37.26a.219.219 0 00.05.03c.14.11.28.23.42.35a.043.043 0 01.03.03l.3.27c.02.02.03.04.05.06l.04.04a2.089 2.089 0 01.2.22 4.943 4.943 0 01.36.44 3.713 3.713 0 01.28.41 1.3 1.3 0 01.1.15c.01.01.02.03.03.04.05.08.1.17.15.26a1.664 1.664 0 01.13.27 1.244 1.244 0 01.1.2 2.277 2.277 0 01.15.36.612.612 0 01.05.12.037.037 0 01.01.03 4.009 4.009 0 01.16.49c.01.02.01.04.02.06s.01.05.02.07a1.163 1.163 0 01.04.18.06.06 0 01.01.04 3.583 3.583 0 01.09.45 1.7 1.7 0 01.04.22c.01.06.01.12.02.19a2.635 2.635 0 01.02.28 3.976 3.976 0 01.01.69.03.03 0 010 .04 5.519 5.519 0 01-.05.71c-.02.15-.05.31-.08.46a4.37 4.37 0 01-.12.49 7 7 0 01-.94 2.06v.01h-.01s.01 0 0 .01a6.943 6.943 0 01-.85 1.03c-.1.11-.22.21-.33.32-.11.09-.23.19-.35.28s-.24.18-.36.26-.24.16-.37.24a.02.02 0 00-.02.01c-.13.07-.26.14-.4.21a7.859 7.859 0 01-.84.36s.001-.011-.009-.001zM57.23 43.401v10.89M40.13 54.291V42.901h.01M62.929 65.69h-8.64a8.938 8.938 0 00.1-1.27 9.716 9.716 0 00-2.51-6.78c-.15-.17-.31-.34-.48-.5h11.53v.5"/>
    <path fill="none" stroke="#52776d" stroke-miterlimit="10" stroke-width=".25" d="M62.93 54.311h-2.85v-14.31h-22.8v14.24h-2.85v-17.04h28.5v17.11zM80.02 34.221h-5.7v2.86h5.7v17.09H65.76v-34.18h14.26v14.23z"/>
    <path fill="none" stroke="#52776d" stroke-miterlimit="10" stroke-width=".25" d="M85.71 54.291h-2.84v-37.04H62.93v17.1h-28.5v-17.1H14.49v37.04h-2.85v-39.89H85.71v39.89zM85.71 54.291h.03"/>
    <path fill="none" stroke="#000" stroke-miterlimit="10" stroke-width=".5" d="M98.49 56.211v.5H88.47v-.5"/>
    <path fill="none" stroke="#52776d" stroke-miterlimit="10" stroke-width=".5" d="M88.47 51.941v-.5h10.02v4.77H88.47v-4.27z"/>
    <path d="M76.29 66.17h-.01v.231c0 .1 0 .2.01.3a8.94 8.94 0 00.16 1.48h.01v.01c.03.15.07.31.11.46v.01a9.025 9.025 0 008.71 6.73 7.934 7.934 0 00.98-.06 8.581 8.581 0 001.69-.34 8.977 8.977 0 002.37-1.15 8.618 8.618 0 001-.78.038.038 0 00.02-.02c.11-.1.21-.2.31-.3a8.958 8.958 0 001.91-2.83 8.286 8.286 0 00.31-.83 9.436 9.436 0 00.3-1.3 9.191 9.191 0 00.1-1.39M76.29 66.02a.563.563 0 000 .13" fill="none" stroke="#000" stroke-miterlimit="10" stroke-width=".5"/>
    <path d="M91.8 66.33a.127.127 0 01.01.06" fill="none" stroke="#000" stroke-miterlimit="10" stroke-width=".25"/>
    <path d="M91.34 72.54c.11-.1.21-.2.31-.3a8.958 8.958 0 001.91-2.83c.11-.25.2-.5.29-.76a10.123 10.123 0 00.32-1.37 8.468 8.468 0 00.09-1.13.035.035 0 00.01-.02v-.25a10.4 10.4 0 00-.1-1.37c-.05-.29-.11-.59-.18-.87s-.17-.57-.27-.85a8.622 8.622 0 00-.75-1.56 10.09 10.09 0 00-.75-1.06c-.19-.22-.38-.44-.58-.64s-.42-.4-.64-.58a8.435 8.435 0 00-.91-.66c-.09-.06-.19-.11-.28-.17a9.7 9.7 0 00-1.02-.51c-.08-.03-.15-.06-.23-.09v-.01c-.06-.02-.11-.04-.17-.06a8.511 8.511 0 00-.98-.3h-.01a9.249 9.249 0 00-2.12-.25h-.01a8.881 8.881 0 00-2.07.24c-.06.01-.12.03-.18.04a8.975 8.975 0 00-1.32.46 8.87 8.87 0 00-2.78 1.9 8.807 8.807 0 00-2.22 3.67 6.416 6.416 0 00-.23.86 8.48 8.48 0 00-.19 1.83 2.09 2.09 0 00.01.25.014.014 0 000 .02.019.019 0 000 .03v.2c.02.2.03.4.06.59a7.049 7.049 0 00.13.78 2.615 2.615 0 00.09.38v.01a.031.031 0 00.01.02.037.037 0 00.01.03 9.006 9.006 0 008.69 6.68 7.934 7.934 0 00.98-.06 8.581 8.581 0 001.69-.34 9.04 9.04 0 002.379-1.15 9.436 9.436 0 00.99-.78" fill="none" stroke="#52776d" stroke-miterlimit="10" stroke-width=".5"/>
    <path d="M87.85 72.07a7.579 7.579 0 01-.8.28 6.449 6.449 0 01-3.32.03 5.751 5.751 0 01-.99-.33 6.879 6.879 0 01-1.37-.79 8.777 8.777 0 01-.79-.7 7.221 7.221 0 01-.94-1.24c-.1-.18-.2-.37-.29-.56a6.745 6.745 0 01-.37-1.01 6.346 6.346 0 01-.24-1.5 6.106 6.106 0 01.24-1.99 6.5 6.5 0 014.51-4.53 6.564 6.564 0 012.19-.22 4.337 4.337 0 01.87.12 2.042 2.042 0 01.41.1.134.134 0 01.08.02 2.116 2.116 0 01.31.09.9.9 0 01.21.08 2.765 2.765 0 01.47.2 2.73 2.73 0 01.48.25 3.215 3.215 0 01.46.29 2.944 2.944 0 01.41.31c.01-.01.02 0 .03.02a3.175 3.175 0 01.34.3.616.616 0 01.14.14.382.382 0 01.09.09.231.231 0 01.07.07 2.089 2.089 0 01.2.22 2.433 2.433 0 01.2.25l.09.12a2.714 2.714 0 01.24.35.219.219 0 01.03.05c.06.09.11.18.16.27a1.093 1.093 0 01.08.15.053.053 0 01.02.03c.05.09.09.17.13.26a.938.938 0 01.06.15 1.76 1.76 0 01.09.2c.04.1.08.2.11.3s.07.21.1.31c.01.03.01.05.02.08a4.694 4.694 0 01.14.65l.03.15a1.5 1.5 0 00.02.2l.03.31a5.564 5.564 0 01.01.58v.07a.076.076 0 01-.01.04v.171c-.01.17-.03.35-.05.52-.02.12-.04.24-.07.36-.03.15-.06.29-.1.44a6.5 6.5 0 01-.52 1.31 6.574 6.574 0 01-1.15 1.55 5.414 5.414 0 01-.62.55q-.15.12-.33.24a6.946 6.946 0 01-1.11.599z" fill="none" stroke="#52776d" stroke-miterlimit="10" stroke-width=".25"/>
  </g>
</svg>
