<svg id="Layer_1" data-name="Layer 1" xmlns="http://www.w3.org/2000/svg" viewBox="0 0 48.42 47.66"><title>trains_5</title><circle cx="14.15" cy="14.57" r="0.66" transform="translate(-9.51 4.55) rotate(-17.36)"/><circle cx="17.24" cy="16.2" r="0.96" transform="translate(-7.71 1.96) rotate(-7.23)"/><circle cx="18.74" cy="13.13" r="0.66" transform="matrix(0.62, -0.79, 0.79, 0.62, -8.96, 19.44)"/><path d="M41.37,40.93A2.05,2.05,0,1,0,43.42,43h0A2.05,2.05,0,0,0,41.37,40.93Zm0,3A0.93,0.93,0,1,1,42.3,43h0a0.93,0.93,0,0,1-.93.93h0Z" transform="translate(-5.8 -0.34)"/><path d="M18.51,40.93A2.05,2.05,0,1,0,20.56,43h0A2.05,2.05,0,0,0,18.51,40.93Zm0,3A0.93,0.93,0,1,1,19.44,43h0a0.93,0.93,0,0,1-.93.93h0Z" transform="translate(-5.8 -0.34)"/><circle cx="47.35" cy="13.28" r="0.84" transform="translate(7.99 48.88) rotate(-62.63)"/><circle cx="43.18" cy="11.12" r="0.84" transform="translate(7.65 44.01) rotate(-62.63)"/><path d="M42.89,16.29a4.24,4.24,0,0,0,1.95.48,4.17,4.17,0,0,0,1.85-.43,0.56,0.56,0,0,0-.49-1A3.11,3.11,0,0,1,41.77,13a0.57,0.57,0,0,0-1.12.16A4.22,4.22,0,0,0,42.89,16.29Z" transform="translate(-5.8 -0.34)"/><path d="M52.69,21.15l-4.14-3.06,0.1,0,0.06,0a4.52,4.52,0,0,0,1.95.4,2.7,2.7,0,0,0,2.51-1.12V17.31A9.42,9.42,0,0,0,51.41,6.24a2.65,2.65,0,0,0-3-4L45.68,3l-2.07-2a2.65,2.65,0,0,0-3.78,3.71,9.35,9.35,0,0,0-3.53,3.76l-0.05.1c-0.67,1.3.76,2.83,1.83,3.51a0.77,0.77,0,0,0,0,.25L33.29,11a3,3,0,0,0-2.37.21A3.15,3.15,0,0,0,29.38,13a3.1,3.1,0,0,0,1.95,3.92L34,17.79,33.21,19.4A8.12,8.12,0,0,0,31,19a3.08,3.08,0,0,0-3.85-2.91l-4.28,1.07a5.56,5.56,0,0,0,.47-3.87,5.43,5.43,0,0,0-.84-1.82A2.56,2.56,0,1,0,18.24,9a7.28,7.28,0,0,0-5.4,1.34,2.58,2.58,0,0,0-2.51-.78,2.52,2.52,0,0,0-1.58,1.12,2.44,2.44,0,0,0,1.51,3.69,5.42,5.42,0,0,0,.08,2.19h0a5.56,5.56,0,0,0,2.24,3.2L8.1,20.86a3.08,3.08,0,0,0,1.49,6L11,26.49a1.12,1.12,0,0,1,1.35.81l0.14,0.56H10.82a0.56,0.56,0,0,0-.56.56V43a0.56,0.56,0,0,0,.56.56H13.5a5,5,0,0,0,10,0H36.46a5,5,0,0,0,10,0H50A0.56,0.56,0,0,0,50.57,43V28.43A0.56,0.56,0,0,0,50,27.87H44.58l1.9-3.67L49,26.09a3.08,3.08,0,1,0,3.86-4.8ZM39.69,9.6h0l0.08-.16A0.86,0.86,0,0,1,40.33,9a7.1,7.1,0,0,1,1.52-.16A9.7,9.7,0,0,1,46.24,10,9.16,9.16,0,0,1,50.35,14a0.86,0.86,0,0,1,0,.74L50.21,15c-1.31,2.53-4.74,3.36-7.63,1.88S38.38,12.13,39.69,9.6Zm9.11-6.32a1.53,1.53,0,1,1-.6,2.58L46.27,4.05Zm-8.5-.61a1.52,1.52,0,0,1,1-1.12,1.56,1.56,0,0,1,.45-0.07,1.51,1.51,0,0,1,1,.41l1.93,1.81-2.54.77A1.53,1.53,0,0,1,40.3,2.67ZM37.58,10.2a1.13,1.13,0,0,1-.33-1l0.05-.1a8.22,8.22,0,0,1,3.57-3.58,2.6,2.6,0,0,0,.92.17,2.69,2.69,0,0,0,.78-0.12l2.77-.83,2.11,2a2.63,2.63,0,0,0,1.8.72A2.67,2.67,0,0,0,50.61,7a8.3,8.3,0,0,1,1.58,9.81v0.05c-0.24.46-1.48,0.59-2.37,0.41a5.67,5.67,0,0,0,1.38-1.73l0.15-.29a2,2,0,0,0,0-1.71A10.8,10.8,0,0,0,40.13,7.9a2,2,0,0,0-1.32,1l-0.08.15a5.66,5.66,0,0,0-.56,1.71A4.05,4.05,0,0,1,37.58,10.2Zm4.48,7.71a7.63,7.63,0,0,0,3.5.87,7,7,0,0,0,1.74-.22L48,19a6,6,0,0,1-10.08-5.46,0.56,0.56,0,0,0,0-.09l0.49,0.15A7.39,7.39,0,0,0,42.06,17.91Zm-11.61-4.6a2.07,2.07,0,0,1,1-1.17A1.93,1.93,0,0,1,33,12l0.24,0.07L31.94,15.9l-0.26-.09A2,2,0,0,1,30.45,13.31Zm7.22,14.56H27a7,7,0,0,1,9.52-4.62,7,7,0,0,1,1.21,3.92C37.69,27.4,37.69,27.64,37.66,27.87ZM33.74,21.5a8.15,8.15,0,0,0-8,6.37h-2c0-.23,0-0.46,0-0.69a7,7,0,0,1,11.2-5.6,8.21,8.21,0,0,0-1.19-.08h0ZM20.37,8.2a1.45,1.45,0,0,1,1.37,2.44,6.12,6.12,0,0,0-1.38-1,6.63,6.63,0,0,0-1-.43A1.45,1.45,0,0,1,20.37,8.2ZM9.54,12.4A1.45,1.45,0,0,1,12,11.07a6.3,6.3,0,0,0-1.49,2.38,1.46,1.46,0,0,1-1-1h0Zm1.9,3.86h0a4.81,4.81,0,0,1,1.68-4.78,6.2,6.2,0,0,1,2.52-1.29,6,6,0,0,1,4.19.45,4.55,4.55,0,0,1,2.38,2.93C22.86,16.18,21,18.9,18,19.64s-5.91-.77-6.56-3.37h0ZM13.4,27a2.24,2.24,0,0,0-2.7-1.62l-1.37.34a2,2,0,0,1-1-3.8l5.7-1.42a7,7,0,0,0,2.41.43,7.4,7.4,0,0,0,1.79-.22,7.15,7.15,0,0,0,3.63-2.18H22l5.35-1.34a2,2,0,0,1,2.43,1.86,8.17,8.17,0,0,0-7.24,8.11,4.81,4.81,0,0,0,0,.69h-9ZM18.51,46.9A3.92,3.92,0,1,1,22.43,43h0A3.92,3.92,0,0,1,18.51,46.9Zm23,0A3.92,3.92,0,1,1,45.38,43,3.92,3.92,0,0,1,41.46,46.9Zm5-4.48a5,5,0,0,0-10,0H23.51a5,5,0,0,0-10,0H11.38V34.86A3.58,3.58,0,0,1,12.3,36c0.51,0.82,1.12,1.83,2.44,1.83s1.93-1,2.44-1.83S18,34.7,18.65,34.7s1,0.5,1.48,1.3,1.12,1.83,2.44,1.83S24.5,36.82,25,36s0.84-1.3,1.48-1.3,1,0.5,1.48,1.3,1.12,1.83,2.44,1.83,1.93-1,2.44-1.83,0.84-1.3,1.48-1.3,1,0.49,1.48,1.3,1.12,1.83,2.44,1.83,1.93-1,2.44-1.83,0.84-1.3,1.48-1.3,1,0.5,1.49,1.3,1.12,1.83,2.44,1.83,1.93-1,2.44-1.83a3.57,3.57,0,0,1,.93-1.12v7.54h-3Zm3-8.77a3.45,3.45,0,0,0-1.88,1.75c-0.5.81-.85,1.3-1.49,1.3s-1-.5-1.49-1.3-1.12-1.83-2.44-1.83-1.92,1-2.43,1.83-0.85,1.3-1.48,1.3-1-.49-1.48-1.3-1.12-1.83-2.44-1.83-1.93,1-2.44,1.83-0.85,1.3-1.48,1.3-1-.5-1.48-1.3-1.12-1.83-2.44-1.83-1.93,1-2.44,1.83-0.85,1.3-1.48,1.3-1-.5-1.48-1.3a3,3,0,0,0-2.44-1.83c-1.29,0-1.93,1-2.44,1.83s-0.85,1.3-1.48,1.3-1-.5-1.48-1.3a3.45,3.45,0,0,0-1.88-1.75V29H49.45v4.67ZM38.84,27.87c0-.23,0-0.46,0-0.69a8.11,8.11,0,0,0-1.52-4.73l-0.07-.1a8.2,8.2,0,0,0-3-2.52l1.08-2.09A0.56,0.56,0,0,0,35.09,17l-0.08,0-2-.67,1.27-3.86,2.6,0.78a0.56,0.56,0,0,0-.07.16,7.1,7.1,0,0,0,12.08,6.37l2,1.49-2.33,3.14-1.93-1.42H46.6l-0.07-.06a0.56,0.56,0,0,0-.75.24h0l-2.45,4.75H38.84Zm13.59-3.08a2,2,0,0,1-2.74.4L49.46,25l2.34-3.15L52,22a2,2,0,0,1,.4,2.74h0Z" transform="translate(-5.8 -0.34)"/></svg>