<svg xmlns="http://www.w3.org/2000/svg" viewBox="0 0 42 55">
  <g data-name="Layer 1">
    <path d="M14.105 4.093a2.76 2.76 0 001.8.79 3.8 3.8 0 002.25-1.1 8.33 8.33 0 015.75-2 8.33 8.33 0 015.75 2 3.8 3.8 0 002.25 1.096 2.76 2.76 0 001.8-.78 2.51 2.51 0 011.33 2.22v5.06H12.772V6.313a2.51 2.51 0 011.333-2.22z" fill="#86ad6c"/>
    <g data-name="&lt;Group&gt;">
      <g opacity=".41" style="mix-blend-mode:multiply">
        <path d="M40.537 32.003a6.346 6.346 0 01.76.13h.08a7.147 7.147 0 01.79.23l.19.07a6.81 6.81 0 01.74.31 6.369 6.369 0 01.72.41l.18.13c.23.17.46.35.67.54v-1.82h-4.13zm-3.932-21.58v1.456h5.2v-1.46h-5.2zm2.22 12.57v-1.46h-.74v1.57a2.652 2.652 0 01.742-.11zm-.21 8.95H9.457l1.42.44a8.58 8.58 0 012.64 1.38l.19.17a6.293 6.293 0 01.47.43l.22.24.24.27h18.52l.25-.27.21-.23c.16-.16.32-.31.49-.46l.17-.15c.23-.19.48-.37.73-.54.24-.15.48-.29.73-.42l.26-.12.56-.24.32-.11.51-.16.34-.08.55-.1zm8.36-27.48a3.707 3.707 0 01-.71 5.18v25.71a8.2 8.2 0 11-13.98 1H15.747a8.192 8.192 0 11-14-1V9.643a3.711 3.711 0 115.86-3.7h3.89a4 4 0 012.63-2.93.742.742 0 01.76.18 1.853 1.853 0 001.12.7 3.117 3.117 0 001.35-.78 9.85 9.85 0 016.65-2.36 9.876 9.876 0 016.65 2.37 3.061 3.061 0 001.35.78 1.912 1.912 0 001.12-.7.733.733 0 01.76-.18 4.019 4.019 0 012.63 2.93h3.888a3.695 3.695 0 016.572-1.49zm-2.8 4.45a2.232 2.232 0 10-2.35-2.96h2.05a.74.74 0 110 1.48h-7.38v1.48h7.38a1.5 1.5 0 00.302 0zm2.03 31.18a6.693 6.693 0 00-1.37-4.06c-.14-.18-.3-.36-.46-.53l-.06-.07a5.625 5.625 0 00-.44-.41l-.14-.16-.31-.23-.31-.23-.12-.07a4.738 4.738 0 00-.54-.31 5.786 5.786 0 00-.68-.29h-.16a7.036 7.036 0 00-2.12-.35 6.71 6.71 0 00-.03 13.42h.03a6.715 6.715 0 006.71-6.71zm-1.47-9.69v-20h-1.56v20h1.56zm-3.05-7.39l.14-.02h-.14v-1.46h-1.48v1.46h1.48v.02zm.06-2.99v-6.68h-1.48v3a.74.74 0 01-1.48 0v-3h-1.48v3a.74.74 0 01-1.48 0v-3l-.08-.03h-1.48v3a3.722 3.722 0 003.71 3.71h3.77zm-.03 10.43v-5.94h-3a1.483 1.483 0 00-.79.23.7.7 0 01-.46.46 1.483 1.483 0 00-.23.79v4.45h1.6v-3.71a.74.74 0 011.48 0v3.69l-.11.03h1.51zm-5.09-6.43v-2.73a5.081 5.081 0 01-1.48-.72l-.14.02v6.85h.88v-1.48a2.95 2.95 0 01.742-1.94zm-.88 6.41v-1.48H12.117v1.47l-.11.01h23.74zm-.74-18.554V6.823a2.516 2.516 0 00-1.33-2.22 2.745 2.745 0 01-1.8.78 3.788 3.788 0 01-2.25-1.1 8.342 8.342 0 00-5.75-2 8.342 8.342 0 00-5.75 2 3.788 3.788 0 01-2.25 1.1 2.708 2.708 0 01-1.8-.79 2.516 2.516 0 00-1.33 2.22v5.066h22.26zm-1.32 15.67v-8.16a.885.885 0 010-.23 5.11 5.11 0 01-.79-2.74v-3l-.12-.05h-.74v14.18h1.65zm-3.02-.03v-14.1l-.11-.05h-1.48v14.15h1.59zm-3 0v-14.1l-.08-.05h-1.48v14.15h1.56zm-3 0v-14.1l-.05-.05h-1.48v14.15h1.53zm-3 0v-14.1l-.02-.05h-1.48v14.15h1.5zm-3 0V13.373h-1.47v14.15h1.47zm-3 0v-14.1l-.05-.11h-.6v3a5.11 5.11 0 01-.79 2.74.885.885 0 010 .23v8.24h1.44zm-.67 12.55a6.676 6.676 0 00-1.32-3.99 7.029 7.029 0 00-1.69-1.62c-.18-.11-.36-.21-.54-.31l-.13-.07c-.14-.07-.29-.13-.44-.19l-.25-.1-.36-.11-.39-.12-.31-.1-.45-.08a5.208 5.208 0 00-.79 0 6.71 6.71 0 00-.04 13.42h.04a6.72 6.72 0 006.672-6.726zm-1.52-23.55l-.01-.15v-3h-1.48v3a.74.74 0 01-1.48 0v-3H9.027v3a.74.74 0 01-1.48 0v-3h-1.48v6.68h3.79a3.555 3.555 0 003.62-3.526zm-1.47 10.934h.88l-.19-.01v-6.88a5.081 5.081 0 01-1.48.72v2.48a.885.885 0 010 .23 3.031 3.031 0 01.79 2v1.46zm-.71-18.53v-1.5H3.877a.74.74 0 010-1.48h2.09a2.209 2.209 0 00-2.09-1.48 2.23 2.23 0 000 4.46h7.42zm-.08 2.96v-1.48h-5.2v1.476h5.2zm-.59 18.55v-4.454a1.49 1.49 0 00-1.48-1.48H6.067v5.94h1.49v-3.71a.74.74 0 011.48 0v3.7h1.59zm-.85-7.33v-1.59h-.6l-.14.02v1.46a2.652 2.652 0 01.742.11zm-2.12-.11v-1.48H6.177l-.11.02v1.46h1.59zm-.07 8.93H3.097v1.85a8.222 8.222 0 01.67-.49l.17-.13a6.369 6.369 0 01.72-.41 6.26 6.26 0 01.748-.32l.18-.07c.26-.09.87-.23.87-.23.12-.03.41-.07.66-.12s.472-.08.472-.08zm-2.97-1.52v-20H3.097v20h1.52z" fill="#435b55"/>
        <path d="M46.247 6.543a2.219 2.219 0 01-2.07 2.37 1.5 1.5 0 01-.3 0h-7.38v-1.48h7.38a.74.74 0 100-1.48h-2.05a2.286 2.286 0 014.42.59z" fill="#003d00"/>
        <path d="M44.837 36.033a6.71 6.71 0 01-5.34 10.77h-.03a6.71 6.71 0 01.03-13.42 7.036 7.036 0 012.12.35h.16a5.786 5.786 0 01.68.29 4.738 4.738 0 01.54.31l.12.07.31.23.31.23.14.16a5.625 5.625 0 01.44.41l.06.07c.16.17.32.35.46.53zm-4.96 9.24a5.2 5.2 0 000-10.37h-.83a5.202 5.202 0 00.83 10.37z" fill="#335159"/>
        <path fill="#003d00" d="M44.738 10.403v20h-1.56v-20h1.56z"/>
        <path d="M44.667 32.003v1.82c-.21-.19-.44-.37-.67-.54l-.18-.13a6.369 6.369 0 00-.72-.41 6.81 6.81 0 00-.74-.31l-.19-.07a7.147 7.147 0 00-.79-.23h-.08a6.346 6.346 0 00-.76-.13h4.13zM40.267 43.733a3.727 3.727 0 002.03-1.18l-1.34-.77a2.266 2.266 0 01-.69.4v1.55zm4.38-4.06a5.2 5.2 0 11-5.6-4.77h.83a5.2 5.2 0 014.77 4.77zm-1.65 1.59a3.392 3.392 0 000-2.35l-1.33.77h-.02a2.011 2.011 0 01.02.81zm-2.12-2.86l1.39-.78h-.02a3.64 3.64 0 00-2.06-1.17v1.55a2.266 2.266 0 01.69.4zm-.66 1.69a.74.74 0 10-.75.74h.01a.738.738 0 00.74-.74zm-1.44 3.64v-1.56a2.266 2.266 0 01-.69-.4l-1.34.77-.06.01a3.733 3.733 0 002.09 1.18zm-.03-5.74v-1.54l-.03.01a3.774 3.774 0 00-2 1.16l1.34.77a2.266 2.266 0 01.69-.4zm-1.47 1.69l-1.32-.76a3.9 3.9 0 00-.21 1.17h-.01a3.429 3.429 0 00.21 1.19l1.33-.79a1.845 1.845 0 010-.814zM41.828 22.993l-.14.02v-.02h.14z"/>
        <path fill="#602a00" d="M36.608 10.423h5.2v1.46h-5.2z"/>
        <path d="M41.747 13.343v6.68h-3.77a3.722 3.722 0 01-3.71-3.71v-3h1.48l.08.03v3a.74.74 0 001.48 0v-3h1.48v3a.74.74 0 001.48 0v-3h1.48zM41.717 24.513v5.94h-1.512l.11-.03v-3.69a.74.74 0 00-1.48 0v3.71h-1.6v-4.45a1.483 1.483 0 01.23-.79.7.7 0 00.46-.46 1.483 1.483 0 01.79-.23h3zM40.208 21.533h1.48v1.46h-1.48z" fill="#3c5b00"/>
        <path d="M39.477 39.353a.74.74 0 010 1.48h-.01a.74.74 0 01.01-1.48z" fill="#602a00"/>
        <path d="M38.827 21.533v1.46a2.652 2.652 0 00-.74.11v-1.57h.74z" fill="#3c5b00"/>
        <path d="M38.617 31.943l-.34.05-.55.1-.34.08-.51.16-.32.11-.56.24-.26.12c-.25.13-.49.27-.73.42-.25.17-.5.35-.73.54l-.17.15c-.17.15-.33.3-.49.46l-.21.23-.25.27h-18.52l-.24-.27-.22-.24a6.293 6.293 0 00-.47-.43l-.19-.17a8.58 8.58 0 00-2.64-1.38l-1.42-.44h29.16z"/>
        <path fill="#003d00" d="M35.748 28.953v1.48h-23.74l.11-.01v-1.47h23.63z"/>
        <path d="M35.005 6.823v5.056H12.747V6.813a2.516 2.516 0 011.33-2.22 2.708 2.708 0 001.8.79 3.788 3.788 0 002.25-1.1 8.342 8.342 0 015.75-2 8.342 8.342 0 015.75 2 3.788 3.788 0 002.25 1.1 2.745 2.745 0 001.8-.78 2.516 2.516 0 011.328 2.22z" fill="#003f10"/>
        <path d="M13.677 36.079a6.72 6.72 0 01-5.35 10.72h-.04a6.71 6.71 0 01.04-13.42 5.208 5.208 0 01.79 0l.45.08.31.1.39.12.36.11.25.1c.15.06.3.12.44.19l.13.07c.18.1.36.2.54.31a7.029 7.029 0 011.69 1.62zm-4.98 9.19a5.2 5.2 0 000-10.37h-.82a5.203 5.203 0 00.82 10.374z" fill="#335159"/>
        <path d="M9.077 43.733a3.727 3.727 0 002.03-1.18l-1.34-.77a2.266 2.266 0 01-.69.4v1.55zm-1.52-7.27h-.01a3.73 3.73 0 00-2.02 1.16l1.34.77a2.266 2.266 0 01.69-.4v-1.53zm5.91 3.21a5.2 5.2 0 11-5.59-4.77h.82a5.2 5.2 0 014.77 4.77zm-1.66 1.59a3.392 3.392 0 000-2.35l-1.33.77a1.845 1.845 0 010 .81zm-2.08-2.86l1.35-.78a3.7 3.7 0 00-2.04-1.17v1.55a2.266 2.266 0 01.69.4zm-.69 1.69a.74.74 0 10-.75.74h.01a.738.738 0 00.74-.74zm-1.47 3.64v-1.56a2.266 2.266 0 01-.69-.4l-1.32.77-.04.01a3.72 3.72 0 002.05 1.18zm-1.462-4.04l-1.33-.77a3.9 3.9 0 00-.21 1.17 3.429 3.429 0 00.21 1.19l1.33-.78a1.845 1.845 0 010-.81z"/>
        <path d="M13.467 16.373l.01.15a3.555 3.555 0 01-3.62 3.53h-3.79v-6.68h1.48v3a.74.74 0 001.48 0v-3h1.478v3a.74.74 0 001.48 0v-3h1.48v3z" fill="#3c5b00"/>
        <path d="M11.297 7.423v1.5h-7.42a2.23 2.23 0 010-4.46 2.209 2.209 0 012.09 1.48h-2.09a.74.74 0 000 1.48h7.42z" fill="#003d00"/>
        <path fill="#602a00" d="M11.218 10.423v1.46h-5.2v-1.48h5.2v.02z"/>
        <path d="M10.627 25.979v4.45h-1.59v-3.7a.74.74 0 00-1.48 0v3.71h-1.49v-5.94h3.08a1.49 1.49 0 011.48 1.48zM9.777 21.513v1.59a2.652 2.652 0 00-.74-.11v-1.46l.14-.02h.6z" fill="#3c5b00"/>
        <path d="M8.297 39.353a.74.74 0 010 1.48h-.01a.74.74 0 01.01-1.48z" fill="#602a00"/>
        <path fill="#3c5b00" d="M7.658 21.513v1.48h-1.59v-1.46l.11-.02h1.48z"/>
        <path d="M3.097 31.923h4.49s-.22.04-.47.08-.54.09-.66.12c0 0-.61.14-.87.23l-.182.07a6.26 6.26 0 00-.75.32 6.369 6.369 0 00-.72.41l-.17.13a8.222 8.222 0 00-.67.49v-1.85z"/>
        <path fill="#003d00" d="M4.618 10.403v20h-1.52v-20h1.52z"/>
        <path d="M46.267 35.353V9.643a3.7 3.7 0 10-5.862-3.69h-3.89a4.019 4.019 0 00-2.63-2.93.733.733 0 00-.76.18 1.912 1.912 0 01-1.12.7 3.061 3.061 0 01-1.35-.78 9.876 9.876 0 00-6.65-2.37 9.85 9.85 0 00-6.65 2.36 3.117 3.117 0 01-1.35.78 1.853 1.853 0 01-1.12-.7.742.742 0 00-.76-.18 4 4 0 00-2.63 2.93h-3.89a3.712 3.712 0 10-5.86 3.7v25.71a8.186 8.186 0 1014 1h16.54a8.2 8.2 0 1013.982-1z" fill="none" stroke="#000" stroke-miterlimit="10" stroke-width=".5"/>
        <path fill="none" stroke="#000" stroke-miterlimit="10" stroke-width=".25" d="M40.178 32.003h.36M40.537 32.003h4.13v1.82c-.21-.19-.44-.37-.67-.54l-.18-.13a6.369 6.369 0 00-.72-.41 6.81 6.81 0 00-.74-.31l-.19-.07a7.147 7.147 0 00-.79-.23h-.08a6.346 6.346 0 00-.76-.13zM38.767 31.943h-.15l-.34.05-.55.1-.34.08-.51.16-.32.11-.56.24-.26.12c-.25.13-.49.27-.73.42-.25.17-.5.35-.73.54l-.17.15c-.17.15-.33.3-.49.46l-.21.23-.25.27h-18.52l-.24-.27-.22-.24a6.293 6.293 0 00-.47-.43l-.19-.17a8.58 8.58 0 00-2.64-1.38l-1.42-.44M8.968 31.943h29.65M6.457 32.123s-.61.14-.87.23l-.182.07a6.26 6.26 0 00-.75.32 6.369 6.369 0 00-.72.41l-.17.13a8.222 8.222 0 00-.67.49v-1.85h4.49s-.22.04-.47.08-.538.09-.658.12zM11.218 10.423v1.46h-5.2v-1.48h5.2v.02zM15.667 13.423v14.1h-1.44v-8.244a.885.885 0 000-.23 5.11 5.11 0 00.79-2.74v-3h.6zM18.668 13.373v14.15h-1.47v-14.15h1.47zM21.668 13.423v14.1h-1.5v-14.15h1.48l.02.05zM24.668 13.423v14.1h-1.53v-14.15h1.48l.05.05zM27.668 13.423v14.1h-1.56v-14.15h1.48l.08.05zM30.668 13.423v14.1h-1.59v-14.15h1.48l.11.05zM32.897 13.423v3a5.11 5.11 0 00.79 2.74.885.885 0 000 .23v8.16h-1.65v-14.18h.74zM36.608 10.423v-.02M36.608 10.423h5.2v1.46h-5.2zM40.317 30.423v-3.69a.74.74 0 00-1.48 0v3.71h-1.6v-4.45a1.483 1.483 0 01.23-.79.7.7 0 00.46-.46 1.483 1.483 0 01.79-.23h3v5.94h-1.512zM12.118 30.423v-1.47h23.63v1.48h-23.74l.11-.01zM6.178 21.513h1.48v1.48h-1.59v-1.46l.11-.02zM9.177 21.513h.6v1.59a2.652 2.652 0 00-.74-.11v-1.46zM12.887 27.453h-.882v-1.46a3.031 3.031 0 00-.79-2 .885.885 0 000-.23v-2.484a5.081 5.081 0 001.48-.72v6.88zM35.147 20.573a5.081 5.081 0 001.48.72v2.73a2.95 2.95 0 00-.74 1.94v1.48h-.882v-6.85zM40.208 21.533h1.48v1.46h-1.48zM41.688 22.993v.02l.14-.02h-.14zM38.828 23.013v-.02M38.827 22.993a2.652 2.652 0 00-.74.11v-1.57h.74v1.46zM35.827 13.343v3a.74.74 0 001.48 0v-3h1.48v3a.74.74 0 001.48 0v-3h1.48v6.68h-3.77a3.722 3.722 0 01-3.71-3.71v-3h1.48zM13.477 16.523a3.555 3.555 0 01-3.62 3.53h-3.79v-6.68h1.48v3a.74.74 0 001.48 0v-3h1.478v3a.74.74 0 001.48 0v-3h1.48v3zM6.147 24.503h3a1.49 1.49 0 011.48 1.48v4.45h-1.59v-3.7a.74.74 0 00-1.48 0v3.71h-1.49v-5.94h.08zM44.738 10.403v20h-1.56v-20h1.56zM43.877 4.463a2.23 2.23 0 01.3 4.45 1.5 1.5 0 01-.3 0h-7.38v-1.48h7.38a.74.74 0 100-1.48h-2.05a2.208 2.208 0 012.05-1.49zM14.077 4.593a2.708 2.708 0 001.8.79 3.788 3.788 0 002.25-1.1 8.342 8.342 0 015.75-2 8.342 8.342 0 015.75 2 3.788 3.788 0 002.25 1.1 2.745 2.745 0 001.8-.78 2.516 2.516 0 011.33 2.22v5.056h-22.26V6.813a2.516 2.516 0 011.33-2.22zM3.877 4.463a2.209 2.209 0 012.09 1.48h-2.09a.74.74 0 000 1.48h7.42v1.5h-7.42a2.23 2.23 0 010-4.46zM4.618 10.403v20h-1.52v-20h1.52zM8.327 46.803a6.72 6.72 0 005.35-10.72 7.029 7.029 0 00-1.69-1.62c-.18-.11-.36-.21-.54-.31l-.13-.07c-.14-.07-.29-.13-.44-.19l-.25-.1-.36-.11-.39-.12-.31-.1-.45-.08a5.208 5.208 0 00-.79 0 6.71 6.71 0 00-.04 13.42h.04zM39.497 46.803a6.708 6.708 0 005.34-10.77c-.14-.18-.3-.36-.46-.53l-.06-.07a5.625 5.625 0 00-.44-.41l-.14-.16-.31-.23-.31-.23-.12-.07a4.738 4.738 0 00-.54-.31 5.786 5.786 0 00-.68-.29h-.16a7.036 7.036 0 00-2.12-.35 6.71 6.71 0 00-.03 13.42h.03z"/>
        <path d="M39.877 34.903h-.83a5.2 5.2 0 10.83 0z" fill="none" stroke="#000" stroke-miterlimit="10" stroke-width=".25"/>
        <path d="M35.747 40.093a3.9 3.9 0 01.21-1.17l1.32.76a1.845 1.845 0 000 .81l-1.33.79a3.429 3.429 0 01-.21-1.19h.01zM39.477 40.833a.735.735 0 10-.01 0h.01zM41.667 39.679l1.33-.77a3.392 3.392 0 010 2.35l-1.33-.77a2.011 2.011 0 00-.02-.81h.02zM42.267 37.623l-1.39.78a2.266 2.266 0 00-.69-.4v-1.55a3.64 3.64 0 012.06 1.17h.02zM38.747 36.453v1.54a2.266 2.266 0 00-.69.4l-1.34-.77a3.774 3.774 0 012-1.16zM36.747 42.543l1.34-.77a2.266 2.266 0 00.69.4v1.56a3.733 3.733 0 01-2.09-1.18zM40.208 43.743l.06-.01M40.267 43.733v-1.554a2.266 2.266 0 00.69-.4l1.34.77a3.727 3.727 0 01-2.03 1.184zM8.697 34.903h-.82a5.2 5.2 0 10.82 0z" fill="none" stroke="#000" stroke-miterlimit="10" stroke-width=".25"/>
        <path d="M4.567 40.093a3.9 3.9 0 01.21-1.17l1.33.77a1.845 1.845 0 000 .81l-1.33.78a3.429 3.429 0 01-.21-1.19zM8.297 40.833a.735.735 0 10-.01 0h.01zM10.477 39.679l1.33-.77a3.392 3.392 0 010 2.35l-1.33-.77a1.845 1.845 0 000-.81zM11.077 37.623l-1.35.78a2.266 2.266 0 00-.69-.4v-1.55a3.7 3.7 0 012.04 1.17zM7.557 36.463v1.53a2.266 2.266 0 00-.69.4l-1.34-.77a3.73 3.73 0 012.02-1.16h.01zM7.558 36.463v-.01M5.557 42.543l1.32-.77a2.266 2.266 0 00.69.4v1.56a3.72 3.72 0 01-2.05-1.18zM9.077 43.733c-.01 0-.03.01-.04.01M9.077 43.733v-1.554a2.266 2.266 0 00.69-.4l1.34.77a3.727 3.727 0 01-2.03 1.184z" fill="none" stroke="#000" stroke-miterlimit="10" stroke-width=".25"/>
      </g>
      <path d="M40.537 31.503a6.346 6.346 0 01.76.13h.08a7.147 7.147 0 01.79.23l.19.07a6.81 6.81 0 01.74.31 6.369 6.369 0 01.72.41l.18.13c.23.17.46.35.67.54v-1.82h-4.13zm-3.932-21.58v1.456h5.2v-1.46h-5.2zm2.22 12.57v-1.46h-.74v1.57a2.652 2.652 0 01.742-.11zm-.21 8.95H9.457l1.42.44a8.58 8.58 0 012.64 1.38l.19.17a6.293 6.293 0 01.47.43l.22.24.24.27h18.52l.25-.27.21-.23c.16-.16.32-.31.49-.46l.17-.15c.23-.19.48-.37.73-.54.24-.15.48-.29.73-.42l.26-.12.56-.24.32-.11.51-.16.34-.08.55-.1zm8.36-27.48a3.707 3.707 0 01-.71 5.18v25.71a8.2 8.2 0 11-13.98 1H15.747a8.192 8.192 0 11-14-1V9.143a3.711 3.711 0 115.86-3.7h3.89a4 4 0 012.63-2.93.742.742 0 01.76.18 1.853 1.853 0 001.12.7 3.117 3.117 0 001.35-.78 9.85 9.85 0 016.648-2.36 9.876 9.876 0 016.65 2.37 3.061 3.061 0 001.35.78 1.912 1.912 0 001.12-.7.733.733 0 01.76-.18 4.019 4.019 0 012.63 2.93h3.89a3.695 3.695 0 016.572-1.49zm-2.8 4.45a2.232 2.232 0 10-2.35-2.96h2.05a.74.74 0 110 1.48h-7.38v1.48h7.38a1.5 1.5 0 00.302 0zm2.03 31.18a6.693 6.693 0 00-1.37-4.06c-.14-.18-.3-.36-.46-.53l-.06-.07a5.625 5.625 0 00-.44-.41l-.14-.16-.31-.23-.31-.23-.12-.07a4.738 4.738 0 00-.54-.31 5.786 5.786 0 00-.68-.29h-.16a7.036 7.036 0 00-2.12-.35 6.71 6.71 0 00-.03 13.42h.03a6.715 6.715 0 006.71-6.71zm-1.47-9.69v-20h-1.56v20h1.56zm-3.05-7.39l.14-.02h-.14v-1.46h-1.48v1.46h1.48v.02zm.06-2.99v-6.68h-1.48v3a.74.74 0 01-1.48 0v-3h-1.48v3a.74.74 0 01-1.48 0v-3l-.08-.03h-1.48v3a3.722 3.722 0 003.71 3.71h3.77zm-.03 10.43v-5.94h-3a1.483 1.483 0 00-.79.23.7.7 0 01-.46.46 1.483 1.483 0 00-.23.79v4.45h1.6v-3.71a.74.74 0 011.48 0v3.69l-.11.03h1.51zm-5.09-6.43v-2.73a5.081 5.081 0 01-1.48-.72l-.14.02v6.85h.88v-1.48a2.95 2.95 0 01.742-1.94zm-.88 6.41v-1.48H12.117v1.47l-.11.01h23.74zm-.74-18.554V6.323a2.516 2.516 0 00-1.33-2.22 2.745 2.745 0 01-1.8.78 3.788 3.788 0 01-2.25-1.1 8.342 8.342 0 00-5.75-2 8.342 8.342 0 00-5.75 2 3.788 3.788 0 01-2.25 1.1 2.708 2.708 0 01-1.8-.79 2.516 2.516 0 00-1.33 2.22v5.066h22.26zm-1.32 15.67v-8.16a.885.885 0 010-.23 5.11 5.11 0 01-.79-2.74v-3l-.12-.05h-.74v14.18h1.65zm-3.02-.03v-14.1l-.11-.05h-1.48v14.15h1.59zm-3 0v-14.1l-.08-.05h-1.48v14.15h1.56zm-3 0v-14.1l-.05-.05h-1.48v14.15h1.53zm-3 0v-14.1l-.02-.05h-1.48v14.15h1.5zm-3 0V12.873h-1.47v14.15h1.47zm-3 0v-14.1l-.05-.11h-.6v3a5.11 5.11 0 01-.79 2.74.885.885 0 010 .23v8.24h1.44zm-.67 12.55a6.676 6.676 0 00-1.318-3.99 7.029 7.029 0 00-1.69-1.62c-.18-.11-.36-.21-.54-.31l-.13-.07c-.14-.07-.29-.13-.44-.19l-.25-.1-.36-.11-.39-.12-.31-.1-.45-.08a5.208 5.208 0 00-.79 0 6.71 6.71 0 00-.04 13.42h.04a6.72 6.72 0 006.67-6.726zm-1.52-23.55l-.01-.15v-3h-1.48v3a.74.74 0 01-1.48 0v-3H9.027v3a.74.74 0 01-1.48 0v-3h-1.48v6.68h3.79a3.555 3.555 0 003.62-3.526zm-1.47 10.934h.88l-.19-.01v-6.88a5.081 5.081 0 01-1.48.72v2.48a.885.885 0 010 .23 3.031 3.031 0 01.79 2v1.46zm-.71-18.53v-1.5H3.877a.74.74 0 010-1.48h2.09a2.209 2.209 0 00-2.09-1.48 2.23 2.23 0 000 4.46h7.42zm-.08 2.96v-1.48h-5.2v1.476h5.2zm-.59 18.55v-4.454a1.49 1.49 0 00-1.48-1.48H6.067v5.94h1.49v-3.71a.74.74 0 011.48 0v3.7h1.59zm-.85-7.33v-1.59h-.6l-.14.02v1.46a2.652 2.652 0 01.742.11zm-2.12-.11v-1.48H6.177l-.11.02v1.46h1.59zm-.07 8.93H3.097v1.85a8.222 8.222 0 01.67-.49l.17-.13a6.369 6.369 0 01.72-.41 6.26 6.26 0 01.748-.32l.18-.07c.26-.09.87-.23.87-.23.12-.03.41-.07.66-.12s.472-.08.472-.08zm-2.97-1.52v-20H3.097v20h1.52z" fill="#dcf4ee"/>
      <path d="M46.247 6.043a2.219 2.219 0 01-2.07 2.37 1.5 1.5 0 01-.3 0h-7.38v-1.48h7.38a.74.74 0 100-1.48h-2.05a2.286 2.286 0 014.42.59z" fill="#4cd697"/>
      <path d="M44.837 35.533a6.71 6.71 0 01-5.34 10.77h-.03a6.71 6.71 0 01.03-13.42 7.036 7.036 0 012.12.35h.16a5.786 5.786 0 01.68.29 4.738 4.738 0 01.54.31l.12.07.31.23.31.23.14.16a5.625 5.625 0 01.44.41l.06.07c.16.17.32.35.46.53zm-4.96 9.24a5.2 5.2 0 000-10.37h-.83a5.202 5.202 0 00.83 10.37z" fill="#cceaf2"/>
      <path fill="#4cd697" d="M44.738 9.903v20h-1.56v-20h1.56z"/>
      <path d="M44.667 31.503v1.82c-.21-.19-.44-.37-.67-.54l-.18-.13a6.369 6.369 0 00-.72-.41 6.81 6.81 0 00-.74-.31l-.19-.07a7.147 7.147 0 00-.79-.23h-.08a6.346 6.346 0 00-.76-.13h4.13zM40.267 43.233a3.727 3.727 0 002.03-1.18l-1.34-.77a2.266 2.266 0 01-.69.4v1.55zm4.38-4.06a5.2 5.2 0 11-5.6-4.77h.83a5.2 5.2 0 014.77 4.77zm-1.65 1.59a3.392 3.392 0 000-2.35l-1.33.77h-.02a2.011 2.011 0 01.02.81zm-2.12-2.86l1.39-.78h-.02a3.64 3.64 0 00-2.06-1.17v1.55a2.266 2.266 0 01.69.4zm-.66 1.69a.74.74 0 10-.75.74h.01a.738.738 0 00.74-.74zm-1.44 3.64v-1.56a2.266 2.266 0 01-.69-.4l-1.34.77-.06.01a3.733 3.733 0 002.09 1.18zm-.03-5.74v-1.54l-.03.01a3.774 3.774 0 00-2 1.16l1.34.77a2.266 2.266 0 01.69-.4zm-1.47 1.69l-1.32-.76a3.9 3.9 0 00-.21 1.17h-.01a3.429 3.429 0 00.21 1.19l1.33-.79a1.845 1.845 0 010-.814z" fill="#076a89"/>
      <path d="M41.828 22.493l-.14.02v-.02h.14z"/>
      <path fill="#f9c38a" d="M36.608 9.923h5.2v1.46h-5.2z"/>
      <path d="M41.747 12.843v6.68h-3.77a3.722 3.722 0 01-3.71-3.71v-3h1.48l.08.03v3a.74.74 0 001.48 0v-3h1.48v3a.74.74 0 001.48 0v-3h1.48zM41.717 24.013v5.94h-1.512l.11-.03v-3.69a.74.74 0 00-1.48 0v3.71h-1.6v-4.45a1.483 1.483 0 01.23-.79.7.7 0 00.46-.46 1.483 1.483 0 01.79-.23h3zM40.208 21.033h1.48v1.46h-1.48z" fill="#d5f492"/>
      <path d="M39.477 38.853a.74.74 0 010 1.48h-.01a.74.74 0 01.01-1.48z" fill="#f9c38a"/>
      <path d="M38.827 21.033v1.46a2.652 2.652 0 00-.74.11v-1.57h.74z" fill="#d5f492"/>
      <path d="M38.617 31.443l-.34.05-.55.1-.34.08-.51.16-.32.11-.56.24-.26.12c-.25.13-.49.27-.73.42-.25.17-.5.35-.73.54l-.17.15c-.17.15-.33.3-.49.46l-.21.23-.25.27h-18.52l-.24-.27-.22-.24a6.293 6.293 0 00-.47-.43l-.19-.17a8.58 8.58 0 00-2.64-1.38l-1.42-.44h29.16z" fill="#076a89"/>
      <path fill="#4cd697" d="M35.748 28.453v1.48h-23.74l.11-.01v-1.47h23.63z"/>
      <path d="M35.005 6.323v5.056H12.747V6.313a2.516 2.516 0 011.33-2.22 2.708 2.708 0 001.8.79 3.788 3.788 0 002.25-1.1 8.342 8.342 0 015.75-2 8.342 8.342 0 015.75 2 3.788 3.788 0 002.25 1.1 2.745 2.745 0 001.8-.78 2.516 2.516 0 011.328 2.22z" fill="#64d8a9"/>
      <path d="M13.677 35.579a6.72 6.72 0 01-5.35 10.72h-.04a6.71 6.71 0 01.04-13.42 5.208 5.208 0 01.79 0l.45.08.31.1.39.12.36.11.25.1c.15.06.3.12.44.19l.13.07c.18.1.36.2.54.31a7.029 7.029 0 011.69 1.62zm-4.98 9.19a5.2 5.2 0 000-10.37h-.82a5.203 5.203 0 00.82 10.374z" fill="#cceaf2"/>
      <path d="M9.077 43.233a3.727 3.727 0 002.03-1.18l-1.34-.77a2.266 2.266 0 01-.69.4v1.55zm-1.52-7.27h-.01a3.73 3.73 0 00-2.02 1.16l1.34.77a2.266 2.266 0 01.69-.4v-1.53zm5.91 3.21a5.2 5.2 0 11-5.59-4.77h.82a5.2 5.2 0 014.77 4.77zm-1.66 1.59a3.392 3.392 0 000-2.35l-1.33.77a1.845 1.845 0 010 .81zm-2.08-2.86l1.35-.78a3.7 3.7 0 00-2.04-1.17v1.55a2.266 2.266 0 01.69.4zm-.69 1.69a.74.74 0 10-.75.74h.01a.738.738 0 00.74-.74zm-1.47 3.64v-1.56a2.266 2.266 0 01-.69-.4l-1.32.77-.04.01a3.72 3.72 0 002.05 1.18zm-1.462-4.04l-1.33-.77a3.9 3.9 0 00-.21 1.17 3.429 3.429 0 00.21 1.19l1.33-.78a1.845 1.845 0 010-.81z" fill="#076a89"/>
      <path d="M13.467 15.873l.01.15a3.555 3.555 0 01-3.62 3.53h-3.79v-6.68h1.48v3a.74.74 0 001.48 0v-3h1.478v3a.74.74 0 001.48 0v-3h1.48v3z" fill="#d5f492"/>
      <path d="M11.297 6.923v1.5h-7.42a2.23 2.23 0 010-4.46 2.209 2.209 0 012.09 1.48h-2.09a.74.74 0 000 1.48h7.42z" fill="#4cd697"/>
      <path fill="#f9c38a" d="M11.218 9.923v1.46h-5.2v-1.48h5.2v.02z"/>
      <path d="M10.627 25.479v4.45h-1.59v-3.7a.74.74 0 00-1.48 0v3.71h-1.49v-5.94h3.08a1.49 1.49 0 011.48 1.48zM9.777 21.013v1.59a2.652 2.652 0 00-.74-.11v-1.46l.14-.02h.6z" fill="#d5f492"/>
      <path d="M8.297 38.853a.74.74 0 010 1.48h-.01a.74.74 0 01.01-1.48z" fill="#f9c38a"/>
      <path fill="#d5f492" d="M7.658 21.013v1.48h-1.59v-1.46l.11-.02h1.48z"/>
      <path d="M3.097 31.423h4.49s-.22.04-.47.08-.54.09-.66.12c0 0-.61.14-.87.23l-.182.07a6.26 6.26 0 00-.75.32 6.369 6.369 0 00-.72.41l-.17.13a8.222 8.222 0 00-.67.49v-1.85z" fill="#076a89"/>
      <path fill="#4cd697" d="M4.618 9.903v20h-1.52v-20h1.52z"/>
      <path d="M46.267 34.853V9.143a3.7 3.7 0 10-5.862-3.69h-3.89a4.019 4.019 0 00-2.63-2.93.733.733 0 00-.76.18 1.912 1.912 0 01-1.12.7 3.061 3.061 0 01-1.35-.78 9.876 9.876 0 00-6.65-2.37 9.85 9.85 0 00-6.65 2.36 3.117 3.117 0 01-1.35.78 1.853 1.853 0 01-1.12-.7.742.742 0 00-.76-.18 4 4 0 00-2.63 2.93h-3.89a3.712 3.712 0 10-5.86 3.7v25.71a8.186 8.186 0 1014 1h16.54a8.2 8.2 0 1013.982-1z" fill="none" stroke="#226d5b" stroke-miterlimit="10" stroke-width=".5"/>
      <path fill="none" stroke="#226d5b" stroke-miterlimit="10" stroke-width=".25" d="M40.178 31.503h.36M40.537 31.503h4.13v1.82c-.21-.19-.44-.37-.67-.54l-.18-.13a6.369 6.369 0 00-.72-.41 6.81 6.81 0 00-.74-.31l-.19-.07a7.147 7.147 0 00-.79-.23h-.08a6.346 6.346 0 00-.76-.13zM38.767 31.443h-.15l-.34.05-.55.1-.34.08-.51.16-.32.11-.56.24-.26.12c-.25.13-.49.27-.73.42-.25.17-.5.35-.73.54l-.17.15c-.17.15-.33.3-.49.46l-.21.23-.25.27h-18.52l-.24-.27-.22-.24a6.293 6.293 0 00-.47-.43l-.19-.17a8.58 8.58 0 00-2.64-1.38l-1.42-.44M8.968 31.443h29.65M6.457 31.623s-.61.14-.87.23l-.182.07a6.26 6.26 0 00-.75.32 6.369 6.369 0 00-.72.41l-.17.13a8.222 8.222 0 00-.67.49v-1.85h4.49s-.22.04-.47.08-.538.09-.658.12zM11.218 9.923v1.46h-5.2v-1.48h5.2v.02zM15.667 12.923v14.1h-1.44v-8.244a.885.885 0 000-.23 5.11 5.11 0 00.79-2.74v-3h.6zM18.668 12.873v14.15h-1.47v-14.15h1.47zM21.668 12.923v14.1h-1.5v-14.15h1.48l.02.05zM24.668 12.923v14.1h-1.53v-14.15h1.48l.05.05zM27.668 12.923v14.1h-1.56v-14.15h1.48l.08.05zM30.668 12.923v14.1h-1.59v-14.15h1.48l.11.05zM32.897 12.923v3a5.11 5.11 0 00.79 2.74.885.885 0 000 .23v8.16h-1.65v-14.18h.74zM36.608 9.923v-.02M36.608 9.923h5.2v1.46h-5.2zM40.317 29.923v-3.69a.74.74 0 00-1.48 0v3.71h-1.6v-4.45a1.483 1.483 0 01.23-.79.7.7 0 00.46-.46 1.483 1.483 0 01.79-.23h3v5.94h-1.512zM12.118 29.923v-1.47h23.63v1.48h-23.74l.11-.01zM6.178 21.013h1.48v1.48h-1.59v-1.46l.11-.02zM9.177 21.013h.6v1.59a2.652 2.652 0 00-.74-.11v-1.46zM12.887 26.953h-.882v-1.46a3.031 3.031 0 00-.79-2 .885.885 0 000-.23v-2.484a5.081 5.081 0 001.48-.72v6.88zM35.147 20.073a5.081 5.081 0 001.48.72v2.73a2.95 2.95 0 00-.74 1.94v1.48h-.882v-6.85zM40.208 21.033h1.48v1.46h-1.48zM41.688 22.493v.02l.14-.02h-.14zM38.828 22.513v-.02M38.827 22.493a2.652 2.652 0 00-.74.11v-1.57h.74v1.46zM35.827 12.843v3a.74.74 0 001.48 0v-3h1.48v3a.74.74 0 001.48 0v-3h1.48v6.68h-3.77a3.722 3.722 0 01-3.71-3.71v-3h1.48zM13.477 16.023a3.555 3.555 0 01-3.62 3.53h-3.79v-6.68h1.48v3a.74.74 0 001.48 0v-3h1.478v3a.74.74 0 001.48 0v-3h1.48v3zM6.147 24.003h3a1.49 1.49 0 011.48 1.48v4.45h-1.59v-3.7a.74.74 0 00-1.48 0v3.71h-1.49v-5.94h.08zM44.738 9.903v20h-1.56v-20h1.56zM43.877 3.963a2.23 2.23 0 01.3 4.45 1.5 1.5 0 01-.3 0h-7.38v-1.48h7.38a.74.74 0 100-1.48h-2.05a2.208 2.208 0 012.05-1.49zM14.077 4.093a2.708 2.708 0 001.8.79 3.788 3.788 0 002.25-1.1 8.342 8.342 0 015.75-2 8.342 8.342 0 015.75 2 3.788 3.788 0 002.25 1.1 2.745 2.745 0 001.8-.78 2.516 2.516 0 011.33 2.22v5.056h-22.26V6.313a2.516 2.516 0 011.33-2.22zM3.877 3.963a2.209 2.209 0 012.09 1.48h-2.09a.74.74 0 000 1.48h7.42v1.5h-7.42a2.23 2.23 0 010-4.46zM4.618 9.903v20h-1.52v-20h1.52zM8.327 46.303a6.72 6.72 0 005.35-10.724 7.029 7.029 0 00-1.69-1.62c-.18-.11-.36-.21-.54-.31l-.13-.07c-.14-.07-.29-.13-.44-.19l-.25-.1-.36-.11-.39-.12-.31-.1-.45-.08a5.208 5.208 0 00-.79 0 6.71 6.71 0 00-.04 13.42h.04zM39.497 46.303a6.708 6.708 0 005.34-10.77c-.14-.18-.3-.36-.46-.53l-.06-.07a5.625 5.625 0 00-.44-.41l-.14-.16-.31-.23-.31-.23-.12-.07a4.738 4.738 0 00-.54-.31 5.786 5.786 0 00-.68-.29h-.16a7.036 7.036 0 00-2.12-.35 6.71 6.71 0 00-.03 13.42h.03z"/>
      <path d="M39.877 34.403h-.83a5.2 5.2 0 10.83 0z" fill="none" stroke="#226d5b" stroke-miterlimit="10" stroke-width=".25"/>
      <path d="M35.747 39.593a3.9 3.9 0 01.21-1.17l1.32.76a1.845 1.845 0 000 .81l-1.33.79a3.429 3.429 0 01-.21-1.19h.01zM39.477 40.333a.735.735 0 10-.01 0h.01zM41.667 39.179l1.33-.77a3.392 3.392 0 010 2.35l-1.33-.77a2.011 2.011 0 00-.02-.81h.02zM42.267 37.123l-1.39.78a2.266 2.266 0 00-.69-.4v-1.55a3.64 3.64 0 012.06 1.17h.02zM38.747 35.953v1.54a2.266 2.266 0 00-.69.4l-1.34-.77a3.774 3.774 0 012-1.16zM36.747 42.043l1.34-.77a2.266 2.266 0 00.69.4v1.56a3.733 3.733 0 01-2.09-1.18zM40.208 43.243l.06-.01M40.267 43.233v-1.554a2.266 2.266 0 00.69-.4l1.34.77a3.727 3.727 0 01-2.03 1.184zM8.697 34.403h-.82a5.2 5.2 0 10.82 0z" fill="none" stroke="#226d5b" stroke-miterlimit="10" stroke-width=".25"/>
      <path d="M4.567 39.593a3.9 3.9 0 01.21-1.17l1.33.77a1.845 1.845 0 000 .81l-1.33.78a3.429 3.429 0 01-.21-1.19zM8.297 40.333a.735.735 0 10-.01 0h.01zM10.477 39.179l1.33-.77a3.392 3.392 0 010 2.35l-1.33-.77a1.845 1.845 0 000-.81zM11.077 37.123l-1.35.78a2.266 2.266 0 00-.69-.4v-1.55a3.7 3.7 0 012.04 1.17zM7.557 35.963v1.53a2.266 2.266 0 00-.69.4l-1.34-.77a3.73 3.73 0 012.02-1.16h.01zM7.558 35.963v-.01M5.557 42.043l1.32-.77a2.266 2.266 0 00.69.4v1.56a3.72 3.72 0 01-2.05-1.18zM9.077 43.233c-.01 0-.03.01-.04.01M9.077 43.233v-1.554a2.266 2.266 0 00.69-.4l1.34.77a3.727 3.727 0 01-2.03 1.184z" fill="none" stroke="#226d5b" stroke-miterlimit="10" stroke-width=".25"/>
    </g>
  </g>
</svg>
