<svg id="Layer_1" data-name="Layer 1" xmlns="http://www.w3.org/2000/svg" viewBox="0 0 63 13"><title>trains_0</title><path d="M3.51,13.39a0.91,0.91,0,0,0-.91.91V35.25H1.73a0.91,0.91,0,0,0-.91.91V39.8a0.91,0.91,0,0,0,.91.91H3.1L5,43.91a0.91,0.91,0,0,0,.79.44H6.44a4.55,4.55,0,0,0,8.92,0h0.19a4.55,4.55,0,0,0,8.92,0h0.67a0.91,0.91,0,0,0,.78-0.44l1.89-3.2h4.43l1.89,3.19a0.91,0.91,0,0,0,.78.44h0.67a4.55,4.55,0,0,0,8.92,0H44.7a4.55,4.55,0,0,0,8.92,0h0.67a0.91,0.91,0,0,0,.79-0.44L57,40.71h1.31a0.91,0.91,0,0,0,.91-0.91V36.16a0.91,0.91,0,0,0-.91-0.91H57.36V14.3a0.91,0.91,0,0,0-.91-0.91H3.51Zm0.91,1.82H55.53v20H4.42v-20Zm6.48,3.53a0.91,0.91,0,0,0-.9.92V30.8a0.91,0.91,0,0,0,1.82,0s0,0,0,0V19.66a0.91,0.91,0,0,0-.9-0.92h0Zm5.46,0a0.91,0.91,0,0,0-.9.92V30.8a0.91,0.91,0,0,0,1.82,0s0,0,0,0V19.66a0.91,0.91,0,0,0-.9-0.92h0Zm5.46,0a0.91,0.91,0,0,0-.9.92V30.8a0.91,0.91,0,0,0,1.82,0s0,0,0,0V19.66a0.91,0.91,0,0,0-.9-0.92h0Zm5.46,0a0.91,0.91,0,0,0-.9.92V30.8a0.91,0.91,0,0,0,1.82,0s0,0,0,0V19.66a0.91,0.91,0,0,0-.9-0.92h0Zm5.46,0a0.91,0.91,0,0,0-.9.92V30.8a0.91,0.91,0,0,0,1.82,0s0,0,0,0V19.66a0.91,0.91,0,0,0-.9-0.92h0Zm5.46,0a0.91,0.91,0,0,0-.9.92V30.8a0.91,0.91,0,0,0,1.82,0s0,0,0,0V19.66a0.91,0.91,0,0,0-.9-0.92h0Zm5.46,0a0.91,0.91,0,0,0-.9.92V30.8a0.91,0.91,0,0,0,1.82,0s0,0,0,0V19.66a0.91,0.91,0,0,0-.9-0.92h0Zm5.46,0a0.91,0.91,0,0,0-.9.92V30.8a0.91,0.91,0,0,0,1.82,0s0,0,0,0V19.66a0.91,0.91,0,0,0-.9-0.92h0ZM2.64,37.07H57.36v1.82H2.64V37.07Zm2.58,3.64H7.29a4.53,4.53,0,0,0-.84,1.82H6.3Zm5.68,0a2.73,2.73,0,1,1-2.73,2.73A2.72,2.72,0,0,1,10.91,40.71Zm3.62,0H16.4a4.53,4.53,0,0,0-.84,1.82H15.37A4.51,4.51,0,0,0,14.52,40.71Zm5.49,0a2.73,2.73,0,1,1-2.73,2.73A2.72,2.72,0,0,1,20,40.71Zm3.62,0H25.7l-1.07,1.82H24.47A4.51,4.51,0,0,0,23.63,40.71Zm10.73,0h2.07a4.53,4.53,0,0,0-.84,1.82H35.44Zm5.69,0a2.73,2.73,0,1,1-2.73,2.73A2.72,2.72,0,0,1,40.05,40.71Zm3.62,0h1.87a4.53,4.53,0,0,0-.84,1.82H44.51A4.51,4.51,0,0,0,43.67,40.71Zm5.49,0a2.73,2.73,0,1,1-2.73,2.73A2.72,2.72,0,0,1,49.16,40.71Zm3.62,0h2.07l-1.08,1.82H53.62A4.51,4.51,0,0,0,52.78,40.71ZM10.91,42.54a0.91,0.91,0,1,0,.91.91A0.91,0.91,0,0,0,10.91,42.54Zm9.11,0a0.91,0.91,0,1,0,.91.91A0.91,0.91,0,0,0,20,42.54Zm20,0a0.91,0.91,0,1,0,.91.91A0.91,0.91,0,0,0,40.05,42.54Zm9.11,0a0.91,0.91,0,1,0,.91.91A0.91,0.91,0,0,0,49.16,42.54Z" transform="translate(-0.82 -13.39)"/></svg>