<svg data-name="Layer 1" xmlns="http://www.w3.org/2000/svg" viewBox="0 0 58.9 35.111">
  <defs>
    <pattern id="b" data-name="10 dpi 50%" width="28.799" height="28.799" patternTransform="translate(2.405 1.502) scale(0.09)" patternUnits="userSpaceOnUse" viewBox="0 0 28.799 28.799">
      <path fill="none" d="M0 0h28.799v28.799H0z"/>
      <circle cx="28.799" cy="28.799" r="3.6" fill="#13dde2"/>
      <circle cx="14.398" cy="28.799" r="3.6" fill="#13dde2"/>
      <circle cx="28.799" cy="14.399" r="3.6" fill="#13dde2"/>
      <circle cx="14.398" cy="14.399" r="3.601" fill="#13dde2"/>
      <circle cx="7.198" cy="21.6" r="3.6" fill="#13dde2"/>
      <circle cx="21.6" cy="21.6" r="3.6" fill="#13dde2"/>
      <circle cx="7.198" cy="7.199" r="3.6" fill="#13dde2"/>
      <circle cx="21.6" cy="7.199" r="3.6" fill="#13dde2"/>
      <circle cy="28.799" r="3.6" fill="#13dde2"/>
      <circle cy="14.399" r="3.6" fill="#13dde2"/>
      <circle cx="28.799" r="3.6" fill="#13dde2"/>
      <circle cx="14.398" r="3.6" fill="#13dde2"/>
      <circle r="3.6" fill="#13dde2"/>
    </pattern>
    <pattern id="c" data-name="New Pattern Swatch 9" width="300" height="300" patternTransform="translate(4.001 2.671) scale(0.013)" patternUnits="userSpaceOnUse" viewBox="0 0 300 300">
      <path fill="none" d="M0 0h300v300H0z"/>
      <g clip-path="url(#a)">
        <path fill="#f9d8a7" d="M0 0h300v300H0z"/>
        <path d="M300 150A150 150 0 01150 0 150 150 0 010 150a150 150 0 01150 150 150 150 0 01150-150z" fill="none"/>
        <path d="M0 150a150 150 0 00150 150A150 150 0 000 150zM300 150a150 150 0 00-150 150 150 150 0 00150-150zM150 0A150 150 0 000 150 150 150 0 00150 0zM300 150A150 150 0 00150 0a150 150 0 00150 150z" fill="#ef6f1a"/>
        <path fill="none" d="M0 300h300v300H0z"/>
        <path fill="#f9d8a7" d="M0 300h300v300H0z"/>
        <path d="M300 450a150 150 0 01-150-150A150 150 0 010 450a150 150 0 01150 150 150 150 0 01150-150z" fill="none"/>
        <path d="M0 450a150 150 0 00150 150A150 150 0 000 450zM300 450a150 150 0 00-150 150 150 150 0 00150-150zM150 300A150 150 0 000 450a150 150 0 00150-150zM300 450a150 150 0 00-150-150 150 150 0 00150 150z" fill="#ef6f1a"/>
        <path fill="none" d="M0 600h300v300H0z"/>
        <path fill="#f9d8a7" d="M0 600h300v300H0z"/>
        <path d="M300 750a150 150 0 01-150-150A150 150 0 010 750a150 150 0 01150 150 150 150 0 01150-150z" fill="none"/>
        <path d="M0 750a150 150 0 00150 150A150 150 0 000 750zM300 750a150 150 0 00-150 150 150 150 0 00150-150zM150 600A150 150 0 000 750a150 150 0 00150-150zM300 750a150 150 0 00-150-150 150 150 0 00150 150z" fill="#ef6f1a"/>
        <path fill="none" d="M0 900h300v300H0z"/>
        <path fill="#f9d8a7" d="M0 900h300v300H0z"/>
        <path d="M300 1050a150 150 0 01-150-150A150 150 0 010 1050a150 150 0 01150 150 150 150 0 01150-150z" fill="none"/>
        <path d="M0 1050a150 150 0 00150 150A150 150 0 000 1050zM300 1050a150 150 0 00-150 150 150 150 0 00150-150zM150 900A150 150 0 000 1050a150 150 0 00150-150zM300 1050a150 150 0 00-150-150 150 150 0 00150 150z" fill="#ef6f1a"/>
        <path fill="none" d="M-300 0H0v300h-300z"/>
        <path fill="#f9d8a7" d="M-300 0H0v300h-300z"/>
        <path d="M0 150A150 150 0 01-150 0a150 150 0 01-150 150 150 150 0 01150 150A150 150 0 010 150z" fill="none"/>
        <path d="M-300 150a150 150 0 00150 150 150 150 0 00-150-150zM0 150a150 150 0 00-150 150A150 150 0 000 150zM-150 0a150 150 0 00-150 150A150 150 0 00-150 0zM0 150A150 150 0 00-150 0 150 150 0 000 150z" fill="#ef6f1a"/>
        <path fill="none" d="M-300 300H0v300h-300z"/>
        <path fill="#f9d8a7" d="M-300 300H0v300h-300z"/>
        <path d="M0 450a150 150 0 01-150-150 150 150 0 01-150 150 150 150 0 01150 150A150 150 0 010 450z" fill="none"/>
        <path d="M-300 450a150 150 0 00150 150 150 150 0 00-150-150zM0 450a150 150 0 00-150 150A150 150 0 000 450zM-150 300a150 150 0 00-150 150 150 150 0 00150-150zM0 450a150 150 0 00-150-150A150 150 0 000 450z" fill="#ef6f1a"/>
        <path fill="none" d="M-300 600H0v300h-300z"/>
        <path fill="#f9d8a7" d="M-300 600H0v300h-300z"/>
        <path d="M0 750a150 150 0 01-150-150 150 150 0 01-150 150 150 150 0 01150 150A150 150 0 010 750z" fill="none"/>
        <path d="M-300 750a150 150 0 00150 150 150 150 0 00-150-150zM0 750a150 150 0 00-150 150A150 150 0 000 750zM-150 600a150 150 0 00-150 150 150 150 0 00150-150zM0 750a150 150 0 00-150-150A150 150 0 000 750z" fill="#ef6f1a"/>
        <path fill="none" d="M-300 900H0v300h-300z"/>
        <path fill="#f9d8a7" d="M-300 900H0v300h-300z"/>
        <path d="M0 1050a150 150 0 01-150-150 150 150 0 01-150 150 150 150 0 01150 150A150 150 0 010 1050z" fill="none"/>
        <path d="M-300 1050a150 150 0 00150 150 150 150 0 00-150-150zM0 1050a150 150 0 00-150 150A150 150 0 000 1050zM-150 900a150 150 0 00-150 150 150 150 0 00150-150zM0 1050a150 150 0 00-150-150A150 150 0 000 1050z" fill="#ef6f1a"/>
        <path fill="none" d="M-600 0h300v300h-300z"/>
        <path fill="#f9d8a7" d="M-600 0h300v300h-300z"/>
        <path d="M-300 150A150 150 0 01-450 0a150 150 0 01-150 150 150 150 0 01150 150 150 150 0 01150-150z" fill="none"/>
        <path d="M-600 150a150 150 0 00150 150 150 150 0 00-150-150zM-300 150a150 150 0 00-150 150 150 150 0 00150-150zM-450 0a150 150 0 00-150 150A150 150 0 00-450 0zM-300 150A150 150 0 00-450 0a150 150 0 00150 150z" fill="#ef6f1a"/>
        <path fill="none" d="M-600 300h300v300h-300z"/>
        <path fill="#f9d8a7" d="M-600 300h300v300h-300z"/>
        <path d="M-300 450a150 150 0 01-150-150 150 150 0 01-150 150 150 150 0 01150 150 150 150 0 01150-150z" fill="none"/>
        <path d="M-600 450a150 150 0 00150 150 150 150 0 00-150-150zM-300 450a150 150 0 00-150 150 150 150 0 00150-150zM-450 300a150 150 0 00-150 150 150 150 0 00150-150zM-300 450a150 150 0 00-150-150 150 150 0 00150 150z" fill="#ef6f1a"/>
        <path fill="none" d="M-600 600h300v300h-300z"/>
        <path fill="#f9d8a7" d="M-600 600h300v300h-300z"/>
        <path d="M-300 750a150 150 0 01-150-150 150 150 0 01-150 150 150 150 0 01150 150 150 150 0 01150-150z" fill="none"/>
        <path d="M-600 750a150 150 0 00150 150 150 150 0 00-150-150zM-300 750a150 150 0 00-150 150 150 150 0 00150-150zM-450 600a150 150 0 00-150 150 150 150 0 00150-150zM-300 750a150 150 0 00-150-150 150 150 0 00150 150z" fill="#ef6f1a"/>
        <path fill="none" d="M-600 900h300v300h-300z"/>
        <path fill="#f9d8a7" d="M-600 900h300v300h-300z"/>
        <path d="M-300 1050a150 150 0 01-150-150 150 150 0 01-150 150 150 150 0 01150 150 150 150 0 01150-150z" fill="none"/>
        <path d="M-600 1050a150 150 0 00150 150 150 150 0 00-150-150zM-300 1050a150 150 0 00-150 150 150 150 0 00150-150zM-450 900a150 150 0 00-150 150 150 150 0 00150-150zM-300 1050a150 150 0 00-150-150 150 150 0 00150 150z" fill="#ef6f1a"/>
        <path fill="none" d="M-900 0h300v300h-300z"/>
        <path fill="#f9d8a7" d="M-900 0h300v300h-300z"/>
        <path d="M-600 150A150 150 0 01-750 0a150 150 0 01-150 150 150 150 0 01150 150 150 150 0 01150-150z" fill="none"/>
        <path d="M-900 150a150 150 0 00150 150 150 150 0 00-150-150zM-600 150a150 150 0 00-150 150 150 150 0 00150-150zM-750 0a150 150 0 00-150 150A150 150 0 00-750 0zM-600 150A150 150 0 00-750 0a150 150 0 00150 150z" fill="#ef6f1a"/>
        <path fill="none" d="M-900 300h300v300h-300z"/>
        <path fill="#f9d8a7" d="M-900 300h300v300h-300z"/>
        <path d="M-600 450a150 150 0 01-150-150 150 150 0 01-150 150 150 150 0 01150 150 150 150 0 01150-150z" fill="none"/>
        <path d="M-900 450a150 150 0 00150 150 150 150 0 00-150-150zM-600 450a150 150 0 00-150 150 150 150 0 00150-150zM-750 300a150 150 0 00-150 150 150 150 0 00150-150zM-600 450a150 150 0 00-150-150 150 150 0 00150 150z" fill="#ef6f1a"/>
        <path fill="none" d="M-900 600h300v300h-300z"/>
        <path fill="#f9d8a7" d="M-900 600h300v300h-300z"/>
        <path d="M-600 750a150 150 0 01-150-150 150 150 0 01-150 150 150 150 0 01150 150 150 150 0 01150-150z" fill="none"/>
        <path d="M-900 750a150 150 0 00150 150 150 150 0 00-150-150zM-600 750a150 150 0 00-150 150 150 150 0 00150-150zM-750 600a150 150 0 00-150 150 150 150 0 00150-150zM-600 750a150 150 0 00-150-150 150 150 0 00150 150z" fill="#ef6f1a"/>
        <path fill="none" d="M-900 900h300v300h-300z"/>
        <path fill="#f9d8a7" d="M-900 900h300v300h-300z"/>
        <path d="M-600 1050a150 150 0 01-150-150 150 150 0 01-150 150 150 150 0 01150 150 150 150 0 01150-150z" fill="none"/>
        <path d="M-900 1050a150 150 0 00150 150 150 150 0 00-150-150zM-600 1050a150 150 0 00-150 150 150 150 0 00150-150zM-750 900a150 150 0 00-150 150 150 150 0 00150-150zM-600 1050a150 150 0 00-150-150 150 150 0 00150 150z" fill="#ef6f1a"/>
        <path fill="none" d="M-1200 0h300v300h-300z"/>
        <path fill="#f9d8a7" d="M-1200 0h300v300h-300z"/>
        <path d="M-900 150A150 150 0 01-1050 0a150 150 0 01-150 150 150 150 0 01150 150 150 150 0 01150-150z" fill="none"/>
        <path d="M-1200 150a150 150 0 00150 150 150 150 0 00-150-150zM-900 150a150 150 0 00-150 150 150 150 0 00150-150zM-1050 0a150 150 0 00-150 150A150 150 0 00-1050 0zM-900 150A150 150 0 00-1050 0a150 150 0 00150 150z" fill="#ef6f1a"/>
        <path fill="none" d="M-1200 300h300v300h-300z"/>
        <path fill="#f9d8a7" d="M-1200 300h300v300h-300z"/>
        <path d="M-900 450a150 150 0 01-150-150 150 150 0 01-150 150 150 150 0 01150 150 150 150 0 01150-150z" fill="none"/>
        <path d="M-1200 450a150 150 0 00150 150 150 150 0 00-150-150zM-900 450a150 150 0 00-150 150 150 150 0 00150-150zM-1050 300a150 150 0 00-150 150 150 150 0 00150-150zM-900 450a150 150 0 00-150-150 150 150 0 00150 150z" fill="#ef6f1a"/>
        <path fill="none" d="M-1200 600h300v300h-300z"/>
        <path fill="#f9d8a7" d="M-1200 600h300v300h-300z"/>
        <path d="M-900 750a150 150 0 01-150-150 150 150 0 01-150 150 150 150 0 01150 150 150 150 0 01150-150z" fill="none"/>
        <path d="M-1200 750a150 150 0 00150 150 150 150 0 00-150-150zM-900 750a150 150 0 00-150 150 150 150 0 00150-150zM-1050 600a150 150 0 00-150 150 150 150 0 00150-150zM-900 750a150 150 0 00-150-150 150 150 0 00150 150z" fill="#ef6f1a"/>
        <path fill="none" d="M-1200 900h300v300h-300z"/>
        <path fill="#f9d8a7" d="M-1200 900h300v300h-300z"/>
        <path d="M-900 1050a150 150 0 01-150-150 150 150 0 01-150 150 150 150 0 01150 150 150 150 0 01150-150z" fill="none"/>
        <path d="M-1200 1050a150 150 0 00150 150 150 150 0 00-150-150zM-900 1050a150 150 0 00-150 150 150 150 0 00150-150zM-1050 900a150 150 0 00-150 150 150 150 0 00150-150zM-900 1050a150 150 0 00-150-150 150 150 0 00150 150z" fill="#ef6f1a"/>
        <path fill="none" d="M-1500 0h300v300h-300z"/>
        <path fill="#f9d8a7" d="M-1500 0h300v300h-300z"/>
        <path d="M-1200 150A150 150 0 01-1350 0a150 150 0 01-150 150 150 150 0 01150 150 150 150 0 01150-150z" fill="none"/>
        <path d="M-1500 150a150 150 0 00150 150 150 150 0 00-150-150zM-1200 150a150 150 0 00-150 150 150 150 0 00150-150zM-1350 0a150 150 0 00-150 150A150 150 0 00-1350 0zM-1200 150A150 150 0 00-1350 0a150 150 0 00150 150z" fill="#ef6f1a"/>
        <path fill="none" d="M-1500 300h300v300h-300z"/>
        <path fill="#f9d8a7" d="M-1500 300h300v300h-300z"/>
        <path d="M-1200 450a150 150 0 01-150-150 150 150 0 01-150 150 150 150 0 01150 150 150 150 0 01150-150z" fill="none"/>
        <path d="M-1500 450a150 150 0 00150 150 150 150 0 00-150-150zM-1200 450a150 150 0 00-150 150 150 150 0 00150-150zM-1350 300a150 150 0 00-150 150 150 150 0 00150-150zM-1200 450a150 150 0 00-150-150 150 150 0 00150 150z" fill="#ef6f1a"/>
        <path fill="none" d="M-1500 600h300v300h-300z"/>
        <path fill="#f9d8a7" d="M-1500 600h300v300h-300z"/>
        <path d="M-1200 750a150 150 0 01-150-150 150 150 0 01-150 150 150 150 0 01150 150 150 150 0 01150-150z" fill="none"/>
        <path d="M-1500 750a150 150 0 00150 150 150 150 0 00-150-150zM-1200 750a150 150 0 00-150 150 150 150 0 00150-150zM-1350 600a150 150 0 00-150 150 150 150 0 00150-150zM-1200 750a150 150 0 00-150-150 150 150 0 00150 150z" fill="#ef6f1a"/>
        <path fill="none" d="M-1500 900h300v300h-300z"/>
        <path fill="#f9d8a7" d="M-1500 900h300v300h-300z"/>
        <path d="M-1200 1050a150 150 0 01-150-150 150 150 0 01-150 150 150 150 0 01150 150 150 150 0 01150-150z" fill="none"/>
        <path d="M-1500 1050a150 150 0 00150 150 150 150 0 00-150-150zM-1200 1050a150 150 0 00-150 150 150 150 0 00150-150zM-1350 900a150 150 0 00-150 150 150 150 0 00150-150zM-1200 1050a150 150 0 00-150-150 150 150 0 00150 150z" fill="#ef6f1a"/>
        <path fill="none" d="M-1800 0h300v300h-300z"/>
        <path fill="#f9d8a7" d="M-1800 0h300v300h-300z"/>
        <path d="M-1500 150A150 150 0 01-1650 0a150 150 0 01-150 150 150 150 0 01150 150 150 150 0 01150-150z" fill="none"/>
        <path d="M-1800 150a150 150 0 00150 150 150 150 0 00-150-150zM-1500 150a150 150 0 00-150 150 150 150 0 00150-150zM-1650 0a150 150 0 00-150 150A150 150 0 00-1650 0zM-1500 150A150 150 0 00-1650 0a150 150 0 00150 150z" fill="#ef6f1a"/>
        <path fill="none" d="M-1800 300h300v300h-300z"/>
        <path fill="#f9d8a7" d="M-1800 300h300v300h-300z"/>
        <path d="M-1500 450a150 150 0 01-150-150 150 150 0 01-150 150 150 150 0 01150 150 150 150 0 01150-150z" fill="none"/>
        <path d="M-1800 450a150 150 0 00150 150 150 150 0 00-150-150zM-1500 450a150 150 0 00-150 150 150 150 0 00150-150zM-1650 300a150 150 0 00-150 150 150 150 0 00150-150zM-1500 450a150 150 0 00-150-150 150 150 0 00150 150z" fill="#ef6f1a"/>
        <path fill="none" d="M-1800 600h300v300h-300z"/>
        <path fill="#f9d8a7" d="M-1800 600h300v300h-300z"/>
        <path d="M-1500 750a150 150 0 01-150-150 150 150 0 01-150 150 150 150 0 01150 150 150 150 0 01150-150z" fill="none"/>
        <path d="M-1800 750a150 150 0 00150 150 150 150 0 00-150-150zM-1500 750a150 150 0 00-150 150 150 150 0 00150-150zM-1650 600a150 150 0 00-150 150 150 150 0 00150-150zM-1500 750a150 150 0 00-150-150 150 150 0 00150 150z" fill="#ef6f1a"/>
        <path fill="none" d="M-1800 900h300v300h-300z"/>
        <path fill="#f9d8a7" d="M-1800 900h300v300h-300z"/>
        <path d="M-1500 1050a150 150 0 01-150-150 150 150 0 01-150 150 150 150 0 01150 150 150 150 0 01150-150z" fill="none"/>
        <path d="M-1800 1050a150 150 0 00150 150 150 150 0 00-150-150zM-1500 1050a150 150 0 00-150 150 150 150 0 00150-150zM-1650 900a150 150 0 00-150 150 150 150 0 00150-150zM-1500 1050a150 150 0 00-150-150 150 150 0 00150 150z" fill="#ef6f1a"/>
        <path fill="none" d="M-1800 120H120v1080h-1920z"/>
      </g>
    </pattern>
    <pattern id="d" data-name="10 lpi 60%" width="72" height="72" patternTransform="translate(3.345 8.063) scale(0.13)" patternUnits="userSpaceOnUse" viewBox="0 0 72 72">
      <path fill="none" d="M0 0h72v72H0z"/>
      <path fill="none" stroke="#daed8c" stroke-width="4.32" d="M71.75 68.4h72.5M71.75 54h72.5M71.75 39.6h72.5M71.75 25.2h72.5M71.75 10.8h72.5M71.75 61.2h72.5M71.75 46.8h72.5M71.75 32.4h72.5M71.75 18h72.5M71.75 3.6h72.5M-.25 68.4h72.5M-.25 54h72.5M-.25 39.6h72.5M-.25 25.2h72.5M-.25 10.8h72.5M-.25 61.2h72.5M-.25 46.8h72.5M-.25 32.4h72.5M-.25 18h72.5M-.25 3.6h72.5M-72.25 68.4H.25M-72.25 54H.25M-72.25 39.6H.25M-72.25 25.2H.25M-72.25 10.8H.25M-72.25 61.2H.25M-72.25 46.8H.25M-72.25 32.4H.25M-72.25 18H.25M-72.25 3.6H.25"/>
    </pattern>
    <clipPath id="a">
      <path fill="none" d="M0 0h300v300H0z"/>
    </clipPath>
  </defs>
  <path d="M58.65 23.02v3.64a.913.913 0 01-.91.91h-1.31l-1.92 3.19a.918.918 0 01-.79.44h-.67a4.55 4.55 0 01-8.92 0h-.2a4.55 4.55 0 01-8.92 0h-.67a.911.911 0 01-.78-.44l-1.89-3.19h-4.43l-1.89 3.2a.911.911 0 01-.78.44h-.67a4.55 4.55 0 01-8.92 0h-.19a4.55 4.55 0 01-8.92 0h-.65a.918.918 0 01-.79-.44l-1.9-3.2H1.16a.913.913 0 01-.91-.91v-3.64a.913.913 0 01.91-.91h.87V1.16a.913.913 0 01.91-.91h52.94a.913.913 0 01.91.91v20.95h.95a.913.913 0 01.91.91zm-1.86 2.73v-1.82H2.07v1.82h54.72zm-1.83-3.68v-20H3.85v20h51.11zm-1.76 7.32l1.08-1.82h-2.07a4.589 4.589 0 01.84 1.82h.15zm-1.88.91a2.727 2.727 0 00-2.73-2.73h-.02a2.725 2.725 0 00-2.71 2.71v.02a2.73 2.73 0 105.46 0zm-6.35-2.73H43.1a4.589 4.589 0 01.84 1.82h.19a4.589 4.589 0 01.84-1.82zm-2.76 2.73a2.727 2.727 0 00-2.73-2.73h-.02a2.725 2.725 0 00-2.71 2.71v.02a2.73 2.73 0 005.46 0zm-6.35-2.73h-2.07l1.08 1.82h.15a4.589 4.589 0 01.84-1.82zm-11.8 1.82l1.07-1.82h-2.07a4.589 4.589 0 01.84 1.82h.16zm-1.89.91a2.727 2.727 0 00-2.73-2.73h-.02a2.725 2.725 0 00-2.71 2.71v.02a2.73 2.73 0 005.46 0zm-6.34-2.73h-1.88a4.474 4.474 0 01.85 1.82h.19a4.589 4.589 0 01.84-1.82zm-2.77 2.73a2.727 2.727 0 00-2.73-2.73h-.02a2.725 2.725 0 00-2.71 2.71v.02a2.73 2.73 0 005.46 0zm-6.34-2.73H4.65l1.08 1.82h.15a4.589 4.589 0 01.84-1.82z" fill="#dcf4ee"/>
  <path fill="url(#b)" d="M2.07 23.93h54.72v1.82H2.07z"/>
  <path d="M54.71 1.82v20H3.6v-20h51.11zm-5.49 15.59V6.27a.913.913 0 00-.9-.92h-.02a.913.913 0 00-.9.92v11.14a.91.91 0 101.82 0zm-5.46 0V6.27a.913.913 0 00-.9-.92h-.02a.913.913 0 00-.9.92v11.14a.91.91 0 001.82 0zm-5.46 0V6.27a.913.913 0 00-.9-.92h-.02a.913.913 0 00-.9.92v11.14a.91.91 0 001.82 0zm-5.46 0V6.27a.913.913 0 00-.9-.92h-.02a.913.913 0 00-.9.92v11.14a.91.91 0 001.82 0zm-5.46 0V6.27a.913.913 0 00-.9-.92h-.02a.913.913 0 00-.9.92v11.14a.91.91 0 101.82 0zm-5.46 0V6.27a.913.913 0 00-.9-.92H21a.913.913 0 00-.9.92v11.14a.91.91 0 001.82 0zm-5.46 0V6.27a.913.913 0 00-.9-.92h-.02a.913.913 0 00-.9.92v11.14a.91.91 0 001.82 0zm-5.46 0V6.27a.913.913 0 00-.9-.92h-.02a.913.913 0 00-.9.92v11.14a.91.91 0 001.82 0z" transform="translate(0.25 0.25)" fill="url(#c)"/>
  <path d="M48.59 27.57a2.73 2.73 0 11-2.73 2.73v-.02a2.725 2.725 0 012.71-2.71h.02zm.88 2.74a.914.914 0 00-.88-.91h-.03a.91.91 0 10.91.91z" fill="#45c4a7"/>
  <path d="M49.22 6.27v11.14a.91.91 0 11-1.82 0V6.27a.913.913 0 01.9-.92h.02a.913.913 0 01.9.92z" transform="translate(0.25 0.25)" fill="url(#d)"/>
  <path d="M48.59 29.4a.925.925 0 11-.03 0h.03z" fill="#397dc6"/>
  <path d="M43.76 6.27v11.14a.91.91 0 01-1.82 0V6.27a.913.913 0 01.9-.92h.02a.913.913 0 01.9.92z" transform="translate(0.25 0.25)" fill="url(#d)"/>
  <path d="M39.48 27.57a2.73 2.73 0 11-2.73 2.73v-.02a2.725 2.725 0 012.71-2.71h.02zm.88 2.74a.914.914 0 00-.88-.91h-.03a.91.91 0 10.91.91z" fill="#45c4a7"/>
  <path d="M39.48 29.4a.925.925 0 11-.03 0h.03z" fill="#397dc6"/>
  <path d="M38.3 6.27v11.14a.91.91 0 01-1.82 0V6.27a.913.913 0 01.9-.92h.02a.913.913 0 01.9.92zM32.84 6.27v11.14a.91.91 0 01-1.82 0V6.27a.913.913 0 01.9-.92h.02a.913.913 0 01.9.92zM27.38 6.27v11.14a.91.91 0 11-1.82 0V6.27a.913.913 0 01.9-.92h.02a.913.913 0 01.9.92zM21.92 6.27v11.14a.91.91 0 01-1.82 0V6.27a.913.913 0 01.9-.92h.02a.913.913 0 01.9.92z" transform="translate(0.25 0.25)" fill="url(#d)"/>
  <path d="M19.44 27.57a2.73 2.73 0 11-2.73 2.73v-.02a2.725 2.725 0 012.71-2.71h.02zm.92 2.74a.91.91 0 10-.91.91.913.913 0 00.91-.91z" fill="#45c4a7"/>
  <circle cx="19.45" cy="30.31" r=".91" fill="#397dc6"/>
  <path d="M16.46 6.27v11.14a.91.91 0 01-1.82 0V6.27a.913.913 0 01.9-.92h.02a.913.913 0 01.9.92z" transform="translate(0.25 0.25)" fill="url(#d)"/>
  <path d="M10.33 27.57A2.73 2.73 0 117.6 30.3v-.02a2.725 2.725 0 012.71-2.71h.02zm.92 2.74a.91.91 0 10-.91.91.913.913 0 00.91-.91z" fill="#45c4a7"/>
  <path d="M11 6.27v11.14a.91.91 0 01-1.82 0V6.27a.913.913 0 01.9-.92h.02a.913.913 0 01.9.92z" transform="translate(0.25 0.25)" fill="url(#d)"/>
  <circle cx="10.34" cy="30.31" r=".91" fill="#397dc6"/>
  <path d="M2.94.25a.913.913 0 00-.91.91v20.95h-.87a.913.913 0 00-.91.91v3.64a.913.913 0 00.91.91h1.37l1.9 3.2a.918.918 0 00.79.44h.65a4.55 4.55 0 008.92 0h.19a4.55 4.55 0 008.92 0h.67a.911.911 0 00.78-.44l1.89-3.2h4.43l1.89 3.19a.911.911 0 00.78.44h.67a4.55 4.55 0 008.92 0h.2a4.55 4.55 0 008.92 0h.67a.918.918 0 00.79-.44l1.92-3.19h1.31a.913.913 0 00.91-.91v-3.64a.913.913 0 00-.91-.91h-.95V1.16a.913.913 0 00-.91-.91H2.94z" fill="none" stroke="#21634e" stroke-miterlimit="10" stroke-width=".5"/>
  <path fill="none" stroke="#8e8e87" stroke-miterlimit="10" stroke-width=".25" d="M3.85 2.07h51.11v20H3.85z"/>
  <path d="M10.33 5.6a.913.913 0 00-.9.92v11.14a.91.91 0 001.82 0V6.52a.913.913 0 00-.9-.92h-.02zM15.79 5.6a.913.913 0 00-.9.92v11.14a.91.91 0 001.82 0V6.52a.913.913 0 00-.9-.92h-.02zM21.25 5.6a.913.913 0 00-.9.92v11.14a.91.91 0 001.82 0V6.52a.913.913 0 00-.9-.92h-.02zM26.71 5.6a.913.913 0 00-.9.92v11.14a.91.91 0 101.82 0V6.52a.913.913 0 00-.9-.92h-.02zM32.17 5.6a.913.913 0 00-.9.92v11.14a.91.91 0 001.82 0V6.52a.913.913 0 00-.9-.92h-.02zM37.63 5.6a.913.913 0 00-.9.92v11.14a.91.91 0 001.82 0V6.52a.913.913 0 00-.9-.92h-.02zM43.09 5.6a.913.913 0 00-.9.92v11.14a.91.91 0 001.82 0V6.52a.913.913 0 00-.9-.92h-.02zM48.55 5.6a.913.913 0 00-.9.92v11.14a.91.91 0 101.82 0V6.52a.913.913 0 00-.9-.92h-.02zM2.07 23.93h54.72v1.82H2.07zM4.65 27.57h2.07a4.589 4.589 0 00-.84 1.82h-.15zM10.33 27.57h-.02a2.725 2.725 0 00-2.71 2.71v.02a2.73 2.73 0 102.73-2.73zM13.95 27.57h1.88a4.589 4.589 0 00-.84 1.82h-.19a4.474 4.474 0 00-.85-1.82zM19.44 27.57a2.73 2.73 0 11-2.73 2.73v-.02a2.725 2.725 0 012.71-2.71h.02zM23.06 27.57h2.07l-1.07 1.82h-.16a4.589 4.589 0 00-.84-1.82zM33.79 27.57h2.07a4.589 4.589 0 00-.84 1.82h-.15zM39.48 27.57a2.73 2.73 0 11-2.73 2.73v-.02a2.725 2.725 0 012.71-2.71h.02zM43.1 27.57h1.87a4.589 4.589 0 00-.84 1.82h-.19a4.589 4.589 0 00-.84-1.82zM48.59 27.57a2.73 2.73 0 11-2.73 2.73v-.02a2.725 2.725 0 012.71-2.71h.02zM52.21 27.57h2.07l-1.08 1.82h-.15a4.589 4.589 0 00-.84-1.82z" fill="none" stroke="#21634e" stroke-miterlimit="10" stroke-width=".25"/>
  <circle cx="10.34" cy="30.31" r=".91" fill="none" stroke="#21634e" stroke-miterlimit="10" stroke-width=".25"/>
  <circle cx="19.45" cy="30.31" r=".91" fill="none" stroke="#21634e" stroke-miterlimit="10" stroke-width=".25"/>
  <path d="M39.45 29.4a.9.9 0 10.03 0h-.03zM48.56 29.4a.9.9 0 10.03 0h-.03z" fill="none" stroke="#21634e" stroke-miterlimit="10" stroke-width=".25"/>
</svg>
