<svg data-name="Layer 1" xmlns="http://www.w3.org/2000/svg" viewBox="0 0 51.395 47.86">
  <defs>
    <pattern id="a" data-name="Scotch Rule 2" width="70.8" height="72" patternTransform="translate(3.057 8.792) scale(0.078)" patternUnits="userSpaceOnUse" viewBox="0 0 70.8 72">
      <path fill="none" d="M0 0h70.8v72H0z"/>
      <path fill="none" stroke="#f25416" stroke-width=".4" d="M35.397 72V0M11.798 72V0M58.999 72V0"/>
      <path fill="none" stroke="#f25416" stroke-width="4" d="M30.798 72V0M7.197 72V0M54.399 72V0M16.397 72V0M39.999 72V0M63.599 72V0"/>
    </pattern>
    <pattern id="b" data-name="New Pattern Swatch 426" width="300" height="300" patternTransform="translate(3.308 10.038) scale(0.022)" patternUnits="userSpaceOnUse" viewBox="0 0 300 300">
      <path fill="none" d="M0 0h300v300H0z"/>
      <path fill="#e2fcd2" d="M0 0h300v300H0z"/>
      <path d="M300 150A150 150 0 01150 0 150 150 0 010 150a150 150 0 01150 150 150 150 0 01150-150z" fill="none"/>
      <path d="M0 150a150 150 0 00150 150A150 150 0 000 150zM300 150a150 150 0 00-150 150 150 150 0 00150-150zM150 0A150 150 0 000 150 150 150 0 00150 0zM300 150A150 150 0 00150 0a150 150 0 00150 150z" fill="#159500"/>
    </pattern>
    <pattern id="c" data-name="10 lpi 70%" width="72" height="72" patternTransform="translate(6.611 8.792) scale(0.078)" patternUnits="userSpaceOnUse" viewBox="0 0 72 72">
      <path fill="none" d="M0 0h72v72H0z"/>
      <path fill="none" stroke="#b4fc03" stroke-width="5.04" d="M71.75 68.4h72.5M71.75 54h72.5M71.75 39.6h72.5M71.75 25.2h72.5M71.75 10.8h72.5M71.75 61.2h72.5M71.75 46.8h72.5M71.75 32.4h72.5M71.75 18h72.5M71.75 3.6h72.5M-.25 68.4h72.5M-.25 54h72.5M-.25 39.6h72.5M-.25 25.2h72.5M-.25 10.8h72.5M-.25 61.2h72.5M-.25 46.8h72.5M-.25 32.4h72.5M-.25 18h72.5M-.25 3.6h72.5M-72.25 68.4H.25M-72.25 54H.25M-72.25 39.6H.25M-72.25 25.2H.25M-72.25 10.8H.25M-72.25 61.2H.25M-72.25 46.8H.25M-72.25 32.4H.25M-72.25 18H.25M-72.25 3.6H.25"/>
    </pattern>
    <pattern id="d" data-name="6 dpi 60%" width="48" height="48" patternTransform="translate(2.848 5.029) scale(0.078)" patternUnits="userSpaceOnUse" viewBox="0 0 48 48">
      <path fill="none" d="M0 0h48v48H0z"/>
      <circle cx="24" cy="48" r="7.2" fill="#fff"/>
      <circle cx="48" cy="48" r="7.2" fill="#fff"/>
      <circle cx="24" cy="24" r="7.2" fill="#fff"/>
      <circle cx="48" cy="24" r="7.2" fill="#fff"/>
      <circle cx="36" cy="36" r="7.2" fill="#fff"/>
      <circle cx="12" cy="36" r="7.2" fill="#fff"/>
      <circle cx="36" cy="12" r="7.2" fill="#fff"/>
      <circle cx="12" cy="12" r="7.2" fill="#fff"/>
      <circle cy="48" r="7.2" fill="#fff"/>
      <circle cy="24" r="7.2" fill="#fff"/>
      <circle cx="24" r="7.2" fill="#fff"/>
      <circle cx="48" r="7.2" fill="#fff"/>
      <circle r="7.2" fill="#fff"/>
    </pattern>
    <pattern id="e" data-name="10 dpi 80%" width="28.8" height="28.8" patternTransform="translate(5.878 3.886) scale(0.28)" patternUnits="userSpaceOnUse" viewBox="0 0 28.8 28.8">
      <path fill="none" d="M0 0h28.8v28.8H0z"/>
      <circle cx="7.2" cy="21.599" r="5.76" fill="#fc6a06"/>
      <circle cx="21.6" cy="21.599" r="5.76" fill="#fc6a06"/>
      <circle cx="7.2" cy="7.199" r="5.759" fill="#fc6a06"/>
      <circle cx="21.6" cy="7.199" r="5.76" fill="#fc6a06"/>
      <circle cx="28.8" cy="28.799" r="5.76" fill="#fc6a06"/>
      <circle cx="14.4" cy="28.799" r="5.759" fill="#fc6a06"/>
      <circle cx="28.8" cy="14.4" r="5.76" fill="#fc6a06"/>
      <circle cx="14.4" cy="14.4" r="5.76" fill="#fc6a06"/>
      <circle cy="28.799" r="5.76" fill="#fc6a06"/>
      <circle cy="14.4" r="5.76" fill="#fc6a06"/>
      <circle cx="28.8" cy="-.001" r="5.76" fill="#fc6a06"/>
      <circle cx="14.4" cy="-.001" r="5.759" fill="#fc6a06"/>
      <circle cy="-.001" r="5.76" fill="#fc6a06"/>
    </pattern>
    <pattern id="f" data-name="Diamond" width="72" height="72" patternUnits="userSpaceOnUse" viewBox="0 0 72 72">
      <path fill="none" d="M0 0h72v72H0z"/>
      <path fill="none" stroke="#f7d0a6" stroke-linecap="square" stroke-linejoin="bevel" stroke-width=".3" d="M72 72l72 72M144 72l-72 72M138 72l-69.002 69.002M132 72l-63.006 63.006M126 72l-57.01 57.01M120 72l-51.014 51.014M114 72l-45.017 45.017M108 72l-39.02 39.022M102 72l-33.024 33.025M96 72L68.973 99.029M90 72L68.969 93.032M84 72L68.965 87.036M78 72l-9.039 9.04M72 72l-3.043 3.044M0 72l72 72M6 72l69.001 69.002M12 72l63.005 63.006M18 72l57.009 57.01M24 72l51.013 51.013M30 72l45.016 45.017M36 72l39.019 39.022M42 72l33.023 33.025M48 72l27.027 27.028M54 72l21.03 21.032M60 72l15.034 15.036M66 72l9.038 9.04M72 72l3.043 3.043M72 72L0 144M66 72l-69.002 69.002M60 72l-63.006 63.006M54 72l-57.01 57.01M48 72l-51.014 51.014M42 72l-45.017 45.017M36 72l-39.02 39.022M30 72l-33.024 33.025M24 72L-3.027 99.029M18 72L-3.031 93.032M12 72L-3.035 87.036M6 72l-9.039 9.04M0 72l-3.043 3.044M-72 72l72 72M-66 72l69.001 69.002M-60 72l63.005 63.006M-54 72l57.009 57.01M-48 72l51.013 51.013M-42 72l45.016 45.017M-36 72l39.019 39.022M-30 72l33.023 33.025M-24 72L3.027 99.028M-18 72L3.03 93.032M-12 72L3.034 87.036M-6 72l9.038 9.04M0 72l3.043 3.043M0 72l-72 72M72 0l72 72M68.998 2.999L138 72M68.994 8.995L132 72M68.99 14.991L126 72M68.986 20.987L120 72M68.983 26.984L114 72M68.98 32.981L108 72M68.976 38.976L102 72M68.973 44.972L96 72M68.969 50.969L90 72M68.965 56.965L84 72M68.961 62.961L78 72M68.957 68.957L72 72M144 0L72 72M138 0L68.998 69.002M132 0L68.994 63.006M126 0L68.99 57.01M120 0L68.986 51.014M114 0L68.983 45.017M108 0L68.98 39.022M102 0L68.976 33.025M96 0L68.973 27.029M90 0L68.969 21.032M84 0L68.965 15.036M78 0l-9.039 9.04M72 0l-3.043 3.044M0 0l72 72M-3.002 2.999L66 72M-3.006 8.995L60 72M-3.01 14.991L54 72M-3.014 20.987L48 72M-3.017 26.984L42 72M-3.02 32.981L36 72M-3.024 38.976L30 72M-3.027 44.972L24 72M-3.031 50.969L18 72M-3.035 56.965L12 72M-3.039 62.961L6 72M-3.043 68.957L0 72M6 0l69.001 69.002M12 0l63.005 63.006M18 0l57.009 57.01M24 0l51.013 51.013M30 0l45.016 45.017M36 0l39.019 39.022M42 0l33.023 33.025M48 0l27.027 27.028M54 0l21.03 21.032M60 0l15.034 15.036M66 0l9.038 9.04M72 0l3.043 3.043M72 0L0 72M66 0L-3.002 69.002M60 0L-3.006 63.006M54 0L-3.01 57.01M48 0L-3.014 51.014M42 0L-3.017 45.017M36 0L-3.02 39.022M30 0L-3.024 33.025M24 0L-3.027 27.029M18 0L-3.031 21.032M12 0L-3.035 15.036M6 0l-9.039 9.04M0 0l-3.043 3.044M75.001 2.999L6 72M75.005 8.995L12 72M75.009 14.991L18 72M75.013 20.987L24 72M75.016 26.984L30 72M75.019 32.981L36 72M75.023 38.976L42 72M75.027 44.973L48 72M75.03 50.969L54 72M75.034 56.965L60 72M75.038 62.961L66 72M75.043 68.958L72 72M-72 0L0 72M-66 0L3.001 69.002M-60 0L3.005 63.006M-54 0L3.009 57.01M-48 0L3.013 51.013M-42 0L3.016 45.017M-36 0L3.019 39.022M-30 0L3.023 33.025M-24 0L3.027 27.028M-18 0L3.03 21.032M-12 0L3.034 15.036M-6 0l9.038 9.04M0 0l3.043 3.043M0 0l-72 72M3.001 2.999L-66 72M3.005 8.995L-60 72M3.009 14.991L-54 72M3.013 20.987L-48 72M3.016 26.984L-42 72M3.019 32.981L-36 72M3.023 38.976L-30 72M3.027 44.973L-24 72M3.03 50.969L-18 72M3.034 56.965L-12 72M3.038 62.961L-6 72M3.043 68.958L0 72M72-72l72 72M68.998-69.001L138 0M68.994-63.005L132 0M68.99-57.009L126 0M68.986-51.013L120 0M68.983-45.016L114 0M68.98-39.019L108 0M68.976-33.024L102 0M68.973-27.028L96 0M68.969-21.031L90 0M68.965-15.035L84 0M68.961-9.039L78 0M68.957-3.043L72 0M144-72L72 0M0-72L72 0M-3.002-69.001L66 0M-3.006-63.005L60 0M-3.01-57.009L54 0M-3.014-51.013L48 0M-3.017-45.016L42 0M-3.02-39.019L36 0M-3.024-33.024L30 0M-3.027-27.028L24 0M-3.031-21.031L18 0M-3.035-15.035L12 0M-3.039-9.039L6 0M-3.043-3.043L0 0M72-72L0 0M75.001-69.001L6 0M75.005-63.005L12 0M75.009-57.009L18 0M75.013-51.013L24 0M75.016-45.016L30 0M75.019-39.019L36 0M75.023-33.024L42 0M75.027-27.027L48 0M75.03-21.031L54 0M75.034-15.035L60 0M75.038-9.039L66 0M75.043-3.042L72 0M-72-72L0 0M0-72L-72 0M3.001-69.001L-66 0M3.005-63.005L-60 0M3.009-57.009L-54 0M3.013-51.013L-48 0M3.016-45.016L-42 0M3.019-39.019L-36 0M3.023-33.024L-30 0M3.027-27.027L-24 0M3.03-21.031L-18 0M3.034-15.035L-12 0M3.038-9.039L-6 0M3.043-3.042L0 0"/>
    </pattern>
    <pattern id="g" data-name="10 dpi 50%" width="28.799" height="28.799" patternTransform="translate(6.23 4.34) scale(0.28)" patternUnits="userSpaceOnUse" viewBox="0 0 28.799 28.799">
      <path fill="none" d="M0 0h28.799v28.799H0z"/>
      <circle cx="28.799" cy="28.799" r="3.6" fill="#f98c43"/>
      <circle cx="14.398" cy="28.799" r="3.6" fill="#f98c43"/>
      <circle cx="28.799" cy="14.399" r="3.6" fill="#f98c43"/>
      <circle cx="14.398" cy="14.399" r="3.601" fill="#f98c43"/>
      <circle cx="7.198" cy="21.6" r="3.6" fill="#f98c43"/>
      <circle cx="21.6" cy="21.6" r="3.6" fill="#f98c43"/>
      <circle cx="7.198" cy="7.199" r="3.6" fill="#f98c43"/>
      <circle cx="21.6" cy="7.199" r="3.6" fill="#f98c43"/>
      <circle cy="28.799" r="3.6" fill="#f98c43"/>
      <circle cy="14.399" r="3.6" fill="#f98c43"/>
      <circle cx="28.799" r="3.6" fill="#f98c43"/>
      <circle cx="14.398" r="3.6" fill="#f98c43"/>
      <circle r="3.6" fill="#f98c43"/>
    </pattern>
    <pattern id="h" data-name="Ripple" width="72" height="72" patternTransform="translate(14.119 18.959) scale(0.37)" patternUnits="userSpaceOnUse" viewBox="0 0 72 72">
      <path fill="none" d="M0 0h72v72H0z"/>
      <path d="M80.4 64.144s.957 4.059-2.924 4-3.939 1.866-3.126 4.286-.176 4.619-3.342 4.57M13.35 15.53s3.791-1.739 4.5 2.077 2.607 3.5 4.818 2.227 4.564-.738 5.141 2.373M66.039 28.738s-2.6 3.263-4.951.177-3.906-1.944-5.3.191-3.738 2.72-5.658.2M39.029 29.05s-3.824-1.669-1.451-4.738.873-4.276-1.553-5.076-3.59-2.911-1.654-5.415M41.143 24.819s4.076-.88 2.357-4.359-.012-4.363 2.523-4.669 4.1-2.143 2.693-4.979M55.121 14.873s4.076-.879 2.357-4.359S57.467 6.15 60 5.846 64.1 3.7 62.7.865M27.389 34.191s3.678-1.963 1.072-4.838-1.207-4.193 1.146-5.182 3.354-3.184 1.227-5.527M10.389 22.938s1.293 3.965-2.578 4.23-3.774 2.189-2.762 4.532.211 4.62-2.943 4.835M7.557 41.164s-2.024-3.646 1.724-4.644 3.291-2.867 1.85-4.975-1.088-4.5 1.971-5.309" fill="none" stroke="#dd1f56" stroke-width=".75"/>
      <path d="M20.443 17s1.35-3.947 4.6-1.832 4.332.519 4.93-1.963 2.607-3.818 5.262-2.094M12.334 44.476s-1.766-3.778 2.045-4.513 3.481-2.631 2.191-4.834-.769-4.56 2.336-5.158M24.029 38.666s-3.43-2.371-.51-4.928 1.678-4.029-.547-5.281-2.965-3.547-.584-5.633M11.014 59.639S11.318 55.48 15 56.7s4.322-.6 4.273-3.148 1.553-4.355 4.557-3.36M29.5 52.86s-.379 4.152-4.041 2.867-4.332.518-4.33 3.07-1.633 4.328-4.619 3.275M19.67 27.31s-4.166.179-3.379-3.622-1.094-4.225-3.623-3.881-4.5-1.04-3.863-4.14M32.709 27.966s-1.49 3.894 2.365 4.353 3.66 2.376 2.531 4.664-.44 4.6 2.7 4.979M3.32 45.674s1.918 3.7 4.822 1.129 4.209-1.154 5.17 1.21 3.143 3.387 5.514 1.287M51.02 83.379s-1.859-3.734 1.93-4.564 3.414-2.717 2.068-4.889-.883-4.537 2.209-5.213M64.563 9.978s2.469 3.363-1.127 4.826-2.9 3.257-1.2 5.168 1.645 4.32-1.289 5.513M59.949 14.268s-4.088.837-2.4 4.334-.039 4.363-2.576 4.642-4.117 2.1-2.746 4.951" fill="none" stroke="#dd1f56" stroke-width=".75"/>
      <path d="M17.076.721s4.166.2 3.037 3.914.705 4.307 3.256 4.193 4.391 1.444 3.471 4.472M39.441 15.71s-4.049-.992-2.234-4.421.131-4.362-2.392-4.738-4.036-2.258-2.553-5.051M18.025 7.9s-3.971-1.274-4.217 2.6-2.17 3.784-4.52 2.783-4.621-.187-4.82 2.971M8.4 64.144s.957 4.059-2.924 4S1.537 70.01 2.35 72.43 2.174 77.049-.992 77M70.318 33.479s-2.272 3.5-4.912.654-4.076-1.559-5.26.7-3.459 3.068-5.613.748M50.379 1.6s.957 4.061-2.924 4-3.945 1.861-3.133 4.28-.176 4.622-3.34 4.573M43.881 31.8s-1.635-3.835 2.2-4.44 3.568-2.51 2.353-4.756-.613-4.583 2.512-5.074M74.877 33.607s-4.148-.441-2.807-4.082-.455-4.34-3.008-4.375-4.3-1.7-3.207-4.665M62.117 38.222s3.469-2.318 4.772 1.338S70.018 42.6 72 40.992s4.389-1.454 5.451 1.527M71.678 62.731s-.758 4.1-4.287 2.484-4.361.119-4.592 2.662-2.021 4.158-4.9 2.84M28.777 43.957s4.135.553 2.7 4.157.338 4.351 2.887 4.453 4.254 1.81 3.082 4.749M14.795 43.43s1.2 3.994 4.531 2.006 4.348-.355 4.854 2.147 2.461 3.914 5.176 2.292" fill="none" stroke="#dd1f56" stroke-width=".75"/>
      <path d="M1.795 60.014s1.2 3.994 4.531 2.006 4.348-.355 4.854 2.146 2.461 3.914 5.176 2.291M37.877 69.014s4.154-.361 2.887-4.029.539-4.33 3.092-4.312 4.334-1.611 3.3-4.6M34.49 60.086s3.211 2.66.082 4.953-2.02 3.869.09 5.307 2.648 3.791.1 5.662M50.826 63.594s-3.373-2.457-.389-4.938 1.777-3.986-.418-5.292-2.875-3.62-.443-5.645M55.94 59.434s2.818-3.074 4.951.17 3.76 2.213 5.3.18 3.92-2.451 5.658.2M40.172 32.482s4.162.239 3 3.941.664 4.311 3.217 4.223 4.377 1.485 3.43 4.5M31.674 40.414s-.387 4.152 3.447 3.561 4.164 1.3 3.691 3.813.813 4.552 3.94 4.07M19.475 42.71s1.065-4.032 4.461-2.156 4.359.208 4.779-2.31 2.326-3.994 5.1-2.464M1.205 13.177s4.164-.213 3.027-3.923.691-4.309 3.242-4.2 4.387-1.459 3.46-4.486M35.688 57.649s-3.816-1.676-4.463 2.15-2.549 3.541-4.781 2.3-4.574-.663-5.1 2.459M83.795 52.818s-1.588-3.855-4.707-1.547-4.293.783-5.043-1.656-2.834-3.649-5.379-1.766M67.719 48.842s-1.016 4.043-4.436 2.205-4.361-.158-4.754 2.364-2.279 4.02-5.068 2.522M59.637 60.812s-.123 4.167-3.857 3.109-4.293.782-4.131 3.33-1.365 4.417-4.41 3.554M51.354 47.937s2.018-3.649 4.852-1 4.174 1.27 5.2-1.069 3.236-3.3 5.545-1.138" fill="none" stroke="#dd1f56" stroke-width=".75"/>
      <path d="M41.289 59.079S39.326 55.4 43.1 54.467s3.338-2.81 1.934-4.942-1.008-4.512 2.065-5.272M62.014 83.529s-1.295-3.965 2.578-4.23 3.773-2.189 2.76-4.533-.211-4.619 2.948-4.836M46.412 34.016s4.094-.813 3.893 3.063 1.725 4.009 4.174 3.283 4.609.34 4.447 3.5M66.586 12.816s4.135-.531 3.674 3.322 1.445 4.118 3.94 3.562 4.578.654 4.2 3.8M65.068 53.836s2.412 3.4 4.936.453 4.006-1.727 5.283.482 3.582 2.924 5.639.519M45.459 62.832s-3.721 1.879-1.182 4.812 1.111 4.219-1.264 5.154-3.424 3.107-1.352 5.5M28.229 80.314s-3.57-2.156-.811-4.887 1.43-4.123-.869-5.236-3.176-3.361-.924-5.588M19.975 65.693s1.2 4-2.684 4.166-3.826 2.094-2.871 4.463.1 4.622-3.064 4.76M2.877 33.607s-4.148-.441-2.807-4.082-.455-4.34-3.008-4.375-4.3-1.7-3.207-4.665M-9.883 38.222s3.469-2.322 4.772 1.338S-1.982 42.6 0 40.992s4.389-1.454 5.451 1.527M-.322 62.731s-.758 4.1-4.287 2.484-4.361.119-4.592 2.662-2.021 4.158-4.9 2.84M-16.061 59.434s2.818-3.074 4.951.17 3.76 2.213 5.3.18 3.92-2.451 5.658.2M11.795 52.818s-1.588-3.855-4.707-1.547-4.293.783-5.043-1.656-2.834-3.649-5.379-1.766M-5.414 12.816s4.135-.531 3.674 3.322S-.295 20.256 2.2 19.7s4.578.654 4.2 3.8M-6.932 53.836s2.412 3.4 4.936.453 4.006-1.727 5.283.482 3.582 2.924 5.639.519M80.4-7.855s.957 4.059-2.924 4S73.537-1.99 74.35.43 74.174 5.049 71.008 5M51.02 11.379s-1.859-3.734 1.93-4.564 3.413-2.715 2.068-4.889-.883-4.537 2.209-5.213M8.4-7.855s.957 4.059-2.924 4S1.537-1.99 2.35.43 2.174 5.049-.992 5M34.49-11.914s3.211 2.66.082 4.953-2.02 3.869.09 5.307 2.648 3.791.1 5.662M62.014 11.529S60.719 7.564 64.592 7.3s3.773-2.189 2.76-4.533-.211-4.62 2.948-4.837M45.459-9.168s-3.721 1.879-1.182 4.812S45.389-.137 43.014.8s-3.424 3.106-1.352 5.5M28.229 8.314s-3.57-2.156-.811-4.887 1.43-4.123-.869-5.236-3.176-3.361-.924-5.591M19.975-6.307s1.2 4-2.684 4.166-3.826 2.094-2.871 4.463.1 4.622-3.064 4.76" fill="none" stroke="#dd1f56" stroke-width=".75"/>
    </pattern>
  </defs>
  <path d="M14.05 44.08h-1.36a2.39 2.39 0 00-4.19 0H6.11a2.39 2.39 0 00-4.19 0h-.43V36.9h12.56v7.18z" fill="#fcb072"/>
  <path d="M47.51 44.08h-1.29a2.39 2.39 0 00-4.19 0h-2.39a2.39 2.39 0 00-4.19 0h-.51V36.9H47.5v7.18h.01z" fill="#f9c193"/>
  <path d="M3.47 6.79c0-2.94 1.93-5.34 4.3-5.34s4.3 2.39 4.3 5.34-1.93 5.34-4.3 5.34-4.3-2.4-4.3-5.34z" fill="#4ea3ea" stroke="#000" stroke-linecap="round" stroke-linejoin="round" stroke-width=".5"/>
  <path d="M18.77 27.99a5.26 5.26 0 011.3-3.29.6.6 0 00.34-.65l-1.49-8.13 1.73-1.41 1.73 8a.6.6 0 001.05.25 3 3 0 011-.25A5.39 5.39 0 0129.56 28v7.7h-2.39v-2.56a2.86 2.86 0 00-2.63-2.82h-.27a2.73 2.73 0 00-2.49 2.82v2.56h-3V28z" fill="#f9c18a"/>
  <path d="M30.72 44.08h-1.36a2.39 2.39 0 00-4.19 0h-2.35a2.39 2.39 0 00-4.19 0h-.44V36.9h12.53v7.18z" fill="#7db0ef"/>
  <path d="M47.5 44.08V36.9H34.94v7.18h.51a2.362 2.362 0 01.94-.94 2.388 2.388 0 013.25.94h2.39a2.362 2.362 0 01.94-.94 2.388 2.388 0 013.25.94h1.28zm3.63-12.4a1.783 1.783 0 01-.79 1.72 3.981 3.981 0 01-1.54.83 1.946 1.946 0 01-1.3-.16v1.63h.6a.6.6 0 01.6.6v8.28a.6.6 0 01-.6.6h-1.52a2.43 2.43 0 11-4.86 0h-1.76a2.43 2.43 0 11-4.86 0h-.78a.6.6 0 01-.6-.6v-1.2h-1.77v1.2a.6.6 0 01-.6.6h-1.6a2.43 2.43 0 11-4.86 0h-1.73a2.43 2.43 0 11-4.86 0h-.71a.6.6 0 01-.6-.6v-1.2H15.2v1.2a.6.6 0 01-.6.6H13a2.43 2.43 0 11-4.86 0H6.41a2.43 2.43 0 11-4.86 0h-.7a.6.6 0 01-.6-.6v-8.37a.6.6 0 01.6-.6h5.44a6.483 6.483 0 01-1-4c0-.31.02-.61.05-.92a3.747 3.747 0 01-.67-.11 1 1 0 01-.88-.92 1.861 1.861 0 01.79-1.26 5.341 5.341 0 01-3.28-5.17c0-2.99 2.03-5.38 4.53-5.38a3.982 3.982 0 012.54.92 27.475 27.475 0 00-.47-3.13c-1.14-.02-1.94-.63-1.94-1.49a1.567 1.567 0 01.51-1c-2.46-.67-4.25-3.27-4.25-6.36 0-3.61 2.43-6.54 5.5-6.54s5.54 2.95 5.54 6.52A6.522 6.522 0 019.41 13a1.743 1.743 0 01.64 1.17 1.405 1.405 0 01-.92 1.29 30.9 30.9 0 01.6 4.79.33.33 0 010 .14 6.194 6.194 0 010 5.74c-.23 4.85-.68 7.67-1.53 9.57h6.4a.6.6 0 01.6.6v6H17v-6a.6.6 0 01.6-.6V28a6.449 6.449 0 011.65-4.06l-1.33-7.18-.2.17a2.509 2.509 0 01-3.52-3.53l2.43-3a2.323 2.323 0 011.45-.82l-.43-1.17v-.13a.8.8 0 111.07-.4V8l.69 1.83.31.17a2.585 2.585 0 01.09-.4c.38-.73 1.83-2.28 3-1.73s.93 2.63.57 3.4a1.99 1.99 0 01-1.79 1.13h-.06c0 .07.01.14.01.21s-.01.14-.01.21a.71.71 0 01.08.18l1.8 8.49a4.681 4.681 0 01.83-.16h.21a6.617 6.617 0 015.85 4.31 6.413 6.413 0 01.42 2.36v7.7h.63a.6.6 0 01.6.6v6h1.79v-6a.6.6 0 01.6-.6h.82l.82-1.39a23.432 23.432 0 01-1.79-7.51 12.612 12.612 0 01-.11-1.5l-1.13-.51-1.5.84a.608.608 0 01-.24.15.63.63 0 01-.67-.22.982.982 0 01-.08-.18.6.6 0 01.39-.75l.55-.31-1-.32a.561.561 0 01-.31-.09.6.6 0 11.63-1.02l2.36.72h.04l.88.41c.01-.63.05-1.26.12-1.86l-1.6-1.13-1.62.53-.09.03a.602.602 0 01-.24-1.18l.6-.19-.93-.51a.608.608 0 01-.24-.15.589.589 0 01-.01-.84.6.6 0 01.85-.01l2.15 1.2 1.34 1a16.216 16.216 0 01.84-3.07h-.22a4.39 4.39 0 01-4.47-3c-.53-2.22 1.26-4.54 4-5.22a1.657 1.657 0 01-.27-.78 3.293 3.293 0 01.28-1.45 1.588 1.588 0 011.23-1.1c1.12-.12 1.82 1.55 1.87 2.29a1.681 1.681 0 01-.25 1 4.746 4.746 0 01.64.2 1.72 1.72 0 01.45-1.12c.51-.52 2.09-1.32 2.9-.6s.21 2.33-.39 2.93a1.709 1.709 0 01-.86.5 3.929 3.929 0 01.3.66 1.6 1.6 0 01.54-.23 3.31 3.31 0 011.5.08 1.578 1.578 0 011.3 1.09c.23 1.07-1.31 2.02-2 2.21a1.673 1.673 0 01-1.16-.17l.51 2.05a1.609 1.609 0 01.51-.29c.7-.24 2.51-.23 2.88.84s-1.07 2.18-1.76 2.42a1.785 1.785 0 01-.56.1h-.31l.42 1.69c.03-.05.08-.15.08-.15.49-.69 2.18-1.94 3.24-1.2a1.781 1.781 0 01.56 1.79 4.057 4.057 0 01-.6 1.65 1.966 1.966 0 01-.74.6 7.829 7.829 0 011.08 1.15 1.921 1.921 0 01.8-.72c.77-.38 2.85-.64 3.42.51s-.93 2.62-1.69 3a1.973 1.973 0 01-.86.2h-.25a7.748 7.748 0 01.21 1.79 1.922 1.922 0 01.42-.16 3.98 3.98 0 011.75.08 1.779 1.779 0 011.46 1.2zm-2.6 1.38a2.45 2.45 0 001.5-1.12 2.413 2.413 0 00-1.79-.38.235.235 0 00-.08.02.77.77 0 00.42 1.48h-.05zm.48-6.97a1.235 1.235 0 00-.75-.16 2.6 2.6 0 00-1.06.2.8.8 0 00-.39.44h.06a.731.731 0 000 .58.773.773 0 001 .35 2.267 2.267 0 001.14-1.41zM46.3 35.7v-5.11a6.569 6.569 0 00-4.37-6.24.6.6 0 01-.35-.35l-.22-.68v-.07l-1.83-7.37a5.872 5.872 0 01-2.92 1.75 15.032 15.032 0 00-1.15 4l1.26.91a.607.607 0 01-.73.97l-.72-.51a21.13 21.13 0 00.06 3.73 25.146 25.146 0 001.39 6.41l1-1.6A4.006 4.006 0 0141 29.83a3.955 3.955 0 012.27.71 3.279 3.279 0 01.86 4.56l-.41.6h2.58zm-1.72-12.4a2.309 2.309 0 00.31-1.79h-.08a2.616 2.616 0 00-1.49.93.777.777 0 00.17.91.764.764 0 001.09-.05zm.79 22.03a1.23 1.23 0 10-1.23 1.23 1.229 1.229 0 001.23-1.23zM43.15 34.4a2.081 2.081 0 00-.55-2.89 2.8 2.8 0 00-3.88.76l-2.16 3.4h5.76a.774.774 0 01.07-.16zm.16-16.23a1.629 1.629 0 00-.84-.17 1.456 1.456 0 00-.51 0h-.01c-.02.01-.05.02-.07.03a.519.519 0 00-.29.48.456.456 0 00.05.23.525.525 0 00.67.33 2.085 2.085 0 001-.9zm-.82-4.8a2.042 2.042 0 00-1-.26h-.25a.522.522 0 00-.32.22l-.1-.01a.5.5 0 00-.05.21.492.492 0 00.05.2.51.51 0 00.6.39 2.084 2.084 0 001.07-.75zm-2.4-3.14A2.04 2.04 0 0040.54 9a2.168 2.168 0 00-1.16.5l-.04.04-.03.03a.517.517 0 00.06.72.508.508 0 00.72-.06zm-1.37 4.67a2.555 2.555 0 00.64-2.27c-.28-1.2-1.66-2-3.28-2a5.194 5.194 0 00-1.24.15c-2.12.52-3.5 2.22-3.12 3.78l-.06.01c.39 1.57 2.42 2.42 4.52 1.89a4.609 4.609 0 002.54-1.56zm.07 30.43a1.23 1.23 0 10-1.23 1.23 1.229 1.229 0 001.23-1.23zM36.01 9.22a.512.512 0 00.46-.55 2.066 2.066 0 00-.6-1.17h-.03a2.053 2.053 0 00-.38 1.25.521.521 0 00.18.35.5.5 0 00.33.12h.04zm-5.29 34.86V36.9H18.19v7.18h.44a2.362 2.362 0 01.94-.94 2.388 2.388 0 013.25.94h2.35a2.362 2.362 0 01.94-.94 2.388 2.388 0 013.25.94h1.36zm-1.16-8.38V28a5.389 5.389 0 00-5.13-5.49 3.128 3.128 0 00-1 .25.648.648 0 01-.33.21.607.607 0 01-.72-.46l-1.73-8-1.73 1.41 1.49 8.13a.591.591 0 01-.34.65 5.258 5.258 0 00-1.3 3.29l.01.01v7.7h3v-2.56a2.736 2.736 0 012.49-2.82h.27a2.866 2.866 0 012.63 2.82v2.56h2.39zm-1.03 9.63a1.23 1.23 0 10-1.23 1.23 1.229 1.229 0 001.23-1.23zm-2.58-9.63v-2.56a1.66 1.66 0 00-1.57-1.63 1.538 1.538 0 00-1.42 1.63v2.55l-.01.01h3zM22.4 9.77a2.333 2.333 0 00-.19-.89 2.483 2.483 0 00-1.35 1.2l-.04-.01v-.05l-.06.12a.772.772 0 101.45.53 2.3 2.3 0 00.19-.9zm-.45 35.56a1.23 1.23 0 10-1.23 1.23 1.229 1.229 0 001.23-1.23zm-1.97-31.92a1.135 1.135 0 000-1.6l-.84-.82a1.136 1.136 0 00-.8-.33h-.06a1.139 1.139 0 00-.82.42l-2.45 3v.06a1.31 1.31 0 000 1.85 1.348 1.348 0 001.85 0l3.04-2.5zm-6.01 30.67V36.9H1.41v7.18h.43a2.362 2.362 0 01.94-.94 2.388 2.388 0 013.25.94h2.39a2.362 2.362 0 01.94-.94 2.388 2.388 0 013.25.94h1.36zm-1.9-37.29c0-2.95-1.93-5.34-4.3-5.34s-4.3 2.4-4.3 5.34 1.93 5.34 4.3 5.34 4.3-2.39 4.3-5.34zm-.28 38.54a1.23 1.23 0 10-1.23 1.23 1.229 1.229 0 001.23-1.23zM9.22 23.29c0-2.29-1.5-4.19-3.34-4.19s-3.34 1.88-3.34 4.19 1.5 4.19 3.34 4.19 3.34-1.9 3.34-4.19zm-1.18-8.84a1 1 0 00.82-.28 2.825 2.825 0 00-.83-.71 2.593 2.593 0 00-.83.75l.01.01a1.074 1.074 0 00.83.23zm-.8 20.42a25.081 25.081 0 001.2-7.14 4.363 4.363 0 01-1.3.72 1.845 1.845 0 01.76 1.26c0 .54-.45.88-1.28 1a7.452 7.452 0 00-.07.95 5.363 5.363 0 00.69 3.21zm-.71-5.35a4.631 4.631 0 00-.65-.52 4.546 4.546 0 00-.64.52 4.645 4.645 0 001.29 0zM5.21 45.33a1.23 1.23 0 10-1.23 1.23 1.229 1.229 0 001.23-1.23z" fill="#dcf4ee"/>
  <path d="M50.03 31.94a2.45 2.45 0 01-1.5 1.12h.05a.77.77 0 01-.42-1.48.235.235 0 01.08-.02 2.413 2.413 0 011.79.38z" fill="#fc6a06"/>
  <path d="M48.26 25.93a1.235 1.235 0 01.75.16 2.267 2.267 0 01-1.14 1.41.773.773 0 01-1-.35.731.731 0 010-.58h-.06a.8.8 0 01.39-.44 2.6 2.6 0 011.06-.2z" fill="#f47a27"/>
  <path d="M47.25 36.65v7.18h-1.28a2.388 2.388 0 00-3.25-.94 2.362 2.362 0 00-.94.94h-2.39a2.388 2.388 0 00-3.25-.94 2.362 2.362 0 00-.94.94h-.51v-7.18h12.56z" transform="translate(0.25 0.25)" fill="url(#a)"/>
  <path d="M46.05 30.34v5.11h-2.58l.41-.6a3.279 3.279 0 00-.86-4.56 3.955 3.955 0 00-2.27-.71 4.006 4.006 0 00-3.28 1.71l-1 1.6a25.146 25.146 0 01-1.39-6.41 21.13 21.13 0 01-.06-3.73l.72.51a.607.607 0 00.73-.97l-1.26-.91a15.032 15.032 0 011.15-4 5.872 5.872 0 002.92-1.75L41.11 23v.07l.22.68a.6.6 0 00.35.35 6.569 6.569 0 014.37 6.24z" transform="translate(0.25 0.25)" fill="url(#b)"/>
  <path d="M44.89 21.51a2.309 2.309 0 01-.31 1.79.764.764 0 01-1.09.05.777.777 0 01-.17-.91 2.616 2.616 0 011.49-.93h.08z" fill="#f47a27"/>
  <circle cx="44.14" cy="45.33" r="1.23" fill="#058899"/>
  <path d="M43.26 32.98a2.092 2.092 0 01-.36 1.17l-.76 1.11a.774.774 0 00-.07.16h-5.76l2.16-3.4a2.8 2.8 0 013.88-.76 2.1 2.1 0 01.91 1.72z" transform="translate(0.25 0.25)" fill="url(#c)"/>
  <path d="M42.47 18a1.629 1.629 0 01.84.17 2.085 2.085 0 01-1 .9.525.525 0 01-.67-.33.456.456 0 01-.05-.23.519.519 0 01.29-.48c.02-.01.05-.02.07-.03h.01a1.456 1.456 0 01.51 0zM41.49 13.11a2.042 2.042 0 011 .26 2.084 2.084 0 01-1.07.75.51.51 0 01-.6-.39.492.492 0 01-.05-.2.5.5 0 01.05-.21l.1.01a.522.522 0 01.32-.22h.25z" fill="#f48f42"/>
  <path d="M40.54 9a2.04 2.04 0 01-.45 1.23.508.508 0 01-.72.06.517.517 0 01-.06-.72l.03-.03.04-.04a2.168 2.168 0 011.16-.5z" fill="#f9bb91"/>
  <path d="M39.36 12.63a2.555 2.555 0 01-.64 2.27 4.609 4.609 0 01-2.54 1.56c-2.1.53-4.13-.32-4.52-1.89l.06-.01c-.38-1.56 1-3.26 3.12-3.78a5.194 5.194 0 011.24-.15c1.62 0 3 .8 3.28 2zm-1.66.88a.455.455 0 00-.45-.45.45.45 0 100 .9.455.455 0 00.45-.45zm-1.44 1.63a.17.17 0 00.07-.25l-.03-.03h-.01a.226.226 0 00-.29 0 1.508 1.508 0 01-.72.18 1.481 1.481 0 01-.51-.09 1.243 1.243 0 01-.95-.77.213.213 0 00-.42.04 1.6 1.6 0 001.24 1.08 2.614 2.614 0 00.69.1 1.6 1.6 0 00.93-.26zm-1.64-2.71a.45.45 0 10-.45.45.448.448 0 00.45-.45z" fill="#9bf908"/>
  <circle cx="37.56" cy="45.33" r="1.23" fill="#058899"/>
  <path d="M37.25 13.06a.45.45 0 110 .9.45.45 0 110-.9z" fill="#226d5b"/>
  <path d="M36.47 8.67a.512.512 0 01-.46.55h-.04a.5.5 0 01-.33-.12.521.521 0 01-.18-.35 2.053 2.053 0 01.38-1.25h.03a2.066 2.066 0 01.6 1.17z" fill="#f9bb91"/>
  <circle cx="34.17" cy="12.43" r=".45" fill="#226d5b"/>
  <path d="M30.47 36.65v7.18h-1.36a2.388 2.388 0 00-3.25-.94 2.362 2.362 0 00-.94.94h-2.35a2.388 2.388 0 00-3.25-.94 2.362 2.362 0 00-.94.94h-.44v-7.18h12.53z" transform="translate(0.25 0.25)" fill="url(#d)"/>
  <path d="M29.31 27.75v7.7h-2.39v-2.56a2.866 2.866 0 00-2.63-2.82h-.27a2.736 2.736 0 00-2.49 2.82v2.56h-3v-7.7l-.01-.01a5.258 5.258 0 011.3-3.29.591.591 0 00.34-.65l-1.49-8.13 1.73-1.41 1.73 8a.607.607 0 00.72.46.648.648 0 00.33-.21 3.128 3.128 0 011-.25 5.389 5.389 0 015.13 5.49z" transform="translate(0.25 0.25)" fill="url(#e)"/>
  <circle cx="27.3" cy="45.33" r="1.23" fill="#058899"/>
  <path d="M22.21 8.88a2.333 2.333 0 01.19.89 2.3 2.3 0 01-.19.9.772.772 0 11-1.45-.53l.06-.12v.05l.04.01a2.483 2.483 0 011.35-1.2z" fill="#e54710"/>
  <circle cx="20.72" cy="45.33" r="1.23" fill="#058899"/>
  <path d="M19.98 11.81a1.135 1.135 0 010 1.6l-.08.08-3.04 2.5a1.348 1.348 0 01-1.85 0 1.31 1.31 0 010-1.85v-.06l2.45-3a1.139 1.139 0 01.82-.42h.06a1.136 1.136 0 01.8.33zm-1.43 1.37a.8.8 0 00.47-1.03.8.8 0 10-.47 1.03z" fill="#f79e54"/>
  <path d="M19.02 12.15a.8.8 0 01-.47 1.03.8.8 0 11.47-1.03z" fill="#f9e206"/>
  <path d="M13.72 36.65v7.18h-1.36a2.388 2.388 0 00-3.25-.94 2.362 2.362 0 00-.94.94H5.78a2.388 2.388 0 00-3.25-.94 2.362 2.362 0 00-.94.94h-.43v-7.18h12.56z" transform="translate(0.25 0.25)" fill="url(#f)"/>
  <ellipse cx="7.77" cy="6.79" rx="4.3" ry="5.34" fill="url(#g)"/>
  <circle cx="10.56" cy="45.33" r="1.23" fill="#058899"/>
  <path d="M5.88 19.1c1.84 0 3.34 1.9 3.34 4.19s-1.5 4.19-3.34 4.19-3.34-1.88-3.34-4.19 1.5-4.19 3.34-4.19z" fill="#0dcea9"/>
  <path d="M8.86 14.17a1 1 0 01-.82.28 1.074 1.074 0 01-.83-.23l-.01-.01a2.593 2.593 0 01.83-.75 2.825 2.825 0 01.83.71zM5.88 29a4.631 4.631 0 01.65.52 4.645 4.645 0 01-1.29 0 4.546 4.546 0 01.64-.52z" fill="#f79e54"/>
  <circle cx="3.98" cy="45.33" r="1.23" fill="#058899"/>
  <path d="M30.3 25.64a6.617 6.617 0 00-5.85-4.31h-.21a4.681 4.681 0 00-.83.16L21.61 13a.71.71 0 00-.08-.18c0-.07.01-.14.01-.21s-.01-.14-.01-.21h.06a1.99 1.99 0 001.79-1.13c.36-.77.6-2.85-.57-3.4s-2.62 1-3 1.73a2.585 2.585 0 00-.09.4l-.31-.17L18.72 8v-.12a.8.8 0 10-1.07.4v.13l.43 1.17a2.323 2.323 0 00-1.45.82l-2.43 3a2.509 2.509 0 003.52 3.53l.2-.17 1.33 7.18A6.449 6.449 0 0017.6 28v7.7a.6.6 0 00-.6.6v6h-1.8v-6a.6.6 0 00-.6-.6H8.2c.85-1.9 1.3-4.72 1.53-9.57a6.194 6.194 0 000-5.74.33.33 0 000-.14 30.9 30.9 0 00-.6-4.79 1.405 1.405 0 00.92-1.29A1.743 1.743 0 009.41 13a6.522 6.522 0 003.85-6.23c0-3.57-2.47-6.52-5.54-6.52s-5.5 2.93-5.5 6.54c0 3.09 1.79 5.69 4.25 6.36a1.567 1.567 0 00-.51 1c0 .86.8 1.47 1.94 1.49a27.475 27.475 0 01.47 3.13 3.982 3.982 0 00-2.54-.92c-2.5 0-4.53 2.39-4.53 5.38a5.341 5.341 0 003.28 5.17 1.861 1.861 0 00-.79 1.26 1 1 0 00.88.92 3.747 3.747 0 00.67.11c-.03.31-.05.61-.05.92a6.483 6.483 0 001 4H.85a.6.6 0 00-.6.6v8.37a.6.6 0 00.6.6h.7a2.43 2.43 0 004.86 0h1.73a2.43 2.43 0 004.86 0h1.6a.6.6 0 00.6-.6v-1.2h1.79v1.2a.6.6 0 00.6.6h.71a2.43 2.43 0 004.86 0h1.73a2.43 2.43 0 004.86 0h1.6a.6.6 0 00.6-.6v-1.2h1.77v1.2a.6.6 0 00.6.6h.78a2.43 2.43 0 004.86 0h1.76a2.43 2.43 0 004.86 0h1.52a.6.6 0 00.6-.6V36.3a.6.6 0 00-.6-.6h-.6v-1.63a1.946 1.946 0 001.3.16 3.981 3.981 0 001.54-.83 1.783 1.783 0 00.79-1.72 1.779 1.779 0 00-1.46-1.2 3.98 3.98 0 00-1.75-.08 1.922 1.922 0 00-.42.16 7.748 7.748 0 00-.21-1.79h.25a1.973 1.973 0 00.86-.2c.76-.38 2.26-1.85 1.69-3s-2.65-.89-3.42-.51a1.921 1.921 0 00-.8.72 7.829 7.829 0 00-1.08-1.15 1.966 1.966 0 00.74-.6 4.057 4.057 0 00.6-1.65 1.781 1.781 0 00-.56-1.79c-1.06-.74-2.75.51-3.24 1.2 0 0-.05.1-.08.15l-.42-1.69h.31a1.785 1.785 0 00.56-.1c.69-.24 2.13-1.35 1.76-2.42s-2.18-1.08-2.88-.84a1.609 1.609 0 00-.51.29l-.51-2.05a1.673 1.673 0 001.16.17c.69-.19 2.23-1.14 2-2.21a1.578 1.578 0 00-1.3-1.09 3.31 3.31 0 00-1.5-.08 1.6 1.6 0 00-.54.23 3.929 3.929 0 00-.3-.66 1.709 1.709 0 00.86-.5c.6-.6 1.2-2.21.39-2.93s-2.39.08-2.9.6a1.72 1.72 0 00-.45 1.12 4.746 4.746 0 00-.64-.2 1.681 1.681 0 00.25-1c-.05-.74-.75-2.41-1.87-2.29a1.588 1.588 0 00-1.23 1.1 3.293 3.293 0 00-.28 1.45 1.657 1.657 0 00.27.78c-2.74.68-4.53 3-4 5.22a4.39 4.39 0 004.47 3h.22a16.216 16.216 0 00-.84 3.07l-1.34-1-2.15-1.2a.6.6 0 00-.85.01.589.589 0 00.01.84.608.608 0 00.24.15l.93.51-.6.19a.602.602 0 00.24 1.18l.09-.03 1.62-.53 1.6 1.13c-.07.6-.11 1.23-.12 1.86l-.88-.41h-.04l-2.36-.72a.6.6 0 10-.63 1.02.561.561 0 00.31.09l1 .32-.55.31a.6.6 0 00-.39.75.982.982 0 00.08.18.63.63 0 00.67.22.608.608 0 00.24-.15l1.5-.84 1.13.51a12.612 12.612 0 00.11 1.5 23.432 23.432 0 001.79 7.51l-.82 1.39h-.82a.6.6 0 00-.6.6v6h-1.79v-6a.6.6 0 00-.6-.6h-.63V28a6.413 6.413 0 00-.42-2.36z" fill="none" stroke="#226d5b" stroke-width=".5"/>
  <path d="M46.81 26.57a.8.8 0 01.39-.44 2.6 2.6 0 011.06-.2 1.235 1.235 0 01.75.16 2.267 2.267 0 01-1.14 1.41.773.773 0 01-1-.35.731.731 0 010-.58h-.06zM41.96 18a1.456 1.456 0 01.51 0 1.629 1.629 0 01.84.17 2.085 2.085 0 01-1 .9.525.525 0 01-.67-.33.456.456 0 01-.05-.23.519.519 0 01.29-.48c.02-.01.05-.02.07-.03h.01zM6.62 30.71c.83-.12 1.28-.46 1.28-1a1.845 1.845 0 00-.76-1.26 4.363 4.363 0 001.3-.72 25.081 25.081 0 01-1.2 7.14 5.363 5.363 0 01-.69-3.21 7.452 7.452 0 01.07-.95zM3.47 6.79c0-2.94 1.93-5.34 4.3-5.34s4.3 2.39 4.3 5.34-1.93 5.34-4.3 5.34-4.3-2.4-4.3-5.34zM7.2 14.21a2.593 2.593 0 01.83-.75 2.825 2.825 0 01.83.71 1 1 0 01-.82.28 1.074 1.074 0 01-.83-.23z" fill="none" stroke="#226d5b" stroke-width=".25"/>
  <ellipse cx="5.88" cy="23.29" rx="3.34" ry="4.19" fill="none" stroke="#226d5b" stroke-width=".25"/>
  <path d="M5.88 29a4.631 4.631 0 01.65.52 4.645 4.645 0 01-1.29 0 4.546 4.546 0 01.64-.52z" fill="none" stroke="#226d5b" stroke-width=".25"/>
  <circle cx="3.98" cy="45.33" r="1.23" fill="none" stroke="#226d5b" stroke-width=".25"/>
  <circle cx="10.56" cy="45.33" r="1.23" fill="none" stroke="#226d5b" stroke-width=".25"/>
  <path d="M13.97 44.08h-1.36a2.388 2.388 0 00-3.25-.94 2.362 2.362 0 00-.94.94H6.03a2.388 2.388 0 00-3.25-.94 2.362 2.362 0 00-.94.94h-.43V36.9h12.56v7.18zM20.86 10.08a2.483 2.483 0 011.35-1.2 2.333 2.333 0 01.19.89 2.3 2.3 0 01-.19.9.772.772 0 11-1.45-.53l.06-.12v.05zM16.86 15.99a1.348 1.348 0 01-1.85 0 1.31 1.31 0 010-1.85v-.06l2.45-3a1.139 1.139 0 01.82-.42h.06a1.136 1.136 0 01.8.33l.84.82a1.135 1.135 0 010 1.6l-.08.08zM18.77 27.99a5.258 5.258 0 011.3-3.29.591.591 0 00.34-.65l-1.49-8.13 1.73-1.41 1.73 8a.607.607 0 00.72.46.648.648 0 00.33-.21 3.128 3.128 0 011-.25A5.389 5.389 0 0129.56 28v7.7h-2.39v-2.56a2.866 2.866 0 00-2.63-2.82h-.27a2.736 2.736 0 00-2.49 2.82v2.56h-3V28z" fill="none" stroke="#226d5b" stroke-width=".25"/>
  <path d="M22.96 35.69v-2.55a1.538 1.538 0 011.42-1.63 1.66 1.66 0 011.57 1.63v2.56h-3z" fill="none" stroke="#226d5b" stroke-width=".25"/>
  <circle cx="20.72" cy="45.33" r="1.23" fill="none" stroke="#226d5b" stroke-width=".25"/>
  <circle cx="27.3" cy="45.33" r="1.23" fill="none" stroke="#226d5b" stroke-width=".25"/>
  <path d="M30.72 44.08h-1.36a2.388 2.388 0 00-3.25-.94 2.362 2.362 0 00-.94.94h-2.35a2.388 2.388 0 00-3.25-.94 2.362 2.362 0 00-.94.94h-.44V36.9h12.53v7.18zM43.32 22.44a2.616 2.616 0 011.49-.93h.08a2.309 2.309 0 01-.31 1.79.764.764 0 01-1.09.05.777.777 0 01-.17-.91zM40.92 13.33a.522.522 0 01.32-.22h.25a2.042 2.042 0 011 .26 2.084 2.084 0 01-1.07.75.51.51 0 01-.6-.39.492.492 0 01-.05-.2.5.5 0 01.05-.21zM39.38 9.5a2.168 2.168 0 011.16-.5 2.04 2.04 0 01-.45 1.23.508.508 0 01-.72.06.517.517 0 01-.06-.72l.03-.03zM35.87 7.5a2.066 2.066 0 01.6 1.17.512.512 0 01-.46.55h-.04a.5.5 0 01-.33-.12.521.521 0 01-.18-.35 2.053 2.053 0 01.38-1.25h.03zM31.72 14.56c-.38-1.56 1-3.26 3.12-3.78a5.194 5.194 0 011.24-.15c1.62 0 3 .8 3.28 2a2.555 2.555 0 01-.64 2.27 4.609 4.609 0 01-2.54 1.56c-2.1.53-4.13-.32-4.52-1.89zM38.72 32.27a2.8 2.8 0 013.88-.76 2.081 2.081 0 01.55 2.89l-.76 1.11a.774.774 0 00-.07.16h-5.76z" fill="none" stroke="#226d5b" stroke-width=".25"/>
  <circle cx="37.56" cy="45.33" r="1.23" fill="none" stroke="#226d5b" stroke-width=".25"/>
  <circle cx="44.14" cy="45.33" r="1.23" fill="none" stroke="#226d5b" stroke-width=".25"/>
  <path d="M47.5 44.08h-1.28a2.388 2.388 0 00-3.25-.94 2.362 2.362 0 00-.94.94h-2.39a2.388 2.388 0 00-3.25-.94 2.362 2.362 0 00-.94.94h-.51V36.9H47.5v7.18zM47.5 44.08h.01M43.72 35.7l.41-.6a3.279 3.279 0 00-.86-4.56 3.955 3.955 0 00-2.27-.71 4.006 4.006 0 00-3.28 1.71l-1 1.6a25.146 25.146 0 01-1.39-6.41 21.13 21.13 0 01-.06-3.73l.72.51a.607.607 0 00.73-.97l-1.26-.91a15.032 15.032 0 011.15-4 5.872 5.872 0 002.92-1.75l1.83 7.37v.07l.22.68a.6.6 0 00.35.35 6.569 6.569 0 014.37 6.24v5.11h-2.58zM48.58 33.06a.77.77 0 01-.42-1.48.235.235 0 01.08-.02 2.413 2.413 0 011.79.38 2.45 2.45 0 01-1.5 1.12h.05zM36.29 14.86a.226.226 0 00-.29 0 1.508 1.508 0 01-.72.18 1.481 1.481 0 01-.51-.09 1.243 1.243 0 01-.95-.77.213.213 0 00-.42.04 1.6 1.6 0 001.24 1.08 2.614 2.614 0 00.69.1 1.6 1.6 0 00.93-.26.17.17 0 00.07-.25l-.03-.03h-.01z" fill="none" stroke="#226d5b" stroke-width=".25"/>
  <ellipse cx="5.88" cy="23.29" rx="3.34" ry="4.19" fill="url(#h)"/>
</svg>
