<svg id="Layer_1" data-name="Layer 1" xmlns="http://www.w3.org/2000/svg" viewBox="0 0 47.17 47.82"><title>trains_9</title><path d="M17.95,18.2a4.57,4.57,0,0,0-4.57,4.57V29h9.13V22.77A4.57,4.57,0,0,0,17.95,18.2Z" transform="translate(-6.74 -0.09)" fill="none" stroke="#000" stroke-miterlimit="10" stroke-width="1.3"/><ellipse cx="17.11" cy="11.47" rx="0.99" ry="1.08"/><path d="M49.21,7.33a3.37,3.37,0,0,0,.7.08,3.34,3.34,0,1,0-3-1.84A6.68,6.68,0,0,1,49.21,7.33Z" transform="translate(-6.74 -0.09)" fill="none" stroke="#000" stroke-miterlimit="10" stroke-width="1.3"/><path d="M17.52,4.92h0a6.74,6.74,0,0,1,1.62.2,5.46,5.46,0,0,0,0-.61c0-2-1.14-3.74-2.49-3.74a1.6,1.6,0,0,0-.31,0,6.31,6.31,0,0,1,1.14,3.7C17.53,4.64,17.52,4.78,17.52,4.92Z" transform="translate(-6.74 -0.09)" fill="none" stroke="#000" stroke-miterlimit="10" stroke-width="1.3"/><path d="M17.21,6.59A4.31,4.31,0,0,1,13.38,9.9a3.21,3.21,0,0,1-.53,0,5,5,0,0,0,4.68,6.69,4.92,4.92,0,0,0,4.71-3.43,2.44,2.44,0,0,1,0-3.11,4.92,4.92,0,0,0-4.71-3.43H17.21Zm1.22,3.16a0.77,0.77,0,0,1,.17-0.27,0.83,0.83,0,1,1,1.18,1.18,1,1,0,0,1-.27.17,0.78,0.78,0,0,1-.63,0,0.8,0.8,0,0,1-.51-0.76,0.83,0.83,0,0,1,.07-0.32h0Z" transform="translate(-6.74 -0.09)" fill="none" stroke="#000" stroke-miterlimit="10" stroke-width="1.3"/><path d="M38.29,7.41A3.37,3.37,0,0,0,39,7.33a6.68,6.68,0,0,1,2.27-1.76A3.32,3.32,0,1,0,38.29,7.41Z" transform="translate(-6.74 -0.09)" fill="none" stroke="#000" stroke-miterlimit="10" stroke-width="1.3"/><ellipse cx="6.64" cy="4.41" rx="2.49" ry="3.74" fill="none" stroke="#000" stroke-miterlimit="10" stroke-width="1.3"/><path d="M43.68,18.2a4.57,4.57,0,0,0-4.57,4.57V29h9.13V22.77A4.57,4.57,0,0,0,43.68,18.2Z" transform="translate(-6.74 -0.09)" fill="none" stroke="#000" stroke-miterlimit="10" stroke-width="1.3"/><path d="M39.12,11.56a5,5,0,1,0,5-5A5,5,0,0,0,39.12,11.56Zm6.05-2.25,0.12-.1,0.15-.07,0.16,0a0.83,0.83,0,0,1,.75.22,0.87,0.87,0,0,1,.24.59,1.15,1.15,0,0,1,0,.17,0.51,0.51,0,0,1,0,.15,0.64,0.64,0,0,1-.07.15l-0.1.12-0.12.1-0.15.07-0.16,0-0.16,0-0.16,0-0.16,0-0.15-.07-0.12-.1a0.85,0.85,0,0,1-.24-0.59A0.87,0.87,0,0,1,45.17,9.31Zm-3.5.27a1,1,0,0,1,.17-0.27,0.87,0.87,0,0,1,1.18,0,1,1,0,0,1,.17.27,0.83,0.83,0,0,1,.07.32,0.87,0.87,0,0,1-.24.59l-0.12.1-0.15.07-0.15,0-0.17,0-0.17,0-0.15,0L42,10.59l-0.12-.1a0.87,0.87,0,0,1-.24-0.59,0.83,0.83,0,0,1,.07-0.32h0Z" transform="translate(-6.74 -0.09)" fill="none" stroke="#000" stroke-miterlimit="10" stroke-width="1.3"/><circle cx="27.4" cy="29.74" r="0.83"/><rect x="21.59" y="35.55" width="4.98" height="3.32" fill="none" stroke="#000" stroke-miterlimit="10" stroke-width="1.3"/><circle cx="31.55" cy="43.85" r="3.32" fill="none" stroke="#000" stroke-miterlimit="10" stroke-width="1.3"/><circle cx="43.17" cy="43.85" r="3.32" fill="none" stroke="#000" stroke-miterlimit="10" stroke-width="1.3"/><circle cx="0.83" cy="29.74" r="0.83"/><path d="M52.4,30.66H36.47A2.49,2.49,0,0,1,35,32.16v8.07a5,5,0,0,1,8.23,2.87H45a5,5,0,0,1,8.23-2.87V31.49A0.83,0.83,0,0,0,52.4,30.66Z" transform="translate(-6.74 -0.09)" fill="none" stroke="#000" stroke-miterlimit="10" stroke-width="1.3"/><circle cx="16.6" cy="43.85" r="3.32" fill="none" stroke="#000" stroke-miterlimit="10" stroke-width="1.3"/><path d="M25.83,30.66H9.91A2.49,2.49,0,0,1,8.4,32.16v8.07a5,5,0,0,1,8.23,2.87h1.81a5,5,0,0,1,8.23-2.87V31.49A0.83,0.83,0,0,0,25.83,30.66Z" transform="translate(-6.74 -0.09)" fill="none" stroke="#000" stroke-miterlimit="10" stroke-width="1.3"/><circle cx="4.98" cy="43.85" r="3.32" fill="none" stroke="#000" stroke-miterlimit="10" stroke-width="1.3"/><path d="M46.57,13.2c0.18,0.37-1,1.82-2.46,1.8s-2.59-1.44-2.4-1.8,0.75,0.09,2.29.11C45.71,13.33,46.45,13,46.57,13.2Z" transform="translate(-6.74 -0.09)" fill="none" stroke="#000" stroke-miterlimit="10" stroke-width="1.2"/></svg>