<svg id="Layer_1" data-name="Layer 1" xmlns="http://www.w3.org/2000/svg" viewBox="0 0 47.56 47.5"><title>trains_3</title><path d="M52.26,35.07V9.36A3.7,3.7,0,1,0,46.4,5.67H42.51a4,4,0,0,0-2.63-2.93,0.74,0.74,0,0,0-.76.18,1.91,1.91,0,0,1-1.12.7,3,3,0,0,1-1.35-.78A9.86,9.86,0,0,0,30,.47a9.86,9.86,0,0,0-6.65,2.36A3,3,0,0,1,22,3.61a1.91,1.91,0,0,1-1.12-.7,0.74,0.74,0,0,0-.76-0.18,4,4,0,0,0-2.63,2.93H13.6A3.71,3.71,0,1,0,7.74,9.36V35.07a8.19,8.19,0,1,0,14,1H38.28A8.2,8.2,0,1,0,52.26,35.07Zm-2.32-2.2a8.1,8.1,0,0,0-.72-0.41h0c-0.24-.12-0.49-0.22-0.74-0.31l-0.19-.07a8.1,8.1,0,0,0-.79-0.23l-0.08,0c-0.25-.06-0.5-0.1-0.76-0.13l-0.2,0-0.16,0h4.49v1.82A8.16,8.16,0,0,0,50.12,33Zm-5.54-1.16-0.55.1-0.34.08L43,32.05l-0.32.11-0.56.24-0.26.12a8.31,8.31,0,0,0-.73.42l0,0a8.27,8.27,0,0,0-.73.54l-0.17.15c-0.17.15-.33,0.3-0.49,0.46l-0.21.23-0.25.27H20.76l-0.24-.27-0.22-.24c-0.15-.15-0.31-0.3-0.47-0.43l-0.19-.17A8.29,8.29,0,0,0,18.91,33l-0.09-.05c-0.22-.14-0.45-0.27-0.68-0.39l-0.27-.13-0.54-.23L17,32l-0.53-.16-0.34-.08-0.55-.1-0.34,0-0.15,0H44.89l-0.15,0Zm-31.06,0c-0.26,0-.51.08-0.76,0.13l-0.08,0a8.12,8.12,0,0,0-.79.23l-0.18.07a8.08,8.08,0,0,0-.75.32h0a8.1,8.1,0,0,0-.72.41L9.89,33a8.16,8.16,0,0,0-.67.49V31.64h4.49l-0.16,0Zm4-21.57V11.6h-5.2V10.12h5.2Zm4.45,3v14.1H20.35V19a0.73,0.73,0,0,0,0-.23,5.16,5.16,0,0,0,.79-2.74v-3h0.74Zm3,0v14.1H23.32V13.09H24.8Zm3,0v14.1H26.29V13.09h1.48Zm3,0v14.1H29.26V13.09h1.48Zm3,0v14.1H32.23V13.09h1.48Zm3,0v14.1H35.2V13.09h1.48Zm2.23,0v3a5.16,5.16,0,0,0,.79,2.74,0.73,0.73,0,0,0,0,.23v8.16H38.16V13.09h0.74Zm3.71-3h5.2V11.6h-5.2V10.12Zm3.71,20V26.45a0.74,0.74,0,1,0-1.48,0v3.71H43.36V25.71a1.47,1.47,0,0,1,.23-0.79,0.73,0.73,0,0,0,.46-0.46,1.47,1.47,0,0,1,.79-0.23h3v5.94H46.33Zm-28.2,0V28.67H41.87v1.48H18.13Zm-5.94-8.91h1.48v1.48H12.19V21.25Zm3,0H15.9v1.59a2.93,2.93,0,0,0-.74-0.11V21.25Zm3.71,5.94H18.13V25.71a3,3,0,0,0-.79-2,0.72,0.72,0,0,0,0-.23V21a5.17,5.17,0,0,0,1.48-.72v6.88Zm22.26-6.88a5.17,5.17,0,0,0,1.48.72v2.73a2.94,2.94,0,0,0-.74,1.94v1.48H41.13V20.31Zm6.68,2.42H46.33V21.25h1.48v1.48Zm-3,0a2.93,2.93,0,0,0-.74.11V21.25h0.74v1.48Zm-3-9.65v3a0.74,0.74,0,1,0,1.48,0v-3h1.48v3a0.74,0.74,0,1,0,1.48,0v-3h1.48v6.68H44.1a3.72,3.72,0,0,1-3.71-3.71v-3h1.48Zm-22.26,3a3.72,3.72,0,0,1-3.71,3.71H12.19V13.09h1.48v3a0.74,0.74,0,0,0,1.48,0v-3h1.48v3a0.74,0.74,0,0,0,1.48,0v-3h1.48v3Zm-7.42,8.16h3a1.49,1.49,0,0,1,1.48,1.48v4.45H15.16V26.45a0.74,0.74,0,0,0-1.48,0v3.71H12.19V24.22Zm38.59-14.1v20H49.3v-20h1.48ZM50,4.18a2.23,2.23,0,1,1,0,4.45H42.62V7.15H50a0.74,0.74,0,0,0,0-1.48H47.95A2.22,2.22,0,0,1,50,4.18ZM20.2,4.31A2.76,2.76,0,0,0,22,5.1,3.8,3.8,0,0,0,24.25,4,8.33,8.33,0,0,1,30,2,8.33,8.33,0,0,1,35.75,4,3.8,3.8,0,0,0,38,5.1a2.76,2.76,0,0,0,1.8-.78,2.51,2.51,0,0,1,1.33,2.22V11.6H18.87V6.53A2.51,2.51,0,0,1,20.2,4.31ZM10,4.18a2.22,2.22,0,0,1,2.09,1.48H10a0.74,0.74,0,1,0,0,1.48h7.42V8.64H10A2.23,2.23,0,1,1,10,4.18Zm0.74,5.94v20H9.22v-20H10.7Zm3.71,36.4a6.71,6.71,0,1,1,0-13.42,6.86,6.86,0,0,1,.79,0l0.45,0.08L16,33.28l0.39,0.12,0.36,0.11L17,33.61c0.15,0.06.3,0.12,0.44,0.19l0.13,0.07c0.18,0.1.36,0.2,0.54,0.31l0,0A6.82,6.82,0,0,1,19.8,35.8h0A6.72,6.72,0,0,1,14.41,46.52Zm31.17,0a6.71,6.71,0,1,1,0-13.42,6.79,6.79,0,0,1,.92.07,6.67,6.67,0,0,1,1.2.28l0.16,0a6.63,6.63,0,0,1,.68.29h0c0.19,0.09.37,0.2,0.54,0.31l0.12,0.07,0.31,0.23,0.31,0.23L50,34.74c0.15,0.13.3,0.26,0.44,0.41l0.06,0.07a6.93,6.93,0,0,1,.46.53h0A6.71,6.71,0,0,1,45.59,46.52Z" transform="translate(-6.22 -0.47)"/><path d="M46,34.62l-0.36,0H45.56l-0.33,0H45.17A5.2,5.2,0,1,0,46,34.62Zm-4.13,5.19a3.67,3.67,0,0,1,.21-1.17L43.4,39.4a2,2,0,0,0,0,.81L42.07,41A3.68,3.68,0,0,1,41.86,39.81Zm3.73,0.74a0.74,0.74,0,1,1,.74-0.74A0.74,0.74,0,0,1,45.59,40.55Zm2.19-1.15,1.33-.77a3.44,3.44,0,0,1,0,2.35l-1.33-.77A2,2,0,0,0,47.77,39.4Zm0.6-2.06L47,38.12a2.21,2.21,0,0,0-.69-0.4V36.17A3.68,3.68,0,0,1,48.37,37.34Zm-3.52-1.17v1.54a2.21,2.21,0,0,0-.69.4l-1.34-.77A3.75,3.75,0,0,1,44.84,36.18Zm-2,6.09,1.34-.77a2.21,2.21,0,0,0,.69.4v1.56A3.71,3.71,0,0,1,42.81,42.27Zm3.52,1.19V41.9a2.21,2.21,0,0,0,.69-0.4l1.34,0.77A3.71,3.71,0,0,1,46.33,43.46Z" transform="translate(-6.22 -0.47)"/><path d="M14.82,34.62l-0.36,0H14.39l-0.33,0H14A5.2,5.2,0,1,0,14.82,34.62Zm-4.13,5.19a3.67,3.67,0,0,1,.21-1.17l1.33,0.77a2,2,0,0,0,0,.81L10.9,41A3.68,3.68,0,0,1,10.69,39.81Zm3.73,0.74a0.74,0.74,0,1,1,.74-0.74A0.74,0.74,0,0,1,14.41,40.55ZM16.6,39.4l1.33-.77a3.44,3.44,0,0,1,0,2.35l-1.33-.77A2,2,0,0,0,16.6,39.4Zm0.6-2.06-1.35.78a2.21,2.21,0,0,0-.69-0.4V36.17A3.68,3.68,0,0,1,17.2,37.34Zm-3.52-1.17v1.54a2.21,2.21,0,0,0-.69.4l-1.34-.77A3.75,3.75,0,0,1,13.67,36.18Zm-2,6.09L13,41.49a2.21,2.21,0,0,0,.69.4v1.56A3.71,3.71,0,0,1,11.64,42.27Zm3.52,1.19V41.9a2.21,2.21,0,0,0,.69-0.4l1.34,0.77A3.71,3.71,0,0,1,15.16,43.46Z" transform="translate(-6.22 -0.47)"/></svg>