<svg xmlns="http://www.w3.org/2000/svg" viewBox="0 0 60.5 45.75">
  <defs>
    <pattern id="a" data-name="Scotch Rule 2" width="70.8" height="72" patternTransform="translate(9.818 16.838) scale(0.106)" patternUnits="userSpaceOnUse" viewBox="0 0 70.8 72">
      <path fill="none" d="M0 0h70.8v72H0z"/>
      <path fill="none" stroke="#f25416" stroke-width=".4" d="M35.397 72V0M11.798 72V0M58.999 72V0"/>
      <path fill="none" stroke="#f25416" stroke-width="4" d="M30.798 72V0M7.197 72V0M54.399 72V0M16.397 72V0M39.999 72V0M63.599 72V0"/>
    </pattern>
    <pattern id="b" data-name="10 lpi 70%" width="72" height="72" patternTransform="translate(33.814 38.407) scale(0.57)" patternUnits="userSpaceOnUse" viewBox="0 0 72 72">
      <path fill="none" d="M0 0h72v72H0z"/>
      <path fill="none" stroke="#b4fc03" stroke-width="5.04" d="M71.75 68.4h72.5M71.75 54h72.5M71.75 39.6h72.5M71.75 25.2h72.5M71.75 10.8h72.5M71.75 61.2h72.5M71.75 46.8h72.5M71.75 32.4h72.5M71.75 18h72.5M71.75 3.6h72.5M-.25 68.4h72.5M-.25 54h72.5M-.25 39.6h72.5M-.25 25.2h72.5M-.25 10.8h72.5M-.25 61.2h72.5M-.25 46.8h72.5M-.25 32.4h72.5M-.25 18h72.5M-.25 3.6h72.5M-72.25 68.4H.25M-72.25 54H.25M-72.25 39.6H.25M-72.25 25.2H.25M-72.25 10.8H.25M-72.25 61.2H.25M-72.25 46.8H.25M-72.25 32.4H.25M-72.25 18H.25M-72.25 3.6H.25"/>
    </pattern>
    <pattern id="c" data-name="10 lpi 70%" width="72" height="72" patternTransform="translate(33.784 38.277) scale(0.57)" patternUnits="userSpaceOnUse" viewBox="0 0 72 72">
      <path fill="none" d="M0 0h72v72H0z"/>
      <path fill="none" stroke="#b4fc03" stroke-width="5.04" d="M71.75 68.4h72.5M71.75 54h72.5M71.75 39.6h72.5M71.75 25.2h72.5M71.75 10.8h72.5M71.75 61.2h72.5M71.75 46.8h72.5M71.75 32.4h72.5M71.75 18h72.5M71.75 3.6h72.5M-.25 68.4h72.5M-.25 54h72.5M-.25 39.6h72.5M-.25 25.2h72.5M-.25 10.8h72.5M-.25 61.2h72.5M-.25 46.8h72.5M-.25 32.4h72.5M-.25 18h72.5M-.25 3.6h72.5M-72.25 68.4H.25M-72.25 54H.25M-72.25 39.6H.25M-72.25 25.2H.25M-72.25 10.8H.25M-72.25 61.2H.25M-72.25 46.8H.25M-72.25 32.4H.25M-72.25 18H.25M-72.25 3.6H.25"/>
    </pattern>
    <pattern id="d" data-name="10 dpi 80%" width="28.8" height="28.8" patternTransform="translate(9.166 16.221) scale(0.325)" patternUnits="userSpaceOnUse" viewBox="0 0 28.8 28.8">
      <path fill="none" d="M0 0h28.8v28.8H0z"/>
      <circle cx="7.2" cy="21.599" r="5.76" fill="#fc6a06"/>
      <circle cx="21.6" cy="21.599" r="5.76" fill="#fc6a06"/>
      <circle cx="7.2" cy="7.199" r="5.759" fill="#fc6a06"/>
      <circle cx="21.6" cy="7.199" r="5.76" fill="#fc6a06"/>
      <circle cx="28.8" cy="28.799" r="5.76" fill="#fc6a06"/>
      <circle cx="14.4" cy="28.799" r="5.759" fill="#fc6a06"/>
      <circle cx="28.8" cy="14.4" r="5.76" fill="#fc6a06"/>
      <circle cx="14.4" cy="14.4" r="5.76" fill="#fc6a06"/>
      <circle cy="28.799" r="5.76" fill="#fc6a06"/>
      <circle cy="14.4" r="5.76" fill="#fc6a06"/>
      <circle cx="28.8" cy="-.001" r="5.76" fill="#fc6a06"/>
      <circle cx="14.4" cy="-.001" r="5.759" fill="#fc6a06"/>
      <circle cy="-.001" r="5.76" fill="#fc6a06"/>
    </pattern>
    <pattern id="e" data-name="10 dpi 50%" width="28.799" height="28.799" patternTransform="translate(9.262 16.413) scale(0.325)" patternUnits="userSpaceOnUse" viewBox="0 0 28.799 28.799">
      <path fill="none" d="M0 0h28.799v28.799H0z"/>
      <circle cx="28.799" cy="28.799" r="3.6" fill="#f98c43"/>
      <circle cx="14.398" cy="28.799" r="3.6" fill="#f98c43"/>
      <circle cx="28.799" cy="14.399" r="3.6" fill="#f98c43"/>
      <circle cx="14.398" cy="14.399" r="3.601" fill="#f98c43"/>
      <circle cx="7.198" cy="21.6" r="3.6" fill="#f98c43"/>
      <circle cx="21.6" cy="21.6" r="3.6" fill="#f98c43"/>
      <circle cx="7.198" cy="7.199" r="3.6" fill="#f98c43"/>
      <circle cx="21.6" cy="7.199" r="3.6" fill="#f98c43"/>
      <circle cy="28.799" r="3.6" fill="#f98c43"/>
      <circle cy="14.399" r="3.6" fill="#f98c43"/>
      <circle cx="28.799" r="3.6" fill="#f98c43"/>
      <circle cx="14.398" r="3.6" fill="#f98c43"/>
      <circle r="3.6" fill="#f98c43"/>
    </pattern>
    <pattern id="f" data-name="10 dpi 80%" width="28.8" height="28.8" patternTransform="translate(9.196 16.351) scale(0.325)" patternUnits="userSpaceOnUse" viewBox="0 0 28.8 28.8">
      <path fill="none" d="M0 0h28.8v28.8H0z"/>
      <circle cx="7.2" cy="21.599" r="5.76" fill="#fc6a06"/>
      <circle cx="21.6" cy="21.599" r="5.76" fill="#fc6a06"/>
      <circle cx="7.2" cy="7.199" r="5.759" fill="#fc6a06"/>
      <circle cx="21.6" cy="7.199" r="5.76" fill="#fc6a06"/>
      <circle cx="28.8" cy="28.799" r="5.76" fill="#fc6a06"/>
      <circle cx="14.4" cy="28.799" r="5.759" fill="#fc6a06"/>
      <circle cx="28.8" cy="14.4" r="5.76" fill="#fc6a06"/>
      <circle cx="14.4" cy="14.4" r="5.76" fill="#fc6a06"/>
      <circle cy="28.799" r="5.76" fill="#fc6a06"/>
      <circle cy="14.4" r="5.76" fill="#fc6a06"/>
      <circle cx="28.8" cy="-.001" r="5.76" fill="#fc6a06"/>
      <circle cx="14.4" cy="-.001" r="5.759" fill="#fc6a06"/>
      <circle cy="-.001" r="5.76" fill="#fc6a06"/>
    </pattern>
  </defs>
  <g data-name="Layer 1">
    <g data-name="&lt;Group&gt;">
      <g opacity=".41" style="mix-blend-mode:multiply">
        <path d="M60.25 30.75v5.71H47.66a5.513 5.513 0 01.8 2.8 6.388 6.388 0 01-2 4.7 6.621 6.621 0 01-4.7 1.2 8.944 8.944 0 01-1.7-.4 3.928 3.928 0 01-.9-.5 3.043 3.043 0 01-.8-.8 5.421 5.421 0 01-1.4-3.2h-1.1a7.679 7.679 0 01-.8 2 8.106 8.106 0 01-1 1.4 8.681 8.681 0 01-1.5 1.2 5.971 5.971 0 01-3.2.5 4.828 4.828 0 01-1.6-.4 7.33 7.33 0 01-1.1-.7 4.184 4.184 0 01-1.1-1.2l-.6-1.2a8.254 8.254 0 01-.5-1.5h-1.1a5.56 5.56 0 01-.61 1.8 8.307 8.307 0 01-.6 1.09 4.148 4.148 0 01-1.4 1.3 5.989 5.989 0 01-4.6.8 6.35 6.35 0 01-1.9-.8 5.866 5.866 0 01-1.8-2 5.445 5.445 0 01-.6-3.09 5.445 5.445 0 01.1-1.21 9.979 9.979 0 01.7-1.7H.25v-5.8h1.9v-4.79a2.9 2.9 0 015.8 0v4.79h1.91V14.36H7.95v-5.8h2v-3.9A3.909 3.909 0 0113.86.75h32.89v.01a3.9 3.9 0 013.91 3.9v3.9h1.9v5.8h-1.9v16.39h1.89v-4.79a2.9 2.9 0 015.8 0v4.79h1.9z" fill="#435b55"/>
        <path d="M60.25 30.75h-1.9v-4.79a2.9 2.9 0 00-5.8 0v4.79h-1.89V14.36h1.9v-5.8h-1.9v-3.9a3.9 3.9 0 00-3.91-3.9V.75H13.86a3.909 3.909 0 00-3.91 3.91v3.9h-2v5.8h1.91v16.39H7.95v-4.79a2.9 2.9 0 00-5.8 0v4.79H.25v5.8h12.4a9.979 9.979 0 00-.7 1.7 5.445 5.445 0 00-.1 1.21 5.445 5.445 0 00.6 3.09 5.866 5.866 0 001.8 2 6.35 6.35 0 001.9.8 5.989 5.989 0 004.6-.8 4.148 4.148 0 001.4-1.3 8.307 8.307 0 00.6-1.09 5.56 5.56 0 00.61-1.8h1.1a8.254 8.254 0 00.5 1.5l.6 1.2a4.184 4.184 0 001.1 1.2 7.33 7.33 0 001.1.7 4.828 4.828 0 001.6.4 5.971 5.971 0 003.2-.5 8.681 8.681 0 001.5-1.2 8.106 8.106 0 001-1.4 7.679 7.679 0 00.8-2h1.1a5.421 5.421 0 001.4 3.2 3.043 3.043 0 00.8.8 3.928 3.928 0 00.9.5 8.944 8.944 0 001.7.4 6.621 6.621 0 004.7-1.2 6.388 6.388 0 002-4.7 5.513 5.513 0 00-.8-2.8h12.59v-5.71z" fill="none" stroke="#000" stroke-miterlimit="10" stroke-width=".5"/>
      </g>
      <path d="M60.25 30.25v5.71H47.66a5.513 5.513 0 01.8 2.8 6.388 6.388 0 01-2 4.7 6.621 6.621 0 01-4.7 1.2 8.944 8.944 0 01-1.7-.4 3.928 3.928 0 01-.9-.5 3.043 3.043 0 01-.8-.8 5.421 5.421 0 01-1.4-3.2h-1.1a7.679 7.679 0 01-.8 2 8.106 8.106 0 01-1 1.4 8.681 8.681 0 01-1.5 1.2 5.971 5.971 0 01-3.2.5 4.828 4.828 0 01-1.6-.4 7.33 7.33 0 01-1.1-.7 4.184 4.184 0 01-1.1-1.2l-.6-1.2a8.254 8.254 0 01-.5-1.5h-1.1a5.56 5.56 0 01-.61 1.8 8.307 8.307 0 01-.6 1.09 4.148 4.148 0 01-1.4 1.3 5.989 5.989 0 01-4.6.8 6.35 6.35 0 01-1.9-.8 5.866 5.866 0 01-1.8-2 5.445 5.445 0 01-.6-3.09 5.445 5.445 0 01.1-1.21 9.979 9.979 0 01.7-1.7H.25v-5.8h1.9v-4.79a2.9 2.9 0 015.8 0v4.79h1.91V13.86H7.95v-5.8h2v-3.9A3.909 3.909 0 0113.86.25h32.89v.01a3.9 3.9 0 013.91 3.9v3.9h1.9v5.8h-1.9v16.39h1.89v-4.79a2.9 2.9 0 015.8 0v4.79h1.9z" fill="#dcf4ee"/>
      <path d="M60.25 30.25h-1.9v-4.79a2.9 2.9 0 00-5.8 0v4.79h-1.89V13.86h1.9v-5.8h-1.9v-3.9a3.9 3.9 0 00-3.91-3.9V.25H13.86a3.909 3.909 0 00-3.91 3.91v3.9h-2v5.8h1.91v16.39H7.95v-4.79a2.9 2.9 0 00-5.8 0v4.79H.25v5.8h12.4a9.979 9.979 0 00-.7 1.7 5.445 5.445 0 00-.1 1.21 5.445 5.445 0 00.6 3.09 5.866 5.866 0 001.8 2 6.35 6.35 0 001.9.8 5.989 5.989 0 004.6-.8 4.148 4.148 0 001.4-1.3 8.307 8.307 0 00.6-1.09 5.56 5.56 0 00.61-1.8h1.1a8.254 8.254 0 00.5 1.5l.6 1.2a4.184 4.184 0 001.1 1.2 7.33 7.33 0 001.1.7 4.828 4.828 0 001.6.4 5.971 5.971 0 003.2-.5 8.681 8.681 0 001.5-1.2 8.106 8.106 0 001-1.4 7.679 7.679 0 00.8-2h1.1a5.421 5.421 0 001.4 3.2 3.043 3.043 0 00.8.8 3.928 3.928 0 00.9.5 8.944 8.944 0 001.7.4 6.621 6.621 0 004.7-1.2 6.388 6.388 0 002-4.7 5.513 5.513 0 00-.8-2.8h12.59v-5.71z" fill="none" stroke="#226d5b" stroke-miterlimit="10" stroke-width=".5"/>
    </g>
    <path d="M15.655 34.255a2.9 2.9 0 012.9-2.9h23.2a2.9 2.9 0 012.9 2.9h-29z" fill="#f4c6ba"/>
    <path fill="#064bf9" d="M29.155 2.655h1.9v1.9h-1.9zM40.855 2.655h1.9v1.9h-1.9zM17.555 2.655h1.9v1.9h-1.9z"/>
    <path fill="#b9efed" d="M41.755 36.555h1.9v1.9h-1.9zM29.155 36.555h1.9v1.9h-1.9zM16.655 36.555h1.9v1.9h-1.9z"/>
    <path d="M48.555 34.155h-1.9a4.8 4.8 0 00-4.8-4.8h-23.3a4.8 4.8 0 00-4.8 4.8h-1.9v-20.3h36.8c-.1 0-.1 20.3-.1 20.3z" fill="#f78d46"/>
    <g data-name="Group">
      <path fill="url(#a)" d="M50.56 32.25h7.59v1.81h-7.59z"/>
      <path fill="#666" d="M58.15 32.16v.09h-7.59v1.81h-.11v-1.9h7.7zM56.26 25.46v1h-.01v-1a.955.955 0 00-.25-.45 1.067 1.067 0 01.26.45zM55.56 24.75a1.032 1.032 0 01.44.26.994.994 0 00-.45-.25 1.027 1.027 0 00-1.14.54.93.93 0 011.08-.56c.02 0 .04.01.07.01zM54.35 25.56v.9h-.09l.09-.9z"/>
      <path fill="#0391fc" d="M50.45 9.95v1.9H9.85v-1.9h40.6z"/>
      <path fill="#666" d="M48.56 13.86h.09v20.3h-.09z"/>
      <path fill="url(#b)" d="M46.65 7.95h1.91v.11h-1.91z"/>
      <path d="M48.53 4.01v3.81h-1.91v-5.7a1.908 1.908 0 011.76 1.17 1.753 1.753 0 01.15.72z" transform="translate(0.03 0.13)" fill="url(#c)"/>
      <path d="M48.56 4.05v.09a1.753 1.753 0 00-.15-.72 1.988 1.988 0 00-1.76-1.27 1.914 1.914 0 011.91 1.9z" fill="#666"/>
      <path d="M48.41 3.42a1.908 1.908 0 00-1.76-1.17v-.1a1.988 1.988 0 011.76 1.27z" fill="#666"/>
      <path d="M45.33 35.92a3.944 3.944 0 01.4 5.5 4.167 4.167 0 01-.78.62 3.271 3.271 0 00.67-.62 3.925 3.925 0 00-.4-5.5h.11z" transform="translate(0.03 0.13)" fill="url(#d)"/>
      <path d="M45.22 35.92a3.925 3.925 0 01.4 5.5 3.969 3.969 0 01-1.34.97 1.755 1.755 0 01-.32.12 2.619 2.619 0 01-.4.11 4.483 4.483 0 01-.82.1h-.02c-.12 0-.25 0-.36-.01h-.01a3.763 3.763 0 01-3.33-2.88h.7v-.01h.1v-1.9h-.79a4.135 4.135 0 011.2-2h4.99z" transform="translate(0.03 0.13)" fill="url(#d)"/>
      <path d="M45.62 41.42a3.155 3.155 0 01-1.34.97 3.969 3.969 0 001.34-.97z" transform="translate(0.03 0.13)" fill="url(#d)"/>
      <path d="M44.65 34.15v.01h-29v-.01h29zM38.86 7.95h5.79v.01h-5.79z" fill="#666"/>
      <path fill="url(#b)" d="M38.86 2.16h5.79v5.79h-5.79z"/>
      <path d="M44.62 34.02h-29a2.9 2.9 0 012.9-2.9h23.2a2.9 2.9 0 012.9 2.9z" transform="translate(0.03 0.13)" fill="url(#e)"/>
      <path d="M44.31 42.52a3.283 3.283 0 00.67-.35 3.476 3.476 0 01-1.86.67 3.55 3.55 0 00.47-.09 1.823 1.823 0 00.4-.11 1.755 1.755 0 00.32-.12z" fill="#666"/>
      <path d="M43.59 42.75a2.619 2.619 0 00.4-.11 1.823 1.823 0 01-.4.11zM43.59 42.75a3.55 3.55 0 01-.47.09 1.927 1.927 0 01-.24.01h-.11a4.483 4.483 0 00.82-.1z" fill="#666"/>
      <path fill="url(#f)" d="M39.05 39.95h.7v.01h-.7z"/>
      <path d="M37.65 36.05h.1a4.921 4.921 0 00-.69 2h-.11a13.18 13.18 0 01.7-2zM36.86 7.95v.01h-1.91v-5.8h.11v5.79h1.8z" fill="#666"/>
      <path fill="url(#b)" d="M35.06 2.16h1.8v5.79h-1.8z"/>
      <path fill="#666" d="M33.06 39.86h.8v.1h-.8z"/>
      <path d="M33.82 37.79c0 .01.01.03.01.04h-.8v2h.8a.106.106 0 01-.02.05 4.141 4.141 0 01-.34.87.053.053 0 01-.02.03 1.777 1.777 0 01-.17.27 3.8 3.8 0 01-3.84 1.63 1.985 1.985 0 01-.32-.06 3.628 3.628 0 01-2.79-2.79h.79v-1.91h-.79a4.135 4.135 0 011.2-2h5.09a4.058 4.058 0 011.2 1.87z" transform="translate(0.03 0.13)" fill="url(#d)"/>
      <path d="M33.84 40.01a3.282 3.282 0 01-.34.87 4.141 4.141 0 00.34-.87zM33.31 41.18a1.777 1.777 0 00.17-.27 2.007 2.007 0 01-.17.27z" fill="#666"/>
      <path fill="#077757" d="M33.06 2.16v5.8h-5.8v-.01h5.79V2.16h.01z"/>
      <path fill="url(#b)" d="M27.26 2.16h5.79v5.79h-5.79z"/>
      <path d="M33.82 37.79a4.058 4.058 0 00-1.2-1.87 3.577 3.577 0 011.2 1.87z" transform="translate(0.03 0.13)" fill="url(#d)"/>
      <path d="M29.47 42.81a1.171 1.171 0 01-.26-.04c-.02-.01-.04-.01-.06-.02a1.985 1.985 0 00.32.06zM25.26 7.95v.01h-1.9v-5.8h.09v5.79h1.81z" fill="#666"/>
      <path fill="url(#b)" d="M23.45 2.16h1.81v5.79h-1.81z"/>
      <path fill="#666" d="M15.65 7.95h5.8v.11h-5.8z"/>
      <path fill="url(#b)" d="M15.65 2.16h5.8v5.79h-5.8z"/>
      <path d="M21.24 37.59a1.172 1.172 0 01.09.24h-.01a2.25 2.25 0 00-.08-.24zM21.32 39.73a.34.34 0 00.01.1h-.14l.03-.1h.1z" transform="translate(0.03 0.13)" fill="url(#d)"/>
      <path d="M21.24 37.59a2.25 2.25 0 01.08.24h-.9v1.9h.1v.1h.67a3.854 3.854 0 01-6.04 2.03.219.219 0 00-.05-.03c-.13-.12-.25-.24-.37-.37a3.779 3.779 0 01-.87-1.58 3.091 3.091 0 01-.12-.74c-.01-.11-.01-.21-.01-.31a3.9 3.9 0 01.52-1.95 4.033 4.033 0 01.78-.96h5.09a3.872 3.872 0 01.4.41 3.035 3.035 0 01.34.46.879.879 0 01.06.1 2.754 2.754 0 01.2.38 1.755 1.755 0 01.12.32z" transform="translate(0.03 0.13)" fill="url(#d)"/>
      <path d="M21.22 39.73l-.03.1h-.67v-.1h.7z" transform="translate(0.03 0.13)" fill="url(#d)"/>
      <path d="M20.95 37.02a.879.879 0 00-.06-.1 3.035 3.035 0 00-.34-.46 3.872 3.872 0 00-.4-.41h-5.1a2.572 2.572 0 00-.28.29 2.882 2.882 0 00-.49.67 3.831 3.831 0 00-.51 2.26 3.091 3.091 0 00.12.74 3.176 3.176 0 00.25.67 3.268 3.268 0 00.43.72 3.849 3.849 0 01-.92-2.54 3.948 3.948 0 011.3-2.9h5.2a4.11 4.11 0 01.8 1.06z" fill="#666"/>
      <path d="M20.89 36.92a3.035 3.035 0 00-.34-.46 3.035 3.035 0 01.34.46zM20.55 36.46a3.872 3.872 0 00-.4-.41 3.872 3.872 0 01.4.41z" fill="#666"/>
      <path d="M16.09 42.44c.08.03.17.07.26.1a1.389 1.389 0 01-.26-.1zM15.83 42.32c.09.04.17.08.26.12a1.227 1.227 0 01-.26-.12z" transform="translate(0.03 0.13)" fill="url(#d)"/>
      <path d="M18.06 29.38a4.806 4.806 0 00-4.31 4.78h-.1a4.782 4.782 0 014.41-4.78z" fill="#666"/>
      <path d="M15.15 41.86a3.794 3.794 0 00.67.46 3.161 3.161 0 01-.72-.49.219.219 0 01.05.03zM15.1 41.83c-.07-.06-.13-.12-.2-.17s-.13-.13-.19-.19l-.17-.2a3.268 3.268 0 01-.43-.72 4.189 4.189 0 00.62.91c.12.13.24.25.37.37z" transform="translate(0.03 0.13)" fill="url(#d)"/>
      <path d="M14.9 41.66c.07.05.13.11.2.17a1.632 1.632 0 01-.2-.17z" transform="translate(0.03 0.13)" fill="url(#d)"/>
      <path d="M15.06 36.05a3.967 3.967 0 00-.29.29 2.572 2.572 0 01.28-.29h.01zM14.57 41.4l.17.2a1.632 1.632 0 01-.17-.2zM14.77 36.34a3.966 3.966 0 00-.49.67 2.882 2.882 0 01.49-.67z" fill="#666"/>
      <path d="M13.86 39.88a4.168 4.168 0 00.25.67 3.176 3.176 0 01-.25-.67z" transform="translate(0.03 0.13)" fill="url(#d)"/>
      <path d="M14.28 37.01a3.9 3.9 0 00-.52 1.95c0 .1 0 .2.01.31a3.831 3.831 0 01.51-2.26zM13.75 2.15h.01v5.8h-.01zM13.75 2.15v5.8h-.1v-5.7a1.914 1.914 0 00-1.31.53l.19-.19s0-.01.01 0a1.431 1.431 0 01.15-.11.391.391 0 01.16-.1c.04-.02.08-.04.13-.07a.083.083 0 01.08-.02 1.426 1.426 0 01.27-.09 1.866 1.866 0 01.25-.04c.06 0 .11-.01.17-.01zM13.65 7.95v.11h-1.89v-3.9a1.875 1.875 0 01.38-1.13.338.338 0 00-.06.12.481.481 0 00-.08.16.636.636 0 00-.06.18 1.076 1.076 0 00-.07.31 1.452 1.452 0 00-.02.36v3.79h1.8z" fill="#666"/>
      <path d="M13.62 2.12v5.7h-1.8V4.03a1.452 1.452 0 01.02-.36 1.554 1.554 0 01.07-.31l.06-.18a.481.481 0 01.08-.16 2.112 2.112 0 01.21-.31.053.053 0 00.02-.03.043.043 0 00.03-.03 1.914 1.914 0 011.31-.53z" transform="translate(0.03 0.13)" fill="url(#c)"/>
      <path d="M13.06 2.29a.618.618 0 01.27-.09 1.426 1.426 0 00-.27.09zM12.98 2.31c-.05.03-.09.05-.13.07a.239.239 0 01.13-.07zM12.69 2.48a1.431 1.431 0 00-.15.11.388.388 0 01.15-.11zM12.53 2.59l-.19.19a.043.043 0 01-.03.03.919.919 0 01.22-.22zM12.31 2.81a.053.053 0 01-.02.03.9.9 0 00-.09.1.689.689 0 01.11-.13z" fill="#666"/>
      <path d="M12.2 2.94a.9.9 0 01.09-.1 2.112 2.112 0 00-.21.31.338.338 0 01.06-.12.47.47 0 01.06-.09zM12 3.31l-.06.18a.636.636 0 01.06-.18zM11.94 3.49a1.554 1.554 0 00-.07.31 1.076 1.076 0 01.07-.31z" fill="#666"/>
      <path fill="url(#a)" d="M2.06 32.25h7.7v1.81h-7.7z"/>
      <path fill="#666" d="M2.06 32.16h7.7v.09h-7.7zM5.19 24.74a1.018 1.018 0 00-1.13.72.934.934 0 011.13-.72z"/>
      <path d="M21.36 39.96a3.86 3.86 0 01-1.04 1.81c-.11.11-.23.21-.35.31-.09.06-.17.12-.27.19a4.629 4.629 0 01-.54.29 3.873 3.873 0 01-2.48.2 1.71 1.71 0 01-.3-.09 1.389 1.389 0 01-.26-.1 1.227 1.227 0 01-.26-.12h-.01a3.161 3.161 0 01-.72-.49 1.632 1.632 0 01-.2-.17c-.07-.06-.13-.13-.19-.19l-.17-.2a3.268 3.268 0 01-.43-.72 3.176 3.176 0 01-.25-.67 3.091 3.091 0 01-.12-.74c-.01-.11-.01-.21-.01-.31a3.9 3.9 0 01.52-1.95 4.033 4.033 0 01.78-.96h5.09a3.872 3.872 0 01.4.41 3.035 3.035 0 01.34.46.879.879 0 01.06.1 2.754 2.754 0 01.2.38 1.755 1.755 0 01.12.32 1.172 1.172 0 01.09.24h-.91v1.9h.9a.34.34 0 00.01.1z" fill="none" stroke="#5c7c96" stroke-miterlimit="10" stroke-width=".5"/>
      <path fill="none" stroke="#bad8f4" stroke-miterlimit="10" stroke-width=".5" d="M33.06 39.86h.8v.1M32.65 36.05a4.058 4.058 0 011.2 1.87M26.36 38.05a4.135 4.135 0 011.2-2M29.47 42.81a1.171 1.171 0 01-.26-.04c-.02-.01-.04-.01-.06-.02M33.48 40.91a2.007 2.007 0 01-.17.27M33.84 40.01a3.282 3.282 0 01-.34.87"/>
      <path d="M33.84 40.01a.106.106 0 00.02-.05M33.48 40.91a.053.053 0 00.02-.03M29.47 42.81a3.8 3.8 0 003.84-1.63M26.36 38.05h.79v1.91h-.79a3.628 3.628 0 002.79 2.79M32.65 36.05h-5.09M33.06 39.86v-1.9h.8c0-.01-.01-.03-.01-.04" fill="none" stroke="#5c7c96" stroke-miterlimit="10" stroke-width=".5"/>
      <path d="M4.06 25.46a.934.934 0 011.13-.72c.02 0 .04.01.07.01a1.021 1.021 0 01.7.71v1h-1.9v-1zM4.06 28.36h1.9v1.89h-1.9zM2.06 32.25v-.09h7.7V34.06h-7.7v-1.81zM54.35 25.56l.01-.1a.749.749 0 01.05-.16.93.93 0 011.08-.56c.02 0 .04.01.07.01a1.032 1.032 0 01.44.26 1.067 1.067 0 01.26.45v1h-2zM54.36 28.36h1.89v1.89h-1.89zM46.65 2.25v-.1a1.914 1.914 0 011.91 1.9v.09M48.56 7.95h-1.91M38.86 2.16h5.79v5.8h-5.79v-5.8zM36.86 7.95v.01h-1.91v-5.8H36.86v5.79z" fill="none" stroke="#077757" stroke-miterlimit="10" stroke-width=".25"/>
      <path fill="none" stroke="#666" stroke-miterlimit="10" stroke-width=".25" d="M27.26 2.16h5.8v5.8h-5.8v-5.8z"/>
      <path fill="none" stroke="#077757" stroke-miterlimit="10" stroke-width=".25" d="M25.26 7.95v.01h-1.9v-5.8H25.26v5.79zM15.65 2.16h5.8v5.9h-5.8v-5.9zM12.2 2.94a.9.9 0 01.09-.1.053.053 0 00.02-.03.043.043 0 00.03-.03 1.914 1.914 0 011.31-.53v5.81h-1.89v-3.9a1.875 1.875 0 01.38-1.13M30.15 11.85H9.85v-1.9h40.6v1.9h-20.3zM24.45 37.96h-1.19a4.79 4.79 0 00-.25-.99 4.653 4.653 0 00-.46-.92h2.6a3.253 3.253 0 00-.25.45 4.591 4.591 0 00-.35.96 2.768 2.768 0 00-.1.5zM44.65 34.15v.01h-29v-.01a2.9 2.9 0 012.9-2.9h23.2a2.9 2.9 0 012.9 2.9zM37.65 36.05h.1a4.921 4.921 0 00-.69 2h-1.11a7.678 7.678 0 00-.7-2h2.4z"/>
      <path d="M42.77 42.85h-.02c-.12 0-.25 0-.36-.01h-.01a3.763 3.763 0 01-3.33-2.88v-.01h.8v-1.9h-.79a4.135 4.135 0 011.2-2h5.1a3.944 3.944 0 01.4 5.5 4.167 4.167 0 01-.78.62 3.283 3.283 0 01-.67.35 1.755 1.755 0 01-.32.12 2.619 2.619 0 01-.4.11 4.483 4.483 0 01-.82.1z" fill="none" stroke="#5c7c96" stroke-miterlimit="10" stroke-width=".5"/>
      <path d="M48.56 34.16h-1.91a4.786 4.786 0 00-4.79-4.8H18.55c-.17 0-.33.01-.49.02a4.806 4.806 0 00-4.31 4.78h-1.9v-20.3h36.8v20.3h-.09zM50.56 34.06h-.11v-1.9h7.7V34.06h-7.59z" fill="none" stroke="#077757" stroke-miterlimit="10" stroke-width=".25"/>
      <path d="M46.65 7.95v.11h1.91V4.14a1.753 1.753 0 00-.15-.72 1.908 1.908 0 00-1.76-1.17v5.7z" fill="none" stroke="#226d5b" stroke-miterlimit="10" stroke-width=".25"/>
    </g>
    <path d="M47.055 19.555a3.9 3.9 0 00-7.8 0v5.8h7.7c.1 0 .1-5.8.1-5.8zm-1.9 3.8h-3.9v-3.9a1.958 1.958 0 013.9-.361v4.261zM33.762 19.555a3.9 3.9 0 00-7.8 0v5.8h7.7c.1 0 .1-5.8.1-5.8zm-1.9 3.8h-3.9v-3.9a1.958 1.958 0 013.9-.361v4.261zM21.455 19.555a3.9 3.9 0 00-7.8 0v5.8h7.7c.1 0 .1-5.8.1-5.8zm-1.9 3.8h-3.9v-3.9a1.958 1.958 0 013.9-.361v4.261z" fill="#f9f9f9"/>
  </g>
</svg>
