<svg id="Layer_1" data-name="Layer 1" xmlns="http://www.w3.org/2000/svg" viewBox="0 0 63 30"><title>trains_2</title><rect x="29.03" y="2.42" width="1.94" height="1.94"/><rect x="40.65" y="2.42" width="1.94" height="1.94"/><rect x="17.42" y="2.42" width="1.94" height="1.94"/><path d="M33.87,21.11a3.87,3.87,0,1,0-7.74,0v5.81h7.74V21.11ZM31.94,25H28.06V21.11a1.94,1.94,0,1,1,3.87,0V25Z" transform="translate(0 -3.2)"/><path d="M45.48,21.11a3.87,3.87,0,1,0-7.74,0v5.81h7.74V21.11ZM43.55,25H39.68V21.11a1.94,1.94,0,1,1,3.87,0V25Z" transform="translate(0 -3.2)"/><path d="M22.26,21.11a3.87,3.87,0,1,0-7.74,0v5.81h7.74V21.11ZM20.32,25H16.45V21.11a1.94,1.94,0,1,1,3.87,0V25Z" transform="translate(0 -3.2)"/><rect x="41.61" y="36.29" width="1.94" height="1.94"/><rect x="29.03" y="36.29" width="1.94" height="1.94"/><rect x="16.45" y="36.29" width="1.94" height="1.94"/><path d="M60,33.2H58.06V28.37a2.9,2.9,0,0,0-5.81,0V33.2H50.32V16.75h1.94V10.95H50.32V7.08A3.87,3.87,0,0,0,46.45,3.2H13.55A3.87,3.87,0,0,0,9.68,7.08v3.87H7.74v5.81H9.68V33.2H7.74V28.37a2.9,2.9,0,0,0-5.81,0V33.2H0V39H12.4a5.79,5.79,0,0,0-.66,1.71,6.16,6.16,0,0,0-.12,1.19,6.27,6.27,0,0,0,.58,3.15,5.36,5.36,0,0,0,1.83,2,5.42,5.42,0,0,0,1.94.75,6.67,6.67,0,0,0,2.69,0,6.23,6.23,0,0,0,1.85-.81,5.16,5.16,0,0,0,1.44-1.31,5.79,5.79,0,0,0,.61-1.11,8.71,8.71,0,0,0,.59-1.76h1.14a13.55,13.55,0,0,0,.55,1.49,6.65,6.65,0,0,0,.62,1.2,5.28,5.28,0,0,0,1.12,1.2,5.46,5.46,0,0,0,1.12.67,5.85,5.85,0,0,0,1.62.44,5.9,5.9,0,0,0,3.15-.46,6.36,6.36,0,0,0,1.47-1.16,6.62,6.62,0,0,0,1-1.39,7.93,7.93,0,0,0,.79-2h1.14a6.27,6.27,0,0,0,1.38,3.22,3.79,3.79,0,0,0,.84.84,4,4,0,0,0,.93.49,5.48,5.48,0,0,0,1.71.38,6.32,6.32,0,0,0,4.66-1.22,6.61,6.61,0,0,0,2-4.68A6.17,6.17,0,0,0,47.6,39H60V33.2ZM3.87,28.37a1,1,0,0,1,1.94,0v1H3.87v-1Zm0,2.9H5.81V33.2H3.87V31.27Zm5.81,5.81H1.94V35.14H9.68v1.94Zm44.52-8.71a1,1,0,0,1,1.94,0v1H54.19v-1Zm0,2.9h1.94V33.2H54.19V31.27ZM46.45,5.14a1.94,1.94,0,0,1,1.94,1.94v3.87H46.45V5.14Zm-7.74,0h5.81v5.81H38.71V5.14Zm-3.87,0h1.94v5.81H34.84V5.14Zm-7.74,0H32.9v5.81H27.1V5.14Zm-3.87,0h1.94v5.81H23.23V5.14Zm-7.74,0h5.81v5.81H15.48V5.14ZM11.61,7.08a1.94,1.94,0,0,1,1.94-1.94v5.81H11.61V7.08ZM9.68,12.88H50.32v1.94H9.68V12.88Zm11.48,30a3.86,3.86,0,0,1-7.6-1A3.82,3.82,0,0,1,14.89,39H20a3.87,3.87,0,0,1,1.19,1.94H20.32v1.94h0.83Zm3.13-1.94H23.13a5.79,5.79,0,0,0-.7-1.94H25A5.73,5.73,0,0,0,24.28,40.95Zm9.45,1.94a3.85,3.85,0,0,1-7.47,0H27.1V40.95H26.26A3.81,3.81,0,0,1,27.47,39h5.09a3.87,3.87,0,0,1,1.19,1.94H32.9v1.94h0.83ZM15.48,37.08a2.91,2.91,0,0,1,2.9-2.9H41.61a2.91,2.91,0,0,1,2.9,2.9h-29Zm21.38,3.87H35.72A5.79,5.79,0,0,0,35,39h2.54A5.73,5.73,0,0,0,36.86,40.95Zm5.72,4.84a3.87,3.87,0,0,1-3.73-2.9h0.83V40.95H38.84A3.82,3.82,0,0,1,40.05,39h5.09A3.87,3.87,0,0,1,42.58,45.79Zm5.81-8.71H46.45a4.84,4.84,0,0,0-4.84-4.84H18.39a4.84,4.84,0,0,0-4.84,4.84H11.61V16.75H48.39V37.08Zm9.68,0H50.32V35.14h7.74v1.94Z" transform="translate(0 -3.2)"/></svg>