<svg xmlns="http://www.w3.org/2000/svg" viewBox="0 0 60.2 20">
  <g data-name="Layer 1">
    <g data-name="&lt;Group&gt;">
      <g opacity=".41" style="mix-blend-mode:multiply">
        <path d="M48.25 25.35a17.943 17.943 0 00-3.19.21c-.11.02-.22.03-.33.05s-.19.03-.28.04l-1.76 2.47c0-.04-.04.02-.08.1l-.08.13-.08.1c-.09.02-.18.03-.26.05a8.135 8.135 0 00-.81.18c-.19.05-.38.1-.62.17h-.02c-6.86 0-13.91-.1-20.77-.1-.09-.05-.18-.09-.26-.13a.142.142 0 00-.04-.02c-.23-.12-.43-.2-.61-.28h-.01a.065.065 0 00-.05-.02 1.417 1.417 0 00-.18-.08 1.3 1.3 0 00-.17-.08c-.06-.03-.12-.06-.19-.09s-.11-.05-.17-.08c-.01-.01-.03-.01-.04-.02h-.24v-.04l-1.68-1.96a1.087 1.087 0 00-.28-.06 31.8 31.8 0 00-3.51-.13l-.14-.11H.75v-5.3h1.2V2.55h4.7V.75h4.8v1.8h8.3V.75h4.7v1.8h4.7v17.8h2.5V2.55h4.7V.75h4.7v1.8h8.3V.75h4.7v1.8h4.7v17.8h1.2v5h-2.5a.18.18 0 01.06.09h-6.9v.01h-.02l-2.33-.1h-.01zm9.9-1.5v-1.8H2.55v1.8h14.6l2.9 3.6h21l2.6-3.6h14.5zm-1.1-3.5v-1.8h-3v1.8h3zm0-3.5v-1.8h-3v1.8h3zm0-3.6v-1.8h-3v1.8h3zm0-3.5v-1.8h-3v1.8h3zm0-3.6v-1.8h-3v1.8h3zm-4.8 14.1V2.55h-1.2v17.7h1.2zm-3 .1v-1.8h-8.3v1.8h8.3zm0-3.5v-1.8h-8.3v1.8h8.3zm0-3.6v-1.8h-8.3v1.8h8.3zm0-3.5v-1.8h-8.3v1.8h8.3zm0-3.6v-1.8h-8.3v1.8h8.3zm-10 14.1V2.55h-1.2v17.7h1.2zm-2.9.1v-1.8h-3v1.8h3zm0-3.5v-1.8h-3v1.8h3zm0-3.6v-1.8h-3v1.8h3zm0-3.5v-1.8h-3v1.8h3zm0-3.6v-1.8h-3v1.8h3zm-8.9 14.2v-1.8h-3v1.8h3zm0-3.5v-1.8h-3v1.8h3zm0-3.6v-1.8h-3v1.8h3zm0-3.5v-1.8h-3v1.8h3zm0-3.6v-1.8h-3v1.8h3zm-4.8 14.1V2.55h-1.2v17.7h1.2zm-2.9.1v-1.8h-8.3v1.8h8.3zm0-3.5v-1.8h-8.3v1.8h8.3zm0-3.6v-1.8h-8.3v1.8h8.3zm0-3.5v-1.8h-8.3v1.8h8.3zm0-3.6v-1.8h-8.3v1.8h8.3zm-10.1 14.1V2.55h-1.2v17.7h1.2zm-2.9.1v-1.8h-3v1.8h3zm0-3.5v-1.8h-3v1.8h3zm0-3.6v-1.8h-3v1.8h3zm0-3.5v-1.8h-3v1.8h3zm0-3.6v-1.8h-3v1.8h3z" fill="#435b55"/>
        <path fill="#002b0e" d="M58.15 22.05v1.8h-14.5l-2.6 3.6h-21l-2.9-3.6H2.55v-1.8h55.6z"/>
        <path d="M57.97 26.24a4.157 4.157 0 01-1.8 5.4 3.87 3.87 0 01-1.8.5 4.9 4.9 0 01-2.7-.7c-.1 0-.1-.1-.2-.1a4.293 4.293 0 01-.88-5.88l.01-.01h6.92a.01.01 0 00-.01-.01h.02a3.534 3.534 0 01.44.8zm-1.74 1.8a2.175 2.175 0 10-2.18 2.18 2.211 2.211 0 002.18-2.18z"/>
        <path d="M57.51 25.44a.01.01 0 01.01.01h-6.91v-.01h6.9zM54.05 27.14a.9.9 0 11-.89.9.9.9 0 01.89-.9z" fill="#435b55"/>
        <path fill="#4e5412" d="M51.05 2.55h1.2v17.7h-1.2z"/>
        <path d="M48.75 26.25a4.136 4.136 0 01-1.9 5.4 3.67 3.67 0 01-1.8.4 7.517 7.517 0 01-1.9-.3 4.15 4.15 0 01-2.4-2.9h.01c.24-.07.43-.12.62-.17.25-.06.49-.12.81-.18.08-.02.17-.03.26-.05 0 .04.04-.02.08-.1l.08-.13.08-.1a2.294 2.294 0 002.75 1.68 1.9 1.9 0 001.565-2.06 2.162 2.162 0 00-2.27-2.13c.11-.02.22-.03.33-.05 1.44-.17 2.94-.19 3.19-.21a.01.01 0 00.01.01 3.737 3.737 0 01.485.89z"/>
        <path d="M48.26 25.35v.01a.01.01 0 01-.01-.01h.01zM44.85 26.83a.985.985 0 11-.98.98.982.982 0 01.98-.98z" fill="#435b55"/>
        <path d="M42.69 28.12l-.08.1c.04-.08.08-.14.08-.1z"/>
        <path fill="#4e5412" d="M38.05 2.55h1.2v17.7h-1.2zM21.45 2.55h1.2v17.7h-1.2z"/>
        <path d="M19.97 28.75h-.02a3.346 3.346 0 01-.4 1.4 3.468 3.468 0 01-1.5 1.6 2.967 2.967 0 01-1.1.4 4.036 4.036 0 01-2.2 0 3.435 3.435 0 01-1.5-.7 10.529 10.529 0 01-.8-.9 3.377 3.377 0 01-.8-1.9 4.325 4.325 0 01.75-3l.14.11a31.8 31.8 0 013.51.13 2.288 2.288 0 00-.47-.04 2.38 2.38 0 102.43 2.34v-.24h.24c.01.01.03.01.04.02.06.03.11.05.17.08s.13.06.19.09a1.3 1.3 0 01.17.08 1.417 1.417 0 01.18.08.065.065 0 01.05.02h.01c.17.08.36.16.61.28a.142.142 0 01.04.02c.08.04.17.08.26.13z"/>
        <circle cx="15.72" cy="28.19" r="1.05" fill="#435b55"/>
        <path d="M11.05 28.15a4.4 4.4 0 01-.2 1 6.047 6.047 0 01-.45 1.22 4.6 4.6 0 01-1.65 1.58 3.229 3.229 0 01-1.11.45 5.407 5.407 0 01-1.19.05 3.339 3.339 0 01-1.5-.3 4.053 4.053 0 01-.9-.5 4.3 4.3 0 01-.8-6h7.06a3.7 3.7 0 01.74 2.5zm-2.12.04a2.315 2.315 0 10-2.31 2.31 2.294 2.294 0 002.31-2.31z"/>
        <path fill="#4e5412" d="M8.45 2.55h1.2v17.7h-1.2z"/>
        <circle cx="6.62" cy="28.19" r="1.05" fill="#435b55"/>
        <path d="M50.605 25.45l-.01.01a4.293 4.293 0 00.88 5.88c.1 0 .1.1.2.1a4.9 4.9 0 002.7.7 3.87 3.87 0 001.8-.5 4.157 4.157 0 001.8-5.4 3.534 3.534 0 00-.44-.8h-.02" fill="none" stroke="#000" stroke-miterlimit="10" stroke-width=".25"/>
        <path d="M54.05 25.86a2.16 2.16 0 012.18 2.18 2.211 2.211 0 01-2.18 2.18 2.18 2.18 0 010-4.36z" fill="none" stroke="#000" stroke-miterlimit="10" stroke-width=".25"/>
        <path d="M50.605 25.45h6.92a.01.01 0 00-.01-.01M50.6 25.44v.01M50.59 25.46v-.01h.01M48.26 25.35l2.33.1M48.25 25.34v.01h.01v.01M45.06 25.56a17.943 17.943 0 013.19-.21M44.73 25.61c.11-.02.22-.03.33-.05" fill="none" stroke="#000" stroke-miterlimit="10" stroke-width=".5"/>
        <path d="M40.75 28.85a4.15 4.15 0 002.4 2.9 7.517 7.517 0 001.9.3 3.67 3.67 0 001.8-.4 4.136 4.136 0 001.9-5.4 3.737 3.737 0 00-.49-.89.01.01 0 01-.01-.01c-.25.02-1.75.04-3.19.21" fill="none" stroke="#000" stroke-miterlimit="10" stroke-width=".5"/>
        <path d="M42.53 28.35c-.04.08-.08.14-.08.1-.09.02-.18.03-.26.05-.32.06-.56.12-.81.18M42.61 28.22l.08-.1 1.76-2.47c.09-.01.18-.03.28-.04a2.162 2.162 0 012.275 2.13 1.9 1.9 0 01-1.56 2.06 2.294 2.294 0 01-2.75-1.68c0-.04-.04.02-.08.1M42.61 28.22l-.08.13" fill="none" stroke="#000" stroke-miterlimit="10" stroke-width=".5"/>
        <path d="M41.38 28.68a8.135 8.135 0 01.81-.18c.08-.02.17-.03.26-.05l.08-.1M41.38 28.68c-.19.05-.38.1-.62.17h-.01M40.75 28.85h-.01c-6.86 0-13.91-.1-20.77-.1M19.06 28.32c.18.08.38.16.61.28M18.25 27.95c.01.01.03.01.04.02.06.03.11.05.17.08s.13.06.19.09a1.3 1.3 0 01.17.08 1.417 1.417 0 01.18.08M19.005 28.3a1.417 1.417 0 00-.18-.08M19.005 28.3a.065.065 0 01.05.02h.01M19.67 28.6c-.25-.12-.44-.2-.61-.28M19.67 28.6a.142.142 0 01.04.02c.08.04.17.08.26.13" fill="none" stroke="#000" stroke-miterlimit="10" stroke-width=".5"/>
        <path d="M3.25 25.65a4.3 4.3 0 00.8 6 4.053 4.053 0 00.9.5 3.339 3.339 0 001.5.3 5.407 5.407 0 001.19-.05 3.229 3.229 0 001.11-.45 4.6 4.6 0 001.65-1.58 6.047 6.047 0 00.45-1.22 4.4 4.4 0 00.2-1 3.7 3.7 0 00-.74-2.5h2.095a4.325 4.325 0 00-.75 3 3.377 3.377 0 00.8 1.9 10.529 10.529 0 00.8.9 3.435 3.435 0 001.5.7 4.036 4.036 0 002.2 0 2.967 2.967 0 001.1-.4 3.468 3.468 0 001.5-1.6 3.346 3.346 0 00.4-1.4h.02" fill="none" stroke="#000" stroke-miterlimit="10" stroke-width=".5"/>
        <path fill="none" stroke="#000" stroke-miterlimit="10" stroke-width=".25" d="M54.05 4.35h3v1.8h-3zM54.05 7.95h3v1.8h-3zM54.05 11.45h3v1.8h-3zM54.05 15.05h3v1.8h-3zM54.05 18.55h3v1.8h-3zM51.05 2.55h1.2v17.7h-1.2zM40.95 4.35h8.3v1.8h-8.3zM40.95 7.95h8.3v1.8h-8.3zM40.95 11.45h8.3v1.8h-8.3zM40.95 15.05h8.3v1.8h-8.3zM40.95 18.55h8.3v1.8h-8.3zM38.05 2.55h1.2v17.7h-1.2zM33.35 4.35h3v1.8h-3zM33.35 7.95h3v1.8h-3zM33.35 11.45h3v1.8h-3zM33.35 15.05h3v1.8h-3zM33.35 18.55h3v1.8h-3zM24.45 4.35h3v1.8h-3zM24.45 7.95h3v1.8h-3zM24.45 11.45h3v1.8h-3zM24.45 15.05h3v1.8h-3zM24.45 18.55h3v1.8h-3zM21.45 2.55h1.2v17.7h-1.2zM11.45 4.35h8.3v1.8h-8.3zM11.45 7.95h8.3v1.8h-8.3zM11.45 11.45h8.3v1.8h-8.3zM11.45 15.05h8.3v1.8h-8.3zM11.45 18.55h8.3v1.8h-8.3zM8.45 2.55h1.2v17.7h-1.2zM3.75 4.35h3v1.8h-3zM3.75 7.95h3v1.8h-3zM3.75 11.45h3v1.8h-3zM3.75 15.05h3v1.8h-3zM3.75 18.55h3v1.8h-3zM6.62 30.5a2.315 2.315 0 112.31-2.31 2.294 2.294 0 01-2.31 2.31zM10.31 25.65H3.25"/>
        <path d="M3.25 25.65H.75v-5.3h1.2V2.55h4.7V.75h4.8v1.8h8.3V.75h4.7v1.8h4.7v17.8h2.5V2.55h4.7V.75h4.7v1.8h8.3V.75h4.7v1.8h4.7v17.8h1.2v5h-2.5a.18.18 0 01.06.09" fill="none" stroke="#000" stroke-miterlimit="10" stroke-width=".5"/>
        <path d="M12.54 25.76a31.8 31.8 0 013.51.13 1.087 1.087 0 01.28.06l1.68 1.96v.28a2.38 2.38 0 11-2.43-2.34 2.288 2.288 0 01.47.04" fill="none" stroke="#000" stroke-miterlimit="10" stroke-width=".25"/>
        <path fill="none" stroke="#000" stroke-miterlimit="10" stroke-width=".25" d="M58.15 23.85h-14.5l-2.6 3.6h-21l-2.9-3.6H2.55v-1.8h55.6v1.8z"/>
      </g>
      <path d="M47.75 24.85a17.943 17.943 0 00-3.19.21c-.11.02-.22.03-.33.05s-.19.03-.28.04l-1.76 2.47c0-.04-.04.02-.08.1l-.08.13-.08.1c-.09.02-.18.03-.26.05a8.135 8.135 0 00-.81.18c-.19.05-.38.1-.62.17h-.02c-6.86 0-13.91-.1-20.77-.1-.09-.05-.18-.09-.26-.13a.142.142 0 00-.04-.02c-.23-.12-.43-.2-.61-.28h-.01a.065.065 0 00-.05-.02 1.417 1.417 0 00-.18-.08 1.3 1.3 0 00-.17-.08c-.06-.03-.12-.06-.19-.09s-.11-.05-.17-.08c-.01-.01-.03-.01-.04-.02h-.24v-.04l-1.68-1.96a1.087 1.087 0 00-.28-.06 31.8 31.8 0 00-3.51-.13l-.14-.11H.25v-5.3h1.2V2.05h4.7V.25h4.8v1.8h8.3V.25h4.7v1.8h4.7v17.8h2.5V2.05h4.7V.25h4.7v1.8h8.3V.25h4.7v1.8h4.7v17.8h1.2v5h-2.5a.18.18 0 01.06.09h-6.9v.01h-.02l-2.33-.1h-.01zm9.9-1.5v-1.8H2.05v1.8h14.6l2.9 3.6h21l2.6-3.6h14.5zm-1.1-3.5v-1.8h-3v1.8h3zm0-3.5v-1.8h-3v1.8h3zm0-3.6v-1.8h-3v1.8h3zm0-3.5v-1.8h-3v1.8h3zm0-3.6v-1.8h-3v1.8h3zm-4.8 14.1V2.05h-1.2v17.7h1.2zm-3 .1v-1.8h-8.3v1.8h8.3zm0-3.5v-1.8h-8.3v1.8h8.3zm0-3.6v-1.8h-8.3v1.8h8.3zm0-3.5v-1.8h-8.3v1.8h8.3zm0-3.6v-1.8h-8.3v1.8h8.3zm-10 14.1V2.05h-1.2v17.7h1.2zm-2.9.1v-1.8h-3v1.8h3zm0-3.5v-1.8h-3v1.8h3zm0-3.6v-1.8h-3v1.8h3zm0-3.5v-1.8h-3v1.8h3zm0-3.6v-1.8h-3v1.8h3zm-8.9 14.2v-1.8h-3v1.8h3zm0-3.5v-1.8h-3v1.8h3zm0-3.6v-1.8h-3v1.8h3zm0-3.5v-1.8h-3v1.8h3zm0-3.6v-1.8h-3v1.8h3zm-4.8 14.1V2.05h-1.2v17.7h1.2zm-2.9.1v-1.8h-8.3v1.8h8.3zm0-3.5v-1.8h-8.3v1.8h8.3zm0-3.6v-1.8h-8.3v1.8h8.3zm0-3.5v-1.8h-8.3v1.8h8.3zm0-3.6v-1.8h-8.3v1.8h8.3zm-10.1 14.1V2.05h-1.2v17.7h1.2zm-2.9.1v-1.8h-3v1.8h3zm0-3.5v-1.8h-3v1.8h3zm0-3.6v-1.8h-3v1.8h3zm0-3.5v-1.8h-3v1.8h3zm0-3.6v-1.8h-3v1.8h3z" fill="#dcf4ee"/>
      <path fill="#45c4a7" d="M57.65 21.55v1.8h-14.5l-2.6 3.6h-21l-2.9-3.6H2.05v-1.8h55.6z"/>
      <path d="M57.47 25.74a4.157 4.157 0 01-1.8 5.4 3.87 3.87 0 01-1.8.5 4.9 4.9 0 01-2.7-.7c-.1 0-.1-.1-.2-.1a4.293 4.293 0 01-.88-5.88l.01-.01h6.92a.01.01 0 00-.01-.01h.02a3.534 3.534 0 01.44.8zm-1.74 1.8a2.175 2.175 0 10-2.18 2.18 2.211 2.211 0 002.18-2.18z" fill="#16324f"/>
      <path d="M57.01 24.94a.01.01 0 01.01.01h-6.91v-.01h6.9zM53.55 26.64a.9.9 0 11-.89.9.9.9 0 01.89-.9z" fill="#dcf4ee"/>
      <path fill="#e7edab" d="M50.55 2.05h1.2v17.7h-1.2z"/>
      <path d="M48.25 25.75a4.136 4.136 0 01-1.9 5.4 3.67 3.67 0 01-1.8.4 7.517 7.517 0 01-1.9-.3 4.15 4.15 0 01-2.4-2.9h.01c.24-.07.43-.12.62-.17.25-.06.49-.12.81-.18.08-.02.17-.03.26-.05 0 .04.04-.02.08-.1l.08-.13.08-.1a2.294 2.294 0 002.75 1.68 1.9 1.9 0 001.565-2.06 2.162 2.162 0 00-2.27-2.13c.11-.02.22-.03.33-.05 1.44-.17 2.94-.19 3.19-.21a.01.01 0 00.01.01 3.737 3.737 0 01.485.89z" fill="#16324f"/>
      <path d="M47.76 24.85v.01a.01.01 0 01-.01-.01h.01zM44.35 26.33a.985.985 0 11-.98.98.982.982 0 01.98-.98z" fill="#dcf4ee"/>
      <path d="M42.19 27.62l-.08.1c.04-.08.08-.14.08-.1z" fill="#16324f"/>
      <path fill="#e7edab" d="M37.55 2.05h1.2v17.7h-1.2zM20.95 2.05h1.2v17.7h-1.2z"/>
      <path d="M19.47 28.25h-.02a3.346 3.346 0 01-.4 1.4 3.468 3.468 0 01-1.5 1.6 2.967 2.967 0 01-1.1.4 4.036 4.036 0 01-2.2 0 3.435 3.435 0 01-1.5-.7 10.529 10.529 0 01-.8-.9 3.377 3.377 0 01-.8-1.9 4.325 4.325 0 01.75-3l.14.11a31.8 31.8 0 013.51.13 2.288 2.288 0 00-.47-.04 2.38 2.38 0 102.43 2.34v-.24h.24c.01.01.03.01.04.02.06.03.11.05.17.08s.13.06.19.09a1.3 1.3 0 01.17.08 1.417 1.417 0 01.18.08.065.065 0 01.05.02h.01c.17.08.36.16.61.28a.142.142 0 01.04.02c.08.04.17.08.26.13z" fill="#16324f"/>
      <circle cx="15.22" cy="27.69" r="1.05" fill="#dcf4ee"/>
      <path d="M10.55 27.65a4.4 4.4 0 01-.2 1 6.047 6.047 0 01-.45 1.22 4.6 4.6 0 01-1.65 1.58 3.229 3.229 0 01-1.11.45 5.407 5.407 0 01-1.19.05 3.339 3.339 0 01-1.5-.3 4.053 4.053 0 01-.9-.5 4.3 4.3 0 01-.8-6h7.06a3.7 3.7 0 01.74 2.5zm-2.12.04A2.315 2.315 0 106.12 30a2.294 2.294 0 002.31-2.31z" fill="#16324f"/>
      <path fill="#e7edab" d="M7.95 2.05h1.2v17.7h-1.2z"/>
      <circle cx="6.12" cy="27.69" r="1.05" fill="#dcf4ee"/>
      <path d="M50.105 24.95l-.01.01a4.293 4.293 0 00.88 5.88c.1 0 .1.1.2.1a4.9 4.9 0 002.7.7 3.87 3.87 0 001.8-.5 4.157 4.157 0 001.8-5.4 3.534 3.534 0 00-.44-.8h-.02" fill="none" stroke="#226d5b" stroke-miterlimit="10" stroke-width=".25"/>
      <path d="M53.55 25.36a2.16 2.16 0 012.18 2.18 2.211 2.211 0 01-2.18 2.18 2.18 2.18 0 010-4.36z" fill="none" stroke="#226d5b" stroke-miterlimit="10" stroke-width=".25"/>
      <path d="M50.105 24.95h6.92a.01.01 0 00-.01-.01M50.1 24.94v.01M50.09 24.96v-.01h.01M47.76 24.85l2.33.1M47.75 24.84v.01h.01v.01M44.56 25.06a17.943 17.943 0 013.19-.21M44.23 25.11c.11-.02.22-.03.33-.05" fill="none" stroke="#226d5b" stroke-miterlimit="10" stroke-width=".5"/>
      <path d="M40.25 28.35a4.15 4.15 0 002.4 2.9 7.517 7.517 0 001.9.3 3.67 3.67 0 001.8-.4 4.136 4.136 0 001.9-5.4 3.737 3.737 0 00-.49-.89.01.01 0 01-.01-.01c-.25.02-1.75.04-3.19.21" fill="none" stroke="#226d5b" stroke-miterlimit="10" stroke-width=".5"/>
      <path d="M42.03 27.85c-.04.08-.08.14-.08.1-.09.02-.18.03-.26.05-.32.06-.56.12-.81.18M42.11 27.72l.08-.1 1.76-2.47c.09-.01.18-.03.28-.04a2.162 2.162 0 012.275 2.13 1.9 1.9 0 01-1.56 2.06 2.294 2.294 0 01-2.75-1.68c0-.04-.04.02-.08.1M42.11 27.72l-.08.13" fill="none" stroke="#226d5b" stroke-miterlimit="10" stroke-width=".5"/>
      <path d="M40.88 28.18a8.135 8.135 0 01.81-.18c.08-.02.17-.03.26-.05l.08-.1M40.88 28.18c-.19.05-.38.1-.62.17h-.01M40.25 28.35h-.01c-6.86 0-13.91-.1-20.77-.1M18.56 27.82c.18.08.38.16.61.28M17.75 27.45c.01.01.03.01.04.02.06.03.11.05.17.08s.13.06.19.09a1.3 1.3 0 01.17.08 1.417 1.417 0 01.18.08M18.505 27.8a1.417 1.417 0 00-.18-.08M18.505 27.8a.065.065 0 01.05.02h.01M19.17 28.1c-.25-.12-.44-.2-.61-.28M19.17 28.1a.142.142 0 01.04.02c.08.04.17.08.26.13" fill="none" stroke="#226d5b" stroke-miterlimit="10" stroke-width=".5"/>
      <path d="M2.75 25.15a4.3 4.3 0 00.8 6 4.053 4.053 0 00.9.5 3.339 3.339 0 001.5.3 5.407 5.407 0 001.19-.05 3.229 3.229 0 001.11-.45 4.6 4.6 0 001.65-1.58 6.047 6.047 0 00.45-1.22 4.4 4.4 0 00.2-1 3.7 3.7 0 00-.74-2.5h2.095a4.325 4.325 0 00-.75 3 3.377 3.377 0 00.8 1.9 10.529 10.529 0 00.8.9 3.435 3.435 0 001.5.7 4.036 4.036 0 002.2 0 2.967 2.967 0 001.1-.4 3.468 3.468 0 001.5-1.6 3.346 3.346 0 00.4-1.4h.02" fill="none" stroke="#226d5b" stroke-miterlimit="10" stroke-width=".5"/>
      <path fill="none" stroke="#226d5b" stroke-miterlimit="10" stroke-width=".25" d="M53.55 3.85h3v1.8h-3zM53.55 7.45h3v1.8h-3zM53.55 10.95h3v1.8h-3zM53.55 14.55h3v1.8h-3zM53.55 18.05h3v1.8h-3zM50.55 2.05h1.2v17.7h-1.2zM40.45 3.85h8.3v1.8h-8.3zM40.45 7.45h8.3v1.8h-8.3zM40.45 10.95h8.3v1.8h-8.3zM40.45 14.55h8.3v1.8h-8.3zM40.45 18.05h8.3v1.8h-8.3zM37.55 2.05h1.2v17.7h-1.2zM32.85 3.85h3v1.8h-3zM32.85 7.45h3v1.8h-3zM32.85 10.95h3v1.8h-3zM32.85 14.55h3v1.8h-3zM32.85 18.05h3v1.8h-3zM23.95 3.85h3v1.8h-3zM23.95 7.45h3v1.8h-3zM23.95 10.95h3v1.8h-3zM23.95 14.55h3v1.8h-3zM23.95 18.05h3v1.8h-3zM20.95 2.05h1.2v17.7h-1.2zM10.95 3.85h8.3v1.8h-8.3zM10.95 7.45h8.3v1.8h-8.3zM10.95 10.95h8.3v1.8h-8.3zM10.95 14.55h8.3v1.8h-8.3zM10.95 18.05h8.3v1.8h-8.3zM7.95 2.05h1.2v17.7h-1.2zM3.25 3.85h3v1.8h-3zM3.25 7.45h3v1.8h-3zM3.25 10.95h3v1.8h-3zM3.25 14.55h3v1.8h-3zM3.25 18.05h3v1.8h-3zM6.12 30a2.315 2.315 0 112.31-2.31A2.294 2.294 0 016.12 30zM9.81 25.15H2.75"/>
      <path d="M2.75 25.15H.25v-5.3h1.2V2.05h4.7V.25h4.8v1.8h8.3V.25h4.7v1.8h4.7v17.8h2.5V2.05h4.7V.25h4.7v1.8h8.3V.25h4.7v1.8h4.7v17.8h1.2v5h-2.5a.18.18 0 01.06.09" fill="none" stroke="#226d5b" stroke-miterlimit="10" stroke-width=".5"/>
      <path d="M12.04 25.26a31.8 31.8 0 013.51.13 1.087 1.087 0 01.28.06l1.68 1.96v.28a2.38 2.38 0 11-2.43-2.34 2.288 2.288 0 01.47.04" fill="none" stroke="#226d5b" stroke-miterlimit="10" stroke-width=".25"/>
      <path fill="none" stroke="#226d5b" stroke-miterlimit="10" stroke-width=".25" d="M57.65 23.35h-14.5l-2.6 3.6h-21l-2.9-3.6H2.05v-1.8h55.6v1.8z"/>
    </g>
  </g>
</svg>
