<svg height='100px' width='100px'  fill="#222222" xmlns="http://www.w3.org/2000/svg" viewBox="0 0 48 48" x="0px" y="0px"><title>Verification</title><g><path d="M28.79,17,21,24.77,19.21,23a3.18,3.18,0,0,0-4.42,0,3.13,3.13,0,0,0,0,4.42c3.44,3.44,4.12,4.55,6.21,4.55s2.11-.46,12.21-10.55A3.13,3.13,0,0,0,28.79,17Zm3,3-9.38,9.38a2,2,0,0,1-2.82,0c-3.45-3.44-3.71-3.51-3.71-4.17a1.12,1.12,0,0,1,1.91-.79l2.5,2.5a1,1,0,0,0,1.42,0l8.5-8.5A1.12,1.12,0,0,1,31.79,20Z"></path><path d="M24,8A16,16,0,1,0,40,24,16,16,0,0,0,24,8Zm0,30A14,14,0,1,1,38,24,14,14,0,0,1,24,38Z"></path><path d="M47.74,23.33,43.6,18.75l1.3-6a1,1,0,0,0-.67-1.17L38.35,9.65,36.46,3.77a1,1,0,0,0-1.17-.67l-6,1.3L24.67.26a1,1,0,0,0-1.34,0L18.75,4.4l-6-1.3a1,1,0,0,0-1.17.67L9.65,9.65,3.77,11.54a1,1,0,0,0-.67,1.17l1.3,6L.26,23.33a1,1,0,0,0,0,1.34L4.4,29.25l-1.3,6a1,1,0,0,0,.67,1.17l5.88,1.89,1.89,5.88a1,1,0,0,0,1.17.67l6-1.3,4.58,4.14a1,1,0,0,0,1.34,0l4.58-4.14,6,1.3a1,1,0,0,0,1.17-.67l1.89-5.88,5.88-1.89a1,1,0,0,0,.67-1.17l-1.3-6,4.14-4.58A1,1,0,0,0,47.74,23.33Zm-6,5c-.46.52-.33.42,1,6.54-5.75,1.85-5.93,1.74-6.15,2.42l-1.77,5.5-5.66-1.21c-.78-.16-1,.33-5.17,4.11-4.65-4.2-4.44-4.13-5-4.13-.16,0,.27-.08-5.87,1.23-1.85-5.75-1.73-5.93-2.42-6.15L5.24,34.83l1.22-5.66c.15-.68.07-.55-4.11-5.17,4.22-4.68,4.26-4.5,4.11-5.17L5.24,13.17l5.51-1.77c.76-.24.69-.78,2.42-6.15,6.16,1.32,6,1.44,6.54,1L24,2.35l4.29,3.88c.52.46.42.33,6.54-1,1.85,5.75,1.73,5.93,2.42,6.15l5.5,1.77-1.21,5.66c-.15.68-.08.53,4.11,5.17Z"></path></g></svg>